<?xml version="1.0" encoding="UTF-8"?>
<svg height="100%" width="100%" xmlns="http://www.w3.org/2000/svg">
	<defs>
		<font horiz-adv-x="410" id="web">
			<font-face alphabetic="0" ascent="993" descent="-267" font-family="" panose-1="2 11 3 6 2 2 4 2 2 4"/>
			<missing-glyph d="M59 700H305V0H59ZM109 650V50H255V650Z" horiz-adv-x="364"/>
			<glyph d="" horiz-adv-x="180" unicode=" "/>
			<glyph d="M71 695H110L107 182H73ZM61 64H116V0H61Z" horiz-adv-x="177" unicode="!"/>
			<glyph d="M50 714H90L84 428H54ZM155 714H195L189 428H159Z" horiz-adv-x="245" unicode="&quot;"/>
			<glyph d="M195 695H231L192 477H287L325 695H361L323 477H411V439H316L284 256H376V218H277L239 0H203L241 218H147L108 0H72L111 218H20V256H117L150 439H56V477H156ZM185 439L153 256H248L280 439Z" horiz-adv-x="431" unicode="#"/>
			<glyph d="M198 788H232V688Q265 687 298 679T351 664V620Q330 630 296 639T232 649V357Q289 328 319 306T366 253T384 172Q384 109 345 62T232 7V-96H198V6Q160 7 119 17T56 41V88Q83 71 121 58T198 45V328Q143 358 111 381T62 437T44 516Q44 587 85 633T198 687ZM198 647Q141 641 112 605T84 516Q84 465 112 435T198 374ZM232 310V46Q288 52 316 86T344 169Q344 206 331 229T296 270T232 310Z" unicode="$"/>
			<glyph d="M153 707Q210 707 243 661T276 522Q276 433 242 384T153 336Q96 336 63 383T30 522Q30 614 63 660T153 707ZM464 695H503L124 0H86ZM153 672Q112 672 88 633T65 522Q65 449 88 409T153 370Q193 370 217 409T241 522Q241 592 217 632T153 672ZM436 359Q493 359 526 313T559 174Q559 85 525 36T436 -12Q379 -12 346 35T313 174Q313 266 346 312T436 359ZM436 324Q395 324 371 285T348 174Q348 101 371 61T436 22Q476 22 500 61T524 174Q524 244 500 284T436 324Z" horiz-adv-x="589" unicode="%"/>
			<glyph d="M254 714Q301 714 334 681T367 583Q367 515 331 469T227 380L360 172Q383 214 436 359H477Q416 201 383 139L474 0H428L360 103Q332 55 292 22T190 -11Q122 -11 81 36T40 167Q40 245 74 296T179 395Q151 443 137 481T124 566Q124 637 159 675T254 714ZM250 678Q209 678 185 648T161 563Q161 520 172 489T211 411Q270 449 300 485T330 580Q330 625 307 651T250 678ZM195 363Q131 321 105 277T80 167Q80 104 111 64T192 25Q240 25 276 53T339 136Z" horiz-adv-x="500" unicode="&amp;"/>
			<glyph d="M50 714H90L84 428H54Z" horiz-adv-x="140" unicode="'"/>
			<glyph d="M151 770H192Q137 672 105 553T74 305Q74 173 106 56T192 -160H151Q98 -67 68 53T39 305Q39 436 68 555T151 770Z" horiz-adv-x="214" unicode="("/>
			<glyph d="M22 770H63Q116 677 145 557T175 305Q175 174 145 54T63 -160H22Q77 -62 108 57T140 305Q140 437 108 554T22 770Z" horiz-adv-x="214" unicode=")"/>
			<glyph d="M174 705H213L207 554L348 603L361 568L217 525L310 404L278 383L192 508L108 381L74 404L170 526L23 568L35 607L180 554Z" horiz-adv-x="385" unicode="*"/>
			<glyph d="M187 483H223V321H385V285H223V123H187V285H25V321H187Z" unicode="+"/>
			<glyph d="M79 64H123L47 -176H12Z" horiz-adv-x="167" unicode=","/>
			<glyph d="M34 275H254V235H34Z" horiz-adv-x="288" unicode="-"/>
			<glyph d="M56 64H111V0H56Z" horiz-adv-x="167" unicode="."/>
			<glyph d="M227 750H264L17 -49H-19Z" horiz-adv-x="247" unicode="/"/>
			<glyph d="M208 707Q297 707 339 623T381 351Q381 182 338 85T204 -12Q118 -12 73 73T28 353Q28 707 208 707ZM207 668Q143 668 106 594T70 371Q70 181 105 104T205 27Q273 27 306 110T339 349Q339 516 307 592T207 668Z" unicode="0"/>
			<glyph d="M226 713H251V0H210V658L75 565V612Z" unicode="1"/>
			<glyph d="M189 707Q267 707 314 661T361 530Q361 465 330 401T224 232L87 42H365V0H41V45L196 259Q265 355 291 411T317 525Q317 589 284 628T183 668Q148 668 115 657T59 631V675Q119 707 189 707Z" unicode="2"/>
			<glyph d="M163 707Q252 707 297 658T342 528Q342 462 307 415T218 353V351Q278 338 315 296T352 180Q352 93 298 40T150 -12Q87 -12 41 9V53Q61 42 90 34T148 27Q223 27 265 65T308 176Q308 253 265 291T125 329H97V370H121Q208 370 253 412T299 526Q299 590 265 629T157 668Q127 668 99 661T54 647V688Q107 707 163 707Z" unicode="3"/>
			<glyph d="M266 695H305V207H387V170H305V0H267V170H12V204ZM264 617Q260 604 247 579T232 549L56 207H267V617Z" unicode="4"/>
			<glyph d="M82 695H340V659H119L106 403Q138 413 175 413Q266 413 313 358T360 212Q360 110 306 49T161 -12Q127 -12 97 -5T51 10V56Q67 45 97 36T161 27Q235 27 276 76T317 208Q317 296 276 335T164 375Q139 375 111 369T65 355Z" unicode="5"/>
			<glyph d="M221 695H268L133 397L134 396Q145 407 170 415T220 424Q295 424 336 369T377 207Q377 113 332 50T203 -12Q128 -12 83 44T38 200Q38 255 48 294T82 387ZM216 386Q152 386 116 337T81 205Q81 117 114 71T205 26Q266 26 300 75T334 207Q334 386 216 386Z" unicode="6"/>
			<glyph d="M20 695H372V660L141 0H97L330 659H20Z" unicode="7"/>
			<glyph d="M206 707Q278 707 318 661T358 527Q358 403 278 361V359Q328 339 351 295T375 183Q375 89 328 38T202 -12Q123 -12 78 36T34 177Q34 321 130 358V360Q51 401 51 524Q51 610 93 658T206 707ZM206 669Q155 669 124 630T93 525Q93 454 123 415T203 377Q256 377 286 415T317 525Q317 592 287 630T206 669ZM203 338Q144 338 110 299T77 180Q77 106 111 65T204 25Q264 25 298 65T332 180Q332 260 297 299T203 338Z" unicode="8"/>
			<glyph d="M208 707Q283 707 328 651T373 497Q373 442 361 398T325 300L190 0H143L278 298L277 299Q266 288 243 280T195 272Q120 272 77 327T34 488Q34 582 79 644T208 707ZM206 669Q145 669 111 619T77 488Q77 400 109 355T201 311Q264 311 297 360T330 492Q330 580 296 624T206 669Z" unicode="9"/>
			<glyph d="M56 64H111V0H56ZM56 473H111V409H56Z" horiz-adv-x="167" unicode=":"/>
			<glyph d="M56 473H111V409H56ZM79 64H123L47 -176H12Z" horiz-adv-x="167" unicode=";"/>
			<glyph d="M369 474V434L83 299V297L369 162V122L42 277V318Z" unicode="&lt;"/>
			<glyph d="M25 404H385V368H25ZM25 234H385V198H25Z" unicode="="/>
			<glyph d="M42 474L369 319V278L42 122V162L328 297V299L42 434Z" unicode="&gt;"/>
			<glyph d="M134 707Q213 707 254 661T295 538Q295 486 277 445T231 371T152 289V182H114V305Q165 352 193 383T237 452T254 536Q254 596 224 632T133 669Q102 669 74 662T32 648V688Q77 707 134 707ZM105 64H160V0H105Z" horiz-adv-x="322" unicode="?"/>
			<glyph d="M321 715Q450 715 523 623T597 360Q597 246 559 187T464 129Q441 129 428 134T405 150Q392 141 367 135T318 129Q244 129 205 180T167 323Q167 424 214 478T344 533Q385 533 426 520V211Q426 167 465 167Q505 167 531 214T557 362Q557 515 493 596T319 678Q241 678 182 638T91 519T59 329Q59 164 128 73T345 -18Q382 -18 421 -10T476 5V-32Q458 -40 419 -47T336 -54Q171 -54 95 51T20 332Q20 457 58 543T163 672T321 715ZM340 496Q277 496 242 452T207 324Q207 249 238 208T326 167Q363 167 389 181V490Q373 496 340 496Z" horiz-adv-x="617" unicode="@"/>
			<glyph d="M220 695H267L474 0H429L361 233H121L50 0H6ZM241 637L133 272H349L242 637Z" horiz-adv-x="480" unicode="A"/>
			<glyph d="M67 695H211Q304 695 349 652T395 527Q395 458 362 416T275 364V362Q338 356 377 313T416 194Q416 109 362 54T205 0H67ZM107 657V380H192Q266 380 308 416T351 525Q351 657 206 657ZM107 342V38H203Q284 38 328 78T372 193Q372 276 323 309T190 342Z" horiz-adv-x="454" unicode="B"/>
			<glyph d="M320 707Q400 707 444 684V637Q389 667 319 667Q246 667 194 627T115 516T88 351Q88 213 142 120T310 28Q351 28 384 36T438 55V14Q419 4 384 -4T307 -12Q180 -12 113 85T46 348Q46 468 83 549T182 668T320 707Z" horiz-adv-x="465" unicode="C"/>
			<glyph d="M67 695H197Q483 695 483 355Q483 189 409 94T194 0H67ZM107 656V39H191Q316 39 378 121T441 351Q441 519 376 586T198 655Z" horiz-adv-x="529" unicode="D"/>
			<glyph d="M67 695H366V656H106V373H343V335H106V39H378V0H67Z" horiz-adv-x="413" unicode="E"/>
			<glyph d="M67 695H368V656H106V349H356V311H106V0H67Z" horiz-adv-x="399" unicode="F"/>
			<glyph d="M332 707Q372 707 407 700T461 684V637Q438 649 403 658T330 667Q260 667 205 631T119 523T88 349Q88 196 148 112T316 28Q349 28 379 34T428 48V311H288V351H468V21Q397 -12 316 -12Q186 -12 116 80T46 346Q46 468 83 548T185 668T332 707Z" horiz-adv-x="523" unicode="G"/>
			<glyph d="M67 695H107V381H419V695H459V0H419V342H107V0H67Z" horiz-adv-x="526" unicode="H"/>
			<glyph d="M67 695H107V0H67Z" horiz-adv-x="174" unicode="I"/>
			<glyph d="M261 695H300V194Q300 141 280 94T220 17T119 -12Q52 -12 13 11V55Q29 44 57 36T118 28Q184 28 222 71T261 198Z" horiz-adv-x="365" unicode="J"/>
			<glyph d="M67 695H106V352H107L367 695H419L153 351L424 0H371L107 347H106V0H67Z" horiz-adv-x="435" unicode="K"/>
			<glyph d="M67 695H106V40H376V0H67Z" horiz-adv-x="387" unicode="L"/>
			<glyph d="M67 695H115L313 108H315L516 695H562V0H525V601H523L329 33H301L105 601H104V0H67Z" horiz-adv-x="629" unicode="M"/>
			<glyph d="M67 695H104L441 87H444Q443 126 443 216V695H481V0H445L105 610H103Q104 548 104 420V0H67Z" horiz-adv-x="548" unicode="N"/>
			<glyph d="M297 707Q420 707 484 613T548 347Q548 238 516 157T428 32T297 -12Q176 -12 111 84T46 347Q46 458 77 539T166 664T297 707ZM296 667Q236 667 189 629T115 520T88 347Q88 245 114 173T188 64T296 28Q357 28 404 65T479 174T506 347Q506 501 450 584T296 667Z" horiz-adv-x="594" unicode="O"/>
			<glyph d="M67 695H191Q304 695 355 639T407 490Q407 385 350 323T187 261H106V0H67ZM106 655V301H186Q273 301 318 348T363 487Q363 568 320 611T190 655Z" horiz-adv-x="438" unicode="P"/>
			<glyph d="M297 707Q420 707 484 613T548 347Q548 244 520 166T441 42L520 -93L487 -113L410 19Q359 -12 297 -12Q176 -12 111 84T46 347Q46 458 77 539T166 664T297 707ZM296 667Q236 667 189 629T115 520T88 347Q88 245 114 173T188 64T296 28Q350 28 389 54L303 202L337 222L420 79Q461 119 483 187T506 347Q506 501 450 584T296 667Z" horiz-adv-x="594" unicode="Q"/>
			<glyph d="M67 695H209Q303 695 355 645T407 499Q407 416 366 367T265 302L431 0H380L220 296H107V0H67ZM107 657V334H201Q281 334 322 379T364 498Q364 575 323 616T204 657Z" horiz-adv-x="456" unicode="R"/>
			<glyph d="M242 707Q278 707 310 700T362 684V637Q302 666 240 666Q166 666 126 627T87 526Q87 485 102 457T144 410T219 366Q285 332 317 309T368 253T386 163Q386 116 364 76T297 12T189 -12Q148 -12 111 -2T47 23V72Q119 29 195 29Q268 29 305 67T343 160Q343 203 328 230T286 275T199 325Q142 355 109 380T60 440T44 526Q44 579 68 620T138 684T242 707Z" horiz-adv-x="420" unicode="S"/>
			<glyph d="M10 695H394V657H222V0H182V657H10Z" horiz-adv-x="404" unicode="T"/>
			<glyph d="M64 695H104V215Q104 121 143 75T275 30Q339 30 418 49V695H457V18Q362 -12 271 -12Q164 -12 114 41T64 208Z" horiz-adv-x="524" unicode="U"/>
			<glyph d="M6 695H50L225 68H227L411 695H455L245 -6H206Z" horiz-adv-x="461" unicode="V"/>
			<glyph d="M19 695H60L167 180Q183 102 186 72H187Q192 102 211 177L349 695H383L503 176Q522 93 525 67H526Q532 99 549 178L662 695H703L543 -6H508L396 470Q373 567 364 623H362Q345 540 325 465L202 -6H169Z" horiz-adv-x="725" unicode="W"/>
			<glyph d="M14 695H61L222 379L384 695H431L249 347L428 0H379L220 314L60 0H13L194 347Z" horiz-adv-x="441" unicode="X"/>
			<glyph d="M-5 695H40L202 315L368 695H413L221 261V0H182V261Z" horiz-adv-x="404" unicode="Y"/>
			<glyph d="M44 695H426V664L76 40H436V0H26V34L375 655H44Z" horiz-adv-x="459" unicode="Z"/>
			<glyph d="M43 770H173V737H77V-127H173V-160H43Z" horiz-adv-x="212" unicode="["/>
			<glyph d="M-19 750H17L264 -49H227Z" horiz-adv-x="247" unicode="\"/>
			<glyph d="M39 770H169V-160H39V-127H135V737H39Z" horiz-adv-x="212" unicode="]"/>
			<glyph d="M184 686H225L381 379H341L206 645H204L69 379H29Z" unicode="^"/>
			<glyph d="M-10 -145H368V-180H-10Z" horiz-adv-x="358" unicode="_"/>
			<glyph d="M30 705H73L170 561H131Z" horiz-adv-x="200" unicode="`"/>
			<glyph d="M196 483Q336 483 336 329V24Q314 11 278 0T203 -10Q128 -10 87 28T46 135Q46 201 89 241T212 282Q263 282 298 271V323Q298 385 273 416T194 447Q160 447 129 437T77 414V453Q96 465 129 474T196 483ZM212 246Q150 246 118 217T86 137Q86 86 117 56T208 26Q232 26 257 31T298 45V234Q252 246 212 246Z" horiz-adv-x="396" unicode="a"/>
			<glyph d="M63 738H101V458Q151 483 210 483Q291 483 340 424T390 244Q390 122 333 56T180 -10Q146 -10 114 -3T63 13ZM203 447Q173 447 145 439T101 421V43Q112 37 136 32T185 27Q261 27 305 81T350 243Q350 342 312 394T203 447Z" horiz-adv-x="428" unicode="b"/>
			<glyph d="M242 483Q286 483 322 470V430Q282 447 239 447Q166 447 122 392T78 239Q78 134 123 80T240 26Q268 26 291 32T329 47V9Q291 -10 238 -10Q143 -10 90 57T38 235Q38 315 64 370T137 454T242 483Z" horiz-adv-x="355" unicode="c"/>
			<glyph d="M327 738H365V24Q304 -10 237 -10Q139 -10 88 53T38 230Q38 312 65 369T139 454T248 483Q293 483 327 471ZM245 447Q172 447 125 393T78 231Q78 138 117 82T241 26Q287 26 327 45V432Q315 438 293 442T245 447Z" horiz-adv-x="428" unicode="d"/>
			<glyph d="M215 483Q295 483 332 428T370 275Q370 253 368 229H79Q78 134 120 80T239 27Q303 27 349 57V19Q329 7 298 -1T233 -10Q140 -10 89 52T38 227Q38 351 84 417T215 483ZM214 447Q153 447 119 400T80 266H330Q330 447 214 447Z" horiz-adv-x="402" unicode="e"/>
			<glyph d="M216 746Q240 746 260 741V704Q236 710 217 710Q169 710 148 682T127 594V473H242V437H127V0H89V437H9V473H89V597Q89 672 122 709T216 746Z" horiz-adv-x="245" unicode="f"/>
			<glyph d="M251 483Q315 483 365 460V-46Q365 -148 313 -198T173 -249Q111 -249 63 -226V-186Q114 -213 173 -213Q245 -213 286 -171T327 -43V14Q310 5 283 -2T226 -10Q130 -10 84 55T38 226Q38 349 95 416T251 483ZM245 446Q168 446 123 390T78 227Q78 128 117 77T232 26Q261 26 286 33T327 50V430Q316 436 293 441T245 446Z" horiz-adv-x="428" unicode="g"/>
			<glyph d="M63 738H101V456Q160 483 222 483Q294 483 332 444T371 329V0H333V319Q333 380 304 413T217 446Q155 446 101 418V0H63Z" horiz-adv-x="432" unicode="h"/>
			<glyph d="M56 645H108V591H56ZM63 473H101V0H63Z" horiz-adv-x="164" unicode="i"/>
			<glyph d="M56 645H108V591H56ZM63 473H101V-88Q101 -161 69 -203T-23 -245Q-52 -245 -72 -239V-202Q-66 -205 -53 -207T-27 -209Q17 -209 40 -177T63 -84Z" horiz-adv-x="164" unicode="j"/>
			<glyph d="M63 738H101V252H103L304 473H355L149 249L355 0H305L103 247H101V0H63Z" horiz-adv-x="357" unicode="k"/>
			<glyph d="M63 738H101V0H63Z" horiz-adv-x="164" unicode="l"/>
			<glyph d="M206 483Q285 483 322 446Q392 483 467 483Q547 483 582 443T617 324V0H579V318Q579 380 553 413T465 446Q434 446 401 437T344 414Q359 381 359 330V0H321V320Q321 385 294 415T204 446Q148 446 101 428V0H63V453Q92 466 129 474T206 483Z" horiz-adv-x="678" unicode="m"/>
			<glyph d="M212 483Q371 483 371 324V0H333V318Q333 379 303 412T210 446Q179 446 149 440T101 427V0H63V452Q91 465 131 474T212 483Z" horiz-adv-x="432" unicode="n"/>
			<glyph d="M224 483Q310 483 357 423T405 238Q405 117 355 53T221 -10Q134 -10 86 52T38 238Q38 361 88 422T224 483ZM224 447Q155 447 116 393T78 238Q78 135 115 80T221 26Q288 26 326 80T365 238Q365 339 329 393T224 447Z" horiz-adv-x="443" unicode="o"/>
			<glyph d="M191 483Q289 483 339 419T390 243Q390 161 363 104T288 18T180 -10Q135 -10 101 2V-235H63V449Q124 483 191 483ZM187 447Q141 447 101 428V41Q113 35 135 30T183 26Q256 26 303 80T350 242Q350 335 310 391T187 447Z" horiz-adv-x="428" unicode="p"/>
			<glyph d="M248 483Q282 483 314 476T365 460V-235H327V15Q277 -10 218 -10Q137 -10 87 49T38 229Q38 351 94 417T248 483ZM243 446Q167 446 122 391T78 230Q78 131 115 78T225 26Q255 26 283 34T327 52V430Q316 436 292 441T243 446Z" horiz-adv-x="428" unicode="q"/>
			<glyph d="M185 483Q222 483 248 479V442Q224 446 185 446Q162 446 137 441T100 431V0H63V460Q88 469 120 476T185 483Z" horiz-adv-x="262" unicode="r"/>
			<glyph d="M176 483Q201 483 224 478T261 468V424Q223 445 174 445Q127 445 102 421T78 358Q78 319 98 297T163 252Q207 229 229 213T264 173T277 111Q277 59 241 23T140 -12Q111 -12 85 -5T41 13V59Q91 26 144 26Q191 26 214 50T238 109Q238 137 228 154T200 184T145 217Q87 248 62 277T38 358Q38 414 76 448T176 483Z" horiz-adv-x="311" unicode="s"/>
			<glyph d="M83 615H121V473H254V437H121V121Q121 70 141 47T200 25Q225 25 254 34V0Q226 -10 197 -10Q83 -10 83 115V437H10V473H83Z" horiz-adv-x="260" unicode="t"/>
			<glyph d="M61 473H99V155Q99 94 129 60T222 27Q253 27 282 32T331 46V473H369V21Q341 8 300 -1T220 -10Q61 -10 61 149Z" horiz-adv-x="432" unicode="u"/>
			<glyph d="M0 473H41L132 168Q152 101 161 66L168 42H170Q187 100 209 169L308 473H348L193 0H146Z" horiz-adv-x="348" unicode="v"/>
			<glyph d="M-1 473H40L125 127Q137 81 141 57H143Q151 95 167 148L262 473H299L389 129L400 81Q402 74 403 67T406 57H409Q417 99 426 130L525 473H564L427 0H387L304 306Q286 372 279 412H277Q266 360 250 306L160 0H121Z" horiz-adv-x="561" unicode="w"/>
			<glyph d="M10 473H56L169 271L283 473H328L195 240L334 0H286L169 207L52 0H7L143 239Z" horiz-adv-x="337" unicode="x"/>
			<glyph d="M0 473H41L128 183Q152 104 167 42H170Q183 91 205 157L214 185L308 473H348L113 -235H73L148 -9Z" horiz-adv-x="348" unicode="y"/>
			<glyph d="M32 473H317V435L65 35H321V0H19V34L272 438H32Z" horiz-adv-x="340" unicode="z"/>
			<glyph d="M196 770V737Q149 737 131 710T114 621V429Q114 374 97 344T56 305V303Q80 293 97 262T114 174V-19Q114 -75 133 -101T196 -127V-160Q134 -160 106 -128T79 -20V180Q79 226 63 255T14 286V323Q79 326 79 423V623Q79 701 108 735T196 770Z" horiz-adv-x="215" unicode="{"/>
			<glyph d="M82 749H112V-251H82Z" horiz-adv-x="195" unicode="|"/>
			<glyph d="M19 770Q81 770 108 738T136 630V430Q136 384 152 354T201 324V287Q136 284 136 187V-13Q136 -91 107 -125T19 -160V-127Q66 -127 83 -100T101 -11V181Q101 236 118 266T159 305V307Q135 317 118 348T101 436V629Q101 685 82 711T19 737Z" horiz-adv-x="215" unicode="}"/>
			<glyph d="M124 344Q170 344 213 316Q234 302 249 296T286 291Q330 291 360 342L391 321Q351 254 283 254Q261 254 241 261T197 284Q172 298 157 303T121 308Q97 308 79 295T46 258L18 280Q41 312 66 328T124 344Z" unicode="~"/>
			<glyph d="" horiz-adv-x="189" unicode=" "/>
			<glyph d="M70 291H104L106 -222H67ZM61 473H116V409H61Z" horiz-adv-x="177" unicode="¡"/>
			<glyph d="M240 714H274V602Q299 601 321 597T356 589V549Q311 565 274 566V140Q301 141 325 147T363 161V123Q349 116 326 110T274 104V-14H240V105Q157 115 113 182T69 352Q69 461 115 525T240 600ZM240 563Q179 553 144 499T109 356Q109 262 144 207T240 142Z" unicode="¢"/>
			<glyph d="M309 706Q351 706 385 696V658Q350 669 307 669Q234 669 197 624T161 485V360H335V325H161V222Q161 149 144 103T102 37H383V0H34V37Q71 45 95 83T120 220V325H43V360H120V492Q120 593 168 649T309 706Z" unicode="£"/>
			<glyph d="M39 491L99 430Q152 469 206 469Q264 469 312 430L372 491L398 466L339 406Q374 361 374 301Q374 243 337 193L398 133L372 107L311 168Q288 151 260 141T206 131Q148 131 100 169L39 107L12 133L75 195Q38 242 38 301Q38 361 74 406L12 466ZM206 430Q150 430 114 392T78 302Q78 266 94 235T140 187T206 169Q242 169 271 187T317 235T334 302Q334 356 297 393T206 430Z" unicode="¤"/>
			<glyph d="M25 695H69L203 390L341 695H384L222 349V347H350V311H222V176H350V140H222V0H184V140H52V176H184V311H52V347H184V349Z" unicode="¥"/>
			<glyph d="M82 752H112V337H82ZM82 161H112V-254H82Z" horiz-adv-x="195" unicode="¦"/>
			<glyph d="M222 711Q260 711 290 703V667Q279 671 260 674T223 677Q168 677 141 646T115 577Q115 535 134 508T204 440Q247 405 271 369T296 282Q296 249 278 217T227 164Q256 137 270 109T285 43Q285 -22 243 -59T141 -96Q103 -96 73 -88V-52Q84 -56 103 -59T140 -62Q195 -62 221 -31T248 38Q248 80 229 106T159 175Q116 210 91 245T67 333Q67 366 84 398T136 451Q107 478 92 506T78 572Q78 637 119 674T222 711ZM158 430Q104 392 104 333Q104 287 129 255T205 185Q259 223 259 282Q259 328 233 359T158 430Z" horiz-adv-x="359" unicode="§"/>
			<glyph d="M30 634H75V580H30ZM148 634H192V580H148Z" horiz-adv-x="222" unicode="¨"/>
			<glyph d="M384 679Q475 679 551 634T673 514T718 347Q718 256 673 180T551 59T384 15Q293 15 216 59T95 180T50 347Q50 437 95 513T216 634T384 679ZM384 642Q304 642 236 602T128 495T89 347Q89 267 128 199T236 91T384 52Q464 52 532 91T639 199T679 347Q679 427 639 495T532 602T384 642ZM403 545Q468 545 512 525V489Q457 511 401 511Q324 511 281 466T238 349Q238 273 281 230T396 187Q434 187 459 194T512 215V178Q490 165 463 158T393 151Q339 151 294 175T224 243T199 347Q199 437 255 491T403 545Z" horiz-adv-x="768" unicode="©"/>
			<glyph d="M139 717Q192 717 215 690T238 612V399Q196 378 143 378Q92 378 64 404T37 478Q37 524 66 552T151 580Q172 580 202 574V606Q202 645 186 665T134 685Q99 685 58 661V696Q71 704 93 710T139 717ZM153 550Q114 550 94 531T74 480Q74 447 92 428T147 409Q182 409 202 419V544Q178 550 153 550Z" horiz-adv-x="286" unicode="ª"/>
			<glyph d="M122 413H165L72 234L165 55H122L30 234ZM251 413H294L201 234L294 55H251L159 234Z" horiz-adv-x="324" unicode="«"/>
			<glyph d="M25 381H385V155H349V345H25Z" unicode="¬"/>
			<glyph d="M34 275H254V235H34Z" horiz-adv-x="288" unicode="­"/>
			<glyph d="M261 694Q318 694 366 665T442 588T470 483Q470 426 442 378T366 301T261 273Q203 273 155 301T78 377T50 483Q50 540 78 588T155 665T261 694ZM261 661Q213 661 172 637T107 572T83 483Q83 435 107 394T172 330T261 306Q309 306 349 330T413 394T437 483Q437 531 413 572T349 637T261 661ZM184 603H263Q305 603 327 585T350 530Q350 504 335 486T294 460L361 367H317L260 453H218V367H184ZM218 572V481H263Q284 481 298 493T313 527Q313 547 300 559T265 572Z" horiz-adv-x="520" unicode="®"/>
			<glyph d="M30 620H197V585H30Z" horiz-adv-x="227" unicode="¯"/>
			<glyph d="M206 703Q261 703 298 666T335 574Q335 519 298 482T207 445Q151 445 113 482T76 574Q76 629 113 666T206 703ZM207 669Q169 669 141 641T113 574Q113 534 140 506T206 479Q244 479 271 506T298 574Q298 614 271 641T207 669Z" horiz-adv-x="412" unicode="°"/>
			<glyph d="M187 533H223V371H385V335H223V173H187V335H25V371H187ZM25 36H385V0H25Z" unicode="±"/>
			<glyph d="M137 797Q192 797 224 766T256 679Q256 635 235 592T163 483L77 366H259V330H35V367L139 506Q182 565 199 601T217 674Q217 714 196 738T131 762Q107 762 85 755T47 739V776Q91 797 137 797Z" horiz-adv-x="300" unicode="²"/>
			<glyph d="M118 795Q180 795 210 762T241 677Q241 634 218 603T158 562V560Q199 551 223 524T248 448Q248 391 211 355T106 320Q62 320 32 334V371Q45 364 65 359T104 354Q153 354 180 378T208 447Q208 494 180 517T90 541H70V577H87Q143 577 172 602T202 673Q202 713 180 736T110 760Q89 760 70 756T40 747V782Q77 795 118 795Z" horiz-adv-x="300" unicode="³"/>
			<glyph d="M127 705H170L69 561H30Z" horiz-adv-x="200" unicode="´"/>
			<glyph d="M63 473H101V163Q101 88 127 56T214 25Q239 25 265 29T309 39V473H347V12Q277 -12 212 -12Q173 -12 145 -1T101 34V-251H63Z" unicode="µ"/>
			<glyph d="M182 695H330V-63H298V661H207V-63H175V379Q114 379 76 421T38 533Q38 613 77 654T182 695Z" horiz-adv-x="399" unicode="¶"/>
			<glyph d="M56 348H111V284H56Z" horiz-adv-x="167" unicode="·"/>
			<glyph d="M89 0H115L100 -61Q177 -68 178 -137Q178 -175 153 -199T83 -223Q55 -223 30 -214V-183Q60 -194 83 -194Q113 -194 129 -179T146 -139Q146 -90 87 -87L67 -86Z" horiz-adv-x="208" unicode="¸"/>
			<glyph d="M160 797H181V330H145V749L53 687V728Z" horiz-adv-x="300" unicode="¹"/>
			<glyph d="M158 719Q216 719 250 676T284 550Q284 467 249 423T158 379Q99 379 64 422T30 550Q30 634 64 676T158 719ZM158 686Q115 686 91 651T67 550Q67 483 91 447T158 412Q200 412 223 447T247 550Q247 614 223 650T158 686Z" horiz-adv-x="314" unicode="º"/>
			<glyph d="M30 413H73L165 234L73 55H30L123 234ZM159 413H202L294 234L202 55H159L252 234Z" horiz-adv-x="324" unicode="»"/>
			<glyph d="M147 697H168V230H132V649L40 587V628ZM471 695H512L148 0H107ZM509 455H548V137H603V106H548V0H513V106H342V136ZM511 393Q505 377 489 347L380 137H513V393Z" horiz-adv-x="639" unicode="¼"/>
			<glyph d="M147 697H168V230H132V649L40 587V628ZM471 695H512L148 0H107ZM510 467Q565 467 597 436T629 349Q629 305 608 262T536 153L450 36H632V0H408V37L512 176Q555 235 572 271T590 344Q590 384 569 408T504 432Q480 432 458 425T420 409V446Q464 467 510 467Z" horiz-adv-x="669" unicode="½"/>
			<glyph d="M113 695Q175 695 205 662T236 577Q236 534 213 503T153 462V460Q194 451 218 424T243 348Q243 291 206 255T101 220Q57 220 27 234V271Q40 264 60 259T99 254Q148 254 175 278T203 347Q203 394 175 417T85 441H65V477H82Q138 477 167 502T197 573Q197 613 175 636T105 660Q84 660 65 656T35 647V682Q72 695 113 695ZM511 695H552L188 0H147ZM548 455H587V137H642V106H587V0H552V106H381V136ZM550 393Q544 377 528 347L419 137H552V393Z" horiz-adv-x="678" unicode="¾"/>
			<glyph d="M180 291H218V168Q167 121 139 89T94 21T78 -63Q78 -123 107 -159T199 -196Q230 -196 257 -189T300 -175V-215Q255 -234 198 -234Q119 -234 78 -188T37 -65Q37 -13 54 28T100 102T180 184ZM172 473H227V409H172Z" horiz-adv-x="322" unicode="¿"/>
			<glyph d="M220 695H267L474 0H429L361 233H121L50 0H6ZM241 637L133 272H349L242 637ZM151 895H195L276 767H239Z" horiz-adv-x="480" unicode="À"/>
			<glyph d="M220 695H267L474 0H429L361 233H121L50 0H6ZM241 637L133 272H349L242 637ZM291 895H335L247 767H210Z" horiz-adv-x="480" unicode="Á"/>
			<glyph d="M220 695H267L474 0H429L361 233H121L50 0H6ZM241 637L133 272H349L242 637ZM228 902H256L353 762H316L242 870L168 762H130Z" horiz-adv-x="480" unicode="Â"/>
			<glyph d="M220 695H267L474 0H429L361 233H121L50 0H6ZM241 637L133 272H349L242 637ZM190 858Q215 858 247 828T296 798Q311 798 321 815T333 855H364Q360 816 342 790T295 765Q280 765 265 773T234 797Q220 810 209 817T189 824Q173 824 164 807T151 768H120Q124 807 141 832T190 858Z" horiz-adv-x="480" unicode="Ã"/>
			<glyph d="M220 695H267L474 0H429L361 233H121L50 0H6ZM241 637L133 272H349L242 637ZM160 825H205V771H160ZM278 825H322V771H278Z" horiz-adv-x="480" unicode="Ä"/>
			<glyph d="M220 695H267L474 0H429L361 233H121L50 0H6ZM241 637L133 272H349L242 637ZM267 913Q307 913 335 885T363 817Q363 777 335 749T267 721Q227 721 199 749T171 817Q171 857 199 885T267 913ZM267 883Q239 883 220 864T201 817Q201 791 220 771T267 751Q296 751 314 770T333 817Q333 846 314 864T267 883Z" horiz-adv-x="480" unicode="Å"/>
			<glyph d="M297 695H625V656H365V373H602V335H365V39H637V0H326V233H145L44 0H-1ZM323 655L163 274H326V655Z" horiz-adv-x="673" unicode="Æ"/>
			<glyph d="M320 707Q400 707 444 684V637Q389 667 319 667Q246 667 194 627T115 516T88 351Q88 213 142 120T310 28Q351 28 384 36T438 55V14Q419 4 384 -4T307 -12L295 -61Q372 -68 373 -137Q373 -175 348 -199T278 -223Q250 -223 225 -214V-183Q255 -194 278 -194Q308 -194 324 -179T341 -139Q341 -90 282 -87L262 -86L281 -11Q166 -1 106 95T46 348Q46 468 83 549T182 668T320 707Z" horiz-adv-x="465" unicode="Ç"/>
			<glyph d="M67 695H366V656H106V373H343V335H106V39H378V0H67ZM139 895H183L264 767H227Z" horiz-adv-x="413" unicode="È"/>
			<glyph d="M67 695H366V656H106V373H343V335H106V39H378V0H67ZM279 895H323L235 767H198Z" horiz-adv-x="413" unicode="É"/>
			<glyph d="M67 695H366V656H106V373H343V335H106V39H378V0H67ZM216 902H244L341 762H304L230 870L156 762H118Z" horiz-adv-x="413" unicode="Ê"/>
			<glyph d="M67 695H366V656H106V373H343V335H106V39H378V0H67ZM148 825H193V771H148ZM266 825H310V771H266Z" horiz-adv-x="413" unicode="Ë"/>
			<glyph d="M67 695H107V0H67ZM-4 895H40L121 767H84Z" horiz-adv-x="174" unicode="Ì"/>
			<glyph d="M67 695H107V0H67ZM136 895H180L92 767H55Z" horiz-adv-x="174" unicode="Í"/>
			<glyph d="M67 695H107V0H67ZM73 902H101L198 762H161L87 870L13 762H-25Z" horiz-adv-x="174" unicode="Î"/>
			<glyph d="M67 695H107V0H67ZM5 825H50V771H5ZM123 825H167V771H123Z" horiz-adv-x="174" unicode="Ï"/>
			<glyph d="M67 695H197Q483 695 483 355Q483 189 409 94T194 0H67V329H1V368H67ZM107 656V368H260V329H107V39H191Q316 39 378 121T441 351Q441 519 376 586T198 655Z" horiz-adv-x="529" unicode="Ð"/>
			<glyph d="M67 695H104L441 87H444Q443 126 443 216V695H481V0H445L105 610H103Q104 548 104 420V0H67ZM226 858Q251 858 283 828T332 798Q347 798 357 815T369 855H400Q396 816 378 790T331 765Q316 765 301 773T270 797Q256 810 245 817T225 824Q209 824 200 807T187 768H156Q160 807 177 832T226 858Z" horiz-adv-x="548" unicode="Ñ"/>
			<glyph d="M297 707Q420 707 484 613T548 347Q548 238 516 157T428 32T297 -12Q176 -12 111 84T46 347Q46 458 77 539T166 664T297 707ZM296 667Q236 667 189 629T115 520T88 347Q88 245 114 173T188 64T296 28Q357 28 404 65T479 174T506 347Q506 501 450 584T296 667ZM206 895H250L331 767H294Z" horiz-adv-x="594" unicode="Ò"/>
			<glyph d="M297 707Q420 707 484 613T548 347Q548 238 516 157T428 32T297 -12Q176 -12 111 84T46 347Q46 458 77 539T166 664T297 707ZM296 667Q236 667 189 629T115 520T88 347Q88 245 114 173T188 64T296 28Q357 28 404 65T479 174T506 347Q506 501 450 584T296 667ZM346 895H390L302 767H265Z" horiz-adv-x="594" unicode="Ó"/>
			<glyph d="M297 707Q420 707 484 613T548 347Q548 238 516 157T428 32T297 -12Q176 -12 111 84T46 347Q46 458 77 539T166 664T297 707ZM296 667Q236 667 189 629T115 520T88 347Q88 245 114 173T188 64T296 28Q357 28 404 65T479 174T506 347Q506 501 450 584T296 667ZM283 902H311L408 762H371L297 870L223 762H185Z" horiz-adv-x="594" unicode="Ô"/>
			<glyph d="M297 707Q420 707 484 613T548 347Q548 238 516 157T428 32T297 -12Q176 -12 111 84T46 347Q46 458 77 539T166 664T297 707ZM296 667Q236 667 189 629T115 520T88 347Q88 245 114 173T188 64T296 28Q357 28 404 65T479 174T506 347Q506 501 450 584T296 667ZM245 858Q270 858 302 828T351 798Q366 798 376 815T388 855H419Q415 816 397 790T350 765Q335 765 320 773T289 797Q275 810 264 817T244 824Q228 824 219 807T206 768H175Q179 807 196 832T245 858Z" horiz-adv-x="594" unicode="Õ"/>
			<glyph d="M297 707Q420 707 484 613T548 347Q548 238 516 157T428 32T297 -12Q176 -12 111 84T46 347Q46 458 77 539T166 664T297 707ZM296 667Q236 667 189 629T115 520T88 347Q88 245 114 173T188 64T296 28Q357 28 404 65T479 174T506 347Q506 501 450 584T296 667ZM215 825H260V771H215ZM333 825H377V771H333Z" horiz-adv-x="594" unicode="Ö"/>
			<glyph d="M70 433L205 298L340 433L365 408L230 273L365 138L340 113L205 248L70 113L45 138L180 273L45 408Z" unicode="×"/>
			<glyph d="M517 773L550 756L475 625Q548 531 548 347Q548 238 516 157T428 32T297 -12Q204 -12 143 47L79 -64L47 -47L117 76Q46 171 46 347Q46 458 77 539T166 664T297 707Q388 707 448 653ZM296 667Q236 667 189 629T115 520T88 347Q88 204 141 117L426 614Q375 667 296 667ZM450 583L165 86Q218 28 296 28Q357 28 404 65T479 174T506 347Q506 499 450 583Z" horiz-adv-x="594" unicode="Ø"/>
			<glyph d="M64 695H104V215Q104 121 143 75T275 30Q339 30 418 49V695H457V18Q362 -12 271 -12Q164 -12 114 41T64 208ZM171 895H215L296 767H259Z" horiz-adv-x="524" unicode="Ù"/>
			<glyph d="M64 695H104V215Q104 121 143 75T275 30Q339 30 418 49V695H457V18Q362 -12 271 -12Q164 -12 114 41T64 208ZM311 895H355L267 767H230Z" horiz-adv-x="524" unicode="Ú"/>
			<glyph d="M64 695H104V215Q104 121 143 75T275 30Q339 30 418 49V695H457V18Q362 -12 271 -12Q164 -12 114 41T64 208ZM248 902H276L373 762H336L262 870L188 762H150Z" horiz-adv-x="524" unicode="Û"/>
			<glyph d="M64 695H104V215Q104 121 143 75T275 30Q339 30 418 49V695H457V18Q362 -12 271 -12Q164 -12 114 41T64 208ZM180 825H225V771H180ZM298 825H342V771H298Z" horiz-adv-x="524" unicode="Ü"/>
			<glyph d="M-5 695H40L202 315L368 695H413L221 261V0H182V261ZM251 895H295L207 767H170Z" horiz-adv-x="404" unicode="Ý"/>
			<glyph d="M67 695H106V571H191Q304 571 355 515T407 366Q407 261 350 199T187 137H106V0H67ZM106 531V177H186Q273 177 318 224T363 363Q363 444 320 487T190 531Z" horiz-adv-x="438" unicode="Þ"/>
			<glyph d="M209 727Q271 727 308 691T345 596Q345 551 326 517T266 451Q237 427 225 405T213 353Q213 318 231 296T285 252Q334 222 359 193T385 117Q385 57 346 22T246 -12Q210 -12 168 1V39Q207 24 246 24Q292 24 318 47T345 108Q345 137 335 156T310 187T264 220Q234 240 217 254T187 292T174 352Q174 391 190 418T240 475Q274 503 290 530T306 593Q306 638 279 665T206 692Q93 692 93 545V0H56V546Q56 639 96 683T209 727Z" horiz-adv-x="405" unicode="ß"/>
			<glyph d="M196 483Q336 483 336 329V24Q314 11 278 0T203 -10Q128 -10 87 28T46 135Q46 201 89 241T212 282Q263 282 298 271V323Q298 385 273 416T194 447Q160 447 129 437T77 414V453Q96 465 129 474T196 483ZM212 246Q150 246 118 217T86 137Q86 86 117 56T208 26Q232 26 257 31T298 45V234Q252 246 212 246ZM102 705H145L242 561H203Z" horiz-adv-x="396" unicode="à"/>
			<glyph d="M196 483Q336 483 336 329V24Q314 11 278 0T203 -10Q128 -10 87 28T46 135Q46 201 89 241T212 282Q263 282 298 271V323Q298 385 273 416T194 447Q160 447 129 437T77 414V453Q96 465 129 474T196 483ZM212 246Q150 246 118 217T86 137Q86 86 117 56T208 26Q232 26 257 31T298 45V234Q252 246 212 246ZM258 705H301L200 561H161Z" horiz-adv-x="396" unicode="á"/>
			<glyph d="M196 483Q336 483 336 329V24Q314 11 278 0T203 -10Q128 -10 87 28T46 135Q46 201 89 241T212 282Q263 282 298 271V323Q298 385 273 416T194 447Q160 447 129 437T77 414V453Q96 465 129 474T196 483ZM212 246Q150 246 118 217T86 137Q86 86 117 56T208 26Q232 26 257 31T298 45V234Q252 246 212 246ZM188 718H210L309 560H271L199 678L127 560H90Z" horiz-adv-x="396" unicode="â"/>
			<glyph d="M196 483Q336 483 336 329V24Q314 11 278 0T203 -10Q128 -10 87 28T46 135Q46 201 89 241T212 282Q263 282 298 271V323Q298 385 273 416T194 447Q160 447 129 437T77 414V453Q96 465 129 474T196 483ZM212 246Q150 246 118 217T86 137Q86 86 117 56T208 26Q232 26 257 31T298 45V234Q252 246 212 246ZM148 668Q173 668 205 638T254 608Q269 608 279 625T291 665H322Q318 626 300 600T253 575Q238 575 223 583T192 607Q178 620 167 627T147 634Q131 634 122 617T109 578H78Q82 617 99 642T148 668Z" horiz-adv-x="396" unicode="ã"/>
			<glyph d="M196 483Q336 483 336 329V24Q314 11 278 0T203 -10Q128 -10 87 28T46 135Q46 201 89 241T212 282Q263 282 298 271V323Q298 385 273 416T194 447Q160 447 129 437T77 414V453Q96 465 129 474T196 483ZM212 246Q150 246 118 217T86 137Q86 86 117 56T208 26Q232 26 257 31T298 45V234Q252 246 212 246ZM119 634H164V580H119ZM237 634H281V580H237Z" horiz-adv-x="396" unicode="ä"/>
			<glyph d="M196 483Q336 483 336 329V24Q314 11 278 0T203 -10Q128 -10 87 28T46 135Q46 201 89 241T212 282Q263 282 298 271V323Q298 385 273 416T194 447Q160 447 129 437T77 414V453Q96 465 129 474T196 483ZM212 246Q150 246 118 217T86 137Q86 86 117 56T208 26Q232 26 257 31T298 45V234Q252 246 212 246ZM200 753Q240 753 268 725T296 657Q296 617 268 589T200 561Q160 561 132 589T104 657Q104 697 132 725T200 753ZM200 723Q172 723 153 704T134 657Q134 631 153 611T200 591Q229 591 247 610T266 657Q266 686 247 704T200 723Z" horiz-adv-x="396" unicode="å"/>
			<glyph d="M196 483Q304 483 327 391Q348 437 384 460T470 483Q549 483 587 428T625 275Q625 253 623 229H336Q335 140 373 83T494 27Q558 27 604 57V19Q584 7 553 -1T488 -10Q447 -10 413 3T357 41Q293 -10 201 -10Q129 -10 87 28T46 135Q46 201 89 241T212 282Q236 282 259 278T298 271V322Q298 384 273 415T194 447Q160 447 129 437T77 414V453Q96 465 129 474T196 483ZM469 447Q409 447 373 399T336 266H585Q585 447 469 447ZM212 246Q150 246 118 217T86 137Q86 86 117 56T206 26Q246 26 279 38T337 69Q298 136 298 234Q282 239 257 242T212 246Z" horiz-adv-x="657" unicode="æ"/>
			<glyph d="M242 483Q286 483 322 470V430Q282 447 239 447Q166 447 122 392T78 239Q78 134 123 80T240 26Q268 26 291 32T329 47V9Q291 -10 238 -10H234L221 -61Q298 -68 299 -137Q299 -175 274 -199T204 -223Q176 -223 151 -214V-183Q181 -194 204 -194Q234 -194 250 -179T267 -139Q267 -90 208 -87L188 -86L208 -8Q126 2 82 68T38 235Q38 315 64 370T137 454T242 483Z" horiz-adv-x="355" unicode="ç"/>
			<glyph d="M215 483Q295 483 332 428T370 275Q370 253 368 229H79Q78 134 120 80T239 27Q303 27 349 57V19Q329 7 298 -1T233 -10Q140 -10 89 52T38 227Q38 351 84 417T215 483ZM214 447Q153 447 119 400T80 266H330Q330 447 214 447ZM116 705H159L256 561H217Z" horiz-adv-x="402" unicode="è"/>
			<glyph d="M215 483Q295 483 332 428T370 275Q370 253 368 229H79Q78 134 120 80T239 27Q303 27 349 57V19Q329 7 298 -1T233 -10Q140 -10 89 52T38 227Q38 351 84 417T215 483ZM214 447Q153 447 119 400T80 266H330Q330 447 214 447ZM272 705H315L214 561H175Z" horiz-adv-x="402" unicode="é"/>
			<glyph d="M215 483Q295 483 332 428T370 275Q370 253 368 229H79Q78 134 120 80T239 27Q303 27 349 57V19Q329 7 298 -1T233 -10Q140 -10 89 52T38 227Q38 351 84 417T215 483ZM214 447Q153 447 119 400T80 266H330Q330 447 214 447ZM202 718H224L323 560H285L213 678L141 560H104Z" horiz-adv-x="402" unicode="ê"/>
			<glyph d="M215 483Q295 483 332 428T370 275Q370 253 368 229H79Q78 134 120 80T239 27Q303 27 349 57V19Q329 7 298 -1T233 -10Q140 -10 89 52T38 227Q38 351 84 417T215 483ZM214 447Q153 447 119 400T80 266H330Q330 447 214 447ZM133 634H178V580H133ZM251 634H295V580H251Z" horiz-adv-x="402" unicode="ë"/>
			<glyph d="M63 473H101V0H63ZM-16 705H27L124 561H85Z" horiz-adv-x="164" unicode="ì"/>
			<glyph d="M63 473H101V0H63ZM140 705H183L82 561H43Z" horiz-adv-x="164" unicode="í"/>
			<glyph d="M63 473H101V0H63ZM70 718H92L191 560H153L81 678L9 560H-28Z" horiz-adv-x="164" unicode="î"/>
			<glyph d="M63 473H101V0H63ZM1 634H46V580H1ZM119 634H163V580H119Z" horiz-adv-x="164" unicode="ï"/>
			<glyph d="M135 768Q193 733 241 685L314 751L340 723L266 658Q405 497 405 238Q405 117 355 53T221 -10Q134 -10 86 52T38 236Q38 359 88 421T222 483Q265 483 292 468T340 428L343 429Q327 489 300 542T237 633L154 560L129 588L213 660Q169 704 114 737ZM223 448Q155 448 116 393T78 236Q78 134 115 80T221 26Q288 26 326 80T365 238Q365 345 327 396T223 448Z" horiz-adv-x="443" unicode="ð"/>
			<glyph d="M212 483Q371 483 371 324V0H333V318Q333 379 303 412T210 446Q179 446 149 440T101 427V0H63V452Q91 465 131 474T212 483ZM169 668Q194 668 226 638T275 608Q290 608 300 625T312 665H343Q339 626 321 600T274 575Q259 575 244 583T213 607Q199 620 188 627T168 634Q152 634 143 617T130 578H99Q103 617 120 642T169 668Z" horiz-adv-x="432" unicode="ñ"/>
			<glyph d="M224 483Q310 483 357 423T405 238Q405 117 355 53T221 -10Q134 -10 86 52T38 238Q38 361 88 422T224 483ZM224 447Q155 447 116 393T78 238Q78 135 115 80T221 26Q288 26 326 80T365 238Q365 339 329 393T224 447ZM126 705H169L266 561H227Z" horiz-adv-x="443" unicode="ò"/>
			<glyph d="M224 483Q310 483 357 423T405 238Q405 117 355 53T221 -10Q134 -10 86 52T38 238Q38 361 88 422T224 483ZM224 447Q155 447 116 393T78 238Q78 135 115 80T221 26Q288 26 326 80T365 238Q365 339 329 393T224 447ZM282 705H325L224 561H185Z" horiz-adv-x="443" unicode="ó"/>
			<glyph d="M224 483Q310 483 357 423T405 238Q405 117 355 53T221 -10Q134 -10 86 52T38 238Q38 361 88 422T224 483ZM224 447Q155 447 116 393T78 238Q78 135 115 80T221 26Q288 26 326 80T365 238Q365 339 329 393T224 447ZM212 718H234L333 560H295L223 678L151 560H114Z" horiz-adv-x="443" unicode="ô"/>
			<glyph d="M224 483Q310 483 357 423T405 238Q405 117 355 53T221 -10Q134 -10 86 52T38 238Q38 361 88 422T224 483ZM224 447Q155 447 116 393T78 238Q78 135 115 80T221 26Q288 26 326 80T365 238Q365 339 329 393T224 447ZM172 668Q197 668 229 638T278 608Q293 608 303 625T315 665H346Q342 626 324 600T277 575Q262 575 247 583T216 607Q202 620 191 627T171 634Q155 634 146 617T133 578H102Q106 617 123 642T172 668Z" horiz-adv-x="443" unicode="õ"/>
			<glyph d="M224 483Q310 483 357 423T405 238Q405 117 355 53T221 -10Q134 -10 86 52T38 238Q38 361 88 422T224 483ZM224 447Q155 447 116 393T78 238Q78 135 115 80T221 26Q288 26 326 80T365 238Q365 339 329 393T224 447ZM143 634H188V580H143ZM261 634H305V580H261Z" horiz-adv-x="443" unicode="ö"/>
			<glyph d="M177 484H232V429H177ZM25 321H385V285H25ZM177 177H232V122H177Z" unicode="÷"/>
			<glyph d="M385 545L413 529L353 429Q405 366 405 238Q405 117 355 53T221 -10Q155 -10 112 26L59 -62L30 -45L87 50Q38 116 38 238Q38 361 88 422T224 483Q286 483 329 452ZM224 447Q155 447 116 393T78 238Q78 143 110 88L308 417Q275 447 224 447ZM330 391L132 60Q166 26 221 26Q288 26 326 80T365 238Q365 336 330 391Z" horiz-adv-x="443" unicode="ø"/>
			<glyph d="M61 473H99V155Q99 94 129 60T222 27Q253 27 282 32T331 46V473H369V21Q341 8 300 -1T220 -10Q61 -10 61 149ZM130 705H173L270 561H231Z" horiz-adv-x="432" unicode="ù"/>
			<glyph d="M61 473H99V155Q99 94 129 60T222 27Q253 27 282 32T331 46V473H369V21Q341 8 300 -1T220 -10Q61 -10 61 149ZM257 705H300L199 561H160Z" horiz-adv-x="432" unicode="ú"/>
			<glyph d="M61 473H99V155Q99 94 129 60T222 27Q253 27 282 32T331 46V473H369V21Q341 8 300 -1T220 -10Q61 -10 61 149ZM213 718H235L334 560H296L224 678L152 560H115Z" horiz-adv-x="432" unicode="û"/>
			<glyph d="M61 473H99V155Q99 94 129 60T222 27Q253 27 282 32T331 46V473H369V21Q341 8 300 -1T220 -10Q61 -10 61 149ZM140 634H185V580H140ZM258 634H302V580H258Z" horiz-adv-x="432" unicode="ü"/>
			<glyph d="M0 473H41L128 183Q152 104 167 42H170Q183 91 205 157L214 185L308 473H348L113 -235H73L148 -9ZM232 705H275L174 561H135Z" horiz-adv-x="348" unicode="ý"/>
			<glyph d="M63 738H101V458Q151 483 203 483Q293 483 341 419T390 243Q390 161 363 104T288 18T180 -10Q135 -10 101 2V-235H63ZM193 447Q143 447 101 425V41Q113 35 135 30T183 26Q256 26 303 80T350 242Q350 334 311 390T193 447Z" horiz-adv-x="428" unicode="þ"/>
			<glyph d="M0 473H41L128 183Q152 104 167 42H170Q183 91 205 157L214 185L308 473H348L113 -235H73L148 -9ZM93 634H138V580H93ZM211 634H255V580H211Z" horiz-adv-x="348" unicode="ÿ"/>
			<glyph d="M220 695H267L474 0H429L361 233H121L50 0H6ZM241 637L133 272H349L242 637ZM158 798H325V763H158Z" horiz-adv-x="480" unicode="Ā"/>
			<glyph d="M196 483Q336 483 336 329V24Q314 11 278 0T203 -10Q128 -10 87 28T46 135Q46 201 89 241T212 282Q263 282 298 271V323Q298 385 273 416T194 447Q160 447 129 437T77 414V453Q96 465 129 474T196 483ZM212 246Q150 246 118 217T86 137Q86 86 117 56T208 26Q232 26 257 31T298 45V234Q252 246 212 246ZM116 620H283V585H116Z" horiz-adv-x="396" unicode="ā"/>
			<glyph d="M220 695H267L474 0H429L361 233H121L50 0H6ZM241 637L133 272H349L242 637ZM134 890H167Q170 847 189 823T242 799Q275 799 294 822T317 890H350Q347 829 318 797T242 766Q194 766 165 797T134 890Z" horiz-adv-x="480" unicode="Ă"/>
			<glyph d="M196 483Q336 483 336 329V24Q314 11 278 0T203 -10Q128 -10 87 28T46 135Q46 201 89 241T212 282Q263 282 298 271V323Q298 385 273 416T194 447Q160 447 129 437T77 414V453Q96 465 129 474T196 483ZM212 246Q150 246 118 217T86 137Q86 86 117 56T208 26Q232 26 257 31T298 45V234Q252 246 212 246ZM98 695H131Q135 644 150 618T200 592Q262 592 268 695H302Q295 560 200 560Q104 560 98 695Z" horiz-adv-x="396" unicode="ă"/>
			<glyph d="M220 695H267L474 0H429L361 233H121L50 0H6ZM241 637L133 272H349L242 637ZM440 0H474Q469 -5 440 -38T396 -101T382 -161Q382 -191 396 -206T434 -222Q455 -222 474 -215V-247Q456 -255 430 -255Q392 -255 370 -231T348 -165Q348 -121 372 -82T440 0Z" horiz-adv-x="480" unicode="Ą"/>
			<glyph d="M196 483Q336 483 336 329V24Q331 17 302 -20T258 -93T244 -161Q244 -191 258 -206T296 -222Q317 -222 336 -215V-247Q318 -255 292 -255Q254 -255 232 -231T210 -165Q210 -120 231 -79T288 4Q246 -10 203 -10Q128 -10 87 28T46 135Q46 201 89 241T212 282Q263 282 298 271V323Q298 385 273 416T194 447Q160 447 129 437T77 414V453Q96 465 129 474T196 483ZM212 246Q150 246 118 217T86 137Q86 86 117 56T208 26Q232 26 257 31T298 45V234Q252 246 212 246Z" horiz-adv-x="396" unicode="ą"/>
			<glyph d="M320 707Q400 707 444 684V637Q389 667 319 667Q246 667 194 627T115 516T88 351Q88 213 142 120T310 28Q351 28 384 36T438 55V14Q419 4 384 -4T307 -12Q180 -12 113 85T46 348Q46 468 83 549T182 668T320 707ZM349 895H393L305 767H268Z" horiz-adv-x="465" unicode="Ć"/>
			<glyph d="M242 483Q286 483 322 470V430Q282 447 239 447Q166 447 122 392T78 239Q78 134 123 80T240 26Q268 26 291 32T329 47V9Q291 -10 238 -10Q143 -10 90 57T38 235Q38 315 64 370T137 454T242 483ZM273 705H316L215 561H176Z" horiz-adv-x="355" unicode="ć"/>
			<glyph d="M320 707Q400 707 444 684V637Q389 667 319 667Q246 667 194 627T115 516T88 351Q88 213 142 120T310 28Q351 28 384 36T438 55V14Q419 4 384 -4T307 -12Q180 -12 113 85T46 348Q46 468 83 549T182 668T320 707ZM286 902H314L411 762H374L300 870L226 762H188Z" horiz-adv-x="465" unicode="Ĉ"/>
			<glyph d="M242 483Q286 483 322 470V430Q282 447 239 447Q166 447 122 392T78 239Q78 134 123 80T240 26Q268 26 291 32T329 47V9Q291 -10 238 -10Q143 -10 90 57T38 235Q38 315 64 370T137 454T242 483ZM203 718H225L324 560H286L214 678L142 560H105Z" horiz-adv-x="355" unicode="ĉ"/>
			<glyph d="M320 707Q400 707 444 684V637Q389 667 319 667Q246 667 194 627T115 516T88 351Q88 213 142 120T310 28Q351 28 384 36T438 55V14Q419 4 384 -4T307 -12Q180 -12 113 85T46 348Q46 468 83 549T182 668T320 707ZM276 822H324V769H276Z" horiz-adv-x="465" unicode="Ċ"/>
			<glyph d="M242 483Q286 483 322 470V430Q282 447 239 447Q166 447 122 392T78 239Q78 134 123 80T240 26Q268 26 291 32T329 47V9Q291 -10 238 -10Q143 -10 90 57T38 235Q38 315 64 370T137 454T242 483ZM191 634H239V580H191Z" horiz-adv-x="355" unicode="ċ"/>
			<glyph d="M320 707Q400 707 444 684V637Q389 667 319 667Q246 667 194 627T115 516T88 351Q88 213 142 120T310 28Q351 28 384 36T438 55V14Q419 4 384 -4T307 -12Q180 -12 113 85T46 348Q46 468 83 549T182 668T320 707ZM188 902H225L299 794L373 902H411L313 762H285Z" horiz-adv-x="465" unicode="Č"/>
			<glyph d="M242 483Q286 483 322 470V430Q282 447 239 447Q166 447 122 392T78 239Q78 134 123 80T240 26Q268 26 291 32T329 47V9Q291 -10 238 -10Q143 -10 90 57T38 235Q38 315 64 370T137 454T242 483ZM105 718H143L215 600L287 718H324L226 560H204Z" horiz-adv-x="355" unicode="č"/>
			<glyph d="M67 695H197Q483 695 483 355Q483 189 409 94T194 0H67ZM107 656V39H191Q316 39 378 121T441 351Q441 519 376 586T198 655ZM153 902H190L264 794L338 902H376L278 762H250Z" horiz-adv-x="529" unicode="Ď"/>
			<glyph d="M327 738H365V24Q304 -10 237 -10Q139 -10 88 53T38 230Q38 312 65 369T139 454T248 483Q293 483 327 471ZM245 447Q172 447 125 393T78 231Q78 138 117 82T241 26Q287 26 327 45V432Q315 438 293 442T245 447ZM462 738H499L453 503H425Z" horiz-adv-x="428" unicode="ď"/>
			<glyph d="M67 695H197Q483 695 483 355Q483 189 409 94T194 0H67V329H1V368H67ZM107 656V368H260V329H107V39H191Q316 39 378 121T441 351Q441 519 376 586T198 655Z" horiz-adv-x="529" unicode="Đ"/>
			<glyph d="M327 738H365V629H428V594H365V24Q304 -10 237 -10Q139 -10 88 53T38 230Q38 312 65 369T139 454T248 483Q293 483 327 471V594H184V629H327ZM245 447Q172 447 125 393T78 231Q78 138 117 82T241 26Q287 26 327 45V432Q315 438 293 442T245 447Z" horiz-adv-x="428" unicode="đ"/>
			<glyph d="M67 695H366V656H106V373H343V335H106V39H378V0H67ZM146 798H313V763H146Z" horiz-adv-x="413" unicode="Ē"/>
			<glyph d="M215 483Q295 483 332 428T370 275Q370 253 368 229H79Q78 134 120 80T239 27Q303 27 349 57V19Q329 7 298 -1T233 -10Q140 -10 89 52T38 227Q38 351 84 417T215 483ZM214 447Q153 447 119 400T80 266H330Q330 447 214 447ZM130 620H297V585H130Z" horiz-adv-x="402" unicode="ē"/>
			<glyph d="M67 695H366V656H106V373H343V335H106V39H378V0H67ZM122 890H155Q158 847 177 823T230 799Q263 799 282 822T305 890H338Q335 829 306 797T230 766Q182 766 153 797T122 890Z" horiz-adv-x="413" unicode="Ĕ"/>
			<glyph d="M215 483Q295 483 332 428T370 275Q370 253 368 229H79Q78 134 120 80T239 27Q303 27 349 57V19Q329 7 298 -1T233 -10Q140 -10 89 52T38 227Q38 351 84 417T215 483ZM214 447Q153 447 119 400T80 266H330Q330 447 214 447ZM112 695H145Q149 644 164 618T214 592Q276 592 282 695H316Q309 560 214 560Q118 560 112 695Z" horiz-adv-x="402" unicode="ĕ"/>
			<glyph d="M67 695H366V656H106V373H343V335H106V39H378V0H67ZM206 822H254V769H206Z" horiz-adv-x="413" unicode="Ė"/>
			<glyph d="M215 483Q295 483 332 428T370 275Q370 253 368 229H79Q78 134 120 80T239 27Q303 27 349 57V19Q329 7 298 -1T233 -10Q140 -10 89 52T38 227Q38 351 84 417T215 483ZM214 447Q153 447 119 400T80 266H330Q330 447 214 447ZM190 634H238V580H190Z" horiz-adv-x="402" unicode="ė"/>
			<glyph d="M67 695H366V656H106V373H343V335H106V39H378V0H67ZM344 0H378Q373 -5 344 -38T300 -101T286 -161Q286 -191 300 -206T338 -222Q359 -222 378 -215V-247Q360 -255 334 -255Q296 -255 274 -231T252 -165Q252 -121 276 -82T344 0Z" horiz-adv-x="413" unicode="Ę"/>
			<glyph d="M215 483Q295 483 332 428T370 275Q370 253 368 229H79Q78 134 120 80T239 27Q303 27 349 57V19Q314 -25 298 -47T269 -99T257 -161Q257 -191 271 -206T309 -222Q330 -222 349 -215V-247Q331 -255 305 -255Q267 -255 245 -231T223 -165Q223 -121 244 -81T301 -1Q265 -10 233 -10Q140 -10 89 52T38 227Q38 351 84 417T215 483ZM214 447Q153 447 119 400T80 266H330Q330 447 214 447Z" horiz-adv-x="402" unicode="ę"/>
			<glyph d="M67 695H366V656H106V373H343V335H106V39H378V0H67ZM118 902H155L229 794L303 902H341L243 762H215Z" horiz-adv-x="413" unicode="Ě"/>
			<glyph d="M215 483Q295 483 332 428T370 275Q370 253 368 229H79Q78 134 120 80T239 27Q303 27 349 57V19Q329 7 298 -1T233 -10Q140 -10 89 52T38 227Q38 351 84 417T215 483ZM214 447Q153 447 119 400T80 266H330Q330 447 214 447ZM104 718H142L214 600L286 718H323L225 560H203Z" horiz-adv-x="402" unicode="ě"/>
			<glyph d="M332 707Q372 707 407 700T461 684V637Q438 649 403 658T330 667Q260 667 205 631T119 523T88 349Q88 196 148 112T316 28Q349 28 379 34T428 48V311H288V351H468V21Q397 -12 316 -12Q186 -12 116 80T46 346Q46 468 83 548T185 668T332 707ZM288 902H316L413 762H376L302 870L228 762H190Z" horiz-adv-x="523" unicode="Ĝ"/>
			<glyph d="M251 483Q315 483 365 460V-46Q365 -148 313 -198T173 -249Q111 -249 63 -226V-186Q114 -213 173 -213Q245 -213 286 -171T327 -43V14Q310 5 283 -2T226 -10Q130 -10 84 55T38 226Q38 349 95 416T251 483ZM245 446Q168 446 123 390T78 227Q78 128 117 77T232 26Q261 26 286 33T327 50V430Q316 436 293 441T245 446ZM216 718H238L337 560H299L227 678L155 560H118Z" horiz-adv-x="428" unicode="ĝ"/>
			<glyph d="M332 707Q372 707 407 700T461 684V637Q438 649 403 658T330 667Q260 667 205 631T119 523T88 349Q88 196 148 112T316 28Q349 28 379 34T428 48V311H288V351H468V21Q397 -12 316 -12Q186 -12 116 80T46 346Q46 468 83 548T185 668T332 707ZM194 890H227Q230 847 249 823T302 799Q335 799 354 822T377 890H410Q407 829 378 797T302 766Q254 766 225 797T194 890Z" horiz-adv-x="523" unicode="Ğ"/>
			<glyph d="M251 483Q315 483 365 460V-46Q365 -148 313 -198T173 -249Q111 -249 63 -226V-186Q114 -213 173 -213Q245 -213 286 -171T327 -43V14Q310 5 283 -2T226 -10Q130 -10 84 55T38 226Q38 349 95 416T251 483ZM245 446Q168 446 123 390T78 227Q78 128 117 77T232 26Q261 26 286 33T327 50V430Q316 436 293 441T245 446ZM126 695H159Q163 644 178 618T228 592Q290 592 296 695H330Q323 560 228 560Q132 560 126 695Z" horiz-adv-x="428" unicode="ğ"/>
			<glyph d="M332 707Q372 707 407 700T461 684V637Q438 649 403 658T330 667Q260 667 205 631T119 523T88 349Q88 196 148 112T316 28Q349 28 379 34T428 48V311H288V351H468V21Q397 -12 316 -12Q186 -12 116 80T46 346Q46 468 83 548T185 668T332 707ZM278 822H326V769H278Z" horiz-adv-x="523" unicode="Ġ"/>
			<glyph d="M251 483Q315 483 365 460V-46Q365 -148 313 -198T173 -249Q111 -249 63 -226V-186Q114 -213 173 -213Q245 -213 286 -171T327 -43V14Q310 5 283 -2T226 -10Q130 -10 84 55T38 226Q38 349 95 416T251 483ZM245 446Q168 446 123 390T78 227Q78 128 117 77T232 26Q261 26 286 33T327 50V430Q316 436 293 441T245 446ZM204 634H252V580H204Z" horiz-adv-x="428" unicode="ġ"/>
			<glyph d="M332 707Q372 707 407 700T461 684V637Q438 649 403 658T330 667Q260 667 205 631T119 523T88 349Q88 196 148 112T316 28Q349 28 379 34T428 48V311H288V351H468V21Q397 -12 316 -12Q186 -12 116 80T46 346Q46 468 83 548T185 668T332 707ZM304 -75H346L282 -241H248Z" horiz-adv-x="523" unicode="Ģ"/>
			<glyph d="M251 483Q315 483 365 460V-46Q365 -148 313 -198T173 -249Q111 -249 63 -226V-186Q114 -213 173 -213Q245 -213 286 -171T327 -43V14Q310 5 283 -2T226 -10Q130 -10 84 55T38 226Q38 349 95 416T251 483ZM245 446Q168 446 123 390T78 227Q78 128 117 77T232 26Q261 26 286 33T327 50V430Q316 436 293 441T245 446ZM249 728H283L230 562H186Z" horiz-adv-x="428" unicode="ģ"/>
			<glyph d="M67 695H107V381H419V695H459V0H419V342H107V0H67ZM249 902H277L374 762H337L263 870L189 762H151Z" horiz-adv-x="526" unicode="Ĥ"/>
			<glyph d="M63 738H101V456Q160 483 222 483Q294 483 332 444T371 329V0H333V319Q333 380 304 413T217 446Q155 446 101 418V0H63ZM183 945H211L308 805H271L197 913L123 805H85Z" horiz-adv-x="432" unicode="ĥ"/>
			<glyph d="M67 695H107V562H419V695H459V562H525V524H459V0H419V342H107V0H67V524H1V562H67ZM107 524V381H419V524Z" horiz-adv-x="526" unicode="Ħ"/>
			<glyph d="M63 738H101V629H235V594H101V456Q160 483 222 483Q294 483 332 444T371 329V0H333V319Q333 380 304 413T217 446Q155 446 101 418V0H63V594H0V629H63Z" horiz-adv-x="432" unicode="ħ"/>
			<glyph d="M67 695H107V0H67ZM35 858Q60 858 92 828T141 798Q156 798 166 815T178 855H209Q205 816 187 790T140 765Q125 765 110 773T79 797Q65 810 54 817T34 824Q18 824 9 807T-4 768H-35Q-31 807 -14 832T35 858Z" horiz-adv-x="174" unicode="Ĩ"/>
			<glyph d="M63 473H101V0H63ZM30 668Q55 668 87 638T136 608Q151 608 161 625T173 665H204Q200 626 182 600T135 575Q120 575 105 583T74 607Q60 620 49 627T29 634Q13 634 4 617T-9 578H-40Q-36 617 -19 642T30 668Z" horiz-adv-x="164" unicode="ĩ"/>
			<glyph d="M67 695H107V0H67ZM3 798H170V763H3Z" horiz-adv-x="174" unicode="Ī"/>
			<glyph d="M63 473H101V0H63ZM-2 620H165V585H-2Z" horiz-adv-x="164" unicode="ī"/>
			<glyph d="M67 695H107V0H67ZM-21 890H12Q15 847 34 823T87 799Q120 799 139 822T162 890H195Q192 829 163 797T87 766Q39 766 10 797T-21 890Z" horiz-adv-x="174" unicode="Ĭ"/>
			<glyph d="M63 473H101V0H63ZM-20 695H13Q17 644 32 618T82 592Q144 592 150 695H184Q177 560 82 560Q-14 560 -20 695Z" horiz-adv-x="164" unicode="ĭ"/>
			<glyph d="M67 695H107V0Q102 -8 80 -40T48 -102T37 -161Q37 -191 51 -206T89 -222Q111 -222 132 -215V-247Q112 -255 85 -255Q47 -255 25 -231T3 -165Q3 -122 21 -86T73 0H67Z" horiz-adv-x="174" unicode="Į"/>
			<glyph d="M56 645H108V591H56ZM63 473H101V0Q96 -8 74 -40T42 -102T31 -161Q31 -191 45 -206T83 -222Q105 -222 126 -215V-247Q106 -255 79 -255Q41 -255 19 -231T-3 -165Q-3 -122 15 -86T67 0H63Z" horiz-adv-x="164" unicode="į"/>
			<glyph d="M67 695H107V0H67ZM63 822H111V769H63Z" horiz-adv-x="174" unicode="İ"/>
			<glyph d="M63 473H101V0H63Z" horiz-adv-x="164" unicode="ı"/>
			<glyph d="M67 695H107V0H67ZM435 695H474V194Q474 141 454 94T394 17T293 -12Q226 -12 187 11V55Q203 44 231 36T292 28Q358 28 396 71T435 198Z" horiz-adv-x="539" unicode="Ĳ"/>
			<glyph d="M56 645H108V591H56ZM63 473H101V0H63ZM220 645H272V591H220ZM227 473H265V-88Q265 -161 233 -203T141 -245Q112 -245 92 -239V-202Q98 -205 111 -207T137 -209Q181 -209 204 -177T227 -84Z" horiz-adv-x="328" unicode="ĳ"/>
			<glyph d="M261 695H300V194Q300 141 280 94T220 17T119 -12Q52 -12 13 11V55Q29 44 57 36T118 28Q184 28 222 71T261 198ZM267 902H295L392 762H355L281 870L207 762H169Z" horiz-adv-x="365" unicode="Ĵ"/>
			<glyph d="M62 473H100V-88Q100 -161 68 -203T-24 -245Q-53 -245 -73 -239V-202Q-67 -205 -54 -207T-28 -209Q16 -209 39 -177T62 -84ZM69 718H91L190 560H152L80 678L8 560H-29Z" horiz-adv-x="162" unicode="ĵ"/>
			<glyph d="M67 695H106V352H107L367 695H419L153 351L424 0H371L107 347H106V0H67ZM229 -75H271L207 -241H173Z" horiz-adv-x="435" unicode="Ķ"/>
			<glyph d="M63 738H101V252H103L304 473H355L149 249L355 0H305L103 247H101V0H63ZM188 -75H230L166 -241H132Z" horiz-adv-x="357" unicode="ķ"/>
			<glyph d="M63 473H101V252H103L304 473H355L149 249L355 0H305L103 247H101V0H63Z" horiz-adv-x="357" unicode="ĸ"/>
			<glyph d="M67 695H106V40H376V0H67ZM136 895H180L92 767H55Z" horiz-adv-x="387" unicode="Ĺ"/>
			<glyph d="M63 738H101V0H63ZM130 938H174L86 810H49Z" horiz-adv-x="164" unicode="ĺ"/>
			<glyph d="M67 695H106V40H376V0H67ZM205 -75H247L183 -241H149Z" horiz-adv-x="387" unicode="Ļ"/>
			<glyph d="M63 738H101V0H63ZM84 -75H126L62 -241H28Z" horiz-adv-x="164" unicode="ļ"/>
			<glyph d="M67 695H106V40H376V0H67ZM280 702H317L271 467H243Z" horiz-adv-x="387" unicode="Ľ"/>
			<glyph d="M63 738H101V0H63ZM196 738H233L187 503H159Z" horiz-adv-x="164" unicode="ľ"/>
			<glyph d="M67 695H106V40H376V0H67ZM218 375H266V321H218Z" horiz-adv-x="388" unicode="Ŀ"/>
			<glyph d="M63 738H101V0H63ZM160 373H208V319H160Z" horiz-adv-x="205" unicode="ŀ"/>
			<glyph d="M67 695H106V367L233 481V436L106 322V40H376V0H67V287L-7 221V266L67 332Z" horiz-adv-x="387" unicode="Ł"/>
			<glyph d="M63 738H101V409L172 476V431L101 364V0H63V333L-7 269V314L63 378Z" horiz-adv-x="165" unicode="ł"/>
			<glyph d="M67 695H104L441 87H444Q443 126 443 216V695H481V0H445L105 610H103Q104 548 104 420V0H67ZM327 895H371L283 767H246Z" horiz-adv-x="548" unicode="Ń"/>
			<glyph d="M212 483Q371 483 371 324V0H333V318Q333 379 303 412T210 446Q179 446 149 440T101 427V0H63V452Q91 465 131 474T212 483ZM279 705H322L221 561H182Z" horiz-adv-x="432" unicode="ń"/>
			<glyph d="M67 695H104L441 87H444Q443 126 443 216V695H481V0H445L105 610H103Q104 548 104 420V0H67ZM276 -75H318L254 -241H220Z" horiz-adv-x="548" unicode="Ņ"/>
			<glyph d="M212 483Q371 483 371 324V0H333V318Q333 379 303 412T210 446Q179 446 149 440T101 427V0H63V452Q91 465 131 474T212 483ZM218 -75H260L196 -241H162Z" horiz-adv-x="432" unicode="ņ"/>
			<glyph d="M67 695H104L441 87H444Q443 126 443 216V695H481V0H445L105 610H103Q104 548 104 420V0H67ZM166 902H203L277 794L351 902H389L291 762H263Z" horiz-adv-x="548" unicode="Ň"/>
			<glyph d="M212 483Q371 483 371 324V0H333V318Q333 379 303 412T210 446Q179 446 149 440T101 427V0H63V452Q91 465 131 474T212 483ZM111 718H149L221 600L293 718H330L232 560H210Z" horiz-adv-x="432" unicode="ň"/>
			<glyph d="M50 716H94L2 432H-30ZM212 483Q371 483 371 324V0H333V318Q333 379 303 412T210 446Q179 446 149 440T101 427V0H63V452Q91 465 131 474T212 483Z" horiz-adv-x="432" unicode="ŉ"/>
			<glyph d="M67 695H104L441 87H444Q443 126 443 216V695H481V-53Q481 -106 461 -153T401 -229T300 -259Q233 -259 194 -236V-192Q210 -203 238 -211T299 -219Q365 -219 404 -175T443 -49V3L105 610H103Q104 548 104 420V0H67Z" horiz-adv-x="548" unicode="Ŋ"/>
			<glyph d="M212 483Q371 483 371 324V-88Q371 -161 339 -203T247 -245Q218 -245 198 -239V-202Q204 -205 217 -207T243 -209Q287 -209 310 -177T333 -84V318Q333 379 303 412T210 446Q179 446 149 440T101 427V0H63V452Q91 465 131 474T212 483Z" horiz-adv-x="432" unicode="ŋ"/>
			<glyph d="M297 707Q420 707 484 613T548 347Q548 238 516 157T428 32T297 -12Q176 -12 111 84T46 347Q46 458 77 539T166 664T297 707ZM296 667Q236 667 189 629T115 520T88 347Q88 245 114 173T188 64T296 28Q357 28 404 65T479 174T506 347Q506 501 450 584T296 667ZM213 798H380V763H213Z" horiz-adv-x="594" unicode="Ō"/>
			<glyph d="M224 483Q310 483 357 423T405 238Q405 117 355 53T221 -10Q134 -10 86 52T38 238Q38 361 88 422T224 483ZM224 447Q155 447 116 393T78 238Q78 135 115 80T221 26Q288 26 326 80T365 238Q365 339 329 393T224 447ZM140 620H307V585H140Z" horiz-adv-x="443" unicode="ō"/>
			<glyph d="M297 707Q420 707 484 613T548 347Q548 238 516 157T428 32T297 -12Q176 -12 111 84T46 347Q46 458 77 539T166 664T297 707ZM296 667Q236 667 189 629T115 520T88 347Q88 245 114 173T188 64T296 28Q357 28 404 65T479 174T506 347Q506 501 450 584T296 667ZM189 890H222Q225 847 244 823T297 799Q330 799 349 822T372 890H405Q402 829 373 797T297 766Q249 766 220 797T189 890Z" horiz-adv-x="594" unicode="Ŏ"/>
			<glyph d="M224 483Q310 483 357 423T405 238Q405 117 355 53T221 -10Q134 -10 86 52T38 238Q38 361 88 422T224 483ZM224 447Q155 447 116 393T78 238Q78 135 115 80T221 26Q288 26 326 80T365 238Q365 339 329 393T224 447ZM122 695H155Q159 644 174 618T224 592Q286 592 292 695H326Q319 560 224 560Q128 560 122 695Z" horiz-adv-x="443" unicode="ŏ"/>
			<glyph d="M297 707Q420 707 484 613T548 347Q548 238 516 157T428 32T297 -12Q176 -12 111 84T46 347Q46 458 77 539T166 664T297 707ZM296 667Q236 667 189 629T115 520T88 347Q88 245 114 173T188 64T296 28Q357 28 404 65T479 174T506 347Q506 501 450 584T296 667ZM289 895H331L247 767H211ZM389 895H431L347 767H311Z" horiz-adv-x="594" unicode="Ő"/>
			<glyph d="M224 483Q310 483 357 423T405 238Q405 117 355 53T221 -10Q134 -10 86 52T38 238Q38 361 88 422T224 483ZM224 447Q155 447 116 393T78 238Q78 135 115 80T221 26Q288 26 326 80T365 238Q365 339 329 393T224 447ZM222 703H264L174 562H138ZM322 703H364L274 562H238Z" horiz-adv-x="443" unicode="ő"/>
			<glyph d="M313 707Q377 707 425 685V695H724V656H464V373H701V335H464V39H736V0H425V13Q373 -12 304 -12Q171 -12 108 87T46 347Q46 462 78 543T171 665T313 707ZM313 667Q207 667 147 583T88 347Q88 205 141 116T307 28Q375 28 425 54V642Q403 653 373 660T313 667Z" horiz-adv-x="764" unicode="Œ"/>
			<glyph d="M224 483Q347 483 384 358Q403 419 442 451T538 483Q618 483 655 428T693 275Q693 253 691 229H402Q401 134 443 80T562 27Q626 27 672 57V19Q652 7 621 -1T556 -10Q490 -10 446 23T382 117Q363 55 321 22T221 -10Q134 -10 86 52T38 238Q38 361 88 422T224 483ZM224 447Q155 447 116 393T78 238Q78 135 115 80T221 26Q288 26 326 80T365 238Q365 339 329 393T224 447ZM537 447Q476 447 442 400T403 266H653Q653 447 537 447Z" horiz-adv-x="725" unicode="œ"/>
			<glyph d="M67 695H209Q303 695 355 645T407 499Q407 416 366 367T265 302L431 0H380L220 296H107V0H67ZM107 657V334H201Q281 334 322 379T364 498Q364 575 323 616T204 657ZM274 895H318L230 767H193Z" horiz-adv-x="456" unicode="Ŕ"/>
			<glyph d="M185 483Q222 483 248 479V442Q224 446 185 446Q162 446 137 441T100 431V0H63V460Q88 469 120 476T185 483ZM217 705H260L159 561H120Z" horiz-adv-x="262" unicode="ŕ"/>
			<glyph d="M67 695H209Q303 695 355 645T407 499Q407 416 366 367T265 302L431 0H380L220 296H107V0H67ZM107 657V334H201Q281 334 322 379T364 498Q364 575 323 616T204 657ZM231 -75H273L209 -241H175Z" horiz-adv-x="456" unicode="Ŗ"/>
			<glyph d="M185 483Q222 483 248 479V442Q224 446 185 446Q162 446 137 441T100 431V0H63V460Q88 469 120 476T185 483ZM78 -75H120L56 -241H22Z" horiz-adv-x="262" unicode="ŗ"/>
			<glyph d="M67 695H209Q303 695 355 645T407 499Q407 416 366 367T265 302L431 0H380L220 296H107V0H67ZM107 657V334H201Q281 334 322 379T364 498Q364 575 323 616T204 657ZM113 902H150L224 794L298 902H336L238 762H210Z" horiz-adv-x="456" unicode="Ř"/>
			<glyph d="M185 483Q222 483 248 479V442Q224 446 185 446Q162 446 137 441T100 431V0H63V460Q88 469 120 476T185 483ZM49 718H87L159 600L231 718H268L170 560H148Z" horiz-adv-x="262" unicode="ř"/>
			<glyph d="M242 707Q278 707 310 700T362 684V637Q302 666 240 666Q166 666 126 627T87 526Q87 485 102 457T144 410T219 366Q285 332 317 309T368 253T386 163Q386 116 364 76T297 12T189 -12Q148 -12 111 -2T47 23V72Q119 29 195 29Q268 29 305 67T343 160Q343 203 328 230T286 275T199 325Q142 355 109 380T60 440T44 526Q44 579 68 620T138 684T242 707ZM279 895H323L235 767H198Z" horiz-adv-x="420" unicode="Ś"/>
			<glyph d="M176 483Q201 483 224 478T261 468V424Q223 445 174 445Q127 445 102 421T78 358Q78 319 98 297T163 252Q207 229 229 213T264 173T277 111Q277 59 241 23T140 -12Q111 -12 85 -5T41 13V59Q91 26 144 26Q191 26 214 50T238 109Q238 137 228 154T200 184T145 217Q87 248 62 277T38 358Q38 414 76 448T176 483ZM220 705H263L162 561H123Z" horiz-adv-x="311" unicode="ś"/>
			<glyph d="M242 707Q278 707 310 700T362 684V637Q302 666 240 666Q166 666 126 627T87 526Q87 485 102 457T144 410T219 366Q285 332 317 309T368 253T386 163Q386 116 364 76T297 12T189 -12Q148 -12 111 -2T47 23V72Q119 29 195 29Q268 29 305 67T343 160Q343 203 328 230T286 275T199 325Q142 355 109 380T60 440T44 526Q44 579 68 620T138 684T242 707ZM216 902H244L341 762H304L230 870L156 762H118Z" horiz-adv-x="420" unicode="Ŝ"/>
			<glyph d="M176 483Q201 483 224 478T261 468V424Q223 445 174 445Q127 445 102 421T78 358Q78 319 98 297T163 252Q207 229 229 213T264 173T277 111Q277 59 241 23T140 -12Q111 -12 85 -5T41 13V59Q91 26 144 26Q191 26 214 50T238 109Q238 137 228 154T200 184T145 217Q87 248 62 277T38 358Q38 414 76 448T176 483ZM150 718H172L271 560H233L161 678L89 560H52Z" horiz-adv-x="311" unicode="ŝ"/>
			<glyph d="M242 707Q278 707 310 700T362 684V637Q302 666 240 666Q166 666 126 627T87 526Q87 485 102 457T144 410T219 366Q285 332 317 309T368 253T386 163Q386 94 341 44T212 -11L200 -61Q277 -68 278 -137Q278 -175 253 -199T183 -223Q155 -223 130 -214V-183Q160 -194 183 -194Q213 -194 229 -179T246 -139Q246 -90 187 -87L167 -86L186 -12Q145 -11 108 -1T47 23V72Q119 29 195 29Q268 29 305 67T343 160Q343 203 328 230T286 275T199 325Q142 355 109 380T60 440T44 526Q44 579 68 620T138 684T242 707Z" horiz-adv-x="420" unicode="Ş"/>
			<glyph d="M176 483Q201 483 224 478T261 468V424Q223 445 174 445Q127 445 102 421T78 358Q78 319 98 297T163 252Q207 229 229 213T264 173T277 111Q277 63 245 28T156 -11L144 -61Q221 -68 222 -137Q222 -175 197 -199T127 -223Q99 -223 74 -214V-183Q104 -194 127 -194Q157 -194 173 -179T190 -139Q190 -90 131 -87L111 -86L130 -12Q78 -9 41 13V59Q91 26 144 26Q191 26 214 50T238 109Q238 137 228 154T200 184T145 217Q87 248 62 277T38 358Q38 414 76 448T176 483Z" horiz-adv-x="311" unicode="ş"/>
			<glyph d="M242 707Q278 707 310 700T362 684V637Q302 666 240 666Q166 666 126 627T87 526Q87 485 102 457T144 410T219 366Q285 332 317 309T368 253T386 163Q386 116 364 76T297 12T189 -12Q148 -12 111 -2T47 23V72Q119 29 195 29Q268 29 305 67T343 160Q343 203 328 230T286 275T199 325Q142 355 109 380T60 440T44 526Q44 579 68 620T138 684T242 707ZM118 902H155L229 794L303 902H341L243 762H215Z" horiz-adv-x="420" unicode="Š"/>
			<glyph d="M176 483Q201 483 224 478T261 468V424Q223 445 174 445Q127 445 102 421T78 358Q78 319 98 297T163 252Q207 229 229 213T264 173T277 111Q277 59 241 23T140 -12Q111 -12 85 -5T41 13V59Q91 26 144 26Q191 26 214 50T238 109Q238 137 228 154T200 184T145 217Q87 248 62 277T38 358Q38 414 76 448T176 483ZM52 718H90L162 600L234 718H271L173 560H151Z" horiz-adv-x="311" unicode="š"/>
			<glyph d="M10 695H394V657H222V0H182V657H10ZM204 -75H246L182 -241H148Z" horiz-adv-x="404" unicode="Ţ"/>
			<glyph d="M83 615H121V473H254V437H121V121Q121 70 141 47T200 25Q225 25 254 34V0Q226 -10 197 -10Q83 -10 83 115V437H10V473H83ZM163 -75H205L141 -241H107Z" horiz-adv-x="260" unicode="ţ"/>
			<glyph d="M10 695H394V657H222V0H182V657H10ZM90 902H127L201 794L275 902H313L215 762H187Z" horiz-adv-x="404" unicode="Ť"/>
			<glyph d="M83 615H121V473H254V437H121V121Q121 70 141 47T200 25Q225 25 254 34V0Q226 -10 197 -10Q83 -10 83 115V437H10V473H83ZM215 777H252L206 542H178Z" horiz-adv-x="260" unicode="ť"/>
			<glyph d="M10 695H394V657H222V346H362V308H222V0H182V308H45V346H182V657H10Z" horiz-adv-x="404" unicode="Ŧ"/>
			<glyph d="M84 615H122V473H255V437H122V264H255V228H122V121Q122 70 142 47T201 25Q226 25 255 34V0Q228 -10 198 -10Q84 -10 84 115V228H10V264H84V437H11V473H84Z" horiz-adv-x="261" unicode="ŧ"/>
			<glyph d="M64 695H104V215Q104 121 143 75T275 30Q339 30 418 49V695H457V18Q362 -12 271 -12Q164 -12 114 41T64 208ZM210 858Q235 858 267 828T316 798Q331 798 341 815T353 855H384Q380 816 362 790T315 765Q300 765 285 773T254 797Q240 810 229 817T209 824Q193 824 184 807T171 768H140Q144 807 161 832T210 858Z" horiz-adv-x="524" unicode="Ũ"/>
			<glyph d="M61 473H99V155Q99 94 129 60T222 27Q253 27 282 32T331 46V473H369V21Q341 8 300 -1T220 -10Q61 -10 61 149ZM175 668Q200 668 232 638T281 608Q296 608 306 625T318 665H349Q345 626 327 600T280 575Q265 575 250 583T219 607Q205 620 194 627T174 634Q158 634 149 617T136 578H105Q109 617 126 642T175 668Z" horiz-adv-x="432" unicode="ũ"/>
			<glyph d="M64 695H104V215Q104 121 143 75T275 30Q339 30 418 49V695H457V18Q362 -12 271 -12Q164 -12 114 41T64 208ZM178 798H345V763H178Z" horiz-adv-x="524" unicode="Ū"/>
			<glyph d="M61 473H99V155Q99 94 129 60T222 27Q253 27 282 32T331 46V473H369V21Q341 8 300 -1T220 -10Q61 -10 61 149ZM140 620H307V585H140Z" horiz-adv-x="432" unicode="ū"/>
			<glyph d="M64 695H104V215Q104 121 143 75T275 30Q339 30 418 49V695H457V18Q362 -12 271 -12Q164 -12 114 41T64 208ZM154 890H187Q190 847 209 823T262 799Q295 799 314 822T337 890H370Q367 829 338 797T262 766Q214 766 185 797T154 890Z" horiz-adv-x="524" unicode="Ŭ"/>
			<glyph d="M61 473H99V155Q99 94 129 60T222 27Q253 27 282 32T331 46V473H369V21Q341 8 300 -1T220 -10Q61 -10 61 149ZM125 695H158Q162 644 177 618T227 592Q289 592 295 695H329Q322 560 227 560Q131 560 125 695Z" horiz-adv-x="432" unicode="ŭ"/>
			<glyph d="M64 695H104V215Q104 121 143 75T275 30Q339 30 418 49V695H457V18Q362 -12 271 -12Q164 -12 114 41T64 208ZM262 942Q302 942 330 914T358 846Q358 806 330 778T262 750Q222 750 194 778T166 846Q166 886 194 914T262 942ZM262 912Q234 912 215 893T196 846Q196 820 215 800T262 780Q291 780 309 799T328 846Q328 875 309 893T262 912Z" horiz-adv-x="524" unicode="Ů"/>
			<glyph d="M61 473H99V155Q99 94 129 60T222 27Q253 27 282 32T331 46V473H369V21Q341 8 300 -1T220 -10Q61 -10 61 149ZM226 753Q266 753 294 725T322 657Q322 617 294 589T226 561Q186 561 158 589T130 657Q130 697 158 725T226 753ZM226 723Q198 723 179 704T160 657Q160 631 179 611T226 591Q255 591 273 610T292 657Q292 686 273 704T226 723Z" horiz-adv-x="432" unicode="ů"/>
			<glyph d="M64 695H104V215Q104 121 143 75T275 30Q339 30 418 49V695H457V18Q362 -12 271 -12Q164 -12 114 41T64 208ZM254 895H296L212 767H176ZM354 895H396L312 767H276Z" horiz-adv-x="524" unicode="Ű"/>
			<glyph d="M61 473H99V155Q99 94 129 60T222 27Q253 27 282 32T331 46V473H369V21Q341 8 300 -1T220 -10Q61 -10 61 149ZM224 703H266L176 562H140ZM324 703H366L276 562H240Z" horiz-adv-x="432" unicode="ű"/>
			<glyph d="M64 695H104V215Q104 121 143 75T275 30Q339 30 418 49V695H457V18Q452 12 423 -24T379 -95T365 -161Q365 -191 379 -206T417 -222Q438 -222 457 -215V-247Q439 -255 413 -255Q375 -255 353 -231T331 -165Q331 -120 353 -79T412 6Q342 -12 271 -12Q164 -12 114 41T64 208Z" horiz-adv-x="524" unicode="Ų"/>
			<glyph d="M61 473H99V155Q99 94 129 60T222 27Q253 27 282 32T331 46V473H369V21Q364 15 335 -22T291 -94T277 -161Q277 -191 291 -206T329 -222Q350 -222 369 -215V-247Q351 -255 325 -255Q287 -255 265 -231T243 -165Q243 -119 265 -78T325 5Q273 -10 220 -10Q61 -10 61 149Z" horiz-adv-x="432" unicode="ų"/>
			<glyph d="M19 695H60L167 180Q183 102 186 72H187Q192 102 211 177L349 695H383L503 176Q522 93 525 67H526Q532 99 549 178L662 695H703L543 -6H508L396 470Q373 567 364 623H362Q345 540 325 465L202 -6H169ZM351 902H379L476 762H439L365 870L291 762H253Z" horiz-adv-x="725" unicode="Ŵ"/>
			<glyph d="M-1 473H40L125 127Q137 81 141 57H143Q151 95 167 148L262 473H299L389 129L400 81Q402 74 403 67T406 57H409Q417 99 426 130L525 473H564L427 0H387L304 306Q286 372 279 412H277Q266 360 250 306L160 0H121ZM269 718H291L390 560H352L280 678L208 560H171Z" horiz-adv-x="561" unicode="ŵ"/>
			<glyph d="M-5 695H40L202 315L368 695H413L221 261V0H182V261ZM188 902H216L313 762H276L202 870L128 762H90Z" horiz-adv-x="404" unicode="Ŷ"/>
			<glyph d="M0 473H41L128 183Q152 104 167 42H170Q183 91 205 157L214 185L308 473H348L113 -235H73L148 -9ZM162 718H184L283 560H245L173 678L101 560H64Z" horiz-adv-x="348" unicode="ŷ"/>
			<glyph d="M-5 695H40L202 315L368 695H413L221 261V0H182V261ZM120 825H165V771H120ZM238 825H282V771H238Z" horiz-adv-x="404" unicode="Ÿ"/>
			<glyph d="M44 695H426V664L76 40H436V0H26V34L375 655H44ZM283 895H327L239 767H202Z" horiz-adv-x="459" unicode="Ź"/>
			<glyph d="M32 473H317V435L65 35H321V0H19V34L272 438H32ZM230 705H273L172 561H133Z" horiz-adv-x="340" unicode="ź"/>
			<glyph d="M44 695H426V664L76 40H436V0H26V34L375 655H44ZM210 822H258V769H210Z" horiz-adv-x="459" unicode="Ż"/>
			<glyph d="M32 473H317V435L65 35H321V0H19V34L272 438H32ZM148 634H196V580H148Z" horiz-adv-x="340" unicode="ż"/>
			<glyph d="M44 695H426V664L76 40H436V0H26V34L375 655H44ZM122 902H159L233 794L307 902H345L247 762H219Z" horiz-adv-x="459" unicode="Ž"/>
			<glyph d="M32 473H317V435L65 35H321V0H19V34L272 438H32ZM62 718H100L172 600L244 718H281L183 560H161Z" horiz-adv-x="340" unicode="ž"/>
			<glyph d="M325 707Q341 707 360 704T387 698L384 661Q375 664 356 667T320 670Q276 670 252 642T222 546L212 428H322L319 393H209L182 96Q176 18 146 -18T57 -55Q27 -55 6 -49L10 -13Q29 -20 60 -20Q99 -20 119 6T145 108L170 393H113L117 428H173L183 544Q191 629 226 668T325 707Z" horiz-adv-x="394" unicode="ƒ"/>
			<glyph d="M242 707Q278 707 310 700T362 684V637Q302 666 240 666Q166 666 126 627T87 526Q87 485 102 457T144 410T219 366Q285 332 317 309T368 253T386 163Q386 116 364 76T297 12T189 -12Q148 -12 111 -2T47 23V72Q119 29 195 29Q268 29 305 67T343 160Q343 203 328 230T286 275T199 325Q142 355 109 380T60 440T44 526Q44 579 68 620T138 684T242 707ZM206 -75H248L184 -241H150Z" horiz-adv-x="420" unicode="Ș"/>
			<glyph d="M176 483Q201 483 224 478T261 468V424Q223 445 174 445Q127 445 102 421T78 358Q78 319 98 297T163 252Q207 229 229 213T264 173T277 111Q277 59 241 23T140 -12Q111 -12 85 -5T41 13V59Q91 26 144 26Q191 26 214 50T238 109Q238 137 228 154T200 184T145 217Q87 248 62 277T38 358Q38 414 76 448T176 483ZM150 -75H192L128 -241H94Z" horiz-adv-x="311" unicode="ș"/>
			<glyph d="M10 695H394V657H222V0H182V657H10ZM204 -75H246L182 -241H148Z" horiz-adv-x="404" unicode="Ț"/>
			<glyph d="M83 615H121V473H254V437H121V121Q121 70 141 47T200 25Q225 25 254 34V0Q226 -10 197 -10Q83 -10 83 115V437H10V473H83ZM163 -75H205L141 -241H107Z" horiz-adv-x="260" unicode="ț"/>
			<glyph d="M62 473H100V-88Q100 -161 68 -203T-24 -245Q-53 -245 -73 -239V-202Q-67 -205 -54 -207T-28 -209Q16 -209 39 -177T62 -84Z" horiz-adv-x="162" unicode="ȷ"/>
			<glyph d="M128 718H150L249 560H211L139 678L67 560H30Z" horiz-adv-x="279" unicode="ˆ"/>
			<glyph d="M30 718H68L140 600L212 718H249L151 560H129Z" horiz-adv-x="279" unicode="ˇ"/>
			<glyph d="M30 620H197V585H30Z" horiz-adv-x="227" unicode="ˉ"/>
			<glyph d="M30 695H63Q67 644 82 618T132 592Q194 592 200 695H234Q227 560 132 560Q36 560 30 695Z" horiz-adv-x="264" unicode="˘"/>
			<glyph d="M30 634H78V580H30Z" horiz-adv-x="108" unicode="˙"/>
			<glyph d="M126 753Q166 753 194 725T222 657Q222 617 194 589T126 561Q86 561 58 589T30 657Q30 697 58 725T126 753ZM126 723Q98 723 79 704T60 657Q60 631 79 611T126 591Q155 591 173 610T192 657Q192 686 173 704T126 723Z" horiz-adv-x="252" unicode="˚"/>
			<glyph d="M122 0H156Q151 -5 122 -38T78 -101T64 -161Q64 -191 78 -206T116 -222Q137 -222 156 -215V-247Q138 -255 112 -255Q74 -255 52 -231T30 -165Q30 -121 54 -82T122 0Z" horiz-adv-x="186" unicode="˛"/>
			<glyph d="M100 668Q125 668 157 638T206 608Q221 608 231 625T243 665H274Q270 626 252 600T205 575Q190 575 175 583T144 607Q130 620 119 627T99 634Q83 634 74 617T61 578H30Q34 617 51 642T100 668Z" horiz-adv-x="304" unicode="˜"/>
			<glyph d="M114 703H156L66 562H30ZM214 703H256L166 562H130Z" horiz-adv-x="286" unicode="˝"/>
			<glyph d="M93 728H127L74 562H30Z" horiz-adv-x="0" unicode="̒"/>
			<glyph d="M86 -75H128L64 -241H30Z" horiz-adv-x="0" unicode="̦"/>
			<glyph d="M206 697H255L457 0H6ZM229 636L62 41H402L231 636Z" horiz-adv-x="463" unicode="Δ"/>
			<glyph d="M292 707Q407 707 471 620T535 384Q535 254 491 180T378 74V37H536V0H341V97Q407 120 449 189T492 383Q492 515 438 591T290 667Q232 667 186 634T114 537T88 383Q88 260 130 189T240 97V0H45V37H203V73Q46 142 46 384Q46 488 79 561T168 670T292 707Z" horiz-adv-x="581" unicode="Ω"/>
			<glyph d="M63 473H101V163Q101 88 127 56T214 25Q239 25 265 29T309 39V473H347V12Q277 -12 212 -12Q173 -12 145 -1T101 34V-251H63Z" unicode="μ"/>
			<glyph d="M131 472H410V431H334V90Q334 62 343 49T373 36Q385 36 405 41V3Q400 0 389 -2T369 -4Q330 -4 312 18T294 87V431H141V131Q141 63 136 0H93Q101 64 101 130V431Q83 431 61 428T24 420V462Q64 472 131 472Z" horiz-adv-x="440" unicode="π"/>
			<glyph d="M67 695H366V656H106V373H343V335H106V39H378V0H67ZM139 895H183L264 767H227Z" horiz-adv-x="413" unicode="Ѐ"/>
			<glyph d="M67 695H366V656H106V373H343V335H106V39H378V0H67ZM148 825H193V771H148ZM266 825H310V771H266Z" horiz-adv-x="413" unicode="Ё"/>
			<glyph d="M10 695H394V657H222V392Q280 427 344 427Q437 427 485 369T533 201Q533 102 484 43T348 -15Q329 -15 317 -10V29Q327 24 347 24Q415 24 453 72T491 201Q491 295 455 341T343 388Q308 388 275 376T222 350V0H182V657H10Z" horiz-adv-x="564" unicode="Ђ"/>
			<glyph d="M67 695H371V657H107V0H67ZM268 895H312L224 767H187Z" horiz-adv-x="381" unicode="Ѓ"/>
			<glyph d="M320 707Q400 707 444 684V637Q389 667 319 667Q215 667 154 587T88 375H388V332H88Q92 200 146 114T310 28Q351 28 384 36T438 55V14Q419 4 384 -4T307 -12Q180 -12 113 85T46 348Q46 468 83 549T182 668T320 707Z" horiz-adv-x="465" unicode="Є"/>
			<glyph d="M242 707Q278 707 310 700T362 684V637Q302 666 240 666Q166 666 126 627T87 526Q87 485 102 457T144 410T219 366Q285 332 317 309T368 253T386 163Q386 116 364 76T297 12T189 -12Q148 -12 111 -2T47 23V72Q119 29 195 29Q268 29 305 67T343 160Q343 203 328 230T286 275T199 325Q142 355 109 380T60 440T44 526Q44 579 68 620T138 684T242 707Z" horiz-adv-x="420" unicode="Ѕ"/>
			<glyph d="M67 695H107V0H67Z" horiz-adv-x="174" unicode="І"/>
			<glyph d="M67 695H107V0H67ZM5 825H50V771H5ZM123 825H167V771H123Z" horiz-adv-x="174" unicode="Ї"/>
			<glyph d="M261 695H300V194Q300 141 280 94T220 17T119 -12Q52 -12 13 11V55Q29 44 57 36T118 28Q184 28 222 71T261 198Z" horiz-adv-x="365" unicode="Ј"/>
			<glyph d="M187 695H436V406H529Q642 406 693 354T745 215Q745 116 688 58T525 0H396V657H225Q210 392 180 246T108 45T8 -10V28Q50 28 83 78T143 274T187 695ZM436 366V40H524Q611 40 656 84T701 212Q701 286 658 326T528 366Z" horiz-adv-x="776" unicode="Љ"/>
			<glyph d="M67 695H107V381H419V695H459V406H552Q665 406 716 354T768 215Q768 116 711 58T548 0H419V342H107V0H67ZM459 366V40H547Q634 40 679 84T724 212Q724 286 681 326T551 366Z" horiz-adv-x="799" unicode="Њ"/>
			<glyph d="M10 695H394V657H222V399Q280 427 341 427Q442 427 487 376T533 216V0H493V213Q493 306 458 347T342 388Q308 388 275 379T222 359V0H182V657H10Z" horiz-adv-x="575" unicode="Ћ"/>
			<glyph d="M67 695H106V352H107L367 695H419L153 351L424 0H371L107 347H106V0H67ZM278 895H322L234 767H197Z" horiz-adv-x="435" unicode="Ќ"/>
			<glyph d="M67 695H107V221Q107 131 106 92H109L445 695H481V0H441V415Q441 543 442 605H440L102 0H67ZM179 895H223L304 767H267Z" horiz-adv-x="548" unicode="Ѝ"/>
			<glyph d="M111 890H143Q151 799 223 799Q258 799 278 822T302 890H334Q331 829 301 797T223 766Q172 766 143 797T111 890ZM4 695H49L230 208L400 695H445L239 114Q216 49 184 18T96 -12Q65 -12 46 -5V36Q72 28 96 28Q136 28 160 50T203 127L211 151Z" horiz-adv-x="449" unicode="Ў"/>
			<glyph d="M67 695H107V40H420V695H460V0H284V-160H244V0H67Z" horiz-adv-x="527" unicode="Џ"/>
			<glyph d="M220 695H267L474 0H429L361 233H121L50 0H6ZM241 637L133 272H349L242 637Z" horiz-adv-x="480" unicode="А"/>
			<glyph d="M67 695H384V657H107V406H196Q303 406 359 352T416 207Q416 114 362 57T200 0H67ZM107 366V40H199Q287 40 329 83T372 204Q372 283 327 324T195 366Z" horiz-adv-x="451" unicode="Б"/>
			<glyph d="M67 695H211Q304 695 349 652T395 527Q395 458 362 416T275 364V362Q338 356 377 313T416 194Q416 109 362 54T205 0H67ZM107 657V380H192Q266 380 308 416T351 525Q351 657 206 657ZM107 342V38H203Q284 38 328 78T372 193Q372 276 323 309T190 342Z" horiz-adv-x="454" unicode="В"/>
			<glyph d="M67 695H371V657H107V0H67Z" horiz-adv-x="381" unicode="Г"/>
			<glyph d="M168 695H426V43H489V-160H449V0H52V-160H12V43H52Q97 134 124 275T168 695ZM207 657Q193 411 166 270T98 43H386V657Z" horiz-adv-x="507" unicode="Д"/>
			<glyph d="M67 695H366V656H106V373H343V335H106V39H378V0H67Z" horiz-adv-x="413" unicode="Е"/>
			<glyph d="M17 695H65L286 352H287V695H327V352H328L549 695H597L372 351L603 0H553L328 347H327V0H287V347H286L61 0H11L242 351Z" horiz-adv-x="614" unicode="Ж"/>
			<glyph d="M178 707Q271 707 313 657T356 530Q356 465 322 418T241 356V354Q302 340 335 298T369 187Q369 132 346 87T277 15T164 -12Q83 -12 21 18V66Q47 50 85 39T166 28Q243 28 285 71T327 185Q327 331 151 331H88V369H146Q224 369 269 412T314 529Q314 592 278 629T173 667Q133 667 97 655T35 627V672Q61 687 98 697T178 707Z" horiz-adv-x="407" unicode="З"/>
			<glyph d="M67 695H107V221Q107 131 106 92H109L445 695H481V0H441V415Q441 543 442 605H440L102 0H67Z" horiz-adv-x="548" unicode="И"/>
			<glyph d="M158 890H190Q198 799 270 799Q305 799 325 822T349 890H381Q378 829 348 797T270 766Q219 766 190 797T158 890ZM67 695H107V221Q107 131 106 92H109L445 695H481V0H441V415Q441 543 442 605H440L102 0H67Z" horiz-adv-x="548" unicode="Й"/>
			<glyph d="M67 695H106V352H107L367 695H419L153 351L424 0H371L107 347H106V0H67Z" horiz-adv-x="435" unicode="К"/>
			<glyph d="M187 695H436V0H396V657H225Q210 392 180 246T108 45T8 -10V28Q50 28 83 78T143 274T187 695Z" horiz-adv-x="503" unicode="Л"/>
			<glyph d="M67 695H115L313 108H315L516 695H562V0H525V601H523L329 33H301L105 601H104V0H67Z" horiz-adv-x="629" unicode="М"/>
			<glyph d="M67 695H107V381H419V695H459V0H419V342H107V0H67Z" horiz-adv-x="526" unicode="Н"/>
			<glyph d="M297 707Q420 707 484 613T548 347Q548 238 516 157T428 32T297 -12Q176 -12 111 84T46 347Q46 458 77 539T166 664T297 707ZM296 667Q236 667 189 629T115 520T88 347Q88 245 114 173T188 64T296 28Q357 28 404 65T479 174T506 347Q506 501 450 584T296 667Z" horiz-adv-x="594" unicode="О"/>
			<glyph d="M67 695H465V0H425V657H107V0H67Z" horiz-adv-x="532" unicode="П"/>
			<glyph d="M67 695H191Q304 695 355 639T407 490Q407 385 350 323T187 261H106V0H67ZM106 655V301H186Q273 301 318 348T363 487Q363 568 320 611T190 655Z" horiz-adv-x="438" unicode="Р"/>
			<glyph d="M320 707Q400 707 444 684V637Q389 667 319 667Q246 667 194 627T115 516T88 351Q88 213 142 120T310 28Q351 28 384 36T438 55V14Q419 4 384 -4T307 -12Q180 -12 113 85T46 348Q46 468 83 549T182 668T320 707Z" horiz-adv-x="465" unicode="С"/>
			<glyph d="M10 695H394V657H222V0H182V657H10Z" horiz-adv-x="404" unicode="Т"/>
			<glyph d="M4 695H49L230 208L400 695H445L239 114Q216 49 184 18T96 -12Q65 -12 46 -5V36Q72 28 96 28Q136 28 160 50T203 127L211 151Z" horiz-adv-x="449" unicode="У"/>
			<glyph d="M282 715H322V633Q429 628 493 553T557 347Q557 268 529 205T449 104T322 62V-20H282V62Q169 66 107 143T46 347Q46 433 76 496T159 593T282 633ZM282 593Q193 588 140 523T88 347Q88 235 140 171T282 102ZM322 593V102Q411 107 463 171T515 347Q515 459 463 523T322 593Z" horiz-adv-x="603" unicode="Ф"/>
			<glyph d="M14 695H61L222 379L384 695H431L249 347L428 0H379L220 314L60 0H13L194 347Z" horiz-adv-x="441" unicode="Х"/>
			<glyph d="M67 695H107V40H420V695H460V40H521V-160H481V0H67Z" horiz-adv-x="539" unicode="Ц"/>
			<glyph d="M42 695H82V492Q82 402 118 359T234 317Q278 317 315 324T377 342V695H417V0H377V302Q310 278 235 278Q134 278 88 329T42 485Z" horiz-adv-x="484" unicode="Ч"/>
			<glyph d="M67 695H107V40H359V695H399V40H651V695H691V0H67Z" horiz-adv-x="758" unicode="Ш"/>
			<glyph d="M67 695H107V40H359V695H399V40H651V695H691V40H752V-160H712V0H67Z" horiz-adv-x="770" unicode="Щ"/>
			<glyph d="M10 695H231V406H324Q437 406 488 354T540 215Q540 116 483 58T320 0H191V657H10ZM231 366V40H319Q406 40 451 84T496 212Q496 286 453 326T323 366Z" horiz-adv-x="571" unicode="Ъ"/>
			<glyph d="M67 695H107V406H200Q313 406 364 354T416 215Q416 116 359 58T196 0H67ZM107 366V40H195Q282 40 327 84T372 212Q372 286 329 326T199 366ZM516 695H556V0H516Z" horiz-adv-x="623" unicode="Ы"/>
			<glyph d="M67 695H107V406H200Q313 406 364 354T416 215Q416 116 359 58T196 0H67ZM107 366V40H195Q282 40 327 84T372 212Q372 286 329 326T199 366Z" horiz-adv-x="447" unicode="Ь"/>
			<glyph d="M165 707Q419 707 419 358Q419 231 382 148T284 26T142 -12Q70 -12 20 9V56Q76 28 144 28Q251 28 312 107T377 332H77V375H377Q370 667 162 667Q121 667 84 658T29 640V681Q48 690 85 698T165 707Z" horiz-adv-x="465" unicode="Э"/>
			<glyph d="M439 707Q557 707 618 613T680 347Q680 238 650 157T565 32T439 -12Q326 -12 264 79T198 328H107V0H67V695H107V367H198Q201 472 232 549T316 666T439 707ZM438 667Q381 667 336 629T265 520T240 347Q240 245 265 173T335 64T438 28Q496 28 541 65T612 174T638 347Q638 501 585 584T438 667Z" horiz-adv-x="726" unicode="Ю"/>
			<glyph d="M257 695H389V0H349V296H236L76 0H25L191 302Q130 310 89 357T49 485Q49 585 106 640T257 695ZM261 657Q182 657 137 614T92 490Q92 334 249 334H349V657Z" horiz-adv-x="456" unicode="Я"/>
			<glyph d="M196 483Q336 483 336 329V24Q314 11 278 0T203 -10Q128 -10 87 28T46 135Q46 201 89 241T212 282Q263 282 298 271V323Q298 385 273 416T194 447Q160 447 129 437T77 414V453Q96 465 129 474T196 483ZM212 246Q150 246 118 217T86 137Q86 86 117 56T208 26Q232 26 257 31T298 45V234Q252 246 212 246Z" horiz-adv-x="396" unicode="а"/>
			<glyph d="M369 737V699Q333 689 287 672T207 640Q149 614 119 555T78 393H80Q96 431 136 457T231 483Q313 483 359 422T405 236Q405 118 354 54T221 -10Q126 -10 82 60T38 274Q38 447 75 543T196 676Q234 692 282 709T369 737ZM224 447Q156 447 117 390T78 243Q78 149 113 87T221 26Q287 26 326 80T365 236Q365 340 328 393T224 447Z" horiz-adv-x="444" unicode="б"/>
			<glyph d="M64 473H194Q262 473 298 442T334 356Q334 314 313 287T261 248V246Q299 238 323 210T348 135Q348 75 308 37T196 0H64ZM102 437V264H189Q239 264 267 288T295 354Q295 395 269 416T194 437ZM102 228V36H197Q251 36 280 61T309 135Q309 228 189 228Z" horiz-adv-x="394" unicode="в"/>
			<glyph d="M63 473H295V437H101V0H63Z" horiz-adv-x="305" unicode="г"/>
			<glyph d="M132 473H338V36H385V-160H347V0H46V-160H8V36H46Q78 102 99 197T132 473ZM168 437Q159 283 139 189T89 36H300V437Z" unicode="д"/>
			<glyph d="M215 483Q295 483 332 428T370 275Q370 253 368 229H79Q78 134 120 80T239 27Q303 27 349 57V19Q329 7 298 -1T233 -10Q140 -10 89 52T38 227Q38 351 84 417T215 483ZM214 447Q153 447 119 400T80 266H330Q330 447 214 447Z" horiz-adv-x="402" unicode="е"/>
			<glyph d="M3 473H49L202 251H203V473H241V251H242L396 473H442L285 248L442 0H396L242 247H241V0H203V247H202L48 0H2L160 248Z" horiz-adv-x="444" unicode="ж"/>
			<glyph d="M146 483Q211 483 247 449T283 359Q283 313 261 283T198 241V239Q291 218 291 128Q291 63 250 25T133 -12Q70 -12 26 9V50Q45 39 73 32T133 25Q193 25 223 52T253 127Q253 219 122 219H78V255H122Q182 255 213 281T244 357Q244 397 218 421T142 446Q114 446 86 439T36 419V459Q55 470 85 476T146 483Z" horiz-adv-x="337" unicode="з"/>
			<glyph d="M63 473H101V192Q101 115 100 77H103L337 473H375V0H337V280Q337 358 338 396H335L101 0H63Z" horiz-adv-x="438" unicode="и"/>
			<glyph d="M114 685H146Q150 637 166 610T218 584Q252 584 270 611T291 685H323Q319 621 292 585T218 550Q170 550 144 585T114 685ZM63 473H101V192Q101 115 100 77H103L337 473H375V0H337V280Q337 358 338 396H335L101 0H63Z" horiz-adv-x="438" unicode="й"/>
			<glyph d="M63 473H101V252H103L304 473H355L149 249L355 0H305L103 247H101V0H63Z" horiz-adv-x="357" unicode="к"/>
			<glyph d="M133 473H331V0H293V437H168Q157 262 134 164T79 30T5 -7V29Q34 29 58 62T102 193T133 473Z" horiz-adv-x="395" unicode="л"/>
			<glyph d="M63 473H115L260 81H263L408 473H460V0H425V413H422L277 22H247L102 412H99V0H63Z" horiz-adv-x="521" unicode="м"/>
			<glyph d="M63 473H101V259H321V473H359V0H321V223H101V0H63Z" horiz-adv-x="422" unicode="н"/>
			<glyph d="M224 483Q310 483 357 423T405 238Q405 117 355 53T221 -10Q134 -10 86 52T38 238Q38 361 88 422T224 483ZM224 447Q155 447 116 393T78 238Q78 135 115 80T221 26Q288 26 326 80T365 238Q365 339 329 393T224 447Z" horiz-adv-x="443" unicode="о"/>
			<glyph d="M63 473H371V0H333V437H101V0H63Z" horiz-adv-x="434" unicode="п"/>
			<glyph d="M191 483Q289 483 339 419T390 243Q390 161 363 104T288 18T180 -10Q135 -10 101 2V-235H63V449Q124 483 191 483ZM187 447Q141 447 101 428V41Q113 35 135 30T183 26Q256 26 303 80T350 242Q350 335 310 391T187 447Z" horiz-adv-x="428" unicode="р"/>
			<glyph d="M242 483Q286 483 322 470V430Q282 447 239 447Q166 447 122 392T78 239Q78 134 123 80T240 26Q268 26 291 32T329 47V9Q291 -10 238 -10Q143 -10 90 57T38 235Q38 315 64 370T137 454T242 483Z" horiz-adv-x="355" unicode="с"/>
			<glyph d="M14 473H336V437H194V0H156V437H14Z" horiz-adv-x="350" unicode="т"/>
			<glyph d="M0 473H41L128 183Q152 104 167 42H170Q183 91 205 157L214 185L308 473H348L113 -235H73L148 -9Z" horiz-adv-x="348" unicode="у"/>
			<glyph d="M248 738H286V484Q384 479 440 416T497 236Q497 118 440 54T286 -14V-235H248V-14Q151 -9 94 54T38 236Q38 353 94 416T248 484ZM248 448Q164 443 121 391T78 236Q78 131 123 79T248 22ZM286 448V22Q457 33 457 236Q457 437 286 448Z" horiz-adv-x="535" unicode="ф"/>
			<glyph d="M10 473H56L169 271L283 473H328L195 240L334 0H286L169 207L52 0H7L143 239Z" horiz-adv-x="337" unicode="х"/>
			<glyph d="M63 473H101V36H321V473H359V36H397V-160H359V0H63Z" horiz-adv-x="422" unicode="ц"/>
			<glyph d="M36 473H74V339Q74 282 99 249T192 216Q218 216 244 220T287 231V473H325V0H287V195Q270 189 242 184T187 180Q106 180 71 221T36 329Z" horiz-adv-x="389" unicode="ч"/>
			<glyph d="M63 473H101V36H277V473H315V36H491V473H529V0H63Z" horiz-adv-x="592" unicode="ш"/>
			<glyph d="M63 473H101V36H277V473H315V36H491V473H529V36H567V-160H529V0H63Z" horiz-adv-x="592" unicode="щ"/>
			<glyph d="M14 473H179V292H263Q341 292 377 255T414 153Q414 84 374 42T255 0H141V437H14ZM179 256V36H253Q374 36 374 151Q374 203 346 229T258 256Z" horiz-adv-x="436" unicode="ъ"/>
			<glyph d="M62 473H100V292H184Q262 292 298 255T335 153Q335 84 295 42T176 0H62ZM100 256V36H174Q295 36 295 151Q295 203 267 229T179 256ZM398 473H436V0H398Z" horiz-adv-x="499" unicode="ы"/>
			<glyph d="M63 473H101V292H185Q263 292 299 255T336 153Q336 84 296 42T177 0H63ZM101 256V36H175Q296 36 296 151Q296 203 268 229T180 256Z" horiz-adv-x="358" unicode="ь"/>
			<glyph d="M130 483Q226 483 271 423T317 251Q317 123 263 56T113 -10Q59 -10 23 3V43Q63 26 116 26Q188 26 229 75T276 222H75V258H277Q274 447 128 447Q100 447 73 439T32 423V461Q46 469 72 476T130 483Z" horiz-adv-x="355" unicode="э"/>
			<glyph d="M349 483Q431 483 476 422T522 238Q522 118 474 54T346 -10Q266 -10 220 47T171 218H101V0H63V472H101V254H171Q175 369 222 426T349 483ZM349 447Q284 447 247 393T211 238Q211 134 246 80T346 26Q410 26 446 80T482 238Q482 339 448 393T349 447Z" horiz-adv-x="560" unicode="ю"/>
			<glyph d="M188 473H301V0H263V192H163L56 0H12L125 199Q81 210 56 244T32 328Q32 392 73 432T188 473ZM189 437Q133 437 101 407T70 329Q70 282 97 255T181 228H263V437Z" horiz-adv-x="364" unicode="я"/>
			<glyph d="M215 483Q295 483 332 428T370 275Q370 253 368 229H79Q78 134 120 80T239 27Q303 27 349 57V19Q329 7 298 -1T233 -10Q140 -10 89 52T38 227Q38 351 84 417T215 483ZM214 447Q153 447 119 400T80 266H330Q330 447 214 447ZM116 705H159L256 561H217Z" horiz-adv-x="402" unicode="ѐ"/>
			<glyph d="M215 483Q295 483 332 428T370 275Q370 253 368 229H79Q78 134 120 80T239 27Q303 27 349 57V19Q329 7 298 -1T233 -10Q140 -10 89 52T38 227Q38 351 84 417T215 483ZM214 447Q153 447 119 400T80 266H330Q330 447 214 447ZM133 634H178V580H133ZM251 634H295V580H251Z" horiz-adv-x="402" unicode="ё"/>
			<glyph d="M63 738H101V629H235V594H101V456Q160 483 222 483Q294 483 332 444T371 329V-88Q371 -161 339 -203T247 -245Q218 -245 198 -239V-202Q204 -205 217 -207T243 -209Q287 -209 310 -177T333 -84V319Q333 380 304 413T217 446Q155 446 101 418V0H63V594H0V629H63Z" horiz-adv-x="432" unicode="ђ"/>
			<glyph d="M63 473H295V437H101V0H63ZM247 704H290L189 560H150Z" horiz-adv-x="305" unicode="ѓ"/>
			<glyph d="M242 483Q286 483 322 470V430Q282 447 239 447Q170 447 126 397T78 258H280V222H78Q82 125 126 75T240 26Q268 26 291 32T329 47V9Q291 -10 238 -10Q143 -10 90 57T38 235Q38 315 64 370T137 454T242 483Z" horiz-adv-x="355" unicode="є"/>
			<glyph d="M176 483Q201 483 224 478T261 468V424Q223 445 174 445Q127 445 102 421T78 358Q78 319 98 297T163 252Q207 229 229 213T264 173T277 111Q277 59 241 23T140 -12Q111 -12 85 -5T41 13V59Q91 26 144 26Q191 26 214 50T238 109Q238 137 228 154T200 184T145 217Q87 248 62 277T38 358Q38 414 76 448T176 483Z" horiz-adv-x="311" unicode="ѕ"/>
			<glyph d="M56 645H108V591H56ZM63 473H101V0H63Z" horiz-adv-x="164" unicode="і"/>
			<glyph d="M63 473H101V0H63ZM1 634H46V580H1ZM119 634H163V580H119Z" horiz-adv-x="164" unicode="ї"/>
			<glyph d="M56 645H108V591H56ZM63 473H101V-88Q101 -161 69 -203T-23 -245Q-52 -245 -72 -239V-202Q-66 -205 -53 -207T-27 -209Q17 -209 40 -177T63 -84Z" horiz-adv-x="164" unicode="ј"/>
			<glyph d="M133 473H331V292H415Q493 292 529 255T566 153Q566 84 526 42T407 0H293V437H168Q157 262 134 164T79 30T5 -7V29Q34 29 58 62T102 193T133 473ZM331 256V36H405Q526 36 526 151Q526 203 498 229T410 256Z" horiz-adv-x="588" unicode="љ"/>
			<glyph d="M321 473H359V292H443Q521 292 557 255T594 153Q594 84 554 42T435 0H321V223H101V0H63V472H101V259H321ZM359 256V36H433Q554 36 554 151Q554 203 526 229T438 256Z" horiz-adv-x="616" unicode="њ"/>
			<glyph d="M63 738H101V629H235V594H101V456Q160 483 222 483Q294 483 332 444T371 329V0H333V319Q333 380 304 413T217 446Q155 446 101 418V0H63V594H0V629H63Z" horiz-adv-x="432" unicode="ћ"/>
			<glyph d="M63 473H101V252H103L304 473H355L149 249L355 0H305L103 247H101V0H63ZM251 705H294L193 561H154Z" horiz-adv-x="357" unicode="ќ"/>
			<glyph d="M63 473H101V192Q101 115 100 77H103L337 473H375V0H337V280Q337 358 338 396H335L101 0H63ZM120 705H163L260 561H221Z" horiz-adv-x="438" unicode="ѝ"/>
			<glyph d="M0 473H41L128 183Q152 104 167 42H170Q183 91 205 157L214 185L308 473H348L113 -235H73L148 -9ZM70 685H103Q107 634 122 608T172 582Q234 582 240 685H274Q267 550 172 550Q76 550 70 685Z" horiz-adv-x="348" unicode="ў"/>
			<glyph d="M63 473H101V36H321V473H359V0H231V-160H193V0H63Z" horiz-adv-x="422" unicode="џ"/>
			<glyph d="M333 848H371V657H107V0H67V695H333Z" horiz-adv-x="381" unicode="Ґ"/>
			<glyph d="M257 628H295V437H101V0H63V473H257Z" horiz-adv-x="305" unicode="ґ"/>
			<glyph d="M67 695H371V657H107V355H254V317H107V0H67V317H-3V355H67Z" horiz-adv-x="381" unicode="Ғ"/>
			<glyph d="M63 473H295V437H101V249H210V213H101V0H63V213H7V249H63Z" horiz-adv-x="311" unicode="ғ"/>
			<glyph d="M17 695H65L286 352H287V695H327V352H328L549 695H597L372 351L577 40H633V-160H593V0H553L328 347H327V0H287V347H286L61 0H11L242 351Z" horiz-adv-x="641" unicode="Җ"/>
			<glyph d="M3 473H49L202 251H203V473H241V251H242L396 473H442L285 248L419 36H464V-160H426V0H396L242 247H241V0H203V247H202L48 0H2L160 248Z" horiz-adv-x="468" unicode="җ"/>
			<glyph d="M67 695H106V352H107L367 695H419L153 351L393 40H452V-160H412V0H371L107 347H106V0H67Z" horiz-adv-x="460" unicode="Қ"/>
			<glyph d="M63 473H101V252H103L304 473H355L149 249L325 36H360V-160H322V0H292V16L103 247H101V0H63Z" horiz-adv-x="356" unicode="қ"/>
			<glyph d="M67 695H107V369H160V545H198V369L406 695H456L230 351L461 0H411L198 331V147H160V331H107V0H67Z" horiz-adv-x="472" unicode="Ҝ"/>
			<glyph d="M63 473H101V266H147V381H182V268L326 473H375L216 249L374 0H325L182 229V114H147V230H101V0H63Z" horiz-adv-x="377" unicode="ҝ"/>
			<glyph d="M67 695H107V381H419V695H459V40H519V-160H479V0H419V342H107V0H67Z" horiz-adv-x="537" unicode="Ң"/>
			<glyph d="M63 473H101V259H321V473H359V36H397V-160H359V0H321V223H101V0H63Z" horiz-adv-x="422" unicode="ң"/>
			<glyph d="M-5 695H40L202 315L368 695H413L221 261V0H182V261Z" horiz-adv-x="404" unicode="Ү"/>
			<glyph d="M0 472H42L135 171L141 151Q169 53 172 43H173Q196 125 211 173L304 472H346L192 0V-235H154V0Z" horiz-adv-x="346" unicode="ү"/>
			<glyph d="M-5 695H40L202 315L368 695H413L238 299H359V261H221V0H182V261H44V299H166Z" horiz-adv-x="404" unicode="Ұ"/>
			<glyph d="M0 472H42L135 171L141 151Q169 53 172 43H173Q196 125 211 173L304 472H346L192 0V-3H266V-38H192V-235H154V-38H80V-3H154V0Z" horiz-adv-x="346" unicode="ұ"/>
			<glyph d="M14 695H61L222 379L384 695H431L249 347L407 40H459V-160H419V0H379L220 314L60 0H13L194 347Z" horiz-adv-x="467" unicode="Ҳ"/>
			<glyph d="M10 473H56L169 271L283 473H328L195 240L313 36H354V-160H316V0H286L169 207L52 0H7L143 239Z" horiz-adv-x="358" unicode="ҳ"/>
			<glyph d="M42 695H82V492Q82 408 113 365T213 318V532H251V317Q321 319 377 342V695H417V0H377V302Q314 280 251 278V134H213V279Q124 284 83 335T42 485Z" horiz-adv-x="484" unicode="Ҹ"/>
			<glyph d="M36 473H74V339Q74 288 93 256T164 218V351H199V216Q225 217 248 221T287 231V473H325V0H287V195Q247 183 199 180V84H164V181Q36 193 36 329Z" horiz-adv-x="384" unicode="ҹ"/>
			<glyph d="M67 695H107V393Q174 417 249 417Q350 417 396 366T442 210V0H402V203Q402 293 366 335T250 378Q206 378 169 370T107 353V0H67Z" horiz-adv-x="484" unicode="Һ"/>
			<glyph d="M64 473H102V278Q119 284 146 288T202 293Q283 293 318 252T353 144V0H315V134Q315 191 289 224T197 257Q171 257 144 252T102 242V0H64Z" horiz-adv-x="389" unicode="һ"/>
			<glyph d="M250 707Q372 707 438 618T505 357Q505 180 441 84T261 -12Q143 -12 90 71T37 308Q37 338 39 362H463Q462 501 407 584T244 667Q189 667 149 654T74 621V666Q110 685 150 696T250 707ZM79 324Q79 178 119 103T262 28Q356 28 406 104T462 324Z" horiz-adv-x="551" unicode="Ә"/>
			<glyph d="M169 483Q262 483 313 420T364 246Q364 122 317 56T187 -10Q107 -10 69 44T32 198Q32 220 34 244H323Q324 339 282 392T163 446Q99 446 53 416V454Q73 466 103 474T169 483ZM72 207Q72 26 188 26Q249 26 283 73T322 207Z" horiz-adv-x="402" unicode="ә"/>
			<glyph d="M297 707Q420 707 484 613T548 347Q548 238 516 157T428 32T297 -12Q176 -12 111 84T46 347Q46 458 77 539T166 664T297 707ZM296 667Q238 667 192 632T119 532T88 373H505Q501 514 445 590T296 667ZM88 334Q90 236 117 167T190 63T296 28Q356 28 402 63T476 168T506 334Z" horiz-adv-x="594" unicode="Ө"/>
			<glyph d="M224 483Q310 483 357 423T405 238Q405 117 355 53T221 -10Q134 -10 86 52T38 238Q38 361 88 422T224 483ZM224 447Q158 447 120 398T78 259H364Q360 350 324 398T224 447ZM78 221Q81 126 118 76T221 26Q285 26 323 75T364 221Z" horiz-adv-x="443" unicode="ө"/>
			<glyph d="M19 695H60L167 180Q183 102 186 72H187Q192 102 211 177L349 695H383L503 176Q522 93 525 67H526Q532 99 549 178L662 695H703L543 -6H508L396 470Q373 567 364 623H362Q345 540 325 465L202 -6H169ZM274 895H318L399 767H362Z" horiz-adv-x="725" unicode="Ẁ"/>
			<glyph d="M-1 473H40L125 127Q137 81 141 57H143Q151 95 167 148L262 473H299L389 129L400 81Q402 74 403 67T406 57H409Q417 99 426 130L525 473H564L427 0H387L304 306Q286 372 279 412H277Q266 360 250 306L160 0H121ZM183 705H226L323 561H284Z" horiz-adv-x="561" unicode="ẁ"/>
			<glyph d="M19 695H60L167 180Q183 102 186 72H187Q192 102 211 177L349 695H383L503 176Q522 93 525 67H526Q532 99 549 178L662 695H703L543 -6H508L396 470Q373 567 364 623H362Q345 540 325 465L202 -6H169ZM414 895H458L370 767H333Z" horiz-adv-x="725" unicode="Ẃ"/>
			<glyph d="M-1 473H40L125 127Q137 81 141 57H143Q151 95 167 148L262 473H299L389 129L400 81Q402 74 403 67T406 57H409Q417 99 426 130L525 473H564L427 0H387L304 306Q286 372 279 412H277Q266 360 250 306L160 0H121ZM339 705H382L281 561H242Z" horiz-adv-x="561" unicode="ẃ"/>
			<glyph d="M19 695H60L167 180Q183 102 186 72H187Q192 102 211 177L349 695H383L503 176Q522 93 525 67H526Q532 99 549 178L662 695H703L543 -6H508L396 470Q373 567 364 623H362Q345 540 325 465L202 -6H169ZM283 825H328V771H283ZM401 825H445V771H401Z" horiz-adv-x="725" unicode="Ẅ"/>
			<glyph d="M-1 473H40L125 127Q137 81 141 57H143Q151 95 167 148L262 473H299L389 129L400 81Q402 74 403 67T406 57H409Q417 99 426 130L525 473H564L427 0H387L304 306Q286 372 279 412H277Q266 360 250 306L160 0H121ZM200 634H245V580H200ZM318 634H362V580H318Z" horiz-adv-x="561" unicode="ẅ"/>
			<glyph d="M254 707Q347 707 391 653T443 521L284 396Q371 372 417 322T464 186Q464 135 443 89T379 16T272 -12Q251 -12 224 -7T181 6V49Q198 40 222 33T272 27Q320 27 354 49T405 108T422 184Q422 239 401 274T341 331T236 370V407L397 537Q391 592 354 630T254 668Q180 668 138 617T97 469V0H56V469Q56 584 108 645T254 707Z" horiz-adv-x="498" unicode="ẞ"/>
			<glyph d="M-5 695H40L202 315L368 695H413L221 261V0H182V261ZM111 895H155L236 767H199Z" horiz-adv-x="404" unicode="Ỳ"/>
			<glyph d="M0 473H41L128 183Q152 104 167 42H170Q183 91 205 157L214 185L308 473H348L113 -235H73L148 -9ZM76 705H119L216 561H177Z" horiz-adv-x="348" unicode="ỳ"/>
			<glyph d="M39 275H357V235H39Z" horiz-adv-x="396" unicode="–"/>
			<glyph d="M39 275H522V235H39Z" horiz-adv-x="561" unicode="—"/>
			<glyph d="M108 716H140L60 432H16Z" horiz-adv-x="158" unicode="‘"/>
			<glyph d="M98 716H142L50 432H18Z" horiz-adv-x="158" unicode="’"/>
			<glyph d="M98 121H142L50 -163H18Z" horiz-adv-x="158" unicode="‚"/>
			<glyph d="M108 716H140L60 432H16ZM226 716H258L178 432H134Z" horiz-adv-x="276" unicode="“"/>
			<glyph d="M100 716H144L52 432H20ZM218 716H262L170 432H138Z" horiz-adv-x="278" unicode="”"/>
			<glyph d="M98 121H142L50 -163H18ZM216 121H260L168 -163H136Z" horiz-adv-x="276" unicode="„"/>
			<glyph d="M148 695H193L191 507L316 510V463L191 467L189 -64H151L150 467L26 463V510L150 507Z" horiz-adv-x="342" unicode="†"/>
			<glyph d="M148 695H193L191 506L316 509V462L191 466L188 316L191 165L316 169V122L191 125L193 -64H148L150 125L26 122V169L150 165L151 316L150 466L26 462V509L150 506Z" horiz-adv-x="342" unicode="‡"/>
			<glyph d="M65 392H197V260H65Z" horiz-adv-x="262" unicode="•"/>
			<glyph d="M223 64H278V0H223ZM390 64H445V0H390ZM56 64H111V0H56Z" horiz-adv-x="501" unicode="…"/>
			<glyph d="M153 707Q210 707 243 661T276 522Q276 433 242 384T153 336Q96 336 63 383T30 522Q30 614 63 660T153 707ZM464 695H503L124 0H86ZM153 672Q112 672 88 633T65 522Q65 449 88 409T153 370Q193 370 217 409T241 522Q241 592 217 632T153 672ZM436 359Q493 359 526 313T559 174Q559 85 525 36T436 -12Q379 -12 346 35T313 174Q313 266 346 312T436 359ZM727 359Q784 359 817 313T850 174Q850 85 816 36T727 -12Q670 -12 637 35T604 174Q604 266 637 312T727 359ZM436 324Q395 324 371 285T348 174Q348 101 371 61T436 22Q476 22 500 61T524 174Q524 244 500 284T436 324ZM727 324Q686 324 662 285T639 174Q639 101 662 61T727 22Q767 22 791 61T815 174Q815 244 791 284T727 324Z" horiz-adv-x="880" unicode="‰"/>
			<glyph d="M122 413H165L72 234L165 55H122L30 234Z" horiz-adv-x="195" unicode="‹"/>
			<glyph d="M30 413H73L165 234L73 55H30L123 234Z" horiz-adv-x="195" unicode="›"/>
			<glyph d="M211 695H252L-112 0H-153Z" horiz-adv-x="99" unicode="⁄"/>
			<glyph d="M151 795Q214 795 243 739T273 559Q273 447 242 383T149 320Q88 320 57 377T26 560Q26 795 151 795ZM151 760Q110 760 87 713T64 572Q64 453 86 404T150 355Q193 355 214 407T235 558Q235 663 215 711T151 760Z" horiz-adv-x="300" unicode="⁰"/>
			<glyph d="M182 785H221V467H276V436H221V330H186V436H15V466ZM184 723Q178 707 162 677L53 467H186V723Z" horiz-adv-x="300" unicode="⁴"/>
			<glyph d="M61 785H241V752H95L86 595Q99 601 129 601Q190 601 222 565T255 467Q255 399 217 358T114 318Q91 318 71 322T41 332V370Q52 363 72 357T113 352Q162 352 188 382T215 464Q215 519 188 544T115 569Q98 569 80 565T50 557Z" horiz-adv-x="300" unicode="⁵"/>
			<glyph d="M157 785H199L107 591H109Q118 597 133 602T163 608Q214 608 241 571T269 466Q269 402 238 360T148 318Q96 318 65 355T34 460Q34 498 41 526T66 590ZM156 576Q116 576 94 546T73 464Q73 408 93 379T150 351Q187 351 208 382T230 465Q230 576 156 576Z" horiz-adv-x="300" unicode="⁶"/>
			<glyph d="M25 785H267V756L112 330H72L226 752H25Z" horiz-adv-x="300" unicode="⁷"/>
			<glyph d="M150 796Q200 796 228 765T256 676Q256 596 202 567V565Q235 551 251 523T267 450Q267 386 235 353T148 320Q93 320 62 352T32 446Q32 541 96 564V566Q42 592 42 674Q42 731 71 763T150 796ZM151 763Q119 763 99 739T80 673Q80 629 98 605T148 582Q181 582 200 605T219 673Q219 715 201 739T151 763ZM148 547Q112 547 91 523T70 449Q70 402 91 377T149 353Q186 353 207 377T228 449Q228 498 206 522T148 547Z" horiz-adv-x="300" unicode="⁸"/>
			<glyph d="M151 797Q203 797 234 760T266 657Q266 619 257 588T231 521L142 330H100L191 523L189 524Q168 508 139 508Q88 508 59 544T30 650Q30 714 61 755T151 797ZM149 764Q112 764 91 733T70 651Q70 596 90 568T147 541Q186 541 206 571T226 654Q226 709 205 736T149 764Z" horiz-adv-x="300" unicode="⁹"/>
			<glyph d="M151 365Q214 365 243 309T273 129Q273 17 242 -46T149 -110Q88 -110 57 -53T26 130Q26 365 151 365ZM151 330Q110 330 87 283T64 142Q64 23 86 -26T150 -75Q193 -75 214 -23T235 128Q235 233 215 281T151 330Z" horiz-adv-x="300" unicode="₀"/>
			<glyph d="M160 367H181V-100H145V319L53 257V298Z" horiz-adv-x="300" unicode="₁"/>
			<glyph d="M137 367Q192 367 224 336T256 249Q256 205 235 162T163 53L77 -64H259V-100H35V-63L139 76Q182 135 199 171T217 244Q217 284 196 308T131 332Q107 332 85 325T47 309V346Q91 367 137 367Z" horiz-adv-x="300" unicode="₂"/>
			<glyph d="M118 365Q180 365 210 332T241 247Q241 204 218 173T158 132V130Q199 121 223 94T248 18Q248 -39 211 -74T106 -110Q62 -110 32 -96V-59Q45 -66 65 -71T104 -76Q153 -76 180 -52T208 17Q208 64 180 87T90 111H70V147H87Q143 147 172 172T202 243Q202 283 180 306T110 330Q89 330 70 326T40 317V352Q77 365 118 365Z" horiz-adv-x="300" unicode="₃"/>
			<glyph d="M182 355H221V37H276V6H221V-100H186V6H15V36ZM184 293Q178 277 162 247L53 37H186V293Z" horiz-adv-x="300" unicode="₄"/>
			<glyph d="M61 355H241V322H95L86 165Q99 171 129 171Q190 171 222 135T255 37Q255 -31 217 -71T114 -112Q91 -112 71 -108T41 -98V-60Q52 -67 72 -72T113 -78Q162 -78 188 -47T215 34Q215 89 188 114T115 139Q98 139 80 135T50 127Z" horiz-adv-x="300" unicode="₅"/>
			<glyph d="M157 355H199L107 161H109Q118 167 133 172T163 178Q214 178 241 141T269 36Q269 -28 238 -70T148 -112Q96 -112 65 -74T34 30Q34 68 41 96T66 160ZM156 146Q116 146 94 116T73 34Q73 -22 93 -50T150 -79Q187 -79 208 -48T230 35Q230 146 156 146Z" horiz-adv-x="300" unicode="₆"/>
			<glyph d="M25 355H267V326L112 -100H72L226 322H25Z" horiz-adv-x="300" unicode="₇"/>
			<glyph d="M150 366Q200 366 228 335T256 246Q256 166 202 137V135Q235 121 251 93T267 20Q267 -44 235 -77T148 -110Q93 -110 62 -78T32 16Q32 111 96 134V136Q42 162 42 244Q42 301 71 333T150 366ZM151 333Q119 333 99 309T80 243Q80 199 98 175T148 152Q181 152 200 175T219 243Q219 285 201 309T151 333ZM148 117Q112 117 91 93T70 19Q70 -28 91 -52T149 -77Q186 -77 207 -52T228 19Q228 68 206 92T148 117Z" horiz-adv-x="300" unicode="₈"/>
			<glyph d="M151 367Q203 367 234 330T266 227Q266 189 257 158T231 91L142 -100H100L191 93L189 94Q168 78 139 78Q88 78 59 114T30 220Q30 284 61 325T151 367ZM149 334Q112 334 91 303T70 221Q70 166 90 138T147 111Q186 111 206 141T226 224Q226 279 205 306T149 334Z" horiz-adv-x="300" unicode="₉"/>
			<glyph d="M308 709Q347 709 383 699V658Q353 670 307 670Q226 670 184 615T132 445H329V408H127Q126 391 126 354Q126 300 128 276H329V238H133Q140 125 183 75T305 25Q345 25 385 39V0Q345 -14 300 -14Q192 -14 146 50T91 238H24V276H87Q85 324 85 353Q85 391 86 408H24V445H90Q103 584 158 646T308 709Z" unicode="€"/>
			<glyph d="M54 695H378V657H215Q256 639 280 599T307 503H378V465H306Q300 385 253 335T145 271L341 0H287L97 265H54V303H91Q163 303 210 347T263 465H54V503H263Q259 578 211 617T87 657H54Z" unicode="₹"/>
			<glyph d="M80 695H119V467L246 581V536L119 422V277L246 391V346L119 232V39Q147 32 187 32Q264 32 309 70T373 169L409 158Q385 83 330 38T183 -6Q126 -6 80 7V197L6 131V176L80 242V387L6 321V366L80 432Z" unicode="₺"/>
			<glyph d="M77 695H171Q284 695 335 645T387 517Q387 427 330 371T167 315H116V193H305V158H116V0H77V158H1V193H77ZM116 655V355H166Q253 355 298 396T343 514Q343 580 300 617T170 655Z" unicode="₽"/>
			<glyph d="M217 712Q253 712 276 681T299 601Q299 526 266 455T163 280V107Q163 64 178 45T215 26Q237 26 252 39T286 78L314 59Q292 24 269 5T210 -13Q171 -13 148 16T126 101V237L79 168L50 188L126 296V556Q126 636 150 674T217 712ZM213 669Q163 669 163 552V340Q259 495 259 596Q259 631 246 650T213 669Z" horiz-adv-x="380" unicode="ℓ"/>
			<glyph d="M682 705Q760 705 803 650T846 483Q846 373 801 315T679 258Q600 258 556 314T513 483Q513 594 559 649T682 705ZM67 695H108L401 87H404Q403 126 403 216V695H441V0H402L105 610H103Q104 548 104 420V0H67ZM682 672Q619 672 584 623T549 483Q549 389 583 340T679 291Q740 291 775 340T810 483Q810 574 777 623T682 672ZM526 175H836V139H526Z" horiz-adv-x="876" unicode="№"/>
			<glyph d="M9 695H216V661H128V330H96V661H9ZM250 695H289L385 405H387L487 695H524V330H494V626H492L398 343H375L282 626H280V330H250Z" horiz-adv-x="560" unicode="™"/>
			<glyph d="M292 707Q407 707 471 620T535 384Q535 254 491 180T378 74V37H536V0H341V97Q407 120 449 189T492 383Q492 515 438 591T290 667Q232 667 186 634T114 537T88 383Q88 260 130 189T240 97V0H45V37H203V73Q46 142 46 384Q46 488 79 561T168 670T292 707Z" horiz-adv-x="581" unicode="Ω"/>
			<glyph d="M442 707Q563 707 652 656T789 521T836 336H208Q202 336 198 332T194 323V152Q194 136 197 126T210 107Q304 13 442 13Q516 13 581 44T688 126H758Q718 69 637 28T442 -12Q325 -12 235 34T97 161T48 346Q48 448 96 530T233 659T442 707ZM442 680Q304 680 210 584Q201 576 197 567T194 542V371Q194 365 198 361T208 358H675Q681 358 685 361T689 371V542Q689 558 685 567T673 584Q577 680 442 680Z" horiz-adv-x="884" unicode="℮"/>
			<glyph d="M200 710Q277 710 317 630T357 430Q357 341 339 238T278 60T164 -15Q106 -15 70 41T34 184Q34 259 56 321T117 418T202 453Q238 453 267 429T314 369Q315 369 316 394T317 436Q317 537 286 603T198 670Q158 670 118 632L99 665Q121 688 145 699T200 710ZM202 413Q164 413 134 381T89 298T73 189Q73 116 97 70T167 24Q225 24 261 102T309 309Q295 352 266 382T202 413Z" horiz-adv-x="394" unicode="∂"/>
			<glyph d="M206 697H255L457 0H6ZM229 636L62 41H402L231 636Z" horiz-adv-x="463" unicode="∆"/>
			<glyph d="M57 734H460V-225H418V695H98V-225H57Z" horiz-adv-x="518" unicode="∏"/>
			<glyph d="M31 734H414V695H87L307 259L72 -186H429V-225H17V-201L260 258L31 707Z" horiz-adv-x="447" unicode="∑"/>
			<glyph d="M25 321H385V285H25Z" unicode="−"/>
			<glyph d="M227 750H264L17 -49H-19Z" horiz-adv-x="247" unicode="∕"/>
			<glyph d="M56 348H111V284H56Z" horiz-adv-x="167" unicode="∙"/>
			<glyph d="M330 733H368L194 -115H159L64 250L18 231L6 260L88 294L175 -43Z" horiz-adv-x="367" unicode="√"/>
			<glyph d="M96 401Q128 401 154 382T206 332Q232 364 256 382T314 401Q355 401 380 374T405 303Q405 260 381 231T316 202Q259 202 206 269Q151 202 98 202Q56 202 31 230T7 300Q7 345 30 373T96 401ZM96 368Q71 368 57 348T43 300Q43 272 58 254T98 236Q120 236 143 255T186 301Q166 329 141 348T96 368ZM317 368Q270 368 226 301Q271 236 317 236Q342 236 356 255T370 302Q370 330 355 349T317 368Z" unicode="∞"/>
			<glyph d="M285 767Q308 767 327 759T350 736Q347 711 326 699Q313 700 298 713Q285 724 276 724Q244 724 228 690T213 604L214 541V53Q214 -38 208 -91T173 -181T84 -218Q64 -218 46 -210T23 -189Q24 -178 30 -168T46 -153Q57 -155 64 -160T72 -166Q85 -177 95 -177Q127 -177 141 -136T156 -71T157 0V484L156 565Q156 660 183 713T285 767Z" horiz-adv-x="376" unicode="∫"/>
			<glyph d="M124 263Q170 263 213 235Q234 221 249 215T286 210Q330 210 360 261L391 240Q351 173 283 173Q261 173 241 180T197 203Q172 217 157 222T121 227Q97 227 79 214T46 177L18 199Q41 231 66 247T124 263ZM124 423Q170 423 213 395Q234 381 249 375T286 370Q330 370 360 421L391 400Q351 333 283 333Q261 333 241 340T197 363Q172 377 157 382T121 387Q97 387 79 374T46 337L18 359Q41 391 66 407T124 423Z" unicode="≈"/>
			<glyph d="M303 548H346L276 404H385V368H259L194 234H385V198H176L107 54H64L133 198H25V234H151L216 368H25V404H233Z" unicode="≠"/>
			<glyph d="M369 496V456L83 321V319L369 184V144L42 299V340ZM25 36H385V0H25Z" unicode="≤"/>
			<glyph d="M41 496L368 340V299L41 144V184L327 319V321L41 456ZM25 36H385V0H25Z" unicode="≥"/>
			<glyph d="M189 714H225L363 351L225 -17H189L53 350ZM208 653L99 351L208 43L317 351Z" horiz-adv-x="416" unicode="◊"/>
		</font>
</defs>
</svg>
