<?xml version="1.0" encoding="UTF-8"?>
<svg height="100%" width="100%" xmlns="http://www.w3.org/2000/svg">
	<defs>
		<font horiz-adv-x="547" id="web">
			<font-face alphabetic="0" ascent="993" descent="-267" font-family="" panose-1="2 11 5 3 2 2 4 9 2 4"/>
			<missing-glyph d="M59 700H446V0H59ZM109 650V50H396V650Z" horiz-adv-x="506"/>
			<glyph d="" horiz-adv-x="234" unicode=" "/>
			<glyph d="M173 695H243L150 196H89ZM53 90H143L128 0H38Z" horiz-adv-x="249" unicode="!"/>
			<glyph d="M147 714H212L155 425H102ZM298 714H363L306 425H253Z" horiz-adv-x="342" unicode="&quot;"/>
			<glyph d="M281 695H332L281 488H399L450 695H501L450 488H552L548 432H436L394 262H501L496 206H380L329 0H278L329 206H211L159 0H108L160 206H41L45 262H174L216 432H93L97 488H230ZM267 432L225 262H344L385 432Z" horiz-adv-x="525" unicode="#"/>
			<glyph d="M363 788H413L394 682Q476 679 550 654L539 587Q471 613 383 618L341 374Q442 339 475 301T509 204Q509 123 450 69T277 11L258 -96H208L227 11Q170 13 121 25T44 53L56 122Q87 104 135 90T238 74L282 324Q186 356 151 394T117 494Q117 574 175 626T345 683ZM333 618Q260 614 223 581T187 497Q187 456 212 432T293 389ZM329 308L288 76Q360 81 399 111T439 198Q439 240 414 263T329 308Z" horiz-adv-x="576" unicode="$"/>
			<glyph d="M262 707Q338 707 376 662T415 551Q415 463 367 399T234 336Q165 336 122 377T80 500Q80 590 130 648T262 707ZM725 695H799L169 0H95ZM259 656Q203 656 169 613T136 501Q136 446 163 416T237 387Q299 387 328 435T358 545Q358 599 330 627T259 656ZM661 359Q737 359 775 315T813 203Q813 113 766 50T633 -12Q563 -12 520 29T478 151Q478 243 528 301T661 359ZM657 308Q601 308 568 265T535 153Q535 97 562 68T635 39Q698 39 727 87T756 197Q756 251 729 279T657 308Z" horiz-adv-x="853" unicode="%"/>
			<glyph d="M383 714Q460 714 501 671T543 568Q543 497 494 453T349 373L472 191Q502 225 546 284T604 364H682Q662 337 604 259T509 140L608 0H525L459 96Q404 40 349 12T228 -15Q134 -15 82 36T31 167Q31 255 86 307T254 399Q229 436 215 471T202 549Q202 622 250 668T383 714ZM375 656Q326 656 297 625T269 547Q269 513 280 484T315 421Q397 449 435 480T474 561Q474 602 448 629T375 656ZM285 350Q187 317 144 275T101 171Q101 117 136 82T234 47Q333 47 424 147Z" horiz-adv-x="677" unicode="&amp;"/>
			<glyph d="M147 714H212L155 425H102Z" horiz-adv-x="191" unicode="'"/>
			<glyph d="M300 770H377Q258 639 189 500T120 204Q120 108 145 12T210 -160H142Q104 -90 79 9T55 201Q55 363 119 503T300 770Z" horiz-adv-x="310" unicode="("/>
			<glyph d="M124 770H192Q231 700 255 601T280 409Q280 104 34 -160H-43Q76 -30 145 110T214 407Q214 503 189 598T124 770Z" horiz-adv-x="310" unicode=")"/>
			<glyph d="M233 714H289L281 556L429 609L447 556L295 515L395 389L348 357L260 490L174 355L124 389L226 515L72 556L90 613L240 556Z" horiz-adv-x="407" unicode="*"/>
			<glyph d="M246 539H310V335H514V271H310V68H246V271H43V335H246Z" horiz-adv-x="556" unicode="+"/>
			<glyph d="M76 90H155L3 -163H-62Z" horiz-adv-x="237" unicode=","/>
			<glyph d="M56 292H362L351 227H45Z" horiz-adv-x="399" unicode="-"/>
			<glyph d="M47 90H136L121 0H32Z" horiz-adv-x="237" unicode="."/>
			<glyph d="M432 750H495L12 -49H-50Z" horiz-adv-x="404" unicode="/"/>
			<glyph d="M351 707Q451 707 502 644T554 465Q554 363 528 254T437 67T257 -12Q157 -12 103 55T50 243Q50 345 77 451T172 632T351 707ZM346 642Q267 642 217 576T145 418T123 241Q123 147 160 100T261 54Q343 54 392 124T460 288T480 463Q480 551 445 596T346 642Z" horiz-adv-x="565" unicode="0"/>
			<glyph d="M381 713H423L298 0H227L337 623L139 531L152 609Z" horiz-adv-x="557" unicode="1"/>
			<glyph d="M337 707Q432 707 481 661T530 532Q530 461 493 401T318 231L117 69H466L455 0H12L25 74L265 268Q391 372 423 422T456 523Q456 579 422 610T321 641Q232 641 129 574L143 654Q237 707 337 707Z" horiz-adv-x="557" unicode="2"/>
			<glyph d="M320 707Q420 707 469 659T519 539Q519 462 473 411T348 347V345Q404 333 439 295T475 194Q475 104 409 46T208 -12Q152 -12 99 0T18 28L30 97Q57 80 107 66T209 53Q307 53 352 91T398 192Q398 256 349 286T217 316H150L162 384H240Q338 384 390 421T442 527Q442 580 406 611T305 642Q214 642 134 601L147 674Q179 688 224 697T320 707Z" horiz-adv-x="563" unicode="3"/>
			<glyph d="M431 695H500L418 224H528L516 162H406L378 0H311L339 162H1L13 229ZM412 592Q390 560 355 522L90 224H351L415 592Z" horiz-adv-x="557" unicode="4"/>
			<glyph d="M187 695H545L534 630H240L187 414Q229 424 277 424Q378 424 434 373T491 233Q491 119 417 53T220 -12Q159 -12 111 1T32 32L44 102Q74 83 120 68T223 53Q318 53 366 101T415 226Q415 289 373 325T248 362Q182 362 101 343Z" horiz-adv-x="562" unicode="5"/>
			<glyph d="M372 695H461L223 411L224 409Q242 419 267 424T317 429Q412 429 464 376T517 235Q517 130 446 59T260 -12Q163 -12 105 44T48 191Q48 251 69 301T136 407ZM294 369Q210 369 165 320T121 193Q121 131 160 92T268 53Q347 53 394 103T442 230Q442 291 404 330T294 369Z" horiz-adv-x="565" unicode="6"/>
			<glyph d="M109 695H587L578 642L159 0H77L492 630H98Z" horiz-adv-x="557" unicode="7"/>
			<glyph d="M338 707Q437 707 487 658T537 534Q537 465 501 419T397 354V351Q447 331 475 291T504 191Q504 101 440 44T261 -12Q153 -12 95 39T37 177Q37 252 80 301T200 367V370Q160 388 137 425T114 513Q114 597 173 652T338 707ZM331 644Q263 644 225 606T187 510Q187 457 221 425T318 393Q382 393 422 427T463 526Q463 581 427 612T331 644ZM276 323Q196 323 153 283T111 183Q111 126 150 88T267 51Q348 51 389 91T430 187Q430 252 390 287T276 323Z" horiz-adv-x="561" unicode="8"/>
			<glyph d="M343 707Q440 707 498 650T556 504Q556 444 534 393T466 286L232 0H142L381 285L380 286Q345 267 287 267Q192 267 139 320T87 460Q87 565 157 636T343 707ZM335 642Q256 642 208 591T161 465Q161 404 199 365T310 326Q393 326 437 374T482 502Q482 564 443 603T335 642Z" horiz-adv-x="565" unicode="9"/>
			<glyph d="M47 90H136L121 0H32ZM116 477H205L190 387H101Z" horiz-adv-x="237" unicode=":"/>
			<glyph d="M76 90H155L3 -163H-62ZM116 477H205L190 387H101Z" horiz-adv-x="237" unicode=";"/>
			<glyph d="M514 545V475L121 284L514 93V23L43 253V316Z" horiz-adv-x="556" unicode="&lt;"/>
			<glyph d="M43 441H514V377H43ZM43 229H514V165H43Z" horiz-adv-x="556" unicode="="/>
			<glyph d="M43 545L514 316V253L43 23V93L435 284L43 475Z" horiz-adv-x="556" unicode="&gt;"/>
			<glyph d="M283 707Q375 707 421 660T468 541Q468 456 412 391T239 273L225 196H160L182 312Q293 359 344 411T396 535Q396 584 363 614T268 645Q226 645 193 635T116 607L128 673Q206 707 283 707ZM129 90H219L204 0H114Z" horiz-adv-x="454" unicode="?"/>
			<glyph d="M462 715Q637 715 735 625T833 376Q833 267 769 195T631 124Q596 124 569 135T532 164Q478 126 407 126Q330 126 283 171T237 298Q237 402 299 470T477 539Q524 539 564 529T633 504L587 242Q585 228 585 224Q585 180 638 180Q689 180 730 235T772 378Q772 512 689 585T461 659Q312 659 215 562T119 319Q119 175 207 88T441 2Q568 2 658 50V-11Q560 -54 439 -54Q264 -54 160 47T57 319Q57 491 172 603T462 715ZM472 484Q391 484 344 435T297 304Q297 246 330 213T420 181Q477 181 524 214L568 462Q524 484 472 484Z" horiz-adv-x="858" unicode="@"/>
			<glyph d="M379 695H446L619 0H544L492 210H165L39 0H-43ZM397 603L202 275H477L399 603Z" horiz-adv-x="660" unicode="A"/>
			<glyph d="M162 695H380Q493 695 545 650T598 532Q598 465 556 419T439 359V357Q498 347 533 309T569 209Q569 103 490 51T274 0H40ZM223 631L182 392H330Q409 392 463 423T517 523Q517 631 363 631ZM170 327L124 66H277Q377 66 434 97T491 210Q491 265 449 296T324 327Z" horiz-adv-x="619" unicode="B"/>
			<glyph d="M451 707Q583 707 680 661L667 588Q572 637 451 637Q314 637 231 549T149 314Q149 194 217 126T401 58Q463 58 510 71T606 109L594 31Q497 -12 385 -12Q240 -12 156 75T72 312Q72 489 175 598T451 707Z" horiz-adv-x="667" unicode="C"/>
			<glyph d="M162 695H353Q516 695 606 617T696 392Q696 217 590 108T293 0H40ZM223 627L124 68H297Q450 68 533 154T617 390Q617 510 543 568T348 627Z" horiz-adv-x="727" unicode="D"/>
			<glyph d="M162 695H587L575 627H222L180 387H501L489 319H168L123 68H493L481 0H40Z" horiz-adv-x="562" unicode="E"/>
			<glyph d="M162 695H589L576 627H222L176 364H513L501 297H164L112 0H40Z" horiz-adv-x="530" unicode="F"/>
			<glyph d="M459 707Q535 707 593 693T688 661L675 590Q576 638 454 638Q315 638 232 549T149 312Q149 192 216 124T397 56Q469 56 541 82L579 297H390L402 362H661L603 35Q505 -12 385 -12Q237 -12 154 75T72 309Q72 487 176 597T459 707Z" horiz-adv-x="705" unicode="G"/>
			<glyph d="M162 695H234L180 392H591L645 695H716L594 0H523L579 325H168L112 0H40Z" horiz-adv-x="718" unicode="H"/>
			<glyph d="M162 695H234L112 0H40Z" horiz-adv-x="235" unicode="I"/>
			<glyph d="M422 695H494L415 247Q393 119 327 53T136 -12Q86 -12 44 -1T-25 24L-15 93Q9 79 50 67T137 55Q231 55 279 106T344 253Z" horiz-adv-x="491" unicode="J"/>
			<glyph d="M162 695H234L174 354H175L565 695H670L262 346L548 0H454L174 347H173L112 0H40Z" horiz-adv-x="599" unicode="K"/>
			<glyph d="M162 695H234L123 67H488L477 0H40Z" horiz-adv-x="525" unicode="L"/>
			<glyph d="M162 695H236L408 127H410L783 695H864L742 0H675L773 561H771L422 28H369L208 561H206L107 0H40Z" horiz-adv-x="865" unicode="M"/>
			<glyph d="M162 695H213L573 127H577Q585 184 597 249L675 695H745L623 0H571L209 566H207Q192 467 180 403L110 0H40Z" horiz-adv-x="746" unicode="N"/>
			<glyph d="M452 707Q601 707 685 622T769 394Q769 285 726 192T597 44T386 -12Q245 -12 158 73T71 308Q71 417 113 507T242 652T452 707ZM447 637Q307 637 227 546T147 314Q147 193 214 125T393 58Q532 58 612 151T693 386Q693 503 628 570T447 637Z" horiz-adv-x="800" unicode="O"/>
			<glyph d="M162 695H361Q481 695 543 641T605 496Q605 382 528 313T307 245H154L112 0H40ZM222 628L167 313H307Q421 313 473 362T526 487Q526 553 485 590T356 628Z" horiz-adv-x="597" unicode="P"/>
			<glyph d="M452 707Q601 707 685 622T769 394Q769 288 729 197T611 53L695 -83L638 -120L551 20Q479 -12 386 -12Q245 -12 158 73T71 308Q71 417 113 507T242 652T452 707ZM447 637Q307 637 227 546T147 314Q147 193 214 125T393 58Q458 58 513 80L432 210L489 248L572 114Q632 158 662 230T693 386Q693 503 628 570T447 637Z" horiz-adv-x="801" unicode="Q"/>
			<glyph d="M162 695H381Q493 695 552 647T611 511Q611 418 554 359T396 286L556 0H471L321 276H160L112 0H40ZM222 629L172 343H340Q422 343 478 382T534 505Q534 563 494 596T370 629Z" horiz-adv-x="620" unicode="R"/>
			<glyph d="M362 707Q424 707 477 697T562 675L549 604Q462 638 357 638Q267 638 222 602T177 508Q177 460 210 433T339 375T475 303T515 195Q515 104 447 46T244 -12Q174 -12 115 2T22 34L33 107Q69 86 125 71T245 56Q336 56 387 89T438 189Q438 237 406 264T276 323T140 395T101 504Q101 596 171 651T362 707Z" horiz-adv-x="572" unicode="S"/>
			<glyph d="M85 695H624L611 628H378L268 0H197L306 628H73Z" unicode="T"/>
			<glyph d="M158 695H229L161 305Q149 240 149 194Q149 56 339 56Q430 56 519 82L628 695H699L581 30Q521 11 462 0T331 -12Q76 -12 76 184Q76 212 79 237T92 318Z" horiz-adv-x="700" unicode="U"/>
			<glyph d="M86 695H159L286 93H288L638 695H720L309 -5H239Z" horiz-adv-x="645" unicode="V"/>
			<glyph d="M100 695H171L228 212Q235 156 237 109H239Q267 166 294 217L549 695H606L677 191Q685 127 686 103H688Q704 138 740 212L980 695H1059L704 -5H638L577 428L570 481Q563 535 558 582H556Q532 531 476 426L249 -5H188Z" horiz-adv-x="997" unicode="W"/>
			<glyph d="M90 695H174L330 397L591 695H686L370 340L561 0H477L315 290L60 0H-35L276 351Z" horiz-adv-x="612" unicode="X"/>
			<glyph d="M64 695H142L289 332L570 695H658L318 260L272 0H201L246 259Z" horiz-adv-x="560" unicode="Y"/>
			<glyph d="M133 695H668L658 640L101 67H571L560 0H-14L-5 56L548 628H120Z" horiz-adv-x="625" unicode="Z"/>
			<glyph d="M149 770H344L334 714H201L57 -104H190L180 -160H-15Z" horiz-adv-x="297" unicode="["/>
			<glyph d="M68 750H129L330 -49H269Z" horiz-adv-x="360" unicode="\"/>
			<glyph d="M141 770H336L172 -160H-23L-13 -104H120L264 714H131Z" horiz-adv-x="297" unicode="]"/>
			<glyph d="M249 706H306L537 300H464L279 628H277L92 300H19Z" horiz-adv-x="556" unicode="^"/>
			<glyph d="M-79 -143H445L438 -180H-86Z" horiz-adv-x="500" unicode="_"/>
			<glyph d="M94 711H165L251 559H192Z" horiz-adv-x="204" unicode="`"/>
			<glyph d="M284 489Q365 489 409 451T453 341Q453 307 443 249L403 22Q306 -13 213 -13Q118 -13 74 26T30 131Q30 207 85 247T250 288Q292 288 333 282T379 276Q386 318 386 330Q386 375 358 400T270 426Q227 426 189 417T113 393L125 459Q156 471 197 480T284 489ZM247 233Q99 233 99 136Q99 92 130 69T222 47Q254 47 281 52T344 66L371 223L328 229Q293 233 247 233Z" horiz-adv-x="510" unicode="a"/>
			<glyph d="M163 738H232L182 456Q242 489 316 489Q415 489 469 432T523 275Q523 191 486 122T386 20T233 -14Q173 -14 121 0T37 32ZM300 424Q229 424 169 388L114 78Q135 67 167 59T236 51Q339 51 394 114T450 271Q450 345 410 384T300 424Z" horiz-adv-x="563" unicode="b"/>
			<glyph d="M325 489Q408 489 468 458L456 390Q399 425 317 425Q227 425 171 366T115 213Q115 135 161 92T274 50Q350 50 414 81L403 13Q341 -14 260 -14Q165 -14 103 46T42 211Q42 337 122 413T325 489Z" horiz-adv-x="473" unicode="c"/>
			<glyph d="M511 738H580L453 28Q362 -14 273 -14Q160 -14 100 43T41 204Q41 323 117 406T331 489Q368 489 403 482T463 466ZM329 424Q228 424 171 366T114 207Q114 132 156 91T280 51Q309 51 340 57T393 73L450 397Q429 408 397 416T329 424Z" horiz-adv-x="565" unicode="d"/>
			<glyph d="M299 489Q388 489 440 442T492 312Q492 286 487 261T477 220H118Q118 213 117 198Q117 131 157 90T277 49Q355 49 431 86L419 17Q384 2 348 -6T265 -14Q155 -14 99 46T43 209Q43 332 113 410T299 489ZM296 429Q228 429 183 386T125 275H417Q422 292 422 312Q422 366 390 397T296 429Z" horiz-adv-x="516" unicode="e"/>
			<glyph d="M360 746Q400 746 441 735L431 675Q399 685 356 685Q301 685 269 653T227 560L212 477H361L351 416H202L129 0H60L133 416H57L68 477H143L159 565Q191 746 360 746Z" horiz-adv-x="305" unicode="f"/>
			<glyph d="M332 489Q390 489 442 476T527 444L447 -6Q425 -130 361 -188T174 -247Q80 -247 -4 -213L7 -145Q38 -159 84 -171T176 -183Q270 -183 316 -139T378 -9L383 23Q354 7 322 -3T248 -13Q150 -13 95 43T40 201Q40 285 77 353T178 455T332 489ZM329 424Q228 424 170 364T113 203Q113 131 153 91T263 51Q331 51 394 88L449 397Q428 408 396 416T329 424Z" horiz-adv-x="564" unicode="g"/>
			<glyph d="M162 738H230L180 455Q218 471 254 480T333 489Q407 489 449 452T492 350Q492 319 479 248L436 0H367L410 246Q420 302 420 334Q420 378 391 401T310 425Q241 425 169 390L100 0H32Z" unicode="h"/>
			<glyph d="M145 671H225L210 591H130ZM115 477H184L101 0H32Z" horiz-adv-x="216" unicode="i"/>
			<glyph d="M145 671H225L211 591H131ZM116 477H185L92 -53Q58 -244 -102 -244Q-138 -244 -164 -237L-154 -174Q-133 -181 -105 -181Q-51 -181 -19 -145T25 -41Z" horiz-adv-x="216" unicode="j"/>
			<glyph d="M162 738H230L145 257H147L410 477H510L232 248L422 0H334L146 251H144L100 0H32Z" horiz-adv-x="483" unicode="k"/>
			<glyph d="M162 738H230L100 0H32Z" horiz-adv-x="216" unicode="l"/>
			<glyph d="M306 489Q358 489 394 478T448 447Q490 466 531 477T625 489Q705 489 746 458T787 362Q787 342 782 314L727 0H659L711 303Q715 322 715 342Q715 383 690 404T608 425Q571 425 534 415T470 391Q473 381 473 359Q473 335 469 310L414 0H346L397 295Q402 323 402 342Q402 385 376 405T291 425Q240 425 173 409L101 0H33L113 460Q218 489 306 489Z" horiz-adv-x="839" unicode="m"/>
			<glyph d="M310 489Q405 489 448 453T492 349Q492 322 481 256L436 0H367L412 257L417 288Q421 311 421 331Q421 380 391 402T303 425Q240 425 173 407L101 0H32L114 461Q228 489 310 489Z" unicode="n"/>
			<glyph d="M309 489Q415 489 473 427T531 270Q531 144 463 65T266 -14Q167 -14 105 45T43 214Q43 336 114 412T309 489ZM304 424Q217 424 166 367T115 216Q115 138 157 94T271 51Q361 51 409 111T458 263Q458 338 416 381T304 424Z" horiz-adv-x="573" unicode="o"/>
			<glyph d="M291 489Q405 489 464 431T523 272Q523 153 446 69T234 -14Q196 -14 161 -7T102 9L55 -259H-14L111 447Q204 489 291 489ZM285 424Q224 424 172 402L114 78Q136 67 168 59T236 51Q337 51 393 109T450 270Q450 344 407 384T285 424Z" horiz-adv-x="563" unicode="p"/>
			<glyph d="M331 489Q391 489 441 475T525 443L400 -259H331L381 19Q323 -14 249 -14Q150 -14 95 43T40 200Q40 284 77 352T177 455T331 489ZM327 424Q227 424 169 364T112 203Q112 130 152 90T261 51Q332 51 393 86L448 397Q427 408 395 416T327 424Z" horiz-adv-x="563" unicode="q"/>
			<glyph d="M288 489Q314 489 341 485T384 478L373 416Q328 425 284 425Q217 425 174 407L101 0H32L113 458Q195 489 288 489Z" horiz-adv-x="351" unicode="r"/>
			<glyph d="M261 489Q303 489 343 482T405 468L394 405Q330 430 259 430Q195 430 166 407T138 347Q138 315 164 298T255 259T347 208T374 132Q374 66 324 27T176 -12Q127 -12 84 -3T17 19L25 83Q52 68 92 57T175 47Q302 47 302 127Q302 171 250 191T163 224T98 264T68 344Q68 409 116 449T261 489Z" horiz-adv-x="437" unicode="s"/>
			<glyph d="M155 617H224L199 477H352L341 416H189L155 225Q143 152 143 127Q143 52 208 52Q238 52 278 63L269 3Q231 -9 192 -9Q135 -9 104 22T74 116Q74 157 87 232L120 416H36L47 477H131Z" horiz-adv-x="338" unicode="t"/>
			<glyph d="M112 477H181L137 225Q128 174 128 145Q128 52 250 52Q284 52 318 57T374 70L447 477H516L434 17Q335 -12 242 -12Q150 -12 103 24T57 130Q57 161 67 221Z" horiz-adv-x="548" unicode="u"/>
			<glyph d="M38 477H110L170 200Q187 122 194 79H195L222 127Q245 167 265 200L431 477H510L219 0H146Z" horiz-adv-x="463" unicode="v"/>
			<glyph d="M56 477H124L173 159Q179 124 181 85H184Q202 126 230 176L398 477H458L517 159Q524 123 528 86H530Q547 125 565 159L737 477H813L550 0H485L429 284L424 313Q414 367 413 387H410Q394 349 356 283L199 0H133Z" horiz-adv-x="784" unicode="w"/>
			<glyph d="M46 477H128L241 290L414 477H505L277 239L430 0H346L227 191L49 0H-42L191 243Z" horiz-adv-x="468" unicode="x"/>
			<glyph d="M32 477H104L163 209Q183 115 188 77H190Q224 141 265 207L425 477H505L73 -235H-4L141 5Z" horiz-adv-x="453" unicode="y"/>
			<glyph d="M78 477H462L454 426L89 62H400L390 0H-18L-10 51L356 415H67Z" horiz-adv-x="451" unicode="z"/>
			<glyph d="M376 770L367 714Q306 714 279 690T242 610L208 426Q198 369 170 340T105 304V302Q131 294 148 270T166 204Q166 188 163 167L133 -7Q130 -24 130 -37Q130 -71 152 -87T223 -104L212 -160Q140 -160 104 -132T68 -44Q68 -24 73 6L103 178Q106 193 106 206Q106 240 86 259T28 280L38 335Q131 338 148 431L183 624Q198 705 242 737T376 770Z" horiz-adv-x="307" unicode="{"/>
			<glyph d="M108 750H164V-250H108Z" horiz-adv-x="273" unicode="|"/>
			<glyph d="M118 770Q190 770 226 742T262 654Q262 635 257 605L227 432Q225 423 225 405Q225 334 302 331L292 275Q199 272 183 179L148 -14Q133 -95 88 -127T-46 -160L-37 -104Q24 -104 51 -80T89 0L122 184Q132 241 159 270T225 307V309Q199 317 181 340T164 406Q164 422 167 443L198 617Q201 632 201 646Q201 681 179 697T108 714Z" horiz-adv-x="306" unicode="}"/>
			<glyph d="M174 370Q205 370 236 360T304 325T385 300Q414 300 439 318T484 367L532 332Q505 289 467 264T381 239Q343 239 310 253T245 288T170 309Q115 309 72 242L24 278Q56 323 92 346T174 370Z" horiz-adv-x="556" unicode="~"/>
			<glyph d="" horiz-adv-x="234" unicode=" "/>
			<glyph d="M122 477H211L196 387H107ZM100 281H161L77 -219H7Z" horiz-adv-x="250" unicode="¡"/>
			<glyph d="M376 714H426L406 601Q466 598 520 572L508 504Q460 532 395 537L329 163Q371 163 406 173T466 194L455 127Q398 101 318 100L298 -14H248L269 103Q192 115 142 172T93 325Q93 446 166 521T356 602ZM345 538Q263 531 213 473T163 327Q163 261 196 220T280 168Z" horiz-adv-x="566" unicode="¢"/>
			<glyph d="M455 712Q532 712 598 690L587 622Q564 631 528 638T456 645Q373 645 330 600T272 467L255 373H468L457 314H245L230 220Q220 163 194 123T133 64H486L475 0H-1L10 64Q75 75 109 116T156 228L172 314H66L76 373H182L201 479Q222 593 281 652T455 712Z" horiz-adv-x="557" unicode="£"/>
			<glyph d="M87 560L160 486Q222 530 288 530Q321 530 353 518T414 486L488 560L534 515L462 441Q502 386 502 315Q502 245 460 187L534 113L488 67L414 141Q356 100 288 100Q217 100 162 142L87 67L39 113L116 189Q74 246 74 315Q74 388 114 440L39 515ZM288 467Q223 467 180 423T138 316Q138 252 180 207T288 162Q353 162 395 207T438 316Q438 380 394 423T288 467Z" horiz-adv-x="556" unicode="¤"/>
			<glyph d="M103 695H180L304 417L526 695H615L332 352V350H503L493 293H322L302 184H473L463 127H292L270 0H201L223 127H48L58 184H233L252 293H77L87 350H262L263 352Z" horiz-adv-x="556" unicode="¥"/>
			<glyph d="M108 750H164V338H108ZM108 162H164V-250H108Z" horiz-adv-x="273" unicode="¦"/>
			<glyph d="M330 712Q404 712 460 682L450 618Q419 636 392 645T328 654Q278 654 248 628T219 557Q219 522 238 500T307 447T382 385T407 302Q407 255 379 219T305 160Q347 116 347 59Q347 -10 301 -54T173 -99Q128 -99 97 -90T41 -69L51 -5Q81 -22 107 -31T173 -41Q223 -41 252 -15T282 55Q282 91 261 113T193 163T120 224T95 309Q95 359 121 394T195 449Q153 491 153 551Q153 622 200 667T330 712ZM242 413Q206 402 183 377T160 315Q160 285 173 264T203 232T259 198Q293 207 317 235T341 296Q341 335 318 360T242 413Z" horiz-adv-x="485" unicode="§"/>
			<glyph d="M114 659H185L172 587H101ZM263 659H334L321 587H250Z" horiz-adv-x="295" unicode="¨"/>
			<glyph d="M420 710Q519 710 603 661T735 528T784 347Q784 197 677 91T420 -15Q321 -15 237 33T104 165T55 347Q55 497 163 603T420 710ZM420 658Q292 658 201 567T110 347Q110 219 201 128T420 37Q549 37 640 128T731 347Q731 475 639 566T420 658ZM443 562Q510 562 558 541V488Q498 512 444 512Q366 512 323 467T281 351Q281 274 324 231T440 188Q478 188 505 195T560 216V163Q537 150 508 142T435 135Q340 135 281 193T222 348Q222 445 281 503T443 562Z" horiz-adv-x="808" unicode="©"/>
			<glyph d="M261 718Q318 718 345 694T373 627Q373 601 366 562L338 408Q270 387 207 387Q148 387 118 411T88 481Q88 531 124 558T239 586Q272 586 312 581Q316 600 316 618Q316 645 296 656T242 668Q216 668 194 663T142 648L152 698Q212 718 261 718ZM236 544Q145 544 145 485Q145 462 162 447T217 433Q252 433 288 442L305 538Q271 544 236 544Z" horiz-adv-x="368" unicode="ª"/>
			<glyph d="M191 413H269L103 232L198 55H132L35 239ZM367 413H445L279 232L374 55H308L211 239Z" horiz-adv-x="458" unicode="«"/>
			<glyph d="M43 366H514V114H450V302H43Z" horiz-adv-x="556" unicode="¬"/>
			<glyph d="M56 292H362L351 227H45Z" horiz-adv-x="399" unicode="­"/>
			<glyph d="M308 712Q400 712 467 644T535 484Q535 390 468 323T308 257Q214 257 147 323T80 484Q80 578 147 645T308 712ZM308 668Q232 668 177 613T123 484Q123 409 177 354T308 300Q383 300 437 354T492 484Q492 559 437 613T308 668ZM223 611H310Q358 611 382 591T407 533Q407 506 391 486T348 457L415 360H362L306 449H266V360H223ZM266 573V485H310Q333 485 347 496T362 529Q362 550 349 561T312 573Z" horiz-adv-x="533" unicode="®"/>
			<glyph d="M95 651H329L320 599H86Z" horiz-adv-x="279" unicode="¯"/>
			<glyph d="M269 723Q330 723 372 681T414 578Q414 517 372 475T270 433Q207 433 164 475T122 578Q122 638 164 680T269 723ZM270 676Q229 676 200 647T172 578Q172 537 200 508T269 480Q309 480 336 508T364 578Q364 619 337 647T270 676Z" horiz-adv-x="417" unicode="°"/>
			<glyph d="M246 622H310V419H514V355H310V151H246V355H43V419H246ZM43 64H514V0H43Z" horiz-adv-x="556" unicode="±"/>
			<glyph d="M286 795Q350 795 383 764T416 679Q416 632 391 591T278 484L156 387H376L366 331H68L78 389L238 517Q302 569 328 600T354 669Q354 703 333 722T271 741Q216 741 146 698L157 762Q219 795 286 795Z" horiz-adv-x="404" unicode="²"/>
			<glyph d="M269 796Q337 796 370 763T404 683Q404 633 374 600T293 557V556Q329 547 352 522T375 457Q375 397 330 357T195 318Q156 318 121 326T67 345L77 400Q94 389 126 380T194 371Q255 371 282 394T310 456Q310 530 198 530H153L163 587H214Q276 587 307 608T339 670Q339 703 317 722T254 741Q222 741 192 733T142 715L151 774Q205 796 269 796Z" horiz-adv-x="408" unicode="³"/>
			<glyph d="M209 711H290L130 559H67Z" horiz-adv-x="217" unicode="´"/>
			<glyph d="M116 477H185L142 225Q132 167 132 145Q132 97 163 74T256 52Q290 52 323 57T379 70L452 477H520L438 17Q341 -12 253 -12Q204 -12 163 1T110 43L57 -251H-12Z" horiz-adv-x="554" unicode="µ"/>
			<glyph d="M320 695H519L385 -63H333L457 644H355L230 -63H178L250 349Q176 349 132 387T89 487Q89 529 111 578T189 661T320 695Z" horiz-adv-x="555" unicode="¶"/>
			<glyph d="M95 361H184L169 271H80Z" horiz-adv-x="237" unicode="·"/>
			<glyph d="M80 0H117L86 -56Q126 -56 149 -74T172 -128Q172 -168 139 -195T43 -223Q2 -223 -41 -210L-33 -166Q10 -181 48 -181Q85 -181 103 -167T122 -132Q122 -90 65 -89L29 -88Z" horiz-adv-x="278" unicode="¸"/>
			<glyph d="M329 800H362L280 332H220L290 726L155 666L167 728Z" horiz-adv-x="403" unicode="¹"/>
			<glyph d="M271 718Q338 718 378 678T418 573Q418 487 370 435T243 384Q174 384 134 425T94 536Q94 618 142 668T271 718ZM267 668Q214 668 182 633T151 538Q151 490 176 462T247 435Q299 435 329 471T360 567Q360 614 335 641T267 668Z" horiz-adv-x="400" unicode="º"/>
			<glyph d="M83 413H149L246 230L90 55H13L178 237ZM259 413H325L422 230L266 55H189L354 237Z" horiz-adv-x="458" unicode="»"/>
			<glyph d="M326 700H359L277 232H217L287 626L152 566L164 628ZM774 695H843L213 0H144ZM799 459H861L808 155H880L870 103H798L780 0H723L741 103H523L533 160ZM788 377L771 355Q758 339 749 329L595 155H750L790 377Z" horiz-adv-x="919" unicode="¼"/>
			<glyph d="M326 700H359L277 232H217L287 626L152 566L164 628ZM773 695H842L212 0H143ZM795 465Q859 465 892 434T925 349Q925 302 900 261T787 154L665 57H885L875 1H577L587 59L747 187Q811 239 837 270T863 339Q863 373 842 392T780 411Q725 411 655 368L666 432Q728 465 795 465Z" horiz-adv-x="971" unicode="½"/>
			<glyph d="M254 696Q322 696 355 663T389 583Q389 533 359 500T278 457V456Q314 447 337 422T360 357Q360 297 315 257T180 218Q141 218 106 226T52 245L62 300Q79 289 111 280T179 271Q240 271 267 294T295 356Q295 430 183 430H138L148 487H199Q261 487 292 508T324 570Q324 603 302 622T239 641Q207 641 177 633T127 615L136 674Q190 696 254 696ZM785 695H854L224 0H155ZM810 459H872L819 155H891L881 103H809L791 0H734L752 103H534L544 160ZM799 377L782 355Q769 339 760 329L606 155H761L801 377Z" horiz-adv-x="930" unicode="¾"/>
			<glyph d="M250 477H340L325 387H235ZM229 281H294L272 165Q161 118 109 66T58 -58Q58 -107 90 -137T186 -168Q229 -168 263 -158T338 -131L326 -197Q250 -230 171 -230Q79 -230 32 -183T-14 -65Q-14 20 41 85T215 204Z" horiz-adv-x="454" unicode="¿"/>
			<glyph d="M379 695H446L619 0H544L492 210H165L39 0H-43ZM397 603L202 275H477L399 603ZM327 887H406L482 757H422Z" horiz-adv-x="660" unicode="À"/>
			<glyph d="M379 695H446L619 0H544L492 210H165L39 0H-43ZM397 603L202 275H477L399 603ZM470 887H552L409 757H347Z" horiz-adv-x="660" unicode="Á"/>
			<glyph d="M379 695H446L619 0H544L492 210H165L39 0H-43ZM397 603L202 275H477L399 603ZM427 904H462L570 759H509L440 849L340 759H270Z" horiz-adv-x="660" unicode="Â"/>
			<glyph d="M379 695H446L619 0H544L492 210H165L39 0H-43ZM397 603L202 275H477L399 603ZM367 867Q407 867 439 836T495 805Q514 805 528 821T551 864H600Q586 816 558 786T494 757Q455 757 422 787T364 818Q324 818 309 760H262Q272 810 299 838T367 867Z" horiz-adv-x="660" unicode="Ã"/>
			<glyph d="M379 695H446L619 0H544L492 210H165L39 0H-43ZM397 603L202 275H477L399 603ZM326 837H397L384 765H313ZM475 837H546L533 765H462Z" horiz-adv-x="660" unicode="Ä"/>
			<glyph d="M379 695H446L619 0H544L492 210H165L39 0H-43ZM397 603L202 275H477L399 603ZM438 983Q483 983 514 951T546 874Q546 829 514 797T438 766Q393 766 361 797T329 874Q329 919 361 951T438 983ZM438 941Q410 941 390 922T371 874Q371 847 390 827T438 807Q466 807 486 827T506 874Q506 903 486 922T438 941Z" horiz-adv-x="660" unicode="Å"/>
			<glyph d="M500 695H969L957 627H604L562 387H883L871 319H550L506 68H875L863 0H423L459 210H207L44 0H-44ZM528 628L255 275H471L532 628Z" horiz-adv-x="944" unicode="Æ"/>
			<glyph d="M451 707Q583 707 680 661L667 588Q572 637 451 637Q314 637 231 549T149 314Q149 194 217 126T401 58Q463 58 510 71T606 109L594 31Q497 -12 385 -12L361 -56Q401 -56 424 -74T447 -128Q447 -168 414 -195T318 -223Q277 -223 234 -210L242 -166Q285 -181 323 -181Q360 -181 378 -167T397 -132Q397 -90 340 -89L304 -88L349 -11Q219 0 145 86T72 312Q72 489 175 598T451 707Z" horiz-adv-x="667" unicode="Ç"/>
			<glyph d="M162 695H587L575 627H222L180 387H501L489 319H168L123 68H493L481 0H40ZM291 887H370L446 757H386Z" horiz-adv-x="562" unicode="È"/>
			<glyph d="M162 695H587L575 627H222L180 387H501L489 319H168L123 68H493L481 0H40ZM434 887H516L373 757H311Z" horiz-adv-x="562" unicode="É"/>
			<glyph d="M162 695H587L575 627H222L180 387H501L489 319H168L123 68H493L481 0H40ZM391 904H426L534 759H473L404 849L304 759H234Z" horiz-adv-x="562" unicode="Ê"/>
			<glyph d="M162 695H587L575 627H222L180 387H501L489 319H168L123 68H493L481 0H40ZM290 837H361L348 765H277ZM439 837H510L497 765H426Z" horiz-adv-x="562" unicode="Ë"/>
			<glyph d="M162 695H234L112 0H40ZM113 887H192L268 757H208Z" horiz-adv-x="235" unicode="Ì"/>
			<glyph d="M162 695H234L112 0H40ZM257 887H339L196 757H134Z" horiz-adv-x="235" unicode="Í"/>
			<glyph d="M162 695H234L112 0H40ZM214 904H249L357 759H296L227 849L127 759H57Z" horiz-adv-x="235" unicode="Î"/>
			<glyph d="M162 695H234L112 0H40ZM112 837H183L170 765H99ZM261 837H332L319 765H248Z" horiz-adv-x="235" unicode="Ï"/>
			<glyph d="M166 695H357Q520 695 609 617T699 392Q699 217 593 108T296 0H44L99 313H17L32 379H110ZM226 627L182 379H378L366 313H171L128 68H300Q453 68 536 154T620 390Q620 510 547 568T351 627Z" horiz-adv-x="731" unicode="Ð"/>
			<glyph d="M162 695H213L573 127H577Q585 184 597 249L675 695H745L623 0H571L209 566H207Q192 467 180 403L110 0H40ZM410 867Q450 867 482 836T538 805Q557 805 571 821T594 864H643Q629 816 601 786T537 757Q498 757 465 787T407 818Q367 818 352 760H305Q315 810 342 838T410 867Z" horiz-adv-x="746" unicode="Ñ"/>
			<glyph d="M452 707Q601 707 685 622T769 394Q769 285 726 192T597 44T386 -12Q245 -12 158 73T71 308Q71 417 113 507T242 652T452 707ZM447 637Q307 637 227 546T147 314Q147 193 214 125T393 58Q532 58 612 151T693 386Q693 503 628 570T447 637ZM369 887H448L524 757H464Z" horiz-adv-x="800" unicode="Ò"/>
			<glyph d="M452 707Q601 707 685 622T769 394Q769 285 726 192T597 44T386 -12Q245 -12 158 73T71 308Q71 417 113 507T242 652T452 707ZM447 637Q307 637 227 546T147 314Q147 193 214 125T393 58Q532 58 612 151T693 386Q693 503 628 570T447 637ZM512 887H594L451 757H389Z" horiz-adv-x="800" unicode="Ó"/>
			<glyph d="M452 707Q601 707 685 622T769 394Q769 285 726 192T597 44T386 -12Q245 -12 158 73T71 308Q71 417 113 507T242 652T452 707ZM447 637Q307 637 227 546T147 314Q147 193 214 125T393 58Q532 58 612 151T693 386Q693 503 628 570T447 637ZM469 904H504L612 759H551L482 849L382 759H312Z" horiz-adv-x="800" unicode="Ô"/>
			<glyph d="M452 707Q601 707 685 622T769 394Q769 285 726 192T597 44T386 -12Q245 -12 158 73T71 308Q71 417 113 507T242 652T452 707ZM447 637Q307 637 227 546T147 314Q147 193 214 125T393 58Q532 58 612 151T693 386Q693 503 628 570T447 637ZM409 867Q449 867 481 836T537 805Q556 805 570 821T593 864H642Q628 816 600 786T536 757Q497 757 464 787T406 818Q366 818 351 760H304Q314 810 341 838T409 867Z" horiz-adv-x="800" unicode="Õ"/>
			<glyph d="M452 707Q601 707 685 622T769 394Q769 285 726 192T597 44T386 -12Q245 -12 158 73T71 308Q71 417 113 507T242 652T452 707ZM447 637Q307 637 227 546T147 314Q147 193 214 125T393 58Q532 58 612 151T693 386Q693 503 628 570T447 637ZM368 837H439L426 765H355ZM517 837H588L575 765H504Z" horiz-adv-x="800" unicode="Ö"/>
			<glyph d="M111 515L278 348L445 515L490 470L323 303L490 136L445 91L278 258L111 91L66 136L233 303L66 470Z" horiz-adv-x="556" unicode="×"/>
			<glyph d="M775 777L818 741L697 609Q769 526 769 394Q769 285 726 192T597 44T386 -12Q265 -12 185 49L74 -73L31 -37L144 87Q71 171 71 308Q71 417 113 507T242 652T452 707Q574 707 656 647ZM447 637Q307 637 227 546T147 314Q147 210 198 146L604 590Q540 637 447 637ZM643 550L237 105Q301 58 393 58Q532 58 612 151T693 386Q693 486 643 550Z" horiz-adv-x="802" unicode="Ø"/>
			<glyph d="M158 695H229L161 305Q149 240 149 194Q149 56 339 56Q430 56 519 82L628 695H699L581 30Q521 11 462 0T331 -12Q76 -12 76 184Q76 212 79 237T92 318ZM335 887H414L490 757H430Z" horiz-adv-x="700" unicode="Ù"/>
			<glyph d="M158 695H229L161 305Q149 240 149 194Q149 56 339 56Q430 56 519 82L628 695H699L581 30Q521 11 462 0T331 -12Q76 -12 76 184Q76 212 79 237T92 318ZM478 887H560L417 757H355Z" horiz-adv-x="700" unicode="Ú"/>
			<glyph d="M158 695H229L161 305Q149 240 149 194Q149 56 339 56Q430 56 519 82L628 695H699L581 30Q521 11 462 0T331 -12Q76 -12 76 184Q76 212 79 237T92 318ZM435 904H470L578 759H517L448 849L348 759H278Z" horiz-adv-x="700" unicode="Û"/>
			<glyph d="M158 695H229L161 305Q149 240 149 194Q149 56 339 56Q430 56 519 82L628 695H699L581 30Q521 11 462 0T331 -12Q76 -12 76 184Q76 212 79 237T92 318ZM334 837H405L392 765H321ZM483 837H554L541 765H470Z" horiz-adv-x="700" unicode="Ü"/>
			<glyph d="M64 695H142L289 332L570 695H658L318 260L272 0H201L246 259ZM408 887H490L347 757H285Z" horiz-adv-x="560" unicode="Ý"/>
			<glyph d="M162 695H234L213 577H344Q461 577 522 523T584 378Q584 264 507 195T286 127H134L112 0H40ZM201 510L146 195H287Q402 195 453 243T505 369Q505 434 464 472T335 510Z" horiz-adv-x="597" unicode="Þ"/>
			<glyph d="M360 733Q446 733 493 691T540 586Q540 526 506 488T403 422T335 347Q335 317 356 299T426 257T496 204T517 135Q517 74 472 31T338 -11Q263 -11 202 16L213 77Q241 64 269 56T335 49Q388 49 416 70T445 130Q445 158 426 176T356 223T284 277T264 339Q264 389 289 417T366 469T443 516T468 578Q468 618 440 644T355 671Q275 671 238 625T187 491L100 0H32L119 495Q139 611 195 672T360 733Z" horiz-adv-x="570" unicode="ß"/>
			<glyph d="M284 489Q365 489 409 451T453 341Q453 307 443 249L403 22Q306 -13 213 -13Q118 -13 74 26T30 131Q30 207 85 247T250 288Q292 288 333 282T379 276Q386 318 386 330Q386 375 358 400T270 426Q227 426 189 417T113 393L125 459Q156 471 197 480T284 489ZM247 233Q99 233 99 136Q99 92 130 69T222 47Q254 47 281 52T344 66L371 223L328 229Q293 233 247 233ZM207 712H278L364 560H305Z" horiz-adv-x="510" unicode="à"/>
			<glyph d="M284 489Q365 489 409 451T453 341Q453 307 443 249L403 22Q306 -13 213 -13Q118 -13 74 26T30 131Q30 207 85 247T250 288Q292 288 333 282T379 276Q386 318 386 330Q386 375 358 400T270 426Q227 426 189 417T113 393L125 459Q156 471 197 480T284 489ZM247 233Q99 233 99 136Q99 92 130 69T222 47Q254 47 281 52T344 66L371 223L328 229Q293 233 247 233ZM367 712H448L288 560H225Z" horiz-adv-x="510" unicode="á"/>
			<glyph d="M284 489Q365 489 409 451T453 341Q453 307 443 249L403 22Q306 -13 213 -13Q118 -13 74 26T30 131Q30 207 85 247T250 288Q292 288 333 282T379 276Q386 318 386 330Q386 375 358 400T270 426Q227 426 189 417T113 393L125 459Q156 471 197 480T284 489ZM247 233Q99 233 99 136Q99 92 130 69T222 47Q254 47 281 52T344 66L371 223L328 229Q293 233 247 233ZM317 717H357L459 553H398L331 660L226 553H161Z" horiz-adv-x="510" unicode="â"/>
			<glyph d="M284 489Q365 489 409 451T453 341Q453 307 443 249L403 22Q306 -13 213 -13Q118 -13 74 26T30 131Q30 207 85 247T250 288Q292 288 333 282T379 276Q386 318 386 330Q386 375 358 400T270 426Q227 426 189 417T113 393L125 459Q156 471 197 480T284 489ZM247 233Q99 233 99 136Q99 92 130 69T222 47Q254 47 281 52T344 66L371 223L328 229Q293 233 247 233ZM260 687Q300 687 332 656T388 625Q406 625 420 641T444 684H493Q479 636 451 606T386 577Q348 577 315 607T257 638Q235 638 221 622T201 580H154Q164 630 191 658T260 687Z" horiz-adv-x="510" unicode="ã"/>
			<glyph d="M284 489Q365 489 409 451T453 341Q453 307 443 249L403 22Q306 -13 213 -13Q118 -13 74 26T30 131Q30 207 85 247T250 288Q292 288 333 282T379 276Q386 318 386 330Q386 375 358 400T270 426Q227 426 189 417T113 393L125 459Q156 471 197 480T284 489ZM247 233Q99 233 99 136Q99 92 130 69T222 47Q254 47 281 52T344 66L371 223L328 229Q293 233 247 233ZM220 660H291L278 588H207ZM369 660H440L427 588H356Z" horiz-adv-x="510" unicode="ä"/>
			<glyph d="M284 489Q365 489 409 451T453 341Q453 307 443 249L403 22Q306 -13 213 -13Q118 -13 74 26T30 131Q30 207 85 247T250 288Q292 288 333 282T379 276Q386 318 386 330Q386 375 358 400T270 426Q227 426 189 417T113 393L125 459Q156 471 197 480T284 489ZM247 233Q99 233 99 136Q99 92 130 69T222 47Q254 47 281 52T344 66L371 223L328 229Q293 233 247 233ZM325 765Q370 765 401 733T433 656Q433 611 401 579T325 548Q280 548 248 579T216 656Q216 701 248 733T325 765ZM325 723Q297 723 277 704T258 656Q258 629 277 609T325 589Q353 589 373 609T393 656Q393 685 373 704T325 723Z" horiz-adv-x="510" unicode="å"/>
			<glyph d="M284 489Q345 489 384 465T438 395Q469 440 516 464T624 489Q712 489 764 442T816 312Q816 286 811 260T802 220H442Q442 211 441 198Q441 132 480 90T602 49Q678 49 756 86L743 17Q706 2 671 -6T589 -14Q481 -14 424 49Q342 -13 218 -13Q120 -13 75 26T30 131Q30 207 85 247T250 288Q298 288 379 276Q386 318 386 330Q386 375 358 400T270 426Q227 426 189 417T113 393L125 459Q156 471 197 480T284 489ZM620 429Q551 429 506 387T449 275H741Q746 292 746 312Q746 366 714 397T620 429ZM249 233Q99 233 99 136Q99 47 229 47Q320 47 393 95Q372 139 372 195L373 223Q361 225 353 225Q301 233 249 233Z" horiz-adv-x="841" unicode="æ"/>
			<glyph d="M325 489Q408 489 468 458L456 390Q399 425 317 425Q227 425 171 366T115 213Q115 135 161 92T274 50Q350 50 414 81L403 13Q341 -14 260 -14L237 -56Q277 -56 300 -74T323 -128Q323 -168 290 -195T194 -223Q153 -223 110 -210L118 -166Q161 -181 199 -181Q236 -181 254 -167T273 -132Q273 -90 216 -89L180 -88L224 -12Q144 -1 93 56T42 211Q42 337 122 413T325 489Z" horiz-adv-x="473" unicode="ç"/>
			<glyph d="M299 489Q388 489 440 442T492 312Q492 286 487 261T477 220H118Q118 213 117 198Q117 131 157 90T277 49Q355 49 431 86L419 17Q384 2 348 -6T265 -14Q155 -14 99 46T43 209Q43 332 113 410T299 489ZM296 429Q228 429 183 386T125 275H417Q422 292 422 312Q422 366 390 397T296 429ZM207 712H278L364 560H305Z" horiz-adv-x="516" unicode="è"/>
			<glyph d="M299 489Q388 489 440 442T492 312Q492 286 487 261T477 220H118Q118 213 117 198Q117 131 157 90T277 49Q355 49 431 86L419 17Q384 2 348 -6T265 -14Q155 -14 99 46T43 209Q43 332 113 410T299 489ZM296 429Q228 429 183 386T125 275H417Q422 292 422 312Q422 366 390 397T296 429ZM367 712H448L288 560H225Z" horiz-adv-x="516" unicode="é"/>
			<glyph d="M299 489Q388 489 440 442T492 312Q492 286 487 261T477 220H118Q118 213 117 198Q117 131 157 90T277 49Q355 49 431 86L419 17Q384 2 348 -6T265 -14Q155 -14 99 46T43 209Q43 332 113 410T299 489ZM296 429Q228 429 183 386T125 275H417Q422 292 422 312Q422 366 390 397T296 429ZM317 717H357L459 553H398L331 660L226 553H161Z" horiz-adv-x="516" unicode="ê"/>
			<glyph d="M299 489Q388 489 440 442T492 312Q492 286 487 261T477 220H118Q118 213 117 198Q117 131 157 90T277 49Q355 49 431 86L419 17Q384 2 348 -6T265 -14Q155 -14 99 46T43 209Q43 332 113 410T299 489ZM296 429Q228 429 183 386T125 275H417Q422 292 422 312Q422 366 390 397T296 429ZM220 660H291L278 588H207ZM369 660H440L427 588H356Z" horiz-adv-x="516" unicode="ë"/>
			<glyph d="M116 477H185L101 0H33ZM59 712H130L216 560H157Z" horiz-adv-x="217" unicode="ì"/>
			<glyph d="M116 477H185L101 0H33ZM220 712H301L141 560H78Z" horiz-adv-x="217" unicode="í"/>
			<glyph d="M116 477H185L101 0H33ZM170 717H210L312 553H251L184 660L79 553H14Z" horiz-adv-x="217" unicode="î"/>
			<glyph d="M116 477H185L101 0H33ZM73 660H144L131 588H60ZM222 660H293L280 588H209Z" horiz-adv-x="217" unicode="ï"/>
			<glyph d="M260 774Q287 759 320 733T371 690L475 750L503 703L407 647Q530 511 530 300Q530 157 462 71T266 -14Q165 -14 103 45T42 211Q42 332 112 408T300 485Q347 485 386 466T446 422L449 424Q437 476 411 527T347 616L215 541L188 587L314 659Q284 690 220 728ZM303 422Q217 422 166 366T115 214Q115 137 157 94T271 51Q361 51 409 112T458 272Q458 335 420 378T303 422Z" horiz-adv-x="569" unicode="ð"/>
			<glyph d="M310 489Q405 489 448 453T492 349Q492 322 481 256L436 0H367L412 257L417 288Q421 311 421 331Q421 380 391 402T303 425Q240 425 173 407L101 0H32L114 461Q228 489 310 489ZM270 687Q310 687 342 656T398 625Q416 625 430 641T454 684H503Q489 636 461 606T396 577Q358 577 325 607T267 638Q245 638 231 622T211 580H164Q174 630 201 658T270 687Z" unicode="ñ"/>
			<glyph d="M309 489Q415 489 473 427T531 270Q531 144 463 65T266 -14Q167 -14 105 45T43 214Q43 336 114 412T309 489ZM304 424Q217 424 166 367T115 216Q115 138 157 94T271 51Q361 51 409 111T458 263Q458 338 416 381T304 424ZM218 712H289L375 560H316Z" horiz-adv-x="573" unicode="ò"/>
			<glyph d="M309 489Q415 489 473 427T531 270Q531 144 463 65T266 -14Q167 -14 105 45T43 214Q43 336 114 412T309 489ZM304 424Q217 424 166 367T115 216Q115 138 157 94T271 51Q361 51 409 111T458 263Q458 338 416 381T304 424ZM378 712H459L299 560H236Z" horiz-adv-x="573" unicode="ó"/>
			<glyph d="M309 489Q415 489 473 427T531 270Q531 144 463 65T266 -14Q167 -14 105 45T43 214Q43 336 114 412T309 489ZM304 424Q217 424 166 367T115 216Q115 138 157 94T271 51Q361 51 409 111T458 263Q458 338 416 381T304 424ZM328 717H368L470 553H409L342 660L237 553H172Z" horiz-adv-x="573" unicode="ô"/>
			<glyph d="M309 489Q415 489 473 427T531 270Q531 144 463 65T266 -14Q167 -14 105 45T43 214Q43 336 114 412T309 489ZM304 424Q217 424 166 367T115 216Q115 138 157 94T271 51Q361 51 409 111T458 263Q458 338 416 381T304 424ZM271 687Q311 687 343 656T399 625Q417 625 431 641T455 684H504Q490 636 462 606T397 577Q359 577 326 607T268 638Q246 638 232 622T212 580H165Q175 630 202 658T271 687Z" horiz-adv-x="573" unicode="õ"/>
			<glyph d="M309 489Q415 489 473 427T531 270Q531 144 463 65T266 -14Q167 -14 105 45T43 214Q43 336 114 412T309 489ZM304 424Q217 424 166 367T115 216Q115 138 157 94T271 51Q361 51 409 111T458 263Q458 338 416 381T304 424ZM231 660H302L289 588H218ZM380 660H451L438 588H367Z" horiz-adv-x="573" unicode="ö"/>
			<glyph d="M234 540H320V454H234ZM43 335H514V271H43ZM234 153H320V66H234Z" horiz-adv-x="556" unicode="÷"/>
			<glyph d="M540 553L580 518L485 413Q531 356 531 270Q531 144 462 65T267 -14Q186 -14 130 25L43 -71L2 -35L90 61Q43 119 43 214Q43 334 114 411T310 489Q390 489 445 450ZM304 426Q216 426 164 368T113 216Q113 157 142 117L398 399Q360 426 304 426ZM433 358L177 75Q213 49 271 49Q363 49 411 111T460 264Q460 318 433 358Z" horiz-adv-x="573" unicode="ø"/>
			<glyph d="M112 477H181L137 225Q128 174 128 145Q128 52 250 52Q284 52 318 57T374 70L447 477H516L434 17Q335 -12 242 -12Q150 -12 103 24T57 130Q57 161 67 221ZM223 712H294L380 560H321Z" horiz-adv-x="548" unicode="ù"/>
			<glyph d="M112 477H181L137 225Q128 174 128 145Q128 52 250 52Q284 52 318 57T374 70L447 477H516L434 17Q335 -12 242 -12Q150 -12 103 24T57 130Q57 161 67 221ZM383 712H464L304 560H241Z" horiz-adv-x="548" unicode="ú"/>
			<glyph d="M112 477H181L137 225Q128 174 128 145Q128 52 250 52Q284 52 318 57T374 70L447 477H516L434 17Q335 -12 242 -12Q150 -12 103 24T57 130Q57 161 67 221ZM333 717H373L475 553H414L347 660L242 553H177Z" horiz-adv-x="548" unicode="û"/>
			<glyph d="M112 477H181L137 225Q128 174 128 145Q128 52 250 52Q284 52 318 57T374 70L447 477H516L434 17Q335 -12 242 -12Q150 -12 103 24T57 130Q57 161 67 221ZM236 660H307L294 588H223ZM385 660H456L443 588H372Z" horiz-adv-x="548" unicode="ü"/>
			<glyph d="M32 477H104L163 209Q183 115 188 77H190Q224 141 265 207L425 477H505L73 -235H-4L141 5ZM334 712H415L255 560H192Z" horiz-adv-x="453" unicode="ý"/>
			<glyph d="M163 738H232L184 468Q207 477 238 483T299 489Q408 489 465 431T523 272Q523 153 446 69T234 -14Q196 -14 161 -7T102 9L55 -259H-14ZM285 424Q254 424 224 417T172 402L114 78Q136 67 168 59T236 51Q337 51 393 109T450 270Q450 344 407 384T285 424Z" horiz-adv-x="563" unicode="þ"/>
			<glyph d="M32 477H104L163 209Q183 115 188 77H190Q224 141 265 207L425 477H505L73 -235H-4L141 5ZM187 660H258L245 588H174ZM336 660H407L394 588H323Z" horiz-adv-x="453" unicode="ÿ"/>
			<glyph d="M379 695H446L619 0H544L492 210H165L39 0H-43ZM397 603L202 275H477L399 603ZM317 831H551L542 778H308Z" horiz-adv-x="660" unicode="Ā"/>
			<glyph d="M284 489Q365 489 409 451T453 341Q453 307 443 249L403 22Q306 -13 213 -13Q118 -13 74 26T30 131Q30 207 85 247T250 288Q292 288 333 282T379 276Q386 318 386 330Q386 375 358 400T270 426Q227 426 189 417T113 393L125 459Q156 471 197 480T284 489ZM247 233Q99 233 99 136Q99 92 130 69T222 47Q254 47 281 52T344 66L371 223L328 229Q293 233 247 233ZM210 651H444L435 599H201Z" horiz-adv-x="510" unicode="ā"/>
			<glyph d="M379 695H446L619 0H544L492 210H165L39 0H-43ZM397 603L202 275H477L399 603ZM293 885H342L341 872Q341 834 364 820T429 807Q522 807 539 885H594Q568 759 426 759Q357 759 324 786T291 862Q291 869 293 885Z" horiz-adv-x="660" unicode="Ă"/>
			<glyph d="M284 489Q365 489 409 451T453 341Q453 307 443 249L403 22Q306 -13 213 -13Q118 -13 74 26T30 131Q30 207 85 247T250 288Q292 288 333 282T379 276Q386 318 386 330Q386 375 358 400T270 426Q227 426 189 417T113 393L125 459Q156 471 197 480T284 489ZM247 233Q99 233 99 136Q99 92 130 69T222 47Q254 47 281 52T344 66L371 223L328 229Q293 233 247 233ZM199 706H242Q242 700 241 690Q241 615 322 615Q406 615 426 706H474Q459 642 420 606T319 571Q258 571 228 602T198 683Q198 698 199 706Z" horiz-adv-x="510" unicode="ă"/>
			<glyph d="M379 695H446L619 0H544L492 210H165L39 0H-43ZM397 603L202 275H477L399 603ZM568 0H619Q555 -43 526 -72T497 -135Q497 -172 537 -172Q559 -172 577 -165L598 -157L591 -201Q559 -215 529 -215Q490 -215 469 -196T448 -143Q448 -104 479 -69T568 0Z" horiz-adv-x="660" unicode="Ą"/>
			<glyph d="M284 489Q365 489 409 451T453 341Q453 307 443 249L403 22Q336 -31 306 -64T277 -135Q277 -172 317 -172Q339 -172 357 -165L378 -157L371 -201Q339 -215 309 -215Q271 -215 250 -196T229 -143Q229 -71 318 -2Q259 -13 213 -13Q118 -13 74 26T30 131Q30 207 85 247T250 288Q292 288 333 282T379 276Q386 318 386 330Q386 375 358 400T270 426Q227 426 189 417T113 393L125 459Q156 471 197 480T284 489ZM247 233Q99 233 99 136Q99 92 130 69T222 47Q254 47 281 52T344 66L371 223L328 229Q293 233 247 233Z" horiz-adv-x="510" unicode="ą"/>
			<glyph d="M451 707Q583 707 680 661L667 588Q572 637 451 637Q314 637 231 549T149 314Q149 194 217 126T401 58Q463 58 510 71T606 109L594 31Q497 -12 385 -12Q240 -12 156 75T72 312Q72 489 175 598T451 707ZM496 887H578L435 757H373Z" horiz-adv-x="667" unicode="Ć"/>
			<glyph d="M325 489Q408 489 468 458L456 390Q399 425 317 425Q227 425 171 366T115 213Q115 135 161 92T274 50Q350 50 414 81L403 13Q341 -14 260 -14Q165 -14 103 46T42 211Q42 337 122 413T325 489ZM373 712H454L294 560H231Z" horiz-adv-x="473" unicode="ć"/>
			<glyph d="M451 707Q583 707 680 661L667 588Q572 637 451 637Q314 637 231 549T149 314Q149 194 217 126T401 58Q463 58 510 71T606 109L594 31Q497 -12 385 -12Q240 -12 156 75T72 312Q72 489 175 598T451 707ZM453 904H488L596 759H535L466 849L366 759H296Z" horiz-adv-x="667" unicode="Ĉ"/>
			<glyph d="M325 489Q408 489 468 458L456 390Q399 425 317 425Q227 425 171 366T115 213Q115 135 161 92T274 50Q350 50 414 81L403 13Q341 -14 260 -14Q165 -14 103 46T42 211Q42 337 122 413T325 489ZM323 717H363L465 553H404L337 660L232 553H167Z" horiz-adv-x="473" unicode="ĉ"/>
			<glyph d="M451 707Q583 707 680 661L667 588Q572 637 451 637Q314 637 231 549T149 314Q149 194 217 126T401 58Q463 58 510 71T606 109L594 31Q497 -12 385 -12Q240 -12 156 75T72 312Q72 489 175 598T451 707ZM423 843H503L488 762H408Z" horiz-adv-x="667" unicode="Ċ"/>
			<glyph d="M325 489Q408 489 468 458L456 390Q399 425 317 425Q227 425 171 366T115 213Q115 135 161 92T274 50Q350 50 414 81L403 13Q341 -14 260 -14Q165 -14 103 46T42 211Q42 337 122 413T325 489ZM298 672H378L363 592H283Z" horiz-adv-x="473" unicode="ċ"/>
			<glyph d="M451 707Q583 707 680 661L667 588Q572 637 451 637Q314 637 231 549T149 314Q149 194 217 126T401 58Q463 58 510 71T606 109L594 31Q497 -12 385 -12Q240 -12 156 75T72 312Q72 489 175 598T451 707ZM323 903H384L453 813L553 903H623L466 758H431Z" horiz-adv-x="667" unicode="Č"/>
			<glyph d="M325 489Q408 489 468 458L456 390Q399 425 317 425Q227 425 171 366T115 213Q115 135 161 92T274 50Q350 50 414 81L403 13Q341 -14 260 -14Q165 -14 103 46T42 211Q42 337 122 413T325 489ZM183 717H244L310 610L416 717H481L326 553H286Z" horiz-adv-x="473" unicode="č"/>
			<glyph d="M162 695H353Q516 695 606 617T696 392Q696 217 590 108T293 0H40ZM223 627L124 68H297Q450 68 533 154T617 390Q617 510 543 568T348 627ZM280 903H341L410 813L510 903H580L423 758H388Z" horiz-adv-x="727" unicode="Ď"/>
			<glyph d="M511 738H580L453 28Q362 -14 273 -14Q160 -14 100 43T41 204Q41 323 117 406T331 489Q368 489 403 482T463 466ZM329 424Q228 424 171 366T114 207Q114 132 156 91T280 51Q309 51 340 57T393 73L450 397Q429 408 397 416T329 424ZM677 739H742L640 522H588Z" horiz-adv-x="565" unicode="ď"/>
			<glyph d="M166 695H357Q520 695 609 617T699 392Q699 217 593 108T296 0H44L99 313H17L32 379H110ZM226 627L182 379H378L366 313H171L128 68H300Q453 68 536 154T620 390Q620 510 547 568T351 627Z" horiz-adv-x="731" unicode="Đ"/>
			<glyph d="M511 738H580L562 640H644L633 579H552L453 28Q362 -14 273 -14Q160 -14 100 43T41 204Q41 323 117 406T331 489Q368 489 403 482T463 466L483 579H296L307 640H494ZM329 424Q228 424 171 366T114 207Q114 132 156 91T280 51Q309 51 340 57T393 73L450 397Q429 408 397 416T329 424Z" horiz-adv-x="563" unicode="đ"/>
			<glyph d="M162 695H587L575 627H222L180 387H501L489 319H168L123 68H493L481 0H40ZM281 831H515L506 778H272Z" horiz-adv-x="562" unicode="Ē"/>
			<glyph d="M299 489Q388 489 440 442T492 312Q492 286 487 261T477 220H118Q118 213 117 198Q117 131 157 90T277 49Q355 49 431 86L419 17Q384 2 348 -6T265 -14Q155 -14 99 46T43 209Q43 332 113 410T299 489ZM296 429Q228 429 183 386T125 275H417Q422 292 422 312Q422 366 390 397T296 429ZM210 652H444L435 600H201Z" horiz-adv-x="516" unicode="ē"/>
			<glyph d="M162 695H587L575 627H222L180 387H501L489 319H168L123 68H493L481 0H40ZM257 885H306L305 872Q305 834 328 820T393 807Q486 807 503 885H558Q532 759 390 759Q321 759 288 786T255 862Q255 869 257 885Z" horiz-adv-x="562" unicode="Ĕ"/>
			<glyph d="M299 489Q388 489 440 442T492 312Q492 286 487 261T477 220H118Q118 213 117 198Q117 131 157 90T277 49Q355 49 431 86L419 17Q384 2 348 -6T265 -14Q155 -14 99 46T43 209Q43 332 113 410T299 489ZM296 429Q228 429 183 386T125 275H417Q422 292 422 312Q422 366 390 397T296 429ZM199 706H242Q242 700 241 690Q241 615 322 615Q406 615 426 706H474Q459 642 420 606T319 571Q258 571 228 602T198 683Q198 698 199 706Z" horiz-adv-x="516" unicode="ĕ"/>
			<glyph d="M162 695H587L575 627H222L180 387H501L489 319H168L123 68H493L481 0H40ZM361 843H441L426 762H346Z" horiz-adv-x="562" unicode="Ė"/>
			<glyph d="M299 489Q388 489 440 442T492 312Q492 286 487 261T477 220H118Q118 213 117 198Q117 131 157 90T277 49Q355 49 431 86L419 17Q384 2 348 -6T265 -14Q155 -14 99 46T43 209Q43 332 113 410T299 489ZM296 429Q228 429 183 386T125 275H417Q422 292 422 312Q422 366 390 397T296 429ZM292 671H372L357 591H277Z" horiz-adv-x="516" unicode="ė"/>
			<glyph d="M162 695H587L575 627H222L180 387H501L489 319H168L123 68H493L481 0H40ZM430 0H481Q417 -43 388 -72T359 -135Q359 -172 399 -172Q421 -172 439 -165L460 -157L453 -201Q421 -215 391 -215Q352 -215 331 -196T310 -143Q310 -104 341 -69T430 0Z" horiz-adv-x="562" unicode="Ę"/>
			<glyph d="M299 489Q388 489 440 442T492 312Q492 286 487 261T477 220H118Q118 213 117 198Q117 131 157 90T277 49Q355 49 431 86L419 17Q353 -33 323 -65T294 -135Q294 -172 334 -172Q357 -172 375 -165L394 -157L388 -201Q356 -215 325 -215Q287 -215 266 -196T245 -143Q245 -76 330 -9Q297 -14 265 -14Q155 -14 99 46T43 209Q43 332 113 410T299 489ZM296 429Q228 429 183 386T125 275H417Q422 292 422 312Q422 366 390 397T296 429Z" horiz-adv-x="516" unicode="ę"/>
			<glyph d="M162 695H587L575 627H222L180 387H501L489 319H168L123 68H493L481 0H40ZM261 903H322L391 813L491 903H561L404 758H369Z" horiz-adv-x="562" unicode="Ě"/>
			<glyph d="M299 489Q388 489 440 442T492 312Q492 286 487 261T477 220H118Q118 213 117 198Q117 131 157 90T277 49Q355 49 431 86L419 17Q384 2 348 -6T265 -14Q155 -14 99 46T43 209Q43 332 113 410T299 489ZM296 429Q228 429 183 386T125 275H417Q422 292 422 312Q422 366 390 397T296 429ZM177 717H238L304 610L410 717H475L320 553H280Z" horiz-adv-x="516" unicode="ě"/>
			<glyph d="M459 707Q535 707 593 693T688 661L675 590Q576 638 454 638Q315 638 232 549T149 312Q149 192 216 124T397 56Q469 56 541 82L579 297H390L402 362H661L603 35Q505 -12 385 -12Q237 -12 154 75T72 309Q72 487 176 597T459 707ZM452 904H487L595 759H534L465 849L365 759H295Z" horiz-adv-x="705" unicode="Ĝ"/>
			<glyph d="M332 489Q390 489 442 476T527 444L447 -6Q425 -130 361 -188T174 -247Q80 -247 -4 -213L7 -145Q38 -159 84 -171T176 -183Q270 -183 316 -139T378 -9L383 23Q354 7 322 -3T248 -13Q150 -13 95 43T40 201Q40 285 77 353T178 455T332 489ZM329 424Q228 424 170 364T113 203Q113 131 153 91T263 51Q331 51 394 88L449 397Q428 408 396 416T329 424ZM333 717H373L475 553H414L347 660L242 553H177Z" horiz-adv-x="564" unicode="ĝ"/>
			<glyph d="M459 707Q535 707 593 693T688 661L675 590Q576 638 454 638Q315 638 232 549T149 312Q149 192 216 124T397 56Q469 56 541 82L579 297H390L402 362H661L603 35Q505 -12 385 -12Q237 -12 154 75T72 309Q72 487 176 597T459 707ZM318 885H367L366 872Q366 834 389 820T454 807Q547 807 564 885H619Q593 759 451 759Q382 759 349 786T316 862Q316 869 318 885Z" horiz-adv-x="705" unicode="Ğ"/>
			<glyph d="M332 489Q390 489 442 476T527 444L447 -6Q425 -130 361 -188T174 -247Q80 -247 -4 -213L7 -145Q38 -159 84 -171T176 -183Q270 -183 316 -139T378 -9L383 23Q354 7 322 -3T248 -13Q150 -13 95 43T40 201Q40 285 77 353T178 455T332 489ZM329 424Q228 424 170 364T113 203Q113 131 153 91T263 51Q331 51 394 88L449 397Q428 408 396 416T329 424ZM215 706H258Q258 700 257 690Q257 615 338 615Q422 615 442 706H490Q475 642 436 606T335 571Q274 571 244 602T214 683Q214 698 215 706Z" horiz-adv-x="564" unicode="ğ"/>
			<glyph d="M459 707Q535 707 593 693T688 661L675 590Q576 638 454 638Q315 638 232 549T149 312Q149 192 216 124T397 56Q469 56 541 82L579 297H390L402 362H661L603 35Q505 -12 385 -12Q237 -12 154 75T72 309Q72 487 176 597T459 707ZM422 843H502L487 762H407Z" horiz-adv-x="705" unicode="Ġ"/>
			<glyph d="M332 489Q390 489 442 476T527 444L447 -6Q425 -130 361 -188T174 -247Q80 -247 -4 -213L7 -145Q38 -159 84 -171T176 -183Q270 -183 316 -139T378 -9L383 23Q354 7 322 -3T248 -13Q150 -13 95 43T40 201Q40 285 77 353T178 455T332 489ZM329 424Q228 424 170 364T113 203Q113 131 153 91T263 51Q331 51 394 88L449 397Q428 408 396 416T329 424ZM308 672H388L373 592H293Z" horiz-adv-x="564" unicode="ġ"/>
			<glyph d="M459 707Q535 707 593 693T688 661L675 590Q576 638 454 638Q315 638 232 549T149 312Q149 192 216 124T397 56Q469 56 541 82L579 297H390L402 362H661L603 35Q505 -12 385 -12Q237 -12 154 75T72 309Q72 487 176 597T459 707ZM355 -59H431L312 -231H249Z" horiz-adv-x="705" unicode="Ģ"/>
			<glyph d="M332 489Q390 489 442 476T527 444L447 -6Q425 -130 361 -188T174 -247Q80 -247 -4 -213L7 -145Q38 -159 84 -171T176 -183Q270 -183 316 -139T378 -9L383 23Q354 7 322 -3T248 -13Q150 -13 95 43T40 201Q40 285 77 353T178 455T332 489ZM329 424Q228 424 170 364T113 203Q113 131 153 91T263 51Q331 51 394 88L449 397Q428 408 396 416T329 424ZM384 732H447L342 560H266Z" horiz-adv-x="564" unicode="ģ"/>
			<glyph d="M162 695H234L180 392H591L645 695H716L594 0H523L579 325H168L112 0H40ZM455 904H490L598 759H537L468 849L368 759H298Z" horiz-adv-x="718" unicode="Ĥ"/>
			<glyph d="M162 738H230L180 455Q218 471 254 480T333 489Q407 489 449 452T492 350Q492 319 479 248L436 0H367L410 246Q420 302 420 334Q420 378 391 401T310 425Q241 425 169 390L100 0H32ZM371 947H406L514 802H453L384 892L284 802H214Z" unicode="ĥ"/>
			<glyph d="M162 695H234L212 572H623L645 695H716L695 572H778L767 514H684L594 0H523L578 315H167L112 0H40L130 514H47L57 572H141ZM202 514L178 380H589L613 514Z" horiz-adv-x="717" unicode="Ħ"/>
			<glyph d="M162 738H230L213 640H402L391 579H202L180 455Q218 471 254 480T333 489Q407 489 449 452T492 350Q492 319 479 248L436 0H367L410 246Q420 302 420 334Q420 378 391 401T310 425Q241 425 169 390L100 0H32L134 579H58L69 640H145Z" unicode="ħ"/>
			<glyph d="M162 695H234L112 0H40ZM154 867Q194 867 226 836T282 805Q301 805 315 821T338 864H387Q373 816 345 786T281 757Q242 757 209 787T151 818Q111 818 96 760H49Q59 810 86 838T154 867Z" horiz-adv-x="235" unicode="Ĩ"/>
			<glyph d="M116 477H185L101 0H33ZM112 687Q152 687 184 656T240 625Q258 625 272 641T296 684H345Q331 636 303 606T238 577Q200 577 167 607T109 638Q87 638 73 622T53 580H6Q16 630 43 658T112 687Z" horiz-adv-x="217" unicode="ĩ"/>
			<glyph d="M162 695H234L112 0H40ZM104 831H338L329 778H95Z" horiz-adv-x="235" unicode="Ī"/>
			<glyph d="M116 477H185L101 0H33ZM63 652H297L288 600H54Z" horiz-adv-x="217" unicode="ī"/>
			<glyph d="M162 695H234L112 0H40ZM80 885H129L128 872Q128 834 151 820T216 807Q309 807 326 885H381Q355 759 213 759Q144 759 111 786T78 862Q78 869 80 885Z" horiz-adv-x="235" unicode="Ĭ"/>
			<glyph d="M116 477H185L101 0H33ZM52 706H95Q95 700 94 690Q94 615 175 615Q259 615 279 706H327Q312 642 273 606T172 571Q111 571 81 602T51 683Q51 698 52 706Z" horiz-adv-x="217" unicode="ĭ"/>
			<glyph d="M157 695H229L107 0Q57 -39 32 -70T7 -135Q7 -153 17 -162T46 -172Q70 -172 88 -165L107 -157L100 -201Q70 -215 38 -215Q0 -215 -21 -196T-42 -143Q-42 -105 -14 -70T62 0H35Z" horiz-adv-x="245" unicode="Į"/>
			<glyph d="M145 671H225L210 591H130ZM115 477H184L101 0Q46 -41 20 -71T-6 -135Q-6 -172 34 -172Q56 -172 74 -165L95 -157L88 -201Q56 -215 26 -215Q-13 -215 -34 -196T-55 -143Q-55 -104 -26 -69T56 0H32Z" horiz-adv-x="224" unicode="į"/>
			<glyph d="M162 695H234L112 0H40ZM184 843H264L249 762H169Z" horiz-adv-x="235" unicode="İ"/>
			<glyph d="M116 477H185L101 0H33Z" horiz-adv-x="217" unicode="ı"/>
			<glyph d="M162 695H234L112 0H40ZM657 695H729L650 247Q628 119 562 53T371 -12Q321 -12 279 -1T210 24L220 93Q244 79 285 67T372 55Q466 55 514 106T579 253Z" horiz-adv-x="726" unicode="Ĳ"/>
			<glyph d="M145 671H225L210 591H130ZM115 477H184L101 0H32ZM361 671H441L427 591H347ZM332 477H401L308 -53Q274 -244 114 -244Q78 -244 52 -237L62 -174Q83 -181 111 -181Q165 -181 196 -145T241 -41Z" horiz-adv-x="432" unicode="ĳ"/>
			<glyph d="M422 695H494L415 247Q393 119 327 53T136 -12Q86 -12 44 -1T-25 24L-15 93Q9 79 50 67T137 55Q231 55 279 106T344 253ZM474 904H509L617 759H556L487 849L387 759H317Z" horiz-adv-x="491" unicode="Ĵ"/>
			<glyph d="M116 477H185L92 -53Q58 -244 -102 -244Q-138 -244 -164 -237L-154 -174Q-133 -181 -105 -181Q-51 -181 -19 -145T25 -41ZM170 717H210L312 553H251L184 660L79 553H14Z" horiz-adv-x="217" unicode="ĵ"/>
			<glyph d="M162 695H234L174 354H175L565 695H670L262 346L548 0H454L174 347H173L112 0H40ZM247 -59H323L204 -231H141Z" horiz-adv-x="599" unicode="Ķ"/>
			<glyph d="M162 738H230L145 257H147L410 477H510L232 248L422 0H334L146 251H144L100 0H32ZM179 -59H255L136 -231H73Z" horiz-adv-x="483" unicode="ķ"/>
			<glyph d="M116 477H185L145 257H147L410 477H510L232 248L422 0H334L146 251H144L100 0H32Z" horiz-adv-x="483" unicode="ĸ"/>
			<glyph d="M162 695H234L123 67H488L477 0H40ZM287 887H369L226 757H164Z" horiz-adv-x="525" unicode="Ĺ"/>
			<glyph d="M162 738H230L100 0H32ZM285 930H367L224 800H162Z" horiz-adv-x="216" unicode="ĺ"/>
			<glyph d="M162 695H234L123 67H488L477 0H40ZM211 -59H287L168 -231H105Z" horiz-adv-x="525" unicode="Ļ"/>
			<glyph d="M162 738H230L100 0H32ZM55 -59H131L12 -231H-51Z" horiz-adv-x="216" unicode="ļ"/>
			<glyph d="M162 695H234L123 67H488L477 0H40ZM332 695H397L295 478H243Z" horiz-adv-x="525" unicode="Ľ"/>
			<glyph d="M162 738H230L100 0H32ZM329 739H394L292 522H240Z" horiz-adv-x="216" unicode="ľ"/>
			<glyph d="M162 695H234L123 67H488L477 0H40ZM358 366H438L423 286H343Z" horiz-adv-x="525" unicode="Ŀ"/>
			<glyph d="M162 738H230L100 0H32ZM242 378H322L307 298H227Z" horiz-adv-x="296" unicode="ŀ"/>
			<glyph d="M167 695H238L186 395L371 504L357 428L172 319L127 67H493L481 0H45L93 276L-11 215L4 291L107 352Z" horiz-adv-x="534" unicode="Ł"/>
			<glyph d="M169 738H238L185 437L286 498L271 421L171 360L108 0H39L94 315L-5 255L9 332L108 391Z" horiz-adv-x="230" unicode="ł"/>
			<glyph d="M162 695H213L573 127H577Q585 184 597 249L675 695H745L623 0H571L209 566H207Q192 467 180 403L110 0H40ZM513 887H595L452 757H390Z" horiz-adv-x="746" unicode="Ń"/>
			<glyph d="M310 489Q405 489 448 453T492 349Q492 322 481 256L436 0H367L412 257L417 288Q421 311 421 331Q421 380 391 402T303 425Q240 425 173 407L101 0H32L114 461Q228 489 310 489ZM377 712H458L298 560H235Z" unicode="ń"/>
			<glyph d="M162 695H213L573 127H577Q585 184 597 249L675 695H745L623 0H571L209 566H207Q192 467 180 403L110 0H40ZM322 -59H398L279 -231H216Z" horiz-adv-x="746" unicode="Ņ"/>
			<glyph d="M310 489Q405 489 448 453T492 349Q492 322 481 256L436 0H367L412 257L417 288Q421 311 421 331Q421 380 391 402T303 425Q240 425 173 407L101 0H32L114 461Q228 489 310 489ZM222 -59H298L179 -231H116Z" unicode="ņ"/>
			<glyph d="M162 695H213L573 127H577Q585 184 597 249L675 695H745L623 0H571L209 566H207Q192 467 180 403L110 0H40ZM340 903H401L470 813L570 903H640L483 758H448Z" horiz-adv-x="746" unicode="Ň"/>
			<glyph d="M310 489Q405 489 448 453T492 349Q492 322 481 256L436 0H367L412 257L417 288Q421 311 421 331Q421 380 391 402T303 425Q240 425 173 407L101 0H32L114 461Q228 489 310 489ZM187 717H248L314 610L420 717H485L330 553H290Z" unicode="ň"/>
			<glyph d="M336 489Q431 489 474 453T518 349Q518 322 507 256L462 0H393L438 257L443 288Q447 311 447 331Q447 380 417 402T329 425Q266 425 199 407L127 0H58L140 461Q254 489 336 489ZM174 716H251L69 427H11Z" horiz-adv-x="574" unicode="ŉ"/>
			<glyph d="M162 695H213L573 127H577Q585 184 597 249L675 695H745L616 -35Q577 -258 370 -258Q326 -258 286 -248T223 -224L235 -156Q256 -170 292 -181T369 -192Q448 -192 490 -150T547 -35L557 20L209 566H207Q192 467 180 403L110 0H40Z" horiz-adv-x="746" unicode="Ŋ"/>
			<glyph d="M310 489Q405 489 448 453T492 349Q492 322 481 256L427 -53Q394 -244 233 -244Q198 -244 172 -237L182 -174Q203 -181 231 -181Q337 -181 360 -41L412 257L417 288Q421 311 421 331Q421 380 391 402T303 425Q240 425 173 407L101 0H32L114 461Q228 489 310 489Z" horiz-adv-x="548" unicode="ŋ"/>
			<glyph d="M452 707Q601 707 685 622T769 394Q769 285 726 192T597 44T386 -12Q245 -12 158 73T71 308Q71 417 113 507T242 652T452 707ZM447 637Q307 637 227 546T147 314Q147 193 214 125T393 58Q532 58 612 151T693 386Q693 503 628 570T447 637ZM359 831H593L584 778H350Z" horiz-adv-x="800" unicode="Ō"/>
			<glyph d="M309 489Q415 489 473 427T531 270Q531 144 463 65T266 -14Q167 -14 105 45T43 214Q43 336 114 412T309 489ZM304 424Q217 424 166 367T115 216Q115 138 157 94T271 51Q361 51 409 111T458 263Q458 338 416 381T304 424ZM221 652H455L446 600H212Z" horiz-adv-x="573" unicode="ō"/>
			<glyph d="M452 707Q601 707 685 622T769 394Q769 285 726 192T597 44T386 -12Q245 -12 158 73T71 308Q71 417 113 507T242 652T452 707ZM447 637Q307 637 227 546T147 314Q147 193 214 125T393 58Q532 58 612 151T693 386Q693 503 628 570T447 637ZM335 885H384L383 872Q383 834 406 820T471 807Q564 807 581 885H636Q610 759 468 759Q399 759 366 786T333 862Q333 869 335 885Z" horiz-adv-x="800" unicode="Ŏ"/>
			<glyph d="M309 489Q415 489 473 427T531 270Q531 144 463 65T266 -14Q167 -14 105 45T43 214Q43 336 114 412T309 489ZM304 424Q217 424 166 367T115 216Q115 138 157 94T271 51Q361 51 409 111T458 263Q458 338 416 381T304 424ZM210 706H253Q253 700 252 690Q252 615 333 615Q417 615 437 706H485Q470 642 431 606T330 571Q269 571 239 602T209 683Q209 698 210 706Z" horiz-adv-x="573" unicode="ŏ"/>
			<glyph d="M452 707Q601 707 685 622T769 394Q769 285 726 192T597 44T386 -12Q245 -12 158 73T71 308Q71 417 113 507T242 652T452 707ZM447 637Q307 637 227 546T147 314Q147 193 214 125T393 58Q532 58 612 151T693 386Q693 503 628 570T447 637ZM450 888H530L386 757H323ZM603 888H684L540 757H476Z" horiz-adv-x="800" unicode="Ő"/>
			<glyph d="M309 489Q415 489 473 427T531 270Q531 144 463 65T266 -14Q167 -14 105 45T43 214Q43 336 114 412T309 489ZM304 424Q217 424 166 367T115 216Q115 138 157 94T271 51Q361 51 409 111T458 263Q458 338 416 381T304 424ZM309 714H393L223 559H160ZM460 714H545L375 559H312Z" horiz-adv-x="573" unicode="ő"/>
			<glyph d="M443 707Q544 707 622 662L628 695H1053L1040 627H687L646 387H967L955 319H633L589 68H958L947 0H506L510 22Q442 -12 361 -12Q230 -12 150 73T71 309Q71 418 112 508T238 653T443 707ZM442 637Q303 637 225 546T147 313Q147 190 208 124T377 58Q461 58 522 94L610 591Q536 637 442 637Z" horiz-adv-x="1027" unicode="Œ"/>
			<glyph d="M306 489Q383 489 431 456T501 368Q531 424 583 456T706 489Q795 489 847 442T899 312Q899 286 894 261T884 220H525Q525 213 524 198Q524 131 564 90T684 49Q762 49 838 86L826 17Q791 2 755 -6T672 -14Q596 -14 548 17T481 105Q418 -14 266 -14Q167 -14 105 45T43 214Q43 334 113 411T306 489ZM703 429Q635 429 590 386T532 275H824Q829 292 829 312Q829 366 797 397T703 429ZM304 424Q217 424 166 367T115 216Q115 138 157 94T271 51Q361 51 409 111T458 263Q458 338 416 381T304 424Z" horiz-adv-x="924" unicode="œ"/>
			<glyph d="M162 695H381Q493 695 552 647T611 511Q611 418 554 359T396 286L556 0H471L321 276H160L112 0H40ZM222 629L172 343H340Q422 343 478 382T534 505Q534 563 494 596T370 629ZM437 887H519L376 757H314Z" horiz-adv-x="620" unicode="Ŕ"/>
			<glyph d="M288 489Q314 489 341 485T384 478L373 416Q328 425 284 425Q217 425 174 407L101 0H32L113 458Q195 489 288 489ZM320 712H401L241 560H178Z" horiz-adv-x="351" unicode="ŕ"/>
			<glyph d="M162 695H381Q493 695 552 647T611 511Q611 418 554 359T396 286L556 0H471L321 276H160L112 0H40ZM222 629L172 343H340Q422 343 478 382T534 505Q534 563 494 596T370 629ZM258 -59H334L215 -231H152Z" horiz-adv-x="620" unicode="Ŗ"/>
			<glyph d="M288 489Q314 489 341 485T384 478L373 416Q328 425 284 425Q217 425 174 407L101 0H32L113 458Q195 489 288 489ZM56 -59H132L13 -231H-50Z" horiz-adv-x="351" unicode="ŗ"/>
			<glyph d="M162 695H381Q493 695 552 647T611 511Q611 418 554 359T396 286L556 0H471L321 276H160L112 0H40ZM222 629L172 343H340Q422 343 478 382T534 505Q534 563 494 596T370 629ZM264 903H325L394 813L494 903H564L407 758H372Z" horiz-adv-x="620" unicode="Ř"/>
			<glyph d="M288 489Q314 489 341 485T384 478L373 416Q328 425 284 425Q217 425 174 407L101 0H32L113 458Q195 489 288 489ZM130 717H191L257 610L363 717H428L273 553H233Z" horiz-adv-x="351" unicode="ř"/>
			<glyph d="M362 707Q424 707 477 697T562 675L549 604Q462 638 357 638Q267 638 222 602T177 508Q177 460 210 433T339 375T475 303T515 195Q515 104 447 46T244 -12Q174 -12 115 2T22 34L33 107Q69 86 125 71T245 56Q336 56 387 89T438 189Q438 237 406 264T276 323T140 395T101 504Q101 596 171 651T362 707ZM415 887H497L354 757H292Z" horiz-adv-x="572" unicode="Ś"/>
			<glyph d="M261 489Q303 489 343 482T405 468L394 405Q330 430 259 430Q195 430 166 407T138 347Q138 315 164 298T255 259T347 208T374 132Q374 66 324 27T176 -12Q127 -12 84 -3T17 19L25 83Q52 68 92 57T175 47Q302 47 302 127Q302 171 250 191T163 224T98 264T68 344Q68 409 116 449T261 489ZM320 712H401L241 560H178Z" horiz-adv-x="437" unicode="ś"/>
			<glyph d="M362 707Q424 707 477 697T562 675L549 604Q462 638 357 638Q267 638 222 602T177 508Q177 460 210 433T339 375T475 303T515 195Q515 104 447 46T244 -12Q174 -12 115 2T22 34L33 107Q69 86 125 71T245 56Q336 56 387 89T438 189Q438 237 406 264T276 323T140 395T101 504Q101 596 171 651T362 707ZM372 904H407L515 759H454L385 849L285 759H215Z" horiz-adv-x="572" unicode="Ŝ"/>
			<glyph d="M261 489Q303 489 343 482T405 468L394 405Q330 430 259 430Q195 430 166 407T138 347Q138 315 164 298T255 259T347 208T374 132Q374 66 324 27T176 -12Q127 -12 84 -3T17 19L25 83Q52 68 92 57T175 47Q302 47 302 127Q302 171 250 191T163 224T98 264T68 344Q68 409 116 449T261 489ZM270 717H310L412 553H351L284 660L179 553H114Z" horiz-adv-x="437" unicode="ŝ"/>
			<glyph d="M362 707Q424 707 477 697T562 675L549 604Q462 638 357 638Q267 638 222 602T177 508Q177 460 210 433T339 375T475 303T515 195Q515 107 451 49T258 -12L234 -56Q274 -56 297 -74T320 -128Q320 -168 287 -195T191 -223Q150 -223 107 -210L115 -166Q158 -181 196 -181Q233 -181 251 -167T270 -132Q270 -90 213 -89L177 -88L221 -12Q159 -9 106 4T22 34L33 107Q69 86 125 71T245 56Q336 56 387 89T438 189Q438 237 406 264T276 323T140 395T101 504Q101 596 171 651T362 707Z" horiz-adv-x="572" unicode="Ş"/>
			<glyph d="M261 489Q303 489 343 482T405 468L394 405Q330 430 259 430Q195 430 166 407T138 347Q138 315 164 298T255 259T347 208T374 132Q374 69 329 30T192 -12L167 -56Q207 -56 230 -74T253 -128Q253 -168 220 -195T124 -223Q83 -223 40 -210L48 -166Q91 -181 129 -181Q166 -181 184 -167T203 -132Q203 -90 146 -89L110 -88L154 -11Q113 -11 76 -1T17 19L25 83Q52 68 92 57T175 47Q302 47 302 127Q302 171 250 191T163 224T98 264T68 344Q68 409 116 449T261 489Z" horiz-adv-x="437" unicode="ş"/>
			<glyph d="M362 707Q424 707 477 697T562 675L549 604Q462 638 357 638Q267 638 222 602T177 508Q177 460 210 433T339 375T475 303T515 195Q515 104 447 46T244 -12Q174 -12 115 2T22 34L33 107Q69 86 125 71T245 56Q336 56 387 89T438 189Q438 237 406 264T276 323T140 395T101 504Q101 596 171 651T362 707ZM242 903H303L372 813L472 903H542L385 758H350Z" horiz-adv-x="572" unicode="Š"/>
			<glyph d="M261 489Q303 489 343 482T405 468L394 405Q330 430 259 430Q195 430 166 407T138 347Q138 315 164 298T255 259T347 208T374 132Q374 66 324 27T176 -12Q127 -12 84 -3T17 19L25 83Q52 68 92 57T175 47Q302 47 302 127Q302 171 250 191T163 224T98 264T68 344Q68 409 116 449T261 489ZM130 717H191L257 610L363 717H428L273 553H233Z" horiz-adv-x="437" unicode="š"/>
			<glyph d="M85 695H624L611 628H378L268 0H197L306 628H73ZM221 -59H297L178 -231H115Z" unicode="Ţ"/>
			<glyph d="M155 617H224L199 477H352L341 416H189L155 225Q143 152 143 127Q143 52 208 52Q238 52 278 63L269 3Q231 -9 192 -9Q135 -9 104 22T74 116Q74 157 87 232L120 416H36L47 477H131ZM144 -59H220L101 -231H38Z" horiz-adv-x="338" unicode="ţ"/>
			<glyph d="M85 695H624L611 628H378L268 0H197L306 628H73ZM240 903H301L370 813L470 903H540L383 758H348Z" unicode="Ť"/>
			<glyph d="M155 617H224L199 477H352L341 416H189L155 225Q143 152 143 127Q143 52 208 52Q238 52 278 63L269 3Q231 -9 192 -9Q135 -9 104 22T74 116Q74 157 87 232L120 416H36L47 477H131ZM347 759H412L310 542H258Z" horiz-adv-x="338" unicode="ť"/>
			<glyph d="M85 695H624L611 628H378L332 363H518L506 298H320L268 0H197L249 298H62L74 363H260L306 628H73Z" unicode="Ŧ"/>
			<glyph d="M155 617H224L199 477H352L341 416H189L163 272H319L309 215H153Q143 149 143 127Q143 52 208 52Q238 52 278 63L269 3Q231 -9 192 -9Q135 -9 104 22T74 116Q74 154 84 215H4L14 272H95L120 416H36L47 477H131Z" horiz-adv-x="341" unicode="ŧ"/>
			<glyph d="M158 695H229L161 305Q149 240 149 194Q149 56 339 56Q430 56 519 82L628 695H699L581 30Q521 11 462 0T331 -12Q76 -12 76 184Q76 212 79 237T92 318ZM375 867Q415 867 447 836T503 805Q522 805 536 821T559 864H608Q594 816 566 786T502 757Q463 757 430 787T372 818Q332 818 317 760H270Q280 810 307 838T375 867Z" horiz-adv-x="700" unicode="Ũ"/>
			<glyph d="M112 477H181L137 225Q128 174 128 145Q128 52 250 52Q284 52 318 57T374 70L447 477H516L434 17Q335 -12 242 -12Q150 -12 103 24T57 130Q57 161 67 221ZM276 686Q316 686 348 655T404 624Q422 624 436 640T460 683H509Q495 635 467 605T402 576Q364 576 331 606T273 637Q251 637 237 621T217 579H170Q180 629 207 657T276 686Z" horiz-adv-x="548" unicode="ũ"/>
			<glyph d="M158 695H229L161 305Q149 240 149 194Q149 56 339 56Q430 56 519 82L628 695H699L581 30Q521 11 462 0T331 -12Q76 -12 76 184Q76 212 79 237T92 318ZM325 831H559L550 778H316Z" horiz-adv-x="700" unicode="Ū"/>
			<glyph d="M112 477H181L137 225Q128 174 128 145Q128 52 250 52Q284 52 318 57T374 70L447 477H516L434 17Q335 -12 242 -12Q150 -12 103 24T57 130Q57 161 67 221ZM226 652H460L451 600H217Z" horiz-adv-x="548" unicode="ū"/>
			<glyph d="M158 695H229L161 305Q149 240 149 194Q149 56 339 56Q430 56 519 82L628 695H699L581 30Q521 11 462 0T331 -12Q76 -12 76 184Q76 212 79 237T92 318ZM301 885H350L349 872Q349 834 372 820T437 807Q530 807 547 885H602Q576 759 434 759Q365 759 332 786T299 862Q299 869 301 885Z" horiz-adv-x="700" unicode="Ŭ"/>
			<glyph d="M112 477H181L137 225Q128 174 128 145Q128 52 250 52Q284 52 318 57T374 70L447 477H516L434 17Q335 -12 242 -12Q150 -12 103 24T57 130Q57 161 67 221ZM215 706H258Q258 700 257 690Q257 615 338 615Q422 615 442 706H490Q475 642 436 606T335 571Q274 571 244 602T214 683Q214 698 215 706Z" horiz-adv-x="548" unicode="ŭ"/>
			<glyph d="M158 695H229L161 305Q149 240 149 194Q149 56 339 56Q430 56 519 82L628 695H699L581 30Q521 11 462 0T331 -12Q76 -12 76 184Q76 212 79 237T92 318ZM442 956Q487 956 519 924T551 847Q551 802 519 770T442 739Q398 739 366 770T334 847Q334 893 366 924T442 956ZM442 914Q414 914 394 895T375 847Q375 820 395 800T442 780Q471 780 490 800T510 847Q510 876 490 895T442 914Z" horiz-adv-x="700" unicode="Ů"/>
			<glyph d="M112 477H181L137 225Q128 174 128 145Q128 52 250 52Q284 52 318 57T374 70L447 477H516L434 17Q335 -12 242 -12Q150 -12 103 24T57 130Q57 161 67 221ZM341 765Q386 765 417 733T449 656Q449 611 417 579T341 548Q296 548 264 579T232 656Q232 701 264 733T341 765ZM341 723Q313 723 293 704T274 656Q274 629 293 609T341 589Q369 589 389 609T409 656Q409 685 389 704T341 723Z" horiz-adv-x="548" unicode="ů"/>
			<glyph d="M158 695H229L161 305Q149 240 149 194Q149 56 339 56Q430 56 519 82L628 695H699L581 30Q521 11 462 0T331 -12Q76 -12 76 184Q76 212 79 237T92 318ZM416 888H496L352 757H289ZM569 888H650L506 757H442Z" horiz-adv-x="700" unicode="Ű"/>
			<glyph d="M112 477H181L137 225Q128 174 128 145Q128 52 250 52Q284 52 318 57T374 70L447 477H516L434 17Q335 -12 242 -12Q150 -12 103 24T57 130Q57 161 67 221ZM314 714H398L228 559H165ZM465 714H550L380 559H317Z" horiz-adv-x="548" unicode="ű"/>
			<glyph d="M158 695H229L161 305Q149 240 149 194Q149 56 339 56Q430 56 519 82L628 695H699L581 30Q512 -20 477 -57T442 -129Q442 -148 453 -160T484 -172Q505 -172 523 -165L543 -157L536 -201Q504 -215 474 -215Q436 -215 415 -195T394 -140Q394 -102 419 -66T498 6Q413 -12 331 -12Q76 -12 76 184Q76 212 79 237T92 318Z" horiz-adv-x="700" unicode="Ų"/>
			<glyph d="M112 477H181L137 225Q128 174 128 145Q128 52 250 52Q284 52 318 57T374 70L447 477H516L434 17Q369 -32 339 -65T309 -135Q309 -153 319 -162T348 -172Q372 -172 390 -165L409 -157L402 -201Q372 -215 340 -215Q302 -215 281 -196T260 -143Q260 -105 284 -70T355 -2Q298 -12 242 -12Q150 -12 103 24T57 130Q57 161 67 221Z" horiz-adv-x="548" unicode="ų"/>
			<glyph d="M100 695H171L228 212Q235 156 237 109H239Q267 166 294 217L549 695H606L677 191Q685 127 686 103H688Q704 138 740 212L980 695H1059L704 -5H638L577 428L570 481Q563 535 558 582H556Q532 531 476 426L249 -5H188ZM595 904H630L738 759H677L608 849L508 759H438Z" horiz-adv-x="997" unicode="Ŵ"/>
			<glyph d="M56 477H124L173 159Q179 124 181 85H184Q202 126 230 176L398 477H458L517 159Q524 123 528 86H530Q547 125 565 159L737 477H813L550 0H485L429 284L424 313Q414 367 413 387H410Q394 349 356 283L199 0H133ZM454 717H494L596 553H535L468 660L363 553H298Z" horiz-adv-x="784" unicode="ŵ"/>
			<glyph d="M64 695H142L289 332L570 695H658L318 260L272 0H201L246 259ZM365 904H400L508 759H447L378 849L278 759H208Z" horiz-adv-x="560" unicode="Ŷ"/>
			<glyph d="M32 477H104L163 209Q183 115 188 77H190Q224 141 265 207L425 477H505L73 -235H-4L141 5ZM284 717H324L426 553H365L298 660L193 553H128Z" horiz-adv-x="453" unicode="ŷ"/>
			<glyph d="M64 695H142L289 332L570 695H658L318 260L272 0H201L246 259ZM264 837H335L322 765H251ZM413 837H484L471 765H400Z" horiz-adv-x="560" unicode="Ÿ"/>
			<glyph d="M133 695H668L658 640L101 67H571L560 0H-14L-5 56L548 628H120ZM452 887H534L391 757H329Z" horiz-adv-x="625" unicode="Ź"/>
			<glyph d="M78 477H462L454 426L89 62H400L390 0H-18L-10 51L356 415H67ZM336 712H417L257 560H194Z" horiz-adv-x="451" unicode="ź"/>
			<glyph d="M133 695H668L658 640L101 67H571L560 0H-14L-5 56L548 628H120ZM379 843H459L444 762H364Z" horiz-adv-x="625" unicode="Ż"/>
			<glyph d="M78 477H462L454 426L89 62H400L390 0H-18L-10 51L356 415H67ZM261 672H341L326 592H246Z" horiz-adv-x="451" unicode="ż"/>
			<glyph d="M133 695H668L658 640L101 67H571L560 0H-14L-5 56L548 628H120ZM279 903H340L409 813L509 903H579L422 758H387Z" horiz-adv-x="625" unicode="Ž"/>
			<glyph d="M78 477H462L454 426L89 62H400L390 0H-18L-10 51L356 415H67ZM146 717H207L273 610L379 717H444L289 553H249Z" horiz-adv-x="451" unicode="ž"/>
			<glyph d="M497 707Q546 707 594 693L576 634Q574 634 552 640T496 646Q440 646 408 614T358 519L331 430H480L463 370H314L245 139Q189 -55 34 -55Q-6 -55 -32 -45L-16 17Q14 8 36 8Q86 8 119 42T175 148L241 370H168L185 430H258L288 527Q317 619 366 663T497 707Z" horiz-adv-x="551" unicode="ƒ"/>
			<glyph d="M362 707Q424 707 477 697T562 675L549 604Q462 638 357 638Q267 638 222 602T177 508Q177 460 210 433T339 375T475 303T515 195Q515 104 447 46T244 -12Q174 -12 115 2T22 34L33 107Q69 86 125 71T245 56Q336 56 387 89T438 189Q438 237 406 264T276 323T140 395T101 504Q101 596 171 651T362 707ZM233 -59H309L190 -231H127Z" horiz-adv-x="572" unicode="Ș"/>
			<glyph d="M261 489Q303 489 343 482T405 468L394 405Q330 430 259 430Q195 430 166 407T138 347Q138 315 164 298T255 259T347 208T374 132Q374 66 324 27T176 -12Q127 -12 84 -3T17 19L25 83Q52 68 92 57T175 47Q302 47 302 127Q302 171 250 191T163 224T98 264T68 344Q68 409 116 449T261 489ZM166 -59H242L123 -231H60Z" horiz-adv-x="437" unicode="ș"/>
			<glyph d="M85 695H624L611 628H378L268 0H197L306 628H73ZM221 -59H297L178 -231H115Z" unicode="Ț"/>
			<glyph d="M155 617H224L199 477H352L341 416H189L155 225Q143 152 143 127Q143 52 208 52Q238 52 278 63L269 3Q231 -9 192 -9Q135 -9 104 22T74 116Q74 157 87 232L120 416H36L47 477H131ZM144 -59H220L101 -231H38Z" horiz-adv-x="338" unicode="ț"/>
			<glyph d="M116 477H185L92 -53Q58 -244 -102 -244Q-138 -244 -164 -237L-154 -174Q-133 -181 -105 -181Q-51 -181 -19 -145T25 -41Z" horiz-adv-x="217" unicode="ȷ"/>
			<glyph d="M221 716H261L363 552H302L235 659L130 552H65Z" horiz-adv-x="317" unicode="ˆ"/>
			<glyph d="M94 716H155L221 609L327 716H392L237 552H197Z" horiz-adv-x="318" unicode="ˇ"/>
			<glyph d="M95 651H329L320 599H86Z" horiz-adv-x="279" unicode="ˉ"/>
			<glyph d="M84 705H127Q127 699 126 689Q126 614 207 614Q291 614 311 705H359Q344 641 305 605T204 570Q143 570 113 601T83 682Q83 697 84 705Z" horiz-adv-x="277" unicode="˘"/>
			<glyph d="M178 671H258L243 591H163Z" horiz-adv-x="279" unicode="˙"/>
			<glyph d="M214 764Q259 764 290 732T322 655Q322 610 290 578T214 547Q169 547 137 578T105 655Q105 700 137 732T214 764ZM214 722Q186 722 166 703T147 655Q147 628 166 608T214 588Q242 588 262 608T282 655Q282 684 262 703T214 722Z" horiz-adv-x="282" unicode="˚"/>
			<glyph d="M114 0H165Q101 -43 72 -72T43 -135Q43 -172 83 -172Q105 -172 123 -165L144 -157L137 -201Q105 -215 75 -215Q36 -215 15 -196T-6 -143Q-6 -104 25 -69T114 0Z" horiz-adv-x="288" unicode="˛"/>
			<glyph d="M149 686Q189 686 221 655T277 624Q295 624 309 640T333 683H382Q368 635 340 605T275 576Q237 576 204 606T146 637Q124 637 110 621T90 579H43Q53 629 80 657T149 686Z" horiz-adv-x="287" unicode="˜"/>
			<glyph d="M219 713H303L133 558H70ZM370 713H455L285 558H222Z" horiz-adv-x="319" unicode="˝"/>
			<glyph d="M249 731H312L207 559H131Z" horiz-adv-x="0" unicode="̒"/>
			<glyph d="M92 -59H168L49 -231H-14Z" horiz-adv-x="0" unicode="̦"/>
			<glyph d="M379 697H446L611 0H-29ZM397 597L89 67H521L399 597Z" horiz-adv-x="667" unicode="Δ"/>
			<glyph d="M425 708Q569 708 650 629T731 423Q731 292 664 208T494 97L489 65H686L675 0H411L433 133Q535 148 596 226T658 419Q658 519 596 582T420 645Q286 645 213 561T141 357Q141 265 184 208T302 133L278 0H17L28 65H223L230 103Q158 131 114 198T70 359Q70 460 115 541T238 665T425 708Z" horiz-adv-x="764" unicode="Ω"/>
			<glyph d="M116 477H185L142 225Q132 167 132 145Q132 97 163 74T256 52Q290 52 323 57T379 70L452 477H520L438 17Q341 -12 253 -12Q204 -12 163 1T110 43L57 -251H-12Z" horiz-adv-x="554" unicode="μ"/>
			<glyph d="M221 477H621L609 411H508L458 127Q455 109 455 95Q455 75 463 66T491 57Q513 57 541 67L531 6Q501 -6 463 -6Q380 -6 380 80Q380 98 383 119L435 411H237L187 135Q175 57 157 0H83Q97 43 115 135L164 411Q107 411 61 400L73 465Q136 477 221 477Z" horiz-adv-x="620" unicode="π"/>
			<glyph d="M162 695H587L575 627H222L180 387H501L489 319H168L123 68H493L481 0H40ZM291 887H370L446 757H386Z" horiz-adv-x="562" unicode="Ѐ"/>
			<glyph d="M162 695H587L575 627H222L180 387H501L489 319H168L123 68H493L481 0H40ZM290 837H361L348 765H277ZM439 837H510L497 765H426Z" horiz-adv-x="562" unicode="Ё"/>
			<glyph d="M85 695H624L611 628H378L338 403Q423 435 499 435Q600 435 656 382T713 237Q713 123 641 53T450 -17Q413 -17 385 -10L397 57Q405 54 422 52T457 50Q544 50 592 98T640 227Q640 366 484 366Q441 366 398 356T325 332L267 0H196L306 628H73Z" horiz-adv-x="750" unicode="Ђ"/>
			<glyph d="M162 695H569L558 628H223L112 0H40ZM416 887H498L355 757H293Z" horiz-adv-x="493" unicode="Ѓ"/>
			<glyph d="M451 707Q583 707 680 661L667 588Q572 637 451 637Q331 637 253 569T155 387H516L504 319H149V314Q149 194 217 126T401 58Q463 58 510 71T606 109L594 31Q497 -12 385 -12Q240 -12 156 75T72 312Q72 489 175 598T451 707Z" horiz-adv-x="667" unicode="Є"/>
			<glyph d="M362 707Q424 707 477 697T562 675L549 604Q462 638 357 638Q267 638 222 602T177 508Q177 460 210 433T339 375T475 303T515 195Q515 104 447 46T244 -12Q174 -12 115 2T22 34L33 107Q69 86 125 71T245 56Q336 56 387 89T438 189Q438 237 406 264T276 323T140 395T101 504Q101 596 171 651T362 707Z" horiz-adv-x="572" unicode="Ѕ"/>
			<glyph d="M162 695H234L112 0H40Z" horiz-adv-x="235" unicode="І"/>
			<glyph d="M162 695H234L112 0H40ZM112 837H183L170 765H99ZM261 837H332L319 765H248Z" horiz-adv-x="235" unicode="Ї"/>
			<glyph d="M422 695H494L415 247Q393 119 327 53T136 -12Q86 -12 44 -1T-25 24L-15 93Q9 79 50 67T137 55Q231 55 279 106T344 253Z" horiz-adv-x="491" unicode="Ј"/>
			<glyph d="M321 695H658L610 419H747Q867 419 926 367T985 226Q985 122 917 61T725 0H465L575 628H372Q306 367 243 229T115 41T-34 -10L-21 60Q35 60 84 105T193 288T321 695ZM599 353L548 67H729Q823 67 865 110T907 221Q907 284 865 318T743 353Z" horiz-adv-x="1024" unicode="Љ"/>
			<glyph d="M163 695H234L181 392H564L617 695H688L640 419H777Q897 419 956 367T1015 226Q1015 122 947 61T755 0H495L552 325H169L111 0H40ZM629 353L578 67H759Q853 67 895 110T937 221Q937 284 895 318T773 353Z" horiz-adv-x="1054" unicode="Њ"/>
			<glyph d="M85 695H624L611 628H378L338 404Q418 430 489 430Q604 430 658 383T712 242Q712 216 705 172L675 0H603L634 172Q640 205 640 231Q640 299 602 330T481 361Q440 361 398 352T326 334L267 0H196L306 628H73Z" horiz-adv-x="798" unicode="Ћ"/>
			<glyph d="M162 695H234L174 354H175L565 695H670L262 346L548 0H454L174 347H173L112 0H40ZM447 887H529L386 757H324Z" horiz-adv-x="599" unicode="Ќ"/>
			<glyph d="M162 695H232L153 248Q143 185 130 126H134L688 695H745L623 0H553L624 404L633 452Q647 530 655 567H653L97 0H40ZM364 887H443L519 757H459Z" horiz-adv-x="746" unicode="Ѝ"/>
			<glyph d="M86 695H165L310 244L589 695H673L318 131Q270 54 222 21T99 -12Q61 -12 31 -4L43 63Q75 55 106 55Q150 55 184 76T250 148L264 171ZM244 891H297V882Q297 847 318 828T381 809Q425 809 454 830T493 891H547Q532 827 486 793T373 760Q311 760 277 787T243 868Q243 883 244 891Z" horiz-adv-x="597" unicode="Ў"/>
			<glyph d="M162 695H234L123 68H509L620 695H691L569 0H339L311 -160H243L271 0H40Z" horiz-adv-x="693" unicode="Џ"/>
			<glyph d="M379 695H446L619 0H544L492 210H165L39 0H-43ZM397 603L202 275H477L399 603Z" horiz-adv-x="660" unicode="А"/>
			<glyph d="M162 695H599L588 628H222L185 415H327Q444 415 502 364T560 225Q560 121 492 60T300 0H40ZM174 349L123 67H304Q398 67 440 109T482 219Q482 282 441 315T318 349Z" horiz-adv-x="608" unicode="Б"/>
			<glyph d="M162 695H380Q493 695 545 650T598 532Q598 465 556 419T439 359V357Q498 347 533 309T569 209Q569 103 490 51T274 0H40ZM223 631L182 392H330Q409 392 463 423T517 523Q517 631 363 631ZM170 327L124 66H277Q377 66 434 97T491 210Q491 265 449 296T324 327Z" horiz-adv-x="619" unicode="В"/>
			<glyph d="M162 695H569L558 628H223L112 0H40Z" horiz-adv-x="493" unicode="Г"/>
			<glyph d="M295 695H650L540 68H610L570 -160H503L531 0H36L8 -160H-59L-20 68H40Q111 154 170 291T295 695ZM347 628Q291 412 237 281T123 68H468L568 628Z" horiz-adv-x="661" unicode="Д"/>
			<glyph d="M162 695H587L575 627H222L180 387H501L489 319H168L123 68H493L481 0H40Z" horiz-adv-x="562" unicode="Е"/>
			<glyph d="M94 695H181L404 353H406L465 695H537L476 353H478L808 695H909L561 346L792 0H703L477 346H476L414 0H343L404 346H403L67 0H-35L321 357Z" horiz-adv-x="841" unicode="Ж"/>
			<glyph d="M319 707Q431 707 483 661T535 541Q535 474 484 422T356 355V353Q490 320 490 190Q490 102 410 45T196 -12Q138 -12 85 0T-1 26L12 100Q41 81 94 68T200 56Q300 56 356 93T413 190Q413 317 223 317H140L152 384H228Q329 384 392 425T456 530Q456 582 419 611T307 640Q259 640 207 625T117 592L130 667Q166 683 217 695T319 707Z" horiz-adv-x="542" unicode="З"/>
			<glyph d="M162 695H232L153 248Q143 185 130 126H134L688 695H745L623 0H553L624 404L633 452Q647 530 655 567H653L97 0H40Z" horiz-adv-x="746" unicode="И"/>
			<glyph d="M162 695H232L153 248Q143 185 130 126H134L688 695H745L623 0H553L624 404L633 452Q647 530 655 567H653L97 0H40ZM330 891H383V882Q383 847 404 828T467 809Q511 809 540 830T579 891H633Q618 827 572 793T459 760Q397 760 363 787T329 868Q329 883 330 891Z" horiz-adv-x="746" unicode="Й"/>
			<glyph d="M162 695H234L174 354H175L565 695H670L262 346L548 0H454L174 347H173L112 0H40Z" horiz-adv-x="599" unicode="К"/>
			<glyph d="M321 695H666L543 0H472L583 628H372Q306 367 243 229T115 41T-34 -10L-21 60Q35 60 84 105T193 288T321 695Z" horiz-adv-x="667" unicode="Л"/>
			<glyph d="M162 695H236L408 127H410L783 695H864L742 0H675L773 561H771L422 28H369L208 561H206L107 0H40Z" horiz-adv-x="865" unicode="М"/>
			<glyph d="M162 695H234L180 392H591L645 695H716L594 0H523L579 325H168L112 0H40Z" horiz-adv-x="718" unicode="Н"/>
			<glyph d="M452 707Q601 707 685 622T769 394Q769 285 726 192T597 44T386 -12Q245 -12 158 73T71 308Q71 417 113 507T242 652T452 707ZM447 637Q307 637 227 546T147 314Q147 193 214 125T393 58Q532 58 612 151T693 386Q693 503 628 570T447 637Z" horiz-adv-x="800" unicode="О"/>
			<glyph d="M162 695H696L574 0H503L614 628H222L112 0H40Z" horiz-adv-x="698" unicode="П"/>
			<glyph d="M162 695H361Q481 695 543 641T605 496Q605 382 528 313T307 245H154L112 0H40ZM222 628L167 313H307Q421 313 473 362T526 487Q526 553 485 590T356 628Z" horiz-adv-x="597" unicode="Р"/>
			<glyph d="M451 707Q583 707 680 661L667 588Q572 637 451 637Q314 637 231 549T149 314Q149 194 217 126T401 58Q463 58 510 71T606 109L594 31Q497 -12 385 -12Q240 -12 156 75T72 312Q72 489 175 598T451 707Z" horiz-adv-x="667" unicode="С"/>
			<glyph d="M85 695H624L611 628H378L268 0H197L306 628H73Z" unicode="Т"/>
			<glyph d="M86 695H165L310 244L589 695H673L318 131Q270 54 222 21T99 -12Q61 -12 31 -4L43 63Q75 55 106 55Q150 55 184 76T250 148L264 171Z" horiz-adv-x="597" unicode="У"/>
			<glyph d="M465 715H536L522 638Q650 632 725 562T800 381Q800 236 700 148T420 57L406 -20H335L348 57Q221 63 145 133T70 315Q70 456 170 545T451 638ZM439 571Q298 567 222 499T146 323Q146 232 204 181T361 125ZM511 571L432 125Q577 129 650 196T724 373Q724 465 666 515T511 571Z" horiz-adv-x="832" unicode="Ф"/>
			<glyph d="M90 695H174L330 397L591 695H686L370 340L561 0H477L315 290L60 0H-35L276 351Z" horiz-adv-x="612" unicode="Х"/>
			<glyph d="M162 695H234L123 68H509L620 695H691L581 68H656L615 -160H548L576 0H40Z" horiz-adv-x="707" unicode="Ц"/>
			<glyph d="M131 695H202L172 525Q166 494 166 467Q166 398 207 367T342 336Q391 336 441 344T527 362L586 695H657L534 0H463L515 294Q420 268 334 268Q210 268 152 314T94 455Q94 482 101 526Z" horiz-adv-x="658" unicode="Ч"/>
			<glyph d="M162 695H234L123 68H432L542 695H614L503 68H812L922 695H994L872 0H40Z" horiz-adv-x="995" unicode="Ш"/>
			<glyph d="M162 695H234L123 68H432L542 695H614L503 68H812L922 695H994L884 68H960L920 -160H852L880 0H40Z" horiz-adv-x="1011" unicode="Щ"/>
			<glyph d="M85 695H390L342 419H479Q598 419 657 367T717 226Q717 122 648 61T457 0H197L306 628H73ZM331 353L280 67H461Q555 67 597 110T639 221Q639 284 597 318T475 353Z" horiz-adv-x="756" unicode="Ъ"/>
			<glyph d="M162 695H234L185 419H323Q442 419 501 367T560 226Q560 122 492 61T300 0H40ZM174 353L123 67H304Q398 67 440 110T482 221Q482 284 441 318T319 353ZM739 695H811L689 0H617Z" horiz-adv-x="812" unicode="Ы"/>
			<glyph d="M162 695H234L185 419H323Q442 419 501 367T560 226Q560 122 492 61T300 0H40ZM174 353L123 67H304Q398 67 440 110T482 221Q482 284 441 318T319 353Z" horiz-adv-x="600" unicode="Ь"/>
			<glyph d="M319 707Q464 707 548 619T632 383Q632 206 528 97T253 -12Q121 -12 24 34L37 107Q132 58 253 58Q373 58 451 125T549 308H188L200 376H555V381Q555 501 487 569T303 637Q241 637 193 623T98 586L110 664Q207 707 319 707Z" horiz-adv-x="666" unicode="Э"/>
			<glyph d="M653 707Q792 707 871 623T950 394Q950 285 909 193T788 44T587 -12Q455 -12 373 73T292 308V317H168L112 0H40L162 695H234L179 382H297Q318 530 411 618T653 707ZM648 637Q518 637 443 546T368 314Q368 191 430 124T594 58Q724 58 799 152T874 386Q874 505 813 571T648 637Z" horiz-adv-x="982" unicode="Ю"/>
			<glyph d="M368 695H620L497 0H425L474 276H316L74 0H-19L238 292Q174 312 138 359T102 476Q102 573 164 634T368 695ZM364 629Q267 629 222 589T178 480Q178 420 216 381T336 343H486L536 629Z" horiz-adv-x="621" unicode="Я"/>
			<glyph d="M284 489Q365 489 409 451T453 341Q453 307 443 249L403 22Q306 -13 213 -13Q118 -13 74 26T30 131Q30 207 85 247T250 288Q292 288 333 282T379 276Q386 318 386 330Q386 375 358 400T270 426Q227 426 189 417T113 393L125 459Q156 471 197 480T284 489ZM247 233Q99 233 99 136Q99 92 130 69T222 47Q254 47 281 52T344 66L371 223L328 229Q293 233 247 233Z" horiz-adv-x="510" unicode="а"/>
			<glyph d="M581 741L570 675Q440 648 353 626T214 542T138 391L140 389Q173 433 222 457T336 482Q428 482 483 425T538 266Q538 148 462 67T274 -14Q163 -14 106 53T49 238Q49 327 75 419T165 586T343 688T581 741ZM315 419Q225 419 172 362T119 220Q119 145 159 97T279 50Q362 50 414 110T466 261Q466 334 425 376T315 419Z" horiz-adv-x="580" unicode="б"/>
			<glyph d="M116 477H306Q466 477 466 361Q466 314 438 284T359 246V245Q397 238 421 212T445 144Q445 77 397 38T251 0H32ZM175 418L149 272H278Q394 272 394 351Q394 418 299 418ZM139 219L111 58H248Q375 58 375 144Q375 181 349 200T267 219Z" horiz-adv-x="501" unicode="в"/>
			<glyph d="M116 477H433L422 413H173L100 0H32Z" horiz-adv-x="403" unicode="г"/>
			<glyph d="M205 477H503L429 64H495L456 -160H392L420 0H33L5 -160H-60L-21 64H34Q82 121 122 213T205 477ZM252 413Q220 285 185 201T112 64H361L422 413Z" horiz-adv-x="548" unicode="д"/>
			<glyph d="M299 489Q388 489 440 442T492 312Q492 286 487 261T477 220H118Q118 213 117 198Q117 131 157 90T277 49Q355 49 431 86L419 17Q384 2 348 -6T265 -14Q155 -14 99 46T43 209Q43 332 113 410T299 489ZM296 429Q228 429 183 386T125 275H417Q422 292 422 312Q422 366 390 397T296 429Z" horiz-adv-x="516" unicode="е"/>
			<glyph d="M58 477H142L295 255H297L337 477H405L366 255H368L591 477H684L446 248L600 0H518L367 249H365L321 0H252L296 249H294L64 0H-27L216 256Z" horiz-adv-x="658" unicode="ж"/>
			<glyph d="M230 487Q315 487 357 456T400 367Q400 322 370 288T274 241V240Q373 217 373 137Q373 76 320 31T149 -13Q102 -13 60 -5T-9 14L4 79Q25 66 66 56T148 47Q230 47 265 72T301 135Q301 211 160 211H96L106 269H165Q252 269 290 294T329 360Q329 427 217 427Q180 427 140 417T72 395L83 460Q111 471 150 479T230 487Z" horiz-adv-x="429" unicode="з"/>
			<glyph d="M116 477H185L134 187Q130 162 120 112H122L484 477H541L457 0H389L439 286Q443 311 453 361H451L90 0H32Z" horiz-adv-x="573" unicode="и"/>
			<glyph d="M116 477H185L134 187Q130 162 120 112H122L484 477H541L457 0H389L439 286Q443 311 453 361H451L90 0H32ZM219 689H271V680Q271 641 288 619T346 598Q388 598 415 622T454 689H507Q491 622 447 585T338 549Q279 549 248 579T217 664Q217 671 219 689Z" horiz-adv-x="573" unicode="й"/>
			<glyph d="M116 477H185L145 257H147L410 477H510L232 248L422 0H334L146 251H144L100 0H32Z" horiz-adv-x="483" unicode="к"/>
			<glyph d="M203 477H492L408 0H339L412 413H253Q199 199 134 96T-37 -7L-25 59Q46 59 99 164T203 477Z" horiz-adv-x="524" unicode="л"/>
			<glyph d="M116 477H204L317 110H318L563 477H652L568 0H504L571 383H569L327 16H279L165 382H163L95 0H32Z" horiz-adv-x="684" unicode="м"/>
			<glyph d="M116 477H185L149 275H423L459 477H528L444 0H375L413 212H139L101 0H32Z" horiz-adv-x="560" unicode="н"/>
			<glyph d="M309 489Q415 489 473 427T531 270Q531 144 463 65T266 -14Q167 -14 105 45T43 214Q43 336 114 412T309 489ZM304 424Q217 424 166 367T115 216Q115 138 157 94T271 51Q361 51 409 111T458 263Q458 338 416 381T304 424Z" horiz-adv-x="573" unicode="о"/>
			<glyph d="M116 477H520L436 0H368L440 413H174L101 0H32Z" horiz-adv-x="552" unicode="п"/>
			<glyph d="M291 489Q405 489 464 431T523 272Q523 153 446 69T234 -14Q196 -14 161 -7T102 9L55 -259H-14L111 447Q204 489 291 489ZM285 424Q224 424 172 402L114 78Q136 67 168 59T236 51Q337 51 393 109T450 270Q450 344 407 384T285 424Z" horiz-adv-x="563" unicode="р"/>
			<glyph d="M325 489Q408 489 468 458L456 390Q399 425 317 425Q227 425 171 366T115 213Q115 135 161 92T274 50Q350 50 414 81L403 13Q341 -14 260 -14Q165 -14 103 46T42 211Q42 337 122 413T325 489Z" horiz-adv-x="473" unicode="с"/>
			<glyph d="M55 477H486L475 413H294L221 0H152L225 413H44Z" horiz-adv-x="457" unicode="т"/>
			<glyph d="M32 477H104L163 209Q183 115 188 77H190Q224 141 265 207L425 477H505L73 -235H-4L141 5Z" horiz-adv-x="453" unicode="у"/>
			<glyph d="M401 738H466L422 489Q528 482 589 424T650 270Q650 144 563 67T333 -14L294 -235H229L268 -14Q162 -8 101 50T41 206Q41 331 127 407T357 489ZM345 424Q238 420 175 362T113 212Q113 139 157 97T280 51ZM410 424L345 51Q453 55 515 112T578 263Q578 337 534 378T410 424Z" horiz-adv-x="691" unicode="ф"/>
			<glyph d="M46 477H128L241 290L414 477H505L277 239L430 0H346L227 191L49 0H-42L191 243Z" horiz-adv-x="468" unicode="х"/>
			<glyph d="M116 477H185L112 64H379L451 477H520L447 64H517L478 -160H413L441 0H32Z" horiz-adv-x="569" unicode="ц"/>
			<glyph d="M82 477H151L131 366Q126 343 126 327Q126 282 154 259T250 236Q279 236 312 241T367 253L407 477H476L391 0H323L357 188Q286 173 230 173Q138 173 97 210T57 318Q57 337 62 367Z" horiz-adv-x="507" unicode="ч"/>
			<glyph d="M116 477H185L112 64H324L396 477H465L392 64H604L677 477H745L662 0H32Z" horiz-adv-x="777" unicode="ш"/>
			<glyph d="M116 477H185L112 64H324L396 477H465L392 64H604L677 477H745L673 64H738L699 -160H635L663 0H32Z" horiz-adv-x="790" unicode="щ"/>
			<glyph d="M59 477H289L259 306H371Q452 306 495 267T538 162Q538 91 487 45T338 0H136L209 413H48ZM249 247L215 60H339Q406 60 437 86T469 158Q469 198 442 222T362 247Z" horiz-adv-x="581" unicode="ъ"/>
			<glyph d="M116 477H185L154 306H266Q348 306 391 267T434 163Q434 92 383 46T233 0H32ZM144 247L111 60H234Q301 60 332 86T364 159Q364 199 337 223T257 247ZM552 477H621L537 0H469Z" horiz-adv-x="653" unicode="ы"/>
			<glyph d="M116 477H185L154 306H266Q348 306 391 267T434 163Q434 92 383 46T233 0H32ZM144 247L111 60H234Q301 60 332 86T364 159Q364 199 337 223T257 247Z" horiz-adv-x="476" unicode="ь"/>
			<glyph d="M212 491Q307 491 369 431T431 266Q431 140 351 64T148 -12Q65 -12 3 19L15 84Q78 49 156 49Q235 49 288 94T355 215H88L97 270H359Q357 348 311 388T198 429Q124 429 59 400L71 464Q133 491 212 491Z" horiz-adv-x="473" unicode="э"/>
			<glyph d="M488 489Q589 489 644 428T700 270Q700 144 634 65T445 -14Q350 -14 291 44T231 211H138L100 0H32L116 477H185L147 266H235Q249 365 314 427T488 489ZM483 424Q401 424 352 367T303 216Q303 138 343 94T450 51Q536 51 582 111T628 263Q628 338 588 381T483 424Z" horiz-adv-x="743" unicode="ю"/>
			<glyph d="M246 477H455L370 0H302L334 181H213L54 0H-27L147 194Q104 209 81 241T58 321Q58 387 104 432T246 477ZM242 416Q182 416 154 391T127 324Q127 287 149 263T222 240H344L375 416Z" horiz-adv-x="486" unicode="я"/>
			<glyph d="M299 489Q388 489 440 442T492 312Q492 286 487 261T477 220H118Q118 213 117 198Q117 131 157 90T277 49Q355 49 431 86L419 17Q384 2 348 -6T265 -14Q155 -14 99 46T43 209Q43 332 113 410T299 489ZM296 429Q228 429 183 386T125 275H417Q422 292 422 312Q422 366 390 397T296 429ZM207 712H278L364 560H305Z" horiz-adv-x="516" unicode="ѐ"/>
			<glyph d="M299 489Q388 489 440 442T492 312Q492 286 487 261T477 220H118Q118 213 117 198Q117 131 157 90T277 49Q355 49 431 86L419 17Q384 2 348 -6T265 -14Q155 -14 99 46T43 209Q43 332 113 410T299 489ZM296 429Q228 429 183 386T125 275H417Q422 292 422 312Q422 366 390 397T296 429ZM220 660H291L278 588H207ZM369 660H440L427 588H356Z" horiz-adv-x="516" unicode="ё"/>
			<glyph d="M162 738H231L212 640H402L391 579H202L180 455Q220 471 255 480T333 489Q407 489 449 452T492 350Q492 322 480 248L426 -53Q394 -244 233 -244Q197 -244 171 -237L181 -174Q202 -181 230 -181Q335 -181 360 -41L411 246Q421 310 421 334Q421 378 392 401T310 425Q241 425 169 390L101 0H32L134 579H58L69 640H145Z" unicode="ђ"/>
			<glyph d="M116 477H433L422 413H173L100 0H32ZM352 712H433L273 560H210Z" horiz-adv-x="403" unicode="ѓ"/>
			<glyph d="M325 489Q407 489 469 458L457 393Q394 428 317 428Q240 428 187 385T120 270H386L376 215H114V213Q114 133 160 90T274 48Q316 48 352 57T414 77L403 13Q341 -14 260 -14Q165 -14 103 46T42 211Q42 337 122 413T325 489Z" horiz-adv-x="473" unicode="є"/>
			<glyph d="M261 489Q303 489 343 482T405 468L394 405Q330 430 259 430Q195 430 166 407T138 347Q138 315 164 298T255 259T347 208T374 132Q374 66 324 27T176 -12Q127 -12 84 -3T17 19L25 83Q52 68 92 57T175 47Q302 47 302 127Q302 171 250 191T163 224T98 264T68 344Q68 409 116 449T261 489Z" horiz-adv-x="437" unicode="ѕ"/>
			<glyph d="M145 671H225L210 591H130ZM115 477H184L101 0H32Z" horiz-adv-x="216" unicode="і"/>
			<glyph d="M116 477H185L101 0H33ZM73 660H144L131 588H60ZM222 660H293L280 588H209Z" horiz-adv-x="217" unicode="ї"/>
			<glyph d="M145 671H225L211 591H131ZM116 477H185L92 -53Q58 -244 -102 -244Q-138 -244 -164 -237L-154 -174Q-133 -181 -105 -181Q-51 -181 -19 -145T25 -41Z" horiz-adv-x="216" unicode="ј"/>
			<glyph d="M203 477H492L461 306H573Q655 306 698 267T741 162Q741 91 690 45T540 0H339L412 413H253Q199 199 134 96T-37 -7L-25 59Q46 59 99 164T203 477ZM451 247L418 60H541Q608 60 639 86T671 158Q671 198 644 222T564 247Z" horiz-adv-x="783" unicode="љ"/>
			<glyph d="M116 477H185L151 285H415L449 477H518L487 306H599Q681 306 724 267T767 162Q767 91 716 45T566 0H365L404 222H140L101 0H32ZM477 247L444 60H567Q634 60 665 86T697 158Q697 198 670 222T590 247Z" horiz-adv-x="809" unicode="њ"/>
			<glyph d="M162 738H230L213 640H402L391 579H202L180 455Q218 471 254 480T333 489Q407 489 449 452T492 350Q492 319 479 248L436 0H367L410 246Q420 302 420 334Q420 378 391 401T310 425Q241 425 169 390L100 0H32L134 579H58L69 640H145Z" unicode="ћ"/>
			<glyph d="M344 711H425L265 559H202ZM116 477H185L145 257H147L410 477H510L232 248L422 0H334L146 251H144L100 0H32Z" horiz-adv-x="483" unicode="ќ"/>
			<glyph d="M116 477H185L134 187Q130 162 120 112H122L484 477H541L457 0H389L439 286Q443 311 453 361H451L90 0H32ZM236 712H307L393 560H334Z" horiz-adv-x="573" unicode="ѝ"/>
			<glyph d="M32 477H104L163 209Q183 115 188 77H190Q224 141 265 207L425 477H505L73 -235H-4L141 5ZM157 689H209V680Q209 641 226 619T284 598Q326 598 353 622T392 689H445Q429 622 385 585T276 549Q217 549 186 579T155 664Q155 671 157 689Z" horiz-adv-x="453" unicode="ў"/>
			<glyph d="M115 477H184L111 64H378L451 477H519L436 0H265L237 -160H173L201 0H32Z" horiz-adv-x="552" unicode="џ"/>
			<glyph d="M531 855H598L558 628H223L112 0H40L162 695H502Z" horiz-adv-x="493" unicode="Ґ"/>
			<glyph d="M396 637H461L422 413H173L100 0H32L116 477H368Z" horiz-adv-x="403" unicode="ґ"/>
			<glyph d="M170 695H577L566 628H230L184 363H363L351 298H172L120 0H48L100 298H8L20 363H112Z" horiz-adv-x="501" unicode="Ғ"/>
			<glyph d="M114 477H430L419 413H170L142 253H289L278 194H132L98 0H29L64 194H0L11 253H74Z" horiz-adv-x="401" unicode="ғ"/>
			<glyph d="M94 695H181L404 353H406L465 695H537L476 353H478L808 695H909L561 346L746 68H817L777 -160H709L737 0H703L477 346H476L414 0H343L404 346H403L67 0H-35L321 357Z" horiz-adv-x="868" unicode="Җ"/>
			<glyph d="M58 477H142L295 255H297L337 477H405L366 255H368L591 477H684L446 248L560 64H614L575 -160H510L538 0H518L367 249H365L321 0H252L296 249H294L64 0H-27L216 256Z" horiz-adv-x="667" unicode="җ"/>
			<glyph d="M162 695H234L174 354H175L565 695H670L262 346L492 68H567L527 -160H459L487 0H454L174 347H173L112 0H40Z" horiz-adv-x="618" unicode="Қ"/>
			<glyph d="M117 477H186L146 257H148L411 477H511L233 248L374 64H435L396 -160H332L360 0H335L147 251H145L101 0H33Z" horiz-adv-x="491" unicode="қ"/>
			<glyph d="M162 695H234L179 383H246L275 548H332L303 383H307L610 695H708L359 345L592 0H502L296 316H291L261 142H204L234 316H167L112 0H40Z" horiz-adv-x="641" unicode="Ҝ"/>
			<glyph d="M116 477H185L150 279H207L227 394H281L261 279H265L463 477H556L318 248L472 0H390L256 220H250L230 105H176L196 220H139L100 0H32Z" horiz-adv-x="530" unicode="ҝ"/>
			<glyph d="M162 695H234L180 392H591L645 695H716L606 68H682L642 -160H574L602 0H523L579 325H168L112 0H40Z" horiz-adv-x="733" unicode="Ң"/>
			<glyph d="M116 477H185L149 275H423L459 477H528L455 64H524L485 -160H420L448 0H375L413 212H139L101 0H32Z" horiz-adv-x="571" unicode="ң"/>
			<glyph d="M64 695H142L289 332L570 695H658L318 260L272 0H201L246 259Z" horiz-adv-x="560" unicode="Ү"/>
			<glyph d="M38 477H108L187 141Q187 139 192 110T199 79H200Q219 117 268 201L429 477H510L224 0L183 -235H114L155 0Z" horiz-adv-x="464" unicode="ү"/>
			<glyph d="M64 695H142L289 332L570 695H658L354 306H507L496 241H315L272 0H201L243 241H61L72 306H226Z" horiz-adv-x="560" unicode="Ұ"/>
			<glyph d="M38 477H108L187 141Q187 139 192 110T199 79H200Q219 117 268 201L429 477H510L232 13H328L317 -48H215L183 -235H114L146 -48H46L58 13H152Z" horiz-adv-x="464" unicode="ұ"/>
			<glyph d="M91 695H175L331 397L592 695H687L371 340L524 68H585L545 -160H477L505 0H478L316 290L61 0H-34L277 351Z" horiz-adv-x="636" unicode="Ҳ"/>
			<glyph d="M47 477H129L242 290L415 477H506L278 239L390 64H452L413 -160H348L376 0H347L228 191L50 0H-41L192 243Z" horiz-adv-x="504" unicode="ҳ"/>
			<glyph d="M131 695H202L172 525Q166 494 166 467Q166 406 198 375T300 338L335 538H397L362 336Q407 338 451 345T527 362L586 695H657L534 0H463L515 294Q427 270 350 268L326 132H264L288 270Q188 278 141 324T94 455Q94 482 101 526Z" horiz-adv-x="658" unicode="Ҹ"/>
			<glyph d="M82 477H151L131 367Q127 348 127 327Q127 290 146 267T212 239L235 367H289L266 237Q308 239 372 253L412 477H481L396 0H328L362 188Q300 175 255 173L238 78H184L201 174Q125 181 91 218T57 318Q57 337 62 367Z" horiz-adv-x="512" unicode="ҹ"/>
			<glyph d="M162 695H234L181 401Q276 427 362 427Q486 427 544 381T602 240Q602 205 595 169L566 0H494L524 170Q530 202 530 228Q530 297 488 328T354 360Q305 360 255 351T169 333L111 0H39Z" horiz-adv-x="658" unicode="Һ"/>
			<glyph d="M116 477H184L151 289Q192 296 219 300T278 304Q369 304 409 266T450 159Q450 138 445 110L426 0H357L377 110Q381 138 381 150Q381 195 353 217T258 240Q228 240 195 235T140 224L100 0H32Z" horiz-adv-x="507" unicode="һ"/>
			<glyph d="M392 710Q538 710 619 625T701 388Q701 287 656 194T524 42T316 -17Q184 -17 119 54T55 242Q55 308 74 372H625V386Q625 501 562 570T378 640Q315 640 254 621T153 575L169 657Q271 710 392 710ZM136 310Q129 276 129 241Q129 153 175 101T317 50Q439 50 518 121T618 310Z" horiz-adv-x="731" unicode="Ә"/>
			<glyph d="M251 491Q361 491 417 431T474 268Q474 146 403 67T218 -12Q128 -12 76 35T25 165Q25 190 29 216T39 257H399Q399 264 400 279Q400 344 360 386T239 428Q166 428 85 391L97 459Q133 475 168 483T251 491ZM99 202Q95 182 95 164Q95 111 127 79T220 47Q289 47 333 89T392 202Z" horiz-adv-x="516" unicode="ә"/>
			<glyph d="M452 707Q601 707 685 622T769 394Q769 285 726 192T597 44T386 -12Q245 -12 158 73T71 308Q71 417 113 507T242 652T452 707ZM447 637Q322 637 246 566T153 383H693V386Q693 503 628 570T447 637ZM147 322V314Q147 193 214 125T393 58Q514 58 592 131T688 322Z" horiz-adv-x="800" unicode="Ө"/>
			<glyph d="M309 489Q415 489 473 427T531 270Q531 144 463 65T266 -14Q167 -14 105 45T43 214Q43 336 114 412T309 489ZM304 428Q230 428 181 386T119 270H459Q457 345 415 386T304 428ZM114 217V215Q114 135 156 90T271 46Q354 46 399 95T456 217Z" horiz-adv-x="573" unicode="ө"/>
			<glyph d="M100 695H171L228 212Q235 156 237 109H239Q267 166 294 217L549 695H606L677 191Q685 127 686 103H688Q704 138 740 212L980 695H1059L704 -5H638L577 428L570 481Q563 535 558 582H556Q532 531 476 426L249 -5H188ZM495 887H574L650 757H590Z" horiz-adv-x="997" unicode="Ẁ"/>
			<glyph d="M56 477H124L173 159Q179 124 181 85H184Q202 126 230 176L398 477H458L517 159Q524 123 528 86H530Q547 125 565 159L737 477H813L550 0H485L429 284L424 313Q414 367 413 387H410Q394 349 356 283L199 0H133ZM344 712H415L501 560H442Z" horiz-adv-x="784" unicode="ẁ"/>
			<glyph d="M100 695H171L228 212Q235 156 237 109H239Q267 166 294 217L549 695H606L677 191Q685 127 686 103H688Q704 138 740 212L980 695H1059L704 -5H638L577 428L570 481Q563 535 558 582H556Q532 531 476 426L249 -5H188ZM638 887H720L577 757H515Z" horiz-adv-x="997" unicode="Ẃ"/>
			<glyph d="M56 477H124L173 159Q179 124 181 85H184Q202 126 230 176L398 477H458L517 159Q524 123 528 86H530Q547 125 565 159L737 477H813L550 0H485L429 284L424 313Q414 367 413 387H410Q394 349 356 283L199 0H133ZM504 712H585L425 560H362Z" horiz-adv-x="784" unicode="ẃ"/>
			<glyph d="M100 695H171L228 212Q235 156 237 109H239Q267 166 294 217L549 695H606L677 191Q685 127 686 103H688Q704 138 740 212L980 695H1059L704 -5H638L577 428L570 481Q563 535 558 582H556Q532 531 476 426L249 -5H188ZM494 837H565L552 765H481ZM643 837H714L701 765H630Z" horiz-adv-x="997" unicode="Ẅ"/>
			<glyph d="M56 477H124L173 159Q179 124 181 85H184Q202 126 230 176L398 477H458L517 159Q524 123 528 86H530Q547 125 565 159L737 477H813L550 0H485L429 284L424 313Q414 367 413 387H410Q394 349 356 283L199 0H133ZM357 660H428L415 588H344ZM506 660H577L564 588H493Z" horiz-adv-x="784" unicode="ẅ"/>
			<glyph d="M417 707Q535 707 600 646T669 495L460 391Q644 356 644 200Q644 109 577 48T393 -12Q338 -12 296 1T219 34L232 104Q304 55 399 55Q478 55 523 95T568 195Q568 260 523 299T371 351L381 413L588 520Q582 569 538 605T414 641Q311 641 254 581T175 393L106 0H34L107 414Q134 561 208 634T417 707Z" horiz-adv-x="698" unicode="ẞ"/>
			<glyph d="M64 695H142L289 332L570 695H658L318 260L272 0H201L246 259ZM265 887H344L420 757H360Z" horiz-adv-x="560" unicode="Ỳ"/>
			<glyph d="M32 477H104L163 209Q183 115 188 77H190Q224 141 265 207L425 477H505L73 -235H-4L141 5ZM174 712H245L331 560H272Z" horiz-adv-x="453" unicode="ỳ"/>
			<glyph d="M62 292H506L495 227H51Z" horiz-adv-x="549" unicode="–"/>
			<glyph d="M62 292H736L725 227H51Z" horiz-adv-x="779" unicode="—"/>
			<glyph d="M231 716H289L126 427H49Z" horiz-adv-x="221" unicode="‘"/>
			<glyph d="M213 716H290L108 427H50Z" horiz-adv-x="221" unicode="’"/>
			<glyph d="M112 144H189L7 -145H-51Z" horiz-adv-x="220" unicode="‚"/>
			<glyph d="M230 716H289L125 427H48ZM401 716H460L296 427H219Z" horiz-adv-x="392" unicode="“"/>
			<glyph d="M213 716H290L108 427H50ZM384 716H461L279 427H221Z" horiz-adv-x="392" unicode="”"/>
			<glyph d="M110 130H187L4 -159H-54ZM281 130H358L175 -159H117Z" horiz-adv-x="392" unicode="„"/>
			<glyph d="M284 695H358L321 502L495 505L485 440L311 445L218 -58H158L243 445L72 440L83 505L253 502Z" horiz-adv-x="484" unicode="†"/>
			<glyph d="M284 695H358L322 507L496 510L485 445L312 450L286 323L266 188L441 192L429 128L256 131L225 -58H151L188 131L16 128L28 192L197 188L224 319L243 450L73 445L84 510L254 507Z" horiz-adv-x="484" unicode="‡"/>
			<glyph d="M115 412H307L273 220H81Z" horiz-adv-x="366" unicode="•"/>
			<glyph d="M271 90H360L345 0H256ZM493 90H582L567 0H478ZM46 90H135L120 0H31Z" horiz-adv-x="676" unicode="…"/>
			<glyph d="M262 707Q338 707 376 662T415 551Q415 463 367 399T234 336Q165 336 122 377T80 500Q80 590 130 648T262 707ZM725 695H799L169 0H95ZM259 656Q203 656 169 613T136 501Q136 446 163 416T237 387Q299 387 328 435T358 545Q358 599 330 627T259 656ZM661 359Q737 359 775 315T813 203Q813 113 766 50T633 -12Q563 -12 520 29T478 151Q478 243 528 301T661 359ZM1050 359Q1126 359 1164 314T1203 203Q1203 115 1155 51T1022 -12Q953 -12 910 29T868 151Q868 243 918 301T1050 359ZM657 308Q601 308 568 265T535 153Q535 97 562 68T635 39Q698 39 727 87T756 197Q756 251 729 279T657 308ZM1047 308Q991 308 957 265T924 153Q924 97 951 68T1025 39Q1087 39 1116 87T1146 197Q1146 251 1119 279T1047 308Z" horiz-adv-x="1242" unicode="‰"/>
			<glyph d="M191 413H269L103 232L198 55H132L35 239Z" horiz-adv-x="282" unicode="‹"/>
			<glyph d="M83 413H149L246 230L90 55H13L178 237Z" horiz-adv-x="282" unicode="›"/>
			<glyph d="M368 695H437L-193 0H-262Z" horiz-adv-x="136" unicode="⁄"/>
			<glyph d="M295 797Q363 797 398 755T433 635Q433 568 416 497T355 374T237 322Q169 322 132 367T96 493Q96 619 146 708T295 797ZM291 743Q227 743 192 665T157 492Q157 434 179 406T239 378Q303 378 336 458T370 634Q370 743 291 743Z" horiz-adv-x="414" unicode="⁰"/>
			<glyph d="M341 789H403L350 485H422L412 433H340L322 330H265L283 433H65L75 490ZM330 707L313 685Q300 669 291 659L137 485H292L332 707Z" horiz-adv-x="410" unicode="⁴"/>
			<glyph d="M182 787H425L416 732H228L197 607Q223 613 247 613Q315 613 352 578T389 484Q389 408 339 364T206 320Q137 320 81 349L91 405Q142 375 206 375Q266 375 296 403T326 478Q326 517 299 539T219 561Q183 561 125 550Z" horiz-adv-x="411" unicode="⁵"/>
			<glyph d="M301 787H376L221 601Q244 613 277 613Q337 613 372 578T407 485Q407 416 360 368T235 320Q168 320 129 358T91 457Q91 496 105 529T149 600ZM255 563Q206 563 179 534T153 459Q153 422 176 398T241 375Q289 375 316 405T343 481Q343 518 321 540T255 563Z" horiz-adv-x="415" unicode="⁶"/>
			<glyph d="M144 789H463L455 746L185 330H115L381 734H135Z" horiz-adv-x="415" unicode="⁷"/>
			<glyph d="M288 797Q356 797 390 764T424 682Q424 636 399 606T331 563V561Q401 534 401 459Q401 400 359 361T237 322Q165 322 125 356T86 447Q86 498 114 530T194 573V575Q169 587 153 611T138 669Q138 724 177 760T288 797ZM284 744Q244 744 221 722T199 665Q199 634 219 614T276 595Q313 595 337 616T362 674Q362 707 341 725T284 744ZM248 536Q200 536 174 513T149 453Q149 419 172 397T242 375Q290 375 314 398T339 456Q339 494 315 515T248 536Z" horiz-adv-x="413" unicode="⁸"/>
			<glyph d="M293 799Q360 799 398 760T437 661Q437 622 422 588T378 518L227 332H152L307 518Q285 506 251 506Q191 506 156 540T121 634Q121 703 168 751T293 799ZM287 745Q239 745 211 714T184 639Q184 602 206 579T272 556Q322 556 348 585T374 660Q374 697 351 721T287 745Z" horiz-adv-x="414" unicode="⁹"/>
			<glyph d="M229 367Q297 367 332 325T367 205Q367 138 350 67T289 -56T171 -108Q103 -108 66 -63T30 63Q30 189 80 278T229 367ZM225 313Q161 313 126 235T91 62Q91 4 113 -24T173 -52Q237 -52 270 28T304 204Q304 313 225 313Z" horiz-adv-x="414" unicode="₀"/>
			<glyph d="M268 370H301L219 -98H159L229 296L94 236L106 298Z" horiz-adv-x="403" unicode="₁"/>
			<glyph d="M212 365Q276 365 309 334T342 249Q342 202 317 161T204 54L82 -43H302L292 -99H-6L4 -41L164 87Q228 139 254 170T280 239Q280 273 259 292T197 311Q142 311 72 268L83 332Q145 365 212 365Z" horiz-adv-x="404" unicode="₂"/>
			<glyph d="M196 366Q264 366 297 333T331 253Q331 203 301 170T220 127V126Q256 117 279 92T302 27Q302 -33 257 -72T122 -112Q83 -112 48 -104T-6 -85L4 -30Q21 -41 53 -50T121 -59Q182 -59 209 -35T237 26Q237 100 125 100H80L90 157H141Q203 157 234 178T266 240Q266 273 244 292T181 311Q149 311 119 303T69 285L78 344Q132 366 196 366Z" horiz-adv-x="408" unicode="₃"/>
			<glyph d="M273 359H335L282 55H354L344 3H272L254 -100H197L215 3H-3L7 60ZM262 277L245 255Q232 239 223 229L69 55H224L264 277Z" horiz-adv-x="410" unicode="₄"/>
			<glyph d="M111 357H354L345 302H157L126 177Q152 183 176 183Q244 183 281 148T318 54Q318 -22 268 -66T135 -110Q66 -110 10 -81L20 -25Q71 -55 135 -55Q195 -55 225 -27T255 48Q255 87 228 109T148 131Q112 131 54 120Z" horiz-adv-x="411" unicode="₅"/>
			<glyph d="M231 357H306L151 171Q174 183 207 183Q267 183 302 148T337 55Q337 -14 290 -62T165 -110Q98 -110 59 -71T21 27Q21 66 35 99T79 170ZM185 133Q136 133 109 104T83 29Q83 -8 106 -31T171 -55Q219 -55 246 -24T273 51Q273 88 251 110T185 133Z" horiz-adv-x="415" unicode="₆"/>
			<glyph d="M78 359H397L389 316L119 -100H49L315 304H69Z" horiz-adv-x="415" unicode="₇"/>
			<glyph d="M217 367Q285 367 319 334T353 252Q353 206 328 176T260 133V131Q330 104 330 29Q330 -30 288 -69T166 -108Q94 -108 54 -74T15 17Q15 68 43 100T123 143V145Q98 157 82 181T67 239Q67 294 106 330T217 367ZM213 314Q173 314 150 292T128 235Q128 204 148 184T205 165Q242 165 266 186T291 244Q291 277 270 295T213 314ZM177 106Q129 106 103 83T78 23Q78 -11 101 -33T171 -55Q219 -55 243 -31T268 26Q268 64 244 85T177 106Z" horiz-adv-x="413" unicode="₈"/>
			<glyph d="M233 369Q300 369 338 330T377 231Q377 192 362 158T318 88L167 -98H92L247 88Q225 76 191 76Q131 76 96 110T61 204Q61 273 108 321T233 369ZM227 315Q179 315 151 284T124 209Q124 172 146 149T212 126Q262 126 288 155T314 230Q314 267 291 291T227 315Z" horiz-adv-x="414" unicode="₉"/>
			<glyph d="M451 709Q497 709 534 701T595 684L583 617Q561 629 527 636T451 644Q370 644 318 597T235 458H484L474 401H217Q206 359 199 286H454L444 229H197Q199 141 236 96T354 51Q419 51 490 84L478 13Q453 2 418 -6T346 -14Q237 -14 182 45T124 229H31L41 286H126Q135 367 143 401H61L71 458H157Q197 584 272 646T451 709Z" horiz-adv-x="558" unicode="€"/>
			<glyph d="M133 695H532L522 637H339Q370 622 390 586T410 503H498L488 445H405Q391 360 332 310T188 251L356 0H276L115 246H54L64 304H129Q217 304 270 339T337 445H89L99 503H343Q343 563 306 600T202 637H123Z" horiz-adv-x="502" unicode="₹"/>
			<glyph d="M212 695H284L247 484L432 593L419 520L235 411L215 304L401 412L387 339L203 231L174 71Q214 57 267 57Q430 57 497 209L559 182Q515 82 439 35T254 -12Q211 -12 167 -4T92 16L123 186L21 126L33 199L136 259L155 367L53 307L65 380L168 440Z" horiz-adv-x="596" unicode="₺"/>
			<glyph d="M196 695H357Q474 695 532 647T590 509Q590 408 524 348T312 288H197L180 189H400L388 127H168L146 0H74L97 127H10L22 189H108L125 288H38L50 352H136ZM256 630L208 352H313Q421 352 465 391T510 502Q510 563 472 596T348 630Z" horiz-adv-x="597" unicode="₽"/>
			<glyph d="M293 712Q344 712 373 677T402 593Q402 516 362 443T241 280V134Q241 89 260 68T308 48Q350 48 397 93L428 50Q364 -14 290 -14Q228 -14 195 23T163 128V222L103 159L69 200L163 295V535Q163 620 198 666T293 712ZM294 654Q270 654 255 626T241 541V355Q339 476 339 586Q339 615 327 634T294 654Z" horiz-adv-x="554" unicode="ℓ"/>
			<glyph d="M982 705Q1079 705 1129 648T1179 509Q1179 398 1118 327T943 256Q854 256 798 308T743 460Q743 567 807 636T982 705ZM162 695H217L519 127H522Q525 154 535 208L621 695H689L567 0H511L208 566H206Q201 530 190 465T179 403L108 0H40ZM977 648Q900 648 854 596T808 461Q808 391 846 352T948 313Q1028 313 1071 367T1115 504Q1115 571 1077 609T977 648ZM705 172H1117L1106 110H694Z" horiz-adv-x="1197" unicode="№"/>
			<glyph d="M59 695H349V646H230V330H177V646H59ZM396 695H464L589 420H590L716 695H783V330H733L732 608H731L607 338H570L447 608H446V330H396Z" horiz-adv-x="787" unicode="™"/>
			<glyph d="M425 708Q569 708 650 629T731 423Q731 292 664 208T494 97L489 65H686L675 0H411L433 133Q535 148 596 226T658 419Q658 519 596 582T420 645Q286 645 213 561T141 357Q141 265 184 208T302 133L278 0H17L28 65H223L230 103Q158 131 114 198T70 359Q70 460 115 541T238 665T425 708Z" horiz-adv-x="764" unicode="Ω"/>
			<glyph d="M415 671Q572 671 682 570T793 324H185Q175 324 175 313V116Q222 65 285 37T415 10Q488 10 554 42T667 131H724Q668 63 586 26T415 -11Q260 -11 148 87T36 330Q36 474 146 572T415 671ZM415 650Q345 650 282 621T175 543V358Q175 352 177 349T185 347H646Q651 347 653 349T655 358V542Q611 593 547 621T415 650Z" horiz-adv-x="830" unicode="℮"/>
			<glyph d="M366 713Q458 713 505 654T552 500Q552 413 514 291T399 78T207 -14Q126 -14 82 31T39 154Q39 280 122 369T318 459Q370 459 408 438T464 385Q470 385 476 432T482 500Q482 570 450 611T355 653Q299 653 236 611L222 637Q212 653 208 662Q279 713 366 713ZM317 400Q237 400 173 324T110 153Q110 104 135 75T210 46Q288 46 348 119T445 309Q432 348 399 374T317 400Z" horiz-adv-x="567" unicode="∂"/>
			<glyph d="M379 697H446L611 0H-29ZM397 597L89 67H521L399 597Z" horiz-adv-x="667" unicode="∆"/>
			<glyph d="M165 734H735L566 -225H494L652 670H226L68 -225H-4Z" horiz-adv-x="725" unicode="∏"/>
			<glyph d="M130 734H669L658 671H212L438 257L49 -162H530L519 -225H-58L-49 -176L357 261L122 687Z" horiz-adv-x="628" unicode="∑"/>
			<glyph d="M45 335H516V271H45Z" horiz-adv-x="561" unicode="−"/>
			<glyph d="M429 750H492L9 -49H-53Z" horiz-adv-x="360" unicode="∕"/>
			<glyph d="M90 361H179L164 271H75Z" horiz-adv-x="236" unicode="∙"/>
			<glyph d="M459 739H524L318 -113H255L100 233L44 203L20 254L134 313L279 -17Z" horiz-adv-x="523" unicode="√"/>
			<glyph d="M199 431Q256 431 303 398T392 315Q439 368 482 399T582 431Q652 431 696 387T740 275Q740 206 697 160T584 114Q528 114 480 146T392 227Q346 175 300 144T202 114Q131 114 87 158T44 271Q44 340 86 385T199 431ZM201 375Q155 375 130 345T106 271Q106 227 133 199T203 171Q244 171 284 200T358 272Q325 315 282 345T201 375ZM584 375Q542 375 503 346T428 272Q506 171 585 171Q630 171 655 200T680 273Q680 317 655 346T584 375Z" horiz-adv-x="786" unicode="∞"/>
			<glyph d="M355 766Q381 766 404 756T432 730Q428 696 403 680Q390 680 382 688L372 695Q358 707 350 707Q320 707 306 676T292 600L293 542V68Q293 -31 286 -86T250 -180T153 -219Q129 -219 107 -210T79 -184Q81 -168 88 -155T108 -135Q122 -137 136 -149T160 -161Q192 -161 204 -119T216 -10L215 547Q215 651 244 708T355 766Z" horiz-adv-x="531" unicode="∫"/>
			<glyph d="M174 286Q205 286 236 276T304 241T385 216Q414 216 439 234T484 283L532 248Q505 205 467 180T381 155Q343 155 310 169T245 204T170 225Q115 225 72 158L24 194Q56 239 92 262T174 286ZM174 465Q205 465 236 455T304 420T385 395Q414 395 439 413T484 462L532 427Q505 384 467 359T381 334Q343 334 310 348T245 383T170 404Q115 404 72 337L24 373Q56 418 92 441T174 465Z" horiz-adv-x="556" unicode="≈"/>
			<glyph d="M388 589H458L383 441H514V377H350L275 229H514V165H243L168 17H98L173 165H43V229H205L280 377H43V441H313Z" horiz-adv-x="556" unicode="≠"/>
			<glyph d="M514 575V505L124 342L514 178V108L43 309V375ZM43 64H514V0H43Z" horiz-adv-x="556" unicode="≤"/>
			<glyph d="M43 575L514 375V309L43 108V178L433 342L43 505ZM43 64H514V0H43Z" horiz-adv-x="556" unicode="≥"/>
			<glyph d="M262 714H317L511 350L317 -17H262L70 350ZM290 634L143 350L290 63L437 350Z" horiz-adv-x="582" unicode="◊"/>
		</font>
</defs>
</svg>
