<?xml version="1.0" encoding="UTF-8"?>
<svg height="100%" width="100%" xmlns="http://www.w3.org/2000/svg">
	<defs>
		<font horiz-adv-x="586" id="web">
			<font-face alphabetic="0" ascent="993" descent="-267" font-family="" panose-1="2 11 8 3 2 2 4 2 2 4"/>
			<missing-glyph d="M59 700H446V0H59ZM109 650V50H396V650Z" horiz-adv-x="506"/>
			<glyph d="" horiz-adv-x="234" unicode=" "/>
			<glyph d="M56 695H206L197 230H66ZM51 157H208V0H51Z" horiz-adv-x="259" unicode="!"/>
			<glyph d="M29 714H157L145 415H41ZM212 714H340L328 415H224Z" horiz-adv-x="369" unicode="&quot;"/>
			<glyph d="M192 695H288L257 521H356L387 695H483L452 521H537V411H433L410 281H501V171H390L360 0H264L294 171H195L165 0H69L99 171H17V281H119L142 411H53V521H161ZM238 411L215 281H314L337 411Z" horiz-adv-x="554" unicode="#"/>
			<glyph d="M252 788H332V685Q425 682 487 661V523Q457 532 414 541T332 553V405Q424 378 475 333T526 211Q526 138 474 82T332 14V-96H252V10Q200 10 153 19T76 42V184Q106 167 155 153T252 138V292Q141 323 100 368T59 487Q59 559 109 613T252 681ZM252 548Q223 541 211 526T199 489Q199 467 212 452T252 428ZM332 267V144Q385 158 385 203Q385 227 372 241T332 267Z" unicode="$"/>
			<glyph d="M211 704Q295 704 346 653T397 519Q397 436 346 384T211 332Q126 332 75 384T25 519Q25 603 75 653T211 704ZM607 695H744L230 0H93ZM211 607Q177 607 158 583T139 519Q139 478 158 454T211 430Q245 430 263 453T281 519Q281 560 263 583T211 607ZM631 360Q715 360 766 309T817 175Q817 92 766 40T631 -12Q546 -12 495 40T445 175Q445 259 495 309T631 360ZM631 263Q597 263 578 239T559 175Q559 134 578 110T631 86Q665 86 683 109T701 175Q701 216 683 239T631 263Z" horiz-adv-x="842" unicode="%"/>
			<glyph d="M361 714Q464 714 512 665T560 547Q560 487 525 443T420 366L509 263L573 375H725Q710 347 663 269T596 161L737 0H546L492 68Q421 -14 292 -14Q180 -14 117 43T54 195Q54 268 88 316T207 406Q178 443 163 473T149 543Q149 618 206 666T361 714ZM352 597Q323 597 308 582T294 545Q294 521 305 500T336 457Q376 476 392 495T409 544Q409 568 393 582T352 597ZM283 310Q243 293 224 266T205 202Q205 159 233 134T308 109Q374 109 412 160Z" horiz-adv-x="745" unicode="&amp;"/>
			<glyph d="M29 714H157L145 415H41Z" horiz-adv-x="186" unicode="'"/>
			<glyph d="M182 770H328Q253 672 209 553T165 305Q165 173 209 56T328 -160H182Q108 -67 67 53T26 305Q26 435 67 554T182 770Z" horiz-adv-x="333" unicode="("/>
			<glyph d="M5 770H151Q225 677 266 557T307 305Q307 175 266 55T151 -160H5Q80 -62 124 57T168 305Q168 437 124 554T5 770Z" horiz-adv-x="333" unicode=")"/>
			<glyph d="M186 712H289L275 560L421 619L454 518L302 486L406 364L316 302L237 440L157 302L66 364L171 486L20 516L52 621L196 560Z" horiz-adv-x="474" unicode="*"/>
			<glyph d="M225 546H361V371H536V235H361V60H225V235H50V371H225Z" unicode="+"/>
			<glyph d="M81 157H228L92 -129H-35Z" horiz-adv-x="250" unicode=","/>
			<glyph d="M38 337H352V204H38Z" horiz-adv-x="390" unicode="-"/>
			<glyph d="M46 157H203V0H46Z" horiz-adv-x="250" unicode="."/>
			<glyph d="M335 750H454L112 -49H-7Z" horiz-adv-x="447" unicode="/"/>
			<glyph d="M294 707Q413 707 482 612T551 351Q551 180 480 83T293 -13Q173 -13 104 83T35 352Q35 517 104 612T294 707ZM293 568Q244 568 217 510T191 353Q191 246 217 186T294 126Q341 126 368 185T395 349Q395 450 369 509T293 568Z" unicode="0"/>
			<glyph d="M319 712H407V0H253V524L69 432V590Z" unicode="1"/>
			<glyph d="M287 707Q406 707 463 648T521 497Q521 427 488 368T348 222L250 141H530V0H50V126L261 317Q319 369 342 403T366 473Q366 518 339 543T256 569Q167 569 81 508V657Q117 679 169 693T287 707Z" unicode="2"/>
			<glyph d="M272 707Q386 707 445 654T504 519Q504 457 470 414T379 357V355Q449 339 484 301T519 195Q519 105 447 46T250 -12Q187 -12 135 -2T53 23V165Q79 151 132 136T234 121Q356 121 356 201Q356 244 318 263T209 282H133V421H200Q342 421 342 502Q342 536 313 553T233 571Q186 571 141 557T66 527V663Q100 681 153 694T272 707Z" unicode="3"/>
			<glyph d="M307 695H463V267H570V140H463V0H317V140H11V271ZM314 506Q299 476 265 426L159 267H317V506Z" unicode="4"/>
			<glyph d="M101 695H498V554H234L227 447Q247 449 274 449Q396 449 459 392T522 229Q522 119 448 53T246 -12Q191 -12 144 -3T64 22V163Q106 146 144 136T237 126Q305 126 335 153T366 224Q366 275 328 298T217 321Q158 321 79 310Z" unicode="5"/>
			<glyph d="M277 695H445L279 431L280 429Q289 432 307 434T342 437Q426 437 486 377T546 225Q546 122 475 55T298 -12Q186 -12 116 53T46 225Q46 319 111 426ZM297 321Q253 321 227 293T201 223Q201 176 228 151T297 126Q340 126 365 153T390 223Q390 266 365 293T297 321Z" unicode="6"/>
			<glyph d="M41 695H539V594L257 0H88L357 554H41Z" unicode="7"/>
			<glyph d="M293 707Q393 707 460 653T527 517Q527 456 494 416T410 361V359Q545 325 545 195Q545 101 476 44T293 -13Q178 -13 109 44T41 195Q41 254 72 297T172 359V361Q122 378 91 416T60 517Q60 596 126 651T293 707ZM293 573Q259 573 238 554T217 503Q217 471 238 452T293 433Q328 433 349 452T370 503Q370 534 349 553T293 573ZM293 284Q249 284 224 263T199 205Q199 167 224 145T293 124Q337 124 362 145T387 205Q387 243 362 263T293 284Z" unicode="8"/>
			<glyph d="M287 707Q399 707 469 641T539 470Q539 418 522 370T476 272L309 0H139L306 264L305 266Q296 263 278 260T243 258Q160 258 100 317T40 470Q40 572 110 639T287 707ZM288 570Q245 570 220 543T196 472Q196 429 220 402T288 375Q332 375 358 402T384 472Q384 519 357 544T288 570Z" unicode="9"/>
			<glyph d="M46 157H203V0H46ZM46 487H203V330H46Z" horiz-adv-x="250" unicode=":"/>
			<glyph d="M46 487H203V330H46ZM81 157H228L92 -129H-35Z" horiz-adv-x="250" unicode=";"/>
			<glyph d="M536 569V415L214 284L536 153V0L50 215V353Z" unicode="&lt;"/>
			<glyph d="M50 494H536V358H50ZM50 248H536V112H50Z" unicode="="/>
			<glyph d="M50 569L536 354V216L50 0V154L372 285L50 416Z" unicode="&gt;"/>
			<glyph d="M221 705Q318 705 376 653T435 513Q435 441 397 386T264 278V230H139V346Q218 382 253 415T288 493Q288 535 261 557T184 580Q145 580 107 569T44 546V670Q71 683 118 694T221 705ZM123 157H280V0H123Z" horiz-adv-x="456" unicode="?"/>
			<glyph d="M460 714Q635 714 744 620T853 372Q853 255 798 191T649 128Q568 128 538 171Q513 153 484 142T426 132Q348 132 301 186T255 326Q255 418 311 477T468 537Q548 537 629 505L628 274Q628 227 661 227Q691 227 711 261T731 371Q731 484 658 545T460 607Q326 607 247 529T168 331Q168 206 248 131T456 56Q553 56 634 82V-30Q552 -54 462 -54Q276 -54 161 49T46 323Q46 501 159 607T460 714ZM465 431Q419 431 394 404T369 334Q369 289 393 263T457 238Q481 238 498 242L517 247V424Q491 431 465 431Z" horiz-adv-x="899" unicode="@"/>
			<glyph d="M291 695H435L718 0H551L493 151H228L169 0H4ZM359 495L276 276H442L361 495Z" horiz-adv-x="722" unicode="A"/>
			<glyph d="M68 695H349Q602 695 602 521Q602 462 564 420T465 366V364Q535 353 578 314T622 201Q622 106 555 53T349 0H68ZM226 568V423H314Q376 423 402 443T428 500Q428 534 405 551T323 568ZM226 291V134H328Q396 134 425 154T454 215Q454 291 324 291Z" horiz-adv-x="654" unicode="B"/>
			<glyph d="M407 707Q501 707 584 676V523Q497 562 415 562Q305 562 252 506T200 356Q200 254 257 195T416 137Q466 137 514 150T595 182V30Q555 10 510 -1T406 -13Q236 -13 134 85T32 348Q32 517 131 612T407 707Z" horiz-adv-x="626" unicode="C"/>
			<glyph d="M68 695H319Q498 695 596 605T694 355Q694 197 590 98T309 0H68ZM223 554V141H308Q418 141 473 196T529 348Q529 446 475 500T310 554Z" horiz-adv-x="726" unicode="D"/>
			<glyph d="M68 695H533V553H222V423H505V281H222V142H547V0H68Z" horiz-adv-x="578" unicode="E"/>
			<glyph d="M68 695H531V553H223V404H515V262H223V0H68Z" horiz-adv-x="548" unicode="F"/>
			<glyph d="M430 707Q490 707 532 699T621 678V530Q574 545 527 555T418 566Q308 566 251 508T195 349Q195 246 248 187T405 129Q432 129 451 132T494 142V262H340V391H645V48Q601 23 539 5T400 -12Q226 -12 129 85T32 347Q32 513 136 610T430 707Z" horiz-adv-x="699" unicode="G"/>
			<glyph d="M68 695H221V419H527V695H681V0H527V278H221V0H68Z" horiz-adv-x="749" unicode="H"/>
			<glyph d="M68 695H222V0H68Z" horiz-adv-x="290" unicode="I"/>
			<glyph d="M279 695H434V285Q434 145 369 67T154 -11Q113 -11 73 -4T8 13V157Q29 147 67 139T137 131Q216 131 247 168T279 293Z" horiz-adv-x="500" unicode="J"/>
			<glyph d="M68 695H222V355H224L479 695H682L401 352L683 0H483L224 342H222V0H68Z" horiz-adv-x="683" unicode="K"/>
			<glyph d="M68 695H222V140H543V0H68Z" horiz-adv-x="553" unicode="L"/>
			<glyph d="M68 695H263L452 208H454L644 695H837V0H692L690 457H688L513 0H391L215 456H213V0H68Z" horiz-adv-x="905" unicode="M"/>
			<glyph d="M68 695H197L537 263H539Q536 310 536 362V695H687V0H547L219 430H217Q219 400 219 330V0H68Z" horiz-adv-x="755" unicode="N"/>
			<glyph d="M389 707Q557 707 651 608T746 347Q746 192 647 90T389 -12Q221 -12 126 87T32 347Q32 506 131 606T389 707ZM388 562Q296 562 242 503T189 347Q189 249 242 191T388 133Q482 133 535 192T589 347Q589 445 538 503T388 562Z" horiz-adv-x="778" unicode="O"/>
			<glyph d="M68 695H315Q618 695 618 458Q618 341 538 272T311 203H222V0H68ZM222 554V344H315Q449 344 449 454Q449 554 320 554Z" horiz-adv-x="651" unicode="P"/>
			<glyph d="M389 707Q557 707 651 608T746 347Q746 273 722 208T652 95L752 -22L640 -115L531 13Q465 -12 389 -12Q221 -12 126 87T32 347Q32 506 131 606T389 707ZM388 562Q296 562 242 503T189 347Q189 249 242 191T388 133Q409 133 427 136L352 224L464 317L552 213Q589 268 589 347Q589 445 538 503T388 562Z" horiz-adv-x="778" unicode="Q"/>
			<glyph d="M68 695H326Q609 695 609 474Q609 398 570 345T463 264L644 0H451L311 233H222V0H68ZM222 562V373H331Q386 373 415 398T445 467Q445 513 416 537T329 562Z" horiz-adv-x="652" unicode="R"/>
			<glyph d="M323 707Q375 707 426 698T504 679V532Q446 549 408 557T318 566Q252 566 226 549T200 497Q200 471 220 455T322 415T451 365T520 300T542 205Q542 111 469 49T267 -12Q143 -12 51 24V174Q90 154 146 139T261 125Q382 125 382 197Q382 243 316 263T180 308T75 375T41 493Q41 587 115 647T323 707Z" horiz-adv-x="568" unicode="S"/>
			<glyph d="M8 695H572V555H367V0H213V555H8Z" horiz-adv-x="580" unicode="T"/>
			<glyph d="M66 695H219V273Q219 190 255 159T375 129Q436 129 506 143V695H659V39Q580 15 514 1T360 -12Q199 -12 132 56T66 261Z" horiz-adv-x="727" unicode="U"/>
			<glyph d="M4 695H169L349 203H351L528 695H693L426 0H270Z" horiz-adv-x="697" unicode="V"/>
			<glyph d="M16 695H181L276 329Q292 269 300 215H302Q312 266 336 334L456 695H573L686 319Q706 255 713 209H715Q725 263 743 325L850 695H1013L784 0H639L541 323Q514 415 508 446H506Q491 384 471 326L363 0H219Z" horiz-adv-x="1029" unicode="W"/>
			<glyph d="M3 695H190L350 460L511 695H698L445 345L695 0H507L348 231L190 0H3L252 347Z" horiz-adv-x="701" unicode="X"/>
			<glyph d="M-8 695H171L322 384L483 695H658L399 232V0H244V229Z" horiz-adv-x="650" unicode="Y"/>
			<glyph d="M52 695H614V577L243 140H626V0H31V114L402 555H52Z" horiz-adv-x="653" unicode="Z"/>
			<glyph d="M35 770H297V654H164V-44H297V-160H35Z" horiz-adv-x="307" unicode="["/>
			<glyph d="M-7 750H112L454 -49H335Z" horiz-adv-x="447" unicode="\"/>
			<glyph d="M10 770H272V-160H10V-44H143V654H10Z" horiz-adv-x="307" unicode="]"/>
			<glyph d="M223 707H361L577 298H423L293 553H291L161 298H8Z" unicode="^"/>
			<glyph d="M-7 -135H518V-180H-7Z" horiz-adv-x="511" unicode="_"/>
			<glyph d="M10 729H155L252 552H149Z" horiz-adv-x="262" unicode="`"/>
			<glyph d="M250 500Q358 500 407 450T456 306V21Q350 -12 240 -12Q33 -12 33 143Q33 218 86 258T249 298Q280 298 310 296V315Q310 350 284 363T218 376Q153 376 69 349V469Q101 480 150 490T250 500ZM251 205Q214 205 195 191T176 151Q176 126 192 113T247 101Q282 101 310 105V202Q286 205 251 205Z" horiz-adv-x="509" unicode="a"/>
			<glyph d="M58 738H204V478Q258 500 321 500Q420 500 482 431T545 256Q545 138 470 62T265 -14Q153 -14 58 29ZM286 365Q265 365 242 361T204 351V127Q232 120 267 120Q328 120 362 155T396 250Q396 303 366 334T286 365Z" horiz-adv-x="573" unicode="b"/>
			<glyph d="M300 500Q368 500 421 483V349Q400 358 370 363T311 369Q243 369 210 336T177 244Q177 187 213 153T317 119Q372 119 428 142V11Q406 1 370 -6T296 -14Q173 -14 100 56T28 246Q28 356 102 428T300 500Z" horiz-adv-x="448" unicode="c"/>
			<glyph d="M369 738H515V41Q407 -14 285 -14Q165 -14 96 57T28 233Q28 355 98 427T272 500Q325 500 369 484ZM297 369Q242 369 209 336T177 243Q177 187 210 155T297 123Q328 123 369 135V358L346 364Q326 369 297 369Z" horiz-adv-x="573" unicode="d"/>
			<glyph d="M285 499Q399 499 456 432T514 263Q514 241 511 202H176Q180 161 211 134T315 108Q363 108 401 118T480 146L479 26Q429 6 388 -4T288 -14Q165 -14 96 52T28 241Q28 361 97 430T285 499ZM276 387Q234 387 207 362T177 293H369Q369 335 344 361T276 387Z" horiz-adv-x="538" unicode="e"/>
			<glyph d="M286 746Q316 746 335 743T385 735V612Q374 614 354 618T307 623Q264 623 246 602T229 544V487H358V366H229V0H83V366H18V487H83V548Q83 637 134 691T286 746Z" horiz-adv-x="348" unicode="f"/>
			<glyph d="M306 500Q366 500 416 489T515 460V12Q515 -102 452 -171T255 -241Q195 -241 154 -234T73 -215V-78Q109 -91 148 -99T236 -107Q300 -107 334 -86T369 -11V6Q320 -14 255 -14Q154 -14 91 55T28 232Q28 349 101 424T306 500ZM302 366Q242 366 209 332T177 243Q177 186 209 153T292 121Q323 121 345 127L369 133V357Q335 366 302 366Z" horiz-adv-x="573" unicode="g"/>
			<glyph d="M58 738H204V477Q231 486 267 493T338 500Q435 500 474 454T513 318V0H367V296Q367 333 349 349T293 366Q270 366 251 362T204 351V0H58Z" horiz-adv-x="569" unicode="h"/>
			<glyph d="M55 741H207V589H55ZM58 487H204V0H58Z" horiz-adv-x="262" unicode="i"/>
			<glyph d="M55 741H207V589H55ZM58 487H204V-34Q204 -125 153 -182T2 -240Q-40 -240 -78 -231V-102Q-75 -102 -59 -106T-17 -110Q20 -110 39 -89T58 -31Z" horiz-adv-x="262" unicode="j"/>
			<glyph d="M58 738H204V263H206L378 487H564L374 261L567 0H384L206 254H204V0H58Z" horiz-adv-x="568" unicode="k"/>
			<glyph d="M58 738H204V0H58Z" horiz-adv-x="262" unicode="l"/>
			<glyph d="M286 500Q400 500 445 460Q486 479 523 489T608 500Q700 500 744 458T788 328V0H642V301Q642 337 624 351T567 366Q530 366 492 356Q496 335 496 301V0H350V296Q350 335 333 350T274 366Q244 366 204 359V0H58V468Q186 500 286 500Z" horiz-adv-x="844" unicode="m"/>
			<glyph d="M287 500Q410 500 461 454T513 315V0H367V296Q367 334 348 350T283 366Q241 366 204 358V0H58V469Q184 500 287 500Z" horiz-adv-x="569" unicode="n"/>
			<glyph d="M286 500Q399 500 471 428T543 244Q543 130 471 58T286 -14Q173 -14 100 58T28 244Q28 358 100 429T286 500ZM286 365Q237 365 207 331T177 244Q177 188 208 154T286 121Q333 121 363 155T393 244Q393 299 364 332T286 365Z" horiz-adv-x="571" unicode="o"/>
			<glyph d="M294 500Q413 500 479 429T545 253Q545 131 476 58T303 -14Q248 -14 204 2V-235H58V449Q174 500 294 500ZM282 361Q240 361 204 349V131Q236 119 280 119Q335 119 365 150T396 243Q396 299 364 330T282 361Z" horiz-adv-x="573" unicode="p"/>
			<glyph d="M306 500Q366 500 416 489T515 460V-235H369V6Q320 -14 255 -14Q154 -14 91 55T28 232Q28 349 101 424T306 500ZM302 366Q242 366 209 332T177 243Q177 186 209 153T292 121Q323 121 345 127L369 133V357Q335 366 302 366Z" horiz-adv-x="573" unicode="q"/>
			<glyph d="M270 500Q326 500 368 492V362Q328 369 288 369Q244 369 204 360V0H58V464Q160 500 270 500Z" horiz-adv-x="375" unicode="r"/>
			<glyph d="M244 505Q321 505 394 490V365Q312 387 247 387Q214 387 196 377T179 351Q179 327 212 317T305 290T394 240T424 150Q424 78 374 32T218 -13Q120 -13 44 8V129Q73 119 115 110T200 102Q242 102 261 111T280 138Q280 160 249 170T158 201T66 254T35 344Q35 416 89 460T244 505Z" horiz-adv-x="452" unicode="s"/>
			<glyph d="M74 622H220V487H349V366H220V183Q220 145 236 130T289 116Q321 116 351 124V6Q289 -8 240 -8Q153 -8 113 38T74 170V366H9V487H74Z" horiz-adv-x="371" unicode="t"/>
			<glyph d="M56 487H202V191Q202 153 222 137T290 121Q325 121 365 129V487H511V18Q385 -13 282 -13Q159 -13 107 33T56 172Z" horiz-adv-x="569" unicode="u"/>
			<glyph d="M-7 487H153L218 293Q239 231 254 170H255Q271 227 295 292L366 487H525L334 0H173Z" horiz-adv-x="518" unicode="v"/>
			<glyph d="M11 487H162L218 276Q230 230 238 182H240Q250 227 265 274L336 487H464L531 270Q536 254 553 185H555Q560 214 576 272L638 487H792L626 0H486L421 198Q403 252 395 297H393Q384 254 364 198L296 0H158Z" horiz-adv-x="803" unicode="w"/>
			<glyph d="M-4 487H181L280 351L380 487H564L370 247L572 0H385L278 141L176 0H-6L189 246Z" horiz-adv-x="566" unicode="x"/>
			<glyph d="M-7 487H154L236 251Q251 209 257 180H259Q266 207 280 245L370 487H532L237 -235H78L184 4Z" horiz-adv-x="525" unicode="y"/>
			<glyph d="M31 487H456V392L231 132H465V0H20V95L249 356H31Z" horiz-adv-x="485" unicode="z"/>
			<glyph d="M337 770V654Q293 654 277 637T261 580V418Q261 329 171 305V303Q210 292 235 264T261 183L262 24Q262 -12 279 -28T337 -44V-160Q226 -160 178 -115T131 11V164Q131 209 105 229T30 252V357Q80 359 105 378T131 440V592Q131 680 184 725T337 770Z" horiz-adv-x="347" unicode="{"/>
			<glyph d="M93 750H194V-250H93Z" horiz-adv-x="287" unicode="|"/>
			<glyph d="M10 770Q121 770 168 725T216 599V446Q216 401 241 380T317 358V253Q267 251 241 232T216 170V18Q216 -70 162 -115T10 -160V-44Q54 -44 70 -27T86 30V192Q86 281 176 305V307Q137 318 111 345T86 427L85 586Q85 622 68 638T10 654Z" horiz-adv-x="347" unicode="}"/>
			<glyph d="M195 398Q233 398 266 384T330 350T396 331Q446 331 486 395L579 321Q541 265 493 236T391 207Q353 207 320 221T256 254T190 274Q140 274 100 210L7 284Q45 340 93 369T195 398Z" unicode="~"/>
			<glyph d="" horiz-adv-x="234" unicode=" "/>
			<glyph d="M51 487H208V330H51ZM62 257H193L203 -208H53Z" horiz-adv-x="259" unicode="¡"/>
			<glyph d="M314 714H394V607Q440 603 480 593V460Q445 473 394 478V225Q437 229 480 246V115Q443 101 394 96V-14H314V96Q213 107 149 176T85 349Q85 449 147 520T314 605ZM314 473Q269 462 247 429T225 352Q225 251 314 229Z" unicode="¢"/>
			<glyph d="M413 727Q473 727 537 711V570Q508 577 483 581T426 586Q369 586 340 553T312 476V406H483V291H312V263Q312 220 295 185T250 131H547V0H49V131Q91 131 119 162T147 249V291H51V406H147V477Q147 595 218 661T413 727Z" unicode="£"/>
			<glyph d="M125 576L190 511Q240 535 293 535Q345 535 395 511L461 576L566 471L501 405Q525 355 525 303Q525 250 501 200L566 135L461 30L395 95Q347 72 293 72Q237 72 191 95L125 30L20 135L85 201Q62 247 62 303Q62 357 85 405L20 471ZM293 408Q250 408 219 377T189 304Q189 261 219 230T293 199Q336 199 367 230T398 304Q398 347 367 377T293 408Z" unicode="¤"/>
			<glyph d="M5 695H184L295 501L406 695H581L370 360V357H508V249H370V203H508V95H370V0H219V95H81V203H219V249H81V357H219V360Z" unicode="¥"/>
			<glyph d="M93 750H194V338H93ZM93 162H194V-250H93Z" horiz-adv-x="287" unicode="¦"/>
			<glyph d="M276 714Q311 714 344 707T396 692V576L371 586Q351 594 328 599T282 604Q209 604 209 537Q209 493 273 470T383 410T428 301Q428 223 369 174Q387 154 395 128T404 67Q404 -9 356 -60T220 -111Q185 -111 152 -104T100 -89V27L125 17Q145 9 168 4T214 -1Q287 -1 287 66Q287 110 221 132T113 195T70 307Q70 381 126 429Q108 448 100 474T92 536Q92 612 139 663T276 714ZM212 371Q187 351 187 318Q187 291 204 275T258 243L283 232Q309 252 309 284Q309 311 290 329T245 357Z" horiz-adv-x="499" unicode="§"/>
			<glyph d="M24 693H140V576H24ZM201 693H317V576H201Z" horiz-adv-x="341" unicode="¨"/>
			<glyph d="M404 710Q503 710 587 661T719 528T768 347Q768 197 661 91T404 -15Q305 -15 221 33T88 165T39 347Q39 497 147 603T404 710ZM404 623Q290 623 209 542T128 347Q128 233 209 152T404 71Q518 71 599 152T680 347Q680 461 599 542T404 623ZM436 557Q489 557 539 539V444Q490 465 445 465Q384 465 355 434T327 352Q327 295 358 263T446 231Q474 231 501 238T545 256V161Q521 150 495 143T435 136Q336 136 276 193T217 347Q217 444 273 500T436 557Z" horiz-adv-x="808" unicode="©"/>
			<glyph d="M178 718Q315 718 315 590V404Q243 383 171 383Q97 383 64 411T31 485Q31 534 67 560T176 587H202V598Q202 615 188 621T153 627Q119 627 58 611V699Q78 706 110 712T178 718ZM178 520Q140 520 140 491Q140 478 148 472T176 466H202V518Q198 520 178 520Z" horiz-adv-x="362" unicode="ª"/>
			<glyph d="M142 413H274L145 234L274 55H142L14 234ZM355 413H487L358 234L487 55H355L227 234Z" horiz-adv-x="507" unicode="«"/>
			<glyph d="M50 404H536V95H400V268H50Z" unicode="¬"/>
			<glyph d="M38 337H352V204H38Z" horiz-adv-x="390" unicode="­"/>
			<glyph d="M263 712Q355 712 422 644T490 484Q490 390 423 323T263 257Q169 257 102 323T35 484Q35 578 102 645T263 712ZM263 645Q195 645 147 597T99 484Q99 419 147 371T263 323Q329 323 377 371T426 484Q426 549 377 597T263 645ZM174 603H268Q369 603 369 528Q369 501 354 481T315 452L366 364H298L260 441H235V364H174ZM235 552V494H267Q288 494 298 501T308 524Q308 552 266 552Z" horiz-adv-x="525" unicode="®"/>
			<glyph d="M15 666H264V568H15Z" horiz-adv-x="279" unicode="¯"/>
			<glyph d="M206 763Q278 763 329 713T380 590Q380 517 330 466T207 416Q133 416 82 467T31 590Q31 663 82 713T206 763ZM207 683Q169 683 141 656T114 590Q114 551 141 524T206 497Q244 497 270 524T297 590Q297 629 271 656T207 683Z" horiz-adv-x="412" unicode="°"/>
			<glyph d="M225 661H361V486H536V350H361V175H225V350H50V486H225ZM50 136H536V0H50Z" unicode="±"/>
			<glyph d="M197 794Q279 794 318 756T357 656Q357 619 342 589T304 536T233 470L190 434H359V330H41V422L179 548Q211 578 226 598T241 638Q241 664 225 678T177 693Q119 693 62 654V760Q83 775 118 784T197 794Z" horiz-adv-x="411" unicode="²"/>
			<glyph d="M200 796Q269 796 307 761T345 677Q345 633 322 601T262 561V560Q311 551 333 524T355 449Q355 393 306 354T178 315Q135 315 99 323T44 343L45 447Q63 438 97 428T163 419Q198 419 215 431T233 465Q233 489 210 499T145 510H97V610H138Q225 610 225 655Q225 674 209 684T167 695Q136 695 103 684T54 664V764Q116 796 200 796Z" horiz-adv-x="411" unicode="³"/>
			<glyph d="M110 729H255L122 552H10Z" horiz-adv-x="265" unicode="´"/>
			<glyph d="M56 487H204V196Q204 157 223 138T290 120Q333 120 363 133V487H511V35Q461 15 402 0T298 -14Q267 -14 240 -9T202 2V-251H56Z" horiz-adv-x="569" unicode="µ"/>
			<glyph d="M240 695H465V-63H371V599H325V-63H231V349Q149 349 96 396T43 517Q43 602 97 648T240 695Z" horiz-adv-x="555" unicode="¶"/>
			<glyph d="M46 394H203V237H46Z" horiz-adv-x="250" unicode="·"/>
			<glyph d="M119 0H166L143 -44Q187 -44 214 -68T242 -128Q242 -172 205 -197T121 -223Q76 -223 35 -211V-138Q56 -144 71 -146T107 -149Q134 -149 145 -142T156 -122Q156 -107 142 -100T94 -94H66Z" horiz-adv-x="279" unicode="¸"/>
			<glyph d="M232 800H298V330H183V661L55 598V716Z" horiz-adv-x="411" unicode="¹"/>
			<glyph d="M201 718Q275 718 322 671T370 550Q370 476 322 428T201 381Q126 381 78 428T30 550Q30 625 77 671T201 718ZM201 621Q174 621 156 601T139 550Q139 516 156 497T201 478Q227 478 243 497T260 550Q260 583 244 602T201 621Z" horiz-adv-x="398" unicode="º"/>
			<glyph d="M20 413H152L280 234L152 55H20L149 234ZM233 413H365L493 234L365 55H233L362 234Z" horiz-adv-x="507" unicode="»"/>
			<glyph d="M232 700H298V230H183V561L55 498V616ZM679 695H816L302 0H165ZM754 452H870V189H937V92H870V0H756V92H565V190ZM754 309Q739 285 727 268L674 189H756V309Z" horiz-adv-x="959" unicode="¼"/>
			<glyph d="M232 700H298V230H183V561L55 498V616ZM679 695H816L302 0H165ZM795 464Q877 464 916 426T955 326Q955 289 940 259T902 206T831 140L788 104H957V0H639V92L777 218Q809 248 824 268T839 308Q839 334 823 348T775 363Q717 363 660 324V430Q681 445 716 454T795 464Z" horiz-adv-x="1009" unicode="½"/>
			<glyph d="M200 696Q269 696 307 661T345 577Q345 533 322 501T262 461V460Q311 451 333 424T355 349Q355 293 306 254T178 215Q135 215 99 223T44 243L45 347Q63 338 97 328T163 319Q198 319 215 331T233 365Q233 389 210 399T145 410H97V510H138Q225 510 225 555Q225 574 209 584T167 595Q136 595 103 584T54 564V664Q116 696 200 696ZM699 695H836L322 0H185ZM774 452H890V189H957V92H890V0H776V92H585V190ZM774 309Q759 285 747 268L694 189H776V309Z" horiz-adv-x="979" unicode="¾"/>
			<glyph d="M176 487H333V330H176ZM192 257H317V141Q238 105 203 71T168 -6Q168 -48 195 -70T272 -93Q311 -93 349 -82T412 -59V-183Q385 -196 337 -207T235 -218Q138 -218 79 -166T21 -26Q21 46 59 101T192 209Z" horiz-adv-x="457" unicode="¿"/>
			<glyph d="M291 695H435L718 0H551L493 151H228L169 0H4ZM359 495L276 276H442L361 495ZM220 896H373L451 756H339Z" horiz-adv-x="722" unicode="À"/>
			<glyph d="M291 695H435L718 0H551L493 151H228L169 0H4ZM359 495L276 276H442L361 495ZM364 896H516L397 756H285Z" horiz-adv-x="722" unicode="Á"/>
			<glyph d="M291 695H435L718 0H551L493 151H228L169 0H4ZM359 495L276 276H442L361 495ZM325 923H397L563 754H437L361 832L284 754H159Z" horiz-adv-x="722" unicode="Â"/>
			<glyph d="M291 695H435L718 0H551L493 151H228L169 0H4ZM359 495L276 276H442L361 495ZM308 885Q351 885 373 856T411 827Q425 827 432 842T442 882H516Q509 812 485 777T412 743Q386 743 367 754T336 784T308 803Q293 803 286 786T278 746H206Q211 885 308 885Z" horiz-adv-x="722" unicode="Ã"/>
			<glyph d="M291 695H435L718 0H551L493 151H228L169 0H4ZM359 495L276 276H442L361 495ZM214 864H330V747H214ZM391 864H507V747H391Z" horiz-adv-x="722" unicode="Ä"/>
			<glyph d="M291 695H435L718 0H551L493 151H228L169 0H4ZM359 495L276 276H442L361 495ZM361 948Q408 948 441 915T474 835Q474 788 441 755T361 722Q314 722 281 755T248 835Q248 883 281 915T361 948ZM361 883Q341 883 327 869T313 835Q313 816 327 801T361 787Q382 787 396 801T410 835Q410 856 396 869T361 883Z" horiz-adv-x="722" unicode="Å"/>
			<glyph d="M414 695H959V553H648V423H931V281H648V142H973V0H494V151H256L169 0H-6ZM490 554L328 276H494V554Z" horiz-adv-x="1004" unicode="Æ"/>
			<glyph d="M407 707Q501 707 584 676V523Q497 562 415 562Q305 562 252 506T200 356Q200 254 257 195T416 137Q466 137 514 150T595 182V30Q555 10 510 -1T406 -13H383L367 -44Q411 -44 438 -68T466 -128Q466 -172 429 -197T345 -223Q300 -223 259 -211V-138Q280 -144 295 -146T331 -149Q358 -149 369 -142T380 -122Q380 -107 366 -100T318 -94H290L338 -9Q197 11 114 106T32 348Q32 517 131 612T407 707Z" horiz-adv-x="626" unicode="Ç"/>
			<glyph d="M68 695H533V553H222V423H505V281H222V142H547V0H68ZM167 896H320L398 756H286Z" horiz-adv-x="578" unicode="È"/>
			<glyph d="M68 695H533V553H222V423H505V281H222V142H547V0H68ZM311 896H463L344 756H232Z" horiz-adv-x="578" unicode="É"/>
			<glyph d="M68 695H533V553H222V423H505V281H222V142H547V0H68ZM272 923H344L510 754H384L308 832L231 754H106Z" horiz-adv-x="578" unicode="Ê"/>
			<glyph d="M68 695H533V553H222V423H505V281H222V142H547V0H68ZM161 864H277V747H161ZM338 864H454V747H338Z" horiz-adv-x="578" unicode="Ë"/>
			<glyph d="M68 695H222V0H68ZM4 896H157L235 756H123Z" horiz-adv-x="290" unicode="Ì"/>
			<glyph d="M68 695H222V0H68ZM148 896H300L181 756H69Z" horiz-adv-x="290" unicode="Í"/>
			<glyph d="M68 695H222V0H68ZM109 923H181L347 754H221L145 832L68 754H-57Z" horiz-adv-x="290" unicode="Î"/>
			<glyph d="M68 695H222V0H68ZM-2 864H114V747H-2ZM175 864H291V747H175Z" horiz-adv-x="290" unicode="Ï"/>
			<glyph d="M68 695H319Q498 695 596 605T694 355Q694 197 590 98T309 0H68V281H1V414H68ZM223 554V414H364V281H223V141H308Q418 141 473 196T529 348Q529 446 475 500T310 554Z" horiz-adv-x="726" unicode="Ð"/>
			<glyph d="M68 695H197L537 263H539Q536 310 536 362V695H687V0H547L219 430H217Q219 400 219 330V0H68ZM325 885Q368 885 390 856T428 827Q442 827 449 842T459 882H533Q526 812 502 777T429 743Q403 743 384 754T353 784T325 803Q310 803 303 786T295 746H223Q228 885 325 885Z" horiz-adv-x="755" unicode="Ñ"/>
			<glyph d="M389 707Q557 707 651 608T746 347Q746 192 647 90T389 -12Q221 -12 126 87T32 347Q32 506 131 606T389 707ZM388 562Q296 562 242 503T189 347Q189 249 242 191T388 133Q482 133 535 192T589 347Q589 445 538 503T388 562ZM248 896H401L479 756H367Z" horiz-adv-x="778" unicode="Ò"/>
			<glyph d="M389 707Q557 707 651 608T746 347Q746 192 647 90T389 -12Q221 -12 126 87T32 347Q32 506 131 606T389 707ZM388 562Q296 562 242 503T189 347Q189 249 242 191T388 133Q482 133 535 192T589 347Q589 445 538 503T388 562ZM392 896H544L425 756H313Z" horiz-adv-x="778" unicode="Ó"/>
			<glyph d="M389 707Q557 707 651 608T746 347Q746 192 647 90T389 -12Q221 -12 126 87T32 347Q32 506 131 606T389 707ZM388 562Q296 562 242 503T189 347Q189 249 242 191T388 133Q482 133 535 192T589 347Q589 445 538 503T388 562ZM353 923H425L591 754H465L389 832L312 754H187Z" horiz-adv-x="778" unicode="Ô"/>
			<glyph d="M389 707Q557 707 651 608T746 347Q746 192 647 90T389 -12Q221 -12 126 87T32 347Q32 506 131 606T389 707ZM388 562Q296 562 242 503T189 347Q189 249 242 191T388 133Q482 133 535 192T589 347Q589 445 538 503T388 562ZM336 885Q379 885 401 856T439 827Q453 827 460 842T470 882H544Q537 812 513 777T440 743Q414 743 395 754T364 784T336 803Q321 803 314 786T306 746H234Q239 885 336 885Z" horiz-adv-x="778" unicode="Õ"/>
			<glyph d="M389 707Q557 707 651 608T746 347Q746 192 647 90T389 -12Q221 -12 126 87T32 347Q32 506 131 606T389 707ZM388 562Q296 562 242 503T189 347Q189 249 242 191T388 133Q482 133 535 192T589 347Q589 445 538 503T388 562ZM242 864H358V747H242ZM419 864H535V747H419Z" horiz-adv-x="778" unicode="Ö"/>
			<glyph d="M141 551L293 399L445 551L541 455L389 303L541 151L445 55L293 207L141 55L45 151L197 303L45 455Z" unicode="×"/>
			<glyph d="M664 787L746 726L654 607Q699 559 722 492T746 347Q746 192 647 90T389 -12Q282 -12 205 28L123 -78L41 -17L124 90Q78 138 55 204T32 347Q32 506 131 606T389 707Q491 707 571 667ZM388 562Q296 562 242 503T189 347Q189 269 222 216L477 546Q437 562 388 562ZM555 480L299 150Q339 133 388 133Q482 133 535 192T589 347Q589 427 555 480Z" horiz-adv-x="778" unicode="Ø"/>
			<glyph d="M66 695H219V273Q219 190 255 159T375 129Q436 129 506 143V695H659V39Q580 15 514 1T360 -12Q199 -12 132 56T66 261ZM222 896H375L453 756H341Z" horiz-adv-x="727" unicode="Ù"/>
			<glyph d="M66 695H219V273Q219 190 255 159T375 129Q436 129 506 143V695H659V39Q580 15 514 1T360 -12Q199 -12 132 56T66 261ZM366 896H518L399 756H287Z" horiz-adv-x="727" unicode="Ú"/>
			<glyph d="M66 695H219V273Q219 190 255 159T375 129Q436 129 506 143V695H659V39Q580 15 514 1T360 -12Q199 -12 132 56T66 261ZM327 923H399L565 754H439L363 832L286 754H161Z" horiz-adv-x="727" unicode="Û"/>
			<glyph d="M66 695H219V273Q219 190 255 159T375 129Q436 129 506 143V695H659V39Q580 15 514 1T360 -12Q199 -12 132 56T66 261ZM216 864H332V747H216ZM393 864H509V747H393Z" horiz-adv-x="727" unicode="Ü"/>
			<glyph d="M-8 695H171L322 384L483 695H658L399 232V0H244V229ZM330 896H482L363 756H251Z" horiz-adv-x="650" unicode="Ý"/>
			<glyph d="M68 695H222V599H315Q475 599 546 538T618 364Q618 247 538 179T311 112H222V0H68ZM222 458V253H315Q449 253 449 360Q449 410 417 434T320 458Z" horiz-adv-x="651" unicode="Þ"/>
			<glyph d="M310 746Q422 746 478 694T535 561Q535 517 523 488T483 436T423 396T392 361Q392 340 439 324T527 274T568 167Q568 94 518 44T362 -6Q305 -6 248 9V124Q300 109 344 109Q385 109 404 122T424 155Q424 183 392 195T325 224T269 270T248 344Q248 394 272 424T340 479T385 550Q385 586 361 604T302 623Q254 623 229 593T204 514V0H58V508Q58 614 123 680T310 746Z" unicode="ß"/>
			<glyph d="M250 500Q358 500 407 450T456 306V21Q350 -12 240 -12Q33 -12 33 143Q33 218 86 258T249 298Q280 298 310 296V315Q310 350 284 363T218 376Q153 376 69 349V469Q101 480 150 490T250 500ZM251 205Q214 205 195 191T176 151Q176 126 192 113T247 101Q282 101 310 105V202Q286 205 251 205ZM92 729H237L334 552H231Z" horiz-adv-x="509" unicode="à"/>
			<glyph d="M250 500Q358 500 407 450T456 306V21Q350 -12 240 -12Q33 -12 33 143Q33 218 86 258T249 298Q280 298 310 296V315Q310 350 284 363T218 376Q153 376 69 349V469Q101 480 150 490T250 500ZM251 205Q214 205 195 191T176 151Q176 126 192 113T247 101Q282 101 310 105V202Q286 205 251 205ZM284 729H429L296 552H184Z" horiz-adv-x="509" unicode="á"/>
			<glyph d="M250 500Q358 500 407 450T456 306V21Q350 -12 240 -12Q33 -12 33 143Q33 218 86 258T249 298Q280 298 310 296V315Q310 350 284 363T218 376Q153 376 69 349V469Q101 480 150 490T250 500ZM251 205Q214 205 195 191T176 151Q176 126 192 113T247 101Q282 101 310 105V202Q286 205 251 205ZM219 742H291L439 555H321L255 636L190 555H71Z" horiz-adv-x="509" unicode="â"/>
			<glyph d="M250 500Q358 500 407 450T456 306V21Q350 -12 240 -12Q33 -12 33 143Q33 218 86 258T249 298Q280 298 310 296V315Q310 350 284 363T218 376Q153 376 69 349V469Q101 480 150 490T250 500ZM251 205Q214 205 195 191T176 151Q176 126 192 113T247 101Q282 101 310 105V202Q286 205 251 205ZM202 701Q245 701 267 672T305 643Q319 643 326 658T336 698H410Q403 628 379 593T306 559Q280 559 261 570T230 600T202 619Q187 619 180 602T172 562H100Q105 701 202 701Z" horiz-adv-x="509" unicode="ã"/>
			<glyph d="M250 500Q358 500 407 450T456 306V21Q350 -12 240 -12Q33 -12 33 143Q33 218 86 258T249 298Q280 298 310 296V315Q310 350 284 363T218 376Q153 376 69 349V469Q101 480 150 490T250 500ZM251 205Q214 205 195 191T176 151Q176 126 192 113T247 101Q282 101 310 105V202Q286 205 251 205ZM108 693H224V576H108ZM285 693H401V576H285Z" horiz-adv-x="509" unicode="ä"/>
			<glyph d="M250 500Q358 500 407 450T456 306V21Q350 -12 240 -12Q33 -12 33 143Q33 218 86 258T249 298Q280 298 310 296V315Q310 350 284 363T218 376Q153 376 69 349V469Q101 480 150 490T250 500ZM251 205Q214 205 195 191T176 151Q176 126 192 113T247 101Q282 101 310 105V202Q286 205 251 205ZM255 768Q302 768 335 735T368 655Q368 608 335 575T255 542Q208 542 175 575T142 655Q142 703 175 735T255 768ZM255 703Q235 703 221 689T207 655Q207 636 221 621T255 607Q276 607 290 621T304 655Q304 676 290 689T255 703Z" horiz-adv-x="509" unicode="å"/>
			<glyph d="M246 500Q358 500 404 437Q468 499 576 499Q675 499 729 432T784 263Q784 240 781 201H463Q467 161 497 135T597 109Q642 109 675 118T752 146L751 26L717 12Q687 -1 649 -7T567 -14Q479 -14 418 21Q329 -12 231 -12Q127 -12 80 29T33 143Q33 218 86 258T249 298Q280 298 310 296V315Q310 350 284 363T218 376Q153 376 69 349V469Q101 480 149 490T246 500ZM554 388Q514 388 491 363T464 296H636Q636 335 616 361T554 388ZM251 205Q214 205 195 191T176 151Q176 101 251 101Q299 101 332 112Q315 146 310 202Q280 205 251 205Z" horiz-adv-x="808" unicode="æ"/>
			<glyph d="M300 500Q368 500 421 483V349Q400 358 370 363T311 369Q243 369 210 336T177 244Q177 187 213 153T317 119Q372 119 428 142V11Q406 1 370 -6T296 -14H288L272 -44Q316 -44 343 -68T371 -128Q371 -172 334 -197T250 -223Q205 -223 164 -211V-138Q185 -144 200 -146T236 -149Q263 -149 274 -142T285 -122Q285 -107 271 -100T223 -94H195L242 -10Q143 4 85 71T28 246Q28 356 102 428T300 500Z" horiz-adv-x="448" unicode="ç"/>
			<glyph d="M285 499Q399 499 456 432T514 263Q514 241 511 202H176Q180 161 211 134T315 108Q363 108 401 118T480 146L479 26Q429 6 388 -4T288 -14Q165 -14 96 52T28 241Q28 361 97 430T285 499ZM276 387Q234 387 207 362T177 293H369Q369 335 344 361T276 387ZM109 729H254L351 552H248Z" horiz-adv-x="538" unicode="è"/>
			<glyph d="M285 499Q399 499 456 432T514 263Q514 241 511 202H176Q180 161 211 134T315 108Q363 108 401 118T480 146L479 26Q429 6 388 -4T288 -14Q165 -14 96 52T28 241Q28 361 97 430T285 499ZM276 387Q234 387 207 362T177 293H369Q369 335 344 361T276 387ZM301 729H446L313 552H201Z" horiz-adv-x="538" unicode="é"/>
			<glyph d="M285 499Q399 499 456 432T514 263Q514 241 511 202H176Q180 161 211 134T315 108Q363 108 401 118T480 146L479 26Q429 6 388 -4T288 -14Q165 -14 96 52T28 241Q28 361 97 430T285 499ZM276 387Q234 387 207 362T177 293H369Q369 335 344 361T276 387ZM236 742H308L456 555H338L272 636L207 555H88Z" horiz-adv-x="538" unicode="ê"/>
			<glyph d="M285 499Q399 499 456 432T514 263Q514 241 511 202H176Q180 161 211 134T315 108Q363 108 401 118T480 146L479 26Q429 6 388 -4T288 -14Q165 -14 96 52T28 241Q28 361 97 430T285 499ZM276 387Q234 387 207 362T177 293H369Q369 335 344 361T276 387ZM125 693H241V576H125ZM302 693H418V576H302Z" horiz-adv-x="538" unicode="ë"/>
			<glyph d="M58 487H204V0H58ZM-32 729H113L210 552H107Z" horiz-adv-x="262" unicode="ì"/>
			<glyph d="M58 487H204V0H58ZM160 729H305L172 552H60Z" horiz-adv-x="262" unicode="í"/>
			<glyph d="M58 487H204V0H58ZM95 742H167L315 555H197L131 636L66 555H-53Z" horiz-adv-x="262" unicode="î"/>
			<glyph d="M58 487H204V0H58ZM-16 693H100V576H-16ZM161 693H277V576H161Z" horiz-adv-x="262" unicode="ï"/>
			<glyph d="M213 793Q240 778 272 754T321 713L419 777L481 702L395 644Q469 565 506 473T544 267Q544 143 476 64T286 -14Q169 -14 98 57T28 242Q28 351 97 418T269 486Q326 486 367 456L369 458Q354 492 329 526T280 581L179 517L120 591L212 648Q164 689 131 707ZM285 355Q235 355 206 322T177 239Q177 187 205 154T283 121Q335 121 364 154T393 239Q393 289 364 322T285 355Z" horiz-adv-x="574" unicode="ð"/>
			<glyph d="M287 500Q410 500 461 454T513 315V0H367V296Q367 334 348 350T283 366Q241 366 204 358V0H58V469Q184 500 287 500ZM232 701Q275 701 297 672T335 643Q349 643 356 658T366 698H440Q433 628 409 593T336 559Q310 559 291 570T260 600T232 619Q217 619 210 602T202 562H130Q135 701 232 701Z" horiz-adv-x="569" unicode="ñ"/>
			<glyph d="M286 500Q399 500 471 428T543 244Q543 130 471 58T286 -14Q173 -14 100 58T28 244Q28 358 100 429T286 500ZM286 365Q237 365 207 331T177 244Q177 188 208 154T286 121Q333 121 363 155T393 244Q393 299 364 332T286 365ZM123 729H268L365 552H262Z" horiz-adv-x="571" unicode="ò"/>
			<glyph d="M286 500Q399 500 471 428T543 244Q543 130 471 58T286 -14Q173 -14 100 58T28 244Q28 358 100 429T286 500ZM286 365Q237 365 207 331T177 244Q177 188 208 154T286 121Q333 121 363 155T393 244Q393 299 364 332T286 365ZM315 729H460L327 552H215Z" horiz-adv-x="571" unicode="ó"/>
			<glyph d="M286 500Q399 500 471 428T543 244Q543 130 471 58T286 -14Q173 -14 100 58T28 244Q28 358 100 429T286 500ZM286 365Q237 365 207 331T177 244Q177 188 208 154T286 121Q333 121 363 155T393 244Q393 299 364 332T286 365ZM250 742H322L470 555H352L286 636L221 555H102Z" horiz-adv-x="571" unicode="ô"/>
			<glyph d="M286 500Q399 500 471 428T543 244Q543 130 471 58T286 -14Q173 -14 100 58T28 244Q28 358 100 429T286 500ZM286 365Q237 365 207 331T177 244Q177 188 208 154T286 121Q333 121 363 155T393 244Q393 299 364 332T286 365ZM233 701Q276 701 298 672T336 643Q350 643 357 658T367 698H441Q434 628 410 593T337 559Q311 559 292 570T261 600T233 619Q218 619 211 602T203 562H131Q136 701 233 701Z" horiz-adv-x="571" unicode="õ"/>
			<glyph d="M286 500Q399 500 471 428T543 244Q543 130 471 58T286 -14Q173 -14 100 58T28 244Q28 358 100 429T286 500ZM286 365Q237 365 207 331T177 244Q177 188 208 154T286 121Q333 121 363 155T393 244Q393 299 364 332T286 365ZM139 693H255V576H139ZM316 693H432V576H316Z" horiz-adv-x="571" unicode="ö"/>
			<glyph d="M216 579H360V435H216ZM50 370H536V236H50ZM216 170H360V25H216Z" unicode="÷"/>
			<glyph d="M466 562L548 501L482 417Q511 383 527 339T543 244Q543 130 471 58T286 -14Q219 -14 165 12L104 -66L22 -5L85 75Q28 145 28 244Q28 358 100 429T286 500Q348 500 400 477ZM286 370Q235 370 204 335T173 244Q173 216 180 196L313 367Q301 370 286 370ZM388 297L250 121Q264 116 286 116Q336 116 366 151T397 244Q397 275 388 297Z" horiz-adv-x="571" unicode="ø"/>
			<glyph d="M56 487H202V191Q202 153 222 137T290 121Q325 121 365 129V487H511V18Q385 -13 282 -13Q159 -13 107 33T56 172ZM122 729H267L364 552H261Z" horiz-adv-x="569" unicode="ù"/>
			<glyph d="M56 487H202V191Q202 153 222 137T290 121Q325 121 365 129V487H511V18Q385 -13 282 -13Q159 -13 107 33T56 172ZM314 729H459L326 552H214Z" horiz-adv-x="569" unicode="ú"/>
			<glyph d="M56 487H202V191Q202 153 222 137T290 121Q325 121 365 129V487H511V18Q385 -13 282 -13Q159 -13 107 33T56 172ZM249 742H321L469 555H351L285 636L220 555H101Z" horiz-adv-x="569" unicode="û"/>
			<glyph d="M56 487H202V191Q202 153 222 137T290 121Q325 121 365 129V487H511V18Q385 -13 282 -13Q159 -13 107 33T56 172ZM138 693H254V576H138ZM315 693H431V576H315Z" horiz-adv-x="569" unicode="ü"/>
			<glyph d="M-7 487H154L236 251Q251 209 257 180H259Q266 207 280 245L370 487H532L237 -235H78L184 4ZM284 729H429L296 552H184Z" horiz-adv-x="525" unicode="ý"/>
			<glyph d="M58 738H204V478Q258 500 321 500Q422 500 483 430T545 253Q545 131 476 58T303 -14Q248 -14 204 2V-251H58ZM282 361Q240 361 204 346V131Q236 119 280 119Q335 119 365 150T396 243Q396 299 364 330T282 361Z" horiz-adv-x="573" unicode="þ"/>
			<glyph d="M-7 487H154L236 251Q251 209 257 180H259Q266 207 280 245L370 487H532L237 -235H78L184 4ZM106 693H222V576H106ZM283 693H399V576H283Z" horiz-adv-x="525" unicode="ÿ"/>
			<glyph d="M291 695H435L718 0H551L493 151H228L169 0H4ZM359 495L276 276H442L361 495ZM236 850H485V752H236Z" horiz-adv-x="722" unicode="Ā"/>
			<glyph d="M250 500Q358 500 407 450T456 306V21Q350 -12 240 -12Q33 -12 33 143Q33 218 86 258T249 298Q280 298 310 296V315Q310 350 284 363T218 376Q153 376 69 349V469Q101 480 150 490T250 500ZM251 205Q214 205 195 191T176 151Q176 126 192 113T247 101Q282 101 310 105V202Q286 205 251 205ZM130 666H379V568H130Z" horiz-adv-x="509" unicode="ā"/>
			<glyph d="M291 695H435L718 0H551L493 151H228L169 0H4ZM359 495L276 276H442L361 495ZM196 890H293Q295 865 312 850T361 835Q391 835 408 849T428 890H525Q520 823 476 783T361 744Q285 744 243 783T196 890Z" horiz-adv-x="722" unicode="Ă"/>
			<glyph d="M250 500Q358 500 407 450T456 306V21Q350 -12 240 -12Q33 -12 33 143Q33 218 86 258T249 298Q280 298 310 296V315Q310 350 284 363T218 376Q153 376 69 349V469Q101 480 150 490T250 500ZM251 205Q214 205 195 191T176 151Q176 126 192 113T247 101Q282 101 310 105V202Q286 205 251 205ZM105 707H187Q191 679 209 663T255 647Q282 647 301 663T322 707H405Q400 643 360 606T255 570Q189 570 149 606T105 707Z" horiz-adv-x="509" unicode="ă"/>
			<glyph d="M291 695H435L718 0H551L493 151H228L169 0H4ZM359 495L276 276H442L361 495ZM658 0H718Q681 -31 662 -55T643 -103Q643 -121 652 -131T678 -142Q701 -142 718 -135V-204Q691 -215 651 -215Q610 -215 585 -192T561 -134Q561 -95 586 -63T658 0Z" horiz-adv-x="722" unicode="Ą"/>
			<glyph d="M250 500Q358 500 407 450T456 306V21Q420 -15 400 -45T381 -103Q381 -121 390 -131T416 -142Q439 -142 456 -135V-204Q429 -215 389 -215Q348 -215 323 -192T299 -134Q299 -95 317 -62T369 0Q307 -12 240 -12Q33 -12 33 143Q33 218 86 258T249 298Q280 298 310 296V315Q310 350 284 363T218 376Q153 376 69 349V469Q101 480 150 490T250 500ZM251 205Q214 205 195 191T176 151Q176 126 192 113T247 101Q282 101 310 105V202Q286 205 251 205Z" horiz-adv-x="509" unicode="ą"/>
			<glyph d="M407 707Q501 707 584 676V523Q497 562 415 562Q305 562 252 506T200 356Q200 254 257 195T416 137Q466 137 514 150T595 182V30Q555 10 510 -1T406 -13Q236 -13 134 85T32 348Q32 517 131 612T407 707ZM366 896H518L399 756H287Z" horiz-adv-x="626" unicode="Ć"/>
			<glyph d="M300 500Q368 500 421 483V349Q400 358 370 363T311 369Q243 369 210 336T177 244Q177 187 213 153T317 119Q372 119 428 142V11Q406 1 370 -6T296 -14Q173 -14 100 56T28 246Q28 356 102 428T300 500ZM284 729H429L296 552H184Z" horiz-adv-x="448" unicode="ć"/>
			<glyph d="M407 707Q501 707 584 676V523Q497 562 415 562Q305 562 252 506T200 356Q200 254 257 195T416 137Q466 137 514 150T595 182V30Q555 10 510 -1T406 -13Q236 -13 134 85T32 348Q32 517 131 612T407 707ZM327 923H399L565 754H439L363 832L286 754H161Z" horiz-adv-x="626" unicode="Ĉ"/>
			<glyph d="M300 500Q368 500 421 483V349Q400 358 370 363T311 369Q243 369 210 336T177 244Q177 187 213 153T317 119Q372 119 428 142V11Q406 1 370 -6T296 -14Q173 -14 100 56T28 246Q28 356 102 428T300 500ZM219 742H291L439 555H321L255 636L190 555H71Z" horiz-adv-x="448" unicode="ĉ"/>
			<glyph d="M407 707Q501 707 584 676V523Q497 562 415 562Q305 562 252 506T200 356Q200 254 257 195T416 137Q466 137 514 150T595 182V30Q555 10 510 -1T406 -13Q236 -13 134 85T32 348Q32 517 131 612T407 707ZM287 897H439V745H287Z" horiz-adv-x="626" unicode="Ċ"/>
			<glyph d="M300 500Q368 500 421 483V349Q400 358 370 363T311 369Q243 369 210 336T177 244Q177 187 213 153T317 119Q372 119 428 142V11Q406 1 370 -6T296 -14Q173 -14 100 56T28 246Q28 356 102 428T300 500ZM179 741H331V589H179Z" horiz-adv-x="448" unicode="ċ"/>
			<glyph d="M407 707Q501 707 584 676V523Q497 562 415 562Q305 562 252 506T200 356Q200 254 257 195T416 137Q466 137 514 150T595 182V30Q555 10 510 -1T406 -13Q236 -13 134 85T32 348Q32 517 131 612T407 707ZM161 923H287L363 846L439 923H565L399 754H327Z" horiz-adv-x="626" unicode="Č"/>
			<glyph d="M300 500Q368 500 421 483V349Q400 358 370 363T311 369Q243 369 210 336T177 244Q177 187 213 153T317 119Q372 119 428 142V11Q406 1 370 -6T296 -14Q173 -14 100 56T28 246Q28 356 102 428T300 500ZM71 738H190L255 657L321 738H439L291 551H219Z" horiz-adv-x="448" unicode="č"/>
			<glyph d="M68 695H319Q498 695 596 605T694 355Q694 197 590 98T309 0H68ZM223 554V141H308Q418 141 473 196T529 348Q529 446 475 500T310 554ZM131 923H257L333 846L409 923H535L369 754H297Z" horiz-adv-x="726" unicode="Ď"/>
			<glyph d="M369 738H515V41Q407 -14 285 -14Q165 -14 96 57T28 233Q28 355 98 427T272 500Q325 500 369 484ZM297 369Q242 369 209 336T177 243Q177 187 210 155T297 123Q328 123 369 135V358L346 364Q326 369 297 369ZM604 738H733L664 521H555Z" horiz-adv-x="573" unicode="ď"/>
			<glyph d="M68 695H319Q498 695 596 605T694 355Q694 197 590 98T309 0H68V281H1V414H68ZM223 554V414H364V281H223V141H308Q418 141 473 196T529 348Q529 446 475 500T310 554Z" horiz-adv-x="726" unicode="Đ"/>
			<glyph d="M369 738H515V670H575V547H515V41Q407 -14 285 -14Q164 -14 96 54T28 223Q28 343 96 412T272 481Q325 481 369 465V547H215V670H369ZM297 350Q241 350 209 321T177 233Q177 178 209 150T297 123Q328 123 369 135V339L346 345Q326 350 297 350Z" horiz-adv-x="573" unicode="đ"/>
			<glyph d="M68 695H533V553H222V423H505V281H222V142H547V0H68ZM183 850H432V752H183Z" horiz-adv-x="578" unicode="Ē"/>
			<glyph d="M285 499Q399 499 456 432T514 263Q514 241 511 202H176Q180 161 211 134T315 108Q363 108 401 118T480 146L479 26Q429 6 388 -4T288 -14Q165 -14 96 52T28 241Q28 361 97 430T285 499ZM276 387Q234 387 207 362T177 293H369Q369 335 344 361T276 387ZM147 666H396V568H147Z" horiz-adv-x="538" unicode="ē"/>
			<glyph d="M68 695H533V553H222V423H505V281H222V142H547V0H68ZM143 890H240Q242 865 259 850T308 835Q338 835 355 849T375 890H472Q467 823 423 783T308 744Q232 744 190 783T143 890Z" horiz-adv-x="578" unicode="Ĕ"/>
			<glyph d="M285 499Q399 499 456 432T514 263Q514 241 511 202H176Q180 161 211 134T315 108Q363 108 401 118T480 146L479 26Q429 6 388 -4T288 -14Q165 -14 96 52T28 241Q28 361 97 430T285 499ZM276 387Q234 387 207 362T177 293H369Q369 335 344 361T276 387ZM122 707H204Q208 679 226 663T272 647Q299 647 318 663T339 707H422Q417 643 377 606T272 570Q206 570 166 606T122 707Z" horiz-adv-x="538" unicode="ĕ"/>
			<glyph d="M68 695H533V553H222V423H505V281H222V142H547V0H68ZM232 897H384V745H232Z" horiz-adv-x="578" unicode="Ė"/>
			<glyph d="M285 499Q399 499 456 432T514 263Q514 241 511 202H176Q180 161 211 134T315 108Q363 108 401 118T480 146L479 26Q429 6 388 -4T288 -14Q165 -14 96 52T28 241Q28 361 97 430T285 499ZM276 387Q234 387 207 362T177 293H369Q369 335 344 361T276 387ZM196 741H348V589H196Z" horiz-adv-x="538" unicode="ė"/>
			<glyph d="M68 695H533V553H222V423H505V281H222V142H547V0H68ZM487 0H547Q510 -31 491 -55T472 -103Q472 -121 481 -131T507 -142Q530 -142 547 -135V-204Q520 -215 480 -215Q439 -215 414 -192T390 -134Q390 -95 415 -63T487 0Z" horiz-adv-x="578" unicode="Ę"/>
			<glyph d="M285 499Q399 499 456 432T514 263Q514 241 511 202H176Q180 161 211 134T315 108Q363 108 401 118T480 146L479 26Q442 -12 423 -42T404 -103Q404 -121 413 -131T439 -142Q461 -142 479 -135V-204Q451 -215 412 -215Q371 -215 346 -192T322 -134Q322 -65 382 -5Q343 -14 288 -14Q165 -14 96 52T28 241Q28 361 97 430T285 499ZM276 387Q234 387 207 362T177 293H369Q369 335 344 361T276 387Z" horiz-adv-x="538" unicode="ę"/>
			<glyph d="M68 695H533V553H222V423H505V281H222V142H547V0H68ZM106 923H232L308 846L384 923H510L344 754H272Z" horiz-adv-x="578" unicode="Ě"/>
			<glyph d="M285 499Q399 499 456 432T514 263Q514 241 511 202H176Q180 161 211 134T315 108Q363 108 401 118T480 146L479 26Q429 6 388 -4T288 -14Q165 -14 96 52T28 241Q28 361 97 430T285 499ZM276 387Q234 387 207 362T177 293H369Q369 335 344 361T276 387ZM88 738H207L272 657L338 738H456L308 551H236Z" horiz-adv-x="538" unicode="ě"/>
			<glyph d="M430 707Q490 707 532 699T621 678V530Q574 545 527 555T418 566Q308 566 251 508T195 349Q195 246 248 187T405 129Q432 129 451 132T494 142V262H340V391H645V48Q601 23 539 5T400 -12Q226 -12 129 85T32 347Q32 513 136 610T430 707ZM354 923H426L592 754H466L390 832L313 754H188Z" horiz-adv-x="699" unicode="Ĝ"/>
			<glyph d="M306 500Q366 500 416 489T515 460V12Q515 -102 452 -171T255 -241Q195 -241 154 -234T73 -215V-78Q109 -91 148 -99T236 -107Q300 -107 334 -86T369 -11V6Q320 -14 255 -14Q154 -14 91 55T28 232Q28 349 101 424T306 500ZM302 366Q242 366 209 332T177 243Q177 186 209 153T292 121Q323 121 345 127L369 133V357Q335 366 302 366ZM259 742H331L479 555H361L295 636L230 555H111Z" horiz-adv-x="573" unicode="ĝ"/>
			<glyph d="M430 707Q490 707 532 699T621 678V530Q574 545 527 555T418 566Q308 566 251 508T195 349Q195 246 248 187T405 129Q432 129 451 132T494 142V262H340V391H645V48Q601 23 539 5T400 -12Q226 -12 129 85T32 347Q32 513 136 610T430 707ZM225 890H322Q324 865 341 850T390 835Q420 835 437 849T457 890H554Q549 823 505 783T390 744Q314 744 272 783T225 890Z" horiz-adv-x="699" unicode="Ğ"/>
			<glyph d="M306 500Q366 500 416 489T515 460V12Q515 -102 452 -171T255 -241Q195 -241 154 -234T73 -215V-78Q109 -91 148 -99T236 -107Q300 -107 334 -86T369 -11V6Q320 -14 255 -14Q154 -14 91 55T28 232Q28 349 101 424T306 500ZM302 366Q242 366 209 332T177 243Q177 186 209 153T292 121Q323 121 345 127L369 133V357Q335 366 302 366ZM145 707H227Q231 679 249 663T295 647Q322 647 341 663T362 707H445Q440 643 400 606T295 570Q229 570 189 606T145 707Z" horiz-adv-x="573" unicode="ğ"/>
			<glyph d="M430 707Q490 707 532 699T621 678V530Q574 545 527 555T418 566Q308 566 251 508T195 349Q195 246 248 187T405 129Q432 129 451 132T494 142V262H340V391H645V48Q601 23 539 5T400 -12Q226 -12 129 85T32 347Q32 513 136 610T430 707ZM314 897H466V745H314Z" horiz-adv-x="699" unicode="Ġ"/>
			<glyph d="M306 500Q366 500 416 489T515 460V12Q515 -102 452 -171T255 -241Q195 -241 154 -234T73 -215V-78Q109 -91 148 -99T236 -107Q300 -107 334 -86T369 -11V6Q320 -14 255 -14Q154 -14 91 55T28 232Q28 349 101 424T306 500ZM302 366Q242 366 209 332T177 243Q177 186 209 153T292 121Q323 121 345 127L369 133V357Q335 366 302 366ZM219 741H371V589H219Z" horiz-adv-x="573" unicode="ġ"/>
			<glyph d="M430 707Q490 707 532 699T621 678V530Q574 545 527 555T418 566Q308 566 251 508T195 349Q195 246 248 187T405 129Q432 129 451 132T494 142V262H340V391H645V48Q601 23 539 5T400 -12Q226 -12 129 85T32 347Q32 513 136 610T430 707ZM366 -44H503L393 -231H276Z" horiz-adv-x="699" unicode="Ģ"/>
			<glyph d="M306 500Q366 500 416 489T515 460V12Q515 -102 452 -171T255 -241Q195 -241 154 -234T73 -215V-78Q109 -91 148 -99T236 -107Q300 -107 334 -86T369 -11V6Q320 -14 255 -14Q154 -14 91 55T28 232Q28 349 101 424T306 500ZM302 366Q242 366 209 332T177 243Q177 186 209 153T292 121Q323 121 345 127L369 133V357Q335 366 302 366ZM291 750H408L318 563H181Z" horiz-adv-x="573" unicode="ģ"/>
			<glyph d="M68 695H221V419H527V695H681V0H527V278H221V0H68ZM339 923H411L577 754H451L375 832L298 754H173Z" horiz-adv-x="749" unicode="Ĥ"/>
			<glyph d="M58 738H204V477Q231 486 267 493T338 500Q435 500 474 454T513 318V0H367V296Q367 333 349 349T293 366Q270 366 251 362T204 351V0H58ZM249 966H321L487 797H361L285 875L208 797H83Z" horiz-adv-x="569" unicode="ĥ"/>
			<glyph d="M68 695H221V598H527V695H681V598H750V495H681V0H527V268H221V0H68V495H-3V598H68ZM221 495V402H527V495Z" horiz-adv-x="749" unicode="Ħ"/>
			<glyph d="M58 738H204V670H353V547H204V477Q231 486 267 493T338 500Q435 500 474 454T513 318V0H367V296Q367 333 349 349T293 366Q270 366 251 362T204 351V0H58V547H-7V670H58Z" horiz-adv-x="569" unicode="ħ"/>
			<glyph d="M68 695H222V0H68ZM92 885Q135 885 157 856T195 827Q209 827 216 842T226 882H300Q293 812 269 777T196 743Q170 743 151 754T120 784T92 803Q77 803 70 786T62 746H-10Q-5 885 92 885Z" horiz-adv-x="290" unicode="Ĩ"/>
			<glyph d="M58 487H204V0H58ZM78 701Q121 701 143 672T181 643Q195 643 202 658T212 698H286Q279 628 255 593T182 559Q156 559 137 570T106 600T78 619Q63 619 56 602T48 562H-24Q-19 701 78 701Z" horiz-adv-x="262" unicode="ĩ"/>
			<glyph d="M68 695H222V0H68ZM20 850H269V752H20Z" horiz-adv-x="290" unicode="Ī"/>
			<glyph d="M58 487H204V0H58ZM6 666H255V568H6Z" horiz-adv-x="262" unicode="ī"/>
			<glyph d="M68 695H222V0H68ZM-20 890H77Q79 865 96 850T145 835Q175 835 192 849T212 890H309Q304 823 260 783T145 744Q69 744 27 783T-20 890Z" horiz-adv-x="290" unicode="Ĭ"/>
			<glyph d="M58 487H204V0H58ZM-19 707H63Q67 679 85 663T131 647Q158 647 177 663T198 707H281Q276 643 236 606T131 570Q65 570 25 606T-19 707Z" horiz-adv-x="262" unicode="ĭ"/>
			<glyph d="M68 695H222V0Q185 -31 166 -55T147 -103Q147 -121 156 -131T182 -142Q205 -142 222 -135V-204Q195 -215 155 -215Q114 -215 89 -192T65 -134Q65 -95 90 -63T162 0H68Z" horiz-adv-x="290" unicode="Į"/>
			<glyph d="M55 741H207V589H55ZM58 487H204V0Q167 -31 148 -55T129 -103Q129 -121 138 -131T164 -142Q187 -142 204 -135V-204Q177 -215 137 -215Q96 -215 71 -192T47 -134Q47 -95 72 -63T144 0H58Z" horiz-adv-x="262" unicode="į"/>
			<glyph d="M68 695H222V0H68ZM69 897H221V745H69Z" horiz-adv-x="290" unicode="İ"/>
			<glyph d="M58 487H204V0H58Z" horiz-adv-x="262" unicode="ı"/>
			<glyph d="M68 695H222V0H68ZM569 695H724V285Q724 145 659 67T444 -11Q403 -11 363 -4T298 13V157Q319 147 357 139T427 131Q506 131 537 168T569 293Z" horiz-adv-x="790" unicode="Ĳ"/>
			<glyph d="M55 741H207V589H55ZM58 487H204V0H58ZM317 741H469V589H317ZM320 487H466V-34Q466 -125 415 -182T264 -240Q222 -240 184 -231V-102Q187 -102 203 -106T245 -110Q282 -110 301 -89T320 -31Z" horiz-adv-x="524" unicode="ĳ"/>
			<glyph d="M279 695H434V285Q434 145 369 67T154 -11Q113 -11 73 -4T8 13V157Q29 147 67 139T137 131Q216 131 247 168T279 293ZM321 923H393L559 754H433L357 832L280 754H155Z" horiz-adv-x="500" unicode="Ĵ"/>
			<glyph d="M58 487H204V-31Q204 -129 147 -183T2 -237Q-40 -237 -78 -228V-99Q-75 -99 -59 -103T-17 -107Q14 -107 36 -85T58 -28ZM95 742H167L315 555H197L131 636L66 555H-53Z" horiz-adv-x="262" unicode="ĵ"/>
			<glyph d="M68 695H222V355H224L479 695H682L401 352L683 0H483L224 342H222V0H68ZM318 -44H455L345 -231H228Z" horiz-adv-x="683" unicode="Ķ"/>
			<glyph d="M58 738H204V263H206L378 487H564L374 261L567 0H384L206 254H204V0H58ZM250 -44H387L277 -231H160Z" horiz-adv-x="568" unicode="ķ"/>
			<glyph d="M58 487H204V263H206L378 487H564L374 261L567 0H384L206 254H204V0H58Z" horiz-adv-x="568" unicode="ĸ"/>
			<glyph d="M68 695H222V140H543V0H68ZM148 896H300L181 756H69Z" horiz-adv-x="553" unicode="Ĺ"/>
			<glyph d="M58 738H204V0H58ZM134 939H286L167 799H55Z" horiz-adv-x="262" unicode="ĺ"/>
			<glyph d="M68 695H222V140H543V0H68ZM282 -44H419L309 -231H192Z" horiz-adv-x="553" unicode="Ļ"/>
			<glyph d="M58 738H204V0H58ZM107 -44H244L134 -231H17Z" horiz-adv-x="262" unicode="ļ"/>
			<glyph d="M68 695H222V140H543V0H68ZM311 738H440L371 521H262Z" horiz-adv-x="553" unicode="Ľ"/>
			<glyph d="M58 738H204V0H58ZM293 738H422L353 521H244Z" horiz-adv-x="262" unicode="ľ"/>
			<glyph d="M68 695H222V140H543V0H68ZM346 512H498V360H346Z" horiz-adv-x="553" unicode="Ŀ"/>
			<glyph d="M58 738H204V0H58ZM259 448H411V296H259Z" horiz-adv-x="408" unicode="ŀ"/>
			<glyph d="M68 695H222V462L372 545V408L222 325V140H543V0H68V241L-7 200V337L68 378Z" horiz-adv-x="553" unicode="Ł"/>
			<glyph d="M69 738H215V487L290 532V395L215 350V0H69V264L-6 220V357L69 401Z" horiz-adv-x="284" unicode="ł"/>
			<glyph d="M68 695H197L537 263H539Q536 310 536 362V695H687V0H547L219 430H217Q219 400 219 330V0H68ZM381 896H533L414 756H302Z" horiz-adv-x="755" unicode="Ń"/>
			<glyph d="M287 500Q410 500 461 454T513 315V0H367V296Q367 334 348 350T283 366Q241 366 204 358V0H58V469Q184 500 287 500ZM314 729H459L326 552H214Z" horiz-adv-x="569" unicode="ń"/>
			<glyph d="M68 695H197L537 263H539Q536 310 536 362V695H687V0H547L219 430H217Q219 400 219 330V0H68ZM354 -44H491L381 -231H264Z" horiz-adv-x="755" unicode="Ņ"/>
			<glyph d="M287 500Q410 500 461 454T513 315V0H367V296Q367 334 348 350T283 366Q241 366 204 358V0H58V469Q184 500 287 500ZM261 -44H398L288 -231H171Z" horiz-adv-x="569" unicode="ņ"/>
			<glyph d="M68 695H197L537 263H539Q536 310 536 362V695H687V0H547L219 430H217Q219 400 219 330V0H68ZM176 923H302L378 846L454 923H580L414 754H342Z" horiz-adv-x="755" unicode="Ň"/>
			<glyph d="M287 500Q410 500 461 454T513 315V0H367V296Q367 334 348 350T283 366Q241 366 204 358V0H58V469Q184 500 287 500ZM101 738H220L285 657L351 738H469L321 551H249Z" horiz-adv-x="569" unicode="ň"/>
			<glyph d="M392 500Q515 500 566 454T618 315V0H472V296Q472 334 453 350T388 366Q346 366 309 358V0H163V469Q289 500 392 500ZM86 714H233L83 415H-30Z" horiz-adv-x="674" unicode="ŉ"/>
			<glyph d="M68 695H197L537 263H539Q536 310 536 362V695H687V34Q687 -101 620 -177T420 -253Q348 -253 283 -229V-91Q305 -101 338 -109T403 -117Q472 -117 504 -84T536 0V14L219 430H217Q219 400 219 330V0H68Z" horiz-adv-x="755" unicode="Ŋ"/>
			<glyph d="M287 500Q410 500 461 454T513 315V-31Q513 -129 456 -183T311 -237Q269 -237 231 -228V-99Q234 -99 250 -103T292 -107Q323 -107 345 -85T367 -28V296Q367 334 348 350T283 366Q241 366 204 358V0H58V469Q184 500 287 500Z" horiz-adv-x="569" unicode="ŋ"/>
			<glyph d="M389 707Q557 707 651 608T746 347Q746 192 647 90T389 -12Q221 -12 126 87T32 347Q32 506 131 606T389 707ZM388 562Q296 562 242 503T189 347Q189 249 242 191T388 133Q482 133 535 192T589 347Q589 445 538 503T388 562ZM264 850H513V752H264Z" horiz-adv-x="778" unicode="Ō"/>
			<glyph d="M286 500Q399 500 471 428T543 244Q543 130 471 58T286 -14Q173 -14 100 58T28 244Q28 358 100 429T286 500ZM286 365Q237 365 207 331T177 244Q177 188 208 154T286 121Q333 121 363 155T393 244Q393 299 364 332T286 365ZM161 666H410V568H161Z" horiz-adv-x="571" unicode="ō"/>
			<glyph d="M389 707Q557 707 651 608T746 347Q746 192 647 90T389 -12Q221 -12 126 87T32 347Q32 506 131 606T389 707ZM388 562Q296 562 242 503T189 347Q189 249 242 191T388 133Q482 133 535 192T589 347Q589 445 538 503T388 562ZM224 890H321Q323 865 340 850T389 835Q419 835 436 849T456 890H553Q548 823 504 783T389 744Q313 744 271 783T224 890Z" horiz-adv-x="778" unicode="Ŏ"/>
			<glyph d="M286 500Q399 500 471 428T543 244Q543 130 471 58T286 -14Q173 -14 100 58T28 244Q28 358 100 429T286 500ZM286 365Q237 365 207 331T177 244Q177 188 208 154T286 121Q333 121 363 155T393 244Q393 299 364 332T286 365ZM136 707H218Q222 679 240 663T286 647Q313 647 332 663T353 707H436Q431 643 391 606T286 570Q220 570 180 606T136 707Z" horiz-adv-x="571" unicode="ŏ"/>
			<glyph d="M389 707Q557 707 651 608T746 347Q746 192 647 90T389 -12Q221 -12 126 87T32 347Q32 506 131 606T389 707ZM388 562Q296 562 242 503T189 347Q189 249 242 191T388 133Q482 133 535 192T589 347Q589 445 538 503T388 562ZM325 908H459L332 759H224ZM497 908H631L504 759H396Z" horiz-adv-x="778" unicode="Ő"/>
			<glyph d="M286 500Q399 500 471 428T543 244Q543 130 471 58T286 -14Q173 -14 100 58T28 244Q28 358 100 429T286 500ZM286 365Q237 365 207 331T177 244Q177 188 208 154T286 121Q333 121 363 155T393 244Q393 299 364 332T286 365ZM233 723H367L240 554H132ZM405 723H539L412 554H304Z" horiz-adv-x="571" unicode="ő"/>
			<glyph d="M375 707Q421 707 454 698T514 674V695H979V553H668V423H951V281H668V142H993V0H514V21Q461 -12 375 -12Q217 -12 124 88T32 347Q32 503 128 605T375 707ZM388 562Q296 562 242 503T189 347Q189 249 242 191T388 133Q463 133 514 172V525Q465 562 388 562Z" horiz-adv-x="1024" unicode="Œ"/>
			<glyph d="M286 500Q340 500 385 481T464 427Q530 499 636 499Q742 499 800 433T858 263Q858 240 855 201H537Q541 161 571 135T671 109Q716 109 749 118T826 146L825 26Q770 3 736 -5T648 -14Q527 -14 460 55Q391 -14 286 -14Q173 -14 100 58T28 244Q28 358 100 429T286 500ZM628 388Q588 388 565 363T538 296H710Q710 335 690 361T628 388ZM286 365Q237 365 207 331T177 244Q177 188 208 154T286 121Q333 121 363 155T393 244Q393 299 364 332T286 365Z" horiz-adv-x="882" unicode="œ"/>
			<glyph d="M68 695H326Q609 695 609 474Q609 398 570 345T463 264L644 0H451L311 233H222V0H68ZM222 562V373H331Q386 373 415 398T445 467Q445 513 416 537T329 562ZM319 896H471L352 756H240Z" horiz-adv-x="652" unicode="Ŕ"/>
			<glyph d="M270 500Q326 500 368 492V362Q328 369 288 369Q244 369 204 360V0H58V464Q160 500 270 500ZM237 729H382L249 552H137Z" horiz-adv-x="375" unicode="ŕ"/>
			<glyph d="M68 695H326Q609 695 609 474Q609 398 570 345T463 264L644 0H451L311 233H222V0H68ZM222 562V373H331Q386 373 415 398T445 467Q445 513 416 537T329 562ZM292 -44H429L319 -231H202Z" horiz-adv-x="652" unicode="Ŗ"/>
			<glyph d="M270 500Q326 500 368 492V362Q328 369 288 369Q244 369 204 360V0H58V464Q160 500 270 500ZM107 -44H244L134 -231H17Z" horiz-adv-x="375" unicode="ŗ"/>
			<glyph d="M68 695H326Q609 695 609 474Q609 398 570 345T463 264L644 0H451L311 233H222V0H68ZM222 562V373H331Q386 373 415 398T445 467Q445 513 416 537T329 562ZM114 923H240L316 846L392 923H518L352 754H280Z" horiz-adv-x="652" unicode="Ř"/>
			<glyph d="M270 500Q326 500 368 492V362Q328 369 288 369Q244 369 204 360V0H58V464Q160 500 270 500ZM24 738H143L208 657L274 738H392L244 551H172Z" horiz-adv-x="375" unicode="ř"/>
			<glyph d="M323 707Q375 707 426 698T504 679V532Q446 549 408 557T318 566Q252 566 226 549T200 497Q200 471 220 455T322 415T451 365T520 300T542 205Q542 111 469 49T267 -12Q143 -12 51 24V174Q90 154 146 139T261 125Q382 125 382 197Q382 243 316 263T180 308T75 375T41 493Q41 587 115 647T323 707ZM287 896H439L320 756H208Z" horiz-adv-x="568" unicode="Ś"/>
			<glyph d="M244 505Q321 505 394 490V365Q312 387 247 387Q214 387 196 377T179 351Q179 327 212 317T305 290T394 240T424 150Q424 78 374 32T218 -13Q120 -13 44 8V129Q73 119 115 110T200 102Q242 102 261 111T280 138Q280 160 249 170T158 201T66 254T35 344Q35 416 89 460T244 505ZM255 729H400L267 552H155Z" horiz-adv-x="452" unicode="ś"/>
			<glyph d="M323 707Q375 707 426 698T504 679V532Q446 549 408 557T318 566Q252 566 226 549T200 497Q200 471 220 455T322 415T451 365T520 300T542 205Q542 111 469 49T267 -12Q143 -12 51 24V174Q90 154 146 139T261 125Q382 125 382 197Q382 243 316 263T180 308T75 375T41 493Q41 587 115 647T323 707ZM248 923H320L486 754H360L284 832L207 754H82Z" horiz-adv-x="568" unicode="Ŝ"/>
			<glyph d="M244 505Q321 505 394 490V365Q312 387 247 387Q214 387 196 377T179 351Q179 327 212 317T305 290T394 240T424 150Q424 78 374 32T218 -13Q120 -13 44 8V129Q73 119 115 110T200 102Q242 102 261 111T280 138Q280 160 249 170T158 201T66 254T35 344Q35 416 89 460T244 505ZM190 742H262L410 555H292L226 636L161 555H42Z" horiz-adv-x="452" unicode="ŝ"/>
			<glyph d="M323 707Q375 707 426 698T504 679V532Q446 549 408 557T318 566Q252 566 226 549T200 497Q200 471 220 455T322 415T451 365T520 300T542 205Q542 115 477 55T295 -11L278 -44Q322 -44 349 -68T377 -128Q377 -172 340 -197T256 -223Q211 -223 170 -211V-138Q191 -144 206 -146T242 -149Q269 -149 280 -142T291 -122Q291 -107 277 -100T229 -94H201L247 -12Q133 -9 51 24V174Q90 154 146 139T261 125Q382 125 382 197Q382 243 316 263T180 308T75 375T41 493Q41 587 115 647T323 707Z" horiz-adv-x="568" unicode="Ş"/>
			<glyph d="M244 505Q321 505 394 490V365Q312 387 247 387Q214 387 196 377T179 351Q179 327 212 317T305 290T394 240T424 150Q424 83 381 38T247 -12L230 -44Q274 -44 301 -68T329 -128Q329 -172 292 -197T208 -223Q163 -223 122 -211V-138Q143 -144 158 -146T194 -149Q221 -149 232 -142T243 -122Q243 -107 229 -100T181 -94H153L199 -13Q112 -10 44 8V129Q73 119 115 110T200 102Q242 102 261 111T280 138Q280 160 249 170T158 201T66 254T35 344Q35 416 89 460T244 505Z" horiz-adv-x="452" unicode="ş"/>
			<glyph d="M323 707Q375 707 426 698T504 679V532Q446 549 408 557T318 566Q252 566 226 549T200 497Q200 471 220 455T322 415T451 365T520 300T542 205Q542 111 469 49T267 -12Q143 -12 51 24V174Q90 154 146 139T261 125Q382 125 382 197Q382 243 316 263T180 308T75 375T41 493Q41 587 115 647T323 707ZM82 923H208L284 846L360 923H486L320 754H248Z" horiz-adv-x="568" unicode="Š"/>
			<glyph d="M244 505Q321 505 394 490V365Q312 387 247 387Q214 387 196 377T179 351Q179 327 212 317T305 290T394 240T424 150Q424 78 374 32T218 -13Q120 -13 44 8V129Q73 119 115 110T200 102Q242 102 261 111T280 138Q280 160 249 170T158 201T66 254T35 344Q35 416 89 460T244 505ZM42 738H161L226 657L292 738H410L262 551H190Z" horiz-adv-x="452" unicode="š"/>
			<glyph d="M8 695H572V555H367V0H213V555H8ZM270 0H317L294 -44Q338 -44 365 -68T393 -128Q393 -172 356 -197T272 -223Q227 -223 186 -211V-138Q207 -144 222 -146T258 -149Q285 -149 296 -142T307 -122Q307 -107 293 -100T245 -94H217Z" horiz-adv-x="580" unicode="Ţ"/>
			<glyph d="M74 622H220V487H349V366H220V183Q220 145 236 130T289 116Q321 116 351 124V6Q289 -8 240 -8Q153 -8 113 38T74 170V366H9V487H74ZM151 -44H288L178 -231H61Z" horiz-adv-x="371" unicode="ţ"/>
			<glyph d="M8 695H572V555H367V0H213V555H8ZM88 923H214L290 846L366 923H492L326 754H254Z" horiz-adv-x="580" unicode="Ť"/>
			<glyph d="M74 622H220V487H349V366H220V183Q220 145 236 130T289 116Q321 116 351 124V6Q289 -8 240 -8Q153 -8 113 38T74 170V366H9V487H74ZM309 738H438L369 521H260Z" horiz-adv-x="371" unicode="ť"/>
			<glyph d="M8 695H572V555H367V387H519V254H367V0H213V254H61V387H213V555H8Z" horiz-adv-x="580" unicode="Ŧ"/>
			<glyph d="M74 622H220V487H349V376H220V300H349V189H220V173Q220 142 236 129T289 116Q321 116 351 124V6Q289 -8 240 -8Q153 -8 113 38T74 170V189H9V300H74V376H9V487H74Z" horiz-adv-x="350" unicode="ŧ"/>
			<glyph d="M66 695H219V273Q219 190 255 159T375 129Q436 129 506 143V695H659V39Q580 15 514 1T360 -12Q199 -12 132 56T66 261ZM310 885Q353 885 375 856T413 827Q427 827 434 842T444 882H518Q511 812 487 777T414 743Q388 743 369 754T338 784T310 803Q295 803 288 786T280 746H208Q213 885 310 885Z" horiz-adv-x="727" unicode="Ũ"/>
			<glyph d="M56 487H202V191Q202 153 222 137T290 121Q325 121 365 129V487H511V18Q385 -13 282 -13Q159 -13 107 33T56 172ZM232 701Q275 701 297 672T335 643Q349 643 356 658T366 698H440Q433 628 409 593T336 559Q310 559 291 570T260 600T232 619Q217 619 210 602T202 562H130Q135 701 232 701Z" horiz-adv-x="569" unicode="ũ"/>
			<glyph d="M66 695H219V273Q219 190 255 159T375 129Q436 129 506 143V695H659V39Q580 15 514 1T360 -12Q199 -12 132 56T66 261ZM238 850H487V752H238Z" horiz-adv-x="727" unicode="Ū"/>
			<glyph d="M56 487H202V191Q202 153 222 137T290 121Q325 121 365 129V487H511V18Q385 -13 282 -13Q159 -13 107 33T56 172ZM160 666H409V568H160Z" horiz-adv-x="569" unicode="ū"/>
			<glyph d="M66 695H219V273Q219 190 255 159T375 129Q436 129 506 143V695H659V39Q580 15 514 1T360 -12Q199 -12 132 56T66 261ZM198 890H295Q297 865 314 850T363 835Q393 835 410 849T430 890H527Q522 823 478 783T363 744Q287 744 245 783T198 890Z" horiz-adv-x="727" unicode="Ŭ"/>
			<glyph d="M56 487H202V191Q202 153 222 137T290 121Q325 121 365 129V487H511V18Q385 -13 282 -13Q159 -13 107 33T56 172ZM135 707H217Q221 679 239 663T285 647Q312 647 331 663T352 707H435Q430 643 390 606T285 570Q219 570 179 606T135 707Z" horiz-adv-x="569" unicode="ŭ"/>
			<glyph d="M66 695H219V273Q219 190 255 159T375 129Q436 129 506 143V695H659V39Q580 15 514 1T360 -12Q199 -12 132 56T66 261ZM363 948Q410 948 443 915T476 835Q476 788 443 755T363 722Q316 722 283 755T250 835Q250 883 283 915T363 948ZM363 883Q343 883 329 869T315 835Q315 816 329 801T363 787Q384 787 398 801T412 835Q412 856 398 869T363 883Z" horiz-adv-x="727" unicode="Ů"/>
			<glyph d="M56 487H202V191Q202 153 222 137T290 121Q325 121 365 129V487H511V18Q385 -13 282 -13Q159 -13 107 33T56 172ZM285 768Q332 768 365 735T398 655Q398 608 365 575T285 542Q238 542 205 575T172 655Q172 703 205 735T285 768ZM285 703Q265 703 251 689T237 655Q237 636 251 621T285 607Q306 607 320 621T334 655Q334 676 320 689T285 703Z" horiz-adv-x="569" unicode="ů"/>
			<glyph d="M66 695H219V273Q219 190 255 159T375 129Q436 129 506 143V695H659V39Q580 15 514 1T360 -12Q199 -12 132 56T66 261ZM299 908H433L306 759H198ZM471 908H605L478 759H370Z" horiz-adv-x="727" unicode="Ű"/>
			<glyph d="M56 487H202V191Q202 153 222 137T290 121Q325 121 365 129V487H511V18Q385 -13 282 -13Q159 -13 107 33T56 172ZM232 723H366L239 554H131ZM404 723H538L411 554H303Z" horiz-adv-x="569" unicode="ű"/>
			<glyph d="M66 695H219V273Q219 190 255 159T375 129Q436 129 506 143V695H659V39Q622 -4 603 -37T584 -103Q584 -121 593 -131T619 -142Q642 -142 659 -135V-204Q632 -215 592 -215Q551 -215 526 -192T502 -134Q502 -53 572 14Q466 -12 360 -12Q199 -12 132 56T66 261Z" horiz-adv-x="727" unicode="Ų"/>
			<glyph d="M56 487H202V191Q202 153 222 137T290 121Q325 121 365 129V487H511V18Q474 -18 455 -46T436 -103Q436 -121 445 -131T471 -142Q494 -142 511 -135V-204Q484 -215 444 -215Q403 -215 378 -192T354 -134Q354 -95 373 -62T429 1Q352 -13 282 -13Q159 -13 107 33T56 172Z" horiz-adv-x="569" unicode="ų"/>
			<glyph d="M16 695H181L276 329Q292 269 300 215H302Q312 266 336 334L456 695H573L686 319Q706 255 713 209H715Q725 263 743 325L850 695H1013L784 0H639L541 323Q514 415 508 446H506Q491 384 471 326L363 0H219ZM479 923H551L717 754H591L515 832L438 754H313Z" horiz-adv-x="1029" unicode="Ŵ"/>
			<glyph d="M11 487H162L218 276Q230 230 238 182H240Q250 227 265 274L336 487H464L531 270Q536 254 553 185H555Q560 214 576 272L638 487H792L626 0H486L421 198Q403 252 395 297H393Q384 254 364 198L296 0H158ZM364 742H436L584 555H466L400 636L335 555H216Z" horiz-adv-x="803" unicode="ŵ"/>
			<glyph d="M-8 695H171L322 384L483 695H658L399 232V0H244V229ZM291 923H363L529 754H403L327 832L250 754H125Z" horiz-adv-x="650" unicode="Ŷ"/>
			<glyph d="M-7 487H154L236 251Q251 209 257 180H259Q266 207 280 245L370 487H532L237 -235H78L184 4ZM219 742H291L439 555H321L255 636L190 555H71Z" horiz-adv-x="525" unicode="ŷ"/>
			<glyph d="M-8 695H171L322 384L483 695H658L399 232V0H244V229ZM180 864H296V747H180ZM357 864H473V747H357Z" horiz-adv-x="650" unicode="Ÿ"/>
			<glyph d="M52 695H614V577L243 140H626V0H31V114L402 555H52ZM336 896H488L369 756H257Z" horiz-adv-x="653" unicode="Ź"/>
			<glyph d="M31 487H456V392L231 132H465V0H20V95L249 356H31ZM254 729H399L266 552H154Z" horiz-adv-x="485" unicode="ź"/>
			<glyph d="M52 695H614V577L243 140H626V0H31V114L402 555H52ZM257 897H409V745H257Z" horiz-adv-x="653" unicode="Ż"/>
			<glyph d="M31 487H456V392L231 132H465V0H20V95L249 356H31ZM149 741H301V589H149Z" horiz-adv-x="485" unicode="ż"/>
			<glyph d="M52 695H614V577L243 140H626V0H31V114L402 555H52ZM131 923H257L333 846L409 923H535L369 754H297Z" horiz-adv-x="653" unicode="Ž"/>
			<glyph d="M31 487H456V392L231 132H465V0H20V95L249 356H31ZM41 738H160L225 657L291 738H409L261 551H189Z" horiz-adv-x="485" unicode="ž"/>
			<glyph d="M440 706Q493 706 546 695L531 572L506 578Q485 583 455 583Q412 583 392 562T367 504L359 431H488L474 310H345L325 151Q312 47 251 -4T105 -55Q57 -55 21 -46L36 83Q39 83 55 79T96 75Q126 75 151 96T180 154L199 310H134L148 431H213L222 508Q232 599 285 652T440 706Z" horiz-adv-x="560" unicode="ƒ"/>
			<glyph d="M323 707Q375 707 426 698T504 679V532Q446 549 408 557T318 566Q252 566 226 549T200 497Q200 471 220 455T322 415T451 365T520 300T542 205Q542 111 469 49T267 -12Q143 -12 51 24V174Q90 154 146 139T261 125Q382 125 382 197Q382 243 316 263T180 308T75 375T41 493Q41 587 115 647T323 707ZM250 -44H387L277 -231H160Z" horiz-adv-x="568" unicode="Ș"/>
			<glyph d="M244 505Q321 505 394 490V365Q312 387 247 387Q214 387 196 377T179 351Q179 327 212 317T305 290T394 240T424 150Q424 78 374 32T218 -13Q120 -13 44 8V129Q73 119 115 110T200 102Q242 102 261 111T280 138Q280 160 249 170T158 201T66 254T35 344Q35 416 89 460T244 505ZM202 -44H339L229 -231H112Z" horiz-adv-x="452" unicode="ș"/>
			<glyph d="M8 695H572V555H367V0H213V555H8ZM266 -44H403L293 -231H176Z" horiz-adv-x="580" unicode="Ț"/>
			<glyph d="M74 622H220V487H349V366H220V183Q220 145 236 130T289 116Q321 116 351 124V6Q289 -8 240 -8Q153 -8 113 38T74 170V366H9V487H74ZM151 -44H288L178 -231H61Z" horiz-adv-x="371" unicode="ț"/>
			<glyph d="M58 487H204V-31Q204 -129 147 -183T2 -237Q-40 -237 -78 -228V-99Q-75 -99 -59 -103T-17 -107Q14 -107 36 -85T58 -28Z" horiz-adv-x="262" unicode="ȷ"/>
			<glyph d="M158 742H230L378 555H260L194 636L129 555H10Z" horiz-adv-x="388" unicode="ˆ"/>
			<glyph d="M10 738H129L194 657L260 738H378L230 551H158Z" horiz-adv-x="388" unicode="ˇ"/>
			<glyph d="M15 666H264V568H15Z" horiz-adv-x="279" unicode="ˉ"/>
			<glyph d="M-10 707H72Q76 679 94 663T140 647Q167 647 186 663T207 707H290Q285 643 245 606T140 570Q74 570 34 606T-10 707Z" horiz-adv-x="279" unicode="˘"/>
			<glyph d="M61 741H213V589H61Z" horiz-adv-x="279" unicode="˙"/>
			<glyph d="M139 768Q186 768 219 735T252 655Q252 608 219 575T139 542Q92 542 59 575T26 655Q26 703 59 735T139 768ZM139 703Q119 703 105 689T91 655Q91 636 105 621T139 607Q160 607 174 621T188 655Q188 676 174 689T139 703Z" horiz-adv-x="279" unicode="˚"/>
			<glyph d="M147 0H207Q170 -31 151 -55T132 -103Q132 -121 141 -131T167 -142Q190 -142 207 -135V-204Q180 -215 140 -215Q99 -215 74 -192T50 -134Q50 -95 75 -63T147 0Z" horiz-adv-x="279" unicode="˛"/>
			<glyph d="M84 701Q127 701 149 672T187 643Q201 643 208 658T218 698H292Q285 628 261 593T188 559Q162 559 143 570T112 600T84 619Q69 619 62 602T54 562H-18Q-13 701 84 701Z" horiz-adv-x="279" unicode="˜"/>
			<glyph d="M107 723H241L114 554H6ZM279 723H413L286 554H178Z" horiz-adv-x="279" unicode="˝"/>
			<glyph d="M129 750H246L156 563H19Z" horiz-adv-x="0" unicode="̒"/>
			<glyph d="M127 -44H264L154 -231H37Z" horiz-adv-x="0" unicode="̦"/>
			<glyph d="M291 695H435L718 0H4ZM359 495L217 136H504L361 495Z" horiz-adv-x="722" unicode="Δ"/>
			<glyph d="M384 712Q538 712 631 624T725 395Q725 310 685 240T573 142V133H724V0H429V186Q495 202 533 257T572 387Q572 472 518 526T384 580Q304 580 249 525T195 387Q195 314 234 258T337 186V0H43V133H193V142Q123 171 83 239T44 389Q44 532 137 622T384 712Z" horiz-adv-x="767" unicode="Ω"/>
			<glyph d="M56 487H204V196Q204 157 223 138T290 120Q333 120 363 133V487H511V35Q461 15 402 0T298 -14Q267 -14 240 -9T202 2V-251H56Z" horiz-adv-x="569" unicode="μ"/>
			<glyph d="M166 488H623V363H530V165Q530 139 539 125T570 112Q586 112 613 121V11Q571 -7 512 -7Q442 -7 411 31T381 141V363H262V145Q262 65 253 0H102Q111 68 111 148V363Q63 363 21 350V474Q88 488 166 488Z" horiz-adv-x="658" unicode="π"/>
			<glyph d="M68 695H533V553H222V423H505V281H222V142H547V0H68ZM167 896H320L398 756H286Z" horiz-adv-x="578" unicode="Ѐ"/>
			<glyph d="M68 695H533V553H222V423H505V281H222V142H547V0H68ZM161 864H277V747H161ZM338 864H454V747H338Z" horiz-adv-x="578" unicode="Ё"/>
			<glyph d="M8 695H572V555H367V438Q424 457 492 457Q626 457 696 395T767 219Q767 111 698 47T509 -17Q475 -17 453 -11V129Q469 125 492 125Q550 125 582 151T614 219Q614 268 580 292T477 316Q449 316 418 310T367 296V0H213V555H8Z" horiz-adv-x="800" unicode="Ђ"/>
			<glyph d="M68 695H513V555H222V0H68ZM303 896H455L336 756H224Z" horiz-adv-x="521" unicode="Ѓ"/>
			<glyph d="M407 707Q501 707 584 676V523Q497 562 415 562Q326 562 275 525T208 423H515V281H210Q228 213 281 175T416 137Q466 137 514 150T595 182V30Q555 10 510 -1T406 -13Q236 -13 134 85T32 348Q32 517 131 612T407 707Z" horiz-adv-x="626" unicode="Є"/>
			<glyph d="M323 707Q375 707 426 698T504 679V532Q446 549 408 557T318 566Q252 566 226 549T200 497Q200 471 220 455T322 415T451 365T520 300T542 205Q542 111 469 49T267 -12Q143 -12 51 24V174Q90 154 146 139T261 125Q382 125 382 197Q382 243 316 263T180 308T75 375T41 493Q41 587 115 647T323 707Z" horiz-adv-x="568" unicode="Ѕ"/>
			<glyph d="M68 695H222V0H68Z" horiz-adv-x="290" unicode="І"/>
			<glyph d="M68 695H222V0H68ZM-2 864H114V747H-2ZM175 864H291V747H175Z" horiz-adv-x="290" unicode="Ї"/>
			<glyph d="M279 695H434V285Q434 145 369 67T154 -11Q113 -11 73 -4T8 13V157Q29 147 67 139T137 131Q216 131 247 168T279 293Z" horiz-adv-x="500" unicode="Ј"/>
			<glyph d="M208 695H642V462H746Q1029 462 1029 237Q1029 130 948 65T725 0H488V554H341Q321 330 276 206T167 36T8 -10V141Q53 141 89 178T156 335T208 695ZM642 329V140H751Q806 140 835 165T865 234Q865 280 836 304T749 329Z" horiz-adv-x="1062" unicode="Љ"/>
			<glyph d="M68 695H221V419H507V695H661V462H765Q1048 462 1048 237Q1048 130 967 65T744 0H507V278H221V0H68ZM661 329V140H770Q825 140 854 165T884 234Q884 280 855 304T768 329Z" horiz-adv-x="1081" unicode="Њ"/>
			<glyph d="M8 695H572V555H367V424Q428 437 483 437Q638 437 702 368T767 164V0H614V152Q614 235 580 265T468 296Q421 296 367 282V0H213V555H8Z" horiz-adv-x="813" unicode="Ћ"/>
			<glyph d="M345 896H497L378 756H266ZM68 695H222V355H224L479 695H682L401 352L683 0H483L224 342H222V0H68Z" horiz-adv-x="683" unicode="Ќ"/>
			<glyph d="M68 695H219V354Q219 302 216 255H218L558 695H687V0H536V340Q536 410 538 440H536L197 0H68ZM237 896H390L468 756H356Z" horiz-adv-x="755" unicode="Ѝ"/>
			<glyph d="M7 695H185L330 346L481 695H651L430 201Q378 84 313 36T142 -11Q111 -11 83 -4V138Q106 131 142 131Q217 131 252 173ZM154 895H260Q260 867 278 850T326 834Q353 834 371 850T390 892V895H498Q498 823 450 778T326 734Q249 734 202 778T154 895Z" horiz-adv-x="652" unicode="Ў"/>
			<glyph d="M68 695H221V141H488V695H641V0H424V-160H286V0H68Z" horiz-adv-x="709" unicode="Џ"/>
			<glyph d="M291 695H435L718 0H551L493 151H228L169 0H4ZM359 495L276 276H442L361 495Z" horiz-adv-x="722" unicode="А"/>
			<glyph d="M68 695H543V555H222V446H326Q601 446 601 229Q601 124 522 62T305 0H68ZM222 313V140H331Q382 140 409 163T437 226Q437 268 410 290T329 313Z" horiz-adv-x="633" unicode="Б"/>
			<glyph d="M68 695H349Q602 695 602 521Q602 462 564 420T465 366V364Q535 353 578 314T622 201Q622 106 555 53T349 0H68ZM226 568V423H314Q376 423 402 443T428 500Q428 534 405 551T323 568ZM226 291V134H328Q396 134 425 154T454 215Q454 291 324 291Z" horiz-adv-x="654" unicode="В"/>
			<glyph d="M68 695H513V555H222V0H68Z" horiz-adv-x="521" unicode="Г"/>
			<glyph d="M205 695H658V141H746V-160H608V0H146V-160H8V141H83Q127 220 157 346T205 695ZM338 554Q324 409 301 309T244 141H505V554Z" horiz-adv-x="776" unicode="Д"/>
			<glyph d="M68 695H533V553H222V423H505V281H222V142H547V0H68Z" horiz-adv-x="578" unicode="Е"/>
			<glyph d="M0 695H191L390 355H392V695H546V355H548L747 695H938L713 352L938 0H750L548 342H546V0H392V342H390L188 0H0L225 352Z" horiz-adv-x="938" unicode="Ж"/>
			<glyph d="M267 707Q392 707 455 654T519 519Q519 458 483 415T389 357V355Q462 339 499 301T536 195Q536 105 458 46T244 -12Q177 -12 121 -2T31 23V170Q63 151 119 138T230 126Q368 126 368 206Q368 249 325 268T203 287H119V419H193Q352 419 352 500Q352 534 319 551T229 569Q181 569 131 556T46 525V663Q82 681 140 694T267 707Z" horiz-adv-x="568" unicode="З"/>
			<glyph d="M68 695H219V354Q219 302 216 255H218L558 695H687V0H536V340Q536 410 538 440H536L197 0H68Z" horiz-adv-x="755" unicode="И"/>
			<glyph d="M68 695H219V354Q219 302 216 255H218L558 695H687V0H536V340Q536 410 538 440H536L197 0H68ZM206 895H312Q312 867 330 850T378 834Q405 834 423 850T442 892V895H550Q550 823 502 778T378 734Q301 734 254 778T206 895Z" horiz-adv-x="755" unicode="Й"/>
			<glyph d="M68 695H222V355H224L479 695H682L401 352L683 0H483L224 342H222V0H68Z" horiz-adv-x="683" unicode="К"/>
			<glyph d="M208 695H651V0H498V554H341Q321 330 276 206T167 36T8 -10V141Q53 141 89 178T156 335T208 695Z" horiz-adv-x="719" unicode="Л"/>
			<glyph d="M68 695H263L452 208H454L644 695H837V0H692L690 457H688L513 0H391L215 456H213V0H68Z" horiz-adv-x="905" unicode="М"/>
			<glyph d="M68 695H221V419H527V695H681V0H527V278H221V0H68Z" horiz-adv-x="749" unicode="Н"/>
			<glyph d="M389 707Q557 707 651 608T746 347Q746 192 647 90T389 -12Q221 -12 126 87T32 347Q32 506 131 606T389 707ZM388 562Q296 562 242 503T189 347Q189 249 242 191T388 133Q482 133 535 192T589 347Q589 445 538 503T388 562Z" horiz-adv-x="778" unicode="О"/>
			<glyph d="M68 695H661V0H508V554H221V0H68Z" horiz-adv-x="729" unicode="П"/>
			<glyph d="M68 695H315Q618 695 618 458Q618 341 538 272T311 203H222V0H68ZM222 554V344H315Q449 344 449 454Q449 554 320 554Z" horiz-adv-x="651" unicode="Р"/>
			<glyph d="M407 707Q501 707 584 676V523Q497 562 415 562Q305 562 252 506T200 356Q200 254 257 195T416 137Q466 137 514 150T595 182V30Q555 10 510 -1T406 -13Q236 -13 134 85T32 348Q32 517 131 612T407 707Z" horiz-adv-x="626" unicode="С"/>
			<glyph d="M8 695H572V555H367V0H213V555H8Z" horiz-adv-x="580" unicode="Т"/>
			<glyph d="M7 695H185L330 346L481 695H651L430 201Q378 84 313 36T142 -11Q111 -11 83 -4V138Q106 131 142 131Q217 131 252 173Z" horiz-adv-x="652" unicode="У"/>
			<glyph d="M362 715H516V653Q666 649 756 564T846 347Q846 214 759 130T516 42V-20H362V42Q206 46 119 130T32 347Q32 478 122 563T362 653ZM362 512Q281 508 235 463T189 347Q189 276 234 231T362 183ZM516 512V183Q598 187 643 231T689 347Q689 418 643 463T516 512Z" horiz-adv-x="878" unicode="Ф"/>
			<glyph d="M3 695H190L350 460L511 695H698L445 345L695 0H507L348 231L190 0H3L252 347Z" horiz-adv-x="701" unicode="Х"/>
			<glyph d="M68 695H221V141H488V695H641V141H729V-160H591V0H68Z" horiz-adv-x="759" unicode="Ц"/>
			<glyph d="M46 695H199V523Q199 440 235 409T355 379Q416 379 486 393V695H639V0H486V251Q415 238 340 238Q179 238 112 306T46 511Z" horiz-adv-x="707" unicode="Ч"/>
			<glyph d="M68 695H221V141H418V695H571V141H768V695H921V0H68Z" horiz-adv-x="989" unicode="Ш"/>
			<glyph d="M68 695H221V141H418V695H571V141H768V695H921V141H1009V-160H871V0H68Z" horiz-adv-x="1039" unicode="Щ"/>
			<glyph d="M8 695H367V462H471Q754 462 754 237Q754 130 673 65T450 0H213V555H8ZM367 329V140H476Q531 140 560 165T590 234Q590 280 561 304T474 329Z" horiz-adv-x="787" unicode="Ъ"/>
			<glyph d="M68 695H222V462H326Q609 462 609 237Q609 130 528 65T305 0H68ZM222 329V140H331Q386 140 415 165T445 234Q445 280 416 304T329 329ZM690 695H844V0H690Z" horiz-adv-x="912" unicode="Ы"/>
			<glyph d="M68 695H222V462H326Q609 462 609 237Q609 130 528 65T305 0H68ZM222 329V140H331Q386 140 415 165T445 234Q445 280 416 304T329 329Z" horiz-adv-x="642" unicode="Ь"/>
			<glyph d="M219 707Q397 707 495 613T594 356Q594 188 492 87T220 -13Q161 -13 116 -1T31 30V182Q63 164 111 150T210 137Q292 137 346 175T418 281H112V423H417Q400 489 349 525T211 562Q129 562 42 523V676Q125 707 219 707Z" horiz-adv-x="627" unicode="Э"/>
			<glyph d="M659 707Q818 707 907 609T996 347Q996 192 903 90T659 -12Q516 -12 428 70T325 289H222V0H68V695H222V422H328Q349 551 437 629T659 707ZM658 562Q574 562 526 503T479 347Q479 249 526 191T658 133Q742 133 790 191T839 347Q839 445 793 503T658 562Z" horiz-adv-x="1028" unicode="Ю"/>
			<glyph d="M321 695H584V0H430V233H336L189 0H8L187 261Q118 283 80 333T43 459Q43 567 111 631T321 695ZM325 562Q266 562 236 537T207 465Q207 422 235 397T325 373H430V562Z" horiz-adv-x="652" unicode="Я"/>
			<glyph d="M250 500Q358 500 407 450T456 306V21Q350 -12 240 -12Q33 -12 33 143Q33 218 86 258T249 298Q280 298 310 296V315Q310 350 284 363T218 376Q153 376 69 349V469Q101 480 150 490T250 500ZM251 205Q214 205 195 191T176 151Q176 126 192 113T247 101Q282 101 310 105V202Q286 205 251 205Z" horiz-adv-x="509" unicode="а"/>
			<glyph d="M512 752V615L332 571Q257 553 223 516T181 413L183 412Q202 437 241 455T334 473Q429 473 489 413T549 244Q549 128 479 57T296 -14Q32 -14 32 314Q32 487 93 578T301 703ZM294 344Q243 344 214 314T186 235Q186 182 214 151T290 121Q342 121 371 153T400 237Q400 288 372 316T294 344Z" horiz-adv-x="577" unicode="б"/>
			<glyph d="M58 487H310Q496 487 496 363Q496 319 468 289T397 251V250Q508 232 508 138Q508 72 460 36T312 0H58ZM204 375V294H287Q347 294 347 334Q347 375 289 375ZM204 195V112H287Q357 112 357 155Q357 175 340 185T286 195Z" horiz-adv-x="538" unicode="в"/>
			<glyph d="M58 487H419V355H204V0H58Z" horiz-adv-x="427" unicode="г"/>
			<glyph d="M148 487H528V132H598V-160H468V0H140V-160H10V132H73Q100 185 118 268T148 487ZM272 355Q258 213 229 132H382V355Z" horiz-adv-x="634" unicode="д"/>
			<glyph d="M285 499Q399 499 456 432T514 263Q514 241 511 202H176Q180 161 211 134T315 108Q363 108 401 118T480 146L479 26Q429 6 388 -4T288 -14Q165 -14 96 52T28 241Q28 361 97 430T285 499ZM276 387Q234 387 207 362T177 293H369Q369 335 344 361T276 387Z" horiz-adv-x="538" unicode="е"/>
			<glyph d="M5 487H177L311 263H313V487H459V263H461L595 487H767L616 261L771 0H600L461 254H459V0H313V254H311L172 0H1L156 261Z" horiz-adv-x="772" unicode="ж"/>
			<glyph d="M208 499Q306 499 355 463T404 361Q404 272 309 249V248Q417 223 417 135Q417 62 360 24T188 -14Q134 -14 90 -6T20 11V130Q45 119 90 109T175 100Q222 100 245 112T268 149Q268 173 244 182T161 192H87V300H153Q212 300 233 311T255 345Q255 365 236 375T171 386Q133 386 95 378T30 359V471Q107 499 208 499Z" horiz-adv-x="449" unicode="з"/>
			<glyph d="M58 487H202V329Q202 290 200 214H202L412 487H537V0H393V156Q393 195 395 271H393L183 0H58Z" horiz-adv-x="595" unicode="и"/>
			<glyph d="M58 487H202V329Q202 290 200 214H202L412 487H537V0H393V156Q393 195 395 271H393L183 0H58ZM128 697H230Q234 669 252 653T298 637Q325 637 344 653T365 697H468Q462 624 416 582T298 540Q225 540 179 581T128 697Z" horiz-adv-x="595" unicode="й"/>
			<glyph d="M58 487H204V263H206L378 487H564L374 261L567 0H384L206 254H204V0H58Z" horiz-adv-x="568" unicode="к"/>
			<glyph d="M132 487H498V0H352V355H256Q241 211 207 132T125 23T5 -7V133Q37 133 61 155T104 254T132 487Z" horiz-adv-x="556" unicode="л"/>
			<glyph d="M58 487H254L367 194H368L491 487H679V0H544V304H542L415 0H317L195 303H193V0H58Z" horiz-adv-x="737" unicode="м"/>
			<glyph d="M58 487H204V313H373V487H519V0H373V185H204V0H58Z" horiz-adv-x="577" unicode="н"/>
			<glyph d="M286 500Q399 500 471 428T543 244Q543 130 471 58T286 -14Q173 -14 100 58T28 244Q28 358 100 429T286 500ZM286 365Q237 365 207 331T177 244Q177 188 208 154T286 121Q333 121 363 155T393 244Q393 299 364 332T286 365Z" horiz-adv-x="571" unicode="о"/>
			<glyph d="M58 487H513V0H367V355H204V0H58Z" horiz-adv-x="571" unicode="п"/>
			<glyph d="M294 500Q413 500 479 429T545 253Q545 131 476 58T303 -14Q248 -14 204 2V-235H58V449Q174 500 294 500ZM282 361Q240 361 204 349V131Q236 119 280 119Q335 119 365 150T396 243Q396 299 364 330T282 361Z" horiz-adv-x="573" unicode="р"/>
			<glyph d="M300 500Q368 500 421 483V349Q400 358 370 363T311 369Q243 369 210 336T177 244Q177 187 213 153T317 119Q372 119 428 142V11Q406 1 370 -6T296 -14Q173 -14 100 56T28 246Q28 356 102 428T300 500Z" horiz-adv-x="448" unicode="с"/>
			<glyph d="M8 487H464V355H309V0H163V355H8Z" horiz-adv-x="472" unicode="т"/>
			<glyph d="M-7 487H154L236 251Q251 209 257 180H259Q266 207 280 245L370 487H532L237 -235H78L184 4Z" horiz-adv-x="525" unicode="у"/>
			<glyph d="M290 738H430V500Q549 494 620 425T691 244Q691 131 620 61T430 -14V-250H290V-14Q170 -8 99 62T28 244Q28 358 99 426T290 500ZM290 369Q237 365 207 331T177 244Q177 188 208 155T290 117ZM430 369V117Q482 122 511 155T541 244Q541 299 512 332T430 369Z" horiz-adv-x="719" unicode="ф"/>
			<glyph d="M-4 487H181L280 351L380 487H564L370 247L572 0H385L278 141L176 0H-6L189 246Z" horiz-adv-x="566" unicode="х"/>
			<glyph d="M58 487H204V132H367V487H513V132H593V-160H463V0H58Z" horiz-adv-x="603" unicode="ц"/>
			<glyph d="M38 487H184V357Q184 319 203 303T268 287Q300 287 337 295V487H483V0H337V164Q295 157 260 157Q139 157 88 203T38 342Z" horiz-adv-x="541" unicode="ч"/>
			<glyph d="M58 487H204V132H327V487H473V132H596V487H742V0H58Z" horiz-adv-x="800" unicode="ш"/>
			<glyph d="M58 487H204V132H327V487H473V132H596V487H742V132H822V-160H692V0H58Z" horiz-adv-x="832" unicode="щ"/>
			<glyph d="M8 487H289V340H363Q472 340 523 296T575 174Q575 91 522 45T358 0H143V355H8ZM289 225V115H361Q429 115 429 169Q429 192 414 208T366 225Z" horiz-adv-x="595" unicode="ъ"/>
			<glyph d="M58 487H204V340H278Q387 340 438 296T490 174Q490 91 437 45T273 0H58ZM204 225V115H276Q344 115 344 169Q344 192 329 208T281 225ZM528 487H674V0H528Z" horiz-adv-x="732" unicode="ы"/>
			<glyph d="M58 487H204V340H278Q387 340 438 296T490 174Q490 91 437 45T273 0H58ZM204 225V115H276Q344 115 344 169Q344 192 329 208T281 225Z" horiz-adv-x="510" unicode="ь"/>
			<glyph d="M184 500Q307 500 366 431T426 249Q426 132 356 59T162 -14Q121 -14 86 -8T28 4V125Q77 105 140 105Q197 105 232 127T274 194H68V296H274Q261 383 149 383Q89 383 35 363V477Q59 485 101 492T184 500Z" horiz-adv-x="454" unicode="э"/>
			<glyph d="M518 500Q628 500 698 429T768 244Q768 130 698 58T518 -14Q421 -14 354 43T272 194H204V0H58V487H204V294H272Q287 388 353 444T518 500ZM518 365Q473 365 445 331T417 244Q417 188 445 154T518 121Q562 121 590 155T618 244Q618 299 591 332T518 365Z" horiz-adv-x="796" unicode="ю"/>
			<glyph d="M249 487H471V0H325V154H258L169 0H11L124 178Q81 195 58 229T35 315Q35 393 88 440T249 487ZM245 369Q213 369 197 355T181 319Q181 298 194 283T238 268H325V369Z" horiz-adv-x="529" unicode="я"/>
			<glyph d="M285 499Q399 499 456 432T514 263Q514 241 511 202H176Q180 161 211 134T315 108Q363 108 401 118T480 146L479 26Q429 6 388 -4T288 -14Q165 -14 96 52T28 241Q28 361 97 430T285 499ZM276 387Q234 387 207 362T177 293H369Q369 335 344 361T276 387ZM109 729H254L351 552H248Z" horiz-adv-x="538" unicode="ѐ"/>
			<glyph d="M285 499Q399 499 456 432T514 263Q514 241 511 202H176Q180 161 211 134T315 108Q363 108 401 118T480 146L479 26Q429 6 388 -4T288 -14Q165 -14 96 52T28 241Q28 361 97 430T285 499ZM276 387Q234 387 207 362T177 293H369Q369 335 344 361T276 387ZM125 693H241V576H125ZM302 693H418V576H302Z" horiz-adv-x="538" unicode="ё"/>
			<glyph d="M58 738H204V670H353V547H204V472Q229 483 268 491T347 500Q437 500 475 450T513 308V-34Q513 -125 462 -182T311 -240Q269 -240 231 -231V-102Q234 -102 250 -106T292 -110Q329 -110 348 -89T367 -31V292Q367 330 349 348T293 366Q248 366 204 345V0H58V547H-7V670H58Z" horiz-adv-x="569" unicode="ђ"/>
			<glyph d="M58 487H419V355H204V0H58ZM243 729H388L255 552H143Z" horiz-adv-x="427" unicode="ѓ"/>
			<glyph d="M300 500Q364 500 420 485V364Q373 383 312 383Q256 383 222 361T180 296H386V194H180Q196 105 316 105Q372 105 425 127V7Q364 -14 291 -14Q169 -14 98 56T28 246Q28 359 99 429T300 500Z" horiz-adv-x="453" unicode="є"/>
			<glyph d="M244 505Q321 505 394 490V365Q312 387 247 387Q214 387 196 377T179 351Q179 327 212 317T305 290T394 240T424 150Q424 78 374 32T218 -13Q120 -13 44 8V129Q73 119 115 110T200 102Q242 102 261 111T280 138Q280 160 249 170T158 201T66 254T35 344Q35 416 89 460T244 505Z" horiz-adv-x="452" unicode="ѕ"/>
			<glyph d="M55 741H207V589H55ZM58 487H204V0H58Z" horiz-adv-x="262" unicode="і"/>
			<glyph d="M58 487H204V0H58ZM-16 693H100V576H-16ZM161 693H277V576H161Z" horiz-adv-x="262" unicode="ї"/>
			<glyph d="M55 741H207V589H55ZM58 487H204V-34Q204 -125 153 -182T2 -240Q-40 -240 -78 -231V-102Q-75 -102 -59 -106T-17 -110Q20 -110 39 -89T58 -31Z" horiz-adv-x="262" unicode="ј"/>
			<glyph d="M132 487H498V340H572Q681 340 732 296T784 174Q784 91 731 45T567 0H352V355H256Q241 211 207 132T125 23T5 -7V133Q37 133 61 155T104 254T132 487ZM498 225V115H570Q638 115 638 169Q638 192 623 208T575 225Z" horiz-adv-x="804" unicode="љ"/>
			<glyph d="M58 487H204V323H363V487H509V340H583Q692 340 743 296T795 174Q795 91 742 45T578 0H363V195H204V0H58ZM509 225V115H581Q649 115 649 169Q649 192 634 208T586 225Z" horiz-adv-x="815" unicode="њ"/>
			<glyph d="M58 738H204V670H353V547H204V477Q231 486 267 493T338 500Q435 500 474 454T513 318V0H367V296Q367 333 349 349T293 366Q270 366 251 362T204 351V0H58V547H-7V670H58Z" horiz-adv-x="569" unicode="ћ"/>
			<glyph d="M313 729H458L325 552H213ZM58 487H204V263H206L378 487H564L374 261L567 0H384L206 254H204V0H58Z" horiz-adv-x="568" unicode="ќ"/>
			<glyph d="M58 487H202V329Q202 290 200 214H202L412 487H537V0H393V156Q393 195 395 271H393L183 0H58ZM135 729H280L377 552H274Z" horiz-adv-x="595" unicode="ѝ"/>
			<glyph d="M-7 487H154L236 251Q251 209 257 180H259Q266 207 280 245L370 487H532L237 -235H78L184 4ZM85 697H187Q191 669 209 653T255 637Q282 637 301 653T322 697H425Q419 624 373 582T255 540Q182 540 136 581T85 697Z" horiz-adv-x="525" unicode="ў"/>
			<glyph d="M58 487H204V132H367V487H513V0H351V-160H221V0H58Z" horiz-adv-x="571" unicode="џ"/>
			<glyph d="M375 856H513V555H222V0H68V695H375Z" horiz-adv-x="523" unicode="Ґ"/>
			<glyph d="M289 647H419V355H204V0H58V487H289Z" horiz-adv-x="427" unicode="ґ"/>
			<glyph d="M68 695H513V555H222V387H375V254H222V0H68V254H1V387H68Z" horiz-adv-x="521" unicode="Ғ"/>
			<glyph d="M58 487H419V355H204V260H323V147H204V0H58V147H3V260H58Z" horiz-adv-x="427" unicode="ғ"/>
			<glyph d="M0 695H191L390 355H392V695H546V355H548L747 695H938L713 352L848 141H948V-160H810V0H750L548 342H546V0H392V342H390L188 0H0L225 352Z" horiz-adv-x="944" unicode="Җ"/>
			<glyph d="M5 487H177L311 263H313V487H459V263H461L595 487H767L616 261L693 132H781V-160H651V0H600L461 254H459V0H313V254H311L172 0H1L156 261Z" horiz-adv-x="772" unicode="җ"/>
			<glyph d="M68 695H222V355H224L479 695H682L401 352L570 141H693V-160H555V0H483L224 342H222V0H68Z" horiz-adv-x="689" unicode="Қ"/>
			<glyph d="M58 487H204V263H206L378 487H564L374 261L469 132H577V-160H447V0H384L206 254H204V0H58Z" horiz-adv-x="568" unicode="қ"/>
			<glyph d="M68 695H222V419H270V555H370V419H371L533 695H724L499 352L724 0H536L372 278H370V127H270V278H222V0H68Z" horiz-adv-x="724" unicode="Ҝ"/>
			<glyph d="M58 487H204V310H245V426H334V310H336L440 487H612L461 258L616 0H445L336 197H334V83H245V197H204V0H58Z" horiz-adv-x="617" unicode="ҝ"/>
			<glyph d="M68 695H221V419H527V695H681V141H769V-160H631V0H527V278H221V0H68Z" horiz-adv-x="799" unicode="Ң"/>
			<glyph d="M58 487H204V313H373V487H519V132H599V-160H469V0H373V185H204V0H58Z" horiz-adv-x="609" unicode="ң"/>
			<glyph d="M-8 695H171L322 384L483 695H658L399 232V0H244V229Z" horiz-adv-x="650" unicode="Ү"/>
			<glyph d="M-7 487H152L220 293Q245 220 258 170H260Q273 220 298 293L366 487H525L332 0V-235H186V0Z" horiz-adv-x="518" unicode="ү"/>
			<glyph d="M-8 695H171L322 384L483 695H658L452 327H561V194H399V0H244V194H82V327H191Z" horiz-adv-x="650" unicode="Ұ"/>
			<glyph d="M-7 487H152L220 293Q245 220 258 170H260Q273 220 298 293L366 487H525L352 50H443V-73H332V-235H186V-73H75V50H166Z" horiz-adv-x="518" unicode="ұ"/>
			<glyph d="M3 695H190L350 460L511 695H698L445 345L593 141H705V-160H567V0H507L348 231L190 0H3L252 347Z" horiz-adv-x="701" unicode="Ҳ"/>
			<glyph d="M-4 487H181L280 351L380 487H564L370 247L464 132H582V-160H452V0H385L278 141L176 0H-6L189 246Z" horiz-adv-x="573" unicode="ҳ"/>
			<glyph d="M46 695H199V523Q199 463 218 430T285 386V545H400V381Q444 385 486 393V695H639V0H486V251Q447 244 400 240V117H285V240Q155 251 100 319T46 511Z" horiz-adv-x="707" unicode="Ҹ"/>
			<glyph d="M32 487H178V361Q178 334 188 319T220 297V406H309V293Q326 293 351 299V487H497V0H351V164Q330 160 309 159V63H220V159Q120 166 76 210T32 342Z" horiz-adv-x="555" unicode="ҹ"/>
			<glyph d="M68 695H221V444Q293 457 367 457Q528 457 594 388T661 184V0H508V172Q508 255 471 285T352 316Q291 316 221 302V0H68Z" horiz-adv-x="707" unicode="Һ"/>
			<glyph d="M58 487H204V323Q246 330 281 330Q402 330 452 284T503 145V0H357V130Q357 168 338 184T273 200Q241 200 204 192V0H58Z" horiz-adv-x="541" unicode="һ"/>
			<glyph d="M339 716Q509 716 605 620T702 360Q702 186 602 83T342 -20Q193 -20 111 72T29 317Q29 347 34 400H535Q530 476 474 524T307 572Q194 572 76 513L77 656Q140 686 197 701T339 716ZM188 282Q188 208 228 160T351 113Q430 113 478 159T534 282Z" horiz-adv-x="734" unicode="Ә"/>
			<glyph d="M250 501Q373 501 441 434T510 246Q510 126 441 57T253 -12Q139 -12 81 54T24 224Q24 246 27 285H362Q358 326 327 352T223 379Q175 379 137 368T58 341L59 461Q109 481 149 491T250 501ZM169 194Q169 152 193 126T262 100Q304 100 331 125T361 194Z" horiz-adv-x="538" unicode="ә"/>
			<glyph d="M389 707Q557 707 651 608T746 347Q746 192 647 90T389 -12Q221 -12 126 87T32 347Q32 506 131 606T389 707ZM388 562Q310 562 260 520T195 406H584Q570 479 520 520T388 562ZM194 293Q208 219 258 176T388 133Q468 133 519 176T584 293Z" horiz-adv-x="777" unicode="Ө"/>
			<glyph d="M286 500Q405 500 474 430T543 244Q543 130 472 58T286 -14Q169 -14 98 58T28 244Q28 358 98 429T286 500ZM286 381Q243 381 214 357T179 292H392Q386 331 359 356T286 381ZM179 192Q185 153 212 128T285 103Q328 103 356 126T392 192Z" horiz-adv-x="571" unicode="ө"/>
			<glyph d="M16 695H181L276 329Q292 269 300 215H302Q312 266 336 334L456 695H573L686 319Q706 255 713 209H715Q725 263 743 325L850 695H1013L784 0H639L541 323Q514 415 508 446H506Q491 384 471 326L363 0H219ZM374 896H527L605 756H493Z" horiz-adv-x="1029" unicode="Ẁ"/>
			<glyph d="M11 487H162L218 276Q230 230 238 182H240Q250 227 265 274L336 487H464L531 270Q536 254 553 185H555Q560 214 576 272L638 487H792L626 0H486L421 198Q403 252 395 297H393Q384 254 364 198L296 0H158ZM237 729H382L479 552H376Z" horiz-adv-x="803" unicode="ẁ"/>
			<glyph d="M16 695H181L276 329Q292 269 300 215H302Q312 266 336 334L456 695H573L686 319Q706 255 713 209H715Q725 263 743 325L850 695H1013L784 0H639L541 323Q514 415 508 446H506Q491 384 471 326L363 0H219ZM518 896H670L551 756H439Z" horiz-adv-x="1029" unicode="Ẃ"/>
			<glyph d="M11 487H162L218 276Q230 230 238 182H240Q250 227 265 274L336 487H464L531 270Q536 254 553 185H555Q560 214 576 272L638 487H792L626 0H486L421 198Q403 252 395 297H393Q384 254 364 198L296 0H158ZM429 729H574L441 552H329Z" horiz-adv-x="803" unicode="ẃ"/>
			<glyph d="M16 695H181L276 329Q292 269 300 215H302Q312 266 336 334L456 695H573L686 319Q706 255 713 209H715Q725 263 743 325L850 695H1013L784 0H639L541 323Q514 415 508 446H506Q491 384 471 326L363 0H219ZM368 864H484V747H368ZM545 864H661V747H545Z" horiz-adv-x="1029" unicode="Ẅ"/>
			<glyph d="M11 487H162L218 276Q230 230 238 182H240Q250 227 265 274L336 487H464L531 270Q536 254 553 185H555Q560 214 576 272L638 487H792L626 0H486L421 198Q403 252 395 297H393Q384 254 364 198L296 0H158ZM253 693H369V576H253ZM430 693H546V576H430Z" horiz-adv-x="803" unicode="ẅ"/>
			<glyph d="M382 707Q527 707 597 640T673 475L500 384Q602 370 646 325T691 208Q691 111 620 50T420 -11Q381 -11 343 -7T283 4V147Q307 139 343 133T413 128Q465 128 497 145T530 190Q530 239 491 262T342 301V415L494 501Q490 529 464 548T383 568Q305 568 263 519T221 377V0H66V393Q66 540 151 623T382 707Z" horiz-adv-x="724" unicode="ẞ"/>
			<glyph d="M-8 695H171L322 384L483 695H658L399 232V0H244V229ZM186 896H339L417 756H305Z" horiz-adv-x="650" unicode="Ỳ"/>
			<glyph d="M-7 487H154L236 251Q251 209 257 180H259Q266 207 280 245L370 487H532L237 -235H78L184 4ZM92 729H237L334 552H231Z" horiz-adv-x="525" unicode="ỳ"/>
			<glyph d="M45 337H504V204H45Z" horiz-adv-x="549" unicode="–"/>
			<glyph d="M45 337H734V204H45Z" horiz-adv-x="779" unicode="—"/>
			<glyph d="M125 714H238L122 415H-25Z" horiz-adv-x="223" unicode="‘"/>
			<glyph d="M101 714H248L98 415H-15Z" horiz-adv-x="223" unicode="’"/>
			<glyph d="M101 154H248L98 -145H-15Z" horiz-adv-x="223" unicode="‚"/>
			<glyph d="M125 714H238L122 415H-25ZM332 714H445L329 415H182Z" horiz-adv-x="430" unicode="“"/>
			<glyph d="M101 714H248L98 415H-15ZM308 714H455L305 415H192Z" horiz-adv-x="430" unicode="”"/>
			<glyph d="M81 154H228L78 -145H-35ZM288 154H435L285 -145H172Z" horiz-adv-x="457" unicode="„"/>
			<glyph d="M188 696H317L311 488L485 493V381L311 388L303 -42H203L194 388L25 381V493L194 488Z" horiz-adv-x="510" unicode="†"/>
			<glyph d="M188 696H317L311 508L485 513V401L311 408L306 327L311 246L485 253V141L311 146L317 -42H188L194 146L25 141V253L194 246L199 327L194 408L25 401V513L194 508Z" horiz-adv-x="510" unicode="‡"/>
			<glyph d="M65 453H345V173H65Z" horiz-adv-x="410" unicode="•"/>
			<glyph d="M280 157H437V0H280ZM517 157H674V0H517ZM40 157H197V0H40Z" horiz-adv-x="713" unicode="…"/>
			<glyph d="M211 704Q295 704 346 653T397 519Q397 436 346 384T211 332Q126 332 75 384T25 519Q25 603 75 653T211 704ZM607 695H744L230 0H93ZM211 607Q177 607 158 583T139 519Q139 478 158 454T211 430Q245 430 263 453T281 519Q281 560 263 583T211 607ZM631 360Q715 360 766 309T817 175Q817 92 766 40T631 -12Q546 -12 495 40T445 175Q445 259 495 309T631 360ZM1026 360Q1110 360 1161 309T1212 175Q1212 92 1161 40T1026 -12Q941 -12 890 40T840 175Q840 259 890 309T1026 360ZM631 263Q597 263 578 239T559 175Q559 134 578 110T631 86Q665 86 683 109T701 175Q701 216 683 239T631 263ZM1026 263Q992 263 973 239T954 175Q954 134 973 110T1026 86Q1060 86 1078 109T1096 175Q1096 216 1078 239T1026 263Z" horiz-adv-x="1237" unicode="‰"/>
			<glyph d="M142 413H274L145 234L274 55H142L14 234Z" horiz-adv-x="294" unicode="‹"/>
			<glyph d="M20 413H152L280 234L152 55H20L149 234Z" horiz-adv-x="294" unicode="›"/>
			<glyph d="M258 695H395L-119 0H-256Z" horiz-adv-x="137" unicode="⁄"/>
			<glyph d="M206 794Q282 794 329 730T376 559Q376 446 329 382T205 318Q126 318 80 381T35 559Q35 667 81 730T206 794ZM205 691Q179 691 165 654T151 560Q151 498 164 459T206 421Q230 421 245 457T260 557Q260 615 246 653T205 691Z" horiz-adv-x="411" unicode="⁰"/>
			<glyph d="M206 782H322V519H389V422H322V330H208V422H17V520ZM206 639Q191 615 179 598L126 519H208V639Z" horiz-adv-x="411" unicode="⁴"/>
			<glyph d="M78 782H344V677H183L179 624H195Q272 624 315 588T359 481Q359 413 311 364T185 315Q99 315 55 337V440Q114 418 168 418Q206 418 224 433T243 474Q243 504 222 516T157 529Q114 529 65 522Z" horiz-adv-x="411" unicode="⁵"/>
			<glyph d="M190 782H314L210 615V613Q214 613 222 614T242 615Q294 615 333 576T373 477Q373 408 326 363T210 319Q135 319 88 362T42 477Q42 512 53 543T85 609ZM208 531Q186 531 171 516T157 477Q157 451 172 437T210 423Q232 423 244 438T257 477Q257 500 244 515T208 531Z" horiz-adv-x="411" unicode="⁶"/>
			<glyph d="M35 781H365V707L186 330H60L229 677H35Z" horiz-adv-x="411" unicode="⁷"/>
			<glyph d="M205 796Q270 796 315 758T361 668Q361 627 340 601T285 565V563Q372 542 372 456Q372 394 326 355T206 317Q131 317 84 356T38 457Q38 494 57 522T122 563V565Q90 576 70 601T50 669Q50 720 94 758T205 796ZM205 697Q188 697 177 685T167 658Q167 641 177 630T205 620Q222 620 233 630T245 658Q245 673 233 685T205 697ZM206 508Q182 508 169 496T156 465Q156 444 169 431T205 418Q228 418 241 431T255 465Q255 485 242 496T206 508Z" horiz-adv-x="411" unicode="⁸"/>
			<glyph d="M202 793Q277 793 323 749T370 634Q370 600 358 568T327 503L222 330H98L202 497V499Q198 499 189 498T170 497Q118 497 78 535T39 635Q39 702 85 747T202 793ZM202 689Q180 689 167 674T155 635Q155 612 168 596T203 581Q226 581 240 596T255 634Q255 661 240 675T202 689Z" horiz-adv-x="411" unicode="⁹"/>
			<glyph d="M206 364Q282 364 329 300T376 129Q376 16 329 -48T205 -112Q126 -112 80 -48T35 129Q35 237 81 300T206 364ZM205 261Q179 261 165 224T151 130Q151 68 164 29T206 -9Q230 -9 245 27T260 127Q260 185 246 223T205 261Z" horiz-adv-x="411" unicode="₀"/>
			<glyph d="M232 370H298V-100H183V231L55 168V286Z" horiz-adv-x="411" unicode="₁"/>
			<glyph d="M197 364Q279 364 318 326T357 226Q357 189 342 159T304 106T233 40L190 4H359V-100H41V-8L179 118Q211 148 226 168T241 208Q241 234 225 248T177 263Q119 263 62 224V330Q83 345 118 354T197 364Z" horiz-adv-x="411" unicode="₂"/>
			<glyph d="M200 366Q269 366 307 331T345 247Q345 203 322 171T262 131V130Q311 121 333 94T355 19Q355 -37 306 -76T178 -115Q135 -115 99 -106T44 -87L45 17Q63 8 97 -1T163 -11Q198 -11 215 1T233 35Q233 59 210 69T145 80H97V180H138Q225 180 225 225Q225 244 209 254T167 265Q136 265 103 254T54 234V334Q116 366 200 366Z" horiz-adv-x="411" unicode="₃"/>
			<glyph d="M206 352H322V89H389V-8H322V-100H208V-8H17V90ZM206 209Q191 185 179 168L126 89H208V209Z" horiz-adv-x="411" unicode="₄"/>
			<glyph d="M78 352H344V247H183L179 194H195Q272 194 315 158T359 51Q359 -17 311 -66T185 -115Q99 -115 55 -93V10Q114 -12 168 -12Q206 -12 224 3T243 44Q243 74 222 86T157 99Q114 99 65 92Z" horiz-adv-x="411" unicode="₅"/>
			<glyph d="M190 352H314L210 185V183Q214 183 222 184T242 185Q294 185 333 146T373 47Q373 -22 326 -66T210 -111Q135 -111 88 -67T42 47Q42 82 53 113T85 179ZM208 101Q186 101 171 86T157 47Q157 21 172 7T210 -7Q232 -7 244 8T257 47Q257 70 244 85T208 101Z" horiz-adv-x="411" unicode="₆"/>
			<glyph d="M35 351H365V277L186 -100H60L229 247H35Z" horiz-adv-x="411" unicode="₇"/>
			<glyph d="M205 366Q270 366 315 328T361 238Q361 197 340 171T285 135V133Q372 112 372 26Q372 -36 326 -74T206 -113Q131 -113 84 -74T38 27Q38 64 57 92T122 133V135Q90 146 70 171T50 239Q50 290 94 328T205 366ZM205 267Q188 267 177 255T167 228Q167 211 177 200T205 190Q222 190 233 200T245 228Q245 243 233 255T205 267ZM206 78Q182 78 169 66T156 35Q156 14 169 1T205 -12Q228 -12 241 1T255 35Q255 55 242 66T206 78Z" horiz-adv-x="411" unicode="₈"/>
			<glyph d="M202 363Q277 363 323 319T370 204Q370 170 358 138T327 73L222 -100H98L202 67V69Q198 69 189 68T170 67Q118 67 78 105T39 205Q39 272 85 317T202 363ZM202 259Q180 259 167 244T155 205Q155 182 168 166T203 151Q226 151 240 166T255 204Q255 231 240 245T202 259Z" horiz-adv-x="411" unicode="₉"/>
			<glyph d="M406 713Q470 713 526 698V560Q502 569 479 574T422 579Q373 579 341 558T292 492H473V384H273Q273 374 272 353Q272 325 273 313H473V205H292Q308 162 338 141T416 121Q473 121 526 143V7Q498 -2 467 -8T390 -14Q283 -14 218 39T129 205H56V313H117Q117 326 116 351Q116 373 117 384H56V492H132Q159 601 230 657T406 713Z" unicode="€"/>
			<glyph d="M50 695H541V571H377Q407 549 423 504H541V380H432Q422 320 381 274T279 209L469 0H274L113 189H50V313H165Q207 313 235 330T274 380H50V504H275Q266 535 239 553T169 571H50Z" unicode="₹"/>
			<glyph d="M116 695H270V562L420 645V508L270 425V363L420 445V308L270 226V139Q293 134 314 134Q364 134 403 159T455 237L581 188Q545 86 467 37T287 -11Q204 -11 116 19V141L41 100V237L116 278V341L41 300V437L116 478Z" horiz-adv-x="601" unicode="₺"/>
			<glyph d="M120 695H338Q480 695 541 642T603 489Q603 391 535 337T328 283H274V220H484V87H274V0H120V87H28V220H120V283H28V416H120ZM274 559V416H328Q387 416 410 434T434 488Q434 524 410 541T328 559Z" horiz-adv-x="635" unicode="₽"/>
			<glyph d="M318 712Q385 712 421 671T458 570Q458 496 413 422T284 278V169Q284 128 300 109T342 91Q375 91 421 128L471 53Q391 -15 304 -15Q222 -15 182 30T143 150V182L90 136L40 204L143 292V506Q143 600 191 656T318 712ZM323 613Q284 613 284 521V394Q324 451 340 484T357 559Q357 582 348 597T323 613Z" horiz-adv-x="536" unicode="ℓ"/>
			<glyph d="M895 713Q995 713 1057 651T1119 490Q1119 392 1056 328T895 265Q798 265 734 328T671 490Q671 589 734 651T895 713ZM72 695H201L481 273H483Q480 320 480 372V695H626V0H486L218 420H216Q218 390 218 320V0H72ZM895 595Q853 595 826 566T800 490Q800 441 827 412T895 383Q936 383 962 412T988 490Q988 538 963 566T895 595ZM692 194H1104V72H692Z" horiz-adv-x="1167" unicode="№"/>
			<glyph d="M23 695H327V606H224V330H126V606H23ZM370 695H507L580 477H581L653 695H790V330H697L696 547H695L619 324H540L464 547H463V330H370Z" horiz-adv-x="830" unicode="™"/>
			<glyph d="M384 712Q538 712 631 624T725 395Q725 310 685 240T573 142V133H724V0H429V186Q495 202 533 257T572 387Q572 472 518 526T384 580Q304 580 249 525T195 387Q195 314 234 258T337 186V0H43V133H193V142Q123 171 83 239T44 389Q44 532 137 622T384 712Z" horiz-adv-x="767" unicode="Ω"/>
			<glyph d="M415 671Q572 671 682 570T793 324H185Q175 324 175 313V116Q222 65 285 37T415 10Q488 10 554 42T667 131H724Q668 63 586 26T415 -11Q260 -11 148 87T36 330Q36 474 146 572T415 671ZM415 650Q345 650 282 621T175 543V358Q175 352 177 349T185 347H646Q651 347 653 349T655 358V542Q611 593 547 621T415 650Z" horiz-adv-x="830" unicode="℮"/>
			<glyph d="M325 722Q451 722 520 635T590 409Q590 305 560 209T464 51T292 -11Q190 -11 125 50T61 211Q61 329 133 401T313 474Q354 474 387 460T444 425Q446 425 446 440Q446 514 412 560T313 607Q243 607 192 559L139 657Q177 691 222 706T325 722ZM336 365Q280 365 245 319T210 203Q210 158 232 130T295 103Q401 103 433 310Q397 365 336 365Z" horiz-adv-x="654" unicode="∂"/>
			<glyph d="M291 695H435L718 0H4ZM359 495L217 136H504L361 495Z" horiz-adv-x="722" unicode="∆"/>
			<glyph d="M68 734H689V-225H543V605H213V-225H68Z" horiz-adv-x="757" unicode="∏"/>
			<glyph d="M42 734H616V606H230L483 262L210 -97H635V-225H24V-120L315 261L42 626Z" horiz-adv-x="666" unicode="∑"/>
			<glyph d="M60 371H546V235H60Z" horiz-adv-x="606" unicode="−"/>
			<glyph d="M335 750H454L112 -49H-7Z" horiz-adv-x="447" unicode="∕"/>
			<glyph d="M46 394H203V237H46Z" horiz-adv-x="250" unicode="∙"/>
			<glyph d="M472 753H588L368 -113H260L116 194L60 164L16 252L177 338L301 66Z" horiz-adv-x="585" unicode="√"/>
			<glyph d="M232 462Q343 462 428 350Q467 399 514 430T623 462Q705 462 757 411T809 279Q809 198 757 145T624 92Q513 92 429 199Q387 150 340 121T235 92Q152 92 100 143T48 277Q48 358 99 410T232 462ZM236 359Q200 359 178 335T156 276Q156 240 178 217T238 195Q273 195 306 218T366 276Q339 312 304 335T236 359ZM618 359Q554 359 490 276Q518 239 551 216T620 194Q658 194 679 218T701 277Q701 313 679 336T618 359Z" horiz-adv-x="860" unicode="∞"/>
			<glyph d="M379 763Q417 763 450 750T492 711Q488 683 476 659T447 622Q426 624 407 642T374 655T352 634T344 588L345 546V113Q345 -7 337 -70T292 -178T175 -222Q137 -222 103 -208T61 -168Q66 -135 76 -113T107 -81Q128 -81 146 -101T185 -109T207 -40L206 494Q206 580 218 637T268 728T379 763Z" horiz-adv-x="572" unicode="∫"/>
			<glyph d="M195 305Q233 305 266 291T330 257T396 238Q446 238 486 302L579 228Q541 172 493 143T391 114Q353 114 320 128T256 161T190 181Q140 181 100 117L7 191Q45 247 93 276T195 305ZM195 540Q233 540 266 526T330 492T396 473Q446 473 486 537L579 463Q541 407 493 378T391 349Q353 349 320 363T256 396T190 416Q140 416 100 352L7 426Q45 482 93 511T195 540Z" unicode="≈"/>
			<glyph d="M369 589H506L458 494H536V358H389L333 248H536V112H265L217 17H80L128 112H50V248H196L252 358H50V494H321Z" unicode="≠"/>
			<glyph d="M536 689V535L224 424L536 313V160L50 355V493ZM50 136H536V0H50Z" unicode="≤"/>
			<glyph d="M50 689L536 493V355L50 160V313L362 424L50 535ZM50 136H536V0H50Z" unicode="≥"/>
			<glyph d="M256 714H338L545 348L338 -17H256L50 348ZM297 581L172 348L297 115L423 348Z" horiz-adv-x="601" unicode="◊"/>
		</font>
</defs>
</svg>
