<?xml version="1.0" encoding="UTF-8"?>
<svg height="100%" width="100%" xmlns="http://www.w3.org/2000/svg">
	<defs>
		<font horiz-adv-x="575" id="web">
			<font-face alphabetic="0" ascent="993" descent="-267" font-family="" panose-1="2 11 7 3 2 2 4 2 2 4"/>
			<missing-glyph d="M59 700H446V0H59ZM109 650V50H396V650Z" horiz-adv-x="506"/>
			<glyph d="" horiz-adv-x="234" unicode=" "/>
			<glyph d="M69 695H189L182 217H77ZM62 132H193V0H62Z" horiz-adv-x="255" unicode="!"/>
			<glyph d="M42 714H147L136 419H52ZM213 714H318L307 419H223Z" horiz-adv-x="359" unicode="&quot;"/>
			<glyph d="M212 695H291L258 509H364L397 695H477L444 509H535V419H428L402 274H499V184H386L354 0H275L307 184H201L168 0H89L122 184H26V274H138L164 419H62V509H179ZM243 419L217 274H324L349 419Z" horiz-adv-x="550" unicode="#"/>
			<glyph d="M254 788H323V685Q411 682 479 659V547Q397 574 323 579V394Q417 366 466 324T516 206Q516 135 466 80T323 13V-96H254V10Q201 10 153 21T75 47V163Q105 144 154 129T254 113V304Q143 337 103 380T63 494Q63 565 113 617T254 682ZM254 575Q214 568 194 547T175 496Q175 466 194 446T254 414ZM323 282V118Q363 125 382 146T402 199Q402 231 383 249T323 282Z" unicode="$"/>
			<glyph d="M206 704Q287 704 336 653T385 520Q385 436 336 385T206 334Q125 334 75 385T26 520Q26 603 75 653T206 704ZM611 695H723L212 0H100ZM206 625Q165 625 142 596T119 520Q119 470 142 442T206 414Q246 414 268 442T291 520Q291 569 268 597T206 625ZM621 359Q702 359 751 308T800 174Q800 91 751 39T621 -12Q540 -12 491 39T442 174Q442 258 491 308T621 359ZM621 279Q580 279 557 250T534 174Q534 124 557 96T621 68Q661 68 683 96T706 174Q706 223 683 251T621 279Z" horiz-adv-x="827" unicode="%"/>
			<glyph d="M342 714Q434 714 481 668T528 553Q528 491 491 446T382 369L496 238Q515 269 540 313T573 371H696Q681 344 634 265T567 155L705 0H551L486 78Q447 34 397 10T279 -14Q171 -14 110 41T49 189Q49 262 86 311T211 402Q179 443 162 475T146 549Q146 620 199 667T342 714ZM335 619Q299 619 280 599T262 551Q262 521 275 497T315 443Q365 466 386 490T408 550Q408 580 388 599T335 619ZM273 324Q218 302 193 270T169 194Q169 144 203 114T290 85Q327 85 361 102T420 154Z" horiz-adv-x="715" unicode="&amp;"/>
			<glyph d="M42 714H147L136 419H52Z" horiz-adv-x="188" unicode="'"/>
			<glyph d="M191 770H309Q234 672 190 553T146 305Q146 173 190 56T309 -160H191Q117 -67 76 53T35 305Q35 435 76 554T191 770Z" horiz-adv-x="322" unicode="("/>
			<glyph d="M13 770H131Q205 677 246 557T287 305Q287 175 246 55T131 -160H13Q88 -62 132 57T176 305Q176 437 132 554T13 770Z" horiz-adv-x="322" unicode=")"/>
			<glyph d="M182 713H268L256 559L403 615L430 532L278 497L381 373L307 322L224 458L142 322L67 373L170 497L18 531L45 618L191 559Z" horiz-adv-x="449" unicode="*"/>
			<glyph d="M233 543H342V358H528V248H342V63H233V248H47V358H233Z" unicode="+"/>
			<glyph d="M90 132H210L84 -142H-19Z" horiz-adv-x="245" unicode=","/>
			<glyph d="M41 320H352V212H41Z" horiz-adv-x="393" unicode="-"/>
			<glyph d="M56 132H188V0H56Z" horiz-adv-x="245" unicode="."/>
			<glyph d="M338 750H435L93 -49H-4Z" horiz-adv-x="431" unicode="/"/>
			<glyph d="M288 707Q406 707 472 613T539 351Q539 184 471 85T287 -13Q170 -13 103 81T36 352Q36 520 103 613T288 707ZM287 595Q227 595 194 531T161 353Q161 230 194 164T288 99Q348 99 381 167T414 349Q414 465 382 530T287 595Z" unicode="0"/>
			<glyph d="M311 712H382V0H259V561L76 469V596Z" unicode="1"/>
			<glyph d="M282 707Q395 707 450 650T506 504Q506 435 473 377T335 226L211 114H517V0H51V104L265 305Q329 366 355 405T381 486Q381 535 351 565T259 596Q168 596 77 530V651Q166 707 282 707Z" unicode="2"/>
			<glyph d="M263 707Q376 707 432 655T489 522Q489 460 452 416T358 357V355Q430 339 467 301T504 194Q504 104 435 46T244 -12Q185 -12 135 -1T54 23V140Q79 125 132 110T233 96Q303 96 338 122T374 197Q374 249 331 272T210 295H134V407H202Q277 407 318 434T360 510Q360 552 327 574T234 597Q188 597 143 582T68 552V663Q101 681 152 694T263 707Z" unicode="3"/>
			<glyph d="M325 695H446V251H555V148H446V0H330V148H12V253ZM327 538Q309 503 280 462L134 251H330V538Z" unicode="4"/>
			<glyph d="M104 695H485V582H210L200 434Q230 440 268 440Q388 440 449 382T510 223Q510 117 439 52T243 -12Q189 -12 143 -2T65 25V140Q104 121 144 110T238 99Q314 99 349 132T385 218Q385 277 344 306T225 336Q157 336 82 321Z" unicode="5"/>
			<glyph d="M283 695H418L246 419L247 418Q259 425 281 429T327 434Q414 434 473 374T533 220Q533 122 465 55T290 -12Q182 -12 115 52T48 220Q48 270 64 317T112 415ZM293 339Q237 339 204 305T172 218Q172 163 205 131T290 99Q345 99 376 132T408 219Q408 272 377 305T293 339Z" unicode="6"/>
			<glyph d="M36 695H527V612L236 0H101L383 582H36Z" unicode="7"/>
			<glyph d="M288 707Q388 707 450 654T513 519Q513 460 481 418T397 361V359Q532 323 532 192Q532 100 464 43T286 -13Q175 -13 108 42T42 191Q42 252 74 296T175 359V361Q125 377 93 417T62 518Q62 598 126 652T288 707ZM288 599Q242 599 215 574T188 509Q188 468 215 443T287 418Q333 418 360 443T387 509Q387 550 360 574T288 599ZM287 299Q232 299 200 273T169 199Q169 151 200 124T287 97Q342 97 373 124T405 199Q405 247 373 273T287 299Z" unicode="8"/>
			<glyph d="M283 707Q391 707 458 643T526 476Q526 426 510 378T464 282L292 0H155L328 276L327 278Q314 271 291 266T247 261Q160 261 100 321T41 475Q41 574 109 640T283 707ZM283 597Q228 597 197 563T167 476Q167 423 197 390T281 357Q337 357 369 390T402 478Q402 533 369 565T283 597Z" unicode="9"/>
			<glyph d="M56 132H188V0H56ZM56 483H188V351H56Z" horiz-adv-x="245" unicode=":"/>
			<glyph d="M56 483H188V351H56ZM90 132H210L84 -142H-19Z" horiz-adv-x="245" unicode=";"/>
			<glyph d="M528 560V437L179 284L528 131V9L47 229V339Z" unicode="&lt;"/>
			<glyph d="M47 474H528V365H47ZM47 241H528V132H47Z" unicode="="/>
			<glyph d="M47 560L528 340V230L47 9V131L396 285L47 438Z" unicode="&gt;"/>
			<glyph d="M220 706Q314 706 370 655T427 518Q427 446 386 389T252 277V217H149V332Q232 375 270 413T308 502Q308 550 277 577T192 604Q151 604 112 593T47 567V669Q77 683 121 694T220 706ZM135 132H267V0H135Z" horiz-adv-x="453" unicode="?"/>
			<glyph d="M455 714Q630 714 735 620T841 368Q841 256 787 191T646 127Q571 127 543 170Q520 153 488 141T425 129Q345 129 296 182T247 325Q247 418 303 477T460 537Q544 537 616 503L615 262Q615 238 625 223T655 209Q692 209 717 248T742 368Q742 491 665 558T454 626Q315 626 230 542T145 330Q145 199 229 117T450 36Q560 36 642 70V-23Q552 -54 453 -54Q270 -54 158 51T46 326Q46 501 159 607T455 714ZM457 450Q401 450 371 416T341 331Q341 275 370 245T447 216Q495 216 524 238V438Q490 450 457 450Z" horiz-adv-x="887" unicode="@"/>
			<glyph d="M294 695H409L697 0H562L493 173H205L135 0H2ZM348 535L245 275H451L350 535Z" horiz-adv-x="699" unicode="A"/>
			<glyph d="M73 695H335Q583 695 583 522Q583 462 545 420T446 365V363Q519 352 562 313T605 200Q605 107 537 53T332 0H73ZM199 592V412H306Q444 412 444 506Q444 549 415 570T315 592ZM199 304V109H317Q396 109 433 134T471 210Q471 258 432 281T313 304Z" horiz-adv-x="641" unicode="B"/>
			<glyph d="M407 707Q507 707 589 674V550Q502 590 411 590Q292 590 232 525T173 355Q173 241 238 174T413 108Q469 108 517 121T601 155V32Q560 12 514 0T403 -13Q239 -13 139 86T39 348Q39 514 136 610T407 707Z" horiz-adv-x="634" unicode="C"/>
			<glyph d="M73 695H308Q490 695 587 606T684 355Q684 197 581 98T304 0H73ZM197 581V114H303Q423 114 487 176T552 349Q552 460 489 520T301 581Z" horiz-adv-x="723" unicode="D"/>
			<glyph d="M73 695H523V581H196V410H494V295H196V114H538V0H73Z" horiz-adv-x="572" unicode="E"/>
			<glyph d="M73 695H522V581H197V389H506V275H197V0H73Z" horiz-adv-x="541" unicode="F"/>
			<glyph d="M427 707Q487 707 532 698T622 675V554Q576 571 526 582T417 593Q298 593 234 526T170 349Q170 234 232 168T404 102Q468 102 523 125V275H356V380H644V51Q537 -12 399 -12Q231 -12 135 86T39 347Q39 512 141 609T427 707Z" horiz-adv-x="702" unicode="G"/>
			<glyph d="M73 695H196V409H541V695H664V0H541V295H196V0H73Z" horiz-adv-x="737" unicode="H"/>
			<glyph d="M73 695H196V0H73Z" horiz-adv-x="269" unicode="I"/>
			<glyph d="M302 695H426V272Q426 -11 160 -11Q116 -11 75 -3T9 16V133Q31 122 71 112T148 103Q232 103 267 144T302 278Z" horiz-adv-x="496" unicode="J"/>
			<glyph d="M73 695H196V354H198L482 695H647L342 352L650 0H486L198 343H196V0H73Z" horiz-adv-x="652" unicode="K"/>
			<glyph d="M73 695H196V113H534V0H73Z" horiz-adv-x="542" unicode="L"/>
			<glyph d="M73 695H225L444 178H446L668 695H817V0H701L700 496H698L493 10H397L191 495H189V0H73Z" horiz-adv-x="890" unicode="M"/>
			<glyph d="M73 695H175L558 212H560Q558 278 558 320V695H678V0H569L194 481H192Q194 442 194 357V0H73Z" horiz-adv-x="752" unicode="N"/>
			<glyph d="M393 707Q560 707 654 607T748 347Q748 193 649 90T393 -12Q229 -12 134 87T39 347Q39 504 137 605T393 707ZM392 590Q288 590 226 523T165 347Q165 238 226 171T392 105Q496 105 558 171T621 347Q621 458 562 524T392 590Z" horiz-adv-x="787" unicode="O"/>
			<glyph d="M73 695H307Q599 695 599 467Q599 353 522 286T303 219H196V0H73ZM196 581V332H305Q389 332 426 367T464 463Q464 581 310 581Z" horiz-adv-x="632" unicode="P"/>
			<glyph d="M393 707Q560 707 654 607T748 347Q748 269 721 201T644 85L749 -40L659 -114L547 19Q477 -12 393 -12Q229 -12 134 87T39 347Q39 504 137 605T393 707ZM392 590Q288 590 226 523T165 347Q165 238 226 171T392 105Q429 105 466 115L380 218L470 293L566 179Q621 245 621 347Q621 458 562 524T392 590Z" horiz-adv-x="787" unicode="Q"/>
			<glyph d="M73 695H321Q592 695 592 480Q592 403 550 350T435 272L627 0H472L311 249H196V0H73ZM196 587V362H326Q394 362 427 393T461 475Q461 587 321 587Z" horiz-adv-x="640" unicode="R"/>
			<glyph d="M315 707Q368 707 417 697T496 677V557L459 570Q427 580 388 586T310 593Q173 593 173 505Q173 466 205 445T311 403T433 359T506 298T533 199Q533 108 463 48T266 -12Q143 -12 52 28V152Q91 130 146 114T264 99Q333 99 369 123T405 191Q405 249 333 271T191 317T82 383T45 501Q45 592 117 649T315 707Z" horiz-adv-x="566" unicode="S"/>
			<glyph d="M7 695H561V582H345V0H222V582H7Z" horiz-adv-x="568" unicode="T"/>
			<glyph d="M70 695H193V263Q193 174 233 138T369 102Q443 102 521 121V695H644V37Q573 15 507 1T359 -12Q204 -12 137 54T70 252Z" horiz-adv-x="717" unicode="U"/>
			<glyph d="M5 695H137L337 162H339L541 695H673L398 -2H274Z" horiz-adv-x="677" unicode="V"/>
			<glyph d="M17 695H149L261 285Q276 232 287 175H289Q300 224 323 290L462 695H556L684 279Q706 210 713 170H715Q728 229 745 283L870 695H1000L770 -2H655L542 362Q512 464 504 497H502Q485 432 461 363L336 -2H223Z" horiz-adv-x="1017" unicode="W"/>
			<glyph d="M5 695H156L333 437L513 695H663L410 345L661 0H509L331 253L155 0H5L255 346Z" horiz-adv-x="668" unicode="X"/>
			<glyph d="M-11 695H132L305 365L487 695H628L367 242V0H243V240Z" horiz-adv-x="616" unicode="Y"/>
			<glyph d="M52 695H604V601L198 113H617V0H30V92L434 582H52Z" horiz-adv-x="642" unicode="Z"/>
			<glyph d="M43 770H279V676H146V-66H279V-160H43Z" horiz-adv-x="303" unicode="["/>
			<glyph d="M-13 750H85L427 -49H329Z" horiz-adv-x="415" unicode="\"/>
			<glyph d="M24 770H261V-160H24V-66H157V676H24Z" horiz-adv-x="303" unicode="]"/>
			<glyph d="M233 707H341L562 299H438L288 581H286L135 299H12Z" unicode="^"/>
			<glyph d="M-9 -138H516V-180H-9Z" horiz-adv-x="507" unicode="_"/>
			<glyph d="M10 723H130L229 554H142Z" horiz-adv-x="239" unicode="`"/>
			<glyph d="M250 496Q355 496 402 448T449 305V22Q347 -12 239 -12Q38 -12 38 140Q38 213 91 253T252 294Q300 294 332 289V310Q332 358 304 376T226 394Q186 394 145 385T74 364V462Q104 475 152 485T250 496ZM252 215Q203 215 178 197T153 147Q153 115 174 98T246 81Q292 81 332 90V210Q294 215 252 215Z" horiz-adv-x="508" unicode="a"/>
			<glyph d="M64 738H181V467Q239 496 311 496Q412 496 473 426T535 253Q535 135 461 60T261 -14Q152 -14 64 25ZM284 387Q256 387 228 380T181 363V105Q214 94 261 94Q332 94 373 135T414 248Q414 312 379 349T284 387Z" horiz-adv-x="568" unicode="b"/>
			<glyph d="M298 496Q366 496 424 476V366Q401 376 369 383T305 390Q231 390 192 351T153 242Q153 176 193 135T309 94Q344 94 376 101T432 120V13Q408 2 371 -6T295 -14Q175 -14 104 55T33 243Q33 353 105 424T298 496Z" horiz-adv-x="456" unicode="c"/>
			<glyph d="M387 738H504V37Q402 -14 286 -14Q169 -14 101 56T33 231Q33 352 101 424T280 496Q334 496 387 477ZM297 390Q231 390 192 350T153 239Q153 174 190 135T296 96Q337 96 387 112V374L358 383Q333 390 297 390Z" horiz-adv-x="568" unicode="d"/>
			<glyph d="M282 495Q393 495 448 429T503 262Q503 245 500 209H152Q155 155 191 120T305 86Q387 86 469 126V27Q424 7 382 -3T284 -14Q165 -14 99 52T33 237Q33 355 99 425T282 495ZM275 403Q224 403 190 371T153 286H386Q386 338 357 370T275 403Z" horiz-adv-x="530" unicode="e"/>
			<glyph d="M283 746Q320 746 345 742L373 736V636L348 642Q327 646 298 646Q249 646 228 621T207 549V483H343V385H207V0H90V385H21V483H90V553Q90 641 139 693T283 746Z" horiz-adv-x="331" unicode="f"/>
			<glyph d="M305 496Q363 496 411 485T504 458V8Q504 -105 443 -174T250 -243Q194 -243 154 -236T72 -216V-103Q108 -117 147 -126T237 -135Q309 -135 347 -106T386 -9V12Q330 -14 261 -14Q161 -14 97 54T33 231Q33 347 105 421T305 496ZM301 388Q229 388 191 346T153 239Q153 172 190 133T289 95Q340 95 386 116V375Q341 388 301 388Z" horiz-adv-x="567" unicode="g"/>
			<glyph d="M64 738H181V465Q206 477 247 486T326 496Q419 496 459 451T500 314V0H383V295Q383 344 361 366T292 388Q242 388 181 362V0H64Z" horiz-adv-x="561" unicode="h"/>
			<glyph d="M60 715H185V590H60ZM64 483H181V0H64Z" horiz-adv-x="245" unicode="i"/>
			<glyph d="M60 715H185V590H60ZM64 483H181V-40Q181 -132 131 -186T-10 -241Q-44 -241 -79 -234V-129Q-51 -136 -23 -136Q64 -136 64 -35Z" horiz-adv-x="245" unicode="j"/>
			<glyph d="M64 738H181V260H183L375 483H528L321 258L530 0H380L183 252H181V0H64Z" horiz-adv-x="537" unicode="k"/>
			<glyph d="M64 738H181V0H64Z" horiz-adv-x="245" unicode="l"/>
			<glyph d="M280 496Q331 496 371 486T435 455Q473 473 513 484T604 496Q695 496 738 454T781 329V0H664V307Q664 350 643 369T572 388Q545 388 519 383T475 370Q481 346 481 309V0H364V304Q364 351 342 369T270 388Q225 388 181 377V0H64V464Q109 477 167 486T280 496Z" horiz-adv-x="842" unicode="m"/>
			<glyph d="M285 496Q402 496 451 452T500 317V0H383V300Q383 348 360 368T282 388Q235 388 181 376V0H64V465Q188 496 285 496Z" horiz-adv-x="561" unicode="n"/>
			<glyph d="M286 496Q398 496 468 424T539 242Q539 131 468 58T286 -14Q177 -14 105 57T33 242Q33 353 104 424T286 496ZM286 387Q226 387 189 346T153 242Q153 176 190 135T286 95Q346 95 382 135T418 242Q418 308 382 347T286 387Z" horiz-adv-x="572" unicode="o"/>
			<glyph d="M288 496Q404 496 469 426T535 250Q535 131 466 58T290 -14Q226 -14 181 6V-235H64V446Q174 496 288 496ZM278 384Q252 384 225 379T181 367V111Q218 94 274 94Q339 94 376 132T414 243Q414 309 377 346T278 384Z" horiz-adv-x="567" unicode="p"/>
			<glyph d="M305 496Q402 496 504 459V-235H386V12Q330 -14 261 -14Q161 -14 97 54T33 231Q33 347 105 421T305 496ZM301 388Q229 388 191 346T153 239Q153 172 190 133T289 95Q340 95 386 116V376Q344 388 301 388Z" horiz-adv-x="567" unicode="q"/>
			<glyph d="M264 496Q320 496 358 488V383Q318 390 277 390Q227 390 181 378V0H64V461Q159 496 264 496Z" horiz-adv-x="366" unicode="r"/>
			<glyph d="M239 499Q315 499 381 482V379Q307 403 239 403Q197 403 176 389T155 351Q155 319 196 306T296 275T382 226T410 141Q410 74 362 30T214 -13Q164 -13 120 -6T47 11V111Q73 99 116 90T202 82Q294 82 294 132Q294 164 255 176T158 208T70 260T39 346Q39 414 91 456T239 499Z" horiz-adv-x="443" unicode="s"/>
			<glyph d="M79 620H196V483H334V385H196V175Q196 129 215 110T274 92Q302 92 336 100V5Q291 -8 237 -8Q154 -8 116 36T79 164V385H7V483H79Z" horiz-adv-x="358" unicode="t"/>
			<glyph d="M61 483H178V188Q178 140 202 117T288 95Q328 95 380 106V483H497V17Q377 -13 281 -13Q161 -13 111 33T61 171Z" horiz-adv-x="561" unicode="u"/>
			<glyph d="M-6 483H122L204 258Q226 194 243 136H244Q265 202 287 258L376 483H503L307 0H178Z" horiz-adv-x="498" unicode="v"/>
			<glyph d="M12 483H133L207 232Q220 189 228 146H230Q238 183 257 237L345 483H447L532 228Q536 215 554 148H557Q561 166 578 230L660 483H784L613 0H501L421 230Q403 280 392 331H390Q378 282 358 230L275 0H164Z" horiz-adv-x="796" unicode="w"/>
			<glyph d="M-1 483H148L263 328L379 483H526L336 245L535 0H384L261 160L142 0H-3L189 244Z" horiz-adv-x="529" unicode="x"/>
			<glyph d="M-8 483H121L212 235Q228 193 243 142H245Q257 183 277 231L376 483H506L207 -235H79L184 2Z" horiz-adv-x="498" unicode="y"/>
			<glyph d="M33 483H443V405L188 106H452V0H21V78L278 378H33Z" horiz-adv-x="472" unicode="z"/>
			<glyph d="M317 770V676Q266 676 247 656T229 591V421Q229 369 204 342T142 305V303Q229 277 229 180L230 12Q230 -29 250 -47T317 -66V-160Q214 -160 169 -118T125 3V168Q125 258 26 261V348Q75 350 100 371T125 436V600Q125 685 174 727T317 770Z" horiz-adv-x="332" unicode="{"/>
			<glyph d="M99 750H183V-250H99Z" horiz-adv-x="281" unicode="|"/>
			<glyph d="M15 770Q118 770 162 728T207 607V442Q207 352 306 349V262Q257 260 232 239T207 174V10Q207 -75 158 -117T15 -160V-66Q66 -66 84 -46T103 19V189Q103 241 128 268T190 305V307Q103 333 103 430L102 598Q102 639 82 657T15 676Z" horiz-adv-x="332" unicode="}"/>
			<glyph d="M187 388Q244 388 297 354T392 320Q446 320 485 385L561 325Q527 274 483 246T387 219Q349 219 317 232T252 266T182 287Q131 287 90 222L13 282Q86 388 187 388Z" unicode="~"/>
			<glyph d="" horiz-adv-x="234" unicode=" "/>
			<glyph d="M62 483H193V351H62ZM73 266H178L186 -212H66Z" horiz-adv-x="255" unicode="¡"/>
			<glyph d="M306 714H374V606Q430 602 474 588V478Q432 498 374 501V203Q425 207 474 228V121Q436 104 374 98V-14H306V99Q205 108 142 176T80 349Q80 450 142 521T306 604ZM306 497Q252 486 223 448T194 353Q194 294 222 255T306 206Z" unicode="¢"/>
			<glyph d="M403 721Q470 721 530 704V589Q471 608 411 608Q342 608 312 568T282 473V394H468V300H282V252Q282 201 263 163T214 106H536V0H46V106Q90 108 120 141T151 241V300H52V394H151V473Q151 586 216 653T403 721Z" unicode="£"/>
			<glyph d="M107 570L175 502Q229 533 287 533Q347 533 398 502L467 570L550 487L483 418Q513 366 513 307Q513 249 482 195L550 127L467 44L398 112Q346 82 287 82Q227 82 176 112L107 44L23 127L93 197Q63 246 63 307Q63 369 92 418L23 487ZM287 430Q236 430 201 394T166 308Q166 257 201 221T287 185Q338 185 373 221T409 308Q409 359 373 394T287 430Z" unicode="¤"/>
			<glyph d="M11 695H155L288 470L423 695H563L348 357V354H498V265H348V196H498V107H348V0H228V107H76V196H228V265H76V354H228V357Z" unicode="¥"/>
			<glyph d="M99 750H183V338H99ZM99 162H183V-250H99Z" horiz-adv-x="281" unicode="¦"/>
			<glyph d="M276 713Q309 713 340 707T392 693V596Q360 609 335 615T280 622Q235 622 214 601T193 546Q193 516 212 498T278 464T359 423T408 369T422 300Q422 218 356 171Q378 151 388 125T398 62Q398 -10 352 -58T219 -107Q185 -107 153 -100T103 -86V10L128 1Q147 -7 170 -11T215 -16Q260 -16 280 5T301 60Q301 92 281 109T214 144T134 185T88 239T74 311Q74 391 138 435Q117 455 107 481T97 545Q97 617 143 665T276 713ZM211 388Q170 362 170 318Q170 285 190 267T255 231L282 219Q324 243 324 288Q324 339 268 363T211 388Z" horiz-adv-x="499" unicode="§"/>
			<glyph d="M30 680H129V580H30ZM196 680H295V580H196Z" horiz-adv-x="324" unicode="¨"/>
			<glyph d="M404 710Q503 710 587 661T719 528T768 347Q768 197 661 91T404 -15Q305 -15 221 33T88 165T39 347Q39 497 147 603T404 710ZM404 636Q285 636 200 551T115 347Q115 228 200 143T404 58Q523 58 608 143T693 347Q693 466 608 551T404 636ZM433 559Q489 559 540 540V460Q489 482 439 482Q371 482 337 446T304 351Q304 288 339 251T438 215Q470 215 497 222T544 241V162Q518 150 491 142T429 135Q332 135 272 193T213 347Q213 444 270 501T433 559Z" horiz-adv-x="808" unicode="©"/>
			<glyph d="M179 718Q248 718 279 686T311 592V406Q240 384 172 384Q101 384 68 411T35 485Q35 533 71 560T179 587Q199 587 219 585V597Q219 623 203 632T159 642Q122 642 62 624V697Q81 705 113 711T179 718ZM179 529Q153 529 139 519T125 490Q125 472 136 463T176 454Q199 454 219 458V526Q201 529 179 529Z" horiz-adv-x="363" unicode="ª"/>
			<glyph d="M150 413H259L130 234L259 55H150L22 234ZM348 413H457L328 234L457 55H348L220 234Z" horiz-adv-x="487" unicode="«"/>
			<glyph d="M47 390H528V102H418V281H47Z" unicode="¬"/>
			<glyph d="M41 320H352V212H41Z" horiz-adv-x="393" unicode="­"/>
			<glyph d="M264 712Q356 712 423 644T491 484Q491 390 424 323T264 257Q170 257 103 323T36 484Q36 578 103 645T264 712ZM264 654Q193 654 143 603T93 484Q93 415 143 364T264 314Q335 314 385 364T435 484Q435 553 385 603T264 654ZM177 606H269Q320 606 344 586T368 530Q368 503 353 483T312 454L369 362H307L262 444H231V362H177ZM231 560V491H268Q313 491 313 526Q313 560 268 560Z" horiz-adv-x="528" unicode="®"/>
			<glyph d="M18 660H261V579H18Z" horiz-adv-x="279" unicode="¯"/>
			<glyph d="M206 748Q274 748 321 701T369 586Q369 516 322 469T207 422Q137 422 89 469T42 586Q42 655 90 701T206 748ZM207 680Q168 680 140 652T112 586Q112 546 139 518T206 491Q245 491 272 518T299 586Q299 626 272 653T207 680Z" horiz-adv-x="412" unicode="°"/>
			<glyph d="M233 646H342V461H528V352H342V166H233V352H47V461H233ZM47 109H528V0H47Z" unicode="±"/>
			<glyph d="M198 795Q275 795 312 758T350 661Q350 625 336 596T299 542T230 474L166 416H355V330H45V408L185 539Q222 575 238 599T255 647Q255 676 237 694T182 712Q121 712 66 672V760Q116 795 198 795Z" horiz-adv-x="408" unicode="²"/>
			<glyph d="M193 797Q263 797 300 763T337 679Q337 636 313 604T251 563V562Q300 553 323 526T347 452Q347 395 300 356T175 318Q135 318 100 326T45 345L46 432Q62 422 97 412T164 403Q205 403 226 419T247 464Q247 494 221 507T147 520H99V603H141Q188 603 213 618T239 662Q239 687 220 700T168 714Q137 714 105 704T56 683V766Q79 779 114 788T193 797Z" horiz-adv-x="408" unicode="³"/>
			<glyph d="M111 723H231L104 554H10Z" horiz-adv-x="241" unicode="´"/>
			<glyph d="M63 483H181V199Q181 143 206 118T289 94Q342 94 380 112V483H499V34Q381 -14 292 -14Q255 -14 224 -6T180 16V-251H63Z" horiz-adv-x="563" unicode="µ"/>
			<glyph d="M240 695H455V-63H377V616H310V-63H231V349Q149 349 96 396T43 517Q43 602 97 648T240 695Z" horiz-adv-x="555" unicode="¶"/>
			<glyph d="M56 382H188V250H56Z" horiz-adv-x="245" unicode="·"/>
			<glyph d="M119 0H162L140 -48Q183 -48 210 -70T239 -131Q239 -175 204 -199T121 -223Q74 -223 35 -210V-148Q56 -154 72 -157T111 -161Q167 -161 167 -126Q167 -109 152 -100T103 -92H72Z" horiz-adv-x="279" unicode="¸"/>
			<glyph d="M232 800H285V330H191V686L64 623L65 719Z" horiz-adv-x="408" unicode="¹"/>
			<glyph d="M201 718Q274 718 320 671T367 551Q367 477 320 430T201 383Q127 383 80 430T33 551Q33 626 79 672T201 718ZM201 638Q166 638 144 614T123 551Q123 510 145 486T201 463Q235 463 256 487T277 551Q277 591 256 614T201 638Z" horiz-adv-x="399" unicode="º"/>
			<glyph d="M29 413H139L267 234L139 55H29L158 234ZM228 413H337L465 234L337 55H228L357 234Z" horiz-adv-x="487" unicode="»"/>
			<glyph d="M232 700H285V230H191V586L64 523L65 619ZM684 695H796L284 0H173ZM753 454H845V179H916V99H845V0H752V99H555V178ZM750 332Q742 318 723 290L647 179H752V332Z" horiz-adv-x="942" unicode="¼"/>
			<glyph d="M232 700H285V230H191V586L64 523L65 619ZM684 695H796L284 0H173ZM785 465Q861 465 899 427T937 331Q937 295 923 266T885 212T816 144L753 86H942V0H631V78L771 209Q809 245 825 269T842 317Q842 346 823 364T768 382Q707 382 652 342V430Q704 465 785 465Z" horiz-adv-x="994" unicode="½"/>
			<glyph d="M193 697Q263 697 300 663T337 579Q337 536 313 504T251 463V462Q300 453 323 426T347 352Q347 295 300 256T175 218Q135 218 100 226T45 245L46 332Q62 322 97 312T164 303Q205 303 226 319T247 364Q247 394 221 407T147 420H99V503H141Q188 503 213 518T239 562Q239 587 220 600T168 614Q137 614 105 604T56 583V666Q79 679 114 688T193 697ZM699 695H811L299 0H187ZM768 454H859V179H931V99H859V0H767V99H570V178ZM765 332Q762 328 754 314T737 290L661 179H767V332Z" horiz-adv-x="956" unicode="¾"/>
			<glyph d="M187 483H319V351H187ZM202 266H304V151Q220 107 182 69T145 -19Q145 -67 175 -94T261 -121Q303 -121 341 -110T407 -84V-186Q378 -200 333 -211T234 -222Q140 -222 83 -172T27 -35Q27 39 67 95T202 206Z" horiz-adv-x="454" unicode="¿"/>
			<glyph d="M294 695H409L697 0H562L493 173H205L135 0H2ZM348 535L245 275H451L350 535ZM217 893H342L424 756H330Z" horiz-adv-x="699" unicode="À"/>
			<glyph d="M294 695H409L697 0H562L493 173H205L135 0H2ZM348 535L245 275H451L350 535ZM357 893H482L369 756H275Z" horiz-adv-x="699" unicode="Á"/>
			<glyph d="M294 695H409L697 0H562L493 173H205L135 0H2ZM348 535L245 275H451L350 535ZM321 917H379L543 756H438L350 841L262 756H157Z" horiz-adv-x="699" unicode="Â"/>
			<glyph d="M294 695H409L697 0H562L493 173H205L135 0H2ZM348 535L245 275H451L350 535ZM292 878Q331 878 359 848T405 819Q421 819 430 835T442 875H505Q499 813 475 780T406 748Q365 748 337 778T292 809Q276 809 267 791T256 751H195Q197 809 220 843T292 878Z" horiz-adv-x="699" unicode="Ã"/>
			<glyph d="M294 695H409L697 0H562L493 173H205L135 0H2ZM348 535L245 275H451L350 535ZM217 854H316V754H217ZM383 854H482V754H383Z" horiz-adv-x="699" unicode="Ä"/>
			<glyph d="M294 695H409L697 0H562L493 173H205L135 0H2ZM348 535L245 275H451L350 535ZM350 951Q397 951 429 918T461 839Q461 793 428 760T350 728Q304 728 271 760T239 839Q239 886 271 918T350 951ZM350 894Q327 894 311 878T295 839Q295 817 311 800T350 784Q374 784 390 800T406 839Q406 863 390 878T350 894Z" horiz-adv-x="699" unicode="Å"/>
			<glyph d="M416 695H931V581H604V410H902V295H604V114H946V0H481V173H238L136 0H-4ZM477 581L297 275H481V581Z" horiz-adv-x="980" unicode="Æ"/>
			<glyph d="M407 707Q507 707 589 674V550Q502 590 411 590Q292 590 232 525T173 355Q173 241 238 174T413 108Q469 108 517 121T601 155V32Q560 12 514 0T403 -13H389L373 -48Q416 -48 443 -70T472 -131Q472 -175 437 -199T354 -223Q307 -223 268 -210V-148Q289 -154 305 -157T344 -161Q400 -161 400 -126Q400 -109 385 -100T336 -92H305L347 -10Q206 7 122 104T39 348Q39 514 136 610T407 707Z" horiz-adv-x="634" unicode="Ç"/>
			<glyph d="M73 695H523V581H196V410H494V295H196V114H538V0H73ZM172 893H297L379 756H285Z" horiz-adv-x="572" unicode="È"/>
			<glyph d="M73 695H523V581H196V410H494V295H196V114H538V0H73ZM312 893H437L324 756H230Z" horiz-adv-x="572" unicode="É"/>
			<glyph d="M73 695H523V581H196V410H494V295H196V114H538V0H73ZM276 917H334L498 756H393L305 841L217 756H112Z" horiz-adv-x="572" unicode="Ê"/>
			<glyph d="M73 695H523V581H196V410H494V295H196V114H538V0H73ZM172 854H271V754H172ZM338 854H437V754H338Z" horiz-adv-x="572" unicode="Ë"/>
			<glyph d="M73 695H196V0H73ZM2 893H127L209 756H115Z" horiz-adv-x="269" unicode="Ì"/>
			<glyph d="M73 695H196V0H73ZM142 893H267L154 756H60Z" horiz-adv-x="269" unicode="Í"/>
			<glyph d="M73 695H196V0H73ZM106 917H164L328 756H223L135 841L47 756H-58Z" horiz-adv-x="269" unicode="Î"/>
			<glyph d="M73 695H196V0H73ZM2 854H101V754H2ZM168 854H267V754H168Z" horiz-adv-x="269" unicode="Ï"/>
			<glyph d="M73 695H308Q490 695 587 606T684 355Q684 197 581 98T304 0H73V293H-1V401H73ZM197 581V401H361V293H197V114H303Q423 114 487 176T552 349Q552 460 489 520T301 581Z" horiz-adv-x="723" unicode="Ð"/>
			<glyph d="M73 695H175L558 212H560Q558 278 558 320V695H678V0H569L194 481H192Q194 442 194 357V0H73ZM320 878Q359 878 387 848T433 819Q449 819 458 835T470 875H533Q527 813 503 780T434 748Q393 748 365 778T320 809Q304 809 295 791T284 751H223Q225 809 248 843T320 878Z" horiz-adv-x="752" unicode="Ñ"/>
			<glyph d="M393 707Q560 707 654 607T748 347Q748 193 649 90T393 -12Q229 -12 134 87T39 347Q39 504 137 605T393 707ZM392 590Q288 590 226 523T165 347Q165 238 226 171T392 105Q496 105 558 171T621 347Q621 458 562 524T392 590ZM260 893H385L467 756H373Z" horiz-adv-x="787" unicode="Ò"/>
			<glyph d="M393 707Q560 707 654 607T748 347Q748 193 649 90T393 -12Q229 -12 134 87T39 347Q39 504 137 605T393 707ZM392 590Q288 590 226 523T165 347Q165 238 226 171T392 105Q496 105 558 171T621 347Q621 458 562 524T392 590ZM400 893H525L412 756H318Z" horiz-adv-x="787" unicode="Ó"/>
			<glyph d="M393 707Q560 707 654 607T748 347Q748 193 649 90T393 -12Q229 -12 134 87T39 347Q39 504 137 605T393 707ZM392 590Q288 590 226 523T165 347Q165 238 226 171T392 105Q496 105 558 171T621 347Q621 458 562 524T392 590ZM364 917H422L586 756H481L393 841L305 756H200Z" horiz-adv-x="787" unicode="Ô"/>
			<glyph d="M393 707Q560 707 654 607T748 347Q748 193 649 90T393 -12Q229 -12 134 87T39 347Q39 504 137 605T393 707ZM392 590Q288 590 226 523T165 347Q165 238 226 171T392 105Q496 105 558 171T621 347Q621 458 562 524T392 590ZM335 878Q374 878 402 848T448 819Q464 819 473 835T485 875H548Q542 813 518 780T449 748Q408 748 380 778T335 809Q319 809 310 791T299 751H238Q240 809 263 843T335 878Z" horiz-adv-x="787" unicode="Õ"/>
			<glyph d="M393 707Q560 707 654 607T748 347Q748 193 649 90T393 -12Q229 -12 134 87T39 347Q39 504 137 605T393 707ZM392 590Q288 590 226 523T165 347Q165 238 226 171T392 105Q496 105 558 171T621 347Q621 458 562 524T392 590ZM260 854H359V754H260ZM426 854H525V754H426Z" horiz-adv-x="787" unicode="Ö"/>
			<glyph d="M130 538L287 380L445 538L522 461L364 303L522 145L445 68L287 226L130 68L53 145L210 303L53 461Z" unicode="×"/>
			<glyph d="M670 782L738 732L648 614Q697 566 722 497T748 347Q748 193 649 90T393 -12Q285 -12 205 32L123 -76L55 -26L138 83Q89 132 64 200T39 347Q39 504 137 605T393 707Q499 707 580 664ZM392 590Q288 590 226 523T165 347Q165 248 216 185L504 566Q454 590 392 590ZM569 512L281 131Q328 105 392 105Q496 105 558 171T621 347Q621 450 569 512Z" horiz-adv-x="787" unicode="Ø"/>
			<glyph d="M70 695H193V263Q193 174 233 138T369 102Q443 102 521 121V695H644V37Q573 15 507 1T359 -12Q204 -12 137 54T70 252ZM224 893H349L431 756H337Z" horiz-adv-x="717" unicode="Ù"/>
			<glyph d="M70 695H193V263Q193 174 233 138T369 102Q443 102 521 121V695H644V37Q573 15 507 1T359 -12Q204 -12 137 54T70 252ZM364 893H489L376 756H282Z" horiz-adv-x="717" unicode="Ú"/>
			<glyph d="M70 695H193V263Q193 174 233 138T369 102Q443 102 521 121V695H644V37Q573 15 507 1T359 -12Q204 -12 137 54T70 252ZM328 917H386L550 756H445L357 841L269 756H164Z" horiz-adv-x="717" unicode="Û"/>
			<glyph d="M70 695H193V263Q193 174 233 138T369 102Q443 102 521 121V695H644V37Q573 15 507 1T359 -12Q204 -12 137 54T70 252ZM224 854H323V754H224ZM390 854H489V754H390Z" horiz-adv-x="717" unicode="Ü"/>
			<glyph d="M-11 695H132L305 365L487 695H628L367 242V0H243V240ZM317 893H442L329 756H235Z" horiz-adv-x="616" unicode="Ý"/>
			<glyph d="M73 695H196V588H307Q460 588 529 529T599 363Q599 249 523 183T303 118H196V0H73ZM196 475V232H305Q389 232 426 266T464 359Q464 419 425 447T310 475Z" horiz-adv-x="632" unicode="Þ"/>
			<glyph d="M304 741Q406 741 460 692T514 567Q514 497 480 462T405 407T364 358Q364 328 416 311T511 262T555 155Q555 85 506 38T361 -8Q297 -8 246 9V105Q298 87 348 87Q394 87 416 104T439 146Q439 181 404 197T331 229T270 273T248 346Q248 390 267 417T323 465T376 505T393 558Q393 597 366 619T298 641Q239 641 210 604T181 505V0H64V502Q64 608 124 674T304 741Z" horiz-adv-x="578" unicode="ß"/>
			<glyph d="M250 496Q355 496 402 448T449 305V22Q347 -12 239 -12Q38 -12 38 140Q38 213 91 253T252 294Q300 294 332 289V310Q332 358 304 376T226 394Q186 394 145 385T74 364V462Q104 475 152 485T250 496ZM252 215Q203 215 178 197T153 147Q153 115 174 98T246 81Q292 81 332 90V210Q294 215 252 215ZM102 723H222L321 554H234Z" horiz-adv-x="508" unicode="à"/>
			<glyph d="M250 496Q355 496 402 448T449 305V22Q347 -12 239 -12Q38 -12 38 140Q38 213 91 253T252 294Q300 294 332 289V310Q332 358 304 376T226 394Q186 394 145 385T74 364V462Q104 475 152 485T250 496ZM252 215Q203 215 178 197T153 147Q153 115 174 98T246 81Q292 81 332 90V210Q294 215 252 215ZM293 723H413L286 554H192Z" horiz-adv-x="508" unicode="á"/>
			<glyph d="M250 496Q355 496 402 448T449 305V22Q347 -12 239 -12Q38 -12 38 140Q38 213 91 253T252 294Q300 294 332 289V310Q332 358 304 376T226 394Q186 394 145 385T74 364V462Q104 475 152 485T250 496ZM252 215Q203 215 178 197T153 147Q153 115 174 98T246 81Q292 81 332 90V210Q294 215 252 215ZM225 732H283L426 554H328L254 645L180 554H82Z" horiz-adv-x="508" unicode="â"/>
			<glyph d="M250 496Q355 496 402 448T449 305V22Q347 -12 239 -12Q38 -12 38 140Q38 213 91 253T252 294Q300 294 332 289V310Q332 358 304 376T226 394Q186 394 145 385T74 364V462Q104 475 152 485T250 496ZM252 215Q203 215 178 197T153 147Q153 115 174 98T246 81Q292 81 332 90V210Q294 215 252 215ZM196 695Q235 695 263 665T309 636Q325 636 334 652T346 692H409Q403 630 379 597T310 565Q289 565 270 574T234 603Q215 626 196 626Q180 626 171 608T160 568H99Q101 626 124 660T196 695Z" horiz-adv-x="508" unicode="ã"/>
			<glyph d="M250 496Q355 496 402 448T449 305V22Q347 -12 239 -12Q38 -12 38 140Q38 213 91 253T252 294Q300 294 332 289V310Q332 358 304 376T226 394Q186 394 145 385T74 364V462Q104 475 152 485T250 496ZM252 215Q203 215 178 197T153 147Q153 115 174 98T246 81Q292 81 332 90V210Q294 215 252 215ZM121 680H220V580H121ZM287 680H386V580H287Z" horiz-adv-x="508" unicode="ä"/>
			<glyph d="M250 496Q355 496 402 448T449 305V22Q347 -12 239 -12Q38 -12 38 140Q38 213 91 253T252 294Q300 294 332 289V310Q332 358 304 376T226 394Q186 394 145 385T74 364V462Q104 475 152 485T250 496ZM252 215Q203 215 178 197T153 147Q153 115 174 98T246 81Q292 81 332 90V210Q294 215 252 215ZM254 766Q301 766 333 734T365 655Q365 609 333 576T254 544Q208 544 175 576T143 655Q143 702 175 734T254 766ZM254 710Q231 710 215 694T199 655Q199 633 215 616T254 600Q278 600 294 616T310 655Q310 679 294 694T254 710Z" horiz-adv-x="508" unicode="å"/>
			<glyph d="M247 496Q311 496 350 476T408 417Q472 495 587 495Q683 495 737 430T792 262Q792 244 789 208H454Q456 155 492 120T603 86Q650 86 687 97T760 126L759 27Q713 6 675 -4T580 -14Q488 -14 427 29Q340 -12 233 -12Q133 -12 85 28T38 140Q38 213 91 253T252 294Q300 294 332 289V310Q332 358 304 376T226 394Q186 394 145 385T74 364V462Q104 475 151 485T247 496ZM570 403Q520 403 490 371T455 288H673Q673 338 647 370T570 403ZM252 215Q203 215 178 197T153 147Q153 81 249 81Q314 81 359 103Q335 144 332 210Q287 215 252 215Z" horiz-adv-x="820" unicode="æ"/>
			<glyph d="M298 496Q366 496 424 476V366Q401 376 369 383T305 390Q231 390 192 351T153 242Q153 176 193 135T309 94Q344 94 376 101T432 120V13Q408 2 371 -6T295 -14H290L274 -48Q317 -48 344 -70T373 -131Q373 -175 338 -199T255 -223Q208 -223 169 -210V-148Q190 -154 206 -157T245 -161Q301 -161 301 -126Q301 -109 286 -100T237 -92H206L247 -11Q148 3 90 70T33 243Q33 353 105 424T298 496Z" horiz-adv-x="456" unicode="ç"/>
			<glyph d="M282 495Q393 495 448 429T503 262Q503 245 500 209H152Q155 155 191 120T305 86Q387 86 469 126V27Q424 7 382 -3T284 -14Q165 -14 99 52T33 237Q33 355 99 425T282 495ZM275 403Q224 403 190 371T153 286H386Q386 338 357 370T275 403ZM118 723H238L337 554H250Z" horiz-adv-x="530" unicode="è"/>
			<glyph d="M282 495Q393 495 448 429T503 262Q503 245 500 209H152Q155 155 191 120T305 86Q387 86 469 126V27Q424 7 382 -3T284 -14Q165 -14 99 52T33 237Q33 355 99 425T282 495ZM275 403Q224 403 190 371T153 286H386Q386 338 357 370T275 403ZM309 723H429L302 554H208Z" horiz-adv-x="530" unicode="é"/>
			<glyph d="M282 495Q393 495 448 429T503 262Q503 245 500 209H152Q155 155 191 120T305 86Q387 86 469 126V27Q424 7 382 -3T284 -14Q165 -14 99 52T33 237Q33 355 99 425T282 495ZM275 403Q224 403 190 371T153 286H386Q386 338 357 370T275 403ZM241 732H299L442 554H344L270 645L196 554H98Z" horiz-adv-x="530" unicode="ê"/>
			<glyph d="M282 495Q393 495 448 429T503 262Q503 245 500 209H152Q155 155 191 120T305 86Q387 86 469 126V27Q424 7 382 -3T284 -14Q165 -14 99 52T33 237Q33 355 99 425T282 495ZM275 403Q224 403 190 371T153 286H386Q386 338 357 370T275 403ZM137 680H236V580H137ZM303 680H402V580H303Z" horiz-adv-x="530" unicode="ë"/>
			<glyph d="M64 483H181V0H64ZM-29 723H91L190 554H103Z" horiz-adv-x="245" unicode="ì"/>
			<glyph d="M64 483H181V0H64ZM162 723H282L155 554H61Z" horiz-adv-x="245" unicode="í"/>
			<glyph d="M64 483H181V0H64ZM94 732H152L295 554H197L123 645L49 554H-49Z" horiz-adv-x="245" unicode="î"/>
			<glyph d="M64 483H181V0H64ZM-10 680H89V580H-10ZM156 680H255V580H156Z" horiz-adv-x="245" unicode="ï"/>
			<glyph d="M206 786Q234 770 268 744T320 703L416 766L467 703L382 646Q540 486 540 264Q540 139 472 62T286 -14Q173 -14 103 56T33 240Q33 348 101 417T273 486Q343 486 390 446L392 448Q375 489 347 528T288 594L180 526L132 588L231 650Q184 689 140 714ZM286 380Q224 380 188 340T153 238Q153 175 188 135T284 95Q349 95 383 137T418 240Q418 303 381 341T286 380Z" horiz-adv-x="574" unicode="ð"/>
			<glyph d="M285 496Q402 496 451 452T500 317V0H383V300Q383 348 360 368T282 388Q235 388 181 376V0H64V465Q188 496 285 496ZM223 695Q262 695 290 665T336 636Q352 636 361 652T373 692H436Q430 630 406 597T337 565Q316 565 297 574T261 603Q242 626 223 626Q207 626 198 608T187 568H126Q128 626 151 660T223 695Z" horiz-adv-x="561" unicode="ñ"/>
			<glyph d="M286 496Q398 496 468 424T539 242Q539 131 468 58T286 -14Q177 -14 105 57T33 242Q33 353 104 424T286 496ZM286 387Q226 387 189 346T153 242Q153 176 190 135T286 95Q346 95 382 135T418 242Q418 308 382 347T286 387ZM134 723H254L353 554H266Z" horiz-adv-x="572" unicode="ò"/>
			<glyph d="M286 496Q398 496 468 424T539 242Q539 131 468 58T286 -14Q177 -14 105 57T33 242Q33 353 104 424T286 496ZM286 387Q226 387 189 346T153 242Q153 176 190 135T286 95Q346 95 382 135T418 242Q418 308 382 347T286 387ZM325 723H445L318 554H224Z" horiz-adv-x="572" unicode="ó"/>
			<glyph d="M286 496Q398 496 468 424T539 242Q539 131 468 58T286 -14Q177 -14 105 57T33 242Q33 353 104 424T286 496ZM286 387Q226 387 189 346T153 242Q153 176 190 135T286 95Q346 95 382 135T418 242Q418 308 382 347T286 387ZM257 732H315L458 554H360L286 645L212 554H114Z" horiz-adv-x="572" unicode="ô"/>
			<glyph d="M286 496Q398 496 468 424T539 242Q539 131 468 58T286 -14Q177 -14 105 57T33 242Q33 353 104 424T286 496ZM286 387Q226 387 189 346T153 242Q153 176 190 135T286 95Q346 95 382 135T418 242Q418 308 382 347T286 387ZM228 695Q267 695 295 665T341 636Q357 636 366 652T378 692H441Q435 630 411 597T342 565Q321 565 302 574T266 603Q247 626 228 626Q212 626 203 608T192 568H131Q133 626 156 660T228 695Z" horiz-adv-x="572" unicode="õ"/>
			<glyph d="M286 496Q398 496 468 424T539 242Q539 131 468 58T286 -14Q177 -14 105 57T33 242Q33 353 104 424T286 496ZM286 387Q226 387 189 346T153 242Q153 176 190 135T286 95Q346 95 382 135T418 242Q418 308 382 347T286 387ZM153 680H252V580H153ZM319 680H418V580H319Z" horiz-adv-x="572" unicode="ö"/>
			<glyph d="M223 564H345V442H223ZM47 357H528V249H47ZM223 164H345V40H223Z" unicode="÷"/>
			<glyph d="M471 558L539 507L472 420Q504 387 521 341T539 242Q539 131 468 58T286 -14Q215 -14 162 15L99 -67L31 -17L96 67Q66 100 49 145T33 242Q33 353 104 424T286 496Q350 496 404 469ZM286 391Q224 391 187 350T150 242Q150 198 171 164L335 381Q312 391 286 391ZM398 324L230 103Q254 91 286 91Q347 91 384 132T421 242Q421 290 398 324Z" horiz-adv-x="572" unicode="ø"/>
			<glyph d="M61 483H178V188Q178 140 202 117T288 95Q328 95 380 106V483H497V17Q377 -13 281 -13Q161 -13 111 33T61 171ZM129 723H249L348 554H261Z" horiz-adv-x="561" unicode="ù"/>
			<glyph d="M61 483H178V188Q178 140 202 117T288 95Q328 95 380 106V483H497V17Q377 -13 281 -13Q161 -13 111 33T61 171ZM320 723H440L313 554H219Z" horiz-adv-x="561" unicode="ú"/>
			<glyph d="M61 483H178V188Q178 140 202 117T288 95Q328 95 380 106V483H497V17Q377 -13 281 -13Q161 -13 111 33T61 171ZM252 732H310L453 554H355L281 645L207 554H109Z" horiz-adv-x="561" unicode="û"/>
			<glyph d="M61 483H178V188Q178 140 202 117T288 95Q328 95 380 106V483H497V17Q377 -13 281 -13Q161 -13 111 33T61 171ZM148 680H247V580H148ZM314 680H413V580H314Z" horiz-adv-x="561" unicode="ü"/>
			<glyph d="M-8 483H121L212 235Q228 193 243 142H245Q257 183 277 231L376 483H506L207 -235H79L184 2ZM281 723H401L274 554H180Z" horiz-adv-x="498" unicode="ý"/>
			<glyph d="M64 738H181V471Q240 496 307 496Q410 496 472 427T535 250Q535 131 466 58T290 -14Q226 -14 181 6V-251H64ZM278 384Q251 384 225 378T181 364V111Q221 93 274 93Q339 93 376 132T414 243Q414 309 377 346T278 384Z" horiz-adv-x="568" unicode="þ"/>
			<glyph d="M110 680H209V580H110ZM276 680H375V580H276ZM-8 483H121L212 235Q228 193 243 142H245Q257 183 277 231L376 483H506L207 -235H79L184 2Z" horiz-adv-x="485" unicode="ÿ"/>
			<glyph d="M294 695H409L697 0H562L493 173H205L135 0H2ZM348 535L245 275H451L350 535ZM228 843H471V762H228Z" horiz-adv-x="699" unicode="Ā"/>
			<glyph d="M250 496Q355 496 402 448T449 305V22Q347 -12 239 -12Q38 -12 38 140Q38 213 91 253T252 294Q300 294 332 289V310Q332 358 304 376T226 394Q186 394 145 385T74 364V462Q104 475 152 485T250 496ZM252 215Q203 215 178 197T153 147Q153 115 174 98T246 81Q292 81 332 90V210Q294 215 252 215ZM132 660H375V579H132Z" horiz-adv-x="508" unicode="ā"/>
			<glyph d="M294 695H409L697 0H562L493 173H205L135 0H2ZM348 535L245 275H451L350 535ZM191 890H271Q273 860 293 842T350 825Q385 825 405 842T428 890H509Q504 825 462 787T350 750Q277 750 236 787T191 890Z" horiz-adv-x="699" unicode="Ă"/>
			<glyph d="M250 496Q355 496 402 448T449 305V22Q347 -12 239 -12Q38 -12 38 140Q38 213 91 253T252 294Q300 294 332 289V310Q332 358 304 376T226 394Q186 394 145 385T74 364V462Q104 475 152 485T250 496ZM252 215Q203 215 178 197T153 147Q153 115 174 98T246 81Q292 81 332 90V210Q294 215 252 215ZM108 706H178Q182 673 201 654T254 635Q286 635 306 654T330 706H400Q395 643 356 606T254 570Q189 570 151 606T108 706Z" horiz-adv-x="508" unicode="ă"/>
			<glyph d="M294 695H409L697 0H562L493 173H205L135 0H2ZM348 535L245 275H451L350 535ZM642 0H697Q656 -33 635 -59T614 -112Q614 -131 623 -142T651 -153Q675 -153 697 -144V-203Q667 -215 631 -215Q591 -215 568 -192T545 -135Q545 -96 570 -63T642 0Z" horiz-adv-x="699" unicode="Ą"/>
			<glyph d="M250 496Q355 496 402 448T449 305V22Q407 -19 386 -49T365 -112Q365 -131 374 -142T403 -153Q426 -153 448 -144V-203Q420 -215 382 -215Q342 -215 319 -192T296 -135Q296 -63 367 0Q305 -12 239 -12Q38 -12 38 140Q38 213 91 253T252 294Q300 294 332 289V310Q332 358 304 376T226 394Q186 394 145 385T74 364V462Q104 475 152 485T250 496ZM252 215Q203 215 178 197T153 147Q153 115 174 98T246 81Q291 81 332 90V210Q294 215 252 215Z" horiz-adv-x="508" unicode="ą"/>
			<glyph d="M407 707Q507 707 589 674V550Q502 590 411 590Q292 590 232 525T173 355Q173 241 238 174T413 108Q469 108 517 121T601 155V32Q560 12 514 0T403 -13Q239 -13 139 86T39 348Q39 514 136 610T407 707ZM377 893H502L389 756H295Z" horiz-adv-x="634" unicode="Ć"/>
			<glyph d="M298 496Q366 496 424 476V366Q401 376 369 383T305 390Q231 390 192 351T153 242Q153 176 193 135T309 94Q344 94 376 101T432 120V13Q408 2 371 -6T295 -14Q175 -14 104 55T33 243Q33 353 105 424T298 496ZM298 723H418L291 554H197Z" horiz-adv-x="456" unicode="ć"/>
			<glyph d="M407 707Q507 707 589 674V550Q502 590 411 590Q292 590 232 525T173 355Q173 241 238 174T413 108Q469 108 517 121T601 155V32Q560 12 514 0T403 -13Q239 -13 139 86T39 348Q39 514 136 610T407 707ZM341 917H399L563 756H458L370 841L282 756H177Z" horiz-adv-x="634" unicode="Ĉ"/>
			<glyph d="M298 496Q366 496 424 476V366Q401 376 369 383T305 390Q231 390 192 351T153 242Q153 176 193 135T309 94Q344 94 376 101T432 120V13Q408 2 371 -6T295 -14Q175 -14 104 55T33 243Q33 353 105 424T298 496ZM230 732H288L431 554H333L259 645L185 554H87Z" horiz-adv-x="456" unicode="ĉ"/>
			<glyph d="M407 707Q507 707 589 674V550Q502 590 411 590Q292 590 232 525T173 355Q173 241 238 174T413 108Q469 108 517 121T601 155V32Q560 12 514 0T403 -13Q239 -13 139 86T39 348Q39 514 136 610T407 707ZM308 877H433V751H308Z" horiz-adv-x="634" unicode="Ċ"/>
			<glyph d="M298 496Q366 496 424 476V366Q401 376 369 383T305 390Q231 390 192 351T153 242Q153 176 193 135T309 94Q344 94 376 101T432 120V13Q408 2 371 -6T295 -14Q175 -14 104 55T33 243Q33 353 105 424T298 496ZM197 715H322V590H197Z" horiz-adv-x="456" unicode="ċ"/>
			<glyph d="M407 707Q507 707 589 674V550Q502 590 411 590Q292 590 232 525T173 355Q173 241 238 174T413 108Q469 108 517 121T601 155V32Q560 12 514 0T403 -13Q239 -13 139 86T39 348Q39 514 136 610T407 707ZM177 917H282L370 832L458 917H563L399 756H341Z" horiz-adv-x="634" unicode="Č"/>
			<glyph d="M298 496Q366 496 424 476V366Q401 376 369 383T305 390Q231 390 192 351T153 242Q153 176 193 135T309 94Q344 94 376 101T432 120V13Q408 2 371 -6T295 -14Q175 -14 104 55T33 243Q33 353 105 424T298 496ZM87 729H185L259 638L333 729H431L288 551H230Z" horiz-adv-x="456" unicode="č"/>
			<glyph d="M73 695H308Q490 695 587 606T684 355Q684 197 581 98T304 0H73ZM197 581V114H303Q423 114 487 176T552 349Q552 460 489 520T301 581ZM136 917H241L329 832L417 917H522L358 756H300Z" horiz-adv-x="723" unicode="Ď"/>
			<glyph d="M387 738H504V37Q402 -14 286 -14Q169 -14 101 56T33 231Q33 352 101 424T280 496Q334 496 387 477ZM297 390Q231 390 192 350T153 239Q153 174 190 135T296 96Q337 96 387 112V374L358 383Q333 390 297 390ZM596 738H702L635 521H547Z" horiz-adv-x="568" unicode="ď"/>
			<glyph d="M73 695H308Q490 695 587 606T684 355Q684 197 581 98T304 0H73V293H-1V401H73ZM197 581V401H361V293H197V114H303Q423 114 487 176T552 349Q552 460 489 520T301 581Z" horiz-adv-x="723" unicode="Đ"/>
			<glyph d="M387 738H504V659H573V559H504V37Q402 -14 286 -14Q168 -14 100 52T33 224Q33 343 101 412T280 482Q337 482 387 464V559H223V659H387ZM297 376Q230 376 191 339T153 232Q153 168 190 132T296 96Q337 96 387 112V360Q339 376 297 376Z" horiz-adv-x="568" unicode="đ"/>
			<glyph d="M73 695H523V581H196V410H494V295H196V114H538V0H73ZM183 843H426V762H183Z" horiz-adv-x="572" unicode="Ē"/>
			<glyph d="M282 495Q393 495 448 429T503 262Q503 245 500 209H152Q155 155 191 120T305 86Q387 86 469 126V27Q424 7 382 -3T284 -14Q165 -14 99 52T33 237Q33 355 99 425T282 495ZM275 403Q224 403 190 371T153 286H386Q386 338 357 370T275 403ZM148 660H391V579H148Z" horiz-adv-x="530" unicode="ē"/>
			<glyph d="M73 695H523V581H196V410H494V295H196V114H538V0H73ZM146 890H226Q228 860 248 842T305 825Q340 825 360 842T383 890H464Q459 825 417 787T305 750Q232 750 191 787T146 890Z" horiz-adv-x="572" unicode="Ĕ"/>
			<glyph d="M282 495Q393 495 448 429T503 262Q503 245 500 209H152Q155 155 191 120T305 86Q387 86 469 126V27Q424 7 382 -3T284 -14Q165 -14 99 52T33 237Q33 355 99 425T282 495ZM275 403Q224 403 190 371T153 286H386Q386 338 357 370T275 403ZM124 706H194Q198 673 217 654T270 635Q302 635 322 654T346 706H416Q411 643 372 606T270 570Q205 570 167 606T124 706Z" horiz-adv-x="530" unicode="ĕ"/>
			<glyph d="M73 695H523V581H196V410H494V295H196V114H538V0H73ZM243 877H368V751H243Z" horiz-adv-x="572" unicode="Ė"/>
			<glyph d="M282 495Q393 495 448 429T503 262Q503 245 500 209H152Q155 155 191 120T305 86Q387 86 469 126V27Q424 7 382 -3T284 -14Q165 -14 99 52T33 237Q33 355 99 425T282 495ZM275 403Q224 403 190 371T153 286H386Q386 338 357 370T275 403ZM208 715H333V590H208Z" horiz-adv-x="530" unicode="ė"/>
			<glyph d="M73 695H523V581H196V410H494V295H196V114H538V0H73ZM483 0H538Q497 -33 476 -59T455 -112Q455 -131 464 -142T492 -153Q516 -153 538 -144V-203Q508 -215 472 -215Q432 -215 409 -192T386 -135Q386 -96 411 -63T483 0Z" horiz-adv-x="572" unicode="Ę"/>
			<glyph d="M282 495Q393 495 448 429T503 262Q503 245 500 209H152Q155 155 191 120T305 86Q387 86 469 126V27Q427 -15 406 -46T385 -112Q385 -131 394 -142T422 -153Q446 -153 468 -144V-203Q440 -215 402 -215Q362 -215 339 -192T316 -135Q316 -66 377 -5Q330 -14 284 -14Q165 -14 99 52T33 237Q33 355 99 425T282 495ZM275 403Q224 403 190 371T153 286H386Q386 338 357 370T275 403Z" horiz-adv-x="530" unicode="ę"/>
			<glyph d="M73 695H523V581H196V410H494V295H196V114H538V0H73ZM112 917H217L305 832L393 917H498L334 756H276Z" horiz-adv-x="572" unicode="Ě"/>
			<glyph d="M282 495Q393 495 448 429T503 262Q503 245 500 209H152Q155 155 191 120T305 86Q387 86 469 126V27Q424 7 382 -3T284 -14Q165 -14 99 52T33 237Q33 355 99 425T282 495ZM275 403Q224 403 190 371T153 286H386Q386 338 357 370T275 403ZM98 729H196L270 638L344 729H442L299 551H241Z" horiz-adv-x="530" unicode="ě"/>
			<glyph d="M427 707Q487 707 532 698T622 675V554Q576 571 526 582T417 593Q298 593 234 526T170 349Q170 234 232 168T404 102Q468 102 523 125V275H356V380H644V51Q537 -12 399 -12Q231 -12 135 86T39 347Q39 512 141 609T427 707ZM362 917H420L584 756H479L391 841L303 756H198Z" horiz-adv-x="702" unicode="Ĝ"/>
			<glyph d="M305 496Q363 496 411 485T504 458V8Q504 -105 443 -174T250 -243Q194 -243 154 -236T72 -216V-103Q108 -117 147 -126T237 -135Q309 -135 347 -106T386 -9V12Q330 -14 261 -14Q161 -14 97 54T33 231Q33 347 105 421T305 496ZM301 388Q229 388 191 346T153 239Q153 172 190 133T289 95Q340 95 386 116V375Q341 388 301 388ZM264 732H322L465 554H367L293 645L219 554H121Z" horiz-adv-x="567" unicode="ĝ"/>
			<glyph d="M427 707Q487 707 532 698T622 675V554Q576 571 526 582T417 593Q298 593 234 526T170 349Q170 234 232 168T404 102Q468 102 523 125V275H356V380H644V51Q537 -12 399 -12Q231 -12 135 86T39 347Q39 512 141 609T427 707ZM232 890H312Q314 860 334 842T391 825Q426 825 446 842T469 890H550Q545 825 503 787T391 750Q318 750 277 787T232 890Z" horiz-adv-x="702" unicode="Ğ"/>
			<glyph d="M305 496Q363 496 411 485T504 458V8Q504 -105 443 -174T250 -243Q194 -243 154 -236T72 -216V-103Q108 -117 147 -126T237 -135Q309 -135 347 -106T386 -9V12Q330 -14 261 -14Q161 -14 97 54T33 231Q33 347 105 421T305 496ZM301 388Q229 388 191 346T153 239Q153 172 190 133T289 95Q340 95 386 116V375Q341 388 301 388ZM147 706H217Q221 673 240 654T293 635Q325 635 345 654T369 706H439Q434 643 395 606T293 570Q228 570 190 606T147 706Z" horiz-adv-x="567" unicode="ğ"/>
			<glyph d="M427 707Q487 707 532 698T622 675V554Q576 571 526 582T417 593Q298 593 234 526T170 349Q170 234 232 168T404 102Q468 102 523 125V275H356V380H644V51Q537 -12 399 -12Q231 -12 135 86T39 347Q39 512 141 609T427 707ZM329 877H454V751H329Z" horiz-adv-x="702" unicode="Ġ"/>
			<glyph d="M305 496Q363 496 411 485T504 458V8Q504 -105 443 -174T250 -243Q194 -243 154 -236T72 -216V-103Q108 -117 147 -126T237 -135Q309 -135 347 -106T386 -9V12Q330 -14 261 -14Q161 -14 97 54T33 231Q33 347 105 421T305 496ZM301 388Q229 388 191 346T153 239Q153 172 190 133T289 95Q340 95 386 116V375Q341 388 301 388ZM231 715H356V590H231Z" horiz-adv-x="567" unicode="ġ"/>
			<glyph d="M427 707Q487 707 532 698T622 675V554Q576 571 526 582T417 593Q298 593 234 526T170 349Q170 234 232 168T404 102Q468 102 523 125V275H356V380H644V51Q537 -12 399 -12Q231 -12 135 86T39 347Q39 512 141 609T427 707ZM378 -50H490L386 -231H292Z" horiz-adv-x="702" unicode="Ģ"/>
			<glyph d="M305 496Q363 496 411 485T504 458V8Q504 -105 443 -174T250 -243Q194 -243 154 -236T72 -216V-103Q108 -117 147 -126T237 -135Q309 -135 347 -106T386 -9V12Q330 -14 261 -14Q161 -14 97 54T33 231Q33 347 105 421T305 496ZM301 388Q229 388 191 346T153 239Q153 172 190 133T289 95Q340 95 386 116V375Q341 388 301 388ZM297 743H392L307 562H194Z" horiz-adv-x="567" unicode="ģ"/>
			<glyph d="M73 695H196V409H541V695H664V0H541V295H196V0H73ZM340 917H398L562 756H457L369 841L281 756H176Z" horiz-adv-x="737" unicode="Ĥ"/>
			<glyph d="M64 738H181V465Q206 477 247 486T326 496Q419 496 459 451T500 314V0H383V295Q383 344 361 366T292 388Q242 388 181 362V0H64ZM252 960H310L474 799H369L281 884L193 799H88Z" horiz-adv-x="561" unicode="ĥ"/>
			<glyph d="M73 695H196V588H541V695H664V588H738V502H664V0H541V285H196V0H73V502H-3V588H73ZM196 502V394H541V502Z" horiz-adv-x="737" unicode="Ħ"/>
			<glyph d="M64 738H181V659H339V559H181V465Q206 477 247 486T326 496Q419 496 459 451T500 314V0H383V295Q383 344 361 366T292 388Q242 388 181 362V0H64V559H-11V659H64Z" horiz-adv-x="561" unicode="ħ"/>
			<glyph d="M73 695H196V0H73ZM77 878Q116 878 144 848T190 819Q206 819 215 835T227 875H290Q284 813 260 780T191 748Q150 748 122 778T77 809Q61 809 52 791T41 751H-20Q-18 809 5 843T77 878Z" horiz-adv-x="269" unicode="Ĩ"/>
			<glyph d="M64 483H181V0H64ZM65 695Q104 695 132 665T178 636Q194 636 203 652T215 692H278Q272 630 248 597T179 565Q158 565 139 574T103 603Q84 626 65 626Q49 626 40 608T29 568H-32Q-30 626 -7 660T65 695Z" horiz-adv-x="245" unicode="ĩ"/>
			<glyph d="M73 695H196V0H73ZM13 843H256V762H13Z" horiz-adv-x="269" unicode="Ī"/>
			<glyph d="M64 483H181V0H64ZM1 660H244V579H1Z" horiz-adv-x="245" unicode="ī"/>
			<glyph d="M73 695H196V0H73ZM-24 890H56Q58 860 78 842T135 825Q170 825 190 842T213 890H294Q289 825 247 787T135 750Q62 750 21 787T-24 890Z" horiz-adv-x="269" unicode="Ĭ"/>
			<glyph d="M64 483H181V0H64ZM-23 706H47Q51 673 70 654T123 635Q155 635 175 654T199 706H269Q264 643 225 606T123 570Q58 570 20 606T-23 706Z" horiz-adv-x="245" unicode="ĭ"/>
			<glyph d="M73 695H196V0Q157 -34 137 -59T118 -112Q118 -131 127 -142T156 -153Q180 -153 202 -144V-203Q172 -215 135 -215Q95 -215 72 -192T50 -135Q50 -96 73 -63T141 0H73Z" horiz-adv-x="269" unicode="Į"/>
			<glyph d="M60 715H185V590H60ZM64 483H181V0Q142 -34 122 -59T103 -112Q103 -131 112 -142T140 -153Q164 -153 186 -144V-203Q156 -215 120 -215Q80 -215 57 -192T34 -135Q34 -96 58 -63T126 0H64Z" horiz-adv-x="245" unicode="į"/>
			<glyph d="M73 695H196V0H73ZM73 877H198V751H73Z" horiz-adv-x="269" unicode="İ"/>
			<glyph d="M64 483H181V0H64Z" horiz-adv-x="245" unicode="ı"/>
			<glyph d="M73 695H196V0H73ZM571 695H695V272Q695 -11 429 -11Q385 -11 344 -3T278 16V133Q300 122 340 112T417 103Q501 103 536 144T571 278Z" horiz-adv-x="765" unicode="Ĳ"/>
			<glyph d="M60 715H185V590H60ZM64 483H181V0H64ZM305 715H430V590H305ZM309 483H426V-40Q426 -132 376 -186T235 -241Q201 -241 166 -234V-129Q194 -136 222 -136Q309 -136 309 -35Z" horiz-adv-x="489" unicode="ĳ"/>
			<glyph d="M302 695H426V272Q426 -11 160 -11Q116 -11 75 -3T9 16V133Q31 122 71 112T148 103Q232 103 267 144T302 278ZM335 917H393L557 756H452L364 841L276 756H171Z" horiz-adv-x="496" unicode="Ĵ"/>
			<glyph d="M64 483H181V-38Q181 -139 126 -189T-10 -239Q-44 -239 -79 -232V-127Q-51 -134 -23 -134Q16 -134 40 -107T64 -32ZM93 732H151L294 554H196L122 645L48 554H-50Z" horiz-adv-x="245" unicode="ĵ"/>
			<glyph d="M73 695H196V354H198L482 695H647L342 352L650 0H486L198 343H196V0H73ZM314 -50H426L322 -231H228Z" horiz-adv-x="652" unicode="Ķ"/>
			<glyph d="M64 738H181V260H183L375 483H528L321 258L530 0H380L183 252H181V0H64ZM245 -50H357L253 -231H159Z" horiz-adv-x="537" unicode="ķ"/>
			<glyph d="M64 483H181V260H183L375 483H528L321 258L530 0H380L183 252H181V0H64Z" horiz-adv-x="537" unicode="ĸ"/>
			<glyph d="M73 695H196V113H534V0H73ZM153 893H278L165 756H71Z" horiz-adv-x="542" unicode="Ĺ"/>
			<glyph d="M64 738H181V0H64ZM138 936H263L150 799H56Z" horiz-adv-x="245" unicode="ĺ"/>
			<glyph d="M73 695H196V113H534V0H73ZM291 -50H403L299 -231H205Z" horiz-adv-x="542" unicode="Ļ"/>
			<glyph d="M64 738H181V0H64ZM109 -50H221L117 -231H23Z" horiz-adv-x="245" unicode="ļ"/>
			<glyph d="M73 695H196V113H534V0H73ZM288 695H394L327 478H239Z" horiz-adv-x="542" unicode="Ľ"/>
			<glyph d="M64 738H181V0H64ZM273 738H379L312 521H224Z" horiz-adv-x="245" unicode="ľ"/>
			<glyph d="M73 695H196V113H534V0H73ZM344 480H469V355H344Z" horiz-adv-x="542" unicode="Ŀ"/>
			<glyph d="M64 738H181V0H64ZM243 422H368V297H243Z" horiz-adv-x="366" unicode="ŀ"/>
			<glyph d="M75 695H198V435L354 528V416L198 323V113H535V0H75V254L-7 206V318L75 366Z" horiz-adv-x="546" unicode="Ł"/>
			<glyph d="M73 738H191V466L271 517V405L191 354V0H73V283L-7 233V345L73 395Z" horiz-adv-x="264" unicode="ł"/>
			<glyph d="M73 695H175L558 212H560Q558 278 558 320V695H678V0H569L194 481H192Q194 442 194 357V0H73ZM385 893H510L397 756H303Z" horiz-adv-x="752" unicode="Ń"/>
			<glyph d="M285 496Q402 496 451 452T500 317V0H383V300Q383 348 360 368T282 388Q235 388 181 376V0H64V465Q188 496 285 496ZM320 723H440L313 554H219Z" horiz-adv-x="561" unicode="ń"/>
			<glyph d="M73 695H175L558 212H560Q558 278 558 320V695H678V0H569L194 481H192Q194 442 194 357V0H73ZM363 -50H475L371 -231H277Z" horiz-adv-x="752" unicode="Ņ"/>
			<glyph d="M285 496Q402 496 451 452T500 317V0H383V300Q383 348 360 368T282 388Q235 388 181 376V0H64V465Q188 496 285 496ZM268 -50H380L276 -231H182Z" horiz-adv-x="561" unicode="ņ"/>
			<glyph d="M73 695H175L558 212H560Q558 278 558 320V695H678V0H569L194 481H192Q194 442 194 357V0H73ZM185 917H290L378 832L466 917H571L407 756H349Z" horiz-adv-x="752" unicode="Ň"/>
			<glyph d="M285 496Q402 496 451 452T500 317V0H383V300Q383 348 360 368T282 388Q235 388 181 376V0H64V465Q188 496 285 496ZM109 729H207L281 638L355 729H453L310 551H252Z" horiz-adv-x="561" unicode="ň"/>
			<glyph d="M361 496Q478 496 527 452T576 317V0H459V300Q459 348 436 368T358 388Q311 388 257 376V0H140V465Q264 496 361 496ZM87 715H208L65 419H-27Z" horiz-adv-x="636" unicode="ŉ"/>
			<glyph d="M73 695H175L558 212H560Q558 278 558 320V695H678V10Q678 -110 617 -182T430 -255Q361 -255 291 -227V-115Q314 -127 348 -136T417 -145Q489 -145 523 -108T558 -13V13L194 481H192Q194 442 194 357V0H73Z" horiz-adv-x="751" unicode="Ŋ"/>
			<glyph d="M285 496Q402 496 451 452T500 317V-38Q500 -139 445 -189T309 -239Q275 -239 240 -232V-127Q270 -134 296 -134Q335 -134 359 -107T383 -32V300Q383 348 360 368T282 388Q235 388 181 376V0H64V465Q188 496 285 496Z" horiz-adv-x="561" unicode="ŋ"/>
			<glyph d="M393 707Q560 707 654 607T748 347Q748 193 649 90T393 -12Q229 -12 134 87T39 347Q39 504 137 605T393 707ZM392 590Q288 590 226 523T165 347Q165 238 226 171T392 105Q496 105 558 171T621 347Q621 458 562 524T392 590ZM271 843H514V762H271Z" horiz-adv-x="787" unicode="Ō"/>
			<glyph d="M286 496Q398 496 468 424T539 242Q539 131 468 58T286 -14Q177 -14 105 57T33 242Q33 353 104 424T286 496ZM286 387Q226 387 189 346T153 242Q153 176 190 135T286 95Q346 95 382 135T418 242Q418 308 382 347T286 387ZM164 660H407V579H164Z" horiz-adv-x="572" unicode="ō"/>
			<glyph d="M393 707Q560 707 654 607T748 347Q748 193 649 90T393 -12Q229 -12 134 87T39 347Q39 504 137 605T393 707ZM392 590Q288 590 226 523T165 347Q165 238 226 171T392 105Q496 105 558 171T621 347Q621 458 562 524T392 590ZM234 890H314Q316 860 336 842T393 825Q428 825 448 842T471 890H552Q547 825 505 787T393 750Q320 750 279 787T234 890Z" horiz-adv-x="787" unicode="Ŏ"/>
			<glyph d="M286 496Q398 496 468 424T539 242Q539 131 468 58T286 -14Q177 -14 105 57T33 242Q33 353 104 424T286 496ZM286 387Q226 387 189 346T153 242Q153 176 190 135T286 95Q346 95 382 135T418 242Q418 308 382 347T286 387ZM140 706H210Q214 673 233 654T286 635Q318 635 338 654T362 706H432Q427 643 388 606T286 570Q221 570 183 606T140 706Z" horiz-adv-x="572" unicode="ŏ"/>
			<glyph d="M393 707Q560 707 654 607T748 347Q748 193 649 90T393 -12Q229 -12 134 87T39 347Q39 504 137 605T393 707ZM392 590Q288 590 226 523T165 347Q165 238 226 171T392 105Q496 105 558 171T621 347Q621 458 562 524T392 590ZM341 902H453L334 758H243ZM501 902H612L494 758H403Z" horiz-adv-x="787" unicode="Ő"/>
			<glyph d="M286 496Q398 496 468 424T539 242Q539 131 468 58T286 -14Q177 -14 105 57T33 242Q33 353 104 424T286 496ZM286 387Q226 387 189 346T153 242Q153 176 190 135T286 95Q346 95 382 135T418 242Q418 308 382 347T286 387ZM247 719H359L236 556H145ZM406 719H518L395 556H304Z" horiz-adv-x="572" unicode="ő"/>
			<glyph d="M381 707Q476 707 536 667V695H986V581H659V410H956V295H659V114H1001V0H536V29Q472 -12 380 -12Q224 -12 131 88T39 346Q39 501 134 604T381 707ZM392 590Q288 590 226 523T165 347Q165 236 225 170T391 105Q475 105 536 152V545Q477 590 392 590Z" horiz-adv-x="1034" unicode="Œ"/>
			<glyph d="M286 496Q347 496 395 471T475 403Q504 447 550 471T656 495Q765 495 818 427T872 262Q872 244 869 208H533Q536 155 572 120T683 86Q729 86 767 97T840 126L839 27Q791 6 754 -4T664 -14Q600 -14 550 8T471 75Q440 33 393 9T286 -14Q177 -14 105 57T33 242Q33 353 104 424T286 496ZM650 403Q600 403 570 371T535 288H753Q753 338 727 370T650 403ZM286 387Q226 387 189 346T153 242Q153 176 190 135T286 95Q346 95 382 135T418 242Q418 308 382 347T286 387Z" horiz-adv-x="899" unicode="œ"/>
			<glyph d="M73 695H321Q592 695 592 480Q592 403 550 350T435 272L627 0H472L311 249H196V0H73ZM196 587V362H326Q394 362 427 393T461 475Q461 587 321 587ZM317 893H442L329 756H235Z" horiz-adv-x="640" unicode="Ŕ"/>
			<glyph d="M264 496Q320 496 358 488V383Q318 390 277 390Q227 390 181 378V0H64V461Q159 496 264 496ZM245 723H365L238 554H144Z" horiz-adv-x="366" unicode="ŕ"/>
			<glyph d="M73 695H321Q592 695 592 480Q592 403 550 350T435 272L627 0H472L311 249H196V0H73ZM196 587V362H326Q394 362 427 393T461 475Q461 587 321 587ZM297 -50H409L305 -231H211Z" horiz-adv-x="640" unicode="Ŗ"/>
			<glyph d="M264 496Q320 496 358 488V383Q318 390 277 390Q227 390 181 378V0H64V461Q159 496 264 496ZM110 -50H222L118 -231H24Z" horiz-adv-x="366" unicode="ŗ"/>
			<glyph d="M73 695H321Q592 695 592 480Q592 403 550 350T435 272L627 0H472L311 249H196V0H73ZM196 587V362H326Q394 362 427 393T461 475Q461 587 321 587ZM117 917H222L310 832L398 917H503L339 756H281Z" horiz-adv-x="640" unicode="Ř"/>
			<glyph d="M264 496Q320 496 358 488V383Q318 390 277 390Q227 390 181 378V0H64V461Q159 496 264 496ZM34 729H132L206 638L280 729H378L235 551H177Z" horiz-adv-x="366" unicode="ř"/>
			<glyph d="M315 707Q368 707 417 697T496 677V557L459 570Q427 580 388 586T310 593Q173 593 173 505Q173 466 205 445T311 403T433 359T506 298T533 199Q533 108 463 48T266 -12Q143 -12 52 28V152Q91 130 146 114T264 99Q333 99 369 123T405 191Q405 249 333 271T191 317T82 383T45 501Q45 592 117 649T315 707ZM290 893H415L302 756H208Z" horiz-adv-x="566" unicode="Ś"/>
			<glyph d="M239 499Q315 499 381 482V379Q307 403 239 403Q197 403 176 389T155 351Q155 319 196 306T296 275T382 226T410 141Q410 74 362 30T214 -13Q164 -13 120 -6T47 11V111Q73 99 116 90T202 82Q294 82 294 132Q294 164 255 176T158 208T70 260T39 346Q39 414 91 456T239 499ZM261 723H381L254 554H160Z" horiz-adv-x="443" unicode="ś"/>
			<glyph d="M315 707Q368 707 417 697T496 677V557L459 570Q427 580 388 586T310 593Q173 593 173 505Q173 466 205 445T311 403T433 359T506 298T533 199Q533 108 463 48T266 -12Q143 -12 52 28V152Q91 130 146 114T264 99Q333 99 369 123T405 191Q405 249 333 271T191 317T82 383T45 501Q45 592 117 649T315 707ZM254 917H312L476 756H371L283 841L195 756H90Z" horiz-adv-x="566" unicode="Ŝ"/>
			<glyph d="M239 499Q315 499 381 482V379Q307 403 239 403Q197 403 176 389T155 351Q155 319 196 306T296 275T382 226T410 141Q410 74 362 30T214 -13Q164 -13 120 -6T47 11V111Q73 99 116 90T202 82Q294 82 294 132Q294 164 255 176T158 208T70 260T39 346Q39 414 91 456T239 499ZM193 732H251L394 554H296L222 645L148 554H50Z" horiz-adv-x="443" unicode="ŝ"/>
			<glyph d="M315 707Q368 707 417 697T496 677V557L459 570Q427 580 388 586T310 593Q173 593 173 505Q173 466 205 445T311 403T433 359T506 298T533 199Q533 114 470 54T293 -11L276 -48Q319 -48 346 -70T375 -131Q375 -175 340 -199T257 -223Q210 -223 171 -210V-148Q192 -154 208 -157T247 -161Q303 -161 303 -126Q303 -109 288 -100T239 -92H208L249 -12Q136 -9 52 28V152Q91 130 146 114T264 99Q333 99 369 123T405 191Q405 249 333 271T191 317T82 383T45 501Q45 592 117 649T315 707Z" horiz-adv-x="566" unicode="Ş"/>
			<glyph d="M239 499Q315 499 381 482V379Q307 403 239 403Q197 403 176 389T155 351Q155 319 196 306T296 275T382 226T410 141Q410 79 368 36T240 -12L224 -48Q267 -48 294 -70T323 -131Q323 -175 288 -199T205 -223Q158 -223 119 -210V-148Q140 -154 156 -157T195 -161Q251 -161 251 -126Q251 -109 236 -100T187 -92H156L196 -13Q109 -10 47 11V111Q73 99 116 90T202 82Q294 82 294 132Q294 164 255 176T158 208T70 260T39 346Q39 414 91 456T239 499Z" horiz-adv-x="443" unicode="ş"/>
			<glyph d="M315 707Q368 707 417 697T496 677V557L459 570Q427 580 388 586T310 593Q173 593 173 505Q173 466 205 445T311 403T433 359T506 298T533 199Q533 108 463 48T266 -12Q143 -12 52 28V152Q91 130 146 114T264 99Q333 99 369 123T405 191Q405 249 333 271T191 317T82 383T45 501Q45 592 117 649T315 707ZM90 917H195L283 832L371 917H476L312 756H254Z" horiz-adv-x="566" unicode="Š"/>
			<glyph d="M239 499Q315 499 381 482V379Q307 403 239 403Q197 403 176 389T155 351Q155 319 196 306T296 275T382 226T410 141Q410 74 362 30T214 -13Q164 -13 120 -6T47 11V111Q73 99 116 90T202 82Q294 82 294 132Q294 164 255 176T158 208T70 260T39 346Q39 414 91 456T239 499ZM50 729H148L222 638L296 729H394L251 551H193Z" horiz-adv-x="443" unicode="š"/>
			<glyph d="M7 695H561V582H345V0H222V582H7ZM266 0H309L287 -48Q330 -48 357 -70T386 -131Q386 -175 351 -199T268 -223Q221 -223 182 -210V-148Q203 -154 219 -157T258 -161Q314 -161 314 -126Q314 -109 299 -100T250 -92H219Z" horiz-adv-x="568" unicode="Ţ"/>
			<glyph d="M79 620H196V483H334V385H196V175Q196 129 215 110T274 92Q302 92 336 100V5Q291 -8 237 -8Q154 -8 116 36T79 164V385H7V483H79ZM157 -50H269L165 -231H71Z" horiz-adv-x="358" unicode="ţ"/>
			<glyph d="M7 695H561V582H345V0H222V582H7ZM91 917H196L284 832L372 917H477L313 756H255Z" horiz-adv-x="568" unicode="Ť"/>
			<glyph d="M79 620H196V483H334V385H196V175Q196 129 215 110T274 92Q302 92 336 100V5Q291 -8 237 -8Q154 -8 116 36T79 164V385H7V483H79ZM288 758H394L327 541H239Z" horiz-adv-x="358" unicode="ť"/>
			<glyph d="M7 695H561V582H345V378H510V270H345V0H222V270H58V378H222V582H7Z" horiz-adv-x="568" unicode="Ŧ"/>
			<glyph d="M79 620H196V483H334V392H196V290H334V199H196V168Q196 127 215 109T274 92Q302 92 336 100V5Q291 -8 237 -8Q154 -8 116 36T79 164V199H7V290H79V392H7V483H79Z" horiz-adv-x="334" unicode="ŧ"/>
			<glyph d="M70 695H193V263Q193 174 233 138T369 102Q443 102 521 121V695H644V37Q573 15 507 1T359 -12Q204 -12 137 54T70 252ZM299 878Q338 878 366 848T412 819Q428 819 437 835T449 875H512Q506 813 482 780T413 748Q372 748 344 778T299 809Q283 809 274 791T263 751H202Q204 809 227 843T299 878Z" horiz-adv-x="717" unicode="Ũ"/>
			<glyph d="M61 483H178V188Q178 140 202 117T288 95Q328 95 380 106V483H497V17Q377 -13 281 -13Q161 -13 111 33T61 171ZM223 695Q262 695 290 665T336 636Q352 636 361 652T373 692H436Q430 630 406 597T337 565Q316 565 297 574T261 603Q242 626 223 626Q207 626 198 608T187 568H126Q128 626 151 660T223 695Z" horiz-adv-x="561" unicode="ũ"/>
			<glyph d="M70 695H193V263Q193 174 233 138T369 102Q443 102 521 121V695H644V37Q573 15 507 1T359 -12Q204 -12 137 54T70 252ZM235 843H478V762H235Z" horiz-adv-x="717" unicode="Ū"/>
			<glyph d="M61 483H178V188Q178 140 202 117T288 95Q328 95 380 106V483H497V17Q377 -13 281 -13Q161 -13 111 33T61 171ZM159 660H402V579H159Z" horiz-adv-x="561" unicode="ū"/>
			<glyph d="M70 695H193V263Q193 174 233 138T369 102Q443 102 521 121V695H644V37Q573 15 507 1T359 -12Q204 -12 137 54T70 252ZM198 890H278Q280 860 300 842T357 825Q392 825 412 842T435 890H516Q511 825 469 787T357 750Q284 750 243 787T198 890Z" horiz-adv-x="717" unicode="Ŭ"/>
			<glyph d="M61 483H178V188Q178 140 202 117T288 95Q328 95 380 106V483H497V17Q377 -13 281 -13Q161 -13 111 33T61 171ZM135 706H205Q209 673 228 654T281 635Q313 635 333 654T357 706H427Q422 643 383 606T281 570Q216 570 178 606T135 706Z" horiz-adv-x="561" unicode="ŭ"/>
			<glyph d="M70 695H193V263Q193 174 233 138T369 102Q443 102 521 121V695H644V37Q573 15 507 1T359 -12Q204 -12 137 54T70 252ZM357 951Q404 951 436 918T468 839Q468 793 435 760T357 728Q311 728 278 760T246 839Q246 886 278 918T357 951ZM357 894Q334 894 318 878T302 839Q302 817 318 800T357 784Q381 784 397 800T413 839Q413 863 397 878T357 894Z" horiz-adv-x="717" unicode="Ů"/>
			<glyph d="M61 483H178V188Q178 140 202 117T288 95Q328 95 380 106V483H497V17Q377 -13 281 -13Q161 -13 111 33T61 171ZM281 766Q328 766 360 734T392 655Q392 609 360 576T281 544Q235 544 202 576T170 655Q170 702 202 734T281 766ZM281 710Q258 710 242 694T226 655Q226 633 242 616T281 600Q305 600 321 616T337 655Q337 679 321 694T281 710Z" horiz-adv-x="561" unicode="ů"/>
			<glyph d="M70 695H193V263Q193 174 233 138T369 102Q443 102 521 121V695H644V37Q573 15 507 1T359 -12Q204 -12 137 54T70 252ZM305 902H417L298 758H207ZM465 902H576L458 758H367Z" horiz-adv-x="717" unicode="Ű"/>
			<glyph d="M61 483H178V188Q178 140 202 117T288 95Q328 95 380 106V483H497V17Q377 -13 281 -13Q161 -13 111 33T61 171ZM242 719H354L231 556H140ZM401 719H513L390 556H299Z" horiz-adv-x="561" unicode="ű"/>
			<glyph d="M70 695H193V263Q193 174 233 138T369 102Q443 102 521 121V695H644V37Q602 -9 581 -42T560 -112Q560 -131 569 -142T598 -153Q622 -153 644 -144V-203Q614 -215 577 -215Q537 -215 514 -192T492 -135Q492 -58 562 14Q460 -12 359 -12Q204 -12 137 54T70 252Z" horiz-adv-x="716" unicode="Ų"/>
			<glyph d="M61 483H178V188Q178 140 202 117T288 95Q328 95 380 106V483H497V17Q456 -22 435 -51T414 -112Q414 -131 423 -142T451 -153Q475 -153 497 -144V-203Q467 -215 431 -215Q391 -215 368 -192T345 -135Q345 -63 420 0Q342 -13 281 -13Q161 -13 111 33T61 171Z" horiz-adv-x="561" unicode="ų"/>
			<glyph d="M17 695H149L261 285Q276 232 287 175H289Q300 224 323 290L462 695H556L684 279Q706 210 713 170H715Q728 229 745 283L870 695H1000L770 -2H655L542 362Q512 464 504 497H502Q485 432 461 363L336 -2H223ZM481 917H539L703 756H598L510 841L422 756H317Z" horiz-adv-x="1017" unicode="Ŵ"/>
			<glyph d="M12 483H133L207 232Q220 189 228 146H230Q238 183 257 237L345 483H447L532 228Q536 215 554 148H557Q561 166 578 230L660 483H784L613 0H501L421 230Q403 280 392 331H390Q378 282 358 230L275 0H164ZM367 732H425L568 554H470L396 645L322 554H224Z" horiz-adv-x="796" unicode="ŵ"/>
			<glyph d="M-11 695H132L305 365L487 695H628L367 242V0H243V240ZM281 917H339L503 756H398L310 841L222 756H117Z" horiz-adv-x="616" unicode="Ŷ"/>
			<glyph d="M-8 483H121L212 235Q228 193 243 142H245Q257 183 277 231L376 483H506L207 -235H79L184 2ZM213 732H271L414 554H316L242 645L168 554H70Z" horiz-adv-x="498" unicode="ŷ"/>
			<glyph d="M-11 695H132L305 365L487 695H628L367 242V0H243V240ZM177 854H276V754H177ZM343 854H442V754H343Z" horiz-adv-x="616" unicode="Ÿ"/>
			<glyph d="M52 695H604V601L198 113H617V0H30V92L434 582H52ZM335 893H460L347 756H253Z" horiz-adv-x="642" unicode="Ź"/>
			<glyph d="M33 483H443V405L188 106H452V0H21V78L278 378H33ZM262 723H382L255 554H161Z" horiz-adv-x="472" unicode="ź"/>
			<glyph d="M52 695H604V601L198 113H617V0H30V92L434 582H52ZM266 877H391V751H266Z" horiz-adv-x="642" unicode="Ż"/>
			<glyph d="M33 483H443V405L188 106H452V0H21V78L278 378H33ZM161 715H286V590H161Z" horiz-adv-x="472" unicode="ż"/>
			<glyph d="M52 695H604V601L198 113H617V0H30V92L434 582H52ZM135 917H240L328 832L416 917H521L357 756H299Z" horiz-adv-x="642" unicode="Ž"/>
			<glyph d="M33 483H443V405L188 106H452V0H21V78L278 378H33ZM51 729H149L223 638L297 729H395L252 551H194Z" horiz-adv-x="472" unicode="ž"/>
			<glyph d="M437 706Q491 706 533 696L521 596L496 602Q476 607 448 607Q357 607 345 510L336 431H472L461 332H325L301 147Q289 44 230 -5T93 -55Q48 -55 20 -47L32 58L50 54Q64 50 87 50Q126 50 153 77T185 152L207 332H138L150 431H219L228 513Q238 602 290 654T437 706Z" horiz-adv-x="556" unicode="ƒ"/>
			<glyph d="M315 707Q368 707 417 697T496 677V557L459 570Q427 580 388 586T310 593Q173 593 173 505Q173 466 205 445T311 403T433 359T506 298T533 199Q533 108 463 48T266 -12Q143 -12 52 28V152Q91 130 146 114T264 99Q333 99 369 123T405 191Q405 249 333 271T191 317T82 383T45 501Q45 592 117 649T315 707ZM260 -50H372L268 -231H174Z" horiz-adv-x="566" unicode="Ș"/>
			<glyph d="M239 499Q315 499 381 482V379Q307 403 239 403Q197 403 176 389T155 351Q155 319 196 306T296 275T382 226T410 141Q410 74 362 30T214 -13Q164 -13 120 -6T47 11V111Q73 99 116 90T202 82Q294 82 294 132Q294 164 255 176T158 208T70 260T39 346Q39 414 91 456T239 499ZM209 -50H321L217 -231H123Z" horiz-adv-x="443" unicode="ș"/>
			<glyph d="M7 695H561V582H345V0H222V582H7ZM271 -50H383L279 -231H185Z" horiz-adv-x="568" unicode="Ț"/>
			<glyph d="M79 620H196V483H334V385H196V175Q196 129 215 110T274 92Q302 92 336 100V5Q291 -8 237 -8Q154 -8 116 36T79 164V385H7V483H79ZM157 -50H269L165 -231H71Z" horiz-adv-x="358" unicode="ț"/>
			<glyph d="M64 483H181V-38Q181 -139 126 -189T-10 -239Q-44 -239 -79 -232V-127Q-51 -134 -23 -134Q16 -134 40 -107T64 -32Z" horiz-adv-x="245" unicode="ȷ"/>
			<glyph d="M153 732H211L354 554H256L182 645L108 554H10Z" horiz-adv-x="364" unicode="ˆ"/>
			<glyph d="M10 729H108L182 638L256 729H354L211 551H153Z" horiz-adv-x="364" unicode="ˇ"/>
			<glyph d="M18 660H261V579H18Z" horiz-adv-x="279" unicode="ˉ"/>
			<glyph d="M-6 706H64Q68 673 87 654T140 635Q172 635 192 654T216 706H286Q281 643 242 606T140 570Q75 570 37 606T-6 706Z" horiz-adv-x="279" unicode="˘"/>
			<glyph d="M76 715H201V590H76Z" horiz-adv-x="279" unicode="˙"/>
			<glyph d="M139 766Q186 766 218 734T250 655Q250 609 218 576T139 544Q93 544 60 576T28 655Q28 702 60 734T139 766ZM139 710Q116 710 100 694T84 655Q84 633 100 616T139 600Q163 600 179 616T195 655Q195 679 179 694T139 710Z" horiz-adv-x="279" unicode="˚"/>
			<glyph d="M151 0H206Q165 -33 144 -59T123 -112Q123 -131 132 -142T160 -153Q184 -153 206 -144V-203Q176 -215 140 -215Q100 -215 77 -192T54 -135Q54 -96 79 -63T151 0Z" horiz-adv-x="279" unicode="˛"/>
			<glyph d="M80 695Q119 695 147 665T193 636Q209 636 218 652T230 692H293Q287 630 263 597T194 565Q173 565 154 574T118 603Q99 626 80 626Q64 626 55 608T44 568H-17Q-15 626 8 660T80 695Z" horiz-adv-x="279" unicode="˜"/>
			<glyph d="M111 719H223L100 556H9ZM270 719H382L259 556H168Z" horiz-adv-x="279" unicode="˝"/>
			<glyph d="M142 743H237L152 562H39Z" horiz-adv-x="0" unicode="̒"/>
			<glyph d="M135 -50H247L143 -231H49Z" horiz-adv-x="0" unicode="̦"/>
			<glyph d="M294 696H409L693 0H7ZM348 533L179 110H520L350 533Z" horiz-adv-x="701" unicode="Δ"/>
			<glyph d="M380 711Q531 711 623 622T715 392Q715 299 671 226T547 125V108H715V0H432V166Q506 183 549 242T592 386Q592 480 531 541T379 603Q289 603 227 542T166 386Q166 303 210 243T325 166V0H43V108H210V124Q131 154 87 226T44 388Q44 529 137 620T380 711Z" horiz-adv-x="759" unicode="Ω"/>
			<glyph d="M63 483H181V199Q181 143 206 118T289 94Q342 94 380 112V483H499V34Q381 -14 292 -14Q255 -14 224 -6T180 16V-251H63Z" horiz-adv-x="563" unicode="μ"/>
			<glyph d="M171 484H606V381H510V150Q510 92 555 92Q575 92 597 100V10Q560 -7 511 -7Q445 -7 417 28T389 131V381H241V141Q241 67 233 0H111Q119 59 119 143V381Q97 381 71 377T25 368V471Q90 484 171 484Z" horiz-adv-x="643" unicode="π"/>
			<glyph d="M73 695H523V581H196V410H494V295H196V114H538V0H73ZM172 893H297L379 756H285Z" horiz-adv-x="572" unicode="Ѐ"/>
			<glyph d="M73 695H523V581H196V410H494V295H196V114H538V0H73ZM172 854H271V754H172ZM338 854H437V754H338Z" horiz-adv-x="572" unicode="Ё"/>
			<glyph d="M7 695H561V582H345V425Q411 449 482 449Q612 449 680 388T748 214Q748 108 683 45T503 -17Q466 -17 444 -11V102Q467 97 491 97Q555 97 590 129T626 214Q626 275 588 304T471 334Q438 334 403 326T345 309V0H222V582H7Z" horiz-adv-x="781" unicode="Ђ"/>
			<glyph d="M73 695H504V582H196V0H73ZM311 893H436L323 756H229Z" horiz-adv-x="510" unicode="Ѓ"/>
			<glyph d="M407 707Q506 707 589 674V550Q502 590 411 590Q309 590 250 541T177 410H513V295H178Q195 207 257 157T413 108Q469 108 517 121T601 155V32Q560 12 514 0T403 -13Q239 -13 139 86T39 348Q39 514 136 610T407 707Z" horiz-adv-x="634" unicode="Є"/>
			<glyph d="M315 707Q368 707 417 697T496 677V557L459 570Q427 580 388 586T310 593Q173 593 173 505Q173 466 205 445T311 403T433 359T506 298T533 199Q533 108 463 48T266 -12Q143 -12 52 28V152Q91 130 146 114T264 99Q333 99 369 123T405 191Q405 249 333 271T191 317T82 383T45 501Q45 592 117 649T315 707Z" horiz-adv-x="566" unicode="Ѕ"/>
			<glyph d="M73 695H196V0H73Z" horiz-adv-x="269" unicode="І"/>
			<glyph d="M73 695H196V0H73ZM2 854H101V754H2ZM168 854H267V754H168Z" horiz-adv-x="269" unicode="Ї"/>
			<glyph d="M302 695H426V272Q426 -11 160 -11Q116 -11 75 -3T9 16V133Q31 122 71 112T148 103Q232 103 267 144T302 278Z" horiz-adv-x="496" unicode="Ј"/>
			<glyph d="M220 695H617V446H742Q1013 446 1013 228Q1013 126 938 63T726 0H494V581H327Q307 345 263 215T158 38T9 -10V111Q57 111 95 151T166 318T220 695ZM617 338V113H747Q814 113 848 144T882 226Q882 338 741 338Z" horiz-adv-x="1046" unicode="Љ"/>
			<glyph d="M73 695H196V409H518V695H641V446H766Q1037 446 1037 228Q1037 126 962 63T750 0H518V295H196V0H73ZM641 338V113H771Q838 113 872 144T906 226Q906 338 765 338Z" horiz-adv-x="1070" unicode="Њ"/>
			<glyph d="M7 695H561V582H345V416Q409 434 475 434Q622 434 685 368T748 170V0H626V160Q626 245 590 283T465 321Q407 321 345 302V0H222V582H7Z" horiz-adv-x="796" unicode="Ћ"/>
			<glyph d="M73 695H196V354H198L482 695H647L342 352L650 0H486L198 343H196V0H73ZM342 893H467L354 756H260Z" horiz-adv-x="652" unicode="Ќ"/>
			<glyph d="M73 695H193V314Q193 240 191 206H193L576 695H678V0H558V364Q558 449 559 488H557L175 0H73ZM243 893H368L450 756H356Z" horiz-adv-x="751" unicode="Ѝ"/>
			<glyph d="M8 695H150L320 302L494 695H631L395 177Q350 76 292 32T141 -11Q103 -11 80 -4V110Q105 103 141 103Q181 103 210 117T259 163ZM152 894H238Q241 861 261 842T316 824Q350 824 371 842T393 894H481Q479 824 434 783T316 743Q242 743 197 783T152 894Z" horiz-adv-x="633" unicode="Ў"/>
			<glyph d="M73 695H196V114H507V695H630V0H407V-160H296V0H73Z" horiz-adv-x="703" unicode="Џ"/>
			<glyph d="M294 695H409L697 0H562L493 173H205L135 0H2ZM348 535L245 275H451L350 535Z" horiz-adv-x="699" unicode="А"/>
			<glyph d="M73 695H534V582H196V435H321Q586 435 586 223Q586 123 512 61T305 0H73ZM196 326V113H326Q391 113 423 143T455 220Q455 326 321 326Z" horiz-adv-x="622" unicode="Б"/>
			<glyph d="M73 695H335Q583 695 583 522Q583 462 545 420T446 365V363Q519 352 562 313T605 200Q605 107 537 53T332 0H73ZM199 592V412H306Q444 412 444 506Q444 549 415 570T315 592ZM199 304V109H317Q396 109 433 134T471 210Q471 258 432 281T313 304Z" horiz-adv-x="641" unicode="В"/>
			<glyph d="M73 695H504V582H196V0H73Z" horiz-adv-x="510" unicode="Г"/>
			<glyph d="M209 695H625V114H706V-160H595V0H121V-160H9V114H75Q125 190 157 322T209 695ZM315 581Q299 404 273 295T205 114H502V581Z" horiz-adv-x="736" unicode="Д"/>
			<glyph d="M73 695H523V581H196V410H494V295H196V114H538V0H73Z" horiz-adv-x="572" unicode="Е"/>
			<glyph d="M5 695H160L387 354H389V695H512V354H514L742 695H897L649 352L899 0H746L514 343H512V0H389V343H387L156 0H3L253 352Z" horiz-adv-x="902" unicode="Ж"/>
			<glyph d="M260 707Q384 707 445 655T506 522Q506 460 467 416T369 357V355Q445 339 484 301T523 194Q523 105 447 46T240 -12Q176 -12 121 -1T33 23V144Q65 125 121 112T231 100Q309 100 348 126T388 201Q388 253 340 275T205 298H122V406H196Q280 406 326 432T372 508Q372 550 336 572T232 595Q184 595 135 581T49 550V663Q85 681 141 694T260 707Z" horiz-adv-x="558" unicode="З"/>
			<glyph d="M73 695H193V314Q193 240 191 206H193L576 695H678V0H558V364Q558 449 559 488H557L175 0H73Z" horiz-adv-x="751" unicode="И"/>
			<glyph d="M73 695H193V314Q193 240 191 206H193L576 695H678V0H558V364Q558 449 559 488H557L175 0H73ZM212 894H298Q301 861 321 842T376 824Q410 824 431 842T453 894H541Q539 824 494 783T376 743Q302 743 257 783T212 894Z" horiz-adv-x="751" unicode="Й"/>
			<glyph d="M73 695H196V354H198L482 695H647L342 352L650 0H486L198 343H196V0H73Z" horiz-adv-x="652" unicode="К"/>
			<glyph d="M220 695H626V0H504V581H327Q307 345 263 215T158 38T9 -10V111Q57 111 95 151T166 318T220 695Z" horiz-adv-x="699" unicode="Л"/>
			<glyph d="M73 695H225L444 178H446L668 695H817V0H701L700 496H698L493 10H397L191 495H189V0H73Z" horiz-adv-x="890" unicode="М"/>
			<glyph d="M73 695H196V409H541V695H664V0H541V295H196V0H73Z" horiz-adv-x="737" unicode="Н"/>
			<glyph d="M393 707Q560 707 654 607T748 347Q748 193 649 90T393 -12Q229 -12 134 87T39 347Q39 504 137 605T393 707ZM392 590Q288 590 226 523T165 347Q165 238 226 171T392 105Q496 105 558 171T621 347Q621 458 562 524T392 590Z" horiz-adv-x="787" unicode="О"/>
			<glyph d="M73 695H644V0H521V581H196V0H73Z" horiz-adv-x="717" unicode="П"/>
			<glyph d="M73 695H307Q599 695 599 467Q599 353 522 286T303 219H196V0H73ZM196 581V332H305Q389 332 426 367T464 463Q464 581 310 581Z" horiz-adv-x="632" unicode="Р"/>
			<glyph d="M407 707Q507 707 589 674V550Q502 590 411 590Q292 590 232 525T173 355Q173 241 238 174T413 108Q469 108 517 121T601 155V32Q560 12 514 0T403 -13Q239 -13 139 86T39 348Q39 514 136 610T407 707Z" horiz-adv-x="634" unicode="С"/>
			<glyph d="M7 695H561V582H345V0H222V582H7Z" horiz-adv-x="568" unicode="Т"/>
			<glyph d="M8 695H150L320 302L494 695H631L395 177Q350 76 292 32T141 -11Q103 -11 80 -4V110Q105 103 141 103Q181 103 210 117T259 163Z" horiz-adv-x="633" unicode="У"/>
			<glyph d="M368 715H491V647Q640 643 730 559T821 347Q821 217 734 134T491 48V-20H368V48Q211 52 125 134T39 347Q39 475 129 559T368 647ZM368 534Q273 530 219 479T165 347Q165 266 218 215T368 161ZM491 534V161Q587 165 640 215T694 347Q694 428 640 479T491 534Z" horiz-adv-x="860" unicode="Ф"/>
			<glyph d="M5 695H156L333 437L513 695H663L410 345L661 0H509L331 253L155 0H5L255 346Z" horiz-adv-x="668" unicode="Х"/>
			<glyph d="M73 695H196V114H507V695H630V114H711V-160H599V0H73Z" horiz-adv-x="741" unicode="Ц"/>
			<glyph d="M47 695H170V524Q170 435 210 399T344 363Q415 363 493 382V695H615V0H493V267Q410 249 334 249Q180 249 113 315T47 513Z" horiz-adv-x="689" unicode="Ч"/>
			<glyph d="M73 695H196V114H434V695H557V114H795V695H918V0H73Z" horiz-adv-x="991" unicode="Ш"/>
			<glyph d="M73 695H196V114H434V695H557V114H795V695H918V114H999V-160H888V0H73Z" horiz-adv-x="1029" unicode="Щ"/>
			<glyph d="M7 695H345V446H470Q741 446 741 228Q741 126 666 63T454 0H222V582H7ZM345 338V113H475Q543 113 576 144T610 226Q610 338 470 338Z" horiz-adv-x="774" unicode="Ъ"/>
			<glyph d="M73 695H196V446H321Q592 446 592 228Q592 126 517 63T305 0H73ZM196 338V113H326Q394 113 427 144T461 226Q461 338 321 338ZM678 695H801V0H678Z" horiz-adv-x="874" unicode="Ы"/>
			<glyph d="M73 695H196V446H321Q592 446 592 228Q592 126 517 63T305 0H73ZM196 338V113H326Q394 113 427 144T461 226Q461 338 321 338Z" horiz-adv-x="625" unicode="Ь"/>
			<glyph d="M230 707Q403 707 499 613T595 356Q595 189 493 88T229 -13Q166 -13 119 -1T33 31V154Q68 135 117 121T222 108Q318 108 380 157T457 295H122V410H456Q441 494 383 542T224 590Q136 590 45 549V674Q132 707 230 707Z" horiz-adv-x="635" unicode="Э"/>
			<glyph d="M637 707Q792 707 882 609T972 347Q972 193 878 90T637 -12Q494 -12 406 72T305 299H196V0H73V695H196V407H307Q325 543 414 625T637 707ZM636 590Q541 590 485 523T429 347Q429 238 484 171T636 105Q732 105 788 172T845 347Q845 458 791 524T636 590Z" horiz-adv-x="1011" unicode="Ю"/>
			<glyph d="M318 695H567V0H444V249H325L159 0H13L201 269Q128 289 88 339T48 465Q48 570 113 632T318 695ZM321 587Q249 587 214 557T179 471Q179 422 212 392T317 362H444V587Z" horiz-adv-x="640" unicode="Я"/>
			<glyph d="M250 496Q355 496 402 448T449 305V22Q347 -12 239 -12Q38 -12 38 140Q38 213 91 253T252 294Q300 294 332 289V310Q332 358 304 376T226 394Q186 394 145 385T74 364V462Q104 475 152 485T250 496ZM252 215Q203 215 178 197T153 147Q153 115 174 98T246 81Q292 81 332 90V210Q294 215 252 215Z" horiz-adv-x="508" unicode="а"/>
			<glyph d="M506 748V638L322 591Q242 570 204 526T159 405L161 404Q183 435 225 455T324 476Q424 476 484 414T545 242Q545 128 475 57T295 -14Q166 -14 101 67T37 303Q37 477 95 569T294 696ZM295 372Q235 372 198 336T161 237Q161 176 195 135T291 95Q353 95 388 134T424 237Q424 299 390 335T295 372Z" horiz-adv-x="578" unicode="б"/>
			<glyph d="M64 483H300Q392 483 434 452T477 361Q477 317 450 288T381 250V249Q491 232 491 137Q491 72 444 36T299 0H64ZM181 391V286H280Q357 286 357 339Q357 391 283 391ZM181 203V92H281Q370 92 370 150Q370 176 349 189T280 203Z" horiz-adv-x="524" unicode="в"/>
			<glyph d="M64 483H409V377H181V0H64Z" horiz-adv-x="418" unicode="г"/>
			<glyph d="M153 483H502V107H570V-160H464V0H116V-160H10V107H70Q100 162 120 248T153 483ZM253 377Q244 281 230 216T197 107H385V377Z" horiz-adv-x="602" unicode="д"/>
			<glyph d="M282 495Q393 495 448 429T503 262Q503 245 500 209H152Q155 155 191 120T305 86Q387 86 469 126V27Q424 7 382 -3T284 -14Q165 -14 99 52T33 237Q33 355 99 425T282 495ZM275 403Q224 403 190 371T153 286H386Q386 338 357 370T275 403Z" horiz-adv-x="530" unicode="е"/>
			<glyph d="M9 483H150L304 260H306V483H423V260H425L580 483H721L552 258L723 0H584L425 252H423V0H306V252H304L146 0H7L178 258Z" horiz-adv-x="730" unicode="ж"/>
			<glyph d="M204 495Q299 495 346 460T394 360Q394 270 297 246V245Q351 234 379 206T407 133Q407 62 352 24T186 -13Q135 -13 93 -6T24 11V110Q49 99 94 89T177 80Q233 80 260 95T287 143Q287 173 257 186T162 199H91V288H155Q221 288 248 303T275 348Q275 375 252 388T176 402Q139 402 100 393T35 374V467Q65 478 109 486T204 495Z" horiz-adv-x="441" unicode="з"/>
			<glyph d="M64 483H180V290Q180 251 178 175H180L423 483H523V0H407V190Q407 229 409 305H407L163 0H64Z" horiz-adv-x="587" unicode="и"/>
			<glyph d="M64 483H180V290Q180 251 178 175H180L423 483H523V0H407V190Q407 229 409 305H407L163 0H64ZM134 694H218Q222 661 241 641T294 622Q326 622 346 641T370 694H454Q449 623 406 583T294 543Q223 543 181 583T134 694Z" horiz-adv-x="587" unicode="й"/>
			<glyph d="M64 483H181V260H183L375 483H528L321 258L530 0H380L183 252H181V0H64Z" horiz-adv-x="537" unicode="к"/>
			<glyph d="M143 483H480V0H363V377H243Q224 179 171 86T6 -7V105Q39 105 64 129T111 236T143 483Z" horiz-adv-x="544" unicode="л"/>
			<glyph d="M64 483H220L357 162H358L502 483H652V0H544V333H542L396 6H317L174 332H172V0H64Z" horiz-adv-x="716" unicode="м"/>
			<glyph d="M64 483H181V299H389V483H506V0H389V195H181V0H64Z" horiz-adv-x="570" unicode="н"/>
			<glyph d="M286 496Q398 496 468 424T539 242Q539 131 468 58T286 -14Q177 -14 105 57T33 242Q33 353 104 424T286 496ZM286 387Q226 387 189 346T153 242Q153 176 190 135T286 95Q346 95 382 135T418 242Q418 308 382 347T286 387Z" horiz-adv-x="572" unicode="о"/>
			<glyph d="M64 483H500V0H383V377H181V0H64Z" horiz-adv-x="564" unicode="п"/>
			<glyph d="M288 496Q404 496 469 426T535 250Q535 131 466 58T290 -14Q226 -14 181 6V-235H64V446Q174 496 288 496ZM278 384Q252 384 225 379T181 367V111Q218 94 274 94Q339 94 376 132T414 243Q414 309 377 346T278 384Z" horiz-adv-x="567" unicode="р"/>
			<glyph d="M298 496Q366 496 424 476V366Q401 376 369 383T305 390Q231 390 192 351T153 242Q153 176 193 135T309 94Q344 94 376 101T432 120V13Q408 2 371 -6T295 -14Q175 -14 104 55T33 243Q33 353 105 424T298 496Z" horiz-adv-x="456" unicode="с"/>
			<glyph d="M10 483H456V377H292V0H174V377H10Z" horiz-adv-x="466" unicode="т"/>
			<glyph d="M-8 483H121L212 235Q228 193 243 142H245Q257 183 277 231L376 483H506L207 -235H79L184 2Z" horiz-adv-x="498" unicode="у"/>
			<glyph d="M295 738H407V496Q526 490 597 421T668 242Q668 131 596 61T407 -14V-246H295V-14Q178 -9 105 61T33 242Q33 353 104 421T295 496ZM295 390Q229 385 191 346T153 242Q153 175 192 136T295 92ZM407 390V92Q472 97 509 136T547 242Q547 307 510 346T407 390Z" horiz-adv-x="701" unicode="ф"/>
			<glyph d="M-1 483H148L263 328L379 483H526L336 245L535 0H384L261 160L142 0H-3L189 244Z" horiz-adv-x="529" unicode="х"/>
			<glyph d="M64 483H181V107H383V483H500V107H575V-160H469V0H64Z" horiz-adv-x="588" unicode="ц"/>
			<glyph d="M39 483H156V360Q156 312 179 290T262 268Q298 268 348 279V483H465V0H348V173Q291 163 255 163Q137 163 88 209T39 346Z" horiz-adv-x="529" unicode="ч"/>
			<glyph d="M64 483H181V107H337V483H454V107H610V483H727V0H64Z" horiz-adv-x="791" unicode="ш"/>
			<glyph d="M64 483H181V107H337V483H454V107H610V483H727V107H803V-160H697V0H64Z" horiz-adv-x="815" unicode="щ"/>
			<glyph d="M11 483H273V327H366Q468 327 517 285T567 168Q567 89 516 44T360 0H156V377H11ZM273 233V94H362Q449 94 449 164Q449 193 430 213T368 233Z" horiz-adv-x="590" unicode="ъ"/>
			<glyph d="M64 483H181V327H274Q376 327 425 286T475 168Q475 89 424 44T268 0H64ZM181 233V94H270Q357 94 357 164Q357 194 338 213T276 233ZM521 483H638V0H521Z" horiz-adv-x="702" unicode="ы"/>
			<glyph d="M64 483H181V327H274Q376 327 425 286T475 168Q475 89 424 44T268 0H64ZM181 233V94H270Q357 94 357 164Q357 194 338 213T276 233Z" horiz-adv-x="497" unicode="ь"/>
			<glyph d="M187 496Q307 496 367 429T427 248Q427 133 358 59T166 -14Q125 -14 89 -7T30 7V108Q84 83 151 83Q216 83 257 113T305 202H77V286H305Q298 343 261 371T162 400Q95 400 38 376V471Q62 481 102 488T187 496Z" horiz-adv-x="460" unicode="э"/>
			<glyph d="M498 496Q607 496 675 424T743 242Q743 131 674 58T498 -14Q401 -14 335 45T257 200H181V0H64V483H181V283H257Q269 379 335 437T498 496ZM498 387Q442 387 408 346T374 242Q374 176 408 135T498 95Q555 95 588 135T622 242Q622 308 589 347T498 387Z" horiz-adv-x="776" unicode="ю"/>
			<glyph d="M240 483H449V0H332V164H245L142 0H13L134 182Q88 197 62 232T37 319Q37 393 87 438T240 483ZM238 387Q195 387 175 369T155 322Q155 295 173 276T230 258H332V387Z" horiz-adv-x="513" unicode="я"/>
			<glyph d="M282 495Q393 495 448 429T503 262Q503 245 500 209H152Q155 155 191 120T305 86Q387 86 469 126V27Q424 7 382 -3T284 -14Q165 -14 99 52T33 237Q33 355 99 425T282 495ZM275 403Q224 403 190 371T153 286H386Q386 338 357 370T275 403ZM118 723H238L337 554H250Z" horiz-adv-x="530" unicode="ѐ"/>
			<glyph d="M282 495Q393 495 448 429T503 262Q503 245 500 209H152Q155 155 191 120T305 86Q387 86 469 126V27Q424 7 382 -3T284 -14Q165 -14 99 52T33 237Q33 355 99 425T282 495ZM275 403Q224 403 190 371T153 286H386Q386 338 357 370T275 403ZM137 680H236V580H137ZM303 680H402V580H303Z" horiz-adv-x="530" unicode="ё"/>
			<glyph d="M64 738H181V659H339V559H181V462Q207 475 249 485T332 496Q420 496 460 447T500 307V-40Q500 -132 450 -186T309 -241Q275 -241 240 -234V-129Q270 -136 296 -136Q383 -136 383 -35V292Q383 341 361 364T292 388Q237 388 181 358V0H64V559H-11V659H64Z" horiz-adv-x="561" unicode="ђ"/>
			<glyph d="M64 483H409V377H181V0H64ZM252 723H372L245 554H151Z" horiz-adv-x="418" unicode="ѓ"/>
			<glyph d="M298 496Q366 496 423 477V376Q371 400 306 400Q242 400 203 370T156 286H383V202H156Q163 145 203 114T309 83Q369 83 430 109V10Q369 -14 291 -14Q172 -14 102 56T33 243Q33 354 103 425T298 496Z" horiz-adv-x="459" unicode="є"/>
			<glyph d="M239 499Q315 499 381 482V379Q307 403 239 403Q197 403 176 389T155 351Q155 319 196 306T296 275T382 226T410 141Q410 74 362 30T214 -13Q164 -13 120 -6T47 11V111Q73 99 116 90T202 82Q294 82 294 132Q294 164 255 176T158 208T70 260T39 346Q39 414 91 456T239 499Z" horiz-adv-x="443" unicode="ѕ"/>
			<glyph d="M60 715H185V590H60ZM64 483H181V0H64Z" horiz-adv-x="245" unicode="і"/>
			<glyph d="M64 483H181V0H64ZM-10 680H89V580H-10ZM156 680H255V580H156Z" horiz-adv-x="245" unicode="ї"/>
			<glyph d="M60 715H185V590H60ZM64 483H181V-40Q181 -132 131 -186T-10 -241Q-44 -241 -79 -234V-129Q-51 -136 -23 -136Q64 -136 64 -35Z" horiz-adv-x="245" unicode="ј"/>
			<glyph d="M143 483H480V327H573Q675 327 724 285T774 168Q774 89 723 44T567 0H363V377H243Q224 179 171 86T6 -7V105Q39 105 64 129T111 236T143 483ZM480 233V94H569Q656 94 656 164Q656 193 637 213T575 233Z" horiz-adv-x="796" unicode="љ"/>
			<glyph d="M64 483H181V309H376V483H494V327H586Q688 327 737 285T787 168Q787 89 736 44T581 0H376V205H181V0H64ZM494 233V94H582Q670 94 670 164Q670 193 651 213T589 233Z" horiz-adv-x="810" unicode="њ"/>
			<glyph d="M64 738H181V659H339V559H181V465Q206 477 247 486T326 496Q419 496 459 451T500 314V0H383V295Q383 344 361 366T292 388Q242 388 181 362V0H64V559H-11V659H64Z" horiz-adv-x="561" unicode="ћ"/>
			<glyph d="M307 723H427L300 554H206ZM64 483H181V260H183L375 483H528L321 258L530 0H380L183 252H181V0H64Z" horiz-adv-x="537" unicode="ќ"/>
			<glyph d="M64 483H180V290Q180 251 178 175H180L423 483H523V0H407V190Q407 229 409 305H407L163 0H64ZM142 723H262L361 554H274Z" horiz-adv-x="587" unicode="ѝ"/>
			<glyph d="M-8 483H121L212 235Q228 193 243 142H245Q257 183 277 231L376 483H506L207 -235H79L184 2ZM82 694H166Q170 661 189 641T242 622Q274 622 294 641T318 694H402Q397 623 354 583T242 543Q171 543 129 583T82 694Z" horiz-adv-x="498" unicode="ў"/>
			<glyph d="M64 483H181V107H383V483H500V0H335V-160H229V0H64Z" horiz-adv-x="564" unicode="џ"/>
			<glyph d="M392 856H504V582H196V0H73V695H392Z" horiz-adv-x="512" unicode="Ґ"/>
			<glyph d="M303 643H409V377H181V0H64V483H303Z" horiz-adv-x="420" unicode="ґ"/>
			<glyph d="M73 695H504V582H196V378H362V270H196V0H73V270H-1V378H73Z" horiz-adv-x="510" unicode="Ғ"/>
			<glyph d="M64 483H409V377H181V257H309V165H181V0H64V165H5V257H64Z" horiz-adv-x="420" unicode="ғ"/>
			<glyph d="M5 695H160L387 354H389V695H512V354H514L742 695H897L649 352L818 114H909V-160H797V0H746L514 343H512V0H389V343H387L156 0H3L253 352Z" horiz-adv-x="905" unicode="Җ"/>
			<glyph d="M9 483H150L304 260H306V483H423V260H425L580 483H721L552 258L652 107H732V-160H626V0H584L425 252H423V0H306V252H304L146 0H7L178 258Z" horiz-adv-x="730" unicode="җ"/>
			<glyph d="M73 695H196V354H198L482 695H647L342 352L550 114H659V-160H547V0H486L198 343H196V0H73Z" horiz-adv-x="654" unicode="Қ"/>
			<glyph d="M64 483H181V260H183L375 483H528L321 258L443 107H538V-160H433V0H380L183 252H181V0H64Z" horiz-adv-x="537" unicode="қ"/>
			<glyph d="M73 695H196V406H251V552H335V406H340L533 695H688L440 352L690 0H537L339 292H335V133H251V292H196V0H73Z" horiz-adv-x="693" unicode="Ҝ"/>
			<glyph d="M64 483H181V298H228V414H304V298H307L434 483H575L407 255L578 0H439L308 206H304V91H228V206H181V0H64Z" horiz-adv-x="585" unicode="ҝ"/>
			<glyph d="M73 695H196V409H541V695H664V114H745V-160H634V0H541V295H196V0H73Z" horiz-adv-x="775" unicode="Ң"/>
			<glyph d="M64 483H181V299H389V483H506V107H582V-160H477V0H389V195H181V0H64Z" horiz-adv-x="595" unicode="ң"/>
			<glyph d="M-11 695H132L305 365L487 695H628L367 242V0H243V240Z" horiz-adv-x="616" unicode="Ү"/>
			<glyph d="M-8 483H120L204 259Q227 196 246 136H247Q266 196 289 259L374 483H501L305 0V-235H188V0Z" horiz-adv-x="493" unicode="ү"/>
			<glyph d="M-11 695H132L305 365L487 695H628L411 319H537V211H367V0H243V211H74V319H199Z" horiz-adv-x="616" unicode="Ұ"/>
			<glyph d="M-8 483H120L204 259Q227 196 246 136H247Q266 196 289 259L374 483H501L320 36H413V-64H305V-235H188V-64H82V36H173Z" horiz-adv-x="493" unicode="ұ"/>
			<glyph d="M5 695H156L333 437L513 695H663L410 345L578 114H672V-160H560V0H509L331 253L155 0H5L255 346Z" horiz-adv-x="668" unicode="Ҳ"/>
			<glyph d="M-1 483H148L263 328L379 483H526L336 245L448 107H543V-160H438V0H384L261 160L142 0H-3L189 244Z" horiz-adv-x="541" unicode="ҳ"/>
			<glyph d="M47 695H170V524Q170 453 195 415T284 367V542H379V364Q430 367 493 382V695H615V0H493V267Q425 253 379 250V123H284V251Q157 261 102 326T47 513Z" horiz-adv-x="689" unicode="Ҹ"/>
			<glyph d="M35 483H152V363Q152 325 166 304T217 275V391H293V272Q334 275 358 282V483H475V0H358V173Q319 166 293 164V69H217V164Q118 172 76 217T35 346Z" horiz-adv-x="539" unicode="ҹ"/>
			<glyph d="M73 695H196V428Q277 446 355 446Q509 446 575 380T641 182V0H519V171Q519 260 479 296T345 332Q306 332 266 326T196 313V0H73Z" horiz-adv-x="689" unicode="Һ"/>
			<glyph d="M64 483H181V310Q227 320 274 320Q392 320 441 274T490 137V0H373V123Q373 171 349 193T267 215Q231 215 181 204V0H64Z" horiz-adv-x="529" unicode="һ"/>
			<glyph d="M340 714Q503 714 598 619T694 359Q694 188 597 84T343 -19Q196 -19 115 73T35 318Q35 344 40 389H561Q557 480 496 538T317 597Q248 597 187 578T82 535L83 653Q140 682 200 698T340 714ZM163 292Q163 203 209 146T349 89Q438 89 494 144T559 292Z" horiz-adv-x="733" unicode="Ә"/>
			<glyph d="M247 497Q365 497 431 431T497 246Q497 128 430 58T248 -12Q138 -12 83 53T28 221Q28 250 30 274H378Q376 328 339 362T225 397Q143 397 61 357L62 456Q105 476 147 486T247 497ZM145 197Q145 145 173 112T256 80Q307 80 340 111T377 197Z" horiz-adv-x="530" unicode="ә"/>
			<glyph d="M393 707Q560 707 654 607T748 347Q748 193 649 90T393 -12Q229 -12 134 87T39 347Q39 504 137 605T393 707ZM392 590Q300 590 241 537T169 397H618Q605 487 547 538T392 590ZM168 304Q179 213 238 159T392 105Q487 105 547 159T619 304Z" horiz-adv-x="786" unicode="Ө"/>
			<glyph d="M286 496Q400 496 469 426T539 242Q539 129 469 57T286 -14Q172 -14 102 57T33 242Q33 355 103 425T286 496ZM286 398Q232 398 197 367T155 284H417Q411 334 377 366T286 398ZM155 201Q160 148 194 115T286 82Q341 82 376 114T417 201Z" horiz-adv-x="572" unicode="ө"/>
			<glyph d="M17 695H149L261 285Q276 232 287 175H289Q300 224 323 290L462 695H556L684 279Q706 210 713 170H715Q728 229 745 283L870 695H1000L770 -2H655L542 362Q512 464 504 497H502Q485 432 461 363L336 -2H223ZM377 893H502L584 756H490Z" horiz-adv-x="1017" unicode="Ẁ"/>
			<glyph d="M12 483H133L207 232Q220 189 228 146H230Q238 183 257 237L345 483H447L532 228Q536 215 554 148H557Q561 166 578 230L660 483H784L613 0H501L421 230Q403 280 392 331H390Q378 282 358 230L275 0H164ZM244 723H364L463 554H376Z" horiz-adv-x="796" unicode="ẁ"/>
			<glyph d="M17 695H149L261 285Q276 232 287 175H289Q300 224 323 290L462 695H556L684 279Q706 210 713 170H715Q728 229 745 283L870 695H1000L770 -2H655L542 362Q512 464 504 497H502Q485 432 461 363L336 -2H223ZM517 893H642L529 756H435Z" horiz-adv-x="1017" unicode="Ẃ"/>
			<glyph d="M12 483H133L207 232Q220 189 228 146H230Q238 183 257 237L345 483H447L532 228Q536 215 554 148H557Q561 166 578 230L660 483H784L613 0H501L421 230Q403 280 392 331H390Q378 282 358 230L275 0H164ZM435 723H555L428 554H334Z" horiz-adv-x="796" unicode="ẃ"/>
			<glyph d="M17 695H149L261 285Q276 232 287 175H289Q300 224 323 290L462 695H556L684 279Q706 210 713 170H715Q728 229 745 283L870 695H1000L770 -2H655L542 362Q512 464 504 497H502Q485 432 461 363L336 -2H223ZM377 854H476V754H377ZM543 854H642V754H543Z" horiz-adv-x="1017" unicode="Ẅ"/>
			<glyph d="M12 483H133L207 232Q220 189 228 146H230Q238 183 257 237L345 483H447L532 228Q536 215 554 148H557Q561 166 578 230L660 483H784L613 0H501L421 230Q403 280 392 331H390Q378 282 358 230L275 0H164ZM263 680H362V580H263ZM429 680H528V580H429Z" horiz-adv-x="796" unicode="ẅ"/>
			<glyph d="M375 707Q511 707 579 644T654 485L475 387Q580 371 628 324T676 202Q676 110 609 49T421 -11Q378 -11 338 -4T273 13V130Q302 117 339 109T416 101Q476 101 511 127T547 190Q547 245 503 273T346 320L345 413L511 508Q506 544 473 569T376 595Q288 595 241 539T194 383V0H70V395Q70 540 152 623T375 707Z" horiz-adv-x="713" unicode="ẞ"/>
			<glyph d="M-11 695H132L305 365L487 695H628L367 242V0H243V240ZM177 893H302L384 756H290Z" horiz-adv-x="616" unicode="Ỳ"/>
			<glyph d="M-8 483H121L212 235Q228 193 243 142H245Q257 183 277 231L376 483H506L207 -235H79L184 2ZM90 723H210L309 554H222Z" horiz-adv-x="498" unicode="ỳ"/>
			<glyph d="M48 320H501V212H48Z" horiz-adv-x="549" unicode="–"/>
			<glyph d="M48 320H731V212H48Z" horiz-adv-x="779" unicode="—"/>
			<glyph d="M133 715H225L110 419H-10Z" horiz-adv-x="222" unicode="‘"/>
			<glyph d="M111 715H232L89 419H-3Z" horiz-adv-x="222" unicode="’"/>
			<glyph d="M111 145H232L89 -150H-3Z" horiz-adv-x="222" unicode="‚"/>
			<glyph d="M133 715H225L110 419H-10ZM326 715H418L304 419H183Z" horiz-adv-x="415" unicode="“"/>
			<glyph d="M111 715H232L89 419H-3ZM305 715H426L283 419H191Z" horiz-adv-x="415" unicode="”"/>
			<glyph d="M96 145H216L73 -150H-19ZM289 145H410L267 -150H175Z" horiz-adv-x="444" unicode="„"/>
			<glyph d="M194 696H302L297 493L471 497V403L297 409L291 -48H206L198 409L29 403V497L198 493Z" horiz-adv-x="500" unicode="†"/>
			<glyph d="M194 696H302L297 507L471 512V418L297 424L293 326L297 224L471 230V136L297 140L302 -48H194L198 140L29 136V230L198 224L203 324L198 424L29 418V512L198 507Z" horiz-adv-x="500" unicode="‡"/>
			<glyph d="M73 438H320V191H73Z" horiz-adv-x="394" unicode="•"/>
			<glyph d="M285 132H417V0H285ZM516 132H648V0H516ZM51 132H183V0H51Z" horiz-adv-x="698" unicode="…"/>
			<glyph d="M206 704Q287 704 336 653T385 520Q385 436 336 385T206 334Q125 334 75 385T26 520Q26 603 75 653T206 704ZM611 695H723L212 0H100ZM206 625Q165 625 142 596T119 520Q119 470 142 442T206 414Q246 414 268 442T291 520Q291 569 268 597T206 625ZM621 359Q702 359 751 308T800 174Q800 91 751 39T621 -12Q540 -12 491 39T442 174Q442 258 491 308T621 359ZM1012 359Q1094 359 1143 308T1192 174Q1192 91 1142 39T1012 -12Q931 -12 882 39T833 174Q833 258 882 308T1012 359ZM621 279Q580 279 557 250T534 174Q534 124 557 96T621 68Q661 68 683 96T706 174Q706 223 683 251T621 279ZM1012 279Q971 279 948 251T926 174Q926 124 949 96T1012 68Q1052 68 1074 96T1097 174Q1097 223 1074 251T1012 279Z" horiz-adv-x="1218" unicode="‰"/>
			<glyph d="M150 413H259L130 234L259 55H150L22 234Z" horiz-adv-x="289" unicode="‹"/>
			<glyph d="M29 413H139L267 234L139 55H29L158 234Z" horiz-adv-x="289" unicode="›"/>
			<glyph d="M269 695H381L-131 0H-243Z" horiz-adv-x="137" unicode="⁄"/>
			<glyph d="M205 794Q281 794 325 732T370 560Q370 446 324 383T203 320Q126 320 82 383T38 560Q38 668 82 731T205 794ZM203 709Q169 709 151 669T133 561Q133 488 151 446T204 404Q237 404 256 446T275 558Q275 627 257 668T203 709Z" horiz-adv-x="408" unicode="⁰"/>
			<glyph d="M219 784H311V509H383V429H311V330H219V429H22V508ZM217 662Q214 658 206 644T189 620L113 509H219V662Z" horiz-adv-x="408" unicode="⁴"/>
			<glyph d="M81 782H336V696H166L161 616Q175 618 192 618Q269 618 310 581T352 477Q352 411 306 364T182 317Q103 317 57 340V426Q113 401 170 401Q214 401 235 421T257 471Q257 507 233 523T163 540Q115 540 68 531Z" horiz-adv-x="408" unicode="⁵"/>
			<glyph d="M196 782H297L189 607V605Q195 608 208 610T233 613Q290 613 328 574T366 474Q366 409 321 364T206 320Q135 320 90 362T45 474Q45 508 56 538T87 603ZM207 543Q176 543 157 523T139 474Q139 442 158 423T206 405Q237 405 254 424T271 474Q271 505 254 524T207 543Z" horiz-adv-x="408" unicode="⁶"/>
			<glyph d="M39 781H361V719L175 330H73L250 696H39Z" horiz-adv-x="408" unicode="⁷"/>
			<glyph d="M204 795Q270 795 312 759T354 669Q354 630 333 602T278 566V564Q366 540 366 455Q366 394 321 356T204 319Q131 319 86 356T41 455Q41 494 61 523T126 564V566Q94 577 74 603T54 670Q54 721 96 758T204 795ZM204 714Q180 714 164 699T149 662Q149 639 164 624T203 610Q228 610 243 624T259 662Q259 684 243 699T204 714ZM204 519Q173 519 155 504T138 462Q138 434 155 418T203 402Q234 402 252 418T270 462Q270 489 252 504T204 519Z" horiz-adv-x="408" unicode="⁸"/>
			<glyph d="M202 792Q274 792 319 749T364 637Q364 579 322 509L213 330H111L220 505L219 507Q213 504 200 501T175 499Q120 499 81 537T43 638Q43 704 88 748T202 792ZM201 707Q171 707 154 687T137 638Q137 608 154 588T201 569Q232 569 251 588T270 638Q270 671 250 689T201 707Z" horiz-adv-x="408" unicode="⁹"/>
			<glyph d="M205 364Q281 364 325 302T370 130Q370 16 324 -47T203 -110Q126 -110 82 -47T38 130Q38 238 82 301T205 364ZM203 279Q169 279 151 239T133 131Q133 58 151 16T204 -26Q237 -26 256 16T275 128Q275 197 257 238T203 279Z" horiz-adv-x="408" unicode="₀"/>
			<glyph d="M232 370H285V-100H191V256L64 193L65 289Z" horiz-adv-x="408" unicode="₁"/>
			<glyph d="M198 365Q275 365 312 328T350 231Q350 195 336 166T299 112T230 44L166 -14H355V-100H45V-22L185 109Q222 145 238 169T255 217Q255 246 237 264T182 282Q121 282 66 242V330Q116 365 198 365Z" horiz-adv-x="408" unicode="₂"/>
			<glyph d="M193 367Q263 367 300 333T337 249Q337 206 313 174T251 133V132Q300 123 323 96T347 22Q347 -35 300 -73T175 -112Q135 -112 100 -104T45 -85L46 2Q62 -8 97 -17T164 -27Q205 -27 226 -11T247 34Q247 64 221 77T147 90H99V173H141Q188 173 213 188T239 232Q239 257 220 270T168 284Q137 284 105 274T56 253V336Q79 349 114 358T193 367Z" horiz-adv-x="408" unicode="₃"/>
			<glyph d="M219 354H311V79H383V-1H311V-100H219V-1H22V78ZM217 232Q214 228 206 214T189 190L113 79H219V232Z" horiz-adv-x="408" unicode="₄"/>
			<glyph d="M81 352H336V266H166L161 186Q175 188 192 188Q269 188 310 151T352 47Q352 -19 306 -66T182 -113Q103 -113 57 -90V-4Q113 -29 170 -29Q214 -29 235 -9T257 41Q257 77 233 93T163 110Q115 110 68 101Z" horiz-adv-x="408" unicode="₅"/>
			<glyph d="M196 352H297L189 177V175Q195 178 208 180T233 183Q290 183 328 144T366 44Q366 -21 321 -65T206 -110Q135 -110 90 -67T45 44Q45 78 56 108T87 173ZM207 113Q176 113 157 93T139 44Q139 12 158 -6T206 -25Q237 -25 254 -5T271 44Q271 75 254 94T207 113Z" horiz-adv-x="408" unicode="₆"/>
			<glyph d="M39 351H361V289L175 -100H73L250 266H39Z" horiz-adv-x="408" unicode="₇"/>
			<glyph d="M204 365Q270 365 312 329T354 239Q354 200 333 172T278 136V134Q366 110 366 25Q366 -36 321 -73T204 -111Q131 -111 86 -73T41 25Q41 64 61 93T126 134V136Q94 147 74 173T54 240Q54 291 96 328T204 365ZM204 284Q180 284 164 269T149 232Q149 209 164 194T203 180Q228 180 243 194T259 232Q259 254 243 269T204 284ZM204 89Q173 89 155 74T138 32Q138 4 155 -12T203 -28Q234 -28 252 -11T270 32Q270 59 252 74T204 89Z" horiz-adv-x="408" unicode="₈"/>
			<glyph d="M202 362Q274 362 319 319T364 207Q364 149 322 79L213 -100H111L220 75L219 77Q213 74 200 71T175 69Q120 69 81 107T43 208Q43 274 88 318T202 362ZM201 277Q171 277 154 257T137 208Q137 178 154 158T201 139Q232 139 251 158T270 208Q270 241 250 259T201 277Z" horiz-adv-x="408" unicode="₉"/>
			<glyph d="M402 711Q470 711 522 695V582Q498 592 472 597T412 603Q290 603 256 479H463V390H241Q241 378 240 353Q240 318 242 303H463V214H257Q274 154 310 124T406 95Q466 95 522 118V8Q465 -14 387 -14Q279 -14 214 43T126 214H47V303H116Q116 319 115 352Q115 378 116 390H47V479H128Q153 594 224 652T402 711Z" unicode="€"/>
			<glyph d="M51 695H514V595H343Q367 582 383 558T405 504H514V404H411Q403 338 358 290T246 226L447 0H291L114 210H51V310H150Q206 310 241 335T286 404H51V504H286Q279 547 244 571T153 595H51Z" horiz-adv-x="560" unicode="₹"/>
			<glyph d="M123 695H246V532L402 625V513L246 420V341L402 433V321L246 229V112Q274 105 306 105Q366 105 411 136T473 227L575 187Q540 85 464 36T286 -12Q209 -12 123 16V159L42 111V223L123 272V351L42 303V415L123 463Z" horiz-adv-x="601" unicode="₺"/>
			<glyph d="M122 695H325Q460 695 520 644T581 493Q581 394 514 340T315 286H245V210H459V102H245V0H122V102H26V210H122V286H26V394H122ZM245 585V394H314Q383 394 414 418T446 492Q446 539 415 562T317 585Z" horiz-adv-x="620" unicode="₽"/>
			<glyph d="M311 712Q372 712 406 673T440 578Q440 504 397 430T271 279V156Q271 113 288 94T332 75Q368 75 415 115L458 52Q384 -14 301 -14Q227 -14 190 28T153 142V197L98 145L53 203L153 293V517Q153 607 196 659T311 712ZM315 628Q271 628 271 529V379Q314 436 333 479T353 569Q353 594 343 611T315 628Z" horiz-adv-x="533" unicode="ℓ"/>
			<glyph d="M905 710Q1002 710 1064 647T1127 487Q1127 389 1065 325T905 262Q807 262 745 325T683 487Q683 585 745 647T905 710ZM78 695H181L505 220H508Q505 270 505 328V695H622V0H511L195 473H193Q193 434 194 349V0H78ZM905 615Q851 615 819 579T787 487Q787 429 820 393T905 357Q957 357 989 393T1021 487Q1021 544 989 579T905 615ZM701 186H1113V86H701Z" horiz-adv-x="1178" unicode="№"/>
			<glyph d="M20 695H319V621H210V330H129V621H20ZM363 695H474L567 456H568L660 695H771V330H694L693 570H692L598 329H535L441 570H440V330H363Z" horiz-adv-x="814" unicode="™"/>
			<glyph d="M380 711Q531 711 623 622T715 392Q715 299 671 226T547 125V108H715V0H432V166Q506 183 549 242T592 386Q592 480 531 541T379 603Q289 603 227 542T166 386Q166 303 210 243T325 166V0H43V108H210V124Q131 154 87 226T44 388Q44 529 137 620T380 711Z" horiz-adv-x="759" unicode="Ω"/>
			<glyph d="M415 671Q572 671 682 570T793 324H185Q175 324 175 313V116Q222 65 285 37T415 10Q488 10 554 42T667 131H724Q668 63 586 26T415 -11Q260 -11 148 87T36 330Q36 474 146 572T415 671ZM415 650Q345 650 282 621T175 543V358Q175 352 177 349T185 347H646Q651 347 653 349T655 358V542Q611 593 547 621T415 650Z" horiz-adv-x="830" unicode="℮"/>
			<glyph d="M310 719Q428 719 494 635T560 415Q560 315 532 217T440 54T272 -12Q175 -12 116 48T57 204Q57 322 128 395T303 468Q347 468 382 452T441 410Q444 410 444 439Q444 520 408 572T301 624Q233 624 183 579L139 659Q174 690 216 704T310 719ZM319 378Q257 378 216 326T176 199Q176 147 202 114T275 82Q342 82 379 146T432 310Q414 340 385 359T319 378Z" horiz-adv-x="621" unicode="∂"/>
			<glyph d="M294 696H409L693 0H7ZM348 533L179 110H520L350 533Z" horiz-adv-x="701" unicode="∆"/>
			<glyph d="M72 734H673V-225H555V629H189V-225H72Z" horiz-adv-x="745" unicode="∏"/>
			<glyph d="M42 734H603V630H196L465 261L176 -121H622V-225H24V-142L329 260L42 648Z" horiz-adv-x="652" unicode="∑"/>
			<glyph d="M54 358H535V248H54Z" horiz-adv-x="589" unicode="−"/>
			<glyph d="M338 750H435L93 -49H-4Z" horiz-adv-x="415" unicode="∕"/>
			<glyph d="M56 382H188V250H56Z" horiz-adv-x="245" unicode="∙"/>
			<glyph d="M467 748H564L349 -113H258L110 209L54 179L17 253L161 328L293 35Z" horiz-adv-x="562" unicode="√"/>
			<glyph d="M220 451Q279 451 326 420T415 337Q456 387 502 419T608 451Q686 451 734 402T783 277Q783 200 734 150T609 100Q502 100 415 209Q371 159 325 129T223 100Q145 100 96 148T47 275Q47 352 95 401T220 451ZM223 365Q183 365 160 338T137 274Q137 235 161 210T225 186Q262 186 298 211T363 274Q333 313 296 339T223 365ZM605 365Q539 365 467 274Q534 185 607 185Q648 185 670 210T693 275Q693 314 670 339T605 365Z" horiz-adv-x="832" unicode="∞"/>
			<glyph d="M370 764Q403 764 432 752T470 718Q462 667 430 644Q410 644 391 664T349 667T325 592L326 545V96Q326 -16 318 -76T277 -179T167 -221Q134 -221 104 -208T68 -174Q77 -117 107 -101Q120 -101 128 -108T141 -118L153 -127Q170 -140 190 -120T210 -29L209 514Q209 654 247 709T370 764Z" horiz-adv-x="556" unicode="∫"/>
			<glyph d="M187 298Q244 298 297 264T392 230Q446 230 485 295L561 235Q527 184 483 156T387 129Q349 129 317 142T252 176T182 197Q131 197 90 132L13 192Q86 298 187 298ZM187 512Q244 512 297 478T392 444Q446 444 485 509L561 449Q527 398 483 370T387 343Q349 343 317 356T252 390T182 411Q131 411 90 346L13 406Q86 512 187 512Z" unicode="≈"/>
			<glyph d="M376 589H488L430 474H528V365H374L311 241H528V132H257L199 17H87L145 132H47V241H199L262 365H47V474H318Z" unicode="≠"/>
			<glyph d="M528 646V524L186 393L528 263V141L47 338V449ZM47 109H528V0H47Z" unicode="≤"/>
			<glyph d="M47 646L528 449V338L47 141V263L388 393L47 524ZM47 109H528V0H47Z" unicode="≥"/>
			<glyph d="M258 714H330L532 349L330 -17H258L57 349ZM294 601L161 349L294 95L428 349Z" horiz-adv-x="594" unicode="◊"/>
		</font>
</defs>
</svg>
