<?xml version="1.0" encoding="UTF-8"?>
<svg height="100%" width="100%" xmlns="http://www.w3.org/2000/svg">
	<defs>
		<font horiz-adv-x="419" id="web">
			<font-face alphabetic="0" ascent="993" descent="-267" font-family="" panose-1="2 11 5 6 2 2 4 2 2 4"/>
			<missing-glyph d="M59 700H305V0H59ZM109 650V50H255V650Z" horiz-adv-x="364"/>
			<glyph d="" horiz-adv-x="177" unicode=" "/>
			<glyph d="M62 695H123L119 193H66ZM54 85H128V0H54Z" horiz-adv-x="182" unicode="!"/>
			<glyph d="M45 714H105L98 425H51ZM165 714H225L218 425H171Z" horiz-adv-x="270" unicode="&quot;"/>
			<glyph d="M191 695H241L204 488H293L329 695H379L343 488H427V432H333L303 262H392V206H293L257 0H207L243 206H154L118 0H68L104 206H19V262H114L144 432H55V488H154ZM194 432L164 262H253L282 432Z" horiz-adv-x="446" unicode="#"/>
			<glyph d="M195 788H238V688Q271 687 305 680T359 666V602Q336 612 303 620T238 629V367Q293 339 324 317T373 262T392 179Q392 114 352 66T238 9V-96H195V7Q155 8 115 17T52 39V106Q79 90 117 78T195 65V319Q141 347 108 371T56 428T37 510Q37 582 79 629T195 686ZM195 625Q146 618 122 587T98 511Q98 468 122 441T195 388ZM238 297V68Q285 74 308 104T332 176Q332 220 310 244T238 297Z" unicode="$"/>
			<glyph d="M156 707Q214 707 248 661T282 524Q282 435 247 387T156 339Q97 339 63 386T29 524Q29 615 63 661T156 707ZM462 695H518L137 0H82ZM156 658Q120 658 100 623T80 524Q80 457 100 422T156 387Q191 387 211 422T231 524Q231 588 211 623T156 658ZM444 357Q503 357 537 311T571 173Q571 84 536 36T444 -12Q385 -12 351 35T317 173Q317 264 352 310T444 357ZM444 308Q409 308 388 273T368 173Q368 107 388 72T444 37Q479 37 499 72T520 173Q520 237 499 272T444 308Z" horiz-adv-x="599" unicode="%"/>
			<glyph d="M263 714Q318 714 352 679T386 579Q386 513 351 467T250 379L366 198Q385 235 432 366H494Q439 220 401 147L499 0H427L365 94Q303 -12 198 -12Q124 -12 82 36T40 171Q40 247 73 298T175 396Q149 441 136 479T123 563Q123 634 160 674T263 714ZM258 660Q223 660 202 634T181 560Q181 521 191 493T224 424Q276 459 302 491T328 575Q328 614 308 637T258 660ZM202 348Q148 313 125 273T102 173Q102 115 129 79T203 44Q246 44 277 69T333 143Z" horiz-adv-x="518" unicode="&amp;"/>
			<glyph d="M45 714H105L98 425H51Z" horiz-adv-x="150" unicode="'"/>
			<glyph d="M147 770H209Q154 672 122 553T91 305Q91 173 123 56T209 -160H147Q94 -67 64 53T35 305Q35 436 64 555T147 770Z" horiz-adv-x="226" unicode="("/>
			<glyph d="M17 770H79Q132 677 161 557T191 305Q191 174 161 54T79 -160H17Q72 -62 103 57T135 305Q135 437 103 554T17 770Z" horiz-adv-x="226" unicode=")"/>
			<glyph d="M169 707H222L215 563L349 612L367 562L229 524L319 409L274 379L194 500L116 377L69 409L162 524L22 561L38 616L175 563Z" horiz-adv-x="389" unicode="*"/>
			<glyph d="M183 487H236V329H394V275H236V117H183V275H25V329H183Z" unicode="+"/>
			<glyph d="M74 85H138L55 -166H2Z" horiz-adv-x="175" unicode=","/>
			<glyph d="M34 289H256V228H34Z" horiz-adv-x="290" unicode="-"/>
			<glyph d="M51 85H124V0H51Z" horiz-adv-x="175" unicode="."/>
			<glyph d="M234 750H286L40 -49H-13Z" horiz-adv-x="275" unicode="/"/>
			<glyph d="M212 707Q306 707 350 621T394 350Q394 180 348 84T209 -12Q117 -12 70 75T24 352Q24 707 212 707ZM211 645Q153 645 121 575T89 365Q89 195 120 122T209 50Q329 50 329 349Q329 504 301 574T211 645Z" unicode="0"/>
			<glyph d="M232 713H270V0H205V628L70 535V607Z" unicode="1"/>
			<glyph d="M195 707Q278 707 325 660T372 527Q372 460 341 396T235 230L115 65H376V0H41V64L193 272Q255 356 280 409T305 518Q305 577 275 612T184 647Q148 647 115 636T60 610V674Q84 688 119 697T195 707Z" unicode="2"/>
			<glyph d="M171 707Q264 707 309 657T355 527Q355 462 321 416T235 354V352Q294 338 329 297T365 184Q365 96 310 42T155 -12Q120 -12 90 -6T42 9V73Q61 63 90 55T149 48Q219 48 257 82T296 182Q296 251 257 285T130 319H99V381H127Q205 381 246 418T287 520Q287 578 256 612T157 646Q127 646 98 639T54 625V687Q110 707 171 707Z" unicode="3"/>
			<glyph d="M253 695H320V220H401V163H320V0H260V163H11V218ZM257 592Q249 568 225 519L74 220H260V592Z" unicode="4"/>
			<glyph d="M81 695H351V635H138L127 412Q153 420 186 420Q276 420 323 365T371 216Q371 113 315 50T162 -12Q128 -12 98 -6T51 9V75Q69 64 98 56T158 48Q229 48 266 92T304 211Q304 363 160 363Q113 363 65 347Z" unicode="5"/>
			<glyph d="M215 695H287L154 405L155 404Q165 412 187 419T230 427Q304 427 345 371T386 213Q386 115 340 51T207 -12Q129 -12 82 44T36 204Q36 261 47 305T85 407ZM217 371Q162 371 132 328T102 208Q102 128 131 87T209 47Q260 47 289 90T319 210Q319 371 217 371Z" unicode="6"/>
			<glyph d="M26 695H384V645L159 0H90L314 636H26Z" unicode="7"/>
			<glyph d="M210 707Q286 707 327 660T369 526Q369 402 288 361V359Q338 339 361 297T385 185Q385 89 337 38T208 -12Q126 -12 79 37T33 180Q33 322 129 358V360Q49 401 49 523Q49 609 93 658T210 707ZM211 649Q167 649 140 615T114 521Q114 457 139 423T208 389Q254 389 280 423T306 521Q306 582 280 615T211 649ZM208 326Q157 326 128 291T99 185Q99 118 128 81T209 45Q261 45 290 81T319 185Q319 256 289 291T208 326Z" unicode="8"/>
			<glyph d="M212 707Q290 707 336 651T383 493Q383 437 370 389T331 283L203 0H132L264 290L263 291Q253 283 233 276T192 269Q117 269 75 324T33 483Q33 581 79 644T212 707ZM210 648Q158 648 128 604T99 485Q99 406 127 366T206 326Q260 326 288 369T317 488Q317 569 288 608T210 648Z" unicode="9"/>
			<glyph d="M51 85H124V0H51ZM51 476H124V391H51Z" horiz-adv-x="175" unicode=":"/>
			<glyph d="M51 476H124V391H51ZM74 85H138L55 -166H2Z" horiz-adv-x="175" unicode=";"/>
			<glyph d="M379 485V426L103 298V296L379 169V110L41 268V326Z" unicode="&lt;"/>
			<glyph d="M25 416H394V362H25ZM25 239H394V185H25Z" unicode="="/>
			<glyph d="M41 485L379 327V269L41 110V169L317 297V299L41 426Z" unicode="&gt;"/>
			<glyph d="M138 707Q220 707 262 661T305 535Q305 484 287 442T241 367T165 289V193H108V315Q156 358 182 387T225 451T242 529Q242 584 214 617T129 650Q100 650 74 643T34 630V688Q51 695 78 701T138 707ZM100 85H173V0H100Z" horiz-adv-x="328" unicode="?"/>
			<glyph d="M333 715Q466 715 540 624T615 366Q615 250 573 189T468 129Q443 129 429 135T404 152Q390 142 367 136T319 130Q250 130 213 180T176 323Q176 426 222 480T352 534Q392 534 439 519V221Q439 181 472 181Q508 181 533 225T559 366Q559 508 498 585T330 662Q213 662 145 576T77 330Q77 170 143 84T349 -2Q385 -2 423 4T478 19V-33Q459 -40 421 -47T341 -54Q178 -54 99 49T21 330Q21 457 60 543T170 672T333 715ZM346 484Q291 484 260 443T230 326Q230 256 257 218T334 181Q365 181 387 193V479Q369 484 346 484Z" horiz-adv-x="636" unicode="@"/>
			<glyph d="M212 695H287L487 0H419L359 215H135L72 0H5ZM246 610L151 273H342L247 610Z" horiz-adv-x="492" unicode="A"/>
			<glyph d="M62 695H222Q315 695 362 651T409 526Q409 460 377 418T294 365V363Q354 354 391 313T428 196Q428 109 373 54T216 0H62ZM125 636V389H202Q267 389 304 422T342 518Q342 576 309 606T214 636ZM125 330V59H212Q284 59 322 95T361 197Q361 330 202 330Z" horiz-adv-x="463" unicode="B"/>
			<glyph d="M321 707Q398 707 440 686V617Q388 645 323 645Q222 645 165 566T109 350Q109 214 160 132T317 50Q385 50 437 76V13Q416 3 382 -4T309 -12Q180 -12 111 82T43 347Q43 467 79 547T179 667T321 707Z" horiz-adv-x="464" unicode="C"/>
			<glyph d="M62 695H205Q490 695 490 355Q490 189 415 94T201 0H62ZM125 634V62H199Q310 62 367 137T424 350Q424 503 365 567T204 633Z" horiz-adv-x="532" unicode="D"/>
			<glyph d="M62 695H373V634H125V384H351V323H125V61H384V0H62Z" horiz-adv-x="418" unicode="E"/>
			<glyph d="M62 695H374V634H125V360H359V300H125V0H62Z" horiz-adv-x="400" unicode="F"/>
			<glyph d="M333 707Q373 707 407 700T462 685V616Q404 645 333 645Q231 645 170 569T109 348Q109 204 163 126T315 49Q368 49 410 66V300H280V361H472V23Q444 9 403 -1T314 -12Q183 -12 113 79T43 344Q43 464 79 545T181 667T333 707Z" horiz-adv-x="524" unicode="G"/>
			<glyph d="M62 695H125V389H406V695H469V0H406V328H125V0H62Z" horiz-adv-x="531" unicode="H"/>
			<glyph d="M62 695H125V0H62Z" horiz-adv-x="188" unicode="I"/>
			<glyph d="M240 695H302V203Q302 111 254 49T114 -12Q48 -12 11 10V75Q26 65 52 57T108 50Q170 50 205 90T240 207Z" horiz-adv-x="362" unicode="J"/>
			<glyph d="M62 695H125V353H126L362 695H439L195 351L441 0H363L126 346H125V0H62Z" horiz-adv-x="452" unicode="K"/>
			<glyph d="M62 695H125V63H382V0H62Z" horiz-adv-x="394" unicode="L"/>
			<glyph d="M62 695H138L322 146H324L511 695H584V0H526V563H524L343 26H303L121 562H120V0H62Z" horiz-adv-x="646" unicode="M"/>
			<glyph d="M62 695H122L426 134H429Q428 171 428 256V695H487V0H430L122 563H120Q121 508 121 393V0H62Z" horiz-adv-x="549" unicode="N"/>
			<glyph d="M297 707Q420 707 483 612T547 347Q547 238 516 157T428 32T295 -12Q172 -12 107 84T43 347Q43 459 74 540T162 664T297 707ZM295 645Q239 645 197 610T131 508T108 347Q108 205 158 128T294 51Q350 51 392 85T457 187T481 347Q481 491 432 568T295 645Z" horiz-adv-x="589" unicode="O"/>
			<glyph d="M62 695H199Q314 695 367 638T420 483Q420 375 361 311T195 248H125V0H62ZM125 633V310H194Q272 310 311 354T351 480Q351 554 313 593T198 633Z" horiz-adv-x="452" unicode="P"/>
			<glyph d="M297 707Q420 707 483 612T547 347Q547 247 521 170T446 48L524 -85L474 -114L399 14Q352 -12 295 -12Q172 -12 107 84T43 347Q43 459 74 540T162 664T297 707ZM295 645Q239 645 197 610T131 508T108 347Q108 205 158 128T293 51Q335 51 367 70L286 207L335 236L410 106Q444 142 462 204T481 347Q481 491 432 568T295 645Z" horiz-adv-x="589" unicode="Q"/>
			<glyph d="M62 695H214Q317 695 369 643T421 494Q421 414 383 365T288 298L443 0H367L223 284H125V0H62ZM125 637V344H206Q277 344 315 385T354 493Q354 563 317 600T210 637Z" horiz-adv-x="465" unicode="R"/>
			<glyph d="M245 707Q281 707 313 701T366 686V618Q306 645 245 645Q179 645 143 610T108 522Q108 484 122 459T161 417T231 375Q293 342 324 319T374 260T392 169Q392 120 369 79T300 13T190 -12Q148 -12 110 -3T45 20V90Q116 49 191 49Q257 49 291 83T325 166Q325 204 311 228T272 269T193 316Q138 347 106 372T57 432T40 520Q40 604 95 655T245 707Z" horiz-adv-x="422" unicode="S"/>
			<glyph d="M9 695H400V634H236V0H173V634H9Z" horiz-adv-x="408" unicode="T"/>
			<glyph d="M60 695H123V220Q123 133 158 92T278 51Q333 51 405 67V695H467V21Q366 -12 271 -12Q161 -12 110 42T60 213Z" horiz-adv-x="529" unicode="U"/>
			<glyph d="M5 695H73L234 98H235L401 695H469L267 -5H201Z" horiz-adv-x="474" unicode="V"/>
			<glyph d="M17 695H81L179 214Q192 141 196 104H197Q203 145 221 213L345 695H400L509 210Q524 144 530 99H531Q537 138 553 212L655 695H719L561 -5H500L399 431Q378 524 370 581H368Q349 484 335 429L225 -5H163Z" horiz-adv-x="739" unicode="W"/>
			<glyph d="M12 695H85L231 397L379 695H452L273 347L449 0H374L229 295L84 0H11L189 347Z" horiz-adv-x="460" unicode="X"/>
			<glyph d="M-4 695H67L212 332L362 695H431L243 252V0H180V252Z" horiz-adv-x="424" unicode="Y"/>
			<glyph d="M43 695H430V645L105 62H440V0H26V51L350 634H43Z" horiz-adv-x="465" unicode="Z"/>
			<glyph d="M39 770H188V718H92V-108H188V-160H39Z" horiz-adv-x="219" unicode="["/>
			<glyph d="M-13 750H40L286 -49H234Z" horiz-adv-x="275" unicode="\"/>
			<glyph d="M31 770H180V-160H31V-108H127V718H31Z" horiz-adv-x="219" unicode="]"/>
			<glyph d="M180 691H239L393 377H333L210 627H208L86 377H26Z" unicode="^"/>
			<glyph d="M-10 -143H368V-180H-10Z" horiz-adv-x="358" unicode="_"/>
			<glyph d="M30 711H93L190 561H134Z" horiz-adv-x="220" unicode="`"/>
			<glyph d="M195 486Q272 486 308 445T344 328V23Q320 10 282 0T203 -10Q124 -10 82 28T40 137Q40 205 83 245T207 286Q252 286 284 278V320Q284 376 260 403T185 431Q153 431 123 422T73 401V458Q92 469 125 477T195 486ZM211 236Q157 236 129 211T101 140Q101 95 128 69T208 43Q229 43 250 47T284 58V227Q248 236 211 236Z" horiz-adv-x="399" unicode="a"/>
			<glyph d="M58 738H118V465Q160 486 219 486Q303 486 352 426T402 247Q402 126 344 58T184 -10Q148 -10 114 -2T58 15ZM207 430Q181 430 156 423T118 409V60Q128 55 149 51T192 47Q260 47 300 96T340 245Q340 335 306 382T207 430Z" horiz-adv-x="437" unicode="b"/>
			<glyph d="M244 486Q282 486 323 475V415Q310 421 289 425T246 430Q178 430 137 380T97 239Q97 142 137 94T245 46Q270 46 292 51T328 64V8Q292 -10 238 -10Q143 -10 89 55T35 236Q35 316 62 372T136 457T244 486Z" horiz-adv-x="352" unicode="c"/>
			<glyph d="M319 738H379V25Q349 10 316 0T239 -10Q138 -10 86 53T35 232Q35 314 62 371T137 458T246 487Q290 487 319 476ZM248 431Q181 431 139 381T97 234Q97 148 132 97T244 46Q285 46 319 62V419Q308 424 289 427T248 431Z" horiz-adv-x="437" unicode="d"/>
			<glyph d="M217 486Q379 486 379 274Q379 247 377 223H98Q98 138 136 92T247 46Q311 46 357 74V18Q336 7 304 -1T236 -10Q140 -10 87 52T35 231Q35 354 83 420T217 486ZM216 433Q163 433 133 391T99 272H318Q318 433 216 433Z" horiz-adv-x="408" unicode="e"/>
			<glyph d="M214 746Q244 746 264 740V685Q241 690 222 690Q179 690 160 665T141 588V476H249V421H141V0H81V421H7V476H81V592Q81 668 115 707T214 746Z" horiz-adv-x="254" unicode="f"/>
			<glyph d="M256 486Q322 486 379 462V-41Q379 -142 326 -195T177 -249Q144 -249 113 -242T62 -226V-165Q82 -175 111 -183T175 -191Q243 -191 281 -153T319 -39V11Q304 3 278 -3T225 -10Q130 -10 82 55T35 227Q35 350 93 418T256 486ZM248 430Q179 430 138 379T97 230Q97 139 132 92T236 46Q262 46 284 52T319 66V416Q308 421 289 425T248 430Z" horiz-adv-x="437" unicode="g"/>
			<glyph d="M58 738H118V462Q170 486 234 486Q307 486 344 446T382 329V0H322V317Q322 430 220 430Q166 430 118 406V0H58Z" horiz-adv-x="439" unicode="h"/>
			<glyph d="M53 667H124V591H53ZM58 476H118V0H58Z" horiz-adv-x="177" unicode="i"/>
			<glyph d="M53 667H124V591H53ZM58 476H118V-81Q118 -158 85 -200T-15 -243Q-46 -243 -66 -237V-180Q-60 -183 -48 -185T-24 -187Q58 -187 58 -78Z" horiz-adv-x="177" unicode="j"/>
			<glyph d="M58 738H118V255H120L300 476H374L188 252L373 0H300L120 249H118V0H58Z" horiz-adv-x="375" unicode="k"/>
			<glyph d="M58 738H118V0H58Z" horiz-adv-x="177" unicode="l"/>
			<glyph d="M210 486Q288 486 325 453Q393 486 465 486Q549 486 586 445T623 325V0H563V317Q563 372 540 401T462 430Q412 430 358 404Q371 375 371 329V0H311V319Q311 376 287 403T208 430Q159 430 118 414V0H58V456Q133 486 210 486Z" horiz-adv-x="679" unicode="m"/>
			<glyph d="M216 486Q302 486 342 445T382 323V0H322V316Q322 430 214 430Q187 430 160 425T118 413V0H58V455Q89 468 131 477T216 486Z" horiz-adv-x="439" unicode="n"/>
			<glyph d="M226 486Q315 486 364 425T413 240Q413 118 362 54T224 -10Q134 -10 84 53T35 240Q35 364 86 425T226 486ZM226 430Q165 430 131 382T97 240Q97 143 130 94T224 46Q283 46 317 95T351 240Q351 333 319 381T226 430Z" horiz-adv-x="448" unicode="o"/>
			<glyph d="M198 486Q299 486 350 422T402 245Q402 163 374 105T299 19T191 -10Q147 -10 118 1V-235H58V451Q123 486 198 486ZM193 431Q152 431 118 415V58Q129 53 148 49T189 46Q257 46 298 95T340 242Q340 329 304 380T193 431Z" horiz-adv-x="437" unicode="p"/>
			<glyph d="M253 486Q289 486 323 479T379 462V-235H319V11Q272 -10 218 -10Q135 -10 85 50T35 229Q35 352 92 419T253 486ZM245 430Q177 430 137 380T97 232Q97 141 131 93T230 46Q256 46 280 53T319 68V416Q309 422 288 426T245 430Z" horiz-adv-x="437" unicode="q"/>
			<glyph d="M193 486Q232 486 258 482V424Q234 428 197 428Q175 428 152 424T117 415V0H58V463Q85 473 120 479T193 486Z" horiz-adv-x="270" unicode="r"/>
			<glyph d="M180 486Q231 486 269 472V411Q225 431 183 431Q140 431 118 410T96 356Q96 322 114 302T176 261Q218 239 240 222T274 181T286 117Q286 63 249 25T142 -12Q112 -12 84 -5T38 12V75Q90 44 140 44Q183 44 204 64T226 116Q226 140 217 155T191 182T140 212Q84 241 59 271T34 355Q34 415 73 450T180 486Z" horiz-adv-x="316" unicode="s"/>
			<glyph d="M76 617H136V476H260V421H136V133Q136 85 155 65T209 45Q228 45 260 53V1Q231 -10 197 -10Q76 -10 76 123V421H8V476H76Z" horiz-adv-x="267" unicode="t"/>
			<glyph d="M57 476H117V160Q117 46 225 46Q252 46 278 51T321 63V476H381V21Q350 8 308 -1T223 -10Q137 -10 97 31T57 153Z" horiz-adv-x="439" unicode="u"/>
			<glyph d="M0 476H64L144 194L167 105L176 66H178Q197 142 213 194L300 476H363L214 0H140Z" horiz-adv-x="363" unicode="v"/>
			<glyph d="M0 476H62L135 159Q144 124 150 83H153Q161 131 175 175L260 476H315L394 160Q400 137 405 109Q411 81 410 83H413Q427 151 430 163L516 476H577L444 0H379L307 275Q289 350 284 383H282Q269 318 256 275L178 0H115Z" horiz-adv-x="575" unicode="w"/>
			<glyph d="M9 476H78L178 285L280 476H348L219 241L353 0H282L178 195L74 0H6L137 240Z" horiz-adv-x="356" unicode="x"/>
			<glyph d="M0 476H64L141 205Q161 133 175 67H178Q186 102 207 172Q210 182 212 190T217 206L300 476H363L134 -235H71L144 -12Z" horiz-adv-x="363" unicode="y"/>
			<glyph d="M31 476H324V420L93 55H329V0H18V49L252 421H31Z" horiz-adv-x="347" unicode="z"/>
			<glyph d="M213 770V718Q171 718 155 693T140 612V427Q140 372 122 343T80 305V303Q105 293 122 263T140 176V-9Q140 -60 157 -84T213 -108V-160Q145 -160 115 -125T86 -13V176Q86 222 69 249T19 278V331Q86 334 86 427V616Q86 697 118 733T213 770Z" horiz-adv-x="230" unicode="{"/>
			<glyph d="M81 749H121V-251H81Z" horiz-adv-x="202" unicode="|"/>
			<glyph d="M17 770Q85 770 114 735T144 623V434Q144 388 161 360T211 332V279Q144 276 144 183V-6Q144 -87 112 -123T17 -160V-108Q59 -108 74 -83T90 -2V183Q90 238 107 267T150 305V307Q125 317 107 347T90 434V619Q90 670 73 694T17 718Z" horiz-adv-x="230" unicode="}"/>
			<glyph d="M131 356Q178 356 220 327Q239 314 254 308T289 303Q331 303 362 353L403 321Q355 248 286 248Q263 248 243 255T198 279Q176 292 161 297T128 302Q86 302 55 253L15 286Q40 321 67 338T131 356Z" unicode="~"/>
			<glyph d="" horiz-adv-x="189" unicode=" "/>
			<glyph d="M63 283H116L120 -219H59ZM54 476H128V391H54Z" horiz-adv-x="182" unicode="¡"/>
			<glyph d="M244 714H286V603Q309 602 329 598T361 591V533Q316 547 286 547V157Q310 158 332 163T367 175V119Q355 113 333 108T286 102V-14H244V103Q161 113 115 178T69 350Q69 459 117 524T244 601ZM244 543Q190 532 160 483T130 354Q130 269 161 220T244 160Z" unicode="¢"/>
			<glyph d="M312 706Q358 706 390 696V636Q357 647 315 647Q248 647 215 607T182 485V370H343V317H182V227Q182 162 166 120T126 58H390V0H37V58Q71 64 94 100T118 220V317H43V370H118V493Q118 594 166 650T312 706Z" unicode="£"/>
			<glyph d="M56 504L116 444Q166 479 219 479Q273 479 321 444L380 504L423 463L364 403Q396 359 396 302Q396 248 363 198L423 138L380 96L320 156Q297 141 270 132T219 123Q162 123 117 157L56 96L13 138L74 200Q42 245 42 302Q42 361 74 403L13 463ZM219 422Q168 422 134 387T100 303Q100 252 134 216T219 180Q269 180 303 216T338 303Q338 353 303 387T219 422Z" horiz-adv-x="436" unicode="¤"/>
			<glyph d="M20 695H89L209 412L331 695H398L239 346V344H358V292H239V177H358V126H239V0H178V126H57V177H178V292H57V344H178V346Z" unicode="¥"/>
			<glyph d="M81 752H121V337H81ZM81 161H121V-254H81Z" horiz-adv-x="202" unicode="¦"/>
			<glyph d="M221 712Q258 712 296 703V650Q267 662 224 662Q174 662 150 634T126 571Q126 532 145 507T212 445Q258 409 283 373T309 285Q309 250 292 218T244 165Q270 140 283 112T296 47Q296 -20 254 -60T147 -100Q103 -100 67 -88V-36Q81 -42 102 -46T144 -50Q194 -50 218 -22T242 41Q242 79 223 104T156 167Q109 203 83 239T58 327Q58 363 75 395T124 447Q98 472 84 500T71 565Q71 634 113 673T221 712ZM159 417Q113 385 113 331Q113 289 136 260T209 195Q255 228 255 281Q255 322 231 351T159 417Z" horiz-adv-x="363" unicode="§"/>
			<glyph d="M30 643H88V575H30ZM158 643H215V575H158Z" horiz-adv-x="245" unicode="¨"/>
			<glyph d="M389 687Q482 687 560 641T685 517T731 347Q731 254 685 176T560 53T389 8Q296 8 217 53T93 176T47 347Q47 439 93 517T217 641T389 687ZM389 637Q310 637 243 598T138 492T99 347Q99 268 138 201T243 96T389 57Q468 57 534 96T640 201T679 347Q679 426 640 492T534 598T389 637ZM411 548Q473 548 519 529V478Q466 500 412 500Q339 500 299 458T260 350Q260 279 301 238T409 198Q444 198 469 205T520 225V174Q498 161 472 154T404 147Q347 147 301 171T230 241T204 347Q204 439 259 493T411 548Z" horiz-adv-x="778" unicode="©"/>
			<glyph d="M138 717Q192 717 216 690T240 611V399Q195 379 141 379Q88 379 60 406T32 480Q32 527 61 554T145 582Q159 582 172 579T189 577V604Q189 671 127 671Q94 671 56 651V698Q69 705 91 711T138 717ZM149 542Q117 542 100 526T83 482Q83 454 99 438T145 422Q172 422 189 429V537Q172 542 149 542Z" horiz-adv-x="284" unicode="ª"/>
			<glyph d="M118 413H178L85 234L178 55H118L26 234ZM256 413H316L223 234L316 55H256L164 234Z" horiz-adv-x="341" unicode="«"/>
			<glyph d="M25 374H394V140H341V320H25Z" unicode="¬"/>
			<glyph d="M34 289H256V228H34Z" horiz-adv-x="290" unicode="­"/>
			<glyph d="M262 699Q320 699 368 670T446 591T475 483Q475 425 446 376T368 298T262 269Q203 269 153 298T75 376T46 483Q46 542 75 591T153 670T262 699ZM262 657Q214 657 174 633T110 570T87 483Q87 437 110 397T174 333T262 310Q309 310 348 333T411 397T434 483Q434 530 411 570T348 633T262 657ZM182 603H264Q355 603 355 530Q355 504 340 485T299 458L362 366H312L260 450H222V366H182ZM222 567V484H264Q285 484 298 495T312 526Q312 545 300 556T265 567Z" horiz-adv-x="521" unicode="®"/>
			<glyph d="M30 628H206V579H30Z" horiz-adv-x="236" unicode="¯"/>
			<glyph d="M196 709Q253 709 292 670T331 575Q331 518 292 479T197 440Q139 440 100 479T61 575Q61 632 100 670T196 709ZM197 665Q161 665 134 638T108 575Q108 537 133 511T196 485Q233 485 258 511T284 575Q284 612 258 638T197 665Z" horiz-adv-x="392" unicode="°"/>
			<glyph d="M183 540H236V382H394V329H236V171H183V329H25V382H183ZM25 54H394V0H25Z" unicode="±"/>
			<glyph d="M139 797Q198 797 229 766T261 677Q261 630 239 587T168 482L94 382H264V330H32V380L134 515Q172 566 189 600T206 669Q206 706 187 726T129 747Q104 747 82 740T45 724V775Q89 797 139 797Z" horiz-adv-x="303" unicode="²"/>
			<glyph d="M123 795Q187 795 218 761T249 676Q249 633 227 603T169 563V561Q256 540 256 451Q256 393 218 356T109 320Q85 320 64 324T32 334V385Q44 379 64 374T103 369Q150 369 174 390T199 451Q199 493 173 513T93 534H71V585H90Q141 585 166 607T192 669Q192 704 171 724T109 745Q89 745 69 741T39 732V781Q79 795 123 795Z" horiz-adv-x="303" unicode="³"/>
			<glyph d="M127 711H190L86 561H30Z" horiz-adv-x="220" unicode="´"/>
			<glyph d="M58 476H118V164Q118 100 142 72T218 45Q260 45 298 57V476H358V14Q288 -12 221 -12Q146 -12 119 27V-251H58Z" horiz-adv-x="417" unicode="µ"/>
			<glyph d="M178 695H339V-63H295V647H215V-63H171V379Q110 379 72 421T35 533Q35 614 74 654T178 695Z" horiz-adv-x="403" unicode="¶"/>
			<glyph d="M51 358H124V273H51Z" horiz-adv-x="175" unicode="·"/>
			<glyph d="M90 0H118L103 -57Q135 -60 156 -78T179 -135Q179 -174 153 -198T85 -223Q55 -223 30 -213V-173Q32 -174 47 -179T82 -184Q110 -184 124 -171T139 -134Q139 -92 82 -89L62 -88Z" horiz-adv-x="209" unicode="¸"/>
			<glyph d="M162 797H193V330H140V728L47 666V725Z" horiz-adv-x="303" unicode="¹"/>
			<glyph d="M158 719Q218 719 252 676T287 550Q287 468 252 424T158 380Q97 380 62 423T27 550Q27 634 62 676T158 719ZM158 671Q122 671 102 640T82 550Q82 489 102 458T158 428Q193 428 213 458T233 550Q233 609 213 640T158 671Z" horiz-adv-x="315" unicode="º"/>
			<glyph d="M25 413H85L177 234L85 55H25L118 234ZM163 413H223L315 234L223 55H163L256 234Z" horiz-adv-x="341" unicode="»"/>
			<glyph d="M149 697H180V230H127V628L34 566V625ZM477 695H536L170 0H111ZM520 455H578V146H633V101H578V0H528V101H361V146ZM526 376Q522 362 504 326L412 146H528V376Z" horiz-adv-x="666" unicode="¼"/>
			<glyph d="M149 697H180V230H127V628L34 566V625ZM477 695H536L170 0H111ZM534 467Q593 467 624 436T656 347Q656 300 634 257T563 152L489 52H659V0H427V50L529 185Q567 236 584 270T601 339Q601 376 582 396T524 417Q499 417 477 410T440 394V445Q484 467 534 467Z" horiz-adv-x="694" unicode="½"/>
			<glyph d="M116 695Q180 695 211 661T242 576Q242 533 220 503T162 463V461Q249 440 249 351Q249 293 211 256T102 220Q78 220 57 224T25 234V285Q37 279 57 274T96 269Q143 269 167 290T192 351Q192 393 166 413T86 434H64V485H83Q134 485 159 507T185 569Q185 604 164 624T102 645Q82 645 62 641T32 632V681Q72 695 116 695ZM508 695H568L202 0H142ZM552 455H610V146H665V101H610V0H560V101H393V146ZM558 376Q554 362 536 326L444 146H560V376Z" horiz-adv-x="696" unicode="¾"/>
			<glyph d="M173 283H230V161Q182 118 155 88T112 24T96 -53Q96 -108 124 -141T209 -174Q238 -174 264 -167T304 -154V-212Q287 -219 259 -225T200 -231Q118 -231 75 -185T33 -59Q33 -8 50 33T96 108T173 187ZM165 476H238V391H165Z" horiz-adv-x="328" unicode="¿"/>
			<glyph d="M212 695H287L487 0H419L359 215H135L72 0H5ZM246 610L151 273H342L247 610ZM145 895H209L292 764H238Z" horiz-adv-x="492" unicode="À"/>
			<glyph d="M212 695H287L487 0H419L359 215H135L72 0H5ZM246 610L151 273H342L247 610ZM291 895H355L262 764H208Z" horiz-adv-x="492" unicode="Á"/>
			<glyph d="M212 695H287L487 0H419L359 215H135L72 0H5ZM246 610L151 273H342L247 610ZM228 903H269L366 760H315L249 860L182 760H130Z" horiz-adv-x="492" unicode="Â"/>
			<glyph d="M212 695H287L487 0H419L359 215H135L72 0H5ZM246 610L151 273H342L247 610ZM196 862Q224 862 255 833Q285 805 302 805Q317 805 326 821T337 859H377Q372 815 353 789T301 763Q284 763 269 771T238 794Q225 806 215 812T195 819Q179 819 170 803T159 765H119Q123 808 141 835T196 862Z" horiz-adv-x="492" unicode="Ã"/>
			<glyph d="M212 695H287L487 0H419L359 215H135L72 0H5ZM246 610L151 273H342L247 610ZM155 835H213V767H155ZM283 835H340V767H283Z" horiz-adv-x="492" unicode="Ä"/>
			<glyph d="M212 695H287L487 0H419L359 215H135L72 0H5ZM246 610L151 273H342L247 610ZM266 933Q308 933 338 903T368 832Q368 790 338 760T266 730Q225 730 195 760T165 832Q165 874 195 903T266 933ZM266 893Q241 893 223 875T205 832Q205 807 223 788T266 770Q293 770 310 788T328 832Q328 859 311 876T266 893Z" horiz-adv-x="492" unicode="Å"/>
			<glyph d="M293 695H646V634H398V384H624V323H398V61H658V0H336V215H160L69 0H-2ZM333 633L186 275H336V633Z" horiz-adv-x="692" unicode="Æ"/>
			<glyph d="M321 707Q398 707 440 686V617Q388 645 323 645Q222 645 165 566T109 350Q109 214 160 132T317 50Q385 50 437 76V13Q416 3 382 -4T309 -12H307L295 -57Q327 -60 348 -78T371 -135Q371 -174 345 -198T277 -223Q247 -223 222 -213V-173Q224 -174 239 -179T274 -184Q302 -184 316 -171T331 -134Q331 -92 274 -89L254 -88L279 -11Q164 0 103 93T43 347Q43 467 79 547T179 667T321 707Z" horiz-adv-x="464" unicode="Ç"/>
			<glyph d="M62 695H373V634H125V384H351V323H125V61H384V0H62ZM125 895H189L272 764H218Z" horiz-adv-x="418" unicode="È"/>
			<glyph d="M62 695H373V634H125V384H351V323H125V61H384V0H62ZM271 895H335L242 764H188Z" horiz-adv-x="418" unicode="É"/>
			<glyph d="M62 695H373V634H125V384H351V323H125V61H384V0H62ZM208 903H249L346 760H295L229 860L162 760H110Z" horiz-adv-x="418" unicode="Ê"/>
			<glyph d="M62 695H373V634H125V384H351V323H125V61H384V0H62ZM135 835H193V767H135ZM263 835H320V767H263Z" horiz-adv-x="418" unicode="Ë"/>
			<glyph d="M62 695H125V0H62ZM-10 895H54L137 764H83Z" horiz-adv-x="188" unicode="Ì"/>
			<glyph d="M62 695H125V0H62ZM137 895H201L108 764H54Z" horiz-adv-x="188" unicode="Í"/>
			<glyph d="M62 695H125V0H62ZM73 903H114L211 760H160L94 860L27 760H-25Z" horiz-adv-x="188" unicode="Î"/>
			<glyph d="M62 695H125V0H62ZM1 835H59V767H1ZM129 835H186V767H129Z" horiz-adv-x="188" unicode="Ï"/>
			<glyph d="M62 695H205Q490 695 490 355Q490 189 415 94T201 0H62V318H0V378H62ZM125 634V378H264V318H125V62H199Q310 62 367 137T424 350Q424 503 365 567T204 633Z" horiz-adv-x="532" unicode="Ð"/>
			<glyph d="M62 695H122L426 134H429Q428 171 428 256V695H487V0H430L122 563H120Q121 508 121 393V0H62ZM226 862Q254 862 285 833Q315 805 332 805Q347 805 356 821T367 859H407Q402 815 383 789T331 763Q314 763 299 771T268 794Q255 806 245 812T225 819Q209 819 200 803T189 765H149Q153 808 171 835T226 862Z" horiz-adv-x="549" unicode="Ñ"/>
			<glyph d="M297 707Q420 707 483 612T547 347Q547 238 516 157T428 32T295 -12Q172 -12 107 84T43 347Q43 459 74 540T162 664T297 707ZM295 645Q239 645 197 610T131 508T108 347Q108 205 158 128T294 51Q350 51 392 85T457 187T481 347Q481 491 432 568T295 645ZM192 895H256L339 764H285Z" horiz-adv-x="589" unicode="Ò"/>
			<glyph d="M297 707Q420 707 483 612T547 347Q547 238 516 157T428 32T295 -12Q172 -12 107 84T43 347Q43 459 74 540T162 664T297 707ZM295 645Q239 645 197 610T131 508T108 347Q108 205 158 128T294 51Q350 51 392 85T457 187T481 347Q481 491 432 568T295 645ZM338 895H402L309 764H255Z" horiz-adv-x="589" unicode="Ó"/>
			<glyph d="M297 707Q420 707 483 612T547 347Q547 238 516 157T428 32T295 -12Q172 -12 107 84T43 347Q43 459 74 540T162 664T297 707ZM295 645Q239 645 197 610T131 508T108 347Q108 205 158 128T294 51Q350 51 392 85T457 187T481 347Q481 491 432 568T295 645ZM275 903H316L413 760H362L296 860L229 760H177Z" horiz-adv-x="589" unicode="Ô"/>
			<glyph d="M297 707Q420 707 483 612T547 347Q547 238 516 157T428 32T295 -12Q172 -12 107 84T43 347Q43 459 74 540T162 664T297 707ZM295 645Q239 645 197 610T131 508T108 347Q108 205 158 128T294 51Q350 51 392 85T457 187T481 347Q481 491 432 568T295 645ZM243 862Q271 862 302 833Q332 805 349 805Q364 805 373 821T384 859H424Q419 815 400 789T348 763Q331 763 316 771T285 794Q272 806 262 812T242 819Q226 819 217 803T206 765H166Q170 808 188 835T243 862Z" horiz-adv-x="589" unicode="Õ"/>
			<glyph d="M297 707Q420 707 483 612T547 347Q547 238 516 157T428 32T295 -12Q172 -12 107 84T43 347Q43 459 74 540T162 664T297 707ZM295 645Q239 645 197 610T131 508T108 347Q108 205 158 128T294 51Q350 51 392 85T457 187T481 347Q481 491 432 568T295 645ZM202 835H260V767H202ZM330 835H387V767H330Z" horiz-adv-x="589" unicode="Ö"/>
			<glyph d="M77 449L209 317L342 449L379 412L247 280L379 147L342 110L209 242L77 110L40 147L172 280L40 412Z" unicode="×"/>
			<glyph d="M511 777L555 754L478 619Q547 524 547 347Q547 238 516 157T428 32T295 -12Q206 -12 147 41L85 -68L41 -44L111 79Q43 172 43 347Q43 459 74 540T162 664T295 707Q381 707 442 657ZM294 645Q239 645 196 610T130 508T107 347Q107 224 150 146L409 598Q364 645 294 645ZM438 550L180 99Q225 51 294 51Q350 51 392 85T458 187T482 347Q482 475 438 550Z" horiz-adv-x="589" unicode="Ø"/>
			<glyph d="M60 695H123V220Q123 133 158 92T278 51Q333 51 405 67V695H467V21Q366 -12 271 -12Q161 -12 110 42T60 213ZM162 895H226L309 764H255Z" horiz-adv-x="529" unicode="Ù"/>
			<glyph d="M60 695H123V220Q123 133 158 92T278 51Q333 51 405 67V695H467V21Q366 -12 271 -12Q161 -12 110 42T60 213ZM308 895H372L279 764H225Z" horiz-adv-x="529" unicode="Ú"/>
			<glyph d="M60 695H123V220Q123 133 158 92T278 51Q333 51 405 67V695H467V21Q366 -12 271 -12Q161 -12 110 42T60 213ZM245 903H286L383 760H332L266 860L199 760H147Z" horiz-adv-x="529" unicode="Û"/>
			<glyph d="M60 695H123V220Q123 133 158 92T278 51Q333 51 405 67V695H467V21Q366 -12 271 -12Q161 -12 110 42T60 213ZM172 835H230V767H172ZM300 835H357V767H300Z" horiz-adv-x="529" unicode="Ü"/>
			<glyph d="M-4 695H67L212 332L362 695H431L243 252V0H180V252ZM255 895H319L226 764H172Z" horiz-adv-x="424" unicode="Ý"/>
			<glyph d="M62 695H125V577H199Q314 577 367 520T420 365Q420 257 361 193T195 130H125V0H62ZM125 515V192H194Q272 192 311 236T351 362Q351 436 313 475T198 515Z" horiz-adv-x="452" unicode="Þ"/>
			<glyph d="M215 731Q282 731 322 693T362 591Q362 545 342 511T283 443Q257 421 246 402T236 355Q236 326 253 305T301 264Q348 234 372 203T397 124Q397 65 357 27T252 -11Q215 -11 173 3V59Q209 43 247 43Q288 43 312 64T337 119Q337 144 328 161T305 190T262 221Q234 241 217 256T188 296T176 354Q176 392 192 420T239 473Q271 501 286 526T301 587Q301 628 276 652T211 677Q111 677 111 547V0H52V547Q52 639 94 685T215 731Z" horiz-adv-x="416" unicode="ß"/>
			<glyph d="M195 486Q272 486 308 445T344 328V23Q320 10 282 0T203 -10Q124 -10 82 28T40 137Q40 205 83 245T207 286Q252 286 284 278V320Q284 376 260 403T185 431Q153 431 123 422T73 401V458Q92 469 125 477T195 486ZM211 236Q157 236 129 211T101 140Q101 95 128 69T208 43Q229 43 250 47T284 58V227Q248 236 211 236ZM95 711H158L255 561H199Z" horiz-adv-x="399" unicode="à"/>
			<glyph d="M195 486Q272 486 308 445T344 328V23Q320 10 282 0T203 -10Q124 -10 82 28T40 137Q40 205 83 245T207 286Q252 286 284 278V320Q284 376 260 403T185 431Q153 431 123 422T73 401V458Q92 469 125 477T195 486ZM211 236Q157 236 129 211T101 140Q101 95 128 69T208 43Q229 43 250 47T284 58V227Q248 236 211 236ZM253 711H316L212 561H156Z" horiz-adv-x="399" unicode="á"/>
			<glyph d="M195 486Q272 486 308 445T344 328V23Q320 10 282 0T203 -10Q124 -10 82 28T40 137Q40 205 83 245T207 286Q252 286 284 278V320Q284 376 260 403T185 431Q153 431 123 422T73 401V458Q92 469 125 477T195 486ZM211 236Q157 236 129 211T101 140Q101 95 128 69T208 43Q229 43 250 47T284 58V227Q248 236 211 236ZM184 723H222L318 560H268L202 672L137 560H87Z" horiz-adv-x="399" unicode="â"/>
			<glyph d="M195 486Q272 486 308 445T344 328V23Q320 10 282 0T203 -10Q124 -10 82 28T40 137Q40 205 83 245T207 286Q252 286 284 278V320Q284 376 260 403T185 431Q153 431 123 422T73 401V458Q92 469 125 477T195 486ZM211 236Q157 236 129 211T101 140Q101 95 128 69T208 43Q229 43 250 47T284 58V227Q248 236 211 236ZM151 671Q178 671 210 641Q239 614 257 614Q272 614 281 630T292 668H332Q327 623 308 597T256 571Q239 571 224 579T193 603Q178 616 169 622T150 628Q134 628 125 612T114 574H74Q78 617 96 644T151 671Z" horiz-adv-x="399" unicode="ã"/>
			<glyph d="M195 486Q272 486 308 445T344 328V23Q320 10 282 0T203 -10Q124 -10 82 28T40 137Q40 205 83 245T207 286Q252 286 284 278V320Q284 376 260 403T185 431Q153 431 123 422T73 401V458Q92 469 125 477T195 486ZM211 236Q157 236 129 211T101 140Q101 95 128 69T208 43Q229 43 250 47T284 58V227Q248 236 211 236ZM111 643H169V575H111ZM239 643H296V575H239Z" horiz-adv-x="399" unicode="ä"/>
			<glyph d="M195 486Q272 486 308 445T344 328V23Q320 10 282 0T203 -10Q124 -10 82 28T40 137Q40 205 83 245T207 286Q252 286 284 278V320Q284 376 260 403T185 431Q153 431 123 422T73 401V458Q92 469 125 477T195 486ZM211 236Q157 236 129 211T101 140Q101 95 128 69T208 43Q229 43 250 47T284 58V227Q248 236 211 236ZM203 761Q245 761 275 731T305 660Q305 618 275 588T203 558Q162 558 132 588T102 660Q102 702 132 731T203 761ZM203 721Q178 721 160 703T142 660Q142 635 160 616T203 598Q230 598 247 616T265 660Q265 687 248 704T203 721Z" horiz-adv-x="399" unicode="å"/>
			<glyph d="M195 486Q298 486 325 407Q345 447 380 466T462 486Q545 486 584 430T623 274Q623 247 621 223H343Q344 143 379 94T490 46Q525 46 553 54T600 74V18Q580 7 548 -1T479 -10Q438 -10 404 2T349 37Q321 15 282 2T199 -10Q124 -10 82 29T40 137Q40 205 83 245T207 286Q246 286 283 278V319Q283 375 260 403T185 431Q154 431 123 422T73 401V458Q91 469 125 477T195 486ZM460 433Q408 433 377 391T344 272H562Q562 433 460 433ZM211 236Q158 236 129 211T101 140Q101 95 128 69T207 43Q239 43 268 52T318 77Q284 138 283 227Q270 231 249 233T211 236Z" horiz-adv-x="652" unicode="æ"/>
			<glyph d="M244 486Q282 486 323 475V415Q310 421 289 425T246 430Q178 430 137 380T97 239Q97 142 137 94T245 46Q270 46 292 51T328 64V8Q292 -10 238 -10H236L224 -57Q256 -60 277 -78T300 -135Q300 -174 274 -198T206 -223Q176 -223 151 -213V-173Q153 -174 168 -179T203 -184Q231 -184 245 -171T260 -134Q260 -92 203 -89L183 -88L208 -8Q127 2 81 66T35 236Q35 316 62 372T136 457T244 486Z" horiz-adv-x="352" unicode="ç"/>
			<glyph d="M217 486Q379 486 379 274Q379 247 377 223H98Q98 138 136 92T247 46Q311 46 357 74V18Q336 7 304 -1T236 -10Q140 -10 87 52T35 231Q35 354 83 420T217 486ZM216 433Q163 433 133 391T99 272H318Q318 433 216 433ZM108 711H171L268 561H212Z" horiz-adv-x="408" unicode="è"/>
			<glyph d="M217 486Q379 486 379 274Q379 247 377 223H98Q98 138 136 92T247 46Q311 46 357 74V18Q336 7 304 -1T236 -10Q140 -10 87 52T35 231Q35 354 83 420T217 486ZM216 433Q163 433 133 391T99 272H318Q318 433 216 433ZM266 711H329L225 561H169Z" horiz-adv-x="408" unicode="é"/>
			<glyph d="M217 486Q379 486 379 274Q379 247 377 223H98Q98 138 136 92T247 46Q311 46 357 74V18Q336 7 304 -1T236 -10Q140 -10 87 52T35 231Q35 354 83 420T217 486ZM216 433Q163 433 133 391T99 272H318Q318 433 216 433ZM197 723H235L331 560H281L215 672L150 560H100Z" horiz-adv-x="408" unicode="ê"/>
			<glyph d="M217 486Q379 486 379 274Q379 247 377 223H98Q98 138 136 92T247 46Q311 46 357 74V18Q336 7 304 -1T236 -10Q140 -10 87 52T35 231Q35 354 83 420T217 486ZM216 433Q163 433 133 391T99 272H318Q318 433 216 433ZM124 643H182V575H124ZM252 643H309V575H252Z" horiz-adv-x="408" unicode="ë"/>
			<glyph d="M58 476H118V0H58ZM-20 711H43L140 561H84Z" horiz-adv-x="177" unicode="ì"/>
			<glyph d="M58 476H118V0H58ZM138 711H201L97 561H41Z" horiz-adv-x="177" unicode="í"/>
			<glyph d="M58 476H118V0H58ZM69 723H107L203 560H153L87 672L22 560H-28Z" horiz-adv-x="177" unicode="î"/>
			<glyph d="M58 476H118V0H58ZM-5 643H53V575H-5ZM123 643H180V575H123Z" horiz-adv-x="177" unicode="ï"/>
			<glyph d="M142 774Q197 742 245 694L317 758L351 719L278 657Q342 585 377 482T413 246Q413 121 362 55T224 -10Q134 -10 84 52T35 235Q35 359 85 421T217 484Q257 484 282 470T327 434L330 435Q316 489 291 538T235 622L154 552L121 590L202 658Q161 699 109 730ZM225 429Q165 429 131 379T97 237Q97 143 130 95T224 47Q283 47 317 95T351 238Q351 337 317 383T225 429Z" horiz-adv-x="448" unicode="ð"/>
			<glyph d="M216 486Q302 486 342 445T382 323V0H322V316Q322 430 214 430Q187 430 160 425T118 413V0H58V455Q89 468 131 477T216 486ZM172 671Q199 671 231 641Q260 614 278 614Q293 614 302 630T313 668H353Q348 623 329 597T277 571Q260 571 245 579T214 603Q199 616 190 622T171 628Q155 628 146 612T135 574H95Q99 617 117 644T172 671Z" horiz-adv-x="439" unicode="ñ"/>
			<glyph d="M226 486Q315 486 364 425T413 240Q413 118 362 54T224 -10Q134 -10 84 53T35 240Q35 364 86 425T226 486ZM226 430Q165 430 131 382T97 240Q97 143 130 94T224 46Q283 46 317 95T351 240Q351 333 319 381T226 430ZM118 711H181L278 561H222Z" horiz-adv-x="448" unicode="ò"/>
			<glyph d="M226 486Q315 486 364 425T413 240Q413 118 362 54T224 -10Q134 -10 84 53T35 240Q35 364 86 425T226 486ZM226 430Q165 430 131 382T97 240Q97 143 130 94T224 46Q283 46 317 95T351 240Q351 333 319 381T226 430ZM276 711H339L235 561H179Z" horiz-adv-x="448" unicode="ó"/>
			<glyph d="M226 486Q315 486 364 425T413 240Q413 118 362 54T224 -10Q134 -10 84 53T35 240Q35 364 86 425T226 486ZM226 430Q165 430 131 382T97 240Q97 143 130 94T224 46Q283 46 317 95T351 240Q351 333 319 381T226 430ZM207 723H245L341 560H291L225 672L160 560H110Z" horiz-adv-x="448" unicode="ô"/>
			<glyph d="M226 486Q315 486 364 425T413 240Q413 118 362 54T224 -10Q134 -10 84 53T35 240Q35 364 86 425T226 486ZM226 430Q165 430 131 382T97 240Q97 143 130 94T224 46Q283 46 317 95T351 240Q351 333 319 381T226 430ZM174 671Q201 671 233 641Q262 614 280 614Q295 614 304 630T315 668H355Q350 623 331 597T279 571Q262 571 247 579T216 603Q201 616 192 622T173 628Q157 628 148 612T137 574H97Q101 617 119 644T174 671Z" horiz-adv-x="448" unicode="õ"/>
			<glyph d="M226 486Q315 486 364 425T413 240Q413 118 362 54T224 -10Q134 -10 84 53T35 240Q35 364 86 425T226 486ZM226 430Q165 430 131 382T97 240Q97 143 130 94T224 46Q283 46 317 95T351 240Q351 333 319 381T226 430ZM134 643H192V575H134ZM262 643H319V575H262Z" horiz-adv-x="448" unicode="ö"/>
			<glyph d="M174 493H244V422H174ZM25 329H394V275H25ZM174 182H244V111H174Z" unicode="÷"/>
			<glyph d="M384 551L423 529L362 428Q413 366 413 240Q413 118 362 54T224 -10Q162 -10 118 22L67 -64L27 -42L84 53Q35 117 35 240Q35 364 86 425T226 486Q286 486 328 459ZM226 431Q165 431 130 382T96 240Q96 160 121 114L297 407Q268 431 226 431ZM325 367L149 73Q177 45 224 45Q284 45 318 94T352 240Q352 321 325 367Z" horiz-adv-x="448" unicode="ø"/>
			<glyph d="M57 476H117V160Q117 46 225 46Q252 46 278 51T321 63V476H381V21Q350 8 308 -1T223 -10Q137 -10 97 31T57 153ZM140 711H203L300 561H244Z" horiz-adv-x="439" unicode="ù"/>
			<glyph d="M57 476H117V160Q117 46 225 46Q252 46 278 51T321 63V476H381V21Q350 8 308 -1T223 -10Q137 -10 97 31T57 153ZM257 711H320L216 561H160Z" horiz-adv-x="439" unicode="ú"/>
			<glyph d="M57 476H117V160Q117 46 225 46Q252 46 278 51T321 63V476H381V21Q350 8 308 -1T223 -10Q137 -10 97 31T57 153ZM207 723H245L341 560H291L225 672L160 560H110Z" horiz-adv-x="439" unicode="û"/>
			<glyph d="M57 476H117V160Q117 46 225 46Q252 46 278 51T321 63V476H381V21Q350 8 308 -1T223 -10Q137 -10 97 31T57 153ZM140 643H198V575H140ZM268 643H325V575H268Z" horiz-adv-x="439" unicode="ü"/>
			<glyph d="M0 476H64L141 205Q161 133 175 67H178Q186 102 207 172Q210 182 212 190T217 206L300 476H363L134 -235H71L144 -12ZM232 711H295L191 561H135Z" horiz-adv-x="363" unicode="ý"/>
			<glyph d="M58 738H118V465Q135 473 160 479T213 486Q304 486 353 422T402 245Q402 163 374 105T299 19T191 -10Q147 -10 118 1V-235H58ZM199 430Q157 430 118 412V58Q129 53 148 49T189 46Q257 46 298 95T340 243Q340 329 305 379T199 430Z" horiz-adv-x="437" unicode="þ"/>
			<glyph d="M0 476H64L141 205Q161 133 175 67H178Q186 102 207 172Q210 182 212 190T217 206L300 476H363L134 -235H71L144 -12ZM90 643H148V575H90ZM218 643H275V575H218Z" horiz-adv-x="363" unicode="ÿ"/>
			<glyph d="M212 695H287L487 0H419L359 215H135L72 0H5ZM246 610L151 273H342L247 610ZM160 813H336V764H160Z" horiz-adv-x="492" unicode="Ā"/>
			<glyph d="M195 486Q272 486 308 445T344 328V23Q320 10 282 0T203 -10Q124 -10 82 28T40 137Q40 205 83 245T207 286Q252 286 284 278V320Q284 376 260 403T185 431Q153 431 123 422T73 401V458Q92 469 125 477T195 486ZM211 236Q157 236 129 211T101 140Q101 95 128 69T208 43Q229 43 250 47T284 58V227Q248 236 211 236ZM115 628H291V579H115Z" horiz-adv-x="399" unicode="ā"/>
			<glyph d="M212 695H287L487 0H419L359 215H135L72 0H5ZM246 610L151 273H342L247 610ZM137 890H180Q183 851 200 828T248 806Q277 806 295 828T316 890H359Q356 828 326 795T248 763Q199 763 169 795T137 890Z" horiz-adv-x="492" unicode="Ă"/>
			<glyph d="M195 486Q272 486 308 445T344 328V23Q320 10 282 0T203 -10Q124 -10 82 28T40 137Q40 205 83 245T207 286Q252 286 284 278V320Q284 376 260 403T185 431Q153 431 123 422T73 401V458Q92 469 125 477T195 486ZM211 236Q157 236 129 211T101 140Q101 95 128 69T208 43Q229 43 250 47T284 58V227Q248 236 211 236ZM96 696H140Q144 650 158 626T203 602Q259 602 264 696H310Q306 628 278 594T203 560Q154 560 126 594T96 696Z" horiz-adv-x="399" unicode="ă"/>
			<glyph d="M212 695H287L487 0H419L359 215H135L72 0H5ZM246 610L151 273H342L247 610ZM446 0H487Q440 -56 420 -88T400 -157Q400 -185 413 -199T449 -213Q469 -213 485 -206V-247Q467 -255 440 -255Q399 -255 377 -230T355 -165Q355 -121 379 -83T446 0Z" horiz-adv-x="492" unicode="Ą"/>
			<glyph d="M195 486Q272 486 308 445T344 328V23Q311 -22 295 -46T268 -98T257 -157Q257 -185 270 -199T305 -213Q326 -213 342 -206V-247Q324 -255 296 -255Q256 -255 234 -230T212 -165Q212 -120 233 -80T290 2Q247 -10 203 -10Q124 -10 82 28T40 137Q40 205 83 245T207 286Q252 286 284 278V320Q284 376 260 403T185 431Q153 431 123 422T73 401V458Q92 469 125 477T195 486ZM211 236Q157 236 129 211T101 140Q101 95 128 69T208 43Q229 43 250 47T284 58V227Q248 236 211 236Z" horiz-adv-x="399" unicode="ą"/>
			<glyph d="M321 707Q398 707 440 686V617Q388 645 323 645Q222 645 165 566T109 350Q109 214 160 132T317 50Q385 50 437 76V13Q416 3 382 -4T309 -12Q180 -12 111 82T43 347Q43 467 79 547T179 667T321 707ZM337 895H401L308 764H254Z" horiz-adv-x="464" unicode="Ć"/>
			<glyph d="M244 486Q282 486 323 475V415Q310 421 289 425T246 430Q178 430 137 380T97 239Q97 142 137 94T245 46Q270 46 292 51T328 64V8Q292 -10 238 -10Q143 -10 89 55T35 236Q35 316 62 372T136 457T244 486ZM263 711H326L222 561H166Z" horiz-adv-x="352" unicode="ć"/>
			<glyph d="M321 707Q398 707 440 686V617Q388 645 323 645Q222 645 165 566T109 350Q109 214 160 132T317 50Q385 50 437 76V13Q416 3 382 -4T309 -12Q180 -12 111 82T43 347Q43 467 79 547T179 667T321 707ZM274 903H315L412 760H361L295 860L228 760H176Z" horiz-adv-x="464" unicode="Ĉ"/>
			<glyph d="M244 486Q282 486 323 475V415Q310 421 289 425T246 430Q178 430 137 380T97 239Q97 142 137 94T245 46Q270 46 292 51T328 64V8Q292 -10 238 -10Q143 -10 89 55T35 236Q35 316 62 372T136 457T244 486ZM194 723H232L328 560H278L212 672L147 560H97Z" horiz-adv-x="352" unicode="ĉ"/>
			<glyph d="M321 707Q398 707 440 686V617Q388 645 323 645Q222 645 165 566T109 350Q109 214 160 132T317 50Q385 50 437 76V13Q416 3 382 -4T309 -12Q180 -12 111 82T43 347Q43 467 79 547T179 667T321 707ZM260 841H328V765H260Z" horiz-adv-x="464" unicode="Ċ"/>
			<glyph d="M244 486Q282 486 323 475V415Q310 421 289 425T246 430Q178 430 137 380T97 239Q97 142 137 94T245 46Q270 46 292 51T328 64V8Q292 -10 238 -10Q143 -10 89 55T35 236Q35 316 62 372T136 457T244 486ZM179 651H247V575H179Z" horiz-adv-x="352" unicode="ċ"/>
			<glyph d="M321 707Q398 707 440 686V617Q388 645 323 645Q222 645 165 566T109 350Q109 214 160 132T317 50Q385 50 437 76V13Q416 3 382 -4T309 -12Q180 -12 111 82T43 347Q43 467 79 547T179 667T321 707ZM176 903H227L294 804L360 903H412L314 760H274Z" horiz-adv-x="464" unicode="Č"/>
			<glyph d="M244 486Q282 486 323 475V415Q310 421 289 425T246 430Q178 430 137 380T97 239Q97 142 137 94T245 46Q270 46 292 51T328 64V8Q292 -10 238 -10Q143 -10 89 55T35 236Q35 316 62 372T136 457T244 486ZM97 721H148L213 609L278 721H328L232 558H194Z" horiz-adv-x="352" unicode="č"/>
			<glyph d="M62 695H205Q490 695 490 355Q490 189 415 94T201 0H62ZM125 634V62H199Q310 62 367 137T424 350Q424 503 365 567T204 633ZM147 903H198L265 804L331 903H383L285 760H245Z" horiz-adv-x="532" unicode="Ď"/>
			<glyph d="M319 738H379V25Q349 10 316 0T239 -10Q138 -10 86 53T35 232Q35 314 62 371T137 458T246 487Q290 487 319 476ZM248 431Q181 431 139 381T97 234Q97 148 132 97T244 46Q285 46 319 62V419Q308 424 289 427T248 431ZM470 738H525L475 505H431Z" horiz-adv-x="437" unicode="ď"/>
			<glyph d="M62 695H205Q490 695 490 355Q490 189 415 94T201 0H62V318H0V378H62ZM125 634V378H264V318H125V62H199Q310 62 367 137T424 350Q424 503 365 567T204 633Z" horiz-adv-x="532" unicode="Đ"/>
			<glyph d="M319 738H379V639H437V585H379V25Q349 10 316 0T239 -10Q138 -10 86 53T35 232Q35 314 62 371T137 458T246 487Q290 487 319 476V585H180V639H319ZM248 431Q181 431 139 381T97 234Q97 148 132 97T244 46Q285 46 319 62V419Q308 424 289 427T248 431Z" horiz-adv-x="437" unicode="đ"/>
			<glyph d="M62 695H373V634H125V384H351V323H125V61H384V0H62ZM140 813H316V764H140Z" horiz-adv-x="418" unicode="Ē"/>
			<glyph d="M217 486Q379 486 379 274Q379 247 377 223H98Q98 138 136 92T247 46Q311 46 357 74V18Q336 7 304 -1T236 -10Q140 -10 87 52T35 231Q35 354 83 420T217 486ZM216 433Q163 433 133 391T99 272H318Q318 433 216 433ZM128 628H304V579H128Z" horiz-adv-x="408" unicode="ē"/>
			<glyph d="M62 695H373V634H125V384H351V323H125V61H384V0H62ZM117 890H160Q163 851 180 828T228 806Q257 806 275 828T296 890H339Q336 828 306 795T228 763Q179 763 149 795T117 890Z" horiz-adv-x="418" unicode="Ĕ"/>
			<glyph d="M217 486Q379 486 379 274Q379 247 377 223H98Q98 138 136 92T247 46Q311 46 357 74V18Q336 7 304 -1T236 -10Q140 -10 87 52T35 231Q35 354 83 420T217 486ZM216 433Q163 433 133 391T99 272H318Q318 433 216 433ZM109 696H153Q157 650 171 626T216 602Q272 602 277 696H323Q319 628 291 594T216 560Q167 560 139 594T109 696Z" horiz-adv-x="408" unicode="ĕ"/>
			<glyph d="M62 695H373V634H125V384H351V323H125V61H384V0H62ZM194 841H262V765H194Z" horiz-adv-x="418" unicode="Ė"/>
			<glyph d="M217 486Q379 486 379 274Q379 247 377 223H98Q98 138 136 92T247 46Q311 46 357 74V18Q336 7 304 -1T236 -10Q140 -10 87 52T35 231Q35 354 83 420T217 486ZM216 433Q163 433 133 391T99 272H318Q318 433 216 433ZM182 651H250V575H182Z" horiz-adv-x="408" unicode="ė"/>
			<glyph d="M62 695H373V634H125V384H351V323H125V61H384V0H62ZM343 0H384Q337 -56 317 -88T297 -157Q297 -185 310 -199T346 -213Q366 -213 382 -206V-247Q364 -255 337 -255Q296 -255 274 -230T252 -165Q252 -121 276 -83T343 0Z" horiz-adv-x="418" unicode="Ę"/>
			<glyph d="M217 486Q379 486 379 274Q379 247 377 223H98Q98 138 136 92T247 46Q311 46 357 74V18Q310 -44 290 -79T270 -157Q270 -185 283 -199T318 -213Q339 -213 355 -206V-247Q335 -255 309 -255Q269 -255 246 -230T224 -165Q224 -122 245 -83T303 -2Q271 -10 236 -10Q140 -10 87 52T35 231Q35 354 83 420T217 486ZM216 433Q163 433 133 391T99 272H318Q318 433 216 433Z" horiz-adv-x="408" unicode="ę"/>
			<glyph d="M62 695H373V634H125V384H351V323H125V61H384V0H62ZM110 903H161L228 804L294 903H346L248 760H208Z" horiz-adv-x="418" unicode="Ě"/>
			<glyph d="M217 486Q379 486 379 274Q379 247 377 223H98Q98 138 136 92T247 46Q311 46 357 74V18Q336 7 304 -1T236 -10Q140 -10 87 52T35 231Q35 354 83 420T217 486ZM216 433Q163 433 133 391T99 272H318Q318 433 216 433ZM100 721H151L216 609L281 721H331L235 558H197Z" horiz-adv-x="408" unicode="ě"/>
			<glyph d="M333 707Q373 707 407 700T462 685V616Q404 645 333 645Q231 645 170 569T109 348Q109 204 163 126T315 49Q368 49 410 66V300H280V361H472V23Q444 9 403 -1T314 -12Q183 -12 113 79T43 344Q43 464 79 545T181 667T333 707ZM283 903H324L421 760H370L304 860L237 760H185Z" horiz-adv-x="524" unicode="Ĝ"/>
			<glyph d="M256 486Q322 486 379 462V-41Q379 -142 326 -195T177 -249Q144 -249 113 -242T62 -226V-165Q82 -175 111 -183T175 -191Q243 -191 281 -153T319 -39V11Q304 3 278 -3T225 -10Q130 -10 82 55T35 227Q35 350 93 418T256 486ZM248 430Q179 430 138 379T97 230Q97 139 132 92T236 46Q262 46 284 52T319 66V416Q308 421 289 425T248 430ZM212 723H250L346 560H296L230 672L165 560H115Z" horiz-adv-x="437" unicode="ĝ"/>
			<glyph d="M333 707Q373 707 407 700T462 685V616Q404 645 333 645Q231 645 170 569T109 348Q109 204 163 126T315 49Q368 49 410 66V300H280V361H472V23Q444 9 403 -1T314 -12Q183 -12 113 79T43 344Q43 464 79 545T181 667T333 707ZM192 890H235Q238 851 255 828T303 806Q332 806 350 828T371 890H414Q411 828 381 795T303 763Q254 763 224 795T192 890Z" horiz-adv-x="524" unicode="Ğ"/>
			<glyph d="M256 486Q322 486 379 462V-41Q379 -142 326 -195T177 -249Q144 -249 113 -242T62 -226V-165Q82 -175 111 -183T175 -191Q243 -191 281 -153T319 -39V11Q304 3 278 -3T225 -10Q130 -10 82 55T35 227Q35 350 93 418T256 486ZM248 430Q179 430 138 379T97 230Q97 139 132 92T236 46Q262 46 284 52T319 66V416Q308 421 289 425T248 430ZM124 696H168Q172 650 186 626T231 602Q287 602 292 696H338Q334 628 306 594T231 560Q182 560 154 594T124 696Z" horiz-adv-x="437" unicode="ğ"/>
			<glyph d="M333 707Q373 707 407 700T462 685V616Q404 645 333 645Q231 645 170 569T109 348Q109 204 163 126T315 49Q368 49 410 66V300H280V361H472V23Q444 9 403 -1T314 -12Q183 -12 113 79T43 344Q43 464 79 545T181 667T333 707ZM269 841H337V765H269Z" horiz-adv-x="524" unicode="Ġ"/>
			<glyph d="M256 486Q322 486 379 462V-41Q379 -142 326 -195T177 -249Q144 -249 113 -242T62 -226V-165Q82 -175 111 -183T175 -191Q243 -191 281 -153T319 -39V11Q304 3 278 -3T225 -10Q130 -10 82 55T35 227Q35 350 93 418T256 486ZM248 430Q179 430 138 379T97 230Q97 139 132 92T236 46Q262 46 284 52T319 66V416Q308 421 289 425T248 430ZM197 651H265V575H197Z" horiz-adv-x="437" unicode="ġ"/>
			<glyph d="M333 707Q373 707 407 700T462 685V616Q404 645 333 645Q231 645 170 569T109 348Q109 204 163 126T315 49Q368 49 410 66V300H280V361H472V23Q444 9 403 -1T314 -12Q183 -12 113 79T43 344Q43 464 79 545T181 667T333 707ZM296 -69H356L288 -240H237Z" horiz-adv-x="524" unicode="Ģ"/>
			<glyph d="M256 486Q322 486 379 462V-41Q379 -142 326 -195T177 -249Q144 -249 113 -242T62 -226V-165Q82 -175 111 -183T175 -191Q243 -191 281 -153T319 -39V11Q304 3 278 -3T225 -10Q130 -10 82 55T35 227Q35 350 93 418T256 486ZM248 430Q179 430 138 379T97 230Q97 139 132 92T236 46Q262 46 284 52T319 66V416Q308 421 289 425T248 430ZM247 732H298L241 562H179Z" horiz-adv-x="437" unicode="ģ"/>
			<glyph d="M62 695H125V389H406V695H469V0H406V328H125V0H62ZM246 903H287L384 760H333L267 860L200 760H148Z" horiz-adv-x="531" unicode="Ĥ"/>
			<glyph d="M58 738H118V462Q170 486 234 486Q307 486 344 446T382 329V0H322V317Q322 430 220 430Q166 430 118 406V0H58ZM183 946H224L321 803H270L204 903L137 803H85Z" horiz-adv-x="439" unicode="ĥ"/>
			<glyph d="M62 695H125V570H406V695H469V570H531V517H469V0H406V325H125V0H62V517H0V570H62ZM125 517V386H406V517Z" horiz-adv-x="531" unicode="Ħ"/>
			<glyph d="M58 738H118V639H250V585H118V462Q170 486 234 486Q307 486 344 446T382 329V0H322V317Q322 430 220 430Q166 430 118 406V0H58V585H0V639H58Z" horiz-adv-x="439" unicode="ħ"/>
			<glyph d="M62 695H125V0H62ZM42 862Q70 862 101 833Q131 805 148 805Q163 805 172 821T183 859H223Q218 815 199 789T147 763Q130 763 115 771T84 794Q71 806 61 812T41 819Q25 819 16 803T5 765H-35Q-31 808 -12 835T42 862Z" horiz-adv-x="188" unicode="Ĩ"/>
			<glyph d="M58 476H118V0H58ZM36 671Q63 671 95 641Q124 614 142 614Q157 614 166 630T177 668H217Q212 623 193 597T141 571Q124 571 109 579T78 603Q63 616 54 622T35 628Q19 628 10 612T-1 574H-41Q-37 617 -18 644T36 671Z" horiz-adv-x="177" unicode="ĩ"/>
			<glyph d="M62 695H125V0H62ZM5 813H181V764H5Z" horiz-adv-x="188" unicode="Ī"/>
			<glyph d="M58 476H118V0H58ZM-1 628H175V579H-1Z" horiz-adv-x="177" unicode="ī"/>
			<glyph d="M62 695H125V0H62ZM-17 890H26Q29 851 46 828T94 806Q123 806 141 828T162 890H205Q202 828 172 795T94 763Q45 763 15 795T-17 890Z" horiz-adv-x="188" unicode="Ĭ"/>
			<glyph d="M58 476H118V0H58ZM-19 696H25Q29 650 43 626T88 602Q144 602 149 696H195Q191 628 163 594T88 560Q39 560 11 594T-19 696Z" horiz-adv-x="177" unicode="ĭ"/>
			<glyph d="M62 695H125V0Q87 -56 71 -88T55 -157Q55 -185 68 -199T103 -213Q123 -213 142 -206V-247Q122 -255 94 -255Q54 -255 32 -230T10 -165Q10 -122 29 -85T84 0H62Z" horiz-adv-x="188" unicode="Į"/>
			<glyph d="M53 667H124V591H53ZM58 476H118V0Q80 -56 64 -88T48 -157Q48 -185 61 -199T96 -213Q116 -213 135 -206V-247Q115 -255 87 -255Q47 -255 25 -230T3 -165Q3 -122 22 -85T77 0H58Z" horiz-adv-x="177" unicode="į"/>
			<glyph d="M62 695H125V0H62ZM60 841H128V765H60Z" horiz-adv-x="188" unicode="İ"/>
			<glyph d="M58 476H118V0H58Z" horiz-adv-x="177" unicode="ı"/>
			<glyph d="M62 695H125V0H62ZM428 695H490V203Q490 111 442 49T302 -12Q236 -12 199 10V75Q214 65 240 57T296 50Q358 50 393 90T428 207Z" horiz-adv-x="550" unicode="Ĳ"/>
			<glyph d="M53 667H124V591H53ZM58 476H118V0H58ZM230 667H301V591H230ZM235 476H295V-81Q295 -158 262 -200T162 -243Q131 -243 111 -237V-180Q117 -183 129 -185T153 -187Q235 -187 235 -78Z" horiz-adv-x="353" unicode="ĳ"/>
			<glyph d="M240 695H302V203Q302 111 254 49T114 -12Q48 -12 11 10V75Q26 65 52 57T108 50Q170 50 205 90T240 207ZM251 903H292L389 760H338L272 860L205 760H153Z" horiz-adv-x="362" unicode="Ĵ"/>
			<glyph d="M57 476H117V-81Q117 -158 84 -200T-16 -243Q-47 -243 -67 -237V-180Q-61 -183 -49 -185T-25 -187Q57 -187 57 -78ZM68 723H106L202 560H152L86 672L21 560H-29Z" horiz-adv-x="175" unicode="ĵ"/>
			<glyph d="M62 695H125V353H126L362 695H439L195 351L441 0H363L126 346H125V0H62ZM228 -69H288L220 -240H169Z" horiz-adv-x="452" unicode="Ķ"/>
			<glyph d="M58 738H118V255H120L300 476H374L188 252L373 0H300L120 249H118V0H58ZM189 -69H249L181 -240H130Z" horiz-adv-x="375" unicode="ķ"/>
			<glyph d="M58 476H118V255H120L300 476H374L188 252L373 0H300L120 249H118V0H58Z" horiz-adv-x="375" unicode="ĸ"/>
			<glyph d="M62 695H125V63H382V0H62ZM137 895H201L108 764H54Z" horiz-adv-x="394" unicode="Ĺ"/>
			<glyph d="M58 738H118V0H58ZM131 938H195L102 807H48Z" horiz-adv-x="177" unicode="ĺ"/>
			<glyph d="M62 695H125V63H382V0H62ZM199 -69H259L191 -240H140Z" horiz-adv-x="394" unicode="Ļ"/>
			<glyph d="M58 738H118V0H58ZM80 -69H140L72 -240H21Z" horiz-adv-x="177" unicode="ļ"/>
			<glyph d="M62 695H125V63H382V0H62ZM283 701H338L288 468H244Z" horiz-adv-x="394" unicode="Ľ"/>
			<glyph d="M58 738H118V0H58ZM209 738H264L214 505H170Z" horiz-adv-x="177" unicode="ľ"/>
			<glyph d="M62 695H125V63H382V0H62ZM227 396H295V320H227Z" horiz-adv-x="395" unicode="Ŀ"/>
			<glyph d="M58 738H118V0H58ZM170 388H238V312H170Z" horiz-adv-x="232" unicode="ŀ"/>
			<glyph d="M62 695H125V393L246 496V430L125 327V63H382V0H62V274L-6 216V282L62 340Z" horiz-adv-x="394" unicode="Ł"/>
			<glyph d="M59 738H119V427L185 488V422L119 361V0H59V318L-7 258V324L59 383Z" horiz-adv-x="178" unicode="ł"/>
			<glyph d="M62 695H122L426 134H429Q428 171 428 256V695H487V0H430L122 563H120Q121 508 121 393V0H62ZM321 895H385L292 764H238Z" horiz-adv-x="549" unicode="Ń"/>
			<glyph d="M216 486Q302 486 342 445T382 323V0H322V316Q322 430 214 430Q187 430 160 425T118 413V0H58V455Q89 468 131 477T216 486ZM274 711H337L233 561H177Z" horiz-adv-x="439" unicode="ń"/>
			<glyph d="M62 695H122L426 134H429Q428 171 428 256V695H487V0H430L122 563H120Q121 508 121 393V0H62ZM269 -69H329L261 -240H210Z" horiz-adv-x="549" unicode="Ņ"/>
			<glyph d="M216 486Q302 486 342 445T382 323V0H322V316Q322 430 214 430Q187 430 160 425T118 413V0H58V455Q89 468 131 477T216 486ZM213 -69H273L205 -240H154Z" horiz-adv-x="439" unicode="ņ"/>
			<glyph d="M62 695H122L426 134H429Q428 171 428 256V695H487V0H430L122 563H120Q121 508 121 393V0H62ZM160 903H211L278 804L344 903H396L298 760H258Z" horiz-adv-x="549" unicode="Ň"/>
			<glyph d="M216 486Q302 486 342 445T382 323V0H322V316Q322 430 214 430Q187 430 160 425T118 413V0H58V455Q89 468 131 477T216 486ZM108 721H159L224 609L289 721H339L243 558H205Z" horiz-adv-x="439" unicode="ň"/>
			<glyph d="M48 716H112L18 429H-30ZM216 486Q302 486 342 445T382 323V0H322V316Q322 430 214 430Q187 430 160 425T118 413V0H58V455Q89 468 131 477T216 486Z" horiz-adv-x="439" unicode="ŉ"/>
			<glyph d="M62 695H123L426 135H428Q427 172 427 257V695H487V-43Q487 -136 439 -197T298 -258Q263 -258 236 -251T196 -236V-171Q211 -181 237 -188T293 -196Q355 -196 391 -156T427 -39V5L122 562H121Q122 507 122 392V0H62Z" horiz-adv-x="549" unicode="Ŋ"/>
			<glyph d="M216 486Q302 486 342 445T382 323V-81Q382 -158 349 -200T249 -243Q220 -243 198 -237V-180Q214 -187 241 -187Q322 -187 322 -78V316Q322 430 214 430Q187 430 160 425T118 413V0H58V455Q89 468 131 477T216 486Z" horiz-adv-x="439" unicode="ŋ"/>
			<glyph d="M297 707Q420 707 483 612T547 347Q547 238 516 157T428 32T295 -12Q172 -12 107 84T43 347Q43 459 74 540T162 664T297 707ZM295 645Q239 645 197 610T131 508T108 347Q108 205 158 128T294 51Q350 51 392 85T457 187T481 347Q481 491 432 568T295 645ZM207 813H383V764H207Z" horiz-adv-x="589" unicode="Ō"/>
			<glyph d="M226 486Q315 486 364 425T413 240Q413 118 362 54T224 -10Q134 -10 84 53T35 240Q35 364 86 425T226 486ZM226 430Q165 430 131 382T97 240Q97 143 130 94T224 46Q283 46 317 95T351 240Q351 333 319 381T226 430ZM138 628H314V579H138Z" horiz-adv-x="448" unicode="ō"/>
			<glyph d="M297 707Q420 707 483 612T547 347Q547 238 516 157T428 32T295 -12Q172 -12 107 84T43 347Q43 459 74 540T162 664T297 707ZM295 645Q239 645 197 610T131 508T108 347Q108 205 158 128T294 51Q350 51 392 85T457 187T481 347Q481 491 432 568T295 645ZM184 890H227Q230 851 247 828T295 806Q324 806 342 828T363 890H406Q403 828 373 795T295 763Q246 763 216 795T184 890Z" horiz-adv-x="589" unicode="Ŏ"/>
			<glyph d="M226 486Q315 486 364 425T413 240Q413 118 362 54T224 -10Q134 -10 84 53T35 240Q35 364 86 425T226 486ZM226 430Q165 430 131 382T97 240Q97 143 130 94T224 46Q283 46 317 95T351 240Q351 333 319 381T226 430ZM119 696H163Q167 650 181 626T226 602Q282 602 287 696H333Q329 628 301 594T226 560Q177 560 149 594T119 696Z" horiz-adv-x="448" unicode="ŏ"/>
			<glyph d="M297 707Q420 707 483 612T547 347Q547 238 516 157T428 32T295 -12Q172 -12 107 84T43 347Q43 459 74 540T162 664T297 707ZM295 645Q239 645 197 610T131 508T108 347Q108 205 158 128T294 51Q350 51 392 85T457 187T481 347Q481 491 432 568T295 645ZM274 896H337L246 764H192ZM393 896H456L365 764H311Z" horiz-adv-x="589" unicode="Ő"/>
			<glyph d="M226 486Q315 486 364 425T413 240Q413 118 362 54T224 -10Q134 -10 84 53T35 240Q35 364 86 425T226 486ZM226 430Q165 430 131 382T97 240Q97 143 130 94T224 46Q283 46 317 95T351 240Q351 333 319 381T226 430ZM213 709H271L179 562H129ZM326 709H385L293 562H243Z" horiz-adv-x="448" unicode="ő"/>
			<glyph d="M303 707Q362 707 410 684V695H721V634H472V384H698V323H472V61H732V0H410V13Q358 -12 294 -12Q166 -12 104 86T43 347Q43 461 74 542T164 665T303 707ZM308 645Q212 645 160 567T108 347Q108 212 155 131T304 51Q366 51 410 74V623Q362 645 308 645Z" horiz-adv-x="760" unicode="Œ"/>
			<glyph d="M226 486Q341 486 381 378Q401 431 438 458T529 486Q691 486 691 274Q691 247 689 223H410Q410 138 448 92T558 46Q593 46 621 54T668 74V18Q648 7 616 -1T547 -10Q486 -10 443 18T379 100Q358 46 318 18T224 -10Q134 -10 84 53T35 240Q35 364 86 425T226 486ZM528 433Q475 433 445 392T411 272H630Q630 433 528 433ZM226 430Q165 430 131 381T97 240Q97 144 130 95T224 47Q283 47 317 95T351 240Q351 333 319 381T226 430Z" horiz-adv-x="720" unicode="œ"/>
			<glyph d="M62 695H214Q317 695 369 643T421 494Q421 414 383 365T288 298L443 0H367L223 284H125V0H62ZM125 637V344H206Q277 344 315 385T354 493Q354 563 317 600T210 637ZM273 895H337L244 764H190Z" horiz-adv-x="465" unicode="Ŕ"/>
			<glyph d="M193 486Q232 486 258 482V424Q234 428 197 428Q175 428 152 424T117 415V0H58V463Q85 473 120 479T193 486ZM211 711H274L170 561H114Z" horiz-adv-x="270" unicode="ŕ"/>
			<glyph d="M62 695H214Q317 695 369 643T421 494Q421 414 383 365T288 298L443 0H367L223 284H125V0H62ZM125 637V344H206Q277 344 315 385T354 493Q354 563 317 600T210 637ZM226 -69H286L218 -240H167Z" horiz-adv-x="465" unicode="Ŗ"/>
			<glyph d="M193 486Q232 486 258 482V424Q234 428 197 428Q175 428 152 424T117 415V0H58V463Q85 473 120 479T193 486ZM74 -69H134L66 -240H15Z" horiz-adv-x="270" unicode="ŗ"/>
			<glyph d="M62 695H214Q317 695 369 643T421 494Q421 414 383 365T288 298L443 0H367L223 284H125V0H62ZM125 637V344H206Q277 344 315 385T354 493Q354 563 317 600T210 637ZM112 903H163L230 804L296 903H348L250 760H210Z" horiz-adv-x="465" unicode="Ř"/>
			<glyph d="M193 486Q232 486 258 482V424Q234 428 197 428Q175 428 152 424T117 415V0H58V463Q85 473 120 479T193 486ZM45 721H96L161 609L226 721H276L180 558H142Z" horiz-adv-x="270" unicode="ř"/>
			<glyph d="M245 707Q281 707 313 701T366 686V618Q306 645 245 645Q179 645 143 610T108 522Q108 484 122 459T161 417T231 375Q293 342 324 319T374 260T392 169Q392 120 369 79T300 13T190 -12Q148 -12 110 -3T45 20V90Q116 49 191 49Q257 49 291 83T325 166Q325 204 311 228T272 269T193 316Q138 347 106 372T57 432T40 520Q40 604 95 655T245 707ZM273 895H337L244 764H190Z" horiz-adv-x="422" unicode="Ś"/>
			<glyph d="M180 486Q231 486 269 472V411Q225 431 183 431Q140 431 118 410T96 356Q96 322 114 302T176 261Q218 239 240 222T274 181T286 117Q286 63 249 25T142 -12Q112 -12 84 -5T38 12V75Q90 44 140 44Q183 44 204 64T226 116Q226 140 217 155T191 182T140 212Q84 241 59 271T34 355Q34 415 73 450T180 486ZM215 711H278L174 561H118Z" horiz-adv-x="316" unicode="ś"/>
			<glyph d="M245 707Q281 707 313 701T366 686V618Q306 645 245 645Q179 645 143 610T108 522Q108 484 122 459T161 417T231 375Q293 342 324 319T374 260T392 169Q392 120 369 79T300 13T190 -12Q148 -12 110 -3T45 20V90Q116 49 191 49Q257 49 291 83T325 166Q325 204 311 228T272 269T193 316Q138 347 106 372T57 432T40 520Q40 604 95 655T245 707ZM210 903H251L348 760H297L231 860L164 760H112Z" horiz-adv-x="422" unicode="Ŝ"/>
			<glyph d="M180 486Q231 486 269 472V411Q225 431 183 431Q140 431 118 410T96 356Q96 322 114 302T176 261Q218 239 240 222T274 181T286 117Q286 63 249 25T142 -12Q112 -12 84 -5T38 12V75Q90 44 140 44Q183 44 204 64T226 116Q226 140 217 155T191 182T140 212Q84 241 59 271T34 355Q34 415 73 450T180 486ZM146 723H184L280 560H230L164 672L99 560H49Z" horiz-adv-x="316" unicode="ŝ"/>
			<glyph d="M245 707Q281 707 313 701T366 686V618Q306 645 245 645Q179 645 143 610T108 522Q108 484 122 459T161 417T231 375Q293 342 324 319T374 260T392 169Q392 99 346 47T215 -11L203 -57Q235 -60 256 -78T279 -135Q279 -174 253 -198T185 -223Q155 -223 130 -213V-173Q132 -174 147 -179T182 -184Q210 -184 224 -171T239 -134Q239 -92 182 -89L162 -88L186 -12Q145 -11 107 -2T45 20V90Q116 49 191 49Q257 49 291 83T325 166Q325 204 311 228T272 269T193 316Q138 347 106 372T57 432T40 520Q40 604 95 655T245 707Z" horiz-adv-x="422" unicode="Ş"/>
			<glyph d="M180 486Q231 486 269 472V411Q225 431 183 431Q140 431 118 410T96 356Q96 322 114 302T176 261Q218 239 240 222T274 181T286 117Q286 66 253 30T160 -11L148 -57Q180 -60 201 -78T224 -135Q224 -174 198 -198T130 -223Q100 -223 75 -213V-173Q77 -174 92 -179T127 -184Q155 -184 169 -171T184 -134Q184 -92 127 -89L107 -88L131 -12Q79 -9 38 12V75Q90 44 140 44Q183 44 204 64T226 116Q226 140 217 155T191 182T140 212Q84 241 59 271T34 355Q34 415 73 450T180 486Z" horiz-adv-x="316" unicode="ş"/>
			<glyph d="M245 707Q281 707 313 701T366 686V618Q306 645 245 645Q179 645 143 610T108 522Q108 484 122 459T161 417T231 375Q293 342 324 319T374 260T392 169Q392 120 369 79T300 13T190 -12Q148 -12 110 -3T45 20V90Q116 49 191 49Q257 49 291 83T325 166Q325 204 311 228T272 269T193 316Q138 347 106 372T57 432T40 520Q40 604 95 655T245 707ZM112 903H163L230 804L296 903H348L250 760H210Z" horiz-adv-x="422" unicode="Š"/>
			<glyph d="M180 486Q231 486 269 472V411Q225 431 183 431Q140 431 118 410T96 356Q96 322 114 302T176 261Q218 239 240 222T274 181T286 117Q286 63 249 25T142 -12Q112 -12 84 -5T38 12V75Q90 44 140 44Q183 44 204 64T226 116Q226 140 217 155T191 182T140 212Q84 241 59 271T34 355Q34 415 73 450T180 486ZM49 721H100L165 609L230 721H280L184 558H146Z" horiz-adv-x="316" unicode="š"/>
			<glyph d="M9 695H400V634H236V0H173V634H9ZM198 -69H258L190 -240H139Z" horiz-adv-x="408" unicode="Ţ"/>
			<glyph d="M76 617H136V476H260V421H136V133Q136 85 155 65T209 45Q228 45 260 53V1Q231 -10 197 -10Q76 -10 76 123V421H8V476H76ZM156 -69H216L148 -240H97Z" horiz-adv-x="267" unicode="ţ"/>
			<glyph d="M9 695H400V634H236V0H173V634H9ZM86 903H137L204 804L270 903H322L224 760H184Z" horiz-adv-x="408" unicode="Ť"/>
			<glyph d="M76 617H136V476H260V421H136V133Q136 85 155 65T209 45Q228 45 260 53V1Q231 -10 197 -10Q76 -10 76 123V421H8V476H76ZM225 774H280L230 541H186Z" horiz-adv-x="267" unicode="ť"/>
			<glyph d="M9 695H400V634H236V356H367V296H236V0H173V296H44V356H173V634H9Z" horiz-adv-x="408" unicode="Ŧ"/>
			<glyph d="M77 617H137V476H261V421H137V272H261V217H137V133Q137 85 156 65T210 45Q229 45 261 53V1Q232 -10 198 -10Q77 -10 77 123V217H8V272H77V421H8V476H77Z" horiz-adv-x="268" unicode="ŧ"/>
			<glyph d="M60 695H123V220Q123 133 158 92T278 51Q333 51 405 67V695H467V21Q366 -12 271 -12Q161 -12 110 42T60 213ZM213 862Q241 862 272 833Q302 805 319 805Q334 805 343 821T354 859H394Q389 815 370 789T318 763Q301 763 286 771T255 794Q242 806 232 812T212 819Q196 819 187 803T176 765H136Q140 808 158 835T213 862Z" horiz-adv-x="529" unicode="Ũ"/>
			<glyph d="M57 476H117V160Q117 46 225 46Q252 46 278 51T321 63V476H381V21Q350 8 308 -1T223 -10Q137 -10 97 31T57 153ZM177 671Q204 671 236 641Q265 614 283 614Q298 614 307 630T318 668H358Q353 623 334 597T282 571Q265 571 250 579T219 603Q204 616 195 622T176 628Q160 628 151 612T140 574H100Q104 617 122 644T177 671Z" horiz-adv-x="439" unicode="ũ"/>
			<glyph d="M60 695H123V220Q123 133 158 92T278 51Q333 51 405 67V695H467V21Q366 -12 271 -12Q161 -12 110 42T60 213ZM177 813H353V764H177Z" horiz-adv-x="529" unicode="Ū"/>
			<glyph d="M57 476H117V160Q117 46 225 46Q252 46 278 51T321 63V476H381V21Q350 8 308 -1T223 -10Q137 -10 97 31T57 153ZM140 628H316V579H140Z" horiz-adv-x="439" unicode="ū"/>
			<glyph d="M60 695H123V220Q123 133 158 92T278 51Q333 51 405 67V695H467V21Q366 -12 271 -12Q161 -12 110 42T60 213ZM154 890H197Q200 851 217 828T265 806Q294 806 312 828T333 890H376Q373 828 343 795T265 763Q216 763 186 795T154 890Z" horiz-adv-x="529" unicode="Ŭ"/>
			<glyph d="M57 476H117V160Q117 46 225 46Q252 46 278 51T321 63V476H381V21Q350 8 308 -1T223 -10Q137 -10 97 31T57 153ZM125 696H169Q173 650 187 626T232 602Q288 602 293 696H339Q335 628 307 594T232 560Q183 560 155 594T125 696Z" horiz-adv-x="439" unicode="ŭ"/>
			<glyph d="M60 695H123V220Q123 133 158 92T278 51Q333 51 405 67V695H467V21Q366 -12 271 -12Q161 -12 110 42T60 213ZM265 942Q306 942 335 913T364 843Q364 802 335 773T265 745Q225 745 196 774T167 843Q167 885 195 913T265 942ZM265 904Q240 904 222 886T204 843Q204 819 222 800T265 782Q291 782 308 800T326 843Q326 870 309 887T265 904Z" horiz-adv-x="529" unicode="Ů"/>
			<glyph d="M57 476H117V160Q117 46 225 46Q252 46 278 51T321 63V476H381V21Q350 8 308 -1T223 -10Q137 -10 97 31T57 153ZM226 761Q268 761 298 731T328 660Q328 618 298 588T226 558Q185 558 155 588T125 660Q125 702 155 731T226 761ZM226 721Q201 721 183 703T165 660Q165 635 183 616T226 598Q253 598 270 616T288 660Q288 687 271 704T226 721Z" horiz-adv-x="439" unicode="ů"/>
			<glyph d="M60 695H123V220Q123 133 158 92T278 51Q333 51 405 67V695H467V21Q366 -12 271 -12Q161 -12 110 42T60 213ZM244 896H307L216 764H162ZM363 896H426L335 764H281Z" horiz-adv-x="529" unicode="Ű"/>
			<glyph d="M57 476H117V160Q117 46 225 46Q252 46 278 51T321 63V476H381V21Q350 8 308 -1T223 -10Q137 -10 97 31T57 153ZM204 709H262L170 562H120ZM317 709H376L284 562H234Z" horiz-adv-x="439" unicode="ű"/>
			<glyph d="M60 695H123V220Q123 133 158 92T278 51Q333 51 405 67V695H467V21Q433 -26 417 -48T391 -99T380 -157Q380 -185 393 -199T428 -213Q449 -213 465 -206V-247Q447 -255 420 -255Q379 -255 357 -230T335 -165Q335 -120 356 -79T413 5Q339 -12 271 -12Q161 -12 110 42T60 213Z" horiz-adv-x="529" unicode="Ų"/>
			<glyph d="M57 476H117V160Q117 47 226 47Q254 47 279 51T321 63V476H381V21L380 20Q346 -25 331 -48T304 -99T293 -157Q293 -185 306 -199T342 -213Q362 -213 378 -206V-247Q360 -255 333 -255Q292 -255 270 -230T248 -165Q248 -121 269 -81T329 4Q275 -10 223 -10Q137 -10 97 31T57 153Z" horiz-adv-x="439" unicode="ų"/>
			<glyph d="M17 695H81L179 214Q192 141 196 104H197Q203 145 221 213L345 695H400L509 210Q524 144 530 99H531Q537 138 553 212L655 695H719L561 -5H500L399 431Q378 524 370 581H368Q349 484 335 429L225 -5H163ZM351 903H392L489 760H438L372 860L305 760H253Z" horiz-adv-x="739" unicode="Ŵ"/>
			<glyph d="M0 476H62L135 159Q144 124 150 83H153Q161 131 175 175L260 476H315L394 160Q400 137 405 109Q411 81 410 83H413Q427 151 430 163L516 476H577L444 0H379L307 275Q289 350 284 383H282Q269 318 256 275L178 0H115ZM268 723H306L402 560H352L286 672L221 560H171Z" horiz-adv-x="575" unicode="ŵ"/>
			<glyph d="M-4 695H67L212 332L362 695H431L243 252V0H180V252ZM192 903H233L330 760H279L213 860L146 760H94Z" horiz-adv-x="424" unicode="Ŷ"/>
			<glyph d="M0 476H64L141 205Q161 133 175 67H178Q186 102 207 172Q210 182 212 190T217 206L300 476H363L134 -235H71L144 -12ZM163 723H201L297 560H247L181 672L116 560H66Z" horiz-adv-x="363" unicode="ŷ"/>
			<glyph d="M-4 695H67L212 332L362 695H431L243 252V0H180V252ZM120 835H178V767H120ZM248 835H305V767H248Z" horiz-adv-x="424" unicode="Ÿ"/>
			<glyph d="M43 695H430V645L105 62H440V0H26V51L350 634H43ZM279 895H343L250 764H196Z" horiz-adv-x="465" unicode="Ź"/>
			<glyph d="M31 476H324V420L93 55H329V0H18V49L252 421H31ZM226 711H289L185 561H129Z" horiz-adv-x="347" unicode="ź"/>
			<glyph d="M43 695H430V645L105 62H440V0H26V51L350 634H43ZM202 841H270V765H202Z" horiz-adv-x="465" unicode="Ż"/>
			<glyph d="M31 476H324V420L93 55H329V0H18V49L252 421H31ZM142 651H210V575H142Z" horiz-adv-x="347" unicode="ż"/>
			<glyph d="M43 695H430V645L105 62H440V0H26V51L350 634H43ZM118 903H169L236 804L302 903H354L256 760H216Z" horiz-adv-x="465" unicode="Ž"/>
			<glyph d="M31 476H324V420L93 55H329V0H18V49L252 421H31ZM60 721H111L176 609L241 721H291L195 558H157Z" horiz-adv-x="347" unicode="ž"/>
			<glyph d="M324 707Q343 707 362 704T391 697L387 644Q354 653 324 653Q284 653 263 627T236 541L228 429H332L327 375H223L200 105Q193 21 159 -17T64 -55Q28 -55 9 -48L14 6Q33 -1 61 -1Q97 -1 116 23T141 115L163 375H109L114 429H167L176 543Q184 626 220 666T324 707Z" horiz-adv-x="397" unicode="ƒ"/>
			<glyph d="M245 707Q281 707 313 701T366 686V618Q306 645 245 645Q179 645 143 610T108 522Q108 484 122 459T161 417T231 375Q293 342 324 319T374 260T392 169Q392 120 369 79T300 13T190 -12Q148 -12 110 -3T45 20V90Q116 49 191 49Q257 49 291 83T325 166Q325 204 311 228T272 269T193 316Q138 347 106 372T57 432T40 520Q40 604 95 655T245 707ZM198 -69H258L190 -240H139Z" horiz-adv-x="422" unicode="Ș"/>
			<glyph d="M180 486Q231 486 269 472V411Q225 431 183 431Q140 431 118 410T96 356Q96 322 114 302T176 261Q218 239 240 222T274 181T286 117Q286 63 249 25T142 -12Q112 -12 84 -5T38 12V75Q90 44 140 44Q183 44 204 64T226 116Q226 140 217 155T191 182T140 212Q84 241 59 271T34 355Q34 415 73 450T180 486ZM143 -69H203L135 -240H84Z" horiz-adv-x="316" unicode="ș"/>
			<glyph d="M9 695H400V634H236V0H173V634H9ZM198 -69H258L190 -240H139Z" horiz-adv-x="408" unicode="Ț"/>
			<glyph d="M76 617H136V476H260V421H136V133Q136 85 155 65T209 45Q228 45 260 53V1Q231 -10 197 -10Q76 -10 76 123V421H8V476H76ZM156 -69H216L148 -240H97Z" horiz-adv-x="267" unicode="ț"/>
			<glyph d="M57 476H117V-81Q117 -158 84 -200T-16 -243Q-47 -243 -67 -237V-180Q-61 -183 -49 -185T-25 -187Q57 -187 57 -78Z" horiz-adv-x="175" unicode="ȷ"/>
			<glyph d="M127 723H165L261 560H211L145 672L80 560H30Z" horiz-adv-x="291" unicode="ˆ"/>
			<glyph d="M30 723H81L146 611L211 723H261L165 560H127Z" horiz-adv-x="291" unicode="ˇ"/>
			<glyph d="M30 628H206V579H30Z" horiz-adv-x="236" unicode="ˉ"/>
			<glyph d="M30 696H74Q78 650 92 626T137 602Q193 602 198 696H244Q240 628 212 594T137 560Q88 560 60 594T30 696Z" horiz-adv-x="274" unicode="˘"/>
			<glyph d="M30 651H98V575H30Z" horiz-adv-x="128" unicode="˙"/>
			<glyph d="M131 761Q173 761 203 731T233 660Q233 618 203 588T131 558Q90 558 60 588T30 660Q30 702 60 731T131 761ZM131 721Q106 721 88 703T70 660Q70 635 88 616T131 598Q158 598 175 616T193 660Q193 687 176 704T131 721Z" horiz-adv-x="263" unicode="˚"/>
			<glyph d="M121 0H162Q115 -56 95 -88T75 -157Q75 -185 88 -199T124 -213Q144 -213 160 -206V-247Q142 -255 115 -255Q74 -255 52 -230T30 -165Q30 -121 54 -83T121 0Z" horiz-adv-x="192" unicode="˛"/>
			<glyph d="M107 671Q134 671 166 641Q195 614 213 614Q228 614 237 630T248 668H288Q283 623 264 597T212 571Q195 571 180 579T149 603Q134 616 125 622T106 628Q90 628 81 612T70 574H30Q34 617 52 644T107 671Z" horiz-adv-x="318" unicode="˜"/>
			<glyph d="M114 709H172L80 562H30ZM227 709H286L194 562H144Z" horiz-adv-x="316" unicode="˝"/>
			<glyph d="M98 732H149L92 562H30Z" horiz-adv-x="0" unicode="̒"/>
			<glyph d="M89 -69H149L81 -240H30Z" horiz-adv-x="0" unicode="̦"/>
			<glyph d="M202 697H281L476 0H5ZM239 607L90 61H392L241 607Z" horiz-adv-x="481" unicode="Δ"/>
			<glyph d="M289 708Q404 708 468 624T533 390Q533 265 492 192T386 88V58H534V0H332V116Q393 137 430 203T468 384Q468 508 420 578T287 648Q235 648 194 618T129 528T106 384Q106 270 143 204T243 116V0H41V58H189V88Q42 156 42 388Q42 493 75 565T164 672T289 708Z" horiz-adv-x="575" unicode="Ω"/>
			<glyph d="M58 476H118V164Q118 100 142 72T218 45Q260 45 298 57V476H358V14Q288 -12 221 -12Q146 -12 119 27V-251H58Z" horiz-adv-x="417" unicode="μ"/>
			<glyph d="M126 476H424V416H350V103Q350 53 388 53Q400 53 420 58V3Q399 -5 374 -5Q330 -5 310 20T290 97V416H154V137Q154 67 147 0H84Q93 59 93 137V416Q76 416 55 412T20 404V465Q61 476 126 476Z" horiz-adv-x="451" unicode="π"/>
			<glyph d="M62 695H373V634H125V384H351V323H125V61H384V0H62ZM125 895H189L272 764H218Z" horiz-adv-x="418" unicode="Ѐ"/>
			<glyph d="M62 695H373V634H125V384H351V323H125V61H384V0H62ZM135 835H193V767H135ZM263 835H320V767H263Z" horiz-adv-x="418" unicode="Ё"/>
			<glyph d="M9 695H400V634H236V402Q292 434 355 434Q450 434 500 375T551 205Q551 104 499 44T359 -16Q340 -16 324 -10V50Q334 45 354 45Q417 45 451 88T486 203Q486 288 452 330T348 373Q315 373 284 363T236 340V0H173V634H9Z" horiz-adv-x="582" unicode="Ђ"/>
			<glyph d="M62 695H382V634H126V0H62ZM265 895H329L236 764H182Z" horiz-adv-x="391" unicode="Ѓ"/>
			<glyph d="M321 707Q398 707 440 686V617Q388 645 323 645Q229 645 173 576T110 386H384V321H110Q115 197 166 123T317 50Q385 50 437 76V13Q416 3 382 -4T309 -12Q180 -12 111 82T43 347Q43 467 79 547T179 667T321 707Z" horiz-adv-x="464" unicode="Є"/>
			<glyph d="M245 707Q281 707 313 701T366 686V618Q306 645 245 645Q179 645 143 610T108 522Q108 484 122 459T161 417T231 375Q293 342 324 319T374 260T392 169Q392 120 369 79T300 13T190 -12Q148 -12 110 -3T45 20V90Q116 49 191 49Q257 49 291 83T325 166Q325 204 311 228T272 269T193 316Q138 347 106 372T57 432T40 520Q40 604 95 655T245 707Z" horiz-adv-x="422" unicode="Ѕ"/>
			<glyph d="M62 695H125V0H62Z" horiz-adv-x="188" unicode="І"/>
			<glyph d="M62 695H125V0H62ZM1 835H59V767H1ZM129 835H186V767H129Z" horiz-adv-x="188" unicode="Ї"/>
			<glyph d="M240 695H302V203Q302 111 254 49T114 -12Q48 -12 11 10V75Q26 65 52 57T108 50Q170 50 205 90T240 207Z" horiz-adv-x="362" unicode="Ј"/>
			<glyph d="M182 695H462V420H545Q661 420 714 366T768 220Q768 120 709 60T540 0H399V634H240Q224 378 192 237T116 43T8 -10V51Q48 51 80 99T139 289T182 695ZM462 358V62H540Q619 62 659 102T699 217Q699 284 660 321T543 358Z" horiz-adv-x="799" unicode="Љ"/>
			<glyph d="M62 695H125V389H406V695H469V420H551Q667 420 720 366T774 220Q774 120 715 60T546 0H406V328H125V0H62ZM469 358V62H546Q625 62 665 102T706 217Q706 284 667 321T550 358Z" horiz-adv-x="806" unicode="Њ"/>
			<glyph d="M9 695H400V634H236V405Q294 430 353 430Q455 430 502 377T549 212V0H486V207Q486 293 453 331T348 370Q317 370 287 362T236 345V0H173V634H9Z" horiz-adv-x="592" unicode="Ћ"/>
			<glyph d="M62 695H125V353H126L362 695H439L195 351L441 0H363L126 346H125V0H62ZM279 895H343L250 764H196Z" horiz-adv-x="452" unicode="Ќ"/>
			<glyph d="M62 695H125V259Q125 212 123 136H126L432 695H488V0H426V391Q426 505 427 560H425L116 0H62ZM169 895H233L316 764H262Z" horiz-adv-x="550" unicode="Ѝ"/>
			<glyph d="M115 891H161Q164 850 182 828T235 807Q266 807 285 828T307 891H353Q351 827 319 793T235 759Q181 759 149 793T115 891ZM4 695H73L237 240L394 695H463L263 133Q236 57 199 22T100 -12Q71 -12 45 -5V58Q71 50 96 50Q137 50 160 72T203 147L206 155Z" horiz-adv-x="466" unicode="Ў"/>
			<glyph d="M62 695H126V63H409V695H473V0H301V-160H238V0H62Z" horiz-adv-x="535" unicode="Џ"/>
			<glyph d="M212 695H287L487 0H419L359 215H135L72 0H5ZM246 610L151 273H342L247 610Z" horiz-adv-x="492" unicode="А"/>
			<glyph d="M62 695H393V634H125V415H208Q319 415 374 360T430 212Q430 117 373 58T206 0H62ZM125 354V62H208Q285 62 323 101T361 209Q361 280 321 317T205 354Z" horiz-adv-x="464" unicode="Б"/>
			<glyph d="M62 695H222Q315 695 362 651T409 526Q409 460 377 418T294 365V363Q354 354 391 313T428 196Q428 109 373 54T216 0H62ZM125 636V389H202Q267 389 304 422T342 518Q342 576 309 606T214 636ZM125 330V59H212Q284 59 322 95T361 197Q361 330 202 330Z" horiz-adv-x="463" unicode="В"/>
			<glyph d="M62 695H382V634H126V0H62Z" horiz-adv-x="391" unicode="Г"/>
			<glyph d="M166 695H452V65H519V-160H459V0H69V-160H9V65H54Q97 153 124 292T166 695ZM224 634Q210 412 185 279T122 65H389V634Z" horiz-adv-x="534" unicode="Д"/>
			<glyph d="M62 695H373V634H125V384H351V323H125V61H384V0H62Z" horiz-adv-x="418" unicode="Е"/>
			<glyph d="M13 695H91L296 353H297V695H360V353H361L566 695H644L430 351L648 0H570L361 346H360V0H297V346H296L87 0H9L227 351Z" horiz-adv-x="656" unicode="Ж"/>
			<glyph d="M184 707Q279 707 324 657T370 528Q370 464 337 418T257 356V354Q317 340 350 299T383 189Q383 134 359 88T286 15T167 -12Q83 -12 23 18V88Q50 72 87 61T167 50Q238 50 276 88T315 190Q315 321 152 321H88V380H145Q219 380 260 418T302 522Q302 578 269 611T172 645Q132 645 96 634T34 607V673Q60 687 99 697T184 707Z" horiz-adv-x="418" unicode="З"/>
			<glyph d="M62 695H125V259Q125 212 123 136H126L432 695H488V0H426V391Q426 505 427 560H425L116 0H62Z" horiz-adv-x="550" unicode="И"/>
			<glyph d="M152 891H198Q201 850 219 828T272 807Q303 807 322 828T344 891H390Q388 827 356 793T272 759Q218 759 186 793T152 891ZM62 695H125V259Q125 212 123 136H126L432 695H488V0H426V391Q426 505 427 560H425L116 0H62Z" horiz-adv-x="550" unicode="Й"/>
			<glyph d="M62 695H125V353H126L362 695H439L195 351L441 0H363L126 346H125V0H62Z" horiz-adv-x="452" unicode="К"/>
			<glyph d="M182 695H462V0H399V634H240Q224 378 192 237T116 43T8 -10V51Q48 51 80 99T139 288T182 695Z" horiz-adv-x="524" unicode="Л"/>
			<glyph d="M62 695H138L322 146H324L511 695H584V0H526V563H524L343 26H303L121 562H120V0H62Z" horiz-adv-x="646" unicode="М"/>
			<glyph d="M62 695H125V389H406V695H469V0H406V328H125V0H62Z" horiz-adv-x="531" unicode="Н"/>
			<glyph d="M297 707Q420 707 483 612T547 347Q547 238 516 157T428 32T295 -12Q172 -12 107 84T43 347Q43 459 74 540T162 664T297 707ZM295 645Q239 645 197 610T131 508T108 347Q108 205 158 128T294 51Q350 51 392 85T457 187T481 347Q481 491 432 568T295 645Z" horiz-adv-x="589" unicode="О"/>
			<glyph d="M62 695H476V0H413V634H125V0H62Z" horiz-adv-x="538" unicode="П"/>
			<glyph d="M62 695H199Q314 695 367 638T420 483Q420 375 361 311T195 248H125V0H62ZM125 633V310H194Q272 310 311 354T351 480Q351 554 313 593T198 633Z" horiz-adv-x="452" unicode="Р"/>
			<glyph d="M321 707Q398 707 440 686V617Q388 645 323 645Q222 645 165 566T109 350Q109 214 160 132T317 50Q385 50 437 76V13Q416 3 382 -4T309 -12Q180 -12 111 82T43 347Q43 467 79 547T179 667T321 707Z" horiz-adv-x="464" unicode="С"/>
			<glyph d="M9 695H400V634H236V0H173V634H9Z" horiz-adv-x="408" unicode="Т"/>
			<glyph d="M4 695H73L237 240L394 695H463L263 133Q236 57 199 22T100 -12Q71 -12 45 -5V58Q71 50 96 50Q137 50 160 72T203 147L206 155Z" horiz-adv-x="466" unicode="У"/>
			<glyph d="M288 715H351V638Q463 632 529 555T595 347Q595 267 567 203T484 100T351 58V-20H288V58Q169 63 106 142T43 347Q43 433 73 497T159 597T288 638ZM288 575Q205 570 156 510T108 347Q108 244 156 184T288 120ZM351 575V120Q434 125 482 185T530 347Q530 450 482 510T351 575Z" horiz-adv-x="638" unicode="Ф"/>
			<glyph d="M12 695H85L231 397L379 695H452L273 347L449 0H374L229 295L84 0H11L189 347Z" horiz-adv-x="460" unicode="Х"/>
			<glyph d="M62 695H126V63H409V695H473V63H539V-160H476V0H62Z" horiz-adv-x="554" unicode="Ц"/>
			<glyph d="M41 695H104V486Q104 405 137 367T244 329Q315 329 373 350V695H436V0H373V289Q307 267 238 267Q135 267 88 319T41 479Z" horiz-adv-x="498" unicode="Ч"/>
			<glyph d="M62 695H125V63H352V695H415V63H642V695H705V0H62Z" horiz-adv-x="768" unicode="Ш"/>
			<glyph d="M62 695H125V63H352V695H415V63H642V695H705V63H772V-160H709V0H62Z" horiz-adv-x="787" unicode="Щ"/>
			<glyph d="M9 695H249V420H331Q447 420 501 366T555 220Q555 120 496 60T326 0H186V634H9ZM249 358V62H327Q406 62 446 102T486 217Q486 284 447 321T330 358Z" horiz-adv-x="586" unicode="Ъ"/>
			<glyph d="M62 695H125V420H208Q324 420 377 366T431 220Q431 120 372 60T203 0H62ZM125 358V62H203Q282 62 322 102T362 217Q362 284 323 321T206 358ZM520 695H583V0H520Z" horiz-adv-x="645" unicode="Ы"/>
			<glyph d="M62 695H125V420H208Q324 420 377 366T431 220Q431 120 372 60T203 0H62ZM125 358V62H203Q282 62 322 102T362 217Q362 284 323 321T206 358Z" horiz-adv-x="462" unicode="Ь"/>
			<glyph d="M163 707Q294 707 358 620T422 356Q422 171 344 79T140 -12Q70 -12 22 7V76Q79 50 140 50Q237 50 292 119T354 321H80V386H354Q349 512 301 578T155 645Q117 645 84 637T31 619V682Q50 691 86 699T163 707Z" horiz-adv-x="464" unicode="Э"/>
			<glyph d="M459 707Q577 707 638 612T699 347Q699 238 669 157T584 32T456 -12Q343 -12 281 76T214 319H125V0H62V695H125V379H215Q219 481 250 555T334 668T459 707ZM456 645Q404 645 364 610T301 508T279 347Q279 205 327 128T455 51Q508 51 548 85T611 187T633 347Q633 491 586 568T456 645Z" horiz-adv-x="741" unicode="Ю"/>
			<glyph d="M262 695H403V0H340V284H242L99 0H22L177 298Q120 309 82 355T45 480Q45 580 102 637T262 695ZM263 637Q192 637 151 597T111 485Q111 417 146 380T255 344H340V637Z" horiz-adv-x="465" unicode="Я"/>
			<glyph d="M195 486Q272 486 308 445T344 328V23Q320 10 282 0T203 -10Q124 -10 82 28T40 137Q40 205 83 245T207 286Q252 286 284 278V320Q284 376 260 403T185 431Q153 431 123 422T73 401V458Q92 469 125 477T195 486ZM211 236Q157 236 129 211T101 140Q101 95 128 69T208 43Q229 43 250 47T284 58V227Q248 236 211 236Z" horiz-adv-x="399" unicode="а"/>
			<glyph d="M382 740V680Q345 670 299 655T223 628Q165 604 136 551T97 403H99Q115 437 152 460T241 483Q323 483 369 422T416 237Q416 119 363 54T225 -10Q126 -10 80 62T35 277Q35 456 75 553T206 684Q244 699 293 714T382 740ZM228 428Q166 428 132 377T98 242Q98 156 129 101T226 46Q285 46 319 95T354 237Q354 330 321 379T228 428Z" horiz-adv-x="452" unicode="б"/>
			<glyph d="M59 476H207Q277 476 314 445T352 358Q352 317 330 289T277 250V248Q315 239 340 212T365 137Q365 76 323 38T207 0H59ZM119 424V272H199Q242 272 266 293T291 351Q291 424 203 424ZM119 222V52H204Q251 52 277 75T304 140Q304 222 198 222Z" horiz-adv-x="406" unicode="в"/>
			<glyph d="M59 476H308V421H119V0H59Z" horiz-adv-x="316" unicode="г"/>
			<glyph d="M130 476H361V56H411V-160H354V0H65V-160H8V56H46Q77 116 97 208T130 476ZM184 419Q175 284 156 198T109 56H301V419Z" horiz-adv-x="431" unicode="д"/>
			<glyph d="M217 486Q379 486 379 274Q379 247 377 223H98Q98 138 136 92T247 46Q311 46 357 74V18Q336 7 304 -1T236 -10Q140 -10 87 52T35 231Q35 354 83 420T217 486ZM216 433Q163 433 133 391T99 272H318Q318 433 216 433Z" horiz-adv-x="408" unicode="е"/>
			<glyph d="M3 476H73L214 254H215V476H274V254H275L417 476H486L338 251L487 0H418L275 249H274V0H215V249H214L71 0H2L151 251Z" horiz-adv-x="489" unicode="ж"/>
			<glyph d="M150 487Q220 487 258 453T296 360Q296 267 214 243V241Q305 220 305 130Q305 62 261 24T136 -13Q70 -13 24 8V68Q42 57 72 49T133 42Q188 42 215 65T243 131Q243 213 122 213H76V266H121Q177 266 205 288T234 355Q234 390 210 411T139 432Q111 432 83 425T33 406V462Q52 473 84 480T150 487Z" horiz-adv-x="347" unicode="з"/>
			<glyph d="M58 476H117V225Q117 148 116 110H119L334 476H391V0H332V251Q332 328 333 366H330L115 0H58Z" horiz-adv-x="449" unicode="и"/>
			<glyph d="M112 688H157Q166 595 225 595Q256 595 273 620T293 688H339Q335 622 305 585T225 548Q174 548 145 585T112 688ZM58 476H117V225Q117 148 116 110H119L334 476H391V0H332V251Q332 328 333 366H330L115 0H58Z" horiz-adv-x="449" unicode="й"/>
			<glyph d="M58 476H118V255H120L300 476H374L188 252L373 0H300L120 249H118V0H58Z" horiz-adv-x="375" unicode="к"/>
			<glyph d="M126 476H352V0H292V421H179Q168 250 144 156T87 27T5 -7V49Q33 49 56 80T97 205T126 476Z" horiz-adv-x="411" unicode="л"/>
			<glyph d="M58 476H142L273 105H276L407 476H489V0H434V393H431L297 18H251L117 392H115V0H58Z" horiz-adv-x="546" unicode="м"/>
			<glyph d="M58 476H118V271H315V476H375V0H315V216H118V0H58Z" horiz-adv-x="433" unicode="н"/>
			<glyph d="M226 486Q315 486 364 425T413 240Q413 118 362 54T224 -10Q134 -10 84 53T35 240Q35 364 86 425T226 486ZM226 430Q165 430 131 382T97 240Q97 143 130 94T224 46Q283 46 317 95T351 240Q351 333 319 381T226 430Z" horiz-adv-x="448" unicode="о"/>
			<glyph d="M58 476H382V0H322V421H118V0H58Z" horiz-adv-x="441" unicode="п"/>
			<glyph d="M198 486Q299 486 350 422T402 245Q402 163 374 105T299 19T191 -10Q147 -10 118 1V-235H58V451Q123 486 198 486ZM193 431Q152 431 118 415V58Q129 53 148 49T189 46Q257 46 298 95T340 242Q340 329 304 380T193 431Z" horiz-adv-x="437" unicode="р"/>
			<glyph d="M244 486Q282 486 323 475V415Q310 421 289 425T246 430Q178 430 137 380T97 239Q97 142 137 94T245 46Q270 46 292 51T328 64V8Q292 -10 238 -10Q143 -10 89 55T35 236Q35 316 62 372T136 457T244 486Z" horiz-adv-x="352" unicode="с"/>
			<glyph d="M12 476H347V421H210V0H150V421H12Z" horiz-adv-x="359" unicode="т"/>
			<glyph d="M0 476H64L141 205Q161 133 175 67H178Q186 102 207 172Q210 182 212 190T217 206L300 476H363L134 -235H71L144 -12Z" horiz-adv-x="363" unicode="у"/>
			<glyph d="M247 738H306V488Q405 483 462 418T520 238Q520 122 462 56T306 -14V-235H247V-14Q150 -9 92 56T35 238Q35 354 92 418T247 488ZM247 429Q97 420 97 238Q97 145 136 97T247 44ZM306 429V44Q379 49 418 97T458 238Q458 329 419 376T306 429Z" horiz-adv-x="554" unicode="ф"/>
			<glyph d="M9 476H78L178 285L280 476H348L219 241L353 0H282L178 195L74 0H6L137 240Z" horiz-adv-x="356" unicode="х"/>
			<glyph d="M58 476H118V56H315V476H375V56H418V-160H360V0H58Z" horiz-adv-x="438" unicode="ц"/>
			<glyph d="M34 476H94V338Q94 287 116 259T198 231Q222 231 245 235T283 244V476H343V0H283V188Q236 175 190 175Q34 175 34 328Z" horiz-adv-x="402" unicode="ч"/>
			<glyph d="M58 476H118V56H274V476H334V56H489V476H549V0H58Z" horiz-adv-x="607" unicode="ш"/>
			<glyph d="M58 476H118V56H274V476H334V56H489V476H549V56H593V-160H534V0H58Z" horiz-adv-x="607" unicode="щ"/>
			<glyph d="M12 476H194V305H268Q350 305 389 266T429 159Q429 87 386 43T260 0H134V421H12ZM194 252V53H259Q366 53 366 156Q366 203 341 227T263 252Z" horiz-adv-x="449" unicode="ъ"/>
			<glyph d="M58 476H118V305H192Q274 305 313 266T353 159Q353 87 310 43T184 0H58ZM118 252V53H183Q290 53 290 156Q290 203 265 227T187 252ZM409 476H469V0H409Z" horiz-adv-x="528" unicode="ы"/>
			<glyph d="M58 476H118V305H192Q274 305 313 266T353 159Q353 87 310 43T184 0H58ZM118 252V53H183Q290 53 290 156Q290 203 265 227T187 252Z" horiz-adv-x="373" unicode="ь"/>
			<glyph d="M127 486Q224 486 272 426T321 251Q321 124 264 57T109 -10Q57 -10 21 2V61Q56 46 108 46Q244 46 257 215H70V266H258Q254 352 219 391T120 431Q94 431 68 424T29 410V467Q43 474 69 480T127 486Z" horiz-adv-x="355" unicode="э"/>
			<glyph d="M368 486Q454 486 501 425T548 240Q548 118 498 54T365 -10Q284 -10 237 45T184 210H118V0H58V476H118V266H184Q189 377 238 431T368 486ZM368 430Q311 430 278 381T246 240Q246 144 277 95T365 47Q421 47 453 95T485 240Q485 333 455 381T368 430Z" horiz-adv-x="582" unicode="ю"/>
			<glyph d="M196 476H324V0H264V184H176L78 0H11L119 196Q77 210 54 243T31 325Q31 393 74 434T196 476ZM195 422Q146 422 118 395T91 327Q91 286 115 261T188 237H264V422Z" horiz-adv-x="382" unicode="я"/>
			<glyph d="M217 486Q379 486 379 274Q379 247 377 223H98Q98 138 136 92T247 46Q311 46 357 74V18Q336 7 304 -1T236 -10Q140 -10 87 52T35 231Q35 354 83 420T217 486ZM216 433Q163 433 133 391T99 272H318Q318 433 216 433ZM108 711H171L268 561H212Z" horiz-adv-x="408" unicode="ѐ"/>
			<glyph d="M217 486Q379 486 379 274Q379 247 377 223H98Q98 138 136 92T247 46Q311 46 357 74V18Q336 7 304 -1T236 -10Q140 -10 87 52T35 231Q35 354 83 420T217 486ZM216 433Q163 433 133 391T99 272H318Q318 433 216 433ZM124 643H182V575H124ZM252 643H309V575H252Z" horiz-adv-x="408" unicode="ё"/>
			<glyph d="M58 738H118V639H250V585H118V462Q170 486 234 486Q307 486 344 446T382 329V-81Q382 -158 349 -200T249 -243Q220 -243 198 -237V-180Q214 -187 241 -187Q322 -187 322 -78V317Q322 430 220 430Q166 430 118 406V0H58V585H0V639H58Z" horiz-adv-x="439" unicode="ђ"/>
			<glyph d="M59 476H308V421H119V0H59ZM241 711H304L200 561H144Z" horiz-adv-x="316" unicode="ѓ"/>
			<glyph d="M246 486Q287 486 326 475V416Q284 431 247 431Q183 431 143 388T98 266H288V215H98Q103 129 143 87T247 45Q272 45 294 51T332 64V8Q318 1 294 -4T239 -10Q143 -10 89 55T35 236Q35 316 62 372T137 457T246 486Z" horiz-adv-x="352" unicode="є"/>
			<glyph d="M180 486Q231 486 269 472V411Q225 431 183 431Q140 431 118 410T96 356Q96 322 114 302T176 261Q218 239 240 222T274 181T286 117Q286 63 249 25T142 -12Q112 -12 84 -5T38 12V75Q90 44 140 44Q183 44 204 64T226 116Q226 140 217 155T191 182T140 212Q84 241 59 271T34 355Q34 415 73 450T180 486Z" horiz-adv-x="316" unicode="ѕ"/>
			<glyph d="M53 667H124V591H53ZM58 476H118V0H58Z" horiz-adv-x="177" unicode="і"/>
			<glyph d="M58 476H118V0H58ZM-5 643H53V575H-5ZM123 643H180V575H123Z" horiz-adv-x="177" unicode="ї"/>
			<glyph d="M53 667H124V591H53ZM58 476H118V-81Q118 -158 85 -200T-15 -243Q-46 -243 -66 -237V-180Q-60 -183 -48 -185T-24 -187Q58 -187 58 -78Z" horiz-adv-x="177" unicode="ј"/>
			<glyph d="M126 476H352V305H425Q507 305 546 266T586 159Q586 87 543 43T417 0H292V421H179Q168 250 144 156T87 27T5 -7V49Q33 49 56 80T97 205T126 476ZM352 252V53H416Q523 53 523 156Q523 203 498 227T420 252Z" horiz-adv-x="606" unicode="љ"/>
			<glyph d="M58 476H118V271H315V476H375V305H448Q530 305 569 266T609 159Q609 87 566 43T440 0H315V216H118V0H58ZM375 252V53H440Q495 53 521 80T547 156Q547 203 522 227T443 252Z" horiz-adv-x="629" unicode="њ"/>
			<glyph d="M58 738H118V639H250V585H118V462Q170 486 234 486Q307 486 344 446T382 329V0H322V317Q322 430 220 430Q166 430 118 406V0H58V585H0V639H58Z" horiz-adv-x="439" unicode="ћ"/>
			<glyph d="M58 476H118V255H120L300 476H374L188 252L373 0H300L120 249H118V0H58ZM249 711H312L208 561H152Z" horiz-adv-x="375" unicode="ќ"/>
			<glyph d="M58 476H117V225Q117 148 116 110H119L334 476H391V0H332V251Q332 328 333 366H330L115 0H58ZM117 711H180L277 561H221Z" horiz-adv-x="449" unicode="ѝ"/>
			<glyph d="M69 688H114Q123 595 182 595Q213 595 230 620T250 688H296Q292 622 262 585T182 548Q131 548 102 585T69 688ZM0 476H64L141 205Q161 133 175 67H178Q186 102 207 172Q210 182 212 190T217 206L300 476H363L134 -235H71L144 -12Z" horiz-adv-x="363" unicode="ў"/>
			<glyph d="M58 476H118V56H315V476H375V0H247V-160H187V0H58Z" horiz-adv-x="433" unicode="џ"/>
			<glyph d="M322 847H382V634H126V0H62V695H322Z" horiz-adv-x="391" unicode="Ґ"/>
			<glyph d="M248 634H308V421H119V0H59V476H248Z" horiz-adv-x="316" unicode="ґ"/>
			<glyph d="M62 695H382V634H126V362H268V303H126V0H62V303H-2V362H62Z" horiz-adv-x="391" unicode="Ғ"/>
			<glyph d="M59 476H308V421H119V252H225V198H119V0H59V198H6V252H59Z" horiz-adv-x="321" unicode="ғ"/>
			<glyph d="M13 695H91L296 353H297V695H360V353H361L566 695H644L430 351L609 63H670V-160H608V0H570L361 346H360V0H297V346H296L87 0H9L227 351Z" horiz-adv-x="679" unicode="Җ"/>
			<glyph d="M3 476H73L214 254H215V476H274V254H275L417 476H486L338 251L454 56H504V-160H446V0H418L275 249H274V0H215V249H214L71 0H2L151 251Z" horiz-adv-x="507" unicode="җ"/>
			<glyph d="M62 695H125V353H126L362 695H439L195 351L397 63H462V-160H400V0H363L126 346H125V0H62Z" horiz-adv-x="471" unicode="Қ"/>
			<glyph d="M58 476H118V255H120L300 476H374L188 252L332 56H377V-160H319V0H291V12L120 249H118V0H58Z" horiz-adv-x="374" unicode="қ"/>
			<glyph d="M62 695H125V380H175V547H224V380H225L413 695H489L275 351L493 0H417L226 319H224V143H175V319H125V0H62Z" horiz-adv-x="501" unicode="Ҝ"/>
			<glyph d="M58 476H119V276H161V391H206V276H207L335 476H409L260 251L409 0H335L207 223H206V107H161V223H119V0H58Z" horiz-adv-x="411" unicode="ҝ"/>
			<glyph d="M62 695H125V389H406V695H469V63H530V-160H468V0H406V328H125V0H62Z" horiz-adv-x="546" unicode="Ң"/>
			<glyph d="M58 476H118V271H315V476H375V56H419V-160H360V0H315V216H118V0H58Z" horiz-adv-x="433" unicode="ң"/>
			<glyph d="M-4 695H67L212 332L362 695H431L243 252V0H180V252Z" horiz-adv-x="424" unicode="Ү"/>
			<glyph d="M0 475H66L149 198Q175 108 184 72H185Q206 150 221 200L304 475H370L215 0V-235H155V0Z" horiz-adv-x="370" unicode="ү"/>
			<glyph d="M-4 695H67L212 332L362 695H431L265 305H375V246H243V0H180V246H48V305H158Z" horiz-adv-x="424" unicode="Ұ"/>
			<glyph d="M0 475H66L149 198Q175 108 184 72H185Q206 150 221 200L304 475H370L218 9H294V-46H215V-235H155V-46H76V9H152Z" horiz-adv-x="370" unicode="ұ"/>
			<glyph d="M12 695H85L231 397L379 695H452L273 347L417 63H472V-160H410V0H374L229 295L84 0H11L189 347Z" horiz-adv-x="480" unicode="Ҳ"/>
			<glyph d="M9 476H78L178 285L280 476H348L219 241L322 56H368V-160H310V0H282L178 195L74 0H6L137 240Z" horiz-adv-x="371" unicode="ҳ"/>
			<glyph d="M41 695H104V486Q104 414 130 376T213 331V535H267V330Q325 332 373 350V695H436V0H373V289Q317 271 267 268V130H213V268Q124 274 82 326T41 479Z" horiz-adv-x="498" unicode="Ҹ"/>
			<glyph d="M34 476H94V340Q94 296 110 268T168 233V363H214V230Q252 232 287 244V476H347V0H287V188Q254 179 214 176V79H168V176Q34 189 34 330Z" horiz-adv-x="402" unicode="ҹ"/>
			<glyph d="M62 695H125V406Q191 428 260 428Q363 428 410 375T457 216V0H394V209Q394 290 360 328T254 366Q183 366 125 345V0H62Z" horiz-adv-x="498" unicode="Һ"/>
			<glyph d="M59 476H119V288Q166 301 212 301Q368 301 368 148V0H308V138Q308 189 285 217T204 245Q180 245 157 241T119 232V0H59Z" horiz-adv-x="402" unicode="һ"/>
			<glyph d="M250 707Q375 707 443 619T511 359Q511 181 446 84T261 -12Q33 -12 33 305Q33 347 36 371H446Q444 499 392 572T240 646Q188 646 147 634T71 602V667Q109 685 149 696T250 707ZM99 315Q99 183 136 116T264 50Q433 50 445 315Z" horiz-adv-x="554" unicode="Ә"/>
			<glyph d="M172 486Q268 486 320 424T373 245Q373 122 325 56T191 -10Q29 -10 29 202Q29 229 31 253H310Q310 338 271 384T161 430Q97 430 51 402V458Q72 469 104 477T172 486ZM90 204Q90 43 192 43Q245 43 275 84T309 204Z" horiz-adv-x="408" unicode="ә"/>
			<glyph d="M297 707Q420 707 483 612T547 347Q547 238 516 157T428 32T295 -12Q172 -12 107 84T43 347Q43 459 74 540T162 664T297 707ZM295 645Q216 645 166 576T109 381H480Q475 508 426 576T295 645ZM108 325Q112 193 162 122T294 51Q375 51 425 123T480 325Z" horiz-adv-x="589" unicode="Ө"/>
			<glyph d="M226 486Q315 486 364 425T413 240Q413 118 362 54T224 -10Q134 -10 84 53T35 240Q35 364 86 425T226 486ZM226 430Q170 430 136 388T98 266H351Q347 347 314 388T226 430ZM98 216Q102 131 134 88T224 46Q280 46 313 88T351 216Z" horiz-adv-x="448" unicode="ө"/>
			<glyph d="M17 695H81L179 214Q192 141 196 104H197Q203 145 221 213L345 695H400L509 210Q524 144 530 99H531Q537 138 553 212L655 695H719L561 -5H500L399 431Q378 524 370 581H368Q349 484 335 429L225 -5H163ZM268 895H332L415 764H361Z" horiz-adv-x="739" unicode="Ẁ"/>
			<glyph d="M0 476H62L135 159Q144 124 150 83H153Q161 131 175 175L260 476H315L394 160Q400 137 405 109Q411 81 410 83H413Q427 151 430 163L516 476H577L444 0H379L307 275Q289 350 284 383H282Q269 318 256 275L178 0H115ZM179 711H242L339 561H283Z" horiz-adv-x="575" unicode="ẁ"/>
			<glyph d="M17 695H81L179 214Q192 141 196 104H197Q203 145 221 213L345 695H400L509 210Q524 144 530 99H531Q537 138 553 212L655 695H719L561 -5H500L399 431Q378 524 370 581H368Q349 484 335 429L225 -5H163ZM414 895H478L385 764H331Z" horiz-adv-x="739" unicode="Ẃ"/>
			<glyph d="M0 476H62L135 159Q144 124 150 83H153Q161 131 175 175L260 476H315L394 160Q400 137 405 109Q411 81 410 83H413Q427 151 430 163L516 476H577L444 0H379L307 275Q289 350 284 383H282Q269 318 256 275L178 0H115ZM337 711H400L296 561H240Z" horiz-adv-x="575" unicode="ẃ"/>
			<glyph d="M17 695H81L179 214Q192 141 196 104H197Q203 145 221 213L345 695H400L509 210Q524 144 530 99H531Q537 138 553 212L655 695H719L561 -5H500L399 431Q378 524 370 581H368Q349 484 335 429L225 -5H163ZM278 835H336V767H278ZM406 835H463V767H406Z" horiz-adv-x="739" unicode="Ẅ"/>
			<glyph d="M0 476H62L135 159Q144 124 150 83H153Q161 131 175 175L260 476H315L394 160Q400 137 405 109Q411 81 410 83H413Q427 151 430 163L516 476H577L444 0H379L307 275Q289 350 284 383H282Q269 318 256 275L178 0H115ZM195 643H253V575H195ZM323 643H380V575H323Z" horiz-adv-x="575" unicode="ẅ"/>
			<glyph d="M259 707Q357 707 404 650T457 510L305 393Q386 370 430 321T474 189Q474 136 453 90T388 16T280 -12Q257 -12 231 -7T190 5V68Q228 48 275 48Q317 48 347 68T393 120T408 187Q408 259 367 296T236 355V408L384 529Q379 578 347 612T258 646Q191 646 154 601T117 467V0H53V470Q53 585 107 646T259 707Z" horiz-adv-x="506" unicode="ẞ"/>
			<glyph d="M-4 695H67L212 332L362 695H431L243 252V0H180V252ZM109 895H173L256 764H202Z" horiz-adv-x="424" unicode="Ỳ"/>
			<glyph d="M0 476H64L141 205Q161 133 175 67H178Q186 102 207 172Q210 182 212 190T217 206L300 476H363L134 -235H71L144 -12ZM74 711H137L234 561H178Z" horiz-adv-x="363" unicode="ỳ"/>
			<glyph d="M37 289H359V228H37Z" horiz-adv-x="396" unicode="–"/>
			<glyph d="M37 289H524V228H37Z" horiz-adv-x="561" unicode="—"/>
			<glyph d="M101 716H149L72 428H8Z" horiz-adv-x="159" unicode="‘"/>
			<glyph d="M87 716H151L58 428H10Z" horiz-adv-x="159" unicode="’"/>
			<glyph d="M87 129H151L58 -159H10Z" horiz-adv-x="159" unicode="‚"/>
			<glyph d="M101 716H149L72 428H8ZM232 716H280L203 428H139Z" horiz-adv-x="290" unicode="“"/>
			<glyph d="M89 716H153L60 428H12ZM219 716H283L190 428H142Z" horiz-adv-x="291" unicode="”"/>
			<glyph d="M87 129H151L58 -159H10ZM218 129H282L189 -159H141Z" horiz-adv-x="290" unicode="„"/>
			<glyph d="M144 695H204L202 503L327 506V445L202 449L199 -59H149L147 449L23 445V506L147 503Z" horiz-adv-x="350" unicode="†"/>
			<glyph d="M144 695H204L202 507L327 510V448L202 453L199 319L202 183L327 188V126L202 130L204 -59H144L147 130L23 126V188L147 183L148 319L147 453L23 448V510L147 507Z" horiz-adv-x="350" unicode="‡"/>
			<glyph d="M60 408H222V246H60Z" horiz-adv-x="282" unicode="•"/>
			<glyph d="M226 85H299V0H226ZM402 85H475V0H402ZM51 85H124V0H51Z" horiz-adv-x="526" unicode="…"/>
			<glyph d="M156 707Q214 707 248 661T282 524Q282 435 247 387T156 339Q97 339 63 386T29 524Q29 615 63 661T156 707ZM462 695H518L137 0H82ZM156 658Q120 658 100 623T80 524Q80 457 100 422T156 387Q191 387 211 422T231 524Q231 588 211 623T156 658ZM444 357Q503 357 537 311T571 173Q571 84 536 36T444 -12Q385 -12 351 35T317 173Q317 264 352 310T444 357ZM736 357Q795 357 828 311T862 173Q862 84 827 36T736 -12Q677 -12 643 35T609 173Q609 264 644 310T736 357ZM444 308Q409 308 388 273T368 173Q368 107 388 72T444 37Q479 37 499 72T520 173Q520 237 499 272T444 308ZM736 308Q700 308 680 273T660 173Q660 107 680 72T736 37Q771 37 791 72T812 173Q812 237 791 272T736 308Z" horiz-adv-x="891" unicode="‰"/>
			<glyph d="M118 413H178L85 234L178 55H118L26 234Z" horiz-adv-x="203" unicode="‹"/>
			<glyph d="M25 413H85L177 234L85 55H25L118 234Z" horiz-adv-x="203" unicode="›"/>
			<glyph d="M203 695H263L-104 0H-163Z" horiz-adv-x="99" unicode="⁄"/>
			<glyph d="M152 795Q218 795 249 738T281 559Q281 446 248 383T151 320Q86 320 53 378T21 559Q21 795 152 795ZM152 744Q116 744 96 701T76 572Q76 463 95 417T151 371Q226 371 226 558Q226 655 208 699T152 744Z" horiz-adv-x="303" unicode="⁰"/>
			<glyph d="M171 785H229V476H284V431H229V330H179V431H12V476ZM177 706Q173 692 155 656L63 476H179V706Z" horiz-adv-x="303" unicode="⁴"/>
			<glyph d="M59 785H247V735H106L99 602Q113 606 135 606Q195 606 228 570T261 470Q261 401 222 359T113 318Q67 318 39 332V383Q51 376 70 371T110 367Q156 367 180 394T204 466Q204 561 111 561Q78 561 48 551Z" horiz-adv-x="303" unicode="⁵"/>
			<glyph d="M151 785H211L121 596H122Q130 601 143 605T169 610Q219 610 247 573T275 470Q275 403 243 360T150 318Q96 318 63 355T30 463Q30 501 38 532T66 604ZM156 565Q122 565 104 539T86 466Q86 415 103 390T152 366Q183 366 201 392T219 467Q219 565 156 565Z" horiz-adv-x="303" unicode="⁶"/>
			<glyph d="M25 785H272V746L121 330H63L211 736H25Z" horiz-adv-x="303" unicode="⁷"/>
			<glyph d="M151 796Q204 796 233 764T262 675Q262 595 207 567V565Q240 552 256 524T273 451Q273 387 240 353T150 320Q92 320 60 353T29 448Q29 542 94 565V566Q39 593 39 674Q39 730 69 763T151 796ZM153 749Q126 749 109 728T93 670Q93 632 108 611T150 591Q178 591 193 611T209 670Q209 708 194 728T153 749ZM150 538Q119 538 101 516T84 452Q84 410 101 388T151 367Q182 367 199 388T217 452Q217 495 199 516T150 538Z" horiz-adv-x="303" unicode="⁸"/>
			<glyph d="M152 797Q206 797 239 760T272 654Q272 616 263 583T234 509L151 330H91L180 518L179 519Q158 506 135 506Q84 506 55 543T27 646Q27 713 59 755T152 797ZM150 749Q119 749 101 722T83 649Q83 551 149 551Q182 551 199 577T216 651Q216 701 198 725T150 749Z" horiz-adv-x="303" unicode="⁹"/>
			<glyph d="M152 365Q218 365 249 308T281 129Q281 16 248 -47T151 -110Q86 -110 53 -52T21 129Q21 365 152 365ZM152 314Q116 314 96 271T76 142Q76 33 95 -13T151 -59Q226 -59 226 128Q226 225 208 269T152 314Z" horiz-adv-x="303" unicode="₀"/>
			<glyph d="M162 367H193V-100H140V298L47 236V295Z" horiz-adv-x="303" unicode="₁"/>
			<glyph d="M139 367Q198 367 229 336T261 247Q261 200 239 157T168 52L94 -48H264V-100H32V-50L134 85Q172 136 189 170T206 239Q206 276 187 296T129 317Q104 317 82 310T45 294V345Q89 367 139 367Z" horiz-adv-x="303" unicode="₂"/>
			<glyph d="M123 365Q187 365 218 331T249 246Q249 203 227 173T169 133V131Q256 110 256 21Q256 -37 218 -73T109 -110Q85 -110 64 -106T32 -96V-45Q44 -51 64 -56T103 -61Q150 -61 174 -40T199 21Q199 63 173 83T93 104H71V155H90Q141 155 166 177T192 239Q192 274 171 294T109 315Q89 315 69 311T39 302V351Q79 365 123 365Z" horiz-adv-x="303" unicode="₃"/>
			<glyph d="M171 355H229V46H284V1H229V-100H179V1H12V46ZM177 276Q173 262 155 226L63 46H179V276Z" horiz-adv-x="303" unicode="₄"/>
			<glyph d="M59 355H247V305H106L99 172Q113 176 135 176Q195 176 228 140T261 40Q261 -29 222 -70T113 -112Q67 -112 39 -98V-47Q51 -54 70 -58T110 -63Q156 -63 180 -36T204 36Q204 131 111 131Q78 131 48 121Z" horiz-adv-x="303" unicode="₅"/>
			<glyph d="M151 355H211L121 166H122Q130 171 143 175T169 180Q219 180 247 143T275 40Q275 -27 243 -69T150 -112Q96 -112 63 -74T30 33Q30 71 38 102T66 174ZM156 135Q122 135 104 109T86 36Q86 -15 103 -39T152 -64Q183 -64 201 -37T219 37Q219 135 156 135Z" horiz-adv-x="303" unicode="₆"/>
			<glyph d="M25 355H272V316L121 -100H63L211 306H25Z" horiz-adv-x="303" unicode="₇"/>
			<glyph d="M151 366Q204 366 233 334T262 245Q262 165 207 137V135Q240 122 256 94T273 21Q273 -43 240 -76T150 -110Q92 -110 60 -77T29 18Q29 112 94 135V136Q39 163 39 244Q39 300 69 333T151 366ZM153 319Q126 319 109 298T93 240Q93 202 108 181T150 161Q178 161 193 181T209 240Q209 278 194 298T153 319ZM150 108Q119 108 101 86T84 22Q84 -20 101 -41T151 -63Q182 -63 199 -41T217 22Q217 65 199 86T150 108Z" horiz-adv-x="303" unicode="₈"/>
			<glyph d="M152 367Q206 367 239 330T272 224Q272 186 263 153T234 79L151 -100H91L180 88L179 89Q158 76 135 76Q84 76 55 113T27 216Q27 283 59 325T152 367ZM150 319Q119 319 101 292T83 219Q83 121 149 121Q182 121 199 147T216 221Q216 271 198 295T150 319Z" horiz-adv-x="303" unicode="₉"/>
			<glyph d="M310 709Q346 709 388 698V636Q356 648 310 648Q239 648 200 601T150 455H334V402H143Q142 385 142 352Q142 305 144 283H334V229H150Q159 132 198 89T308 47Q350 47 390 61V1Q351 -14 300 -14Q193 -14 145 47T85 229H22V283H80Q78 327 78 351Q78 385 79 402H22V455H85Q100 588 157 648T310 709Z" unicode="€"/>
			<glyph d="M53 695H383V637H229Q264 620 285 585T311 503H383V445H312Q305 369 261 322T161 259L349 0H269L93 246H53V304H88Q152 304 194 342T244 445H53V503H245Q238 569 196 603T87 637H53Z" unicode="₹"/>
			<glyph d="M72 695H134V496L255 601V535L134 430V298L255 402V336L134 232V60Q154 54 191 54Q261 54 303 90T360 185L418 172Q397 90 339 42T182 -6Q119 -6 72 8V181L4 123V189L72 247V380L4 321V387L72 446Z" unicode="₺"/>
			<glyph d="M70 695H181Q293 695 346 644T400 510Q400 417 341 360T177 303H132V194H314V141H132V0H70V141H1V194H70ZM132 633V366H177Q254 366 293 403T332 507Q332 567 294 600T181 633Z" horiz-adv-x="422" unicode="₽"/>
			<glyph d="M224 712Q265 712 290 679T315 594Q315 519 281 449T176 280V117Q176 76 190 58T225 41Q245 41 259 52T291 87L324 58Q299 22 274 4T211 -14Q167 -14 143 17T119 108V222L74 160L40 189L119 294V550Q119 633 147 672T224 712ZM222 656Q176 656 176 550V355Q218 422 241 479T264 588Q264 621 252 638T222 656Z" horiz-adv-x="382" unicode="ℓ"/>
			<glyph d="M689 706Q770 706 814 651T858 482Q858 371 812 313T686 256Q605 256 560 312T515 482Q515 594 562 650T689 706ZM62 695H124L388 135H390Q389 172 389 257V695H447V0H389L120 561H119Q120 507 120 392V0H62ZM689 655Q634 655 602 611T571 482Q571 395 601 351T686 307Q740 307 771 351T802 482Q802 567 773 611T689 655ZM528 179H849V123H528Z" horiz-adv-x="888" unicode="№"/>
			<glyph d="M12 695H222V649H139V330H94V649H12ZM255 695H314L396 430H397L482 695H539V330H497L496 605H495L412 341H380L299 605H297V330H255Z" horiz-adv-x="572" unicode="™"/>
			<glyph d="M289 708Q404 708 468 624T533 390Q533 265 492 192T386 88V58H534V0H332V116Q393 137 430 203T468 384Q468 508 420 578T287 648Q235 648 194 618T129 528T106 384Q106 270 143 204T243 116V0H41V58H189V88Q42 156 42 388Q42 493 75 565T164 672T289 708Z" horiz-adv-x="575" unicode="Ω"/>
			<glyph d="M442 707Q563 707 652 656T789 521T836 336H208Q202 336 198 332T194 323V152Q194 136 197 126T210 107Q304 13 442 13Q516 13 581 44T688 126H758Q718 69 637 28T442 -12Q325 -12 235 34T97 161T48 346Q48 448 96 530T233 659T442 707ZM442 680Q304 680 210 584Q201 576 197 567T194 542V371Q194 365 198 361T208 358H675Q681 358 685 361T689 371V542Q689 558 685 567T673 584Q577 680 442 680Z" horiz-adv-x="884" unicode="℮"/>
			<glyph d="M211 713Q294 713 336 633T379 425Q379 331 360 230T296 58T177 -14Q112 -14 74 43T37 190Q37 267 60 328T122 423T210 458Q244 458 271 437T316 385Q318 385 318 440Q318 534 289 595T206 656Q164 656 124 618L97 665Q121 689 148 701T211 713ZM217 402Q182 402 154 373T112 297T98 192Q98 124 120 83T182 42Q236 42 268 116T311 313Q298 351 273 376T217 402Z" unicode="∂"/>
			<glyph d="M202 697H281L476 0H5ZM239 607L90 61H392L241 607Z" horiz-adv-x="481" unicode="∆"/>
			<glyph d="M54 734H472V-225H409V675H116V-225H54Z" horiz-adv-x="527" unicode="∏"/>
			<glyph d="M31 734H424V675H113L320 260L98 -166H438V-225H17V-183L249 259L31 689Z" horiz-adv-x="458" unicode="∑"/>
			<glyph d="M25 329H394V275H25Z" unicode="−"/>
			<glyph d="M232 750H284L38 -49H-15Z" horiz-adv-x="272" unicode="∕"/>
			<glyph d="M49 358H122V273H49Z" horiz-adv-x="171" unicode="∙"/>
			<glyph d="M340 733H398L226 -116H167L71 248L23 229L6 275L109 317L194 -18Z" horiz-adv-x="397" unicode="√"/>
			<glyph d="M110 409Q145 409 173 388T227 333Q253 367 280 388T343 409Q390 409 418 378T447 297Q447 248 419 215T344 182Q283 182 227 255Q170 182 112 182Q65 182 36 214T7 294Q7 344 35 376T110 409ZM111 360Q87 360 73 341T60 294Q60 266 74 248T112 231Q134 231 156 249T196 295Q177 323 154 341T111 360ZM344 360Q320 360 298 342T259 295Q301 231 345 231Q368 231 381 250T395 296Q395 323 381 341T344 360Z" horiz-adv-x="453" unicode="∞"/>
			<glyph d="M293 767Q316 767 335 759T358 736Q355 711 334 699Q321 700 306 713Q293 724 284 724Q252 724 236 690T221 604L222 541V53Q222 -38 216 -91T181 -181T92 -218Q72 -218 54 -210T31 -189Q32 -178 38 -168T54 -153Q65 -155 72 -160T80 -166Q93 -177 103 -177Q135 -177 149 -136T164 -71T165 0V484L164 565Q164 660 191 713T293 767Z" horiz-adv-x="388" unicode="∫"/>
			<glyph d="M129 270Q176 270 218 241Q237 228 252 222T287 217Q329 217 360 267L401 235Q353 162 284 162Q261 162 241 169T196 193Q174 206 159 211T126 216Q84 216 53 167L13 200Q38 235 65 252T129 270ZM129 437Q176 437 218 408Q237 395 252 389T287 384Q329 384 360 434L401 402Q353 329 284 329Q261 329 241 336T196 360Q174 373 159 378T126 383Q84 383 53 334L13 367Q38 402 65 419T129 437Z" unicode="≈"/>
			<glyph d="M301 553H355L290 416H394V362H265L206 239H394V185H181L118 51H64L127 185H25V239H152L211 362H25V416H236Z" unicode="≠"/>
			<glyph d="M379 519V460L103 332V330L379 203V144L41 302V360ZM25 54H394V0H25Z" unicode="≤"/>
			<glyph d="M40 519L378 360V302L40 144V203L316 330V332L40 460ZM25 54H394V0H25Z" unicode="≥"/>
			<glyph d="M188 714H232L373 350L232 -17H188L48 350ZM211 637L108 350L211 59L314 350Z" horiz-adv-x="422" unicode="◊"/>
		</font>
</defs>
</svg>
