<?xml version="1.0" encoding="UTF-8"?>
<svg height="100%" width="100%" xmlns="http://www.w3.org/2000/svg">
	<defs>
		<font horiz-adv-x="570" id="web">
			<font-face alphabetic="0" ascent="993" descent="-267" font-family="" panose-1="2 11 8 3 2 2 4 9 2 4"/>
			<missing-glyph d="M59 700H446V0H59ZM109 650V50H396V650Z" horiz-adv-x="506"/>
			<glyph d="" horiz-adv-x="234" unicode=" "/>
			<glyph d="M136 695H286L195 230H64ZM36 157H193L166 0H9Z" horiz-adv-x="260" unicode="!"/>
			<glyph d="M112 714H241L176 415H72ZM296 714H425L360 415H256Z" horiz-adv-x="371" unicode="&quot;"/>
			<glyph d="M229 695H325L281 521H380L424 695H520L476 521H561L553 411H449L417 281H508L500 171H389L346 0H250L293 171H194L151 0H55L98 171H16L24 281H126L158 411H69L77 521H185ZM254 411L222 281H321L353 411Z" horiz-adv-x="540" unicode="#"/>
			<glyph d="M361 788H441L422 683Q470 679 513 669T577 652L553 519Q477 545 399 551L372 399Q463 365 505 326T547 220Q547 134 484 76T305 12L286 -96H206L225 14Q170 18 122 30T48 56L69 189Q96 173 146 159T247 141L274 291Q188 323 145 363T103 476Q103 561 166 619T343 684ZM319 550Q280 545 264 528T248 483Q248 462 259 449T297 426ZM349 264L328 143Q366 148 383 164T401 208Q401 228 388 240T349 264Z" horiz-adv-x="614" unicode="$"/>
			<glyph d="M274 707Q349 707 393 664T437 546Q437 458 386 394T242 331Q163 331 119 376T75 504Q75 593 130 650T274 707ZM724 695H868L232 0H88ZM263 608Q227 608 206 581T186 506Q186 430 250 430Q326 430 326 537Q326 571 310 589T263 608ZM720 364Q795 364 839 321T883 203Q883 115 832 51T688 -12Q609 -12 565 33T521 161Q521 250 576 307T720 364ZM709 265Q673 265 652 238T632 163Q632 87 696 87Q772 87 772 194Q772 228 756 246T709 265Z" horiz-adv-x="919" unicode="%"/>
			<glyph d="M432 714Q522 714 572 669T622 560Q622 489 579 444T449 362L514 267Q540 296 565 330T600 375H761Q740 346 678 266T589 157L705 0H526L479 66Q399 -14 272 -14Q156 -14 101 40T47 177Q47 265 95 316T249 409Q211 472 211 535Q211 614 269 664T432 714ZM418 597Q388 597 369 579T351 530Q351 495 378 458Q426 476 449 494T472 544Q472 569 456 583T418 597ZM310 309Q253 287 225 260T198 192Q198 153 221 132T280 111Q316 111 349 126T408 169Z" horiz-adv-x="756" unicode="&amp;"/>
			<glyph d="M112 714H241L176 415H72Z" horiz-adv-x="187" unicode="'"/>
			<glyph d="M276 770H433Q312 647 242 504T173 205Q173 13 256 -160H118Q79 -88 55 11T32 207Q32 528 276 770Z" horiz-adv-x="345" unicode="("/>
			<glyph d="M111 770H249Q288 698 311 599T335 403Q335 82 91 -160H-66Q55 -37 124 106T194 405Q194 597 111 770Z" horiz-adv-x="345" unicode=")"/>
			<glyph d="M234 712H337L323 560L469 619L502 518L350 486L454 364L364 302L285 440L205 302L114 364L219 486L68 516L100 621L244 560Z" horiz-adv-x="474" unicode="*"/>
			<glyph d="M225 546H361V371H536V235H361V60H225V235H50V371H225Z" horiz-adv-x="586" unicode="+"/>
			<glyph d="M64 157H217L31 -129H-101Z" horiz-adv-x="254" unicode=","/>
			<glyph d="M55 337H369L345 204H31Z" horiz-adv-x="391" unicode="-"/>
			<glyph d="M31 157H188L161 0H4Z" horiz-adv-x="251" unicode="."/>
			<glyph d="M423 750H548L65 -49H-59Z" horiz-adv-x="452" unicode="/"/>
			<glyph d="M356 707Q465 707 521 640T578 451Q578 352 553 247T461 65T279 -12Q167 -12 108 59T50 262Q50 360 76 461T171 634T356 707ZM344 574Q278 574 240 473T202 257Q202 186 222 156T282 127Q348 127 384 230T421 449Q421 515 402 544T344 574Z" horiz-adv-x="589" unicode="0"/>
			<glyph d="M401 712H489L364 0H210L302 520L102 432L131 595Z" horiz-adv-x="586" unicode="1"/>
			<glyph d="M353 707Q456 707 509 657T563 521Q563 445 522 383T363 236L231 141H511L487 0H7L31 135L282 331Q350 384 378 419T406 491Q406 527 384 548T308 569Q264 569 216 552T127 512L154 664Q191 683 243 695T353 707Z" horiz-adv-x="586" unicode="2"/>
			<glyph d="M330 707Q444 707 500 658T556 533Q556 461 516 414T399 351V349Q445 336 480 300T515 204Q515 108 439 48T222 -12Q155 -12 101 0T16 31L40 165Q65 150 112 135T213 121Q285 121 317 144T350 205Q350 248 314 265T211 282H140L165 421H242Q389 421 389 501Q389 537 362 554T286 571Q242 571 194 559T118 533L142 675Q176 688 226 697T330 707Z" horiz-adv-x="592" unicode="3"/>
			<glyph d="M377 695H543L468 267H575L552 140H445L421 0H275L299 140H-7L18 282ZM361 506Q340 476 298 426L164 267H322L364 506Z" horiz-adv-x="587" unicode="4"/>
			<glyph d="M178 695H578L553 554H291L265 447Q285 449 300 449Q415 449 469 393T523 246Q523 128 443 58T225 -12Q115 -12 27 31L50 163Q124 126 215 126Q290 126 327 153T365 230Q365 323 219 323Q170 323 133 319L87 314Z" horiz-adv-x="591" unicode="5"/>
			<glyph d="M346 695H533L312 433L313 431Q340 437 365 437Q445 437 498 388T551 246Q551 138 477 63T279 -12Q171 -12 107 48T44 210Q44 319 130 426ZM302 321Q251 321 225 290T200 215Q200 174 224 150T290 126Q341 126 366 157T391 232Q391 271 369 296T302 321Z" horiz-adv-x="595" unicode="6"/>
			<glyph d="M121 695H619L601 592L216 0H42L408 554H96Z" horiz-adv-x="587" unicode="7"/>
			<glyph d="M351 707Q464 707 520 657T577 532Q577 389 432 350V348Q481 332 509 295T538 203Q538 108 467 47T270 -13Q160 -13 96 39T33 177Q33 257 74 305T194 370V372Q158 389 133 427T109 513Q109 601 174 654T351 707ZM345 577Q309 577 285 557T262 499Q262 470 282 450T336 430Q370 430 394 450T419 509Q419 541 399 559T345 577ZM290 282Q242 282 216 258T190 195Q190 163 214 140T284 118Q330 118 355 141T381 202Q381 238 357 260T290 282Z" horiz-adv-x="590" unicode="8"/>
			<glyph d="M352 707Q460 707 523 646T587 485Q587 373 496 260L285 0H98L319 262L318 264Q300 260 269 260Q188 260 134 308T80 449Q80 557 153 632T352 707ZM341 569Q290 569 265 537T240 463Q240 424 262 399T329 374Q380 374 405 404T431 480Q431 521 407 545T341 569Z" horiz-adv-x="596" unicode="9"/>
			<glyph d="M31 157H188L161 0H4ZM89 487H246L219 330H62Z" horiz-adv-x="251" unicode=":"/>
			<glyph d="M64 157H217L31 -129H-101ZM89 487H246L219 330H62Z" horiz-adv-x="254" unicode=";"/>
			<glyph d="M536 569V415L214 284L536 153V0L50 215V353Z" horiz-adv-x="586" unicode="&lt;"/>
			<glyph d="M50 494H536V358H50ZM50 248H536V112H50Z" horiz-adv-x="586" unicode="="/>
			<glyph d="M50 569L536 354V216L50 0V154L372 285L50 416Z" horiz-adv-x="586" unicode="&gt;"/>
			<glyph d="M288 705Q382 705 433 658T484 530Q484 450 436 389T270 275L262 230H137L159 349Q249 386 291 423T334 507Q334 541 311 560T244 580Q180 580 99 550L120 674Q159 689 197 697T288 705ZM108 157H265L238 0H81Z" horiz-adv-x="459" unicode="?"/>
			<glyph d="M472 714Q649 714 752 626T855 387Q855 273 787 200T622 128Q582 128 556 140T520 171Q493 154 462 143T402 132Q339 132 297 177T256 297Q256 413 321 475T499 537Q582 537 659 505L622 274Q622 269 621 259Q621 227 648 227Q679 227 706 270T733 386Q733 493 664 550T472 607Q337 607 253 525T170 318Q170 193 242 124T445 56Q542 56 623 82V-30Q541 -54 451 -54Q263 -54 155 43T48 310Q48 495 166 604T472 714ZM481 431Q432 431 401 400T371 315Q371 280 390 259T446 238Q470 238 487 242L507 247L536 424Q510 431 481 431Z" horiz-adv-x="865" unicode="@"/>
			<glyph d="M370 695H514L675 0H518L485 151H220L136 0H-39ZM408 495L289 276H455L410 495Z" horiz-adv-x="722" unicode="A"/>
			<glyph d="M148 695H422Q544 695 596 648T649 528Q649 458 605 414T488 359V357Q545 348 580 311T616 210Q616 115 539 57T319 0H26ZM284 568L258 423H360Q472 423 472 500Q472 568 373 568ZM235 291L207 134H335Q392 134 419 155T447 214Q447 252 422 271T343 291Z" horiz-adv-x="657" unicode="B"/>
			<glyph d="M432 707Q513 707 561 696T662 664L638 517Q603 534 553 548T451 562Q341 562 280 498T219 322Q219 229 270 183T403 137Q463 137 509 152T598 188L575 29Q535 11 483 0T377 -12Q230 -12 141 75T53 317Q53 494 158 600T432 707Z" horiz-adv-x="644" unicode="C"/>
			<glyph d="M148 695H366Q544 695 631 610T718 371Q718 294 687 219T599 94T473 22T319 0H26ZM278 554L205 141H328Q438 141 494 205T550 370Q550 461 497 507T359 554Z" horiz-adv-x="734" unicode="D"/>
			<glyph d="M148 695H613L588 553H277L254 423H537L512 281H229L205 142H530L505 0H26Z" horiz-adv-x="579" unicode="E"/>
			<glyph d="M148 695H611L586 553H278L252 404H544L519 262H227L181 0H26Z" horiz-adv-x="548" unicode="F"/>
			<glyph d="M465 707Q588 707 693 665L669 524Q629 540 573 553T464 566Q341 566 279 500T218 316Q218 224 265 176T387 129Q415 129 435 132T479 142L500 262H346L368 391H673L613 43Q507 -12 376 -12Q221 -12 136 76T52 307Q52 494 162 600T465 707Z" horiz-adv-x="702" unicode="G"/>
			<glyph d="M148 695H301L252 419H558L607 695H761L639 0H485L534 278H228L179 0H26Z" horiz-adv-x="750" unicode="H"/>
			<glyph d="M148 695H302L180 0H26Z" horiz-adv-x="291" unicode="I"/>
			<glyph d="M365 695H520L445 269Q418 115 342 52T128 -11Q86 -11 43 -2T-25 18L-7 157Q12 148 52 139T124 131Q202 131 240 168T294 293Z" horiz-adv-x="507" unicode="J"/>
			<glyph d="M148 695H302L243 359H245L554 695H765L418 343L636 0H449L243 346H241L180 0H26Z" horiz-adv-x="685" unicode="K"/>
			<glyph d="M148 695H302L204 140H525L501 0H26Z" horiz-adv-x="554" unicode="L"/>
			<glyph d="M148 695H333L436 208H438L714 695H917L795 0H650L728 457H726L471 0H349L253 456H251L171 0H26Z" horiz-adv-x="906" unicode="M"/>
			<glyph d="M148 695H271L541 263H543Q546 293 557 362L616 695H767L645 0H524L252 430H250Q248 410 239 355L235 330L177 0H26Z" horiz-adv-x="756" unicode="N"/>
			<glyph d="M437 707Q593 707 679 623T765 396Q765 275 716 180T583 37T380 -12Q224 -12 138 73T52 311Q52 398 80 477T164 608T286 684T437 707ZM424 562Q323 562 267 493T212 315Q212 229 257 181T391 133Q493 133 549 204T606 384Q606 466 560 514T424 562Z" horiz-adv-x="778" unicode="O"/>
			<glyph d="M148 695H368Q524 695 589 637T654 477Q654 351 572 277T334 203H215L180 0H26ZM277 554L240 344H341Q411 344 450 374T489 457Q489 504 461 529T370 554Z" horiz-adv-x="651" unicode="P"/>
			<glyph d="M437 707Q593 707 679 623T765 396Q765 301 732 216T634 75L705 -34L586 -115L508 6Q451 -12 380 -12Q224 -12 138 73T52 311Q52 398 80 477T164 608T286 684T437 707ZM424 562Q323 562 267 493T212 315Q212 229 257 181T391 133Q404 133 424 135L362 231L480 312L550 205Q579 240 592 287T606 384Q606 466 560 514T424 562Z" horiz-adv-x="780" unicode="Q"/>
			<glyph d="M148 695H389Q516 695 581 641T647 488Q647 394 595 337T463 260L600 0H419L310 233H221L180 0H26ZM279 562L245 373H367Q423 373 454 399T485 472Q485 562 376 562Z" horiz-adv-x="651" unicode="R"/>
			<glyph d="M374 707Q436 707 494 695T582 672L556 530Q454 566 363 566Q247 566 247 491Q247 450 294 429T404 384T503 318T539 210Q539 110 466 49T260 -12Q184 -12 120 2T17 35L40 177Q76 157 133 141T248 125Q311 125 344 142T377 199Q377 226 353 242T266 282T162 333T103 398T87 484Q87 584 162 645T374 707Z" horiz-adv-x="575" unicode="S"/>
			<glyph d="M88 695H652L627 555H422L325 0H171L268 555H63Z" horiz-adv-x="580" unicode="T"/>
			<glyph d="M146 695H299L236 334Q224 270 224 226Q224 181 254 154T361 128Q414 128 447 135T489 143L586 695H739L621 33Q539 9 483 -1T346 -12Q199 -12 134 42T70 202Q70 262 88 366Z" horiz-adv-x="727" unicode="U"/>
			<glyph d="M84 695H238L333 203H335L597 695H773L384 0H228Z" horiz-adv-x="697" unicode="V"/>
			<glyph d="M96 695H252L285 329Q289 287 289 247Q289 231 288 215H290Q305 254 345 334L532 695H649L693 319Q700 253 700 217V209H702Q719 257 751 325L922 695H1093L744 0H599L554 323Q554 334 549 375T543 446H541Q520 394 485 326L323 0H177Z" horiz-adv-x="1029" unicode="W"/>
			<glyph d="M83 695H259L380 458L574 695H777L464 338L649 0H472L349 231L159 0H-40L268 356Z" horiz-adv-x="700" unicode="X"/>
			<glyph d="M72 695H238L337 384L550 695H738L397 232L357 0H202L242 229Z" horiz-adv-x="650" unicode="Y"/>
			<glyph d="M131 695H693L672 577L237 140H607L583 0H-12L8 114L443 555H106Z" horiz-adv-x="653" unicode="Z"/>
			<glyph d="M128 770H390L370 654H237L114 -44H247L226 -160H-36Z" horiz-adv-x="308" unicode="["/>
			<glyph d="M82 750H201L402 -49H283Z" horiz-adv-x="447" unicode="\"/>
			<glyph d="M103 770H365L201 -160H-61L-41 -44H92L215 654H82Z" horiz-adv-x="307" unicode="]"/>
			<glyph d="M223 707H361L577 298H423L293 553H291L161 298H8Z" horiz-adv-x="586" unicode="^"/>
			<glyph d="M-74 -135H450L442 -180H-82Z" horiz-adv-x="510" unicode="_"/>
			<glyph d="M95 723H232L321 554H217Z" horiz-adv-x="276" unicode="`"/>
			<glyph d="M281 500Q375 500 422 460T469 347Q469 317 453 221L418 15Q308 -13 220 -13Q18 -13 18 139Q18 298 235 298Q264 298 320 294Q324 314 324 325Q324 376 244 376Q180 376 90 351L113 475Q145 485 190 492T281 500ZM237 206Q199 206 180 192T162 150Q162 125 179 112T228 99Q256 99 288 105L305 201Q273 206 237 206Z" horiz-adv-x="511" unicode="a"/>
			<glyph d="M145 738H291L246 484Q262 490 286 495T336 500Q438 500 491 439T545 276Q545 191 507 122T404 20T246 -14Q176 -14 118 1T23 40ZM290 367Q261 367 244 361L223 354L184 133Q214 120 259 120Q324 120 359 159T394 263Q394 314 367 340T290 367Z" horiz-adv-x="573" unicode="b"/>
			<glyph d="M320 500Q357 500 393 493T451 478L430 349Q407 359 381 365T320 371Q252 371 215 331T179 227Q179 172 211 144T296 116Q341 116 400 137L379 4Q323 -14 261 -14Q156 -14 92 49T29 219Q29 345 110 422T320 500Z" horiz-adv-x="441" unicode="c"/>
			<glyph d="M462 738H608L484 39Q431 15 385 1T273 -13Q150 -13 89 47T28 214Q28 339 110 419T317 500Q369 500 417 484ZM319 366Q246 366 213 324T181 221Q181 172 207 145T285 119Q322 119 355 130L394 353Q359 366 319 366Z" horiz-adv-x="579" unicode="d"/>
			<glyph d="M306 499Q405 499 458 447T512 310Q512 280 507 256T496 201H182V194Q182 153 214 130T302 108Q379 108 456 138L434 15Q359 -14 274 -14Q150 -14 89 48T29 217Q29 344 103 421T306 499ZM300 388Q260 388 233 364T195 296H366Q370 312 370 322Q370 352 352 370T300 388Z" horiz-adv-x="529" unicode="e"/>
			<glyph d="M367 746Q417 746 472 730L450 610Q439 612 417 617T365 623Q294 623 283 552L272 487H401L380 366H251L187 0H41L105 366H40L61 487H126L140 563Q156 652 210 699T367 746Z" horiz-adv-x="349" unicode="f"/>
			<glyph d="M336 500Q399 500 459 486T555 450L478 11Q457 -110 388 -175T183 -241Q84 -241 -4 -209L18 -78Q98 -107 182 -107Q242 -107 280 -85T328 -16L332 6Q292 -11 237 -11Q138 -11 82 49T27 214Q27 297 66 364T174 466T336 500ZM324 366Q254 366 217 327T180 221Q180 173 206 146T279 119Q317 119 353 131L393 353Q363 366 324 366Z" horiz-adv-x="577" unicode="g"/>
			<glyph d="M145 738H291L244 478Q308 500 371 500Q445 500 486 463T527 354Q527 328 516 262L470 0H324L369 249Q376 289 376 308Q376 339 360 352T307 366Q267 366 223 354L161 0H15Z" horiz-adv-x="569" unicode="h"/>
			<glyph d="M143 741H295L268 589H116ZM101 487H247L162 0H16Z" horiz-adv-x="262" unicode="i"/>
			<glyph d="M142 741H294L267 589H115ZM100 487H246L153 -47Q137 -139 86 -189T-61 -240Q-91 -240 -118 -235T-161 -226L-139 -101L-119 -106Q-103 -110 -77 -110Q-5 -110 9 -31Z" horiz-adv-x="261" unicode="j"/>
			<glyph d="M145 738H291L208 267H210L419 487H611L374 252L518 0H344L208 258H206L161 0H15Z" horiz-adv-x="569" unicode="k"/>
			<glyph d="M145 738H291L161 0H15Z" horiz-adv-x="262" unicode="l"/>
			<glyph d="M322 500Q430 500 473 460Q516 479 555 489T644 500Q724 500 764 467T805 366Q805 345 800 312L746 0H600L649 283Q652 298 652 311Q652 340 636 353T586 366Q551 366 510 354V348Q510 325 504 285L454 0H308L357 280Q360 297 360 309Q360 339 343 352T292 366Q265 366 225 359L162 0H16L98 468Q231 500 322 500Z" horiz-adv-x="845" unicode="m"/>
			<glyph d="M320 500Q527 500 527 350Q527 322 517 262L471 0H325L370 249Q377 289 377 308Q377 336 358 351T303 366Q262 366 225 358L162 0H16L98 469Q157 483 209 491T320 500Z" unicode="n"/>
			<glyph d="M313 500Q415 500 478 438T541 274Q541 144 468 65T258 -14Q153 -14 91 49T29 223Q29 342 103 421T313 500ZM297 365Q245 365 212 328T180 230Q180 178 205 149T272 121Q335 121 362 164T389 264Q389 308 366 336T297 365Z" unicode="o"/>
			<glyph d="M302 499Q425 499 485 438T546 272Q546 145 463 65T260 -14Q209 -14 161 2L119 -235H-27L94 447Q148 473 192 486T302 499ZM290 367Q268 367 254 364T223 356L184 133Q219 120 258 120Q331 120 362 161T393 265Q393 314 367 340T290 367Z" horiz-adv-x="574" unicode="p"/>
			<glyph d="M326 500Q396 500 453 485T549 446L430 -235H284L326 2Q310 -4 285 -9T236 -14Q134 -14 80 47T27 210Q27 295 64 363T168 466T326 500ZM313 366Q249 366 213 327T178 219Q178 171 202 144T274 118Q309 118 328 125L349 132L388 353Q358 366 313 366Z" horiz-adv-x="572" unicode="q"/>
			<glyph d="M307 500Q358 500 413 489L390 360Q356 369 306 369Q267 369 226 360L163 0H17L98 468Q194 500 307 500Z" horiz-adv-x="377" unicode="r"/>
			<glyph d="M274 505Q323 505 366 498T439 482L419 364Q344 389 272 389Q238 389 218 378T198 347Q198 326 231 315T311 285T384 238T411 157Q411 82 358 34T183 -13Q133 -13 85 -4T5 14L22 131Q104 100 176 100Q263 100 263 143Q263 166 225 179T144 209T78 257T55 340Q55 415 112 460T274 505Z" horiz-adv-x="457" unicode="s"/>
			<glyph d="M141 622H287L263 487H392L371 366H242L218 226Q209 174 209 158Q209 116 253 116Q271 116 293 120T330 129L310 8Q257 -8 203 -8Q134 -8 97 25T60 128Q60 161 73 236L96 366H31L52 487H117Z" horiz-adv-x="372" unicode="t"/>
			<glyph d="M99 487H245L200 238Q193 198 193 179Q193 151 211 136T267 121Q308 121 345 129L408 487H554L472 18Q413 4 361 -4T250 -13Q43 -13 43 137Q43 165 53 225Z" unicode="u"/>
			<glyph d="M36 487H187L221 292Q234 209 237 167H238Q281 261 298 291L400 487H568L292 0H131Z" horiz-adv-x="518" unicode="v"/>
			<glyph d="M54 487H199L218 277Q223 220 223 182H225Q245 234 265 275L373 487H501L529 271Q536 223 538 185H540Q561 244 574 272L675 487H835L584 0H444L412 198Q401 264 401 297H399Q380 250 354 197L254 0H116Z" horiz-adv-x="803" unicode="w"/>
			<glyph d="M38 487H216L294 348L415 487H606L374 246L529 0H350L264 143L141 0H-49L183 247Z" horiz-adv-x="566" unicode="x"/>
			<glyph d="M36 487H189L230 251Q238 201 238 180H240Q254 212 273 245L402 487H575L153 -235H-11L139 18Z" horiz-adv-x="525" unicode="y"/>
			<glyph d="M74 487H499L483 392L219 132H446L423 0H-22L-6 95L260 356H51Z" horiz-adv-x="486" unicode="z"/>
			<glyph d="M430 770L410 654Q367 654 348 637T321 580L290 416Q272 323 182 308V306Q210 297 230 272T250 202Q250 187 247 167L224 24Q222 10 222 4Q222 -21 237 -32T287 -44L266 -160Q90 -160 90 -16Q90 4 95 34L119 175Q121 191 121 198Q121 231 99 246T34 263L52 368Q102 370 130 389T167 452L196 606Q213 699 268 734T430 770Z" horiz-adv-x="348" unicode="{"/>
			<glyph d="M93 750H194V-250H93Z" horiz-adv-x="287" unicode="|"/>
			<glyph d="M103 770Q279 770 279 626Q279 606 274 576L250 435Q248 419 248 412Q248 379 270 364T335 347L317 242Q267 240 238 220T202 158L173 4Q156 -89 101 -124T-61 -160L-41 -44Q2 -44 21 -27T48 30L79 194Q97 287 187 302V304Q159 313 139 338T119 408Q119 424 122 443L145 586Q147 600 147 606Q147 631 131 642T82 654Z" horiz-adv-x="347" unicode="}"/>
			<glyph d="M195 398Q233 398 266 384T330 350T396 331Q446 331 486 395L579 321Q541 265 493 236T391 207Q353 207 320 221T256 254T190 274Q140 274 100 210L7 284Q45 340 93 369T195 398Z" horiz-adv-x="586" unicode="~"/>
			<glyph d="" horiz-adv-x="234" unicode=" "/>
			<glyph d="M94 487H251L224 330H67ZM65 257H196L124 -208H-26Z" horiz-adv-x="260" unicode="¡"/>
			<glyph d="M391 714H471L451 603Q494 598 530 585L509 456Q476 469 429 475L384 221Q431 225 479 242L458 111Q412 96 362 93L343 -14H263L283 98Q200 114 152 174T105 326Q105 445 178 521T372 606ZM349 476Q296 467 269 429T243 334Q243 296 259 270T306 232Z" horiz-adv-x="587" unicode="¢"/>
			<glyph d="M471 727Q554 727 619 708L594 570Q566 577 540 581T482 586Q420 586 390 556T352 476L340 406H511L491 291H320L315 263Q307 219 287 184T238 131H527L504 0H6L29 131Q72 133 105 163T147 249L155 291H59L79 406H175L191 492Q213 610 281 668T471 727Z" horiz-adv-x="586" unicode="£"/>
			<glyph d="M130 576L195 511Q245 535 298 535Q350 535 400 511L466 576L571 471L506 405Q530 355 530 303Q530 250 506 200L571 135L466 30L400 95Q352 72 298 72Q242 72 196 95L130 30L25 135L90 201Q67 247 67 303Q67 357 90 405L25 471ZM298 408Q255 408 224 377T194 304Q194 261 224 230T298 199Q341 199 372 230T403 304Q403 347 372 377T298 408Z" horiz-adv-x="586" unicode="¤"/>
			<glyph d="M85 695H251L330 500L473 695H661L391 360L390 357H528L509 249H371L363 203H501L482 95H344L328 0H177L193 95H55L74 203H212L220 249H82L101 357H239L240 360Z" horiz-adv-x="586" unicode="¥"/>
			<glyph d="M93 750H194V338H93ZM93 162H194V-250H93Z" horiz-adv-x="287" unicode="¦"/>
			<glyph d="M347 714Q389 714 422 706T476 689L455 576L432 586Q413 594 391 599T346 604Q304 604 282 587T261 540Q261 508 287 488T354 441T418 384T442 305Q442 253 415 218T347 158Q375 114 375 64Q375 -12 325 -61T180 -111Q102 -111 42 -83L62 27L85 17Q104 9 126 4T171 -1Q212 -1 234 14T256 57Q256 100 202 127T115 191T81 291Q81 339 103 374T165 436Q154 450 146 475T138 528Q138 612 193 663T347 714ZM240 375Q225 364 212 346T200 306Q200 281 217 264T254 238L278 224Q293 234 305 254T318 294Q318 321 301 336T265 362Z" horiz-adv-x="505" unicode="§"/>
			<glyph d="M104 693H220L199 576H83ZM281 693H397L376 576H260Z" horiz-adv-x="342" unicode="¨"/>
			<glyph d="M420 710Q519 710 603 661T735 528T784 347Q784 197 677 91T420 -15Q321 -15 237 33T104 165T55 347Q55 497 163 603T420 710ZM420 623Q306 623 225 542T144 347Q144 233 225 152T420 71Q534 71 615 152T696 347Q696 461 615 542T420 623ZM452 557Q505 557 555 539V444Q506 465 461 465Q400 465 371 434T343 352Q343 295 374 263T462 231Q490 231 517 238T561 256V161Q537 150 511 143T451 136Q352 136 292 193T233 347Q233 444 289 500T452 557Z" horiz-adv-x="808" unicode="©"/>
			<glyph d="M264 718Q380 718 380 624Q380 595 373 557L346 404Q269 383 198 383Q131 383 102 407T74 479Q74 531 112 559T225 587Q243 587 265 585Q265 593 266 602Q266 627 222 627Q189 627 125 611L141 699Q162 706 195 712T264 718ZM225 520Q185 520 185 490Q185 464 221 464Q230 464 244 466L253 518Q235 520 225 520Z" horiz-adv-x="365" unicode="ª"/>
			<glyph d="M168 413H309L140 230L234 55H111L14 243ZM380 413H521L352 230L446 55H323L226 243Z" horiz-adv-x="511" unicode="«"/>
			<glyph d="M50 404H536V95H400V268H50Z" horiz-adv-x="586" unicode="¬"/>
			<glyph d="M55 337H369L345 204H31Z" horiz-adv-x="391" unicode="­"/>
			<glyph d="M303 712Q395 712 462 644T530 484Q530 390 463 323T303 257Q209 257 142 323T75 484Q75 578 142 645T303 712ZM303 645Q235 645 187 597T139 484Q139 419 187 371T303 323Q369 323 417 371T466 484Q466 549 417 597T303 645ZM214 603H308Q409 603 409 528Q409 501 394 481T355 452L406 364H338L300 441H275V364H214ZM275 552V494H307Q328 494 338 501T348 524Q348 552 306 552Z" horiz-adv-x="525" unicode="®"/>
			<glyph d="M89 666H338L321 568H72Z" horiz-adv-x="279" unicode="¯"/>
			<glyph d="M270 763Q342 763 393 713T444 590Q444 517 394 466T271 416Q197 416 146 467T95 590Q95 663 146 713T270 763ZM271 683Q233 683 205 656T178 590Q178 551 205 524T270 497Q308 497 334 524T361 590Q361 629 335 656T271 683Z" horiz-adv-x="418" unicode="°"/>
			<glyph d="M225 661H361V486H536V350H361V175H225V350H50V486H225ZM50 136H536V0H50Z" horiz-adv-x="586" unicode="±"/>
			<glyph d="M290 799Q359 799 395 765T432 674Q432 618 401 577T302 489L226 438H399L381 332H57L75 432L243 562Q281 591 297 611T313 651Q313 671 300 683T255 695Q227 695 195 684T137 659L158 772Q181 784 216 791T290 799Z" horiz-adv-x="417" unicode="²"/>
			<glyph d="M273 797Q350 797 388 764T426 681Q426 635 401 604T326 562V561Q356 553 378 530T400 467Q400 404 350 363T202 322Q156 322 120 330T63 351L81 451Q98 441 128 431T194 422Q237 422 256 434T275 467Q275 492 254 501T191 510H143L162 615H213Q257 615 278 624T300 656Q300 677 284 685T238 694Q209 694 177 686T128 670L146 776Q168 785 202 791T273 797Z" horiz-adv-x="419" unicode="³"/>
			<glyph d="M174 723H318L176 554H65Z" horiz-adv-x="243" unicode="´"/>
			<glyph d="M99 487H245L200 238Q193 196 193 179Q193 147 213 134T272 121Q308 121 345 129L408 487H554L472 18Q360 -13 275 -13Q237 -13 205 -6T164 11L117 -251H-29Z" unicode="µ"/>
			<glyph d="M319 695H544L410 -63H316L433 599H387L270 -63H176L249 349Q175 349 131 387T88 487Q88 529 110 578T188 661T319 695Z" horiz-adv-x="554" unicode="¶"/>
			<glyph d="M73 394H230L203 237H46Z" horiz-adv-x="251" unicode="·"/>
			<glyph d="M78 0H125L95 -44Q134 -44 156 -65T179 -122Q179 -165 143 -194T41 -223Q-4 -223 -43 -211L-30 -138Q-9 -143 5 -146T40 -149Q71 -149 82 -142T93 -121Q93 -108 81 -101T37 -94H9Z" horiz-adv-x="280" unicode="¸"/>
			<glyph d="M326 803H392L309 333H193L250 658L118 601L140 723Z" horiz-adv-x="406" unicode="¹"/>
			<glyph d="M274 718Q342 718 383 677T425 569Q425 480 375 429T238 379Q167 379 126 421T85 535Q85 616 138 667T274 718ZM262 621Q231 621 212 599T194 541Q194 511 208 493T248 476Q279 476 297 499T316 561Q316 589 302 605T262 621Z" horiz-adv-x="400" unicode="º"/>
			<glyph d="M62 413H185L282 225L128 55H-13L156 238ZM274 413H397L494 225L340 55H199L368 238Z" horiz-adv-x="511" unicode="»"/>
			<glyph d="M320 703H386L303 233H187L244 558L112 501L134 623ZM753 695H890L254 0H117ZM780 459H907L859 184H929L911 89H841L826 0H716L731 89H534L554 196ZM770 319Q747 286 727 264L662 184H748L772 319Z" horiz-adv-x="959" unicode="¼"/>
			<glyph d="M320 703H386L303 233H187L244 558L112 501L134 623ZM753 695H890L254 0H117ZM829 469Q898 469 934 435T971 344Q971 288 940 247T841 159L765 108H938L920 2H596L614 102L782 232Q820 261 836 281T852 321Q852 341 839 353T794 365Q766 365 734 354T676 329L697 442Q720 454 755 461T829 469Z" horiz-adv-x="1009" unicode="½"/>
			<glyph d="M256 697Q333 697 371 664T409 581Q409 535 384 504T309 462V461Q339 453 361 430T383 367Q383 304 333 263T185 222Q139 222 103 230T46 251L64 351Q81 341 111 331T177 322Q220 322 239 334T258 367Q258 392 237 401T174 410H126L145 515H196Q240 515 261 524T283 556Q283 577 267 585T221 594Q192 594 160 586T111 570L129 676Q151 685 185 691T256 697ZM786 695H923L287 0H150ZM813 459H940L892 184H962L944 89H874L859 0H749L764 89H567L587 196ZM803 319Q779 286 760 264L695 184H781L805 319Z" horiz-adv-x="992" unicode="¾"/>
			<glyph d="M221 487H378L351 330H194ZM197 257H322L300 138Q210 101 167 63T125 -20Q125 -54 147 -73T215 -93Q279 -93 360 -63L339 -187Q300 -202 261 -210T171 -218Q77 -218 26 -171T-25 -43Q-25 37 23 98T189 212Z" horiz-adv-x="459" unicode="¿"/>
			<glyph d="M370 695H514L675 0H518L485 151H220L136 0H-39ZM408 495L289 276H455L410 495ZM296 893H435L517 756H412Z" horiz-adv-x="722" unicode="À"/>
			<glyph d="M370 695H514L675 0H518L485 151H220L136 0H-39ZM408 495L289 276H455L410 495ZM471 893H614L488 756H379Z" horiz-adv-x="722" unicode="Á"/>
			<glyph d="M370 695H514L675 0H518L485 151H220L136 0H-39ZM408 495L289 276H455L410 495ZM433 925H505L603 754H494L459 823L400 754H276Z" horiz-adv-x="722" unicode="Â"/>
			<glyph d="M370 695H514L675 0H518L485 151H220L136 0H-39ZM408 495L289 276H455L410 495ZM401 885Q442 885 469 856T511 827Q525 827 537 842T555 882H634Q615 812 586 777T512 743Q488 743 469 754T432 784T397 803Q381 803 369 785T354 746H277Q290 811 319 848T401 885Z" horiz-adv-x="722" unicode="Ã"/>
			<glyph d="M370 695H514L675 0H518L485 151H220L136 0H-39ZM408 495L289 276H455L410 495ZM322 864H438L417 747H301ZM499 864H615L594 747H478Z" horiz-adv-x="722" unicode="Ä"/>
			<glyph d="M370 695H514L675 0H518L485 151H220L136 0H-39ZM408 495L289 276H455L410 495ZM451 976Q498 976 531 943T564 863Q564 816 531 783T451 750Q404 750 371 783T338 863Q338 911 371 943T451 976ZM451 911Q431 911 417 897T403 863Q403 844 417 829T451 815Q472 815 486 829T500 863Q500 884 486 897T451 911Z" horiz-adv-x="722" unicode="Å"/>
			<glyph d="M493 695H1047L1022 553H711L688 423H971L946 281H663L639 142H964L939 0H460L486 151H248L135 0H-49ZM553 554L342 276H508L557 554Z" horiz-adv-x="1013" unicode="Æ"/>
			<glyph d="M432 707Q513 707 561 696T662 664L638 517Q603 534 553 548T451 562Q341 562 280 498T219 322Q219 229 270 183T403 137Q463 137 509 152T598 188L575 29Q535 11 483 0T378 -12L356 -44Q395 -44 417 -65T440 -122Q440 -165 404 -194T302 -223Q257 -223 218 -211L231 -138Q252 -143 266 -146T301 -149Q332 -149 343 -142T354 -121Q354 -108 342 -101T298 -94H270L332 -10Q204 4 128 89T53 317Q53 494 158 600T432 707Z" horiz-adv-x="644" unicode="Ç"/>
			<glyph d="M148 695H613L588 553H277L254 423H537L512 281H229L205 142H530L505 0H26ZM236 893H375L457 756H352Z" horiz-adv-x="579" unicode="È"/>
			<glyph d="M148 695H613L588 553H277L254 423H537L512 281H229L205 142H530L505 0H26ZM411 893H554L428 756H319Z" horiz-adv-x="579" unicode="É"/>
			<glyph d="M148 695H613L588 553H277L254 423H537L512 281H229L205 142H530L505 0H26ZM373 925H445L543 754H434L399 823L340 754H216Z" horiz-adv-x="579" unicode="Ê"/>
			<glyph d="M148 695H613L588 553H277L254 423H537L512 281H229L205 142H530L505 0H26ZM262 864H378L357 747H241ZM439 864H555L534 747H418Z" horiz-adv-x="579" unicode="Ë"/>
			<glyph d="M148 695H302L180 0H26ZM80 893H219L301 756H196Z" horiz-adv-x="291" unicode="Ì"/>
			<glyph d="M148 695H302L180 0H26ZM255 893H398L272 756H163Z" horiz-adv-x="291" unicode="Í"/>
			<glyph d="M148 695H302L180 0H26ZM217 925H289L387 754H278L243 823L184 754H60Z" horiz-adv-x="291" unicode="Î"/>
			<glyph d="M148 695H302L180 0H26ZM106 864H222L201 747H85ZM283 864H399L378 747H262Z" horiz-adv-x="291" unicode="Ï"/>
			<glyph d="M138 695H356Q534 695 621 610T708 371Q708 294 677 219T589 94T463 22T309 0H16L65 281H8L31 414H89ZM268 554L243 414H394L371 281H220L195 141H318Q428 141 484 205T540 370Q540 461 487 507T349 554Z" horiz-adv-x="724" unicode="Ð"/>
			<glyph d="M148 695H271L541 263H543Q546 293 557 362L616 695H767L645 0H524L252 430H250Q248 410 239 355L235 330L177 0H26ZM418 885Q459 885 486 856T528 827Q542 827 554 842T572 882H651Q632 812 603 777T529 743Q505 743 486 754T449 784T414 803Q398 803 386 785T371 746H294Q307 811 336 848T418 885Z" horiz-adv-x="756" unicode="Ñ"/>
			<glyph d="M437 707Q593 707 679 623T765 396Q765 275 716 180T583 37T380 -12Q224 -12 138 73T52 311Q52 398 80 477T164 608T286 684T437 707ZM424 562Q323 562 267 493T212 315Q212 229 257 181T391 133Q493 133 549 204T606 384Q606 466 560 514T424 562ZM295 893H434L516 756H411Z" horiz-adv-x="778" unicode="Ò"/>
			<glyph d="M437 707Q593 707 679 623T765 396Q765 275 716 180T583 37T380 -12Q224 -12 138 73T52 311Q52 398 80 477T164 608T286 684T437 707ZM424 562Q323 562 267 493T212 315Q212 229 257 181T391 133Q493 133 549 204T606 384Q606 466 560 514T424 562ZM470 893H613L487 756H378Z" horiz-adv-x="778" unicode="Ó"/>
			<glyph d="M437 707Q593 707 679 623T765 396Q765 275 716 180T583 37T380 -12Q224 -12 138 73T52 311Q52 398 80 477T164 608T286 684T437 707ZM424 562Q323 562 267 493T212 315Q212 229 257 181T391 133Q493 133 549 204T606 384Q606 466 560 514T424 562ZM432 925H504L602 754H493L458 823L399 754H275Z" horiz-adv-x="778" unicode="Ô"/>
			<glyph d="M437 707Q593 707 679 623T765 396Q765 275 716 180T583 37T380 -12Q224 -12 138 73T52 311Q52 398 80 477T164 608T286 684T437 707ZM424 562Q323 562 267 493T212 315Q212 229 257 181T391 133Q493 133 549 204T606 384Q606 466 560 514T424 562ZM400 885Q441 885 468 856T510 827Q524 827 536 842T554 882H633Q614 812 585 777T511 743Q487 743 468 754T431 784T396 803Q380 803 368 785T353 746H276Q289 811 318 848T400 885Z" horiz-adv-x="778" unicode="Õ"/>
			<glyph d="M437 707Q593 707 679 623T765 396Q765 275 716 180T583 37T380 -12Q224 -12 138 73T52 311Q52 398 80 477T164 608T286 684T437 707ZM424 562Q323 562 267 493T212 315Q212 229 257 181T391 133Q493 133 549 204T606 384Q606 466 560 514T424 562ZM321 864H437L416 747H300ZM498 864H614L593 747H477Z" horiz-adv-x="778" unicode="Ö"/>
			<glyph d="M141 551L293 399L445 551L541 455L389 303L541 151L445 55L293 207L141 55L45 151L197 303L45 455Z" horiz-adv-x="586" unicode="×"/>
			<glyph d="M761 790L837 724L709 589Q765 511 765 396Q765 275 716 180T583 37T380 -12Q262 -12 184 37L72 -80L-3 -14L111 106Q52 186 52 311Q52 398 80 477T164 608T286 684T437 707Q555 707 635 657ZM424 562Q323 562 267 493T212 315Q212 266 227 228L524 540Q482 562 424 562ZM591 465L294 153Q334 133 391 133Q493 133 549 204T606 384Q606 429 591 465Z" horiz-adv-x="784" unicode="Ø"/>
			<glyph d="M146 695H299L236 334Q224 270 224 226Q224 181 254 154T361 128Q414 128 447 135T489 143L586 695H739L621 33Q539 9 483 -1T346 -12Q199 -12 134 42T70 202Q70 262 88 366ZM288 893H427L509 756H404Z" horiz-adv-x="727" unicode="Ù"/>
			<glyph d="M146 695H299L236 334Q224 270 224 226Q224 181 254 154T361 128Q414 128 447 135T489 143L586 695H739L621 33Q539 9 483 -1T346 -12Q199 -12 134 42T70 202Q70 262 88 366ZM463 893H606L480 756H371Z" horiz-adv-x="727" unicode="Ú"/>
			<glyph d="M146 695H299L236 334Q224 270 224 226Q224 181 254 154T361 128Q414 128 447 135T489 143L586 695H739L621 33Q539 9 483 -1T346 -12Q199 -12 134 42T70 202Q70 262 88 366ZM425 925H497L595 754H486L451 823L392 754H268Z" horiz-adv-x="727" unicode="Û"/>
			<glyph d="M146 695H299L236 334Q224 270 224 226Q224 181 254 154T361 128Q414 128 447 135T489 143L586 695H739L621 33Q539 9 483 -1T346 -12Q199 -12 134 42T70 202Q70 262 88 366ZM314 864H430L409 747H293ZM491 864H607L586 747H470Z" horiz-adv-x="727" unicode="Ü"/>
			<glyph d="M72 695H238L337 384L550 695H738L397 232L357 0H202L242 229ZM422 893H565L439 756H330Z" horiz-adv-x="650" unicode="Ý"/>
			<glyph d="M148 695H302L285 598H363Q506 598 571 537T637 380Q637 254 555 180T317 106H198L180 0H26ZM260 457L223 247H324Q398 247 435 276T472 360Q472 457 353 457Z" horiz-adv-x="651" unicode="Þ"/>
			<glyph d="M374 746Q479 746 537 697T595 574Q595 517 565 474T476 404Q435 386 423 376T411 353Q411 329 459 302T531 245T555 167Q555 89 498 41T348 -6Q308 -6 266 0T206 11L226 125Q277 110 322 110Q365 110 383 121T402 157Q402 178 357 207T288 265T263 337Q263 385 282 414T339 461T407 500T439 560Q439 589 418 606T363 623Q307 623 283 593T251 514L161 0H15L106 517Q124 624 187 685T374 746Z" horiz-adv-x="589" unicode="ß"/>
			<glyph d="M281 500Q375 500 422 460T469 347Q469 317 453 221L418 15Q308 -13 220 -13Q18 -13 18 139Q18 298 235 298Q264 298 320 294Q324 314 324 325Q324 376 244 376Q180 376 90 351L113 475Q145 485 190 492T281 500ZM237 206Q199 206 180 192T162 150Q162 125 179 112T228 99Q256 99 288 105L305 201Q273 206 237 206ZM168 723H305L394 554H290Z" horiz-adv-x="511" unicode="à"/>
			<glyph d="M281 500Q375 500 422 460T469 347Q469 317 453 221L418 15Q308 -13 220 -13Q18 -13 18 139Q18 298 235 298Q264 298 320 294Q324 314 324 325Q324 376 244 376Q180 376 90 351L113 475Q145 485 190 492T281 500ZM237 206Q199 206 180 192T162 150Q162 125 179 112T228 99Q256 99 288 105L305 201Q273 206 237 206ZM350 723H494L352 554H241Z" horiz-adv-x="511" unicode="á"/>
			<glyph d="M281 500Q375 500 422 460T469 347Q469 317 453 221L418 15Q308 -13 220 -13Q18 -13 18 139Q18 298 235 298Q264 298 320 294Q324 314 324 325Q324 376 244 376Q180 376 90 351L113 475Q145 485 190 492T281 500ZM237 206Q199 206 180 192T162 150Q162 125 179 112T228 99Q256 99 288 105L305 201Q273 206 237 206ZM285 742H373L476 554H370L318 641L242 554H132Z" horiz-adv-x="511" unicode="â"/>
			<glyph d="M281 500Q375 500 422 460T469 347Q469 317 453 221L418 15Q308 -13 220 -13Q18 -13 18 139Q18 298 235 298Q264 298 320 294Q324 314 324 325Q324 376 244 376Q180 376 90 351L113 475Q145 485 190 492T281 500ZM237 206Q199 206 180 192T162 150Q162 125 179 112T228 99Q256 99 288 105L305 201Q273 206 237 206ZM260 701Q302 701 328 672T370 643Q384 643 396 658T414 698H493Q474 628 445 593T371 559Q347 559 328 570T291 600T256 619Q240 619 228 601T213 562H136Q149 627 178 664T260 701Z" horiz-adv-x="511" unicode="ã"/>
			<glyph d="M281 500Q375 500 422 460T469 347Q469 317 453 221L418 15Q308 -13 220 -13Q18 -13 18 139Q18 298 235 298Q264 298 320 294Q324 314 324 325Q324 376 244 376Q180 376 90 351L113 475Q145 485 190 492T281 500ZM237 206Q199 206 180 192T162 150Q162 125 179 112T228 99Q256 99 288 105L305 201Q273 206 237 206ZM186 693H302L281 576H165ZM363 693H479L458 576H342Z" horiz-adv-x="511" unicode="ä"/>
			<glyph d="M281 500Q375 500 422 460T469 347Q469 317 453 221L418 15Q308 -13 220 -13Q18 -13 18 139Q18 298 235 298Q264 298 320 294Q324 314 324 325Q324 376 244 376Q180 376 90 351L113 475Q145 485 190 492T281 500ZM237 206Q199 206 180 192T162 150Q162 125 179 112T228 99Q256 99 288 105L305 201Q273 206 237 206ZM309 768Q356 768 389 735T422 655Q422 608 389 575T309 542Q262 542 229 575T196 655Q196 703 229 735T309 768ZM309 703Q289 703 275 689T261 655Q261 636 275 621T309 607Q330 607 344 621T358 655Q358 676 344 689T309 703Z" horiz-adv-x="511" unicode="å"/>
			<glyph d="M281 499Q383 499 427 444Q487 499 585 499Q681 499 733 446T786 310Q786 280 781 256T770 201H456V190Q456 151 488 129T576 108Q653 108 730 138L708 15Q633 -14 548 -14Q448 -14 389 29Q352 9 309 -2T208 -13Q114 -13 66 26T18 139Q18 298 235 298Q262 298 319 293Q324 313 324 325Q324 376 244 376Q180 376 90 351L113 475Q143 484 189 491T281 499ZM571 388Q531 388 504 365T468 296H640Q644 312 644 322Q644 352 626 370T571 388ZM244 206Q201 206 181 192T162 150Q162 125 181 112T242 99Q283 99 326 115Q312 149 311 191V200Q275 206 244 206Z" horiz-adv-x="803" unicode="æ"/>
			<glyph d="M320 500Q357 500 393 493T451 478L430 349Q407 359 381 365T320 371Q252 371 215 331T179 227Q179 172 211 144T296 116Q341 116 400 137L379 4Q323 -14 261 -14H255L235 -44Q274 -44 296 -65T319 -122Q319 -165 283 -194T181 -223Q136 -223 97 -211L110 -138Q131 -143 145 -146T180 -149Q211 -149 222 -142T233 -121Q233 -108 221 -101T177 -94H149L211 -10Q126 4 77 64T29 219Q29 345 110 422T320 500Z" horiz-adv-x="441" unicode="ç"/>
			<glyph d="M306 499Q405 499 458 447T512 310Q512 280 507 256T496 201H182V194Q182 153 214 130T302 108Q379 108 456 138L434 15Q359 -14 274 -14Q150 -14 89 48T29 217Q29 344 103 421T306 499ZM300 388Q260 388 233 364T195 296H366Q370 312 370 322Q370 352 352 370T300 388ZM167 723H304L393 554H289Z" horiz-adv-x="529" unicode="è"/>
			<glyph d="M306 499Q405 499 458 447T512 310Q512 280 507 256T496 201H182V194Q182 153 214 130T302 108Q379 108 456 138L434 15Q359 -14 274 -14Q150 -14 89 48T29 217Q29 344 103 421T306 499ZM300 388Q260 388 233 364T195 296H366Q370 312 370 322Q370 352 352 370T300 388ZM349 723H493L351 554H240Z" horiz-adv-x="529" unicode="é"/>
			<glyph d="M306 499Q405 499 458 447T512 310Q512 280 507 256T496 201H182V194Q182 153 214 130T302 108Q379 108 456 138L434 15Q359 -14 274 -14Q150 -14 89 48T29 217Q29 344 103 421T306 499ZM300 388Q260 388 233 364T195 296H366Q370 312 370 322Q370 352 352 370T300 388ZM284 742H372L475 554H369L317 641L241 554H131Z" horiz-adv-x="529" unicode="ê"/>
			<glyph d="M306 499Q405 499 458 447T512 310Q512 280 507 256T496 201H182V194Q182 153 214 130T302 108Q379 108 456 138L434 15Q359 -14 274 -14Q150 -14 89 48T29 217Q29 344 103 421T306 499ZM300 388Q260 388 233 364T195 296H366Q370 312 370 322Q370 352 352 370T300 388ZM185 693H301L280 576H164ZM362 693H478L457 576H341Z" horiz-adv-x="529" unicode="ë"/>
			<glyph d="M101 487H247L162 0H16ZM43 723H180L269 554H165Z" horiz-adv-x="263" unicode="ì"/>
			<glyph d="M101 487H247L162 0H16ZM225 723H369L227 554H116Z" horiz-adv-x="263" unicode="í"/>
			<glyph d="M101 487H247L162 0H16ZM160 742H248L351 554H245L193 641L117 554H7Z" horiz-adv-x="263" unicode="î"/>
			<glyph d="M101 487H247L162 0H16ZM61 693H177L156 576H40ZM238 693H354L333 576H217Z" horiz-adv-x="263" unicode="ï"/>
			<glyph d="M290 799Q315 784 343 759T384 719L494 783L543 700L447 642Q540 521 540 327Q540 170 463 78T257 -14Q145 -14 86 49T28 212Q28 331 95 408T277 486Q314 486 343 474T387 444L389 446Q362 546 329 579L217 515L170 597L272 654Q231 695 201 713ZM293 357Q242 357 210 322T179 223Q179 173 204 147T271 121Q324 121 356 162T388 260Q388 304 364 330T293 357Z" horiz-adv-x="564" unicode="ð"/>
			<glyph d="M320 500Q527 500 527 350Q527 322 517 262L471 0H325L370 249Q377 289 377 308Q377 336 358 351T303 366Q262 366 225 358L162 0H16L98 469Q157 483 209 491T320 500ZM270 701Q312 701 338 672T380 643Q394 643 406 658T424 698H503Q484 628 455 593T381 559Q357 559 338 570T301 600T266 619Q250 619 238 601T223 562H146Q159 627 188 664T270 701Z" unicode="ñ"/>
			<glyph d="M313 500Q415 500 478 438T541 274Q541 144 468 65T258 -14Q153 -14 91 49T29 223Q29 342 103 421T313 500ZM297 365Q245 365 212 328T180 230Q180 178 205 149T272 121Q335 121 362 164T389 264Q389 308 366 336T297 365ZM177 723H314L403 554H299Z" unicode="ò"/>
			<glyph d="M313 500Q415 500 478 438T541 274Q541 144 468 65T258 -14Q153 -14 91 49T29 223Q29 342 103 421T313 500ZM297 365Q245 365 212 328T180 230Q180 178 205 149T272 121Q335 121 362 164T389 264Q389 308 366 336T297 365ZM359 723H503L361 554H250Z" unicode="ó"/>
			<glyph d="M313 500Q415 500 478 438T541 274Q541 144 468 65T258 -14Q153 -14 91 49T29 223Q29 342 103 421T313 500ZM297 365Q245 365 212 328T180 230Q180 178 205 149T272 121Q335 121 362 164T389 264Q389 308 366 336T297 365ZM294 742H382L485 554H379L327 641L251 554H141Z" unicode="ô"/>
			<glyph d="M313 500Q415 500 478 438T541 274Q541 144 468 65T258 -14Q153 -14 91 49T29 223Q29 342 103 421T313 500ZM297 365Q245 365 212 328T180 230Q180 178 205 149T272 121Q335 121 362 164T389 264Q389 308 366 336T297 365ZM269 701Q311 701 337 672T379 643Q393 643 405 658T423 698H502Q483 628 454 593T380 559Q356 559 337 570T300 600T265 619Q249 619 237 601T222 562H145Q158 627 187 664T269 701Z" unicode="õ"/>
			<glyph d="M313 500Q415 500 478 438T541 274Q541 144 468 65T258 -14Q153 -14 91 49T29 223Q29 342 103 421T313 500ZM297 365Q245 365 212 328T180 230Q180 178 205 149T272 121Q335 121 362 164T389 264Q389 308 366 336T297 365ZM195 693H311L290 576H174ZM372 693H488L467 576H351Z" unicode="ö"/>
			<glyph d="M216 579H360V435H216ZM50 370H536V236H50ZM216 170H360V25H216Z" horiz-adv-x="586" unicode="÷"/>
			<glyph d="M523 564L596 501L505 406Q542 352 542 274Q542 144 469 65T259 -14Q186 -14 132 17L52 -66L-21 -3L64 85Q30 142 30 223Q30 342 104 421T314 500Q382 500 434 471ZM299 373Q243 373 208 334T174 229Q174 218 176 202L335 367Q319 373 299 373ZM395 291L231 120Q248 113 272 113Q339 113 368 159T397 265Q397 273 395 291Z" horiz-adv-x="574" unicode="ø"/>
			<glyph d="M99 487H245L200 238Q193 198 193 179Q193 151 211 136T267 121Q308 121 345 129L408 487H554L472 18Q413 4 361 -4T250 -13Q43 -13 43 137Q43 165 53 225ZM196 723H333L422 554H318Z" unicode="ù"/>
			<glyph d="M99 487H245L200 238Q193 198 193 179Q193 151 211 136T267 121Q308 121 345 129L408 487H554L472 18Q413 4 361 -4T250 -13Q43 -13 43 137Q43 165 53 225ZM378 723H522L380 554H269Z" unicode="ú"/>
			<glyph d="M99 487H245L200 238Q193 198 193 179Q193 151 211 136T267 121Q308 121 345 129L408 487H554L472 18Q413 4 361 -4T250 -13Q43 -13 43 137Q43 165 53 225ZM313 742H401L504 554H398L346 641L270 554H160Z" unicode="û"/>
			<glyph d="M99 487H245L200 238Q193 198 193 179Q193 151 211 136T267 121Q308 121 345 129L408 487H554L472 18Q413 4 361 -4T250 -13Q43 -13 43 137Q43 165 53 225ZM214 693H330L309 576H193ZM391 693H507L486 576H370Z" unicode="ü"/>
			<glyph d="M36 487H189L230 251Q238 201 238 180H240Q254 212 273 245L402 487H575L153 -235H-11L139 18ZM338 723H482L340 554H229Z" horiz-adv-x="525" unicode="ý"/>
			<glyph d="M145 738H291L246 484Q262 490 286 495T336 500Q438 500 492 437T546 272Q546 145 463 65T260 -14Q209 -14 161 2L119 -235H-26ZM292 367Q256 367 223 356L184 133Q219 120 258 120Q331 120 362 161T393 266Q393 315 368 341T292 367Z" horiz-adv-x="574" unicode="þ"/>
			<glyph d="M36 487H189L230 251Q238 201 238 180H240Q254 212 273 245L402 487H575L153 -235H-11L139 18ZM174 693H290L269 576H153ZM351 693H467L446 576H330Z" horiz-adv-x="525" unicode="ÿ"/>
			<glyph d="M370 695H514L675 0H518L485 151H220L136 0H-39ZM408 495L289 276H455L410 495ZM340 850H589L572 752H323Z" horiz-adv-x="722" unicode="Ā"/>
			<glyph d="M281 500Q375 500 422 460T469 347Q469 317 453 221L418 15Q308 -13 220 -13Q18 -13 18 139Q18 298 235 298Q264 298 320 294Q324 314 324 325Q324 376 244 376Q180 376 90 351L113 475Q145 485 190 492T281 500ZM237 206Q199 206 180 192T162 150Q162 125 179 112T228 99Q256 99 288 105L305 201Q273 206 237 206ZM202 666H451L434 568H185Z" horiz-adv-x="511" unicode="ā"/>
			<glyph d="M370 695H514L675 0H518L485 151H220L136 0H-39ZM408 495L289 276H455L410 495ZM301 884H392V879Q392 829 455 829Q518 829 533 884H634Q622 814 572 779T448 744Q375 744 337 775T299 858Q299 875 301 884Z" horiz-adv-x="722" unicode="Ă"/>
			<glyph d="M281 500Q375 500 422 460T469 347Q469 317 453 221L418 15Q308 -13 220 -13Q18 -13 18 139Q18 298 235 298Q264 298 320 294Q324 314 324 325Q324 376 244 376Q180 376 90 351L113 475Q145 485 190 492T281 500ZM237 206Q199 206 180 192T162 150Q162 125 179 112T228 99Q256 99 288 105L305 201Q273 206 237 206ZM183 705H249V698Q249 669 264 654T315 640Q353 640 372 656T398 705H474Q460 639 415 604T311 570Q244 570 212 600T181 680Q181 687 183 705Z" horiz-adv-x="511" unicode="ă"/>
			<glyph d="M370 695H514L675 0H518L485 151H220L136 0H-39ZM408 495L289 276H455L410 495ZM609 0H675Q624 -38 600 -64T577 -115Q577 -142 607 -142Q627 -142 654 -134L642 -205Q607 -215 582 -215Q536 -215 513 -196T490 -141Q490 -65 609 0Z" horiz-adv-x="722" unicode="Ą"/>
			<glyph d="M281 500Q375 500 422 460T469 347Q469 317 453 221L418 15Q365 -28 341 -57T317 -115Q317 -142 347 -142Q367 -142 394 -134L382 -205Q347 -215 322 -215Q276 -215 253 -196T230 -141Q230 -68 320 -5Q270 -13 220 -13Q18 -13 18 139Q18 298 235 298Q264 298 320 294Q324 314 324 325Q324 376 244 376Q180 376 90 351L113 475Q145 485 190 492T281 500ZM237 206Q199 206 180 192T162 150Q162 125 179 112T228 99Q256 99 288 105L305 201Q272 206 237 206Z" horiz-adv-x="511" unicode="ą"/>
			<glyph d="M432 707Q513 707 561 696T662 664L638 517Q603 534 553 548T451 562Q341 562 280 498T219 322Q219 229 270 183T403 137Q463 137 509 152T598 188L575 29Q535 11 483 0T377 -12Q230 -12 141 75T53 317Q53 494 158 600T432 707ZM462 893H605L479 756H370Z" horiz-adv-x="644" unicode="Ć"/>
			<glyph d="M320 500Q357 500 393 493T451 478L430 349Q407 359 381 365T320 371Q252 371 215 331T179 227Q179 172 211 144T296 116Q341 116 400 137L379 4Q323 -14 261 -14Q156 -14 92 49T29 219Q29 345 110 422T320 500ZM325 723H469L327 554H216Z" horiz-adv-x="441" unicode="ć"/>
			<glyph d="M432 707Q513 707 561 696T662 664L638 517Q603 534 553 548T451 562Q341 562 280 498T219 322Q219 229 270 183T403 137Q463 137 509 152T598 188L575 29Q535 11 483 0T377 -12Q230 -12 141 75T53 317Q53 494 158 600T432 707ZM424 925H496L594 754H485L450 823L391 754H267Z" horiz-adv-x="644" unicode="Ĉ"/>
			<glyph d="M320 500Q357 500 393 493T451 478L430 349Q407 359 381 365T320 371Q252 371 215 331T179 227Q179 172 211 144T296 116Q341 116 400 137L379 4Q323 -14 261 -14Q156 -14 92 49T29 219Q29 345 110 422T320 500ZM260 742H348L451 554H345L293 641L217 554H107Z" horiz-adv-x="441" unicode="ĉ"/>
			<glyph d="M432 707Q513 707 561 696T662 664L638 517Q603 534 553 548T451 562Q341 562 280 498T219 322Q219 229 270 183T403 137Q463 137 509 152T598 188L575 29Q535 11 483 0T377 -12Q230 -12 141 75T53 317Q53 494 158 600T432 707ZM390 897H542L515 745H363Z" horiz-adv-x="644" unicode="Ċ"/>
			<glyph d="M320 500Q357 500 393 493T451 478L430 349Q407 359 381 365T320 371Q252 371 215 331T179 227Q179 172 211 144T296 116Q341 116 400 137L379 4Q323 -14 261 -14Q156 -14 92 49T29 219Q29 345 110 422T320 500ZM239 741H391L364 589H212Z" horiz-adv-x="441" unicode="ċ"/>
			<glyph d="M432 707Q513 707 561 696T662 664L638 517Q603 534 553 548T451 562Q341 562 280 498T219 322Q219 229 270 183T403 137Q463 137 509 152T598 188L575 29Q535 11 483 0T377 -12Q230 -12 141 75T53 317Q53 494 158 600T432 707ZM304 921H415L448 851L509 921H630L474 750H403Z" horiz-adv-x="644" unicode="Č"/>
			<glyph d="M320 500Q357 500 393 493T451 478L430 349Q407 359 381 365T320 371Q252 371 215 331T179 227Q179 172 211 144T296 116Q341 116 400 137L379 4Q323 -14 261 -14Q156 -14 92 49T29 219Q29 345 110 422T320 500ZM129 742H235L284 655L363 742H473L323 554H235Z" horiz-adv-x="441" unicode="č"/>
			<glyph d="M148 695H366Q544 695 631 610T718 371Q718 294 687 219T599 94T473 22T319 0H26ZM278 554L205 141H328Q438 141 494 205T550 370Q550 461 497 507T359 554ZM269 921H380L413 851L474 921H595L439 750H368Z" horiz-adv-x="734" unicode="Ď"/>
			<glyph d="M462 738H608L484 39Q431 15 385 1T273 -13Q150 -13 89 47T28 214Q28 339 110 419T317 500Q369 500 417 484ZM319 366Q246 366 213 324T181 221Q181 172 207 145T285 119Q322 119 355 130L394 353Q359 366 319 366ZM697 738H826L719 521H610Z" horiz-adv-x="579" unicode="ď"/>
			<glyph d="M138 695H356Q534 695 621 610T708 371Q708 294 677 219T589 94T463 22T309 0H16L65 281H8L31 414H89ZM268 554L243 414H394L371 281H220L195 141H318Q428 141 484 205T540 370Q540 461 487 507T349 554Z" horiz-adv-x="724" unicode="Đ"/>
			<glyph d="M462 738H608L596 670H656L634 547H574L484 39Q431 15 385 1T273 -13Q150 -13 89 47T28 214Q28 339 110 419T317 500Q369 500 417 484L428 547H274L296 670H450ZM319 366Q246 366 213 324T181 221Q181 172 207 145T285 119Q322 119 355 130L394 353Q359 366 319 366Z" horiz-adv-x="579" unicode="đ"/>
			<glyph d="M148 695H613L588 553H277L254 423H537L512 281H229L205 142H530L505 0H26ZM280 850H529L512 752H263Z" horiz-adv-x="579" unicode="Ē"/>
			<glyph d="M306 499Q405 499 458 447T512 310Q512 280 507 256T496 201H182V194Q182 153 214 130T302 108Q379 108 456 138L434 15Q359 -14 274 -14Q150 -14 89 48T29 217Q29 344 103 421T306 499ZM300 388Q260 388 233 364T195 296H366Q370 312 370 322Q370 352 352 370T300 388ZM201 666H450L433 568H184Z" horiz-adv-x="529" unicode="ē"/>
			<glyph d="M148 695H613L588 553H277L254 423H537L512 281H229L205 142H530L505 0H26ZM241 884H332V879Q332 829 395 829Q458 829 473 884H574Q562 814 512 779T388 744Q315 744 277 775T239 858Q239 875 241 884Z" horiz-adv-x="579" unicode="Ĕ"/>
			<glyph d="M306 499Q405 499 458 447T512 310Q512 280 507 256T496 201H182V194Q182 153 214 130T302 108Q379 108 456 138L434 15Q359 -14 274 -14Q150 -14 89 48T29 217Q29 344 103 421T306 499ZM300 388Q260 388 233 364T195 296H366Q370 312 370 322Q370 352 352 370T300 388ZM182 705H248V698Q248 669 263 654T314 640Q352 640 371 656T397 705H473Q459 639 414 604T310 570Q243 570 211 600T180 680Q180 687 182 705Z" horiz-adv-x="529" unicode="ĕ"/>
			<glyph d="M148 695H613L588 553H277L254 423H537L512 281H229L205 142H530L505 0H26ZM339 897H491L464 745H312Z" horiz-adv-x="579" unicode="Ė"/>
			<glyph d="M306 499Q405 499 458 447T512 310Q512 280 507 256T496 201H182V194Q182 153 214 130T302 108Q379 108 456 138L434 15Q359 -14 274 -14Q150 -14 89 48T29 217Q29 344 103 421T306 499ZM300 388Q260 388 233 364T195 296H366Q370 312 370 322Q370 352 352 370T300 388ZM263 741H415L388 589H236Z" horiz-adv-x="529" unicode="ė"/>
			<glyph d="M148 695H613L588 553H277L254 423H537L512 281H229L205 142H530L505 0H26ZM439 0H505Q454 -38 430 -64T407 -115Q407 -142 437 -142Q457 -142 484 -134L472 -205Q437 -215 412 -215Q366 -215 343 -196T320 -141Q320 -65 439 0Z" horiz-adv-x="579" unicode="Ę"/>
			<glyph d="M306 499Q405 499 458 447T512 310Q512 280 507 256T496 201H182V194Q182 153 214 130T302 108Q379 108 456 138L434 15Q381 -28 357 -57T333 -115Q333 -142 363 -142Q383 -142 410 -134L398 -205Q363 -215 338 -215Q292 -215 269 -196T246 -141Q246 -70 328 -11Q303 -14 274 -14Q150 -14 89 48T29 217Q29 344 103 421T306 499ZM300 388Q260 388 233 364T195 296H366Q370 312 370 322Q370 352 352 370T300 388Z" horiz-adv-x="529" unicode="ę"/>
			<glyph d="M148 695H613L588 553H277L254 423H537L512 281H229L205 142H530L505 0H26ZM253 921H364L397 851L458 921H579L423 750H352Z" horiz-adv-x="579" unicode="Ě"/>
			<glyph d="M306 499Q405 499 458 447T512 310Q512 280 507 256T496 201H182V194Q182 153 214 130T302 108Q379 108 456 138L434 15Q359 -14 274 -14Q150 -14 89 48T29 217Q29 344 103 421T306 499ZM300 388Q260 388 233 364T195 296H366Q370 312 370 322Q370 352 352 370T300 388ZM153 742H259L308 655L387 742H497L347 554H259Z" horiz-adv-x="529" unicode="ě"/>
			<glyph d="M465 707Q588 707 693 665L669 524Q629 540 573 553T464 566Q341 566 279 500T218 316Q218 224 265 176T387 129Q415 129 435 132T479 142L500 262H346L368 391H673L613 43Q507 -12 376 -12Q221 -12 136 76T52 307Q52 494 162 600T465 707ZM433 925H505L603 754H494L459 823L400 754H276Z" horiz-adv-x="702" unicode="Ĝ"/>
			<glyph d="M336 500Q399 500 459 486T555 450L478 11Q457 -110 388 -175T183 -241Q84 -241 -4 -209L18 -78Q98 -107 182 -107Q242 -107 280 -85T328 -16L332 6Q292 -11 237 -11Q138 -11 82 49T27 214Q27 297 66 364T174 466T336 500ZM324 366Q254 366 217 327T180 221Q180 173 206 146T279 119Q317 119 353 131L393 353Q363 366 324 366ZM307 742H395L498 554H392L340 641L264 554H154Z" horiz-adv-x="577" unicode="ĝ"/>
			<glyph d="M465 707Q588 707 693 665L669 524Q629 540 573 553T464 566Q341 566 279 500T218 316Q218 224 265 176T387 129Q415 129 435 132T479 142L500 262H346L368 391H673L613 43Q507 -12 376 -12Q221 -12 136 76T52 307Q52 494 162 600T465 707ZM301 884H392V879Q392 829 455 829Q518 829 533 884H634Q622 814 572 779T448 744Q375 744 337 775T299 858Q299 875 301 884Z" horiz-adv-x="702" unicode="Ğ"/>
			<glyph d="M336 500Q399 500 459 486T555 450L478 11Q457 -110 388 -175T183 -241Q84 -241 -4 -209L18 -78Q98 -107 182 -107Q242 -107 280 -85T328 -16L332 6Q292 -11 237 -11Q138 -11 82 49T27 214Q27 297 66 364T174 466T336 500ZM324 366Q254 366 217 327T180 221Q180 173 206 146T279 119Q317 119 353 131L393 353Q363 366 324 366ZM205 705H271V698Q271 669 286 654T337 640Q375 640 394 656T420 705H496Q482 639 437 604T333 570Q266 570 234 600T203 680Q203 687 205 705Z" horiz-adv-x="577" unicode="ğ"/>
			<glyph d="M465 707Q588 707 693 665L669 524Q629 540 573 553T464 566Q341 566 279 500T218 316Q218 224 265 176T387 129Q415 129 435 132T479 142L500 262H346L368 391H673L613 43Q507 -12 376 -12Q221 -12 136 76T52 307Q52 494 162 600T465 707ZM399 897H551L524 745H372Z" horiz-adv-x="702" unicode="Ġ"/>
			<glyph d="M336 500Q399 500 459 486T555 450L478 11Q457 -110 388 -175T183 -241Q84 -241 -4 -209L18 -78Q98 -107 182 -107Q242 -107 280 -85T328 -16L332 6Q292 -11 237 -11Q138 -11 82 49T27 214Q27 297 66 364T174 466T336 500ZM324 366Q254 366 217 327T180 221Q180 173 206 146T279 119Q317 119 353 131L393 353Q363 366 324 366ZM286 741H438L411 589H259Z" horiz-adv-x="577" unicode="ġ"/>
			<glyph d="M465 707Q588 707 693 665L669 524Q629 540 573 553T464 566Q341 566 279 500T218 316Q218 224 265 176T387 129Q415 129 435 132T479 142L500 262H346L368 391H673L613 43Q507 -12 376 -12Q221 -12 136 76T52 307Q52 494 162 600T465 707ZM308 -44H458L323 -231H193Z" horiz-adv-x="702" unicode="Ģ"/>
			<glyph d="M336 500Q399 500 459 486T555 450L478 11Q457 -110 388 -175T183 -241Q84 -241 -4 -209L18 -78Q98 -107 182 -107Q242 -107 280 -85T328 -16L332 6Q292 -11 237 -11Q138 -11 82 49T27 214Q27 297 66 364T174 466T336 500ZM324 366Q254 366 217 327T180 221Q180 173 206 146T279 119Q317 119 353 131L393 353Q363 366 324 366ZM374 750H501L386 563H239Z" horiz-adv-x="577" unicode="ģ"/>
			<glyph d="M148 695H301L252 419H558L607 695H761L639 0H485L534 278H228L179 0H26ZM447 925H519L617 754H508L473 823L414 754H290Z" horiz-adv-x="750" unicode="Ĥ"/>
			<glyph d="M145 738H291L244 478Q308 500 371 500Q445 500 486 463T527 354Q527 328 516 262L470 0H324L369 249Q376 289 376 308Q376 339 360 352T307 366Q267 366 223 354L161 0H15ZM373 968H445L543 797H434L399 866L340 797H216Z" horiz-adv-x="569" unicode="ĥ"/>
			<glyph d="M148 695H301L284 598H590L607 695H761L744 598H813L795 495H726L639 0H485L532 268H226L179 0H26L113 495H42L60 598H131ZM266 495L249 402H555L572 495Z" horiz-adv-x="750" unicode="Ħ"/>
			<glyph d="M145 738H291L279 670H429L407 547H256L244 478Q308 500 371 500Q445 500 486 463T527 354Q527 328 516 262L470 0H324L369 249Q376 289 376 308Q376 339 360 352T307 366Q267 366 223 354L161 0H15L111 547H47L69 670H133Z" horiz-adv-x="569" unicode="ħ"/>
			<glyph d="M148 695H302L180 0H26ZM185 885Q226 885 253 856T295 827Q309 827 321 842T339 882H418Q399 812 370 777T296 743Q272 743 253 754T216 784T181 803Q165 803 153 785T138 746H61Q74 811 103 848T185 885Z" horiz-adv-x="291" unicode="Ĩ"/>
			<glyph d="M101 487H247L162 0H16ZM135 701Q177 701 203 672T245 643Q259 643 271 658T289 698H368Q349 628 320 593T246 559Q222 559 203 570T166 600T131 619Q115 619 103 601T88 562H11Q24 627 53 664T135 701Z" horiz-adv-x="263" unicode="ĩ"/>
			<glyph d="M148 695H302L180 0H26ZM124 850H373L356 752H107Z" horiz-adv-x="291" unicode="Ī"/>
			<glyph d="M101 487H247L162 0H16ZM77 666H326L309 568H60Z" horiz-adv-x="263" unicode="ī"/>
			<glyph d="M148 695H302L180 0H26ZM85 884H176V879Q176 829 239 829Q302 829 317 884H418Q406 814 356 779T232 744Q159 744 121 775T83 858Q83 875 85 884Z" horiz-adv-x="291" unicode="Ĭ"/>
			<glyph d="M101 487H247L162 0H16ZM58 705H124V698Q124 669 139 654T190 640Q228 640 247 656T273 705H349Q335 639 290 604T186 570Q119 570 87 600T56 680Q56 687 58 705Z" horiz-adv-x="263" unicode="ĭ"/>
			<glyph d="M152 695H306L184 0Q133 -38 109 -64T86 -115Q86 -142 116 -142Q136 -142 163 -134L151 -205Q116 -215 91 -215Q45 -215 22 -196T-1 -141Q-1 -65 118 0H30Z" horiz-adv-x="298" unicode="Į"/>
			<glyph d="M143 741H295L268 589H116ZM101 487H247L162 0Q111 -38 87 -64T64 -115Q64 -142 94 -142Q114 -142 141 -134L129 -205Q94 -215 69 -215Q23 -215 0 -196T-23 -141Q-23 -65 96 0H16Z" horiz-adv-x="263" unicode="į"/>
			<glyph d="M148 695H302L180 0H26ZM183 897H335L308 745H156Z" horiz-adv-x="291" unicode="İ"/>
			<glyph d="M101 487H247L162 0H16Z" horiz-adv-x="263" unicode="ı"/>
			<glyph d="M148 695H302L180 0H26ZM656 695H811L736 269Q709 115 633 52T419 -11Q377 -11 334 -2T266 18L284 157Q303 148 343 139T415 131Q493 131 531 168T585 293Z" horiz-adv-x="797" unicode="Ĳ"/>
			<glyph d="M143 741H295L268 589H116ZM101 487H247L162 0H16ZM404 741H556L529 589H377ZM362 487H508L415 -47Q399 -139 348 -189T201 -240Q171 -240 143 -235T101 -226L123 -101L143 -106Q159 -110 185 -110Q257 -110 271 -31Z" horiz-adv-x="524" unicode="ĳ"/>
			<glyph d="M365 695H520L445 269Q418 115 342 52T128 -11Q86 -11 43 -2T-25 18L-7 157Q12 148 52 139T124 131Q202 131 240 168T294 293ZM435 925H507L605 754H496L461 823L402 754H278Z" horiz-adv-x="507" unicode="Ĵ"/>
			<glyph d="M100 487H246L153 -47Q137 -139 86 -189T-61 -240Q-91 -240 -118 -235T-161 -226L-139 -101L-119 -106Q-103 -110 -77 -110Q-5 -110 9 -31ZM160 742H248L351 554H245L193 641L117 554H7Z" horiz-adv-x="262" unicode="ĵ"/>
			<glyph d="M148 695H302L243 359H245L554 695H765L418 343L636 0H449L243 346H241L180 0H26ZM260 -44H410L275 -231H145Z" horiz-adv-x="685" unicode="Ķ"/>
			<glyph d="M145 738H291L208 267H210L419 487H611L374 252L518 0H344L208 258H206L161 0H15ZM192 -44H342L207 -231H77Z" horiz-adv-x="569" unicode="ķ"/>
			<glyph d="M101 487H247L208 267H210L419 487H611L374 252L518 0H344L208 258H206L161 0H15Z" horiz-adv-x="569" unicode="ĸ"/>
			<glyph d="M148 695H302L204 140H525L501 0H26ZM255 893H398L272 756H163Z" horiz-adv-x="554" unicode="Ĺ"/>
			<glyph d="M145 738H291L161 0H15ZM248 936H391L265 799H156Z" horiz-adv-x="262" unicode="ĺ"/>
			<glyph d="M148 695H302L204 140H525L501 0H26ZM194 -44H344L209 -231H79Z" horiz-adv-x="554" unicode="Ļ"/>
			<glyph d="M145 738H291L161 0H15ZM48 -44H198L63 -231H-67Z" horiz-adv-x="262" unicode="ļ"/>
			<glyph d="M148 695H302L204 140H525L501 0H26ZM391 738H520L413 521H304Z" horiz-adv-x="554" unicode="Ľ"/>
			<glyph d="M145 738H291L161 0H15ZM380 738H509L402 521H293Z" horiz-adv-x="262" unicode="ľ"/>
			<glyph d="M148 695H302L204 140H525L501 0H26ZM376 414H528L501 262H349Z" horiz-adv-x="554" unicode="Ŀ"/>
			<glyph d="M145 738H291L161 0H15ZM295 448H447L420 296H268Z" horiz-adv-x="408" unicode="ŀ"/>
			<glyph d="M147 695H301L261 467L426 550L400 408L236 325L203 140H524L500 0H25L67 241L-15 200L10 342L92 383Z" horiz-adv-x="553" unicode="Ł"/>
			<glyph d="M157 738H303L260 492L342 537L317 395L235 350L173 0H27L74 264L-10 220L15 362L99 406Z" horiz-adv-x="284" unicode="ł"/>
			<glyph d="M148 695H271L541 263H543Q546 293 557 362L616 695H767L645 0H524L252 430H250Q248 410 239 355L235 330L177 0H26ZM488 893H631L505 756H396Z" horiz-adv-x="756" unicode="Ń"/>
			<glyph d="M320 500Q527 500 527 350Q527 322 517 262L471 0H325L370 249Q377 289 377 308Q377 336 358 351T303 366Q262 366 225 358L162 0H16L98 469Q157 483 209 491T320 500ZM360 723H504L362 554H251Z" unicode="ń"/>
			<glyph d="M148 695H271L541 263H543Q546 293 557 362L616 695H767L645 0H524L252 430H250Q248 410 239 355L235 330L177 0H26ZM296 -44H446L311 -231H181Z" horiz-adv-x="756" unicode="Ņ"/>
			<glyph d="M320 500Q527 500 527 350Q527 322 517 262L471 0H325L370 249Q377 289 377 308Q377 336 358 351T303 366Q262 366 225 358L162 0H16L98 469Q157 483 209 491T320 500ZM202 -44H352L217 -231H87Z" unicode="ņ"/>
			<glyph d="M148 695H271L541 263H543Q546 293 557 362L616 695H767L645 0H524L252 430H250Q248 410 239 355L235 330L177 0H26ZM330 921H441L474 851L535 921H656L500 750H429Z" horiz-adv-x="756" unicode="Ň"/>
			<glyph d="M320 500Q527 500 527 350Q527 322 517 262L471 0H325L370 249Q377 289 377 308Q377 336 358 351T303 366Q262 366 225 358L162 0H16L98 469Q157 483 209 491T320 500ZM164 742H270L319 655L398 742H508L358 554H270Z" unicode="ň"/>
			<glyph d="M425 500Q632 500 632 350Q632 322 622 262L576 0H430L475 249Q482 289 482 308Q482 336 463 351T408 366Q367 366 330 358L267 0H121L203 469Q262 483 314 491T425 500ZM168 714H315L113 415H0Z" horiz-adv-x="675" unicode="ŉ"/>
			<glyph d="M148 695H271L541 263H543Q546 293 557 362L616 695H767L646 9Q622 -124 554 -188T362 -253Q316 -253 272 -244T203 -223L224 -87Q247 -99 281 -108T356 -117Q472 -117 494 -1L501 36L252 430H250Q248 410 239 355L235 330L177 0H26Z" horiz-adv-x="755" unicode="Ŋ"/>
			<glyph d="M320 500Q527 500 527 350Q527 322 517 262L463 -47Q447 -139 396 -189T249 -240Q219 -240 191 -235T149 -226L171 -101L191 -106Q207 -110 233 -110Q305 -110 319 -31L370 249Q377 289 377 308Q377 336 358 351T303 366Q262 366 225 358L162 0H16L98 469Q157 483 209 491T320 500Z" unicode="ŋ"/>
			<glyph d="M437 707Q593 707 679 623T765 396Q765 275 716 180T583 37T380 -12Q224 -12 138 73T52 311Q52 398 80 477T164 608T286 684T437 707ZM424 562Q323 562 267 493T212 315Q212 229 257 181T391 133Q493 133 549 204T606 384Q606 466 560 514T424 562ZM339 850H588L571 752H322Z" horiz-adv-x="778" unicode="Ō"/>
			<glyph d="M313 500Q415 500 478 438T541 274Q541 144 468 65T258 -14Q153 -14 91 49T29 223Q29 342 103 421T313 500ZM297 365Q245 365 212 328T180 230Q180 178 205 149T272 121Q335 121 362 164T389 264Q389 308 366 336T297 365ZM211 666H460L443 568H194Z" unicode="ō"/>
			<glyph d="M437 707Q593 707 679 623T765 396Q765 275 716 180T583 37T380 -12Q224 -12 138 73T52 311Q52 398 80 477T164 608T286 684T437 707ZM424 562Q323 562 267 493T212 315Q212 229 257 181T391 133Q493 133 549 204T606 384Q606 466 560 514T424 562ZM300 884H391V879Q391 829 454 829Q517 829 532 884H633Q621 814 571 779T447 744Q374 744 336 775T298 858Q298 875 300 884Z" horiz-adv-x="778" unicode="Ŏ"/>
			<glyph d="M313 500Q415 500 478 438T541 274Q541 144 468 65T258 -14Q153 -14 91 49T29 223Q29 342 103 421T313 500ZM297 365Q245 365 212 328T180 230Q180 178 205 149T272 121Q335 121 362 164T389 264Q389 308 366 336T297 365ZM192 705H258V698Q258 669 273 654T324 640Q362 640 381 656T407 705H483Q469 639 424 604T320 570Q253 570 221 600T190 680Q190 687 192 705Z" unicode="ŏ"/>
			<glyph d="M437 707Q593 707 679 623T765 396Q765 275 716 180T583 37T380 -12Q224 -12 138 73T52 311Q52 398 80 477T164 608T286 684T437 707ZM424 562Q323 562 267 493T212 315Q212 229 257 181T391 133Q493 133 549 204T606 384Q606 466 560 514T424 562ZM393 896H541L400 756H288ZM592 896H740L599 756H487Z" horiz-adv-x="778" unicode="Ő"/>
			<glyph d="M313 500Q415 500 478 438T541 274Q541 144 468 65T258 -14Q153 -14 91 49T29 223Q29 342 103 421T313 500ZM297 365Q245 365 212 328T180 230Q180 178 205 149T272 121Q335 121 362 164T389 264Q389 308 366 336T297 365ZM287 729H444L266 552H154ZM480 729H637L459 552H347Z" unicode="ő"/>
			<glyph d="M431 707Q533 707 613 660L619 695H1084L1059 553H748L725 423H1008L983 281H700L676 142H1001L976 0H497L500 18Q437 -12 354 -12Q214 -12 133 74T52 311Q52 397 80 476T162 608T282 684T431 707ZM432 562Q326 562 269 493T212 315Q212 229 257 181T393 133Q468 133 525 164L587 516Q523 562 432 562Z" horiz-adv-x="1050" unicode="Œ"/>
			<glyph d="M301 499Q355 499 399 482T472 432Q541 499 653 499Q752 499 805 447T859 310Q859 280 854 256T843 201H529V194Q529 153 561 130T649 108Q726 108 803 138L781 15Q706 -14 621 -14Q503 -14 446 52Q377 -14 258 -14Q153 -14 91 49T29 223Q29 339 100 419T301 499ZM647 388Q607 388 580 364T542 296H713Q717 312 717 322Q717 352 699 370T647 388ZM297 365Q245 365 212 328T180 230Q180 178 205 149T272 121Q335 121 362 164T389 264Q389 308 366 336T297 365Z" horiz-adv-x="876" unicode="œ"/>
			<glyph d="M148 695H389Q516 695 581 641T647 488Q647 394 595 337T463 260L600 0H419L310 233H221L180 0H26ZM279 562L245 373H367Q423 373 454 399T485 472Q485 562 376 562ZM415 893H558L432 756H323Z" horiz-adv-x="651" unicode="Ŕ"/>
			<glyph d="M307 500Q358 500 413 489L390 360Q356 369 306 369Q267 369 226 360L163 0H17L98 468Q194 500 307 500ZM292 723H436L294 554H183Z" horiz-adv-x="377" unicode="ŕ"/>
			<glyph d="M148 695H389Q516 695 581 641T647 488Q647 394 595 337T463 260L600 0H419L310 233H221L180 0H26ZM279 562L245 373H367Q423 373 454 399T485 472Q485 562 376 562ZM242 -44H392L257 -231H127Z" horiz-adv-x="651" unicode="Ŗ"/>
			<glyph d="M307 500Q358 500 413 489L390 360Q356 369 306 369Q267 369 226 360L163 0H17L98 468Q194 500 307 500ZM50 -44H200L65 -231H-65Z" horiz-adv-x="377" unicode="ŗ"/>
			<glyph d="M148 695H389Q516 695 581 641T647 488Q647 394 595 337T463 260L600 0H419L310 233H221L180 0H26ZM279 562L245 373H367Q423 373 454 399T485 472Q485 562 376 562ZM257 921H368L401 851L462 921H583L427 750H356Z" horiz-adv-x="651" unicode="Ř"/>
			<glyph d="M307 500Q358 500 413 489L390 360Q356 369 306 369Q267 369 226 360L163 0H17L98 468Q194 500 307 500ZM96 742H202L251 655L330 742H440L290 554H202Z" horiz-adv-x="377" unicode="ř"/>
			<glyph d="M374 707Q436 707 494 695T582 672L556 530Q454 566 363 566Q247 566 247 491Q247 450 294 429T404 384T503 318T539 210Q539 110 466 49T260 -12Q184 -12 120 2T17 35L40 177Q76 157 133 141T248 125Q311 125 344 142T377 199Q377 226 353 242T266 282T162 333T103 398T87 484Q87 584 162 645T374 707ZM387 893H530L404 756H295Z" horiz-adv-x="575" unicode="Ś"/>
			<glyph d="M274 505Q323 505 366 498T439 482L419 364Q344 389 272 389Q238 389 218 378T198 347Q198 326 231 315T311 285T384 238T411 157Q411 82 358 34T183 -13Q133 -13 85 -4T5 14L22 131Q104 100 176 100Q263 100 263 143Q263 166 225 179T144 209T78 257T55 340Q55 415 112 460T274 505ZM313 723H457L315 554H204Z" horiz-adv-x="457" unicode="ś"/>
			<glyph d="M374 707Q436 707 494 695T582 672L556 530Q454 566 363 566Q247 566 247 491Q247 450 294 429T404 384T503 318T539 210Q539 110 466 49T260 -12Q184 -12 120 2T17 35L40 177Q76 157 133 141T248 125Q311 125 344 142T377 199Q377 226 353 242T266 282T162 333T103 398T87 484Q87 584 162 645T374 707ZM349 925H421L519 754H410L375 823L316 754H192Z" horiz-adv-x="575" unicode="Ŝ"/>
			<glyph d="M274 505Q323 505 366 498T439 482L419 364Q344 389 272 389Q238 389 218 378T198 347Q198 326 231 315T311 285T384 238T411 157Q411 82 358 34T183 -13Q133 -13 85 -4T5 14L22 131Q104 100 176 100Q263 100 263 143Q263 166 225 179T144 209T78 257T55 340Q55 415 112 460T274 505ZM248 742H336L439 554H333L281 641L205 554H95Z" horiz-adv-x="457" unicode="ŝ"/>
			<glyph d="M374 707Q436 707 494 695T582 672L556 530Q454 566 363 566Q247 566 247 491Q247 450 294 429T404 384T503 318T539 210Q539 110 467 49T263 -12L241 -44Q280 -44 302 -65T325 -122Q325 -165 289 -194T187 -223Q142 -223 103 -211L116 -138Q137 -143 151 -146T186 -149Q217 -149 228 -142T239 -121Q239 -108 227 -101T183 -94H155L216 -11Q154 -7 102 6T17 35L40 177Q76 157 133 141T248 125Q311 125 344 142T377 199Q377 226 353 242T266 282T162 333T103 398T87 484Q87 584 162 645T374 707Z" horiz-adv-x="575" unicode="Ş"/>
			<glyph d="M274 505Q323 505 366 498T439 482L419 364Q344 389 272 389Q238 389 218 378T198 347Q198 326 231 315T311 285T384 238T411 157Q411 85 362 38T204 -13L183 -44Q222 -44 244 -65T267 -122Q267 -165 231 -194T129 -223Q84 -223 45 -211L58 -138Q79 -143 93 -146T128 -149Q159 -149 170 -142T181 -121Q181 -108 169 -101T125 -94H97L157 -12Q112 -10 72 -2T5 14L22 131Q104 100 176 100Q263 100 263 143Q263 166 225 179T144 209T78 257T55 340Q55 415 112 460T274 505Z" horiz-adv-x="457" unicode="ş"/>
			<glyph d="M374 707Q436 707 494 695T582 672L556 530Q454 566 363 566Q247 566 247 491Q247 450 294 429T404 384T503 318T539 210Q539 110 466 49T260 -12Q184 -12 120 2T17 35L40 177Q76 157 133 141T248 125Q311 125 344 142T377 199Q377 226 353 242T266 282T162 333T103 398T87 484Q87 584 162 645T374 707ZM229 921H340L373 851L434 921H555L399 750H328Z" horiz-adv-x="575" unicode="Š"/>
			<glyph d="M274 505Q323 505 366 498T439 482L419 364Q344 389 272 389Q238 389 218 378T198 347Q198 326 231 315T311 285T384 238T411 157Q411 82 358 34T183 -13Q133 -13 85 -4T5 14L22 131Q104 100 176 100Q263 100 263 143Q263 166 225 179T144 209T78 257T55 340Q55 415 112 460T274 505ZM117 742H223L272 655L351 742H461L311 554H223Z" horiz-adv-x="457" unicode="š"/>
			<glyph d="M88 695H652L627 555H422L325 0H171L268 555H63ZM207 -44H357L222 -231H92Z" horiz-adv-x="580" unicode="Ţ"/>
			<glyph d="M141 622H287L263 487H392L371 366H242L218 226Q209 174 209 158Q209 116 253 116Q271 116 293 120T330 129L310 8Q257 -8 203 -8Q134 -8 97 25T60 128Q60 161 73 236L96 366H31L52 487H117ZM123 -44H273L138 -231H8Z" horiz-adv-x="372" unicode="ţ"/>
			<glyph d="M88 695H652L627 555H422L325 0H171L268 555H63ZM242 921H353L386 851L447 921H568L412 750H341Z" horiz-adv-x="580" unicode="Ť"/>
			<glyph d="M141 622H287L263 487H392L371 366H242L218 226Q209 174 209 158Q209 116 253 116Q271 116 293 120T330 129L310 8Q257 -8 203 -8Q134 -8 97 25T60 128Q60 161 73 236L96 366H31L52 487H117ZM400 738H529L422 521H313Z" horiz-adv-x="372" unicode="ť"/>
			<glyph d="M88 695H652L627 555H422L393 387H546L522 254H369L325 0H171L215 254H63L87 387H239L268 555H63Z" horiz-adv-x="580" unicode="Ŧ"/>
			<glyph d="M141 622H287L263 487H392L371 366H242L230 300H359L340 189H212Q209 171 209 158Q209 116 253 116Q271 116 293 120T330 129L310 8Q257 -8 203 -8Q134 -8 97 25T60 128Q60 144 65 189H0L19 300H84L96 366H31L52 487H117Z" horiz-adv-x="372" unicode="ŧ"/>
			<glyph d="M146 695H299L236 334Q224 270 224 226Q224 181 254 154T361 128Q414 128 447 135T489 143L586 695H739L621 33Q539 9 483 -1T346 -12Q199 -12 134 42T70 202Q70 262 88 366ZM393 885Q434 885 461 856T503 827Q517 827 529 842T547 882H626Q607 812 578 777T504 743Q480 743 461 754T424 784T389 803Q373 803 361 785T346 746H269Q282 811 311 848T393 885Z" horiz-adv-x="727" unicode="Ũ"/>
			<glyph d="M99 487H245L200 238Q193 198 193 179Q193 151 211 136T267 121Q308 121 345 129L408 487H554L472 18Q413 4 361 -4T250 -13Q43 -13 43 137Q43 165 53 225ZM288 701Q330 701 356 672T398 643Q412 643 424 658T442 698H521Q502 628 473 593T399 559Q375 559 356 570T319 600T284 619Q268 619 256 601T241 562H164Q177 627 206 664T288 701Z" unicode="ũ"/>
			<glyph d="M146 695H299L236 334Q224 270 224 226Q224 181 254 154T361 128Q414 128 447 135T489 143L586 695H739L621 33Q539 9 483 -1T346 -12Q199 -12 134 42T70 202Q70 262 88 366ZM332 850H581L564 752H315Z" horiz-adv-x="727" unicode="Ū"/>
			<glyph d="M99 487H245L200 238Q193 198 193 179Q193 151 211 136T267 121Q308 121 345 129L408 487H554L472 18Q413 4 361 -4T250 -13Q43 -13 43 137Q43 165 53 225ZM230 666H479L462 568H213Z" unicode="ū"/>
			<glyph d="M146 695H299L236 334Q224 270 224 226Q224 181 254 154T361 128Q414 128 447 135T489 143L586 695H739L621 33Q539 9 483 -1T346 -12Q199 -12 134 42T70 202Q70 262 88 366ZM293 884H384V879Q384 829 447 829Q510 829 525 884H626Q614 814 564 779T440 744Q367 744 329 775T291 858Q291 875 293 884Z" horiz-adv-x="727" unicode="Ŭ"/>
			<glyph d="M99 487H245L200 238Q193 198 193 179Q193 151 211 136T267 121Q308 121 345 129L408 487H554L472 18Q413 4 361 -4T250 -13Q43 -13 43 137Q43 165 53 225ZM211 705H277V698Q277 669 292 654T343 640Q381 640 400 656T426 705H502Q488 639 443 604T339 570Q272 570 240 600T209 680Q209 687 211 705Z" unicode="ŭ"/>
			<glyph d="M146 695H299L236 334Q224 270 224 226Q224 181 254 154T361 128Q414 128 447 135T489 143L586 695H739L621 33Q539 9 483 -1T346 -12Q199 -12 134 42T70 202Q70 262 88 366ZM440 948Q487 948 520 915T553 835Q553 788 520 755T440 722Q393 722 360 755T327 835Q327 883 360 915T440 948ZM440 883Q420 883 406 869T392 835Q392 816 406 801T440 787Q461 787 475 801T489 835Q489 856 475 869T440 883Z" horiz-adv-x="727" unicode="Ů"/>
			<glyph d="M99 487H245L200 238Q193 198 193 179Q193 151 211 136T267 121Q308 121 345 129L408 487H554L472 18Q413 4 361 -4T250 -13Q43 -13 43 137Q43 165 53 225ZM337 768Q384 768 417 735T450 655Q450 608 417 575T337 542Q290 542 257 575T224 655Q224 703 257 735T337 768ZM337 703Q317 703 303 689T289 655Q289 636 303 621T337 607Q358 607 372 621T386 655Q386 676 372 689T337 703Z" unicode="ů"/>
			<glyph d="M146 695H299L236 334Q224 270 224 226Q224 181 254 154T361 128Q414 128 447 135T489 143L586 695H739L621 33Q539 9 483 -1T346 -12Q199 -12 134 42T70 202Q70 262 88 366ZM386 896H534L393 756H281ZM585 896H733L592 756H480Z" horiz-adv-x="727" unicode="Ű"/>
			<glyph d="M99 487H245L200 238Q193 198 193 179Q193 151 211 136T267 121Q308 121 345 129L408 487H554L472 18Q413 4 361 -4T250 -13Q43 -13 43 137Q43 165 53 225ZM306 729H463L285 552H173ZM499 729H656L478 552H366Z" unicode="ű"/>
			<glyph d="M146 695H299L236 334Q224 270 224 226Q224 181 254 154T361 128Q414 128 447 135T489 143L586 695H739L621 33Q512 -52 512 -108Q512 -123 520 -132T544 -142Q562 -142 589 -134L577 -205Q542 -215 517 -215Q425 -215 425 -135Q425 -99 448 -63T514 4Q430 -12 346 -12Q199 -12 134 42T70 202Q70 262 88 366Z" horiz-adv-x="727" unicode="Ų"/>
			<glyph d="M99 487H245L200 238Q193 198 193 179Q193 151 211 136T267 121Q308 121 345 129L408 487H554L472 18Q419 -26 394 -55T370 -115Q370 -142 400 -142Q420 -142 447 -134L435 -205Q400 -215 375 -215Q329 -215 306 -196T283 -141Q283 -101 307 -67T375 -2Q305 -13 250 -13Q43 -13 43 137Q43 165 53 225Z" unicode="ų"/>
			<glyph d="M96 695H252L285 329Q289 287 289 247Q289 231 288 215H290Q305 254 345 334L532 695H649L693 319Q700 253 700 217V209H702Q719 257 751 325L922 695H1093L744 0H599L554 323Q554 334 549 375T543 446H541Q520 394 485 326L323 0H177ZM587 925H659L757 754H648L613 823L554 754H430Z" horiz-adv-x="1029" unicode="Ŵ"/>
			<glyph d="M54 487H199L218 277Q223 220 223 182H225Q245 234 265 275L373 487H501L529 271Q536 223 538 185H540Q561 244 574 272L675 487H835L584 0H444L412 198Q401 264 401 297H399Q380 250 354 197L254 0H116ZM431 742H519L622 554H516L464 641L388 554H278Z" horiz-adv-x="803" unicode="ŵ"/>
			<glyph d="M72 695H238L337 384L550 695H738L397 232L357 0H202L242 229ZM384 925H456L554 754H445L410 823L351 754H227Z" horiz-adv-x="650" unicode="Ŷ"/>
			<glyph d="M36 487H189L230 251Q238 201 238 180H240Q254 212 273 245L402 487H575L153 -235H-11L139 18ZM273 742H361L464 554H358L306 641L230 554H120Z" horiz-adv-x="525" unicode="ŷ"/>
			<glyph d="M72 695H238L337 384L550 695H738L397 232L357 0H202L242 229ZM273 864H389L368 747H252ZM450 864H566L545 747H429Z" horiz-adv-x="650" unicode="Ÿ"/>
			<glyph d="M131 695H693L672 577L237 140H607L583 0H-12L8 114L443 555H106ZM436 893H579L453 756H344Z" horiz-adv-x="653" unicode="Ź"/>
			<glyph d="M74 487H499L483 392L219 132H446L423 0H-22L-6 95L260 356H51ZM337 723H481L339 554H228Z" horiz-adv-x="486" unicode="ź"/>
			<glyph d="M131 695H693L672 577L237 140H607L583 0H-12L8 114L443 555H106ZM364 897H516L489 745H337Z" horiz-adv-x="653" unicode="Ż"/>
			<glyph d="M74 487H499L483 392L219 132H446L423 0H-22L-6 95L260 356H51ZM251 741H403L376 589H224Z" horiz-adv-x="486" unicode="ż"/>
			<glyph d="M131 695H693L672 577L237 140H607L583 0H-12L8 114L443 555H106ZM278 921H389L422 851L483 921H604L448 750H377Z" horiz-adv-x="653" unicode="Ž"/>
			<glyph d="M74 487H499L483 392L219 132H446L423 0H-22L-6 95L260 356H51ZM141 742H247L296 655L375 742H485L335 554H247Z" horiz-adv-x="486" unicode="ž"/>
			<glyph d="M504 706Q539 706 573 701T627 690L590 569L562 577Q540 583 512 583Q470 583 447 561T414 502L393 431H522L487 310H358L310 151Q278 42 218 -6T71 -55Q45 -55 14 -50T-29 -40L9 84L30 79Q46 75 70 75Q102 75 125 95T160 154L206 310H141L176 431H241L264 508Q292 603 346 654T504 706Z" horiz-adv-x="562" unicode="ƒ"/>
			<glyph d="M374 707Q436 707 494 695T582 672L556 530Q454 566 363 566Q247 566 247 491Q247 450 294 429T404 384T503 318T539 210Q539 110 466 49T260 -12Q184 -12 120 2T17 35L40 177Q76 157 133 141T248 125Q311 125 344 142T377 199Q377 226 353 242T266 282T162 333T103 398T87 484Q87 584 162 645T374 707ZM204 -44H354L219 -231H89Z" horiz-adv-x="575" unicode="Ș"/>
			<glyph d="M274 505Q323 505 366 498T439 482L419 364Q344 389 272 389Q238 389 218 378T198 347Q198 326 231 315T311 285T384 238T411 157Q411 82 358 34T183 -13Q133 -13 85 -4T5 14L22 131Q104 100 176 100Q263 100 263 143Q263 166 225 179T144 209T78 257T55 340Q55 415 112 460T274 505ZM146 -44H296L161 -231H31Z" horiz-adv-x="457" unicode="ș"/>
			<glyph d="M88 695H652L627 555H422L325 0H171L268 555H63ZM207 -44H357L222 -231H92Z" horiz-adv-x="580" unicode="Ț"/>
			<glyph d="M141 622H287L263 487H392L371 366H242L218 226Q209 174 209 158Q209 116 253 116Q271 116 293 120T330 129L310 8Q257 -8 203 -8Q134 -8 97 25T60 128Q60 161 73 236L96 366H31L52 487H117ZM123 -44H273L138 -231H8Z" horiz-adv-x="372" unicode="ț"/>
			<glyph d="M100 487H246L153 -47Q137 -139 86 -189T-61 -240Q-91 -240 -118 -235T-161 -226L-139 -101L-119 -106Q-103 -110 -77 -110Q-5 -110 9 -31Z" horiz-adv-x="262" unicode="ȷ"/>
			<glyph d="M218 742H306L409 554H303L251 641L175 554H65Z" horiz-adv-x="364" unicode="ˆ"/>
			<glyph d="M98 742H204L253 655L332 742H442L292 554H204Z" horiz-adv-x="364" unicode="ˇ"/>
			<glyph d="M89 666H338L321 568H72Z" horiz-adv-x="279" unicode="ˉ"/>
			<glyph d="M71 705H137V698Q137 669 152 654T203 640Q241 640 260 656T286 705H362Q348 639 303 604T199 570Q132 570 100 600T69 680Q69 687 71 705Z" horiz-adv-x="270" unicode="˘"/>
			<glyph d="M149 741H301L274 589H122Z" horiz-adv-x="279" unicode="˙"/>
			<glyph d="M213 768Q260 768 293 735T326 655Q326 608 293 575T213 542Q166 542 133 575T100 655Q100 703 133 735T213 768ZM213 703Q193 703 179 689T165 655Q165 636 179 621T213 607Q234 607 248 621T262 655Q262 676 248 689T213 703Z" horiz-adv-x="282" unicode="˚"/>
			<glyph d="M103 0H169Q118 -38 94 -64T71 -115Q71 -142 101 -142Q121 -142 148 -134L136 -205Q101 -215 76 -215Q30 -215 7 -196T-16 -141Q-16 -65 103 0Z" horiz-adv-x="287" unicode="˛"/>
			<glyph d="M162 701Q204 701 230 672T272 643Q286 643 298 658T316 698H395Q376 628 347 593T273 559Q249 559 230 570T193 600T158 619Q142 619 130 601T115 562H38Q51 627 80 664T162 701Z" horiz-adv-x="302" unicode="˜"/>
			<glyph d="M193 729H350L172 552H60ZM386 729H543L365 552H253Z" horiz-adv-x="323" unicode="˝"/>
			<glyph d="M217 750H344L229 563H82Z" horiz-adv-x="0" unicode="̒"/>
			<glyph d="M70 -44H220L85 -231H-45Z" horiz-adv-x="0" unicode="̦"/>
			<glyph d="M370 695H514L675 0H-39ZM410 495L204 136H491L412 495Z" horiz-adv-x="722" unicode="Δ"/>
			<glyph d="M445 712Q593 712 675 632T757 425Q757 321 702 246T561 142L559 133H716L693 0H392L424 186Q509 207 555 270T602 410Q602 485 559 532T432 580Q339 580 281 515T224 358Q224 292 253 248T332 186L300 0H10L33 133H179L183 148Q138 174 104 230T71 369Q71 438 97 507T179 625T299 692T445 712Z" horiz-adv-x="778" unicode="Ω"/>
			<glyph d="M99 487H245L200 238Q193 196 193 179Q193 147 213 134T272 121Q308 121 345 129L408 487H554L472 18Q360 -13 275 -13Q237 -13 205 -6T164 11L117 -251H-29Z" unicode="μ"/>
			<glyph d="M210 488H667L645 363H552L517 165Q515 151 515 145Q515 112 547 112Q563 112 592 121L572 11Q527 -7 468 -7Q410 -7 384 18T358 93Q358 113 363 141L403 363H284L245 145Q231 66 211 0H60Q80 68 95 148L133 363Q86 363 40 350L62 474Q92 480 132 484T210 488Z" horiz-adv-x="659" unicode="π"/>
			<glyph d="M148 695H613L588 553H277L254 423H537L512 281H229L205 142H530L505 0H26ZM236 893H375L457 756H352Z" horiz-adv-x="579" unicode="Ѐ"/>
			<glyph d="M148 695H613L588 553H277L254 423H537L512 281H229L205 142H530L505 0H26ZM262 864H378L357 747H241ZM439 864H555L534 747H418Z" horiz-adv-x="579" unicode="Ё"/>
			<glyph d="M88 695H652L627 555H422L401 438Q462 457 530 457Q644 457 704 400T765 241Q765 124 689 53T474 -17Q436 -17 408 -11L433 129Q447 125 482 125Q606 125 606 223Q606 268 577 293T491 318Q463 318 431 312T377 298L324 0H170L268 555H63Z" horiz-adv-x="801" unicode="Ђ"/>
			<glyph d="M148 695H593L569 555H278L180 0H26ZM397 893H540L414 756H305Z" horiz-adv-x="522" unicode="Ѓ"/>
			<glyph d="M432 707Q513 707 561 696T662 664L638 517Q603 534 553 548T451 562Q368 562 313 525T235 423H527L502 281H222Q233 209 282 173T403 137Q463 137 509 152T598 188L575 29Q535 11 483 0T377 -12Q230 -12 141 75T53 317Q53 494 158 600T432 707Z" horiz-adv-x="644" unicode="Є"/>
			<glyph d="M374 707Q436 707 494 695T582 672L556 530Q454 566 363 566Q247 566 247 491Q247 450 294 429T404 384T503 318T539 210Q539 110 466 49T260 -12Q184 -12 120 2T17 35L40 177Q76 157 133 141T248 125Q311 125 344 142T377 199Q377 226 353 242T266 282T162 333T103 398T87 484Q87 584 162 645T374 707Z" horiz-adv-x="575" unicode="Ѕ"/>
			<glyph d="M148 695H302L180 0H26Z" horiz-adv-x="291" unicode="І"/>
			<glyph d="M148 695H302L180 0H26ZM106 864H222L201 747H85ZM283 864H399L378 747H262Z" horiz-adv-x="291" unicode="Ї"/>
			<glyph d="M365 695H520L445 269Q418 115 342 52T128 -11Q86 -11 43 -2T-25 18L-7 157Q12 148 52 139T124 131Q202 131 240 168T294 293Z" horiz-adv-x="507" unicode="Ј"/>
			<glyph d="M290 695H734L693 462H777Q913 462 977 404T1041 247Q1041 137 967 68T742 0H458L555 554H398Q342 326 281 204T146 36T-35 -10L-9 141Q46 141 88 177T180 331T290 695ZM670 329L637 140H752Q815 140 845 166T876 239Q876 280 849 304T770 329Z" horiz-adv-x="1078" unicode="Љ"/>
			<glyph d="M148 695H301L252 419H538L586 695H740L699 462H783Q919 462 983 404T1047 247Q1047 137 973 68T748 0H464L513 278H227L178 0H25ZM676 329L643 140H758Q821 140 851 166T882 239Q882 280 855 304T776 329Z" horiz-adv-x="1084" unicode="Њ"/>
			<glyph d="M88 695H652L627 555H422L399 424Q453 437 508 437Q642 437 700 384T758 228Q758 193 750 147L724 0H571L598 152Q603 184 603 202Q603 251 575 273T478 296Q430 296 374 282L324 0H170L268 555H63Z" horiz-adv-x="835" unicode="Ћ"/>
			<glyph d="M148 695H302L243 359H245L554 695H765L418 343L636 0H449L243 346H241L180 0H26ZM453 893H596L470 756H361Z" horiz-adv-x="685" unicode="Ќ"/>
			<glyph d="M148 695H299L240 360Q234 324 220 261H222L638 695H767L645 0H494L553 334Q555 342 556 350L558 364L564 395Q566 403 567 413T572 434H570L155 0H26ZM313 893H452L534 756H429Z" horiz-adv-x="756" unicode="Ѝ"/>
			<glyph d="M84 695H253L355 353L549 695H728L429 194Q355 71 288 30T114 -11Q76 -11 47 -2L72 138Q93 131 129 131Q172 131 203 145T258 192ZM256 895H357L356 885Q356 861 372 847T417 834Q449 834 469 850T494 895H600Q587 821 534 782T404 744Q335 744 294 776T254 866Q254 885 256 895Z" horiz-adv-x="652" unicode="Ў"/>
			<glyph d="M148 695H301L204 141H471L568 695H721L599 0H382L354 -160H216L244 0H26Z" horiz-adv-x="710" unicode="Џ"/>
			<glyph d="M370 695H514L675 0H518L485 151H220L136 0H-39ZM408 495L289 276H455L410 495Z" horiz-adv-x="722" unicode="А"/>
			<glyph d="M148 695H623L599 555L278 556L258 445H364Q489 445 549 391T609 242Q609 133 536 66T310 0H26ZM235 312L205 140H320Q384 140 414 162T444 232Q444 270 417 291T337 312Z" horiz-adv-x="646" unicode="Б"/>
			<glyph d="M148 695H422Q544 695 596 648T649 528Q649 458 605 414T488 359V357Q545 348 580 311T616 210Q616 115 539 57T319 0H26ZM284 568L258 423H360Q472 423 472 500Q472 568 373 568ZM235 291L207 134H335Q392 134 419 155T447 214Q447 252 422 271T343 291Z" horiz-adv-x="657" unicode="В"/>
			<glyph d="M148 695H593L569 555H278L180 0H26Z" horiz-adv-x="522" unicode="Г"/>
			<glyph d="M284 695H737L640 141H728L675 -160H537L565 0H103L75 -160H-63L-10 141H67Q128 219 179 345T284 695ZM393 554Q319 279 236 141H487L560 554Z" horiz-adv-x="756" unicode="Д"/>
			<glyph d="M148 695H613L588 553H277L254 423H537L512 281H229L205 142H530L505 0H26Z" horiz-adv-x="579" unicode="Е"/>
			<glyph d="M80 695H263L411 355H413L472 695H626L567 355H569L819 695H1018L731 341L896 0H716L566 342H564L504 0H350L410 342H408L154 0H-42L247 364Z" horiz-adv-x="939" unicode="Ж"/>
			<glyph d="M329 707Q448 707 508 658T568 530Q568 465 526 415T410 350V348Q528 317 528 207Q528 108 443 48T206 -12Q141 -12 84 0T-6 29L19 170Q49 152 103 139T210 126Q360 126 362 208Q362 287 212 287H128L151 419H225Q312 419 354 441T398 501Q398 569 287 569Q237 569 185 557T97 530L122 674Q157 688 212 697T329 707Z" unicode="З"/>
			<glyph d="M148 695H299L240 360Q234 324 220 261H222L638 695H767L645 0H494L553 334Q555 342 556 350L558 364L564 395Q566 403 567 413T572 434H570L155 0H26Z" horiz-adv-x="756" unicode="И"/>
			<glyph d="M148 695H299L240 360Q234 324 220 261H222L638 695H767L645 0H494L553 334Q555 342 556 350L558 364L564 395Q566 403 567 413T572 434H570L155 0H26ZM318 895H419L418 885Q418 861 434 847T479 834Q511 834 531 850T556 895H662Q649 821 596 782T466 744Q397 744 356 776T316 866Q316 885 318 895Z" horiz-adv-x="756" unicode="Й"/>
			<glyph d="M148 695H302L243 359H245L554 695H765L418 343L636 0H449L243 346H241L180 0H26Z" horiz-adv-x="685" unicode="К"/>
			<glyph d="M290 695H733L610 0H457L555 554H398Q342 326 281 204T146 36T-35 -10L-9 141Q46 141 88 177T180 331T290 695Z" horiz-adv-x="721" unicode="Л"/>
			<glyph d="M148 695H333L436 208H438L714 695H917L795 0H650L728 457H726L471 0H349L253 456H251L171 0H26Z" horiz-adv-x="906" unicode="М"/>
			<glyph d="M148 695H301L252 419H558L607 695H761L639 0H485L534 278H228L179 0H26Z" horiz-adv-x="750" unicode="Н"/>
			<glyph d="M437 707Q593 707 679 623T765 396Q765 275 716 180T583 37T380 -12Q224 -12 138 73T52 311Q52 398 80 477T164 608T286 684T437 707ZM424 562Q323 562 267 493T212 315Q212 229 257 181T391 133Q493 133 549 204T606 384Q606 466 560 514T424 562Z" horiz-adv-x="778" unicode="О"/>
			<glyph d="M148 695H741L619 0H466L564 554H277L179 0H26Z" horiz-adv-x="730" unicode="П"/>
			<glyph d="M148 695H368Q524 695 589 637T654 477Q654 351 572 277T334 203H215L180 0H26ZM277 554L240 344H341Q411 344 450 374T489 457Q489 504 461 529T370 554Z" horiz-adv-x="651" unicode="Р"/>
			<glyph d="M432 707Q513 707 561 696T662 664L638 517Q603 534 553 548T451 562Q341 562 280 498T219 322Q219 229 270 183T403 137Q463 137 509 152T598 188L575 29Q535 11 483 0T377 -12Q230 -12 141 75T53 317Q53 494 158 600T432 707Z" horiz-adv-x="644" unicode="С"/>
			<glyph d="M88 695H652L627 555H422L325 0H171L268 555H63Z" horiz-adv-x="580" unicode="Т"/>
			<glyph d="M84 695H253L355 353L549 695H728L429 194Q355 71 288 30T114 -11Q76 -11 47 -2L72 138Q93 131 129 131Q172 131 203 145T258 192Z" horiz-adv-x="652" unicode="У"/>
			<glyph d="M449 715H603L592 653Q870 632 870 376Q870 235 767 140T484 42L473 -20H319L330 42Q195 51 123 124T52 321Q52 464 153 556T438 653ZM413 512Q304 508 256 457T209 331Q209 192 355 183ZM567 512L509 183Q606 187 659 238T713 366Q713 503 567 512Z" horiz-adv-x="884" unicode="Ф"/>
			<glyph d="M83 695H259L380 458L574 695H777L464 338L649 0H472L349 231L159 0H-40L268 356Z" horiz-adv-x="700" unicode="Х"/>
			<glyph d="M148 695H301L204 141H471L568 695H721L624 141H729L676 -160H538L566 0H26Z" horiz-adv-x="757" unicode="Ц"/>
			<glyph d="M126 695H279L249 523Q244 491 244 473Q244 424 274 401T379 379Q441 379 513 393L566 695H719L596 0H443L488 251Q419 238 349 238Q210 238 149 291T89 447Q89 482 97 528Z" horiz-adv-x="707" unicode="Ч"/>
			<glyph d="M148 695H301L204 141H401L498 695H651L554 141H751L848 695H1001L879 0H26Z" horiz-adv-x="990" unicode="Ш"/>
			<glyph d="M148 695H301L204 141H401L498 695H651L554 141H751L848 695H1001L904 141H1010L957 -160H819L847 0H26Z" horiz-adv-x="1038" unicode="Щ"/>
			<glyph d="M88 695H447L406 462H490Q626 462 690 404T754 247Q754 137 680 68T455 0H171L268 555H63ZM383 329L350 140H465Q528 140 558 166T589 239Q589 280 562 304T483 329Z" horiz-adv-x="791" unicode="Ъ"/>
			<glyph d="M148 695H302L261 462H345Q481 462 545 404T609 247Q609 137 535 68T310 0H26ZM238 329L205 140H320Q383 140 413 166T444 239Q444 280 417 304T338 329ZM770 695H924L802 0H648Z" horiz-adv-x="913" unicode="Ы"/>
			<glyph d="M148 695H302L261 462H345Q481 462 545 404T609 247Q609 137 535 68T310 0H26ZM238 329L205 140H320Q383 140 413 166T444 239Q444 280 417 304T338 329Z" horiz-adv-x="646" unicode="Ь"/>
			<glyph d="M303 707Q450 707 538 620T627 378Q627 201 522 94T248 -12Q167 -12 119 -1T18 31L42 178Q77 161 127 147T229 133Q312 133 367 169T445 272H153L178 414H458Q447 486 398 522T277 558Q217 558 171 543T82 507L105 666Q145 684 197 695T303 707Z" horiz-adv-x="644" unicode="Э"/>
			<glyph d="M707 707Q854 707 934 622T1015 396Q1015 288 976 195T855 45T650 -12Q508 -12 428 68T342 289H231L180 0H26L148 695H302L254 422H353Q380 547 467 627T707 707ZM694 562Q603 562 552 493T502 315Q502 229 541 181T661 133Q754 133 805 205T856 384Q856 466 815 514T694 562Z" horiz-adv-x="1029" unicode="Ю"/>
			<glyph d="M385 695H663L541 0H387L428 233H339L161 0H-35L189 278Q141 305 112 350T84 455Q84 556 151 625T385 695ZM369 562Q246 562 246 463Q246 424 273 398T353 373H452L486 562Z" horiz-adv-x="652" unicode="Я"/>
			<glyph d="M281 500Q375 500 422 460T469 347Q469 317 453 221L418 15Q308 -13 220 -13Q18 -13 18 139Q18 298 235 298Q264 298 320 294Q324 314 324 325Q324 376 244 376Q180 376 90 351L113 475Q145 485 190 492T281 500ZM237 206Q199 206 180 192T162 150Q162 125 179 112T228 99Q256 99 288 105L305 201Q273 206 237 206Z" horiz-adv-x="511" unicode="а"/>
			<glyph d="M602 750L577 612Q423 593 363 578T263 519T205 413L207 411Q233 438 272 455T361 473Q444 473 497 421T550 270Q550 150 472 68T276 -14Q35 -14 35 266Q35 370 70 466T172 626T342 709T566 745ZM304 345Q244 345 213 309T183 224Q183 175 208 147T281 120Q333 120 366 157T399 250Q399 293 374 319T304 345Z" horiz-adv-x="578" unicode="б"/>
			<glyph d="M101 487H339Q515 487 515 365Q515 321 486 289T398 247V246Q437 238 462 213T488 144Q488 85 442 42T283 0H15ZM227 374L213 294H303Q366 294 366 338Q366 374 312 374ZM196 200L181 112H272Q311 112 327 124T344 159Q344 200 278 200Z" horiz-adv-x="537" unicode="в"/>
			<glyph d="M101 487H461L438 355H223L161 0H15Z" horiz-adv-x="426" unicode="г"/>
			<glyph d="M191 487H577L514 132H589L538 -160H408L436 0H97L69 -160H-61L-10 132H51Q92 182 126 265T191 487ZM292 355Q257 217 206 132H368L408 355Z" horiz-adv-x="629" unicode="д"/>
			<glyph d="M306 499Q405 499 458 447T512 310Q512 280 507 256T496 201H182V194Q182 153 214 130T302 108Q379 108 456 138L434 15Q359 -14 274 -14Q150 -14 89 48T29 217Q29 344 103 421T306 499ZM300 388Q260 388 233 364T195 296H366Q370 312 370 322Q370 352 352 370T300 388Z" horiz-adv-x="529" unicode="е"/>
			<glyph d="M48 487H215L314 263H316L356 487H502L462 263H464L633 487H810L618 255L728 0H562L463 254H461L416 0H270L315 254H313L134 0H-42L160 267Z" horiz-adv-x="772" unicode="ж"/>
			<glyph d="M243 499Q334 499 381 465T428 371Q428 325 401 290T316 242V241Q356 230 378 203T401 141Q401 73 343 29T156 -14Q97 -14 51 -5T-20 14L2 134Q23 121 66 111T149 102Q250 102 250 150Q250 192 149 192H79L99 304H163Q221 304 247 315T274 349Q274 366 255 374T197 382Q159 382 119 374T51 357L72 473Q100 484 144 491T243 499Z" horiz-adv-x="450" unicode="з"/>
			<glyph d="M101 487H247L213 296Q209 271 199 221H201L453 487H580L494 0H348L382 191Q386 216 396 266H394L142 0H15Z" horiz-adv-x="595" unicode="и"/>
			<glyph d="M101 487H247L213 296Q209 271 199 221H201L453 487H580L494 0H348L382 191Q386 216 396 266H394L142 0H15ZM205 697H303L302 687Q302 663 317 648T362 634Q394 634 416 651T446 697H548Q533 619 480 579T350 540Q282 540 242 574T203 670Q203 679 205 697Z" horiz-adv-x="595" unicode="й"/>
			<glyph d="M101 487H247L208 267H210L419 487H611L374 252L518 0H344L208 258H206L161 0H15Z" horiz-adv-x="569" unicode="к"/>
			<glyph d="M176 487H542L456 0H310L372 355H276Q240 208 196 129T97 22T-39 -7L-14 133Q22 133 50 156T110 256T176 487Z" horiz-adv-x="557" unicode="л"/>
			<glyph d="M101 487H286L359 195H360L534 487H731L645 0H510L563 305H561L379 0H281L205 304H203L150 0H15Z" horiz-adv-x="746" unicode="м"/>
			<glyph d="M101 487H247L216 313H385L416 487H562L476 0H330L363 185H194L161 0H15Z" horiz-adv-x="577" unicode="н"/>
			<glyph d="M313 500Q415 500 478 438T541 274Q541 144 468 65T258 -14Q153 -14 91 49T29 223Q29 342 103 421T313 500ZM297 365Q245 365 212 328T180 230Q180 178 205 149T272 121Q335 121 362 164T389 264Q389 308 366 336T297 365Z" unicode="о"/>
			<glyph d="M101 487H556L470 0H324L387 355H224L161 0H15Z" horiz-adv-x="571" unicode="п"/>
			<glyph d="M302 499Q425 499 485 438T546 272Q546 145 463 65T260 -14Q209 -14 161 2L119 -235H-27L94 447Q148 473 192 486T302 499ZM290 367Q268 367 254 364T223 356L184 133Q219 120 258 120Q331 120 362 161T393 265Q393 314 367 340T290 367Z" horiz-adv-x="574" unicode="р"/>
			<glyph d="M320 500Q357 500 393 493T451 478L430 349Q407 359 381 365T320 371Q252 371 215 331T179 227Q179 172 211 144T296 116Q341 116 400 137L379 4Q323 -14 261 -14Q156 -14 92 49T29 219Q29 345 110 422T320 500Z" horiz-adv-x="441" unicode="с"/>
			<glyph d="M51 487H507L484 355H329L266 0H120L183 355H28Z" horiz-adv-x="472" unicode="т"/>
			<glyph d="M36 487H189L230 251Q238 201 238 180H240Q254 212 273 245L402 487H575L153 -235H-11L139 18Z" horiz-adv-x="525" unicode="у"/>
			<glyph d="M384 738H524L482 500Q583 492 644 431T706 271Q706 145 622 68T391 -14L352 -235H212L251 -14Q148 -4 87 55T27 214Q27 339 111 416T342 500ZM318 365Q254 360 215 327T177 230Q177 181 203 153T275 121ZM458 365L415 121Q479 126 517 159T556 256Q556 305 529 332T458 365Z" horiz-adv-x="734" unicode="ф"/>
			<glyph d="M38 487H216L294 348L415 487H606L374 246L529 0H350L264 143L141 0H-49L183 247Z" horiz-adv-x="566" unicode="х"/>
			<glyph d="M101 487H247L184 132H347L410 487H556L493 132H570L519 -160H389L417 0H15Z" horiz-adv-x="610" unicode="ц"/>
			<glyph d="M75 487H221L198 358Q196 342 196 337Q196 311 213 299T270 288Q303 288 340 296L374 487H520L434 0H288L317 164Q275 157 225 157Q133 157 90 195T48 308Q48 329 53 359Z" horiz-adv-x="535" unicode="ч"/>
			<glyph d="M101 487H247L184 132H307L370 487H516L453 132H576L639 487H785L699 0H15Z" horiz-adv-x="800" unicode="ш"/>
			<glyph d="M101 487H247L184 132H307L370 487H516L453 132H576L639 487H785L722 132H799L748 -160H618L646 0H15Z" horiz-adv-x="839" unicode="щ"/>
			<glyph d="M51 487H332L306 340H384Q472 340 517 296T562 178Q562 99 508 49T346 0H100L163 355H28ZM286 225L266 115H346Q382 115 399 130T417 171Q417 195 400 210T355 225Z" horiz-adv-x="595" unicode="ъ"/>
			<glyph d="M101 487H247L221 340H299Q387 340 432 296T477 178Q477 99 423 49T261 0H15ZM201 225L181 115H261Q297 115 314 130T332 171Q332 195 315 210T270 225ZM571 487H717L632 0H486Z" horiz-adv-x="733" unicode="ы"/>
			<glyph d="M101 487H247L221 340H299Q387 340 432 296T477 178Q477 99 423 49T261 0H15ZM201 225L181 115H261Q297 115 314 130T332 171Q332 195 315 210T270 225Z" horiz-adv-x="510" unicode="ь"/>
			<glyph d="M177 501Q282 501 345 438T409 268Q409 139 330 63T118 -13Q81 -13 42 -6T-17 10L4 128Q61 106 118 106Q171 106 205 129T254 195H50L68 295H260Q252 341 221 361T139 382Q90 382 41 365L63 486Q121 501 177 501Z" horiz-adv-x="438" unicode="э"/>
			<glyph d="M546 500Q647 500 707 438T767 274Q767 142 696 64T491 -14Q396 -14 337 41T270 194H195L161 0H15L101 487H247L213 294H277Q296 383 363 441T546 500ZM530 365Q481 365 450 328T420 230Q420 178 443 149T505 121Q564 121 589 164T615 264Q615 308 593 336T530 365Z" horiz-adv-x="796" unicode="ю"/>
			<glyph d="M268 487H514L428 0H282L310 154H238L128 0H-34L116 191Q49 232 49 319Q49 391 105 439T268 487ZM258 368Q225 368 209 353T194 316Q194 295 207 281T249 268H330L348 368Z" horiz-adv-x="529" unicode="я"/>
			<glyph d="M306 499Q405 499 458 447T512 310Q512 280 507 256T496 201H182V194Q182 153 214 130T302 108Q379 108 456 138L434 15Q359 -14 274 -14Q150 -14 89 48T29 217Q29 344 103 421T306 499ZM300 388Q260 388 233 364T195 296H366Q370 312 370 322Q370 352 352 370T300 388ZM167 723H304L393 554H289Z" horiz-adv-x="529" unicode="ѐ"/>
			<glyph d="M306 499Q405 499 458 447T512 310Q512 280 507 256T496 201H182V194Q182 153 214 130T302 108Q379 108 456 138L434 15Q359 -14 274 -14Q150 -14 89 48T29 217Q29 344 103 421T306 499ZM300 388Q260 388 233 364T195 296H366Q370 312 370 322Q370 352 352 370T300 388ZM185 693H301L280 576H164ZM362 693H478L457 576H341Z" horiz-adv-x="529" unicode="ё"/>
			<glyph d="M146 738H292L279 670H429L407 547H257L245 478Q309 500 372 500Q446 500 487 463T528 354Q528 328 517 262L463 -47Q447 -140 396 -190T249 -240Q219 -240 191 -235T149 -226L171 -101L191 -106Q207 -110 233 -110Q269 -110 290 -89T319 -31L370 249Q377 289 377 308Q377 339 361 352T308 366Q268 366 224 354L162 0H16L112 547H47L69 670H134Z" unicode="ђ"/>
			<glyph d="M101 487H461L438 355H223L161 0H15ZM334 723H478L336 554H225Z" horiz-adv-x="426" unicode="ѓ"/>
			<glyph d="M320 501Q356 501 393 494T452 478L431 360Q402 371 377 376T320 382Q268 382 234 359T185 295H389L371 195H178Q192 106 299 106Q351 106 400 123L378 2Q320 -13 261 -13Q156 -13 92 50T29 220Q29 349 108 425T320 501Z" horiz-adv-x="441" unicode="є"/>
			<glyph d="M274 505Q323 505 366 498T439 482L419 364Q344 389 272 389Q238 389 218 378T198 347Q198 326 231 315T311 285T384 238T411 157Q411 82 358 34T183 -13Q133 -13 85 -4T5 14L22 131Q104 100 176 100Q263 100 263 143Q263 166 225 179T144 209T78 257T55 340Q55 415 112 460T274 505Z" horiz-adv-x="457" unicode="ѕ"/>
			<glyph d="M143 741H295L268 589H116ZM101 487H247L162 0H16Z" horiz-adv-x="262" unicode="і"/>
			<glyph d="M101 487H247L162 0H16ZM61 693H177L156 576H40ZM238 693H354L333 576H217Z" horiz-adv-x="263" unicode="ї"/>
			<glyph d="M142 741H294L267 589H115ZM100 487H246L153 -47Q137 -139 86 -189T-61 -240Q-91 -240 -118 -235T-161 -226L-139 -101L-119 -106Q-103 -110 -77 -110Q-5 -110 9 -31Z" horiz-adv-x="261" unicode="ј"/>
			<glyph d="M176 487H542L516 340H594Q682 340 727 296T772 178Q772 99 718 49T556 0H310L373 355H276Q240 208 196 129T97 22T-39 -7L-14 133Q22 133 50 156T110 256T176 487ZM496 225L476 115H556Q592 115 609 130T627 171Q627 195 610 210T565 225Z" horiz-adv-x="805" unicode="љ"/>
			<glyph d="M101 487H247L218 323H378L407 487H553L527 340H605Q693 340 738 296T783 178Q783 99 729 49T567 0H321L355 195H195L161 0H15ZM507 225L487 115H567Q603 115 620 130T638 171Q638 195 621 210T576 225Z" horiz-adv-x="816" unicode="њ"/>
			<glyph d="M145 738H291L279 670H429L407 547H256L244 478Q308 500 371 500Q445 500 486 463T527 354Q527 328 516 262L470 0H324L369 249Q376 289 376 308Q376 339 360 352T307 366Q267 366 223 354L161 0H15L111 547H47L69 670H133Z" horiz-adv-x="569" unicode="ћ"/>
			<glyph d="M377 723H521L379 554H268ZM101 487H247L208 267H210L419 487H611L374 252L518 0H344L208 258H206L161 0H15Z" horiz-adv-x="569" unicode="ќ"/>
			<glyph d="M101 487H247L213 296Q209 271 199 221H201L453 487H580L494 0H348L382 191Q386 216 396 266H394L142 0H15ZM215 723H352L441 554H337Z" horiz-adv-x="595" unicode="ѝ"/>
			<glyph d="M36 487H189L230 251Q238 201 238 180H240Q254 212 273 245L402 487H575L153 -235H-11L139 18ZM146 697H244L243 687Q243 663 258 648T303 634Q335 634 357 651T387 697H489Q474 619 421 579T291 540Q223 540 183 574T144 670Q144 679 146 697Z" horiz-adv-x="525" unicode="ў"/>
			<glyph d="M101 487H247L184 132H347L410 487H556L470 0H308L280 -160H150L178 0H15Z" horiz-adv-x="571" unicode="џ"/>
			<glyph d="M484 856H622L569 555H278L180 0H26L148 695H456Z" horiz-adv-x="522" unicode="Ґ"/>
			<glyph d="M359 647H489L438 355H223L161 0H15L101 487H331Z" horiz-adv-x="426" unicode="ґ"/>
			<glyph d="M140 695H585L561 555H270L240 387H401L378 254H217L172 0H18L63 254H4L27 387H86Z" horiz-adv-x="514" unicode="Ғ"/>
			<glyph d="M94 487H454L431 355H216L199 260H326L306 147H180L154 0H8L34 147H-14L6 260H54Z" horiz-adv-x="419" unicode="ғ"/>
			<glyph d="M80 695H263L411 355H413L472 695H626L567 355H569L819 695H1018L731 341L828 141H936L883 -160H745L773 0H716L566 342H564L504 0H350L410 342H408L154 0H-42L247 364Z" horiz-adv-x="972" unicode="Җ"/>
			<glyph d="M48 487H215L314 263H316L356 487H502L462 263H464L633 487H810L618 255L671 132H761L710 -160H580L608 0H562L463 254H461L416 0H270L315 254H313L134 0H-42L160 267Z" horiz-adv-x="796" unicode="җ"/>
			<glyph d="M147 695H301L242 359H244L553 695H764L417 343L545 141H675L622 -160H484L512 0H448L242 346H240L179 0H25Z" horiz-adv-x="711" unicode="Қ"/>
			<glyph d="M101 487H247L208 267H210L419 487H611L374 252L443 132H550L499 -160H369L397 0H344L208 258H206L161 0H15Z" horiz-adv-x="585" unicode="қ"/>
			<glyph d="M148 695H302L254 419H302L326 555H426L402 419H403L608 695H804L518 343L682 0H499L379 278H377L350 127H250L277 278H229L180 0H26Z" horiz-adv-x="725" unicode="Ҝ"/>
			<glyph d="M101 487H247L216 310H257L277 426H366L346 310L478 487H655L463 252L573 0H407L329 197H326L306 83H217L237 197H196L161 0H15Z" horiz-adv-x="617" unicode="ҝ"/>
			<glyph d="M148 695H301L252 419H558L607 695H761L664 141H766L713 -160H575L603 0H485L534 278H228L179 0H26Z" horiz-adv-x="794" unicode="Ң"/>
			<glyph d="M101 487H247L216 313H385L416 487H562L499 132H576L525 -160H395L423 0H330L363 185H194L161 0H15Z" horiz-adv-x="616" unicode="ң"/>
			<glyph d="M72 695H238L337 384L550 695H738L397 232L357 0H202L242 229Z" horiz-adv-x="650" unicode="Ү"/>
			<glyph d="M36 487H186L220 293Q230 236 236 170H238Q253 206 298 293L400 487H568L289 0L248 -235H102L143 0Z" horiz-adv-x="518" unicode="ү"/>
			<glyph d="M72 695H238L337 384L550 695H738L467 327H576L553 194H390L357 0H202L236 194H74L97 327H206Z" horiz-adv-x="650" unicode="Ұ"/>
			<glyph d="M36 487H186L220 293Q230 236 236 170H238Q253 206 298 293L400 487H568L318 50H409L387 -73H276L248 -235H102L130 -73H19L41 50H132Z" horiz-adv-x="518" unicode="ұ"/>
			<glyph d="M83 695H259L380 458L574 695H777L464 338L572 141H689L636 -160H498L526 0H472L349 231L159 0H-40L268 356Z" horiz-adv-x="725" unicode="Ҳ"/>
			<glyph d="M38 487H216L294 348L415 487H606L374 246L446 132H564L513 -160H383L411 0H350L264 143L141 0H-49L183 247Z" horiz-adv-x="599" unicode="ҳ"/>
			<glyph d="M126 695H279L249 523Q244 491 244 473Q244 437 259 416T311 386L339 545H454L425 381Q472 385 513 393L566 695H719L596 0H443L488 251Q436 242 400 240L378 117H263L285 241Q181 253 135 305T89 447Q89 482 97 528Z" horiz-adv-x="707" unicode="Ҹ"/>
			<glyph d="M75 487H221L199 361Q197 345 197 340Q197 307 230 297L249 406H338L318 293Q347 296 361 299L394 487H540L454 0H308L337 164Q317 160 294 159L277 63H188L205 159Q122 166 85 203T48 308Q48 329 53 359Z" horiz-adv-x="555" unicode="ҹ"/>
			<glyph d="M148 695H301L256 444Q325 457 395 457Q534 457 594 404T655 248Q655 213 647 167L618 0H465L495 172Q500 204 500 222Q500 271 469 293T365 316Q303 316 231 302L178 0H25Z" horiz-adv-x="707" unicode="Һ"/>
			<glyph d="M101 487H247L218 323Q260 330 310 330Q402 330 444 292T487 179Q487 158 482 128L460 0H314L337 129Q339 145 339 150Q339 176 321 187T265 199Q232 199 195 191L161 0H15Z" horiz-adv-x="535" unicode="һ"/>
			<glyph d="M377 715Q541 715 628 628T715 377Q715 305 690 224T610 85T488 3T338 -20Q193 -20 115 57T37 259Q37 325 60 400H551Q544 480 494 526T347 572Q284 572 227 558T126 524L153 674Q247 715 377 715ZM196 282Q193 263 193 245Q193 187 230 150T342 113Q509 113 544 282Z" horiz-adv-x="731" unicode="Ә"/>
			<glyph d="M255 501Q379 501 439 438T500 270Q500 143 426 65T223 -12Q124 -12 70 40T17 177Q17 207 21 231T33 286H347V293Q347 334 315 356T227 379Q150 379 73 349L95 472Q170 501 255 501ZM163 191Q159 175 159 165Q159 135 176 117T229 99Q269 99 295 123T334 191Z" horiz-adv-x="529" unicode="ә"/>
			<glyph d="M437 707Q593 707 679 623T765 396Q765 275 716 180T583 37T380 -12Q224 -12 138 73T52 311Q52 398 80 477T164 608T286 684T437 707ZM424 562Q342 562 292 518T224 406H605Q599 479 553 520T424 562ZM213 293Q218 217 263 175T391 133Q473 133 523 178T594 293Z" horiz-adv-x="778" unicode="Ө"/>
			<glyph d="M313 500Q415 500 478 438T541 274Q541 144 468 65T258 -14Q153 -14 91 49T29 223Q29 342 103 421T313 500ZM297 379Q256 379 226 356T184 290H391Q386 331 363 355T297 379ZM177 200Q182 152 206 128T272 104Q319 104 346 130T385 200Z" unicode="ө"/>
			<glyph d="M96 695H252L285 329Q289 287 289 247Q289 231 288 215H290Q305 254 345 334L532 695H649L693 319Q700 253 700 217V209H702Q719 257 751 325L922 695H1093L744 0H599L554 323Q554 334 549 375T543 446H541Q520 394 485 326L323 0H177ZM450 893H589L671 756H566Z" horiz-adv-x="1029" unicode="Ẁ"/>
			<glyph d="M54 487H199L218 277Q223 220 223 182H225Q245 234 265 275L373 487H501L529 271Q536 223 538 185H540Q561 244 574 272L675 487H835L584 0H444L412 198Q401 264 401 297H399Q380 250 354 197L254 0H116ZM314 723H451L540 554H436Z" horiz-adv-x="803" unicode="ẁ"/>
			<glyph d="M96 695H252L285 329Q289 287 289 247Q289 231 288 215H290Q305 254 345 334L532 695H649L693 319Q700 253 700 217V209H702Q719 257 751 325L922 695H1093L744 0H599L554 323Q554 334 549 375T543 446H541Q520 394 485 326L323 0H177ZM625 893H768L642 756H533Z" horiz-adv-x="1029" unicode="Ẃ"/>
			<glyph d="M54 487H199L218 277Q223 220 223 182H225Q245 234 265 275L373 487H501L529 271Q536 223 538 185H540Q561 244 574 272L675 487H835L584 0H444L412 198Q401 264 401 297H399Q380 250 354 197L254 0H116ZM496 723H640L498 554H387Z" horiz-adv-x="803" unicode="ẃ"/>
			<glyph d="M96 695H252L285 329Q289 287 289 247Q289 231 288 215H290Q305 254 345 334L532 695H649L693 319Q700 253 700 217V209H702Q719 257 751 325L922 695H1093L744 0H599L554 323Q554 334 549 375T543 446H541Q520 394 485 326L323 0H177ZM476 864H592L571 747H455ZM653 864H769L748 747H632Z" horiz-adv-x="1029" unicode="Ẅ"/>
			<glyph d="M54 487H199L218 277Q223 220 223 182H225Q245 234 265 275L373 487H501L529 271Q536 223 538 185H540Q561 244 574 272L675 487H835L584 0H444L412 198Q401 264 401 297H399Q380 250 354 197L254 0H116ZM332 693H448L427 576H311ZM509 693H625L604 576H488Z" horiz-adv-x="803" unicode="ẅ"/>
			<glyph d="M426 707Q561 707 634 640T715 464L524 375Q602 359 644 317T687 209Q687 112 611 50T400 -11Q306 -11 241 14L265 153Q328 128 400 128Q450 128 485 148T520 204Q520 289 352 301L372 418L539 501Q532 526 503 547T424 568Q339 568 300 519T244 377L178 0H23L96 412Q149 707 426 707Z" horiz-adv-x="729" unicode="ẞ"/>
			<glyph d="M72 695H238L337 384L550 695H738L397 232L357 0H202L242 229ZM247 893H386L468 756H363Z" horiz-adv-x="650" unicode="Ỳ"/>
			<glyph d="M36 487H189L230 251Q238 201 238 180H240Q254 212 273 245L402 487H575L153 -235H-11L139 18ZM156 723H293L382 554H278Z" horiz-adv-x="525" unicode="ỳ"/>
			<glyph d="M62 337H521L497 204H38Z" horiz-adv-x="550" unicode="–"/>
			<glyph d="M62 337H751L727 204H38Z" horiz-adv-x="780" unicode="—"/>
			<glyph d="M207 714H320L152 415H5Z" horiz-adv-x="222" unicode="‘"/>
			<glyph d="M183 714H330L128 415H15Z" horiz-adv-x="222" unicode="’"/>
			<glyph d="M84 154H231L29 -145H-84Z" horiz-adv-x="222" unicode="‚"/>
			<glyph d="M207 714H320L152 415H5ZM414 714H527L359 415H212Z" horiz-adv-x="429" unicode="“"/>
			<glyph d="M183 714H330L128 415H15ZM390 714H537L335 415H222Z" horiz-adv-x="429" unicode="”"/>
			<glyph d="M84 154H231L29 -145H-84ZM291 154H438L236 -145H123Z" horiz-adv-x="429" unicode="„"/>
			<glyph d="M268 696H397L355 488L529 493L510 381L337 388L253 -42H153L220 388L50 381L69 493L238 488Z" horiz-adv-x="511" unicode="†"/>
			<glyph d="M268 696H397L358 508L533 513L513 401L340 408L321 327L312 246L487 253L467 141L294 146L267 -42H138L177 146L7 141L27 253L195 246L214 327L223 408L53 401L73 513L241 508Z" horiz-adv-x="510" unicode="‡"/>
			<glyph d="M99 453H379L330 173H50Z" horiz-adv-x="410" unicode="•"/>
			<glyph d="M271 157H428L401 0H244ZM508 157H665L638 0H481ZM31 157H188L161 0H4Z" horiz-adv-x="728" unicode="…"/>
			<glyph d="M274 707Q349 707 393 664T437 546Q437 458 386 394T242 331Q163 331 119 376T75 504Q75 593 130 650T274 707ZM724 695H868L232 0H88ZM263 608Q227 608 206 581T186 506Q186 430 250 430Q326 430 326 537Q326 571 310 589T263 608ZM720 364Q795 364 839 321T883 203Q883 115 832 51T688 -12Q609 -12 565 33T521 161Q521 250 576 307T720 364ZM1114 364Q1189 364 1233 321T1277 203Q1277 115 1226 51T1082 -12Q1003 -12 959 33T915 161Q915 250 970 307T1114 364ZM709 265Q673 265 652 238T632 163Q632 87 696 87Q772 87 772 194Q772 228 756 246T709 265ZM1103 265Q1067 265 1046 238T1026 163Q1026 87 1090 87Q1166 87 1166 194Q1166 228 1150 246T1103 265Z" horiz-adv-x="1313" unicode="‰"/>
			<glyph d="M168 413H309L140 230L234 55H111L14 243Z" horiz-adv-x="299" unicode="‹"/>
			<glyph d="M62 413H185L282 225L128 55H-13L156 238Z" horiz-adv-x="299" unicode="›"/>
			<glyph d="M337 695H474L-162 0H-299Z" horiz-adv-x="136" unicode="⁄"/>
			<glyph d="M291 797Q366 797 403 752T441 625Q441 497 391 409T244 322Q168 322 128 370T89 506Q89 631 140 714T291 797ZM282 697Q246 697 224 634T203 502Q203 460 213 443T246 427Q282 427 302 493T323 624Q323 665 313 681T282 697Z" horiz-adv-x="417" unicode="⁰"/>
			<glyph d="M294 789H421L373 514H443L425 419H355L340 330H230L245 419H48L68 526ZM284 649Q260 616 241 594L176 514H262L286 649Z" horiz-adv-x="417" unicode="⁴"/>
			<glyph d="M173 787H445L426 681H259L246 629H260Q338 629 373 591T408 492Q408 413 355 366T207 320Q134 320 74 349L92 446Q139 424 198 424Q245 424 267 438T290 481Q290 535 197 535Q174 535 144 532T113 530Z" horiz-adv-x="419" unicode="⁵"/>
			<glyph d="M280 787H421L274 613Q287 618 306 618Q356 618 391 587T426 492Q426 419 376 369T244 320Q169 320 127 361T85 470Q85 540 141 613ZM257 531Q230 531 216 514T202 474Q202 451 215 437T252 424Q280 424 292 441T305 482Q305 503 293 517T257 531Z" horiz-adv-x="423" unicode="⁶"/>
			<glyph d="M131 789H464L450 712L202 330H71L304 683H113Z" horiz-adv-x="414" unicode="⁷"/>
			<glyph d="M290 797Q367 797 405 764T443 680Q443 585 347 560V559Q379 549 398 525T417 466Q417 405 371 363T236 321Q162 321 119 356T77 447Q77 551 183 575V576Q159 587 143 612T127 669Q127 728 171 762T290 797ZM286 699Q268 699 255 688T242 657Q242 643 253 631T280 620Q297 620 311 631T325 663Q325 680 314 689T286 699ZM249 509Q224 509 209 496T195 461Q195 444 208 432T246 420Q270 420 284 432T298 466Q298 485 285 497T249 509Z" horiz-adv-x="419" unicode="⁸"/>
			<glyph d="M291 799Q366 799 408 758T450 649Q450 575 394 506L255 332H114L261 506Q248 501 229 501Q179 501 144 532T109 627Q109 700 158 749T291 799ZM283 695Q255 695 242 678T230 637Q230 616 241 602T278 588Q305 588 319 605T333 645Q333 668 319 681T283 695Z" horiz-adv-x="422" unicode="⁹"/>
			<glyph d="M224 367Q299 367 336 322T374 195Q374 67 324 -20T177 -108Q101 -108 61 -60T22 76Q22 201 73 284T224 367ZM215 267Q179 267 157 204T136 72Q136 30 146 13T179 -3Q215 -3 235 63T256 194Q256 235 246 251T215 267Z" horiz-adv-x="417" unicode="₀"/>
			<glyph d="M262 373H328L245 -97H129L186 228L54 171L76 293Z" horiz-adv-x="406" unicode="₁"/>
			<glyph d="M220 369Q289 369 325 335T362 244Q362 188 331 147T232 59L156 8H329L311 -98H-13L5 2L173 132Q211 161 227 181T243 221Q243 241 230 253T185 265Q157 265 125 254T67 229L88 342Q111 354 146 361T220 369Z" horiz-adv-x="417" unicode="₂"/>
			<glyph d="M198 367Q275 367 313 334T351 251Q351 205 326 174T251 132V131Q281 123 303 100T325 37Q325 -26 275 -67T127 -108Q81 -108 45 -99T-12 -79L6 21Q23 11 53 1T119 -8Q162 -8 181 4T200 37Q200 62 179 71T116 80H68L87 185H138Q182 185 203 194T225 226Q225 247 209 255T163 264Q134 264 102 256T53 240L71 346Q93 355 127 361T198 367Z" horiz-adv-x="419" unicode="₃"/>
			<glyph d="M220 359H347L299 84H369L351 -11H281L266 -100H156L171 -11H-26L-6 96ZM210 219Q186 186 167 164L102 84H188L212 219Z" horiz-adv-x="417" unicode="₄"/>
			<glyph d="M102 357H374L355 251H188L175 199H189Q267 199 302 161T337 62Q337 -17 284 -63T136 -110Q63 -110 3 -81L21 16Q68 -6 127 -6Q174 -6 196 8T219 51Q219 105 126 105Q103 105 73 102T42 100Z" horiz-adv-x="419" unicode="₅"/>
			<glyph d="M216 357H357L210 183Q223 188 242 188Q292 188 327 157T362 62Q362 -11 312 -60T180 -110Q105 -110 63 -69T21 40Q21 110 77 183ZM193 101Q166 101 152 84T138 44Q138 21 151 7T188 -6Q216 -6 228 11T241 52Q241 73 229 87T193 101Z" horiz-adv-x="423" unicode="₆"/>
			<glyph d="M55 359H388L374 282L126 -100H-5L228 253H37Z" horiz-adv-x="414" unicode="₇"/>
			<glyph d="M220 367Q297 367 335 334T373 250Q373 155 277 130V129Q309 119 328 95T347 36Q347 -25 301 -67T166 -109Q92 -109 49 -74T7 17Q7 121 113 145V146Q89 157 73 182T57 239Q57 298 101 332T220 367ZM216 269Q198 269 185 258T172 227Q172 213 183 201T210 190Q227 190 241 201T255 233Q255 250 244 259T216 269ZM179 79Q154 79 139 66T125 31Q125 14 138 2T176 -10Q200 -10 214 2T228 36Q228 55 215 67T179 79Z" horiz-adv-x="419" unicode="₈"/>
			<glyph d="M232 369Q307 369 349 328T391 219Q391 145 335 76L196 -98H55L202 76Q189 71 170 71Q120 71 85 102T50 197Q50 270 99 319T232 369ZM224 265Q196 265 183 248T171 207Q171 186 182 172T219 158Q246 158 260 175T274 215Q274 238 260 251T224 265Z" horiz-adv-x="422" unicode="₉"/>
			<glyph d="M461 713Q545 713 605 689L581 558Q533 579 473 579Q422 579 389 558T337 492H517L498 384H299Q289 348 286 313H486L467 205H284Q289 159 315 140T386 121Q447 121 509 145L485 7Q457 -2 427 -8T358 -14Q258 -14 199 38T128 205H50L69 313H130Q136 363 141 384H81L100 492H170Q213 609 290 661T461 713Z" horiz-adv-x="587" unicode="€"/>
			<glyph d="M127 695H546L525 577H382Q395 565 406 543T420 501H512L491 383H412Q400 319 352 272T237 207L383 0H213L92 189H38L59 307H122Q176 307 211 326T260 383H72L93 501H275Q272 537 244 557T173 577H106Z" horiz-adv-x="509" unicode="₹"/>
			<glyph d="M192 695H346L324 570L489 653L463 511L299 428L287 357L453 440L427 298L262 215L251 150Q279 141 313 141Q356 141 393 164T454 236L587 176Q540 80 464 35T281 -10Q224 -10 170 1T75 33L92 130L12 90L37 232L117 272L130 344L48 303L73 445L155 486Z" horiz-adv-x="612" unicode="₺"/>
			<glyph d="M188 695H400Q537 695 594 644T651 504Q651 395 582 335T374 274H269L256 203H476L455 82H235L221 0H66L80 82H-1L20 203H102L114 274H33L55 399H136ZM320 564L290 399H368Q420 399 450 422T481 485Q481 564 390 564Z" horiz-adv-x="651" unicode="₽"/>
			<glyph d="M311 712Q378 712 414 671T451 570Q451 496 406 422T277 278V169Q277 128 293 109T335 91Q368 91 414 128L464 53Q384 -15 297 -15Q215 -15 175 30T136 150V182L83 136L33 204L136 292V506Q136 600 184 656T311 712ZM316 613Q277 613 277 521V394Q317 451 333 484T350 559Q350 582 341 597T316 613Z" horiz-adv-x="563" unicode="ℓ"/>
			<glyph d="M980 713Q1069 713 1124 660T1179 515Q1179 404 1115 334T932 264Q841 264 786 319T732 471Q732 575 796 644T980 713ZM148 695H275L484 263H486Q489 293 500 362L559 695H705L583 0H458L247 430H245Q243 410 234 355L230 330L172 0H26ZM966 595Q920 595 892 563T864 477Q864 431 885 406T944 382Q999 382 1023 420T1047 507Q1047 545 1026 570T966 595ZM699 194H1111L1089 72H677Z" horiz-adv-x="1181" unicode="№"/>
			<glyph d="M72 695H376V606H273V330H175V606H72ZM419 695H556L629 477H630L702 695H839V330H746L745 547H744L668 324H589L513 547H512V330H419Z" horiz-adv-x="830" unicode="™"/>
			<glyph d="M445 712Q593 712 675 632T757 425Q757 321 702 246T561 142L559 133H716L693 0H392L424 186Q509 207 555 270T602 410Q602 485 559 532T432 580Q339 580 281 515T224 358Q224 292 253 248T332 186L300 0H10L33 133H179L183 148Q138 174 104 230T71 369Q71 438 97 507T179 625T299 692T445 712Z" horiz-adv-x="778" unicode="Ω"/>
			<glyph d="M415 671Q572 671 682 570T793 324H185Q175 324 175 313V116Q222 65 285 37T415 10Q488 10 554 42T667 131H724Q668 63 586 26T415 -11Q260 -11 148 87T36 330Q36 474 146 572T415 671ZM415 650Q345 650 282 621T175 543V358Q175 352 177 349T185 347H646Q651 347 653 349T655 358V542Q611 593 547 621T415 650Z" horiz-adv-x="830" unicode="℮"/>
			<glyph d="M401 722Q512 722 570 657T628 488Q628 396 590 278T471 75T265 -11Q163 -11 110 41T57 194Q57 311 137 392T340 474Q435 474 477 425Q481 433 483 455T486 492Q486 546 460 576T379 607Q309 607 249 559Q243 575 226 608T203 657Q246 691 295 706T401 722ZM346 365Q282 365 244 309T206 178Q206 143 223 123T275 103Q337 103 380 161T449 308Q422 365 346 365Z" horiz-adv-x="657" unicode="∂"/>
			<glyph d="M370 695H514L675 0H-39ZM410 495L204 136H491L412 495Z" horiz-adv-x="722" unicode="∆"/>
			<glyph d="M154 734H775L606 -225H460L606 605H276L130 -225H-15Z" horiz-adv-x="757" unicode="∏"/>
			<glyph d="M129 734H703L680 606H294L487 262L150 -97H575L553 -225H-57L-40 -120L319 261L110 626Z" horiz-adv-x="667" unicode="∑"/>
			<glyph d="M60 371H546V235H60Z" horiz-adv-x="606" unicode="−"/>
			<glyph d="M423 750H548L65 -49H-59Z" horiz-adv-x="447" unicode="∕"/>
			<glyph d="M72 394H229L202 237H45Z" horiz-adv-x="250" unicode="∙"/>
			<glyph d="M472 753H588L368 -113H260L116 194L60 164L16 252L177 338L301 66Z" horiz-adv-x="585" unicode="√"/>
			<glyph d="M232 462Q343 462 428 350Q467 399 514 430T623 462Q705 462 757 411T809 279Q809 198 757 145T624 92Q513 92 429 199Q387 150 340 121T235 92Q152 92 100 143T48 277Q48 358 99 410T232 462ZM236 359Q200 359 178 335T156 276Q156 240 178 217T238 195Q273 195 306 218T366 276Q339 312 304 335T236 359ZM618 359Q554 359 490 276Q518 239 551 216T620 194Q658 194 679 218T701 277Q701 313 679 336T618 359Z" horiz-adv-x="860" unicode="∞"/>
			<glyph d="M379 763Q417 763 450 750T492 711Q488 683 476 659T447 622Q426 624 407 642T374 655T352 634T344 588L345 546V113Q345 -7 337 -70T292 -178T175 -222Q137 -222 103 -208T61 -168Q66 -135 76 -113T107 -81Q128 -81 146 -101T185 -109T207 -40L206 494Q206 580 218 637T268 728T379 763Z" horiz-adv-x="574" unicode="∫"/>
			<glyph d="M195 305Q233 305 266 291T330 257T396 238Q446 238 486 302L579 228Q541 172 493 143T391 114Q353 114 320 128T256 161T190 181Q140 181 100 117L7 191Q45 247 93 276T195 305ZM195 540Q233 540 266 526T330 492T396 473Q446 473 486 537L579 463Q541 407 493 378T391 349Q353 349 320 363T256 396T190 416Q140 416 100 352L7 426Q45 482 93 511T195 540Z" horiz-adv-x="586" unicode="≈"/>
			<glyph d="M369 589H506L458 494H536V358H389L333 248H536V112H265L217 17H80L128 112H50V248H196L252 358H50V494H321Z" horiz-adv-x="586" unicode="≠"/>
			<glyph d="M536 689V535L224 424L536 313V160L50 355V493ZM50 136H536V0H50Z" horiz-adv-x="586" unicode="≤"/>
			<glyph d="M50 689L536 493V355L50 160V313L362 424L50 535ZM50 136H536V0H50Z" horiz-adv-x="586" unicode="≥"/>
			<glyph d="M256 714H338L545 348L338 -17H256L50 348ZM297 581L172 348L297 115L423 348Z" horiz-adv-x="601" unicode="◊"/>
		</font>
</defs>
</svg>
